<?xml version="1.0" encoding="utf-8" standalone="no"?>
<!DOCTYPE svg PUBLIC "-//W3C//DTD SVG 1.1//EN"
  "http://www.w3.org/Graphics/SVG/1.1/DTD/svg11.dtd">
<!-- Created with matplotlib (https://matplotlib.org/) -->
<svg height="345.6pt" version="1.1" viewBox="0 0 460.8 345.6" width="460.8pt" xmlns="http://www.w3.org/2000/svg" xmlns:xlink="http://www.w3.org/1999/xlink">
 <defs>
  <style type="text/css">
*{stroke-linecap:butt;stroke-linejoin:round;}
  </style>
 </defs>
 <g id="figure_1">
  <g id="patch_1">
   <path d="M 0 345.6 
L 460.8 345.6 
L 460.8 0 
L 0 0 
z
" style="fill:#ffffff;"/>
  </g>
  <g id="axes_1">
   <g id="patch_2">
    <path d="M 57.6 307.584 
L 414.72 307.584 
L 414.72 41.472 
L 57.6 41.472 
z
" style="fill:#ffffff;"/>
   </g>
   <g id="matplotlib.axis_1">
    <g id="xtick_1">
     <g id="line2d_1">
      <defs>
       <path d="M 0 0 
L 0 3.5 
" id="m77e07810f8" style="stroke:#000000;stroke-width:0.8;"/>
      </defs>
      <g>
       <use style="stroke:#000000;stroke-width:0.8;" x="132.143181" xlink:href="#m77e07810f8" y="307.584"/>
      </g>
     </g>
     <g id="text_1">
      <!-- 20 -->
      <defs>
       <path d="M 19.1875 8.296875 
L 53.609375 8.296875 
L 53.609375 0 
L 7.328125 0 
L 7.328125 8.296875 
Q 12.9375 14.109375 22.625 23.890625 
Q 32.328125 33.6875 34.8125 36.53125 
Q 39.546875 41.84375 41.421875 45.53125 
Q 43.3125 49.21875 43.3125 52.78125 
Q 43.3125 58.59375 39.234375 62.25 
Q 35.15625 65.921875 28.609375 65.921875 
Q 23.96875 65.921875 18.8125 64.3125 
Q 13.671875 62.703125 7.8125 59.421875 
L 7.8125 69.390625 
Q 13.765625 71.78125 18.9375 73 
Q 24.125 74.21875 28.421875 74.21875 
Q 39.75 74.21875 46.484375 68.546875 
Q 53.21875 62.890625 53.21875 53.421875 
Q 53.21875 48.921875 51.53125 44.890625 
Q 49.859375 40.875 45.40625 35.40625 
Q 44.1875 33.984375 37.640625 27.21875 
Q 31.109375 20.453125 19.1875 8.296875 
z
" id="DejaVuSans-50"/>
       <path d="M 31.78125 66.40625 
Q 24.171875 66.40625 20.328125 58.90625 
Q 16.5 51.421875 16.5 36.375 
Q 16.5 21.390625 20.328125 13.890625 
Q 24.171875 6.390625 31.78125 6.390625 
Q 39.453125 6.390625 43.28125 13.890625 
Q 47.125 21.390625 47.125 36.375 
Q 47.125 51.421875 43.28125 58.90625 
Q 39.453125 66.40625 31.78125 66.40625 
z
M 31.78125 74.21875 
Q 44.046875 74.21875 50.515625 64.515625 
Q 56.984375 54.828125 56.984375 36.375 
Q 56.984375 17.96875 50.515625 8.265625 
Q 44.046875 -1.421875 31.78125 -1.421875 
Q 19.53125 -1.421875 13.0625 8.265625 
Q 6.59375 17.96875 6.59375 36.375 
Q 6.59375 54.828125 13.0625 64.515625 
Q 19.53125 74.21875 31.78125 74.21875 
z
" id="DejaVuSans-48"/>
      </defs>
      <g transform="translate(125.780681 322.182437)scale(0.1 -0.1)">
       <use xlink:href="#DejaVuSans-50"/>
       <use x="63.623047" xlink:href="#DejaVuSans-48"/>
      </g>
     </g>
    </g>
    <g id="xtick_2">
     <g id="line2d_2">
      <g>
       <use style="stroke:#000000;stroke-width:0.8;" x="210.964485" xlink:href="#m77e07810f8" y="307.584"/>
      </g>
     </g>
     <g id="text_2">
      <!-- 40 -->
      <defs>
       <path d="M 37.796875 64.3125 
L 12.890625 25.390625 
L 37.796875 25.390625 
z
M 35.203125 72.90625 
L 47.609375 72.90625 
L 47.609375 25.390625 
L 58.015625 25.390625 
L 58.015625 17.1875 
L 47.609375 17.1875 
L 47.609375 0 
L 37.796875 0 
L 37.796875 17.1875 
L 4.890625 17.1875 
L 4.890625 26.703125 
z
" id="DejaVuSans-52"/>
      </defs>
      <g transform="translate(204.601985 322.182437)scale(0.1 -0.1)">
       <use xlink:href="#DejaVuSans-52"/>
       <use x="63.623047" xlink:href="#DejaVuSans-48"/>
      </g>
     </g>
    </g>
    <g id="xtick_3">
     <g id="line2d_3">
      <g>
       <use style="stroke:#000000;stroke-width:0.8;" x="289.785788" xlink:href="#m77e07810f8" y="307.584"/>
      </g>
     </g>
     <g id="text_3">
      <!-- 60 -->
      <defs>
       <path d="M 33.015625 40.375 
Q 26.375 40.375 22.484375 35.828125 
Q 18.609375 31.296875 18.609375 23.390625 
Q 18.609375 15.53125 22.484375 10.953125 
Q 26.375 6.390625 33.015625 6.390625 
Q 39.65625 6.390625 43.53125 10.953125 
Q 47.40625 15.53125 47.40625 23.390625 
Q 47.40625 31.296875 43.53125 35.828125 
Q 39.65625 40.375 33.015625 40.375 
z
M 52.59375 71.296875 
L 52.59375 62.3125 
Q 48.875 64.0625 45.09375 64.984375 
Q 41.3125 65.921875 37.59375 65.921875 
Q 27.828125 65.921875 22.671875 59.328125 
Q 17.53125 52.734375 16.796875 39.40625 
Q 19.671875 43.65625 24.015625 45.921875 
Q 28.375 48.1875 33.59375 48.1875 
Q 44.578125 48.1875 50.953125 41.515625 
Q 57.328125 34.859375 57.328125 23.390625 
Q 57.328125 12.15625 50.6875 5.359375 
Q 44.046875 -1.421875 33.015625 -1.421875 
Q 20.359375 -1.421875 13.671875 8.265625 
Q 6.984375 17.96875 6.984375 36.375 
Q 6.984375 53.65625 15.1875 63.9375 
Q 23.390625 74.21875 37.203125 74.21875 
Q 40.921875 74.21875 44.703125 73.484375 
Q 48.484375 72.75 52.59375 71.296875 
z
" id="DejaVuSans-54"/>
      </defs>
      <g transform="translate(283.423288 322.182437)scale(0.1 -0.1)">
       <use xlink:href="#DejaVuSans-54"/>
       <use x="63.623047" xlink:href="#DejaVuSans-48"/>
      </g>
     </g>
    </g>
    <g id="xtick_4">
     <g id="line2d_4">
      <g>
       <use style="stroke:#000000;stroke-width:0.8;" x="368.607092" xlink:href="#m77e07810f8" y="307.584"/>
      </g>
     </g>
     <g id="text_4">
      <!-- 80 -->
      <defs>
       <path d="M 31.78125 34.625 
Q 24.75 34.625 20.71875 30.859375 
Q 16.703125 27.09375 16.703125 20.515625 
Q 16.703125 13.921875 20.71875 10.15625 
Q 24.75 6.390625 31.78125 6.390625 
Q 38.8125 6.390625 42.859375 10.171875 
Q 46.921875 13.96875 46.921875 20.515625 
Q 46.921875 27.09375 42.890625 30.859375 
Q 38.875 34.625 31.78125 34.625 
z
M 21.921875 38.8125 
Q 15.578125 40.375 12.03125 44.71875 
Q 8.5 49.078125 8.5 55.328125 
Q 8.5 64.0625 14.71875 69.140625 
Q 20.953125 74.21875 31.78125 74.21875 
Q 42.671875 74.21875 48.875 69.140625 
Q 55.078125 64.0625 55.078125 55.328125 
Q 55.078125 49.078125 51.53125 44.71875 
Q 48 40.375 41.703125 38.8125 
Q 48.828125 37.15625 52.796875 32.3125 
Q 56.78125 27.484375 56.78125 20.515625 
Q 56.78125 9.90625 50.3125 4.234375 
Q 43.84375 -1.421875 31.78125 -1.421875 
Q 19.734375 -1.421875 13.25 4.234375 
Q 6.78125 9.90625 6.78125 20.515625 
Q 6.78125 27.484375 10.78125 32.3125 
Q 14.796875 37.15625 21.921875 38.8125 
z
M 18.3125 54.390625 
Q 18.3125 48.734375 21.84375 45.5625 
Q 25.390625 42.390625 31.78125 42.390625 
Q 38.140625 42.390625 41.71875 45.5625 
Q 45.3125 48.734375 45.3125 54.390625 
Q 45.3125 60.0625 41.71875 63.234375 
Q 38.140625 66.40625 31.78125 66.40625 
Q 25.390625 66.40625 21.84375 63.234375 
Q 18.3125 60.0625 18.3125 54.390625 
z
" id="DejaVuSans-56"/>
      </defs>
      <g transform="translate(362.244592 322.182437)scale(0.1 -0.1)">
       <use xlink:href="#DejaVuSans-56"/>
       <use x="63.623047" xlink:href="#DejaVuSans-48"/>
      </g>
     </g>
    </g>
    <g id="text_5">
     <!-- x values -->
     <defs>
      <path d="M 54.890625 54.6875 
L 35.109375 28.078125 
L 55.90625 0 
L 45.3125 0 
L 29.390625 21.484375 
L 13.484375 0 
L 2.875 0 
L 24.125 28.609375 
L 4.6875 54.6875 
L 15.28125 54.6875 
L 29.78125 35.203125 
L 44.28125 54.6875 
z
" id="DejaVuSans-120"/>
      <path id="DejaVuSans-32"/>
      <path d="M 2.984375 54.6875 
L 12.5 54.6875 
L 29.59375 8.796875 
L 46.6875 54.6875 
L 56.203125 54.6875 
L 35.6875 0 
L 23.484375 0 
z
" id="DejaVuSans-118"/>
      <path d="M 34.28125 27.484375 
Q 23.390625 27.484375 19.1875 25 
Q 14.984375 22.515625 14.984375 16.5 
Q 14.984375 11.71875 18.140625 8.90625 
Q 21.296875 6.109375 26.703125 6.109375 
Q 34.1875 6.109375 38.703125 11.40625 
Q 43.21875 16.703125 43.21875 25.484375 
L 43.21875 27.484375 
z
M 52.203125 31.203125 
L 52.203125 0 
L 43.21875 0 
L 43.21875 8.296875 
Q 40.140625 3.328125 35.546875 0.953125 
Q 30.953125 -1.421875 24.3125 -1.421875 
Q 15.921875 -1.421875 10.953125 3.296875 
Q 6 8.015625 6 15.921875 
Q 6 25.140625 12.171875 29.828125 
Q 18.359375 34.515625 30.609375 34.515625 
L 43.21875 34.515625 
L 43.21875 35.40625 
Q 43.21875 41.609375 39.140625 45 
Q 35.0625 48.390625 27.6875 48.390625 
Q 23 48.390625 18.546875 47.265625 
Q 14.109375 46.140625 10.015625 43.890625 
L 10.015625 52.203125 
Q 14.9375 54.109375 19.578125 55.046875 
Q 24.21875 56 28.609375 56 
Q 40.484375 56 46.34375 49.84375 
Q 52.203125 43.703125 52.203125 31.203125 
z
" id="DejaVuSans-97"/>
      <path d="M 9.421875 75.984375 
L 18.40625 75.984375 
L 18.40625 0 
L 9.421875 0 
z
" id="DejaVuSans-108"/>
      <path d="M 8.5 21.578125 
L 8.5 54.6875 
L 17.484375 54.6875 
L 17.484375 21.921875 
Q 17.484375 14.15625 20.5 10.265625 
Q 23.53125 6.390625 29.59375 6.390625 
Q 36.859375 6.390625 41.078125 11.03125 
Q 45.3125 15.671875 45.3125 23.6875 
L 45.3125 54.6875 
L 54.296875 54.6875 
L 54.296875 0 
L 45.3125 0 
L 45.3125 8.40625 
Q 42.046875 3.421875 37.71875 1 
Q 33.40625 -1.421875 27.6875 -1.421875 
Q 18.265625 -1.421875 13.375 4.4375 
Q 8.5 10.296875 8.5 21.578125 
z
M 31.109375 56 
z
" id="DejaVuSans-117"/>
      <path d="M 56.203125 29.59375 
L 56.203125 25.203125 
L 14.890625 25.203125 
Q 15.484375 15.921875 20.484375 11.0625 
Q 25.484375 6.203125 34.421875 6.203125 
Q 39.59375 6.203125 44.453125 7.46875 
Q 49.3125 8.734375 54.109375 11.28125 
L 54.109375 2.78125 
Q 49.265625 0.734375 44.1875 -0.34375 
Q 39.109375 -1.421875 33.890625 -1.421875 
Q 20.796875 -1.421875 13.15625 6.1875 
Q 5.515625 13.8125 5.515625 26.8125 
Q 5.515625 40.234375 12.765625 48.109375 
Q 20.015625 56 32.328125 56 
Q 43.359375 56 49.78125 48.890625 
Q 56.203125 41.796875 56.203125 29.59375 
z
M 47.21875 32.234375 
Q 47.125 39.59375 43.09375 43.984375 
Q 39.0625 48.390625 32.421875 48.390625 
Q 24.90625 48.390625 20.390625 44.140625 
Q 15.875 39.890625 15.1875 32.171875 
z
" id="DejaVuSans-101"/>
      <path d="M 44.28125 53.078125 
L 44.28125 44.578125 
Q 40.484375 46.53125 36.375 47.5 
Q 32.28125 48.484375 27.875 48.484375 
Q 21.1875 48.484375 17.84375 46.4375 
Q 14.5 44.390625 14.5 40.28125 
Q 14.5 37.15625 16.890625 35.375 
Q 19.28125 33.59375 26.515625 31.984375 
L 29.59375 31.296875 
Q 39.15625 29.25 43.1875 25.515625 
Q 47.21875 21.78125 47.21875 15.09375 
Q 47.21875 7.46875 41.1875 3.015625 
Q 35.15625 -1.421875 24.609375 -1.421875 
Q 20.21875 -1.421875 15.453125 -0.5625 
Q 10.6875 0.296875 5.421875 2 
L 5.421875 11.28125 
Q 10.40625 8.6875 15.234375 7.390625 
Q 20.0625 6.109375 24.8125 6.109375 
Q 31.15625 6.109375 34.5625 8.28125 
Q 37.984375 10.453125 37.984375 14.40625 
Q 37.984375 18.0625 35.515625 20.015625 
Q 33.0625 21.96875 24.703125 23.78125 
L 21.578125 24.515625 
Q 13.234375 26.265625 9.515625 29.90625 
Q 5.8125 33.546875 5.8125 39.890625 
Q 5.8125 47.609375 11.28125 51.796875 
Q 16.75 56 26.8125 56 
Q 31.78125 56 36.171875 55.265625 
Q 40.578125 54.546875 44.28125 53.078125 
z
" id="DejaVuSans-115"/>
     </defs>
     <g transform="translate(215.349063 335.860562)scale(0.1 -0.1)">
      <use xlink:href="#DejaVuSans-120"/>
      <use x="59.179688" xlink:href="#DejaVuSans-32"/>
      <use x="90.966797" xlink:href="#DejaVuSans-118"/>
      <use x="150.146484" xlink:href="#DejaVuSans-97"/>
      <use x="211.425781" xlink:href="#DejaVuSans-108"/>
      <use x="239.208984" xlink:href="#DejaVuSans-117"/>
      <use x="302.587891" xlink:href="#DejaVuSans-101"/>
      <use x="364.111328" xlink:href="#DejaVuSans-115"/>
     </g>
    </g>
   </g>
   <g id="matplotlib.axis_2">
    <g id="ytick_1">
     <g id="line2d_5">
      <defs>
       <path d="M 0 0 
L -3.5 0 
" id="m542c14fbfb" style="stroke:#000000;stroke-width:0.8;"/>
      </defs>
      <g>
       <use style="stroke:#000000;stroke-width:0.8;" x="57.6" xlink:href="#m542c14fbfb" y="294.409051"/>
      </g>
     </g>
     <g id="text_6">
      <!-- 0 -->
      <g transform="translate(44.2375 298.20827)scale(0.1 -0.1)">
       <use xlink:href="#DejaVuSans-48"/>
      </g>
     </g>
    </g>
    <g id="ytick_2">
     <g id="line2d_6">
      <g>
       <use style="stroke:#000000;stroke-width:0.8;" x="57.6" xlink:href="#m542c14fbfb" y="261.760395"/>
      </g>
     </g>
     <g id="text_7">
      <!-- 250 -->
      <defs>
       <path d="M 10.796875 72.90625 
L 49.515625 72.90625 
L 49.515625 64.59375 
L 19.828125 64.59375 
L 19.828125 46.734375 
Q 21.96875 47.46875 24.109375 47.828125 
Q 26.265625 48.1875 28.421875 48.1875 
Q 40.625 48.1875 47.75 41.5 
Q 54.890625 34.8125 54.890625 23.390625 
Q 54.890625 11.625 47.5625 5.09375 
Q 40.234375 -1.421875 26.90625 -1.421875 
Q 22.3125 -1.421875 17.546875 -0.640625 
Q 12.796875 0.140625 7.71875 1.703125 
L 7.71875 11.625 
Q 12.109375 9.234375 16.796875 8.0625 
Q 21.484375 6.890625 26.703125 6.890625 
Q 35.15625 6.890625 40.078125 11.328125 
Q 45.015625 15.765625 45.015625 23.390625 
Q 45.015625 31 40.078125 35.4375 
Q 35.15625 39.890625 26.703125 39.890625 
Q 22.75 39.890625 18.8125 39.015625 
Q 14.890625 38.140625 10.796875 36.28125 
z
" id="DejaVuSans-53"/>
      </defs>
      <g transform="translate(31.5125 265.559613)scale(0.1 -0.1)">
       <use xlink:href="#DejaVuSans-50"/>
       <use x="63.623047" xlink:href="#DejaVuSans-53"/>
       <use x="127.246094" xlink:href="#DejaVuSans-48"/>
      </g>
     </g>
    </g>
    <g id="ytick_3">
     <g id="line2d_7">
      <g>
       <use style="stroke:#000000;stroke-width:0.8;" x="57.6" xlink:href="#m542c14fbfb" y="229.111739"/>
      </g>
     </g>
     <g id="text_8">
      <!-- 500 -->
      <g transform="translate(31.5125 232.910957)scale(0.1 -0.1)">
       <use xlink:href="#DejaVuSans-53"/>
       <use x="63.623047" xlink:href="#DejaVuSans-48"/>
       <use x="127.246094" xlink:href="#DejaVuSans-48"/>
      </g>
     </g>
    </g>
    <g id="ytick_4">
     <g id="line2d_8">
      <g>
       <use style="stroke:#000000;stroke-width:0.8;" x="57.6" xlink:href="#m542c14fbfb" y="196.463082"/>
      </g>
     </g>
     <g id="text_9">
      <!-- 750 -->
      <defs>
       <path d="M 8.203125 72.90625 
L 55.078125 72.90625 
L 55.078125 68.703125 
L 28.609375 0 
L 18.3125 0 
L 43.21875 64.59375 
L 8.203125 64.59375 
z
" id="DejaVuSans-55"/>
      </defs>
      <g transform="translate(31.5125 200.262301)scale(0.1 -0.1)">
       <use xlink:href="#DejaVuSans-55"/>
       <use x="63.623047" xlink:href="#DejaVuSans-53"/>
       <use x="127.246094" xlink:href="#DejaVuSans-48"/>
      </g>
     </g>
    </g>
    <g id="ytick_5">
     <g id="line2d_9">
      <g>
       <use style="stroke:#000000;stroke-width:0.8;" x="57.6" xlink:href="#m542c14fbfb" y="163.814426"/>
      </g>
     </g>
     <g id="text_10">
      <!-- 1000 -->
      <defs>
       <path d="M 12.40625 8.296875 
L 28.515625 8.296875 
L 28.515625 63.921875 
L 10.984375 60.40625 
L 10.984375 69.390625 
L 28.421875 72.90625 
L 38.28125 72.90625 
L 38.28125 8.296875 
L 54.390625 8.296875 
L 54.390625 0 
L 12.40625 0 
z
" id="DejaVuSans-49"/>
      </defs>
      <g transform="translate(25.15 167.613645)scale(0.1 -0.1)">
       <use xlink:href="#DejaVuSans-49"/>
       <use x="63.623047" xlink:href="#DejaVuSans-48"/>
       <use x="127.246094" xlink:href="#DejaVuSans-48"/>
       <use x="190.869141" xlink:href="#DejaVuSans-48"/>
      </g>
     </g>
    </g>
    <g id="ytick_6">
     <g id="line2d_10">
      <g>
       <use style="stroke:#000000;stroke-width:0.8;" x="57.6" xlink:href="#m542c14fbfb" y="131.16577"/>
      </g>
     </g>
     <g id="text_11">
      <!-- 1250 -->
      <g transform="translate(25.15 134.964989)scale(0.1 -0.1)">
       <use xlink:href="#DejaVuSans-49"/>
       <use x="63.623047" xlink:href="#DejaVuSans-50"/>
       <use x="127.246094" xlink:href="#DejaVuSans-53"/>
       <use x="190.869141" xlink:href="#DejaVuSans-48"/>
      </g>
     </g>
    </g>
    <g id="ytick_7">
     <g id="line2d_11">
      <g>
       <use style="stroke:#000000;stroke-width:0.8;" x="57.6" xlink:href="#m542c14fbfb" y="98.517114"/>
      </g>
     </g>
     <g id="text_12">
      <!-- 1500 -->
      <g transform="translate(25.15 102.316333)scale(0.1 -0.1)">
       <use xlink:href="#DejaVuSans-49"/>
       <use x="63.623047" xlink:href="#DejaVuSans-53"/>
       <use x="127.246094" xlink:href="#DejaVuSans-48"/>
       <use x="190.869141" xlink:href="#DejaVuSans-48"/>
      </g>
     </g>
    </g>
    <g id="ytick_8">
     <g id="line2d_12">
      <g>
       <use style="stroke:#000000;stroke-width:0.8;" x="57.6" xlink:href="#m542c14fbfb" y="65.868458"/>
      </g>
     </g>
     <g id="text_13">
      <!-- 1750 -->
      <g transform="translate(25.15 69.667677)scale(0.1 -0.1)">
       <use xlink:href="#DejaVuSans-49"/>
       <use x="63.623047" xlink:href="#DejaVuSans-55"/>
       <use x="127.246094" xlink:href="#DejaVuSans-53"/>
       <use x="190.869141" xlink:href="#DejaVuSans-48"/>
      </g>
     </g>
    </g>
    <g id="text_14">
     <!-- y values -->
     <defs>
      <path d="M 32.171875 -5.078125 
Q 28.375 -14.84375 24.75 -17.8125 
Q 21.140625 -20.796875 15.09375 -20.796875 
L 7.90625 -20.796875 
L 7.90625 -13.28125 
L 13.1875 -13.28125 
Q 16.890625 -13.28125 18.9375 -11.515625 
Q 21 -9.765625 23.484375 -3.21875 
L 25.09375 0.875 
L 2.984375 54.6875 
L 12.5 54.6875 
L 29.59375 11.921875 
L 46.6875 54.6875 
L 56.203125 54.6875 
z
" id="DejaVuSans-121"/>
     </defs>
     <g transform="translate(19.070312 195.338937)rotate(-90)scale(0.1 -0.1)">
      <use xlink:href="#DejaVuSans-121"/>
      <use x="59.179688" xlink:href="#DejaVuSans-32"/>
      <use x="90.966797" xlink:href="#DejaVuSans-118"/>
      <use x="150.146484" xlink:href="#DejaVuSans-97"/>
      <use x="211.425781" xlink:href="#DejaVuSans-108"/>
      <use x="239.208984" xlink:href="#DejaVuSans-117"/>
      <use x="302.587891" xlink:href="#DejaVuSans-101"/>
      <use x="364.111328" xlink:href="#DejaVuSans-115"/>
     </g>
    </g>
   </g>
   <g id="line2d_13">
    <defs>
     <path d="M 0 1 
C 0.265203 1 0.51958 0.894634 0.707107 0.707107 
C 0.894634 0.51958 1 0.265203 1 0 
C 1 -0.265203 0.894634 -0.51958 0.707107 -0.707107 
C 0.51958 -0.894634 0.265203 -1 0 -1 
C -0.265203 -1 -0.51958 -0.894634 -0.707107 -0.707107 
C -0.894634 -0.51958 -1 -0.265203 -1 0 
C -1 0.265203 -0.894634 0.51958 -0.707107 0.707107 
C -0.51958 0.894634 -0.265203 1 0 1 
z
" id="mb79faa8e28" style="stroke:#ff0000;"/>
    </defs>
    <g clip-path="url(#p8efc59cc43)">
     <use style="fill:#ff0000;stroke:#ff0000;" x="73.832727" xlink:href="#mb79faa8e28" y="92.641109"/>
     <use style="fill:#ff0000;stroke:#ff0000;" x="74.992208" xlink:href="#mb79faa8e28" y="75.830266"/>
     <use style="fill:#ff0000;stroke:#ff0000;" x="76.151688" xlink:href="#mb79faa8e28" y="59.331167"/>
     <use style="fill:#ff0000;stroke:#ff0000;" x="77.311169" xlink:href="#mb79faa8e28" y="82.540066"/>
     <use style="fill:#ff0000;stroke:#ff0000;" x="78.470649" xlink:href="#mb79faa8e28" y="115.070039"/>
     <use style="fill:#ff0000;stroke:#ff0000;" x="79.63013" xlink:href="#mb79faa8e28" y="102.663487"/>
     <use style="fill:#ff0000;stroke:#ff0000;" x="80.78961" xlink:href="#mb79faa8e28" y="109.633569"/>
     <use style="fill:#ff0000;stroke:#ff0000;" x="81.949091" xlink:href="#mb79faa8e28" y="53.568"/>
     <use style="fill:#ff0000;stroke:#ff0000;" x="83.108571" xlink:href="#mb79faa8e28" y="95.422912"/>
     <use style="fill:#ff0000;stroke:#ff0000;" x="84.268052" xlink:href="#mb79faa8e28" y="83.776509"/>
     <use style="fill:#ff0000;stroke:#ff0000;" x="85.427532" xlink:href="#mb79faa8e28" y="69.722435"/>
     <use style="fill:#ff0000;stroke:#ff0000;" x="86.587013" xlink:href="#mb79faa8e28" y="78.662723"/>
     <use style="fill:#ff0000;stroke:#ff0000;" x="87.746494" xlink:href="#mb79faa8e28" y="89.092804"/>
     <use style="fill:#ff0000;stroke:#ff0000;" x="88.905974" xlink:href="#mb79faa8e28" y="103.193673"/>
     <use style="fill:#ff0000;stroke:#ff0000;" x="90.065455" xlink:href="#mb79faa8e28" y="70.239123"/>
     <use style="fill:#ff0000;stroke:#ff0000;" x="91.224935" xlink:href="#mb79faa8e28" y="115.395121"/>
     <use style="fill:#ff0000;stroke:#ff0000;" x="92.384416" xlink:href="#mb79faa8e28" y="136.484662"/>
     <use style="fill:#ff0000;stroke:#ff0000;" x="93.543896" xlink:href="#mb79faa8e28" y="109.234531"/>
     <use style="fill:#ff0000;stroke:#ff0000;" x="94.703377" xlink:href="#mb79faa8e28" y="149.105582"/>
     <use style="fill:#ff0000;stroke:#ff0000;" x="95.862857" xlink:href="#mb79faa8e28" y="132.703084"/>
     <use style="fill:#ff0000;stroke:#ff0000;" x="97.022338" xlink:href="#mb79faa8e28" y="133.400348"/>
     <use style="fill:#ff0000;stroke:#ff0000;" x="98.181818" xlink:href="#mb79faa8e28" y="116.247965"/>
     <use style="fill:#ff0000;stroke:#ff0000;" x="99.341299" xlink:href="#mb79faa8e28" y="109.800727"/>
     <use style="fill:#ff0000;stroke:#ff0000;" x="100.500779" xlink:href="#mb79faa8e28" y="147.094369"/>
     <use style="fill:#ff0000;stroke:#ff0000;" x="101.66026" xlink:href="#mb79faa8e28" y="116.194334"/>
     <use style="fill:#ff0000;stroke:#ff0000;" x="102.81974" xlink:href="#mb79faa8e28" y="128.025866"/>
     <use style="fill:#ff0000;stroke:#ff0000;" x="103.979221" xlink:href="#mb79faa8e28" y="123.188457"/>
     <use style="fill:#ff0000;stroke:#ff0000;" x="105.138701" xlink:href="#mb79faa8e28" y="169.397316"/>
     <use style="fill:#ff0000;stroke:#ff0000;" x="106.298182" xlink:href="#mb79faa8e28" y="148.520075"/>
     <use style="fill:#ff0000;stroke:#ff0000;" x="107.457662" xlink:href="#mb79faa8e28" y="172.672085"/>
     <use style="fill:#ff0000;stroke:#ff0000;" x="108.617143" xlink:href="#mb79faa8e28" y="148.314142"/>
     <use style="fill:#ff0000;stroke:#ff0000;" x="109.776623" xlink:href="#mb79faa8e28" y="154.688257"/>
     <use style="fill:#ff0000;stroke:#ff0000;" x="110.936104" xlink:href="#mb79faa8e28" y="176.507852"/>
     <use style="fill:#ff0000;stroke:#ff0000;" x="112.095584" xlink:href="#mb79faa8e28" y="147.554447"/>
     <use style="fill:#ff0000;stroke:#ff0000;" x="113.255065" xlink:href="#mb79faa8e28" y="187.350997"/>
     <use style="fill:#ff0000;stroke:#ff0000;" x="114.414545" xlink:href="#mb79faa8e28" y="184.689421"/>
     <use style="fill:#ff0000;stroke:#ff0000;" x="115.574026" xlink:href="#mb79faa8e28" y="147.044636"/>
     <use style="fill:#ff0000;stroke:#ff0000;" x="116.733506" xlink:href="#mb79faa8e28" y="163.671423"/>
     <use style="fill:#ff0000;stroke:#ff0000;" x="117.892987" xlink:href="#mb79faa8e28" y="149.396948"/>
     <use style="fill:#ff0000;stroke:#ff0000;" x="119.052468" xlink:href="#mb79faa8e28" y="179.203987"/>
     <use style="fill:#ff0000;stroke:#ff0000;" x="120.211948" xlink:href="#mb79faa8e28" y="184.547557"/>
     <use style="fill:#ff0000;stroke:#ff0000;" x="121.371429" xlink:href="#mb79faa8e28" y="183.928758"/>
     <use style="fill:#ff0000;stroke:#ff0000;" x="122.530909" xlink:href="#mb79faa8e28" y="186.463753"/>
     <use style="fill:#ff0000;stroke:#ff0000;" x="123.69039" xlink:href="#mb79faa8e28" y="180.0423"/>
     <use style="fill:#ff0000;stroke:#ff0000;" x="124.84987" xlink:href="#mb79faa8e28" y="174.098633"/>
     <use style="fill:#ff0000;stroke:#ff0000;" x="126.009351" xlink:href="#mb79faa8e28" y="200.056359"/>
     <use style="fill:#ff0000;stroke:#ff0000;" x="127.168831" xlink:href="#mb79faa8e28" y="182.755049"/>
     <use style="fill:#ff0000;stroke:#ff0000;" x="128.328312" xlink:href="#mb79faa8e28" y="207.882513"/>
     <use style="fill:#ff0000;stroke:#ff0000;" x="129.487792" xlink:href="#mb79faa8e28" y="186.564214"/>
     <use style="fill:#ff0000;stroke:#ff0000;" x="130.647273" xlink:href="#mb79faa8e28" y="184.792299"/>
     <use style="fill:#ff0000;stroke:#ff0000;" x="131.806753" xlink:href="#mb79faa8e28" y="213.351809"/>
     <use style="fill:#ff0000;stroke:#ff0000;" x="132.966234" xlink:href="#mb79faa8e28" y="195.271726"/>
     <use style="fill:#ff0000;stroke:#ff0000;" x="134.125714" xlink:href="#mb79faa8e28" y="191.149166"/>
     <use style="fill:#ff0000;stroke:#ff0000;" x="135.285195" xlink:href="#mb79faa8e28" y="212.594094"/>
     <use style="fill:#ff0000;stroke:#ff0000;" x="136.444675" xlink:href="#mb79faa8e28" y="222.907814"/>
     <use style="fill:#ff0000;stroke:#ff0000;" x="137.604156" xlink:href="#mb79faa8e28" y="213.987985"/>
     <use style="fill:#ff0000;stroke:#ff0000;" x="138.763636" xlink:href="#mb79faa8e28" y="203.905152"/>
     <use style="fill:#ff0000;stroke:#ff0000;" x="139.923117" xlink:href="#mb79faa8e28" y="198.759488"/>
     <use style="fill:#ff0000;stroke:#ff0000;" x="141.082597" xlink:href="#mb79faa8e28" y="207.689377"/>
     <use style="fill:#ff0000;stroke:#ff0000;" x="142.242078" xlink:href="#mb79faa8e28" y="226.638944"/>
     <use style="fill:#ff0000;stroke:#ff0000;" x="143.401558" xlink:href="#mb79faa8e28" y="217.611538"/>
     <use style="fill:#ff0000;stroke:#ff0000;" x="144.561039" xlink:href="#mb79faa8e28" y="205.745633"/>
     <use style="fill:#ff0000;stroke:#ff0000;" x="145.720519" xlink:href="#mb79faa8e28" y="209.807356"/>
     <use style="fill:#ff0000;stroke:#ff0000;" x="146.88" xlink:href="#mb79faa8e28" y="221.663739"/>
     <use style="fill:#ff0000;stroke:#ff0000;" x="148.039481" xlink:href="#mb79faa8e28" y="218.581917"/>
     <use style="fill:#ff0000;stroke:#ff0000;" x="149.198961" xlink:href="#mb79faa8e28" y="238.786367"/>
     <use style="fill:#ff0000;stroke:#ff0000;" x="150.358442" xlink:href="#mb79faa8e28" y="228.494226"/>
     <use style="fill:#ff0000;stroke:#ff0000;" x="151.517922" xlink:href="#mb79faa8e28" y="221.673472"/>
     <use style="fill:#ff0000;stroke:#ff0000;" x="152.677403" xlink:href="#mb79faa8e28" y="232.073166"/>
     <use style="fill:#ff0000;stroke:#ff0000;" x="153.836883" xlink:href="#mb79faa8e28" y="236.037387"/>
     <use style="fill:#ff0000;stroke:#ff0000;" x="154.996364" xlink:href="#mb79faa8e28" y="225.755052"/>
     <use style="fill:#ff0000;stroke:#ff0000;" x="156.155844" xlink:href="#mb79faa8e28" y="236.126478"/>
     <use style="fill:#ff0000;stroke:#ff0000;" x="157.315325" xlink:href="#mb79faa8e28" y="244.13182"/>
     <use style="fill:#ff0000;stroke:#ff0000;" x="158.474805" xlink:href="#mb79faa8e28" y="247.099503"/>
     <use style="fill:#ff0000;stroke:#ff0000;" x="159.634286" xlink:href="#mb79faa8e28" y="236.805057"/>
     <use style="fill:#ff0000;stroke:#ff0000;" x="160.793766" xlink:href="#mb79faa8e28" y="235.341116"/>
     <use style="fill:#ff0000;stroke:#ff0000;" x="161.953247" xlink:href="#mb79faa8e28" y="244.467761"/>
     <use style="fill:#ff0000;stroke:#ff0000;" x="163.112727" xlink:href="#mb79faa8e28" y="251.070328"/>
     <use style="fill:#ff0000;stroke:#ff0000;" x="164.272208" xlink:href="#mb79faa8e28" y="245.39416"/>
     <use style="fill:#ff0000;stroke:#ff0000;" x="165.431688" xlink:href="#mb79faa8e28" y="239.947103"/>
     <use style="fill:#ff0000;stroke:#ff0000;" x="166.591169" xlink:href="#mb79faa8e28" y="254.782095"/>
     <use style="fill:#ff0000;stroke:#ff0000;" x="167.750649" xlink:href="#mb79faa8e28" y="247.310239"/>
     <use style="fill:#ff0000;stroke:#ff0000;" x="168.91013" xlink:href="#mb79faa8e28" y="251.519872"/>
     <use style="fill:#ff0000;stroke:#ff0000;" x="170.06961" xlink:href="#mb79faa8e28" y="256.847354"/>
     <use style="fill:#ff0000;stroke:#ff0000;" x="171.229091" xlink:href="#mb79faa8e28" y="255.692669"/>
     <use style="fill:#ff0000;stroke:#ff0000;" x="172.388571" xlink:href="#mb79faa8e28" y="255.998716"/>
     <use style="fill:#ff0000;stroke:#ff0000;" x="173.548052" xlink:href="#mb79faa8e28" y="263.306903"/>
     <use style="fill:#ff0000;stroke:#ff0000;" x="174.707532" xlink:href="#mb79faa8e28" y="260.182434"/>
     <use style="fill:#ff0000;stroke:#ff0000;" x="175.867013" xlink:href="#mb79faa8e28" y="260.788515"/>
     <use style="fill:#ff0000;stroke:#ff0000;" x="177.026494" xlink:href="#mb79faa8e28" y="258.297774"/>
     <use style="fill:#ff0000;stroke:#ff0000;" x="178.185974" xlink:href="#mb79faa8e28" y="265.381173"/>
     <use style="fill:#ff0000;stroke:#ff0000;" x="179.345455" xlink:href="#mb79faa8e28" y="260.948011"/>
     <use style="fill:#ff0000;stroke:#ff0000;" x="180.504935" xlink:href="#mb79faa8e28" y="264.353792"/>
     <use style="fill:#ff0000;stroke:#ff0000;" x="181.664416" xlink:href="#mb79faa8e28" y="268.85249"/>
     <use style="fill:#ff0000;stroke:#ff0000;" x="182.823896" xlink:href="#mb79faa8e28" y="267.999266"/>
     <use style="fill:#ff0000;stroke:#ff0000;" x="183.983377" xlink:href="#mb79faa8e28" y="265.536404"/>
     <use style="fill:#ff0000;stroke:#ff0000;" x="185.142857" xlink:href="#mb79faa8e28" y="268.600853"/>
     <use style="fill:#ff0000;stroke:#ff0000;" x="186.302338" xlink:href="#mb79faa8e28" y="263.228874"/>
     <use style="fill:#ff0000;stroke:#ff0000;" x="187.461818" xlink:href="#mb79faa8e28" y="269.197857"/>
     <use style="fill:#ff0000;stroke:#ff0000;" x="188.621299" xlink:href="#mb79faa8e28" y="273.282483"/>
     <use style="fill:#ff0000;stroke:#ff0000;" x="189.780779" xlink:href="#mb79faa8e28" y="276.980016"/>
     <use style="fill:#ff0000;stroke:#ff0000;" x="190.94026" xlink:href="#mb79faa8e28" y="275.377202"/>
     <use style="fill:#ff0000;stroke:#ff0000;" x="192.09974" xlink:href="#mb79faa8e28" y="273.543148"/>
     <use style="fill:#ff0000;stroke:#ff0000;" x="193.259221" xlink:href="#mb79faa8e28" y="270.451994"/>
     <use style="fill:#ff0000;stroke:#ff0000;" x="194.418701" xlink:href="#mb79faa8e28" y="277.302452"/>
     <use style="fill:#ff0000;stroke:#ff0000;" x="195.578182" xlink:href="#mb79faa8e28" y="275.768493"/>
     <use style="fill:#ff0000;stroke:#ff0000;" x="196.737662" xlink:href="#mb79faa8e28" y="276.591115"/>
     <use style="fill:#ff0000;stroke:#ff0000;" x="197.897143" xlink:href="#mb79faa8e28" y="280.146778"/>
     <use style="fill:#ff0000;stroke:#ff0000;" x="199.056623" xlink:href="#mb79faa8e28" y="279.336205"/>
     <use style="fill:#ff0000;stroke:#ff0000;" x="200.216104" xlink:href="#mb79faa8e28" y="282.797618"/>
     <use style="fill:#ff0000;stroke:#ff0000;" x="201.375584" xlink:href="#mb79faa8e28" y="281.689931"/>
     <use style="fill:#ff0000;stroke:#ff0000;" x="202.535065" xlink:href="#mb79faa8e28" y="283.521319"/>
     <use style="fill:#ff0000;stroke:#ff0000;" x="203.694545" xlink:href="#mb79faa8e28" y="281.772811"/>
     <use style="fill:#ff0000;stroke:#ff0000;" x="204.854026" xlink:href="#mb79faa8e28" y="280.755259"/>
     <use style="fill:#ff0000;stroke:#ff0000;" x="206.013506" xlink:href="#mb79faa8e28" y="281.940255"/>
     <use style="fill:#ff0000;stroke:#ff0000;" x="207.172987" xlink:href="#mb79faa8e28" y="282.794499"/>
     <use style="fill:#ff0000;stroke:#ff0000;" x="208.332468" xlink:href="#mb79faa8e28" y="285.558423"/>
     <use style="fill:#ff0000;stroke:#ff0000;" x="209.491948" xlink:href="#mb79faa8e28" y="286.199861"/>
     <use style="fill:#ff0000;stroke:#ff0000;" x="210.651429" xlink:href="#mb79faa8e28" y="288.962654"/>
     <use style="fill:#ff0000;stroke:#ff0000;" x="211.810909" xlink:href="#mb79faa8e28" y="284.464861"/>
     <use style="fill:#ff0000;stroke:#ff0000;" x="212.97039" xlink:href="#mb79faa8e28" y="285.664751"/>
     <use style="fill:#ff0000;stroke:#ff0000;" x="214.12987" xlink:href="#mb79faa8e28" y="286.650881"/>
     <use style="fill:#ff0000;stroke:#ff0000;" x="215.289351" xlink:href="#mb79faa8e28" y="289.076577"/>
     <use style="fill:#ff0000;stroke:#ff0000;" x="216.448831" xlink:href="#mb79faa8e28" y="290.227618"/>
     <use style="fill:#ff0000;stroke:#ff0000;" x="217.608312" xlink:href="#mb79faa8e28" y="288.545493"/>
     <use style="fill:#ff0000;stroke:#ff0000;" x="218.767792" xlink:href="#mb79faa8e28" y="288.686197"/>
     <use style="fill:#ff0000;stroke:#ff0000;" x="219.927273" xlink:href="#mb79faa8e28" y="292.925424"/>
     <use style="fill:#ff0000;stroke:#ff0000;" x="221.086753" xlink:href="#mb79faa8e28" y="290.617257"/>
     <use style="fill:#ff0000;stroke:#ff0000;" x="222.246234" xlink:href="#mb79faa8e28" y="291.710306"/>
     <use style="fill:#ff0000;stroke:#ff0000;" x="223.405714" xlink:href="#mb79faa8e28" y="293.36352"/>
     <use style="fill:#ff0000;stroke:#ff0000;" x="224.565195" xlink:href="#mb79faa8e28" y="289.486596"/>
     <use style="fill:#ff0000;stroke:#ff0000;" x="225.724675" xlink:href="#mb79faa8e28" y="290.841563"/>
     <use style="fill:#ff0000;stroke:#ff0000;" x="226.884156" xlink:href="#mb79faa8e28" y="290.171289"/>
     <use style="fill:#ff0000;stroke:#ff0000;" x="228.043636" xlink:href="#mb79faa8e28" y="292.148566"/>
     <use style="fill:#ff0000;stroke:#ff0000;" x="229.203117" xlink:href="#mb79faa8e28" y="294.473639"/>
     <use style="fill:#ff0000;stroke:#ff0000;" x="230.362597" xlink:href="#mb79faa8e28" y="291.334402"/>
     <use style="fill:#ff0000;stroke:#ff0000;" x="231.522078" xlink:href="#mb79faa8e28" y="293.549182"/>
     <use style="fill:#ff0000;stroke:#ff0000;" x="232.681558" xlink:href="#mb79faa8e28" y="292.267291"/>
     <use style="fill:#ff0000;stroke:#ff0000;" x="233.841039" xlink:href="#mb79faa8e28" y="290.187996"/>
     <use style="fill:#ff0000;stroke:#ff0000;" x="235.000519" xlink:href="#mb79faa8e28" y="291.589202"/>
     <use style="fill:#ff0000;stroke:#ff0000;" x="236.16" xlink:href="#mb79faa8e28" y="291.234626"/>
     <use style="fill:#ff0000;stroke:#ff0000;" x="237.319481" xlink:href="#mb79faa8e28" y="294.97313"/>
     <use style="fill:#ff0000;stroke:#ff0000;" x="238.478961" xlink:href="#mb79faa8e28" y="295.391891"/>
     <use style="fill:#ff0000;stroke:#ff0000;" x="239.638442" xlink:href="#mb79faa8e28" y="292.501943"/>
     <use style="fill:#ff0000;stroke:#ff0000;" x="240.797922" xlink:href="#mb79faa8e28" y="294.318568"/>
     <use style="fill:#ff0000;stroke:#ff0000;" x="241.957403" xlink:href="#mb79faa8e28" y="292.837312"/>
     <use style="fill:#ff0000;stroke:#ff0000;" x="243.116883" xlink:href="#mb79faa8e28" y="292.217585"/>
     <use style="fill:#ff0000;stroke:#ff0000;" x="244.276364" xlink:href="#mb79faa8e28" y="295.488"/>
     <use style="fill:#ff0000;stroke:#ff0000;" x="245.435844" xlink:href="#mb79faa8e28" y="289.715199"/>
     <use style="fill:#ff0000;stroke:#ff0000;" x="246.595325" xlink:href="#mb79faa8e28" y="291.803425"/>
     <use style="fill:#ff0000;stroke:#ff0000;" x="247.754805" xlink:href="#mb79faa8e28" y="294.518149"/>
     <use style="fill:#ff0000;stroke:#ff0000;" x="248.914286" xlink:href="#mb79faa8e28" y="290.940284"/>
     <use style="fill:#ff0000;stroke:#ff0000;" x="250.073766" xlink:href="#mb79faa8e28" y="293.246033"/>
     <use style="fill:#ff0000;stroke:#ff0000;" x="251.233247" xlink:href="#mb79faa8e28" y="295.130631"/>
     <use style="fill:#ff0000;stroke:#ff0000;" x="252.392727" xlink:href="#mb79faa8e28" y="289.497332"/>
     <use style="fill:#ff0000;stroke:#ff0000;" x="253.552208" xlink:href="#mb79faa8e28" y="291.065699"/>
     <use style="fill:#ff0000;stroke:#ff0000;" x="254.711688" xlink:href="#mb79faa8e28" y="289.264314"/>
     <use style="fill:#ff0000;stroke:#ff0000;" x="255.871169" xlink:href="#mb79faa8e28" y="292.228712"/>
     <use style="fill:#ff0000;stroke:#ff0000;" x="257.030649" xlink:href="#mb79faa8e28" y="290.152618"/>
     <use style="fill:#ff0000;stroke:#ff0000;" x="258.19013" xlink:href="#mb79faa8e28" y="292.62329"/>
     <use style="fill:#ff0000;stroke:#ff0000;" x="259.34961" xlink:href="#mb79faa8e28" y="290.499241"/>
     <use style="fill:#ff0000;stroke:#ff0000;" x="260.509091" xlink:href="#mb79faa8e28" y="288.036844"/>
     <use style="fill:#ff0000;stroke:#ff0000;" x="261.668571" xlink:href="#mb79faa8e28" y="287.958433"/>
     <use style="fill:#ff0000;stroke:#ff0000;" x="262.828052" xlink:href="#mb79faa8e28" y="291.713301"/>
     <use style="fill:#ff0000;stroke:#ff0000;" x="263.987532" xlink:href="#mb79faa8e28" y="284.506283"/>
     <use style="fill:#ff0000;stroke:#ff0000;" x="265.147013" xlink:href="#mb79faa8e28" y="286.830457"/>
     <use style="fill:#ff0000;stroke:#ff0000;" x="266.306494" xlink:href="#mb79faa8e28" y="288.331431"/>
     <use style="fill:#ff0000;stroke:#ff0000;" x="267.465974" xlink:href="#mb79faa8e28" y="288.045672"/>
     <use style="fill:#ff0000;stroke:#ff0000;" x="268.625455" xlink:href="#mb79faa8e28" y="285.41411"/>
     <use style="fill:#ff0000;stroke:#ff0000;" x="269.784935" xlink:href="#mb79faa8e28" y="282.872934"/>
     <use style="fill:#ff0000;stroke:#ff0000;" x="270.944416" xlink:href="#mb79faa8e28" y="284.973657"/>
     <use style="fill:#ff0000;stroke:#ff0000;" x="272.103896" xlink:href="#mb79faa8e28" y="283.589232"/>
     <use style="fill:#ff0000;stroke:#ff0000;" x="273.263377" xlink:href="#mb79faa8e28" y="284.723574"/>
     <use style="fill:#ff0000;stroke:#ff0000;" x="274.422857" xlink:href="#mb79faa8e28" y="283.236106"/>
     <use style="fill:#ff0000;stroke:#ff0000;" x="275.582338" xlink:href="#mb79faa8e28" y="276.482199"/>
     <use style="fill:#ff0000;stroke:#ff0000;" x="276.741818" xlink:href="#mb79faa8e28" y="279.868052"/>
     <use style="fill:#ff0000;stroke:#ff0000;" x="277.901299" xlink:href="#mb79faa8e28" y="276.535349"/>
     <use style="fill:#ff0000;stroke:#ff0000;" x="279.060779" xlink:href="#mb79faa8e28" y="278.69529"/>
     <use style="fill:#ff0000;stroke:#ff0000;" x="280.22026" xlink:href="#mb79faa8e28" y="276.551436"/>
     <use style="fill:#ff0000;stroke:#ff0000;" x="281.37974" xlink:href="#mb79faa8e28" y="272.740364"/>
     <use style="fill:#ff0000;stroke:#ff0000;" x="282.539221" xlink:href="#mb79faa8e28" y="274.051913"/>
     <use style="fill:#ff0000;stroke:#ff0000;" x="283.698701" xlink:href="#mb79faa8e28" y="275.565753"/>
     <use style="fill:#ff0000;stroke:#ff0000;" x="284.858182" xlink:href="#mb79faa8e28" y="272.822029"/>
     <use style="fill:#ff0000;stroke:#ff0000;" x="286.017662" xlink:href="#mb79faa8e28" y="274.589444"/>
     <use style="fill:#ff0000;stroke:#ff0000;" x="287.177143" xlink:href="#mb79faa8e28" y="273.08248"/>
     <use style="fill:#ff0000;stroke:#ff0000;" x="288.336623" xlink:href="#mb79faa8e28" y="267.856498"/>
     <use style="fill:#ff0000;stroke:#ff0000;" x="289.496104" xlink:href="#mb79faa8e28" y="273.911381"/>
     <use style="fill:#ff0000;stroke:#ff0000;" x="290.655584" xlink:href="#mb79faa8e28" y="269.095998"/>
     <use style="fill:#ff0000;stroke:#ff0000;" x="291.815065" xlink:href="#mb79faa8e28" y="266.061562"/>
     <use style="fill:#ff0000;stroke:#ff0000;" x="292.974545" xlink:href="#mb79faa8e28" y="270.925658"/>
     <use style="fill:#ff0000;stroke:#ff0000;" x="294.134026" xlink:href="#mb79faa8e28" y="264.258851"/>
     <use style="fill:#ff0000;stroke:#ff0000;" x="295.293506" xlink:href="#mb79faa8e28" y="263.491339"/>
     <use style="fill:#ff0000;stroke:#ff0000;" x="296.452987" xlink:href="#mb79faa8e28" y="267.803198"/>
     <use style="fill:#ff0000;stroke:#ff0000;" x="297.612468" xlink:href="#mb79faa8e28" y="260.93282"/>
     <use style="fill:#ff0000;stroke:#ff0000;" x="298.771948" xlink:href="#mb79faa8e28" y="261.874771"/>
     <use style="fill:#ff0000;stroke:#ff0000;" x="299.931429" xlink:href="#mb79faa8e28" y="259.035337"/>
     <use style="fill:#ff0000;stroke:#ff0000;" x="301.090909" xlink:href="#mb79faa8e28" y="253.338517"/>
     <use style="fill:#ff0000;stroke:#ff0000;" x="302.25039" xlink:href="#mb79faa8e28" y="257.300023"/>
     <use style="fill:#ff0000;stroke:#ff0000;" x="303.40987" xlink:href="#mb79faa8e28" y="261.578902"/>
     <use style="fill:#ff0000;stroke:#ff0000;" x="304.569351" xlink:href="#mb79faa8e28" y="249.802069"/>
     <use style="fill:#ff0000;stroke:#ff0000;" x="305.728831" xlink:href="#mb79faa8e28" y="255.055607"/>
     <use style="fill:#ff0000;stroke:#ff0000;" x="306.888312" xlink:href="#mb79faa8e28" y="250.21086"/>
     <use style="fill:#ff0000;stroke:#ff0000;" x="308.047792" xlink:href="#mb79faa8e28" y="253.96281"/>
     <use style="fill:#ff0000;stroke:#ff0000;" x="309.207273" xlink:href="#mb79faa8e28" y="249.899276"/>
     <use style="fill:#ff0000;stroke:#ff0000;" x="310.366753" xlink:href="#mb79faa8e28" y="247.462242"/>
     <use style="fill:#ff0000;stroke:#ff0000;" x="311.526234" xlink:href="#mb79faa8e28" y="241.386821"/>
     <use style="fill:#ff0000;stroke:#ff0000;" x="312.685714" xlink:href="#mb79faa8e28" y="254.566204"/>
     <use style="fill:#ff0000;stroke:#ff0000;" x="313.845195" xlink:href="#mb79faa8e28" y="244.670582"/>
     <use style="fill:#ff0000;stroke:#ff0000;" x="315.004675" xlink:href="#mb79faa8e28" y="247.339538"/>
     <use style="fill:#ff0000;stroke:#ff0000;" x="316.164156" xlink:href="#mb79faa8e28" y="238.468362"/>
     <use style="fill:#ff0000;stroke:#ff0000;" x="317.323636" xlink:href="#mb79faa8e28" y="233.287155"/>
     <use style="fill:#ff0000;stroke:#ff0000;" x="318.483117" xlink:href="#mb79faa8e28" y="249.42025"/>
     <use style="fill:#ff0000;stroke:#ff0000;" x="319.642597" xlink:href="#mb79faa8e28" y="231.257948"/>
     <use style="fill:#ff0000;stroke:#ff0000;" x="320.802078" xlink:href="#mb79faa8e28" y="244.772529"/>
     <use style="fill:#ff0000;stroke:#ff0000;" x="321.961558" xlink:href="#mb79faa8e28" y="225.843285"/>
     <use style="fill:#ff0000;stroke:#ff0000;" x="323.121039" xlink:href="#mb79faa8e28" y="232.631191"/>
     <use style="fill:#ff0000;stroke:#ff0000;" x="324.280519" xlink:href="#mb79faa8e28" y="234.525747"/>
     <use style="fill:#ff0000;stroke:#ff0000;" x="325.44" xlink:href="#mb79faa8e28" y="221.326914"/>
     <use style="fill:#ff0000;stroke:#ff0000;" x="326.599481" xlink:href="#mb79faa8e28" y="241.404559"/>
     <use style="fill:#ff0000;stroke:#ff0000;" x="327.758961" xlink:href="#mb79faa8e28" y="238.003685"/>
     <use style="fill:#ff0000;stroke:#ff0000;" x="328.918442" xlink:href="#mb79faa8e28" y="216.396181"/>
     <use style="fill:#ff0000;stroke:#ff0000;" x="330.077922" xlink:href="#mb79faa8e28" y="228.167528"/>
     <use style="fill:#ff0000;stroke:#ff0000;" x="331.237403" xlink:href="#mb79faa8e28" y="209.818996"/>
     <use style="fill:#ff0000;stroke:#ff0000;" x="332.396883" xlink:href="#mb79faa8e28" y="235.315805"/>
     <use style="fill:#ff0000;stroke:#ff0000;" x="333.556364" xlink:href="#mb79faa8e28" y="205.357221"/>
     <use style="fill:#ff0000;stroke:#ff0000;" x="334.715844" xlink:href="#mb79faa8e28" y="226.761974"/>
     <use style="fill:#ff0000;stroke:#ff0000;" x="335.875325" xlink:href="#mb79faa8e28" y="224.606627"/>
     <use style="fill:#ff0000;stroke:#ff0000;" x="337.034805" xlink:href="#mb79faa8e28" y="222.9908"/>
     <use style="fill:#ff0000;stroke:#ff0000;" x="338.194286" xlink:href="#mb79faa8e28" y="212.504109"/>
     <use style="fill:#ff0000;stroke:#ff0000;" x="339.353766" xlink:href="#mb79faa8e28" y="201.604272"/>
     <use style="fill:#ff0000;stroke:#ff0000;" x="340.513247" xlink:href="#mb79faa8e28" y="200.672631"/>
     <use style="fill:#ff0000;stroke:#ff0000;" x="341.672727" xlink:href="#mb79faa8e28" y="208.820425"/>
     <use style="fill:#ff0000;stroke:#ff0000;" x="342.832208" xlink:href="#mb79faa8e28" y="186.765754"/>
     <use style="fill:#ff0000;stroke:#ff0000;" x="343.991688" xlink:href="#mb79faa8e28" y="203.765491"/>
     <use style="fill:#ff0000;stroke:#ff0000;" x="345.151169" xlink:href="#mb79faa8e28" y="215.817236"/>
     <use style="fill:#ff0000;stroke:#ff0000;" x="346.310649" xlink:href="#mb79faa8e28" y="186.883611"/>
     <use style="fill:#ff0000;stroke:#ff0000;" x="347.47013" xlink:href="#mb79faa8e28" y="203.486961"/>
     <use style="fill:#ff0000;stroke:#ff0000;" x="348.62961" xlink:href="#mb79faa8e28" y="212.611965"/>
     <use style="fill:#ff0000;stroke:#ff0000;" x="349.789091" xlink:href="#mb79faa8e28" y="167.795879"/>
     <use style="fill:#ff0000;stroke:#ff0000;" x="350.948571" xlink:href="#mb79faa8e28" y="200.595475"/>
     <use style="fill:#ff0000;stroke:#ff0000;" x="352.108052" xlink:href="#mb79faa8e28" y="177.23382"/>
     <use style="fill:#ff0000;stroke:#ff0000;" x="353.267532" xlink:href="#mb79faa8e28" y="177.843808"/>
     <use style="fill:#ff0000;stroke:#ff0000;" x="354.427013" xlink:href="#mb79faa8e28" y="196.334823"/>
     <use style="fill:#ff0000;stroke:#ff0000;" x="355.586494" xlink:href="#mb79faa8e28" y="181.959521"/>
     <use style="fill:#ff0000;stroke:#ff0000;" x="356.745974" xlink:href="#mb79faa8e28" y="159.160047"/>
     <use style="fill:#ff0000;stroke:#ff0000;" x="357.905455" xlink:href="#mb79faa8e28" y="168.965387"/>
     <use style="fill:#ff0000;stroke:#ff0000;" x="359.064935" xlink:href="#mb79faa8e28" y="181.478332"/>
     <use style="fill:#ff0000;stroke:#ff0000;" x="360.224416" xlink:href="#mb79faa8e28" y="152.920093"/>
     <use style="fill:#ff0000;stroke:#ff0000;" x="361.383896" xlink:href="#mb79faa8e28" y="166.14597"/>
     <use style="fill:#ff0000;stroke:#ff0000;" x="362.543377" xlink:href="#mb79faa8e28" y="154.506824"/>
     <use style="fill:#ff0000;stroke:#ff0000;" x="363.702857" xlink:href="#mb79faa8e28" y="176.324607"/>
     <use style="fill:#ff0000;stroke:#ff0000;" x="364.862338" xlink:href="#mb79faa8e28" y="174.548147"/>
     <use style="fill:#ff0000;stroke:#ff0000;" x="366.021818" xlink:href="#mb79faa8e28" y="129.342338"/>
     <use style="fill:#ff0000;stroke:#ff0000;" x="367.181299" xlink:href="#mb79faa8e28" y="150.513037"/>
     <use style="fill:#ff0000;stroke:#ff0000;" x="368.340779" xlink:href="#mb79faa8e28" y="162.991856"/>
     <use style="fill:#ff0000;stroke:#ff0000;" x="369.50026" xlink:href="#mb79faa8e28" y="141.249651"/>
     <use style="fill:#ff0000;stroke:#ff0000;" x="370.65974" xlink:href="#mb79faa8e28" y="134.623989"/>
     <use style="fill:#ff0000;stroke:#ff0000;" x="371.819221" xlink:href="#mb79faa8e28" y="118.176959"/>
     <use style="fill:#ff0000;stroke:#ff0000;" x="372.978701" xlink:href="#mb79faa8e28" y="120.361456"/>
     <use style="fill:#ff0000;stroke:#ff0000;" x="374.138182" xlink:href="#mb79faa8e28" y="165.180415"/>
     <use style="fill:#ff0000;stroke:#ff0000;" x="375.297662" xlink:href="#mb79faa8e28" y="102.436172"/>
     <use style="fill:#ff0000;stroke:#ff0000;" x="376.457143" xlink:href="#mb79faa8e28" y="114.416742"/>
     <use style="fill:#ff0000;stroke:#ff0000;" x="377.616623" xlink:href="#mb79faa8e28" y="131.644744"/>
     <use style="fill:#ff0000;stroke:#ff0000;" x="378.776104" xlink:href="#mb79faa8e28" y="105.81519"/>
     <use style="fill:#ff0000;stroke:#ff0000;" x="379.935584" xlink:href="#mb79faa8e28" y="138.16967"/>
     <use style="fill:#ff0000;stroke:#ff0000;" x="381.095065" xlink:href="#mb79faa8e28" y="128.201966"/>
     <use style="fill:#ff0000;stroke:#ff0000;" x="382.254545" xlink:href="#mb79faa8e28" y="92.280454"/>
     <use style="fill:#ff0000;stroke:#ff0000;" x="383.414026" xlink:href="#mb79faa8e28" y="99.82506"/>
     <use style="fill:#ff0000;stroke:#ff0000;" x="384.573506" xlink:href="#mb79faa8e28" y="92.856565"/>
     <use style="fill:#ff0000;stroke:#ff0000;" x="385.732987" xlink:href="#mb79faa8e28" y="80.55299"/>
     <use style="fill:#ff0000;stroke:#ff0000;" x="386.892468" xlink:href="#mb79faa8e28" y="94.395549"/>
     <use style="fill:#ff0000;stroke:#ff0000;" x="388.051948" xlink:href="#mb79faa8e28" y="69.777156"/>
     <use style="fill:#ff0000;stroke:#ff0000;" x="389.211429" xlink:href="#mb79faa8e28" y="136.837711"/>
     <use style="fill:#ff0000;stroke:#ff0000;" x="390.370909" xlink:href="#mb79faa8e28" y="77.072736"/>
     <use style="fill:#ff0000;stroke:#ff0000;" x="391.53039" xlink:href="#mb79faa8e28" y="109.095387"/>
     <use style="fill:#ff0000;stroke:#ff0000;" x="392.68987" xlink:href="#mb79faa8e28" y="57.733317"/>
     <use style="fill:#ff0000;stroke:#ff0000;" x="393.849351" xlink:href="#mb79faa8e28" y="101.848049"/>
     <use style="fill:#ff0000;stroke:#ff0000;" x="395.008831" xlink:href="#mb79faa8e28" y="57.431505"/>
     <use style="fill:#ff0000;stroke:#ff0000;" x="396.168312" xlink:href="#mb79faa8e28" y="97.27871"/>
     <use style="fill:#ff0000;stroke:#ff0000;" x="397.327792" xlink:href="#mb79faa8e28" y="63.128622"/>
     <use style="fill:#ff0000;stroke:#ff0000;" x="398.487273" xlink:href="#mb79faa8e28" y="120.882238"/>
    </g>
   </g>
   <g id="line2d_14">
    <path clip-path="url(#p8efc59cc43)" d="M 73.832727 65.666314 
L 79.63013 81.494008 
L 85.427532 96.751121 
L 91.224935 111.437654 
L 97.022338 125.553606 
L 102.81974 139.098977 
L 108.617143 152.073768 
L 114.414545 164.477979 
L 120.211948 176.311609 
L 126.009351 187.574658 
L 131.806753 198.267127 
L 136.444675 206.410284 
L 141.082597 214.188269 
L 145.720519 221.601083 
L 150.358442 228.648725 
L 154.996364 235.331196 
L 159.634286 241.648495 
L 164.272208 247.600623 
L 168.91013 253.187579 
L 173.548052 258.409364 
L 178.185974 263.265977 
L 182.823896 267.757418 
L 187.461818 271.883688 
L 192.09974 275.644786 
L 196.737662 279.040713 
L 200.216104 281.348014 
L 203.694545 283.449907 
L 207.172987 285.34639 
L 210.651429 287.037464 
L 214.12987 288.523129 
L 217.608312 289.803386 
L 221.086753 290.878233 
L 224.565195 291.747671 
L 228.043636 292.411701 
L 231.522078 292.870321 
L 235.000519 293.123532 
L 238.478961 293.171334 
L 241.957403 293.013728 
L 245.435844 292.650712 
L 248.914286 292.082287 
L 252.392727 291.308453 
L 255.871169 290.329211 
L 259.34961 289.144559 
L 262.828052 287.754498 
L 266.306494 286.159028 
L 269.784935 284.35815 
L 273.263377 282.351862 
L 276.741818 280.140165 
L 280.22026 277.723059 
L 284.858182 274.180727 
L 289.496104 270.273222 
L 294.134026 266.000546 
L 298.771948 261.362699 
L 303.40987 256.35968 
L 308.047792 250.991489 
L 312.685714 245.258127 
L 317.323636 239.159594 
L 321.961558 232.695888 
L 326.599481 225.867012 
L 331.237403 218.672963 
L 335.875325 211.113743 
L 340.513247 203.189352 
L 345.151169 194.899789 
L 350.948571 184.024313 
L 356.745974 172.578256 
L 362.543377 160.561618 
L 368.340779 147.974401 
L 374.138182 134.816602 
L 379.935584 121.088223 
L 385.732987 106.789263 
L 391.53039 91.919723 
L 397.327792 76.479603 
L 398.487273 73.323109 
L 398.487273 73.323109 
" style="fill:none;stroke:#008000;stroke-linecap:square;stroke-width:1.5;"/>
   </g>
   <g id="patch_3">
    <path d="M 57.6 307.584 
L 57.6 41.472 
" style="fill:none;stroke:#000000;stroke-linecap:square;stroke-linejoin:miter;stroke-width:0.8;"/>
   </g>
   <g id="patch_4">
    <path d="M 414.72 307.584 
L 414.72 41.472 
" style="fill:none;stroke:#000000;stroke-linecap:square;stroke-linejoin:miter;stroke-width:0.8;"/>
   </g>
   <g id="patch_5">
    <path d="M 57.6 307.584 
L 414.72 307.584 
" style="fill:none;stroke:#000000;stroke-linecap:square;stroke-linejoin:miter;stroke-width:0.8;"/>
   </g>
   <g id="patch_6">
    <path d="M 57.6 41.472 
L 414.72 41.472 
" style="fill:none;stroke:#000000;stroke-linecap:square;stroke-linejoin:miter;stroke-width:0.8;"/>
   </g>
   <g id="text_15">
    <!-- FunctionFitting 02 -->
    <defs>
     <path d="M 9.8125 72.90625 
L 51.703125 72.90625 
L 51.703125 64.59375 
L 19.671875 64.59375 
L 19.671875 43.109375 
L 48.578125 43.109375 
L 48.578125 34.8125 
L 19.671875 34.8125 
L 19.671875 0 
L 9.8125 0 
z
" id="DejaVuSans-70"/>
     <path d="M 54.890625 33.015625 
L 54.890625 0 
L 45.90625 0 
L 45.90625 32.71875 
Q 45.90625 40.484375 42.875 44.328125 
Q 39.84375 48.1875 33.796875 48.1875 
Q 26.515625 48.1875 22.3125 43.546875 
Q 18.109375 38.921875 18.109375 30.90625 
L 18.109375 0 
L 9.078125 0 
L 9.078125 54.6875 
L 18.109375 54.6875 
L 18.109375 46.1875 
Q 21.34375 51.125 25.703125 53.5625 
Q 30.078125 56 35.796875 56 
Q 45.21875 56 50.046875 50.171875 
Q 54.890625 44.34375 54.890625 33.015625 
z
" id="DejaVuSans-110"/>
     <path d="M 48.78125 52.59375 
L 48.78125 44.1875 
Q 44.96875 46.296875 41.140625 47.34375 
Q 37.3125 48.390625 33.40625 48.390625 
Q 24.65625 48.390625 19.8125 42.84375 
Q 14.984375 37.3125 14.984375 27.296875 
Q 14.984375 17.28125 19.8125 11.734375 
Q 24.65625 6.203125 33.40625 6.203125 
Q 37.3125 6.203125 41.140625 7.25 
Q 44.96875 8.296875 48.78125 10.40625 
L 48.78125 2.09375 
Q 45.015625 0.34375 40.984375 -0.53125 
Q 36.96875 -1.421875 32.421875 -1.421875 
Q 20.0625 -1.421875 12.78125 6.34375 
Q 5.515625 14.109375 5.515625 27.296875 
Q 5.515625 40.671875 12.859375 48.328125 
Q 20.21875 56 33.015625 56 
Q 37.15625 56 41.109375 55.140625 
Q 45.0625 54.296875 48.78125 52.59375 
z
" id="DejaVuSans-99"/>
     <path d="M 18.3125 70.21875 
L 18.3125 54.6875 
L 36.8125 54.6875 
L 36.8125 47.703125 
L 18.3125 47.703125 
L 18.3125 18.015625 
Q 18.3125 11.328125 20.140625 9.421875 
Q 21.96875 7.515625 27.59375 7.515625 
L 36.8125 7.515625 
L 36.8125 0 
L 27.59375 0 
Q 17.1875 0 13.234375 3.875 
Q 9.28125 7.765625 9.28125 18.015625 
L 9.28125 47.703125 
L 2.6875 47.703125 
L 2.6875 54.6875 
L 9.28125 54.6875 
L 9.28125 70.21875 
z
" id="DejaVuSans-116"/>
     <path d="M 9.421875 54.6875 
L 18.40625 54.6875 
L 18.40625 0 
L 9.421875 0 
z
M 9.421875 75.984375 
L 18.40625 75.984375 
L 18.40625 64.59375 
L 9.421875 64.59375 
z
" id="DejaVuSans-105"/>
     <path d="M 30.609375 48.390625 
Q 23.390625 48.390625 19.1875 42.75 
Q 14.984375 37.109375 14.984375 27.296875 
Q 14.984375 17.484375 19.15625 11.84375 
Q 23.34375 6.203125 30.609375 6.203125 
Q 37.796875 6.203125 41.984375 11.859375 
Q 46.1875 17.53125 46.1875 27.296875 
Q 46.1875 37.015625 41.984375 42.703125 
Q 37.796875 48.390625 30.609375 48.390625 
z
M 30.609375 56 
Q 42.328125 56 49.015625 48.375 
Q 55.71875 40.765625 55.71875 27.296875 
Q 55.71875 13.875 49.015625 6.21875 
Q 42.328125 -1.421875 30.609375 -1.421875 
Q 18.84375 -1.421875 12.171875 6.21875 
Q 5.515625 13.875 5.515625 27.296875 
Q 5.515625 40.765625 12.171875 48.375 
Q 18.84375 56 30.609375 56 
z
" id="DejaVuSans-111"/>
     <path d="M 45.40625 27.984375 
Q 45.40625 37.75 41.375 43.109375 
Q 37.359375 48.484375 30.078125 48.484375 
Q 22.859375 48.484375 18.828125 43.109375 
Q 14.796875 37.75 14.796875 27.984375 
Q 14.796875 18.265625 18.828125 12.890625 
Q 22.859375 7.515625 30.078125 7.515625 
Q 37.359375 7.515625 41.375 12.890625 
Q 45.40625 18.265625 45.40625 27.984375 
z
M 54.390625 6.78125 
Q 54.390625 -7.171875 48.1875 -13.984375 
Q 42 -20.796875 29.203125 -20.796875 
Q 24.46875 -20.796875 20.265625 -20.09375 
Q 16.0625 -19.390625 12.109375 -17.921875 
L 12.109375 -9.1875 
Q 16.0625 -11.328125 19.921875 -12.34375 
Q 23.78125 -13.375 27.78125 -13.375 
Q 36.625 -13.375 41.015625 -8.765625 
Q 45.40625 -4.15625 45.40625 5.171875 
L 45.40625 9.625 
Q 42.625 4.78125 38.28125 2.390625 
Q 33.9375 0 27.875 0 
Q 17.828125 0 11.671875 7.65625 
Q 5.515625 15.328125 5.515625 27.984375 
Q 5.515625 40.671875 11.671875 48.328125 
Q 17.828125 56 27.875 56 
Q 33.9375 56 38.28125 53.609375 
Q 42.625 51.21875 45.40625 46.390625 
L 45.40625 54.6875 
L 54.390625 54.6875 
z
" id="DejaVuSans-103"/>
    </defs>
    <g transform="translate(181.680937 35.472)scale(0.12 -0.12)">
     <use xlink:href="#DejaVuSans-70"/>
     <use x="57.441406" xlink:href="#DejaVuSans-117"/>
     <use x="120.820312" xlink:href="#DejaVuSans-110"/>
     <use x="184.199219" xlink:href="#DejaVuSans-99"/>
     <use x="239.179688" xlink:href="#DejaVuSans-116"/>
     <use x="278.388672" xlink:href="#DejaVuSans-105"/>
     <use x="306.171875" xlink:href="#DejaVuSans-111"/>
     <use x="367.353516" xlink:href="#DejaVuSans-110"/>
     <use x="430.732422" xlink:href="#DejaVuSans-70"/>
     <use x="488.142578" xlink:href="#DejaVuSans-105"/>
     <use x="515.925781" xlink:href="#DejaVuSans-116"/>
     <use x="555.134766" xlink:href="#DejaVuSans-116"/>
     <use x="594.34375" xlink:href="#DejaVuSans-105"/>
     <use x="622.126953" xlink:href="#DejaVuSans-110"/>
     <use x="685.505859" xlink:href="#DejaVuSans-103"/>
     <use x="748.982422" xlink:href="#DejaVuSans-32"/>
     <use x="780.769531" xlink:href="#DejaVuSans-48"/>
     <use x="844.392578" xlink:href="#DejaVuSans-50"/>
    </g>
   </g>
   <g id="legend_1">
    <g id="patch_7">
     <path d="M 64.6 302.584 
L 172.48125 302.584 
Q 174.48125 302.584 174.48125 300.584 
L 174.48125 272.22775 
Q 174.48125 270.22775 172.48125 270.22775 
L 64.6 270.22775 
Q 62.6 270.22775 62.6 272.22775 
L 62.6 300.584 
Q 62.6 302.584 64.6 302.584 
z
" style="fill:#ffffff;opacity:0.8;stroke:#cccccc;stroke-linejoin:miter;"/>
    </g>
    <g id="line2d_15"/>
    <g id="line2d_16">
     <g>
      <use style="fill:#ff0000;stroke:#ff0000;" x="76.6" xlink:href="#mb79faa8e28" y="278.326187"/>
     </g>
    </g>
    <g id="text_16">
     <!-- measured data -->
     <defs>
      <path d="M 52 44.1875 
Q 55.375 50.25 60.0625 53.125 
Q 64.75 56 71.09375 56 
Q 79.640625 56 84.28125 50.015625 
Q 88.921875 44.046875 88.921875 33.015625 
L 88.921875 0 
L 79.890625 0 
L 79.890625 32.71875 
Q 79.890625 40.578125 77.09375 44.375 
Q 74.3125 48.1875 68.609375 48.1875 
Q 61.625 48.1875 57.5625 43.546875 
Q 53.515625 38.921875 53.515625 30.90625 
L 53.515625 0 
L 44.484375 0 
L 44.484375 32.71875 
Q 44.484375 40.625 41.703125 44.40625 
Q 38.921875 48.1875 33.109375 48.1875 
Q 26.21875 48.1875 22.15625 43.53125 
Q 18.109375 38.875 18.109375 30.90625 
L 18.109375 0 
L 9.078125 0 
L 9.078125 54.6875 
L 18.109375 54.6875 
L 18.109375 46.1875 
Q 21.1875 51.21875 25.484375 53.609375 
Q 29.78125 56 35.6875 56 
Q 41.65625 56 45.828125 52.96875 
Q 50 49.953125 52 44.1875 
z
" id="DejaVuSans-109"/>
      <path d="M 41.109375 46.296875 
Q 39.59375 47.171875 37.8125 47.578125 
Q 36.03125 48 33.890625 48 
Q 26.265625 48 22.1875 43.046875 
Q 18.109375 38.09375 18.109375 28.8125 
L 18.109375 0 
L 9.078125 0 
L 9.078125 54.6875 
L 18.109375 54.6875 
L 18.109375 46.1875 
Q 20.953125 51.171875 25.484375 53.578125 
Q 30.03125 56 36.53125 56 
Q 37.453125 56 38.578125 55.875 
Q 39.703125 55.765625 41.0625 55.515625 
z
" id="DejaVuSans-114"/>
      <path d="M 45.40625 46.390625 
L 45.40625 75.984375 
L 54.390625 75.984375 
L 54.390625 0 
L 45.40625 0 
L 45.40625 8.203125 
Q 42.578125 3.328125 38.25 0.953125 
Q 33.9375 -1.421875 27.875 -1.421875 
Q 17.96875 -1.421875 11.734375 6.484375 
Q 5.515625 14.40625 5.515625 27.296875 
Q 5.515625 40.1875 11.734375 48.09375 
Q 17.96875 56 27.875 56 
Q 33.9375 56 38.25 53.625 
Q 42.578125 51.265625 45.40625 46.390625 
z
M 14.796875 27.296875 
Q 14.796875 17.390625 18.875 11.75 
Q 22.953125 6.109375 30.078125 6.109375 
Q 37.203125 6.109375 41.296875 11.75 
Q 45.40625 17.390625 45.40625 27.296875 
Q 45.40625 37.203125 41.296875 42.84375 
Q 37.203125 48.484375 30.078125 48.484375 
Q 22.953125 48.484375 18.875 42.84375 
Q 14.796875 37.203125 14.796875 27.296875 
z
" id="DejaVuSans-100"/>
     </defs>
     <g transform="translate(94.6 281.826187)scale(0.1 -0.1)">
      <use xlink:href="#DejaVuSans-109"/>
      <use x="97.412109" xlink:href="#DejaVuSans-101"/>
      <use x="158.935547" xlink:href="#DejaVuSans-97"/>
      <use x="220.214844" xlink:href="#DejaVuSans-115"/>
      <use x="272.314453" xlink:href="#DejaVuSans-117"/>
      <use x="335.693359" xlink:href="#DejaVuSans-114"/>
      <use x="376.775391" xlink:href="#DejaVuSans-101"/>
      <use x="438.298828" xlink:href="#DejaVuSans-100"/>
      <use x="501.775391" xlink:href="#DejaVuSans-32"/>
      <use x="533.5625" xlink:href="#DejaVuSans-100"/>
      <use x="597.039062" xlink:href="#DejaVuSans-97"/>
      <use x="658.318359" xlink:href="#DejaVuSans-116"/>
      <use x="697.527344" xlink:href="#DejaVuSans-97"/>
     </g>
    </g>
    <g id="line2d_17">
     <path d="M 66.6 293.004312 
L 86.6 293.004312 
" style="fill:none;stroke:#008000;stroke-linecap:square;stroke-width:1.5;"/>
    </g>
    <g id="line2d_18"/>
    <g id="text_17">
     <!-- linear data -->
     <g transform="translate(94.6 296.504312)scale(0.1 -0.1)">
      <use xlink:href="#DejaVuSans-108"/>
      <use x="27.783203" xlink:href="#DejaVuSans-105"/>
      <use x="55.566406" xlink:href="#DejaVuSans-110"/>
      <use x="118.945312" xlink:href="#DejaVuSans-101"/>
      <use x="180.46875" xlink:href="#DejaVuSans-97"/>
      <use x="241.748047" xlink:href="#DejaVuSans-114"/>
      <use x="282.861328" xlink:href="#DejaVuSans-32"/>
      <use x="314.648438" xlink:href="#DejaVuSans-100"/>
      <use x="378.125" xlink:href="#DejaVuSans-97"/>
      <use x="439.404297" xlink:href="#DejaVuSans-116"/>
      <use x="478.613281" xlink:href="#DejaVuSans-97"/>
     </g>
    </g>
   </g>
  </g>
 </g>
 <defs>
  <clipPath id="p8efc59cc43">
   <rect height="266.112" width="357.12" x="57.6" y="41.472"/>
  </clipPath>
 </defs>
</svg>
