<?xml version="1.0" encoding="utf-8" standalone="no"?>
<!DOCTYPE svg PUBLIC "-//W3C//DTD SVG 1.1//EN"
  "http://www.w3.org/Graphics/SVG/1.1/DTD/svg11.dtd">
<!-- Created with matplotlib (https://matplotlib.org/) -->
<svg height="345.6pt" version="1.1" viewBox="0 0 460.8 345.6" width="460.8pt" xmlns="http://www.w3.org/2000/svg" xmlns:xlink="http://www.w3.org/1999/xlink">
 <defs>
  <style type="text/css">
*{stroke-linecap:butt;stroke-linejoin:round;}
  </style>
 </defs>
 <g id="figure_1">
  <g id="patch_1">
   <path d="M 0 345.6 
L 460.8 345.6 
L 460.8 0 
L 0 0 
z
" style="fill:#ffffff;"/>
  </g>
  <g id="axes_1">
   <g id="patch_2">
    <path d="M 57.6 307.584 
L 414.72 307.584 
L 414.72 41.472 
L 57.6 41.472 
z
" style="fill:#ffffff;"/>
   </g>
   <g id="matplotlib.axis_1">
    <g id="xtick_1">
     <g id="line2d_1">
      <defs>
       <path d="M 0 0 
L 0 3.5 
" id="mf5b76b1c76" style="stroke:#000000;stroke-width:0.8;"/>
      </defs>
      <g>
       <use style="stroke:#000000;stroke-width:0.8;" x="63.362918" xlink:href="#mf5b76b1c76" y="307.584"/>
      </g>
     </g>
     <g id="text_1">
      <!-- 0 -->
      <defs>
       <path d="M 31.78125 66.40625 
Q 24.171875 66.40625 20.328125 58.90625 
Q 16.5 51.421875 16.5 36.375 
Q 16.5 21.390625 20.328125 13.890625 
Q 24.171875 6.390625 31.78125 6.390625 
Q 39.453125 6.390625 43.28125 13.890625 
Q 47.125 21.390625 47.125 36.375 
Q 47.125 51.421875 43.28125 58.90625 
Q 39.453125 66.40625 31.78125 66.40625 
z
M 31.78125 74.21875 
Q 44.046875 74.21875 50.515625 64.515625 
Q 56.984375 54.828125 56.984375 36.375 
Q 56.984375 17.96875 50.515625 8.265625 
Q 44.046875 -1.421875 31.78125 -1.421875 
Q 19.53125 -1.421875 13.0625 8.265625 
Q 6.59375 17.96875 6.59375 36.375 
Q 6.59375 54.828125 13.0625 64.515625 
Q 19.53125 74.21875 31.78125 74.21875 
z
" id="DejaVuSans-48"/>
      </defs>
      <g transform="translate(60.181668 322.182437)scale(0.1 -0.1)">
       <use xlink:href="#DejaVuSans-48"/>
      </g>
     </g>
    </g>
    <g id="xtick_2">
     <g id="line2d_2">
      <g>
       <use style="stroke:#000000;stroke-width:0.8;" x="135.229095" xlink:href="#mf5b76b1c76" y="307.584"/>
      </g>
     </g>
     <g id="text_2">
      <!-- 20 -->
      <defs>
       <path d="M 19.1875 8.296875 
L 53.609375 8.296875 
L 53.609375 0 
L 7.328125 0 
L 7.328125 8.296875 
Q 12.9375 14.109375 22.625 23.890625 
Q 32.328125 33.6875 34.8125 36.53125 
Q 39.546875 41.84375 41.421875 45.53125 
Q 43.3125 49.21875 43.3125 52.78125 
Q 43.3125 58.59375 39.234375 62.25 
Q 35.15625 65.921875 28.609375 65.921875 
Q 23.96875 65.921875 18.8125 64.3125 
Q 13.671875 62.703125 7.8125 59.421875 
L 7.8125 69.390625 
Q 13.765625 71.78125 18.9375 73 
Q 24.125 74.21875 28.421875 74.21875 
Q 39.75 74.21875 46.484375 68.546875 
Q 53.21875 62.890625 53.21875 53.421875 
Q 53.21875 48.921875 51.53125 44.890625 
Q 49.859375 40.875 45.40625 35.40625 
Q 44.1875 33.984375 37.640625 27.21875 
Q 31.109375 20.453125 19.1875 8.296875 
z
" id="DejaVuSans-50"/>
      </defs>
      <g transform="translate(128.866595 322.182437)scale(0.1 -0.1)">
       <use xlink:href="#DejaVuSans-50"/>
       <use x="63.623047" xlink:href="#DejaVuSans-48"/>
      </g>
     </g>
    </g>
    <g id="xtick_3">
     <g id="line2d_3">
      <g>
       <use style="stroke:#000000;stroke-width:0.8;" x="207.095271" xlink:href="#mf5b76b1c76" y="307.584"/>
      </g>
     </g>
     <g id="text_3">
      <!-- 40 -->
      <defs>
       <path d="M 37.796875 64.3125 
L 12.890625 25.390625 
L 37.796875 25.390625 
z
M 35.203125 72.90625 
L 47.609375 72.90625 
L 47.609375 25.390625 
L 58.015625 25.390625 
L 58.015625 17.1875 
L 47.609375 17.1875 
L 47.609375 0 
L 37.796875 0 
L 37.796875 17.1875 
L 4.890625 17.1875 
L 4.890625 26.703125 
z
" id="DejaVuSans-52"/>
      </defs>
      <g transform="translate(200.732771 322.182437)scale(0.1 -0.1)">
       <use xlink:href="#DejaVuSans-52"/>
       <use x="63.623047" xlink:href="#DejaVuSans-48"/>
      </g>
     </g>
    </g>
    <g id="xtick_4">
     <g id="line2d_4">
      <g>
       <use style="stroke:#000000;stroke-width:0.8;" x="278.961448" xlink:href="#mf5b76b1c76" y="307.584"/>
      </g>
     </g>
     <g id="text_4">
      <!-- 60 -->
      <defs>
       <path d="M 33.015625 40.375 
Q 26.375 40.375 22.484375 35.828125 
Q 18.609375 31.296875 18.609375 23.390625 
Q 18.609375 15.53125 22.484375 10.953125 
Q 26.375 6.390625 33.015625 6.390625 
Q 39.65625 6.390625 43.53125 10.953125 
Q 47.40625 15.53125 47.40625 23.390625 
Q 47.40625 31.296875 43.53125 35.828125 
Q 39.65625 40.375 33.015625 40.375 
z
M 52.59375 71.296875 
L 52.59375 62.3125 
Q 48.875 64.0625 45.09375 64.984375 
Q 41.3125 65.921875 37.59375 65.921875 
Q 27.828125 65.921875 22.671875 59.328125 
Q 17.53125 52.734375 16.796875 39.40625 
Q 19.671875 43.65625 24.015625 45.921875 
Q 28.375 48.1875 33.59375 48.1875 
Q 44.578125 48.1875 50.953125 41.515625 
Q 57.328125 34.859375 57.328125 23.390625 
Q 57.328125 12.15625 50.6875 5.359375 
Q 44.046875 -1.421875 33.015625 -1.421875 
Q 20.359375 -1.421875 13.671875 8.265625 
Q 6.984375 17.96875 6.984375 36.375 
Q 6.984375 53.65625 15.1875 63.9375 
Q 23.390625 74.21875 37.203125 74.21875 
Q 40.921875 74.21875 44.703125 73.484375 
Q 48.484375 72.75 52.59375 71.296875 
z
" id="DejaVuSans-54"/>
      </defs>
      <g transform="translate(272.598948 322.182437)scale(0.1 -0.1)">
       <use xlink:href="#DejaVuSans-54"/>
       <use x="63.623047" xlink:href="#DejaVuSans-48"/>
      </g>
     </g>
    </g>
    <g id="xtick_5">
     <g id="line2d_5">
      <g>
       <use style="stroke:#000000;stroke-width:0.8;" x="350.827624" xlink:href="#mf5b76b1c76" y="307.584"/>
      </g>
     </g>
     <g id="text_5">
      <!-- 80 -->
      <defs>
       <path d="M 31.78125 34.625 
Q 24.75 34.625 20.71875 30.859375 
Q 16.703125 27.09375 16.703125 20.515625 
Q 16.703125 13.921875 20.71875 10.15625 
Q 24.75 6.390625 31.78125 6.390625 
Q 38.8125 6.390625 42.859375 10.171875 
Q 46.921875 13.96875 46.921875 20.515625 
Q 46.921875 27.09375 42.890625 30.859375 
Q 38.875 34.625 31.78125 34.625 
z
M 21.921875 38.8125 
Q 15.578125 40.375 12.03125 44.71875 
Q 8.5 49.078125 8.5 55.328125 
Q 8.5 64.0625 14.71875 69.140625 
Q 20.953125 74.21875 31.78125 74.21875 
Q 42.671875 74.21875 48.875 69.140625 
Q 55.078125 64.0625 55.078125 55.328125 
Q 55.078125 49.078125 51.53125 44.71875 
Q 48 40.375 41.703125 38.8125 
Q 48.828125 37.15625 52.796875 32.3125 
Q 56.78125 27.484375 56.78125 20.515625 
Q 56.78125 9.90625 50.3125 4.234375 
Q 43.84375 -1.421875 31.78125 -1.421875 
Q 19.734375 -1.421875 13.25 4.234375 
Q 6.78125 9.90625 6.78125 20.515625 
Q 6.78125 27.484375 10.78125 32.3125 
Q 14.796875 37.15625 21.921875 38.8125 
z
M 18.3125 54.390625 
Q 18.3125 48.734375 21.84375 45.5625 
Q 25.390625 42.390625 31.78125 42.390625 
Q 38.140625 42.390625 41.71875 45.5625 
Q 45.3125 48.734375 45.3125 54.390625 
Q 45.3125 60.0625 41.71875 63.234375 
Q 38.140625 66.40625 31.78125 66.40625 
Q 25.390625 66.40625 21.84375 63.234375 
Q 18.3125 60.0625 18.3125 54.390625 
z
" id="DejaVuSans-56"/>
      </defs>
      <g transform="translate(344.465124 322.182437)scale(0.1 -0.1)">
       <use xlink:href="#DejaVuSans-56"/>
       <use x="63.623047" xlink:href="#DejaVuSans-48"/>
      </g>
     </g>
    </g>
    <g id="text_6">
     <!-- x values -->
     <defs>
      <path d="M 54.890625 54.6875 
L 35.109375 28.078125 
L 55.90625 0 
L 45.3125 0 
L 29.390625 21.484375 
L 13.484375 0 
L 2.875 0 
L 24.125 28.609375 
L 4.6875 54.6875 
L 15.28125 54.6875 
L 29.78125 35.203125 
L 44.28125 54.6875 
z
" id="DejaVuSans-120"/>
      <path id="DejaVuSans-32"/>
      <path d="M 2.984375 54.6875 
L 12.5 54.6875 
L 29.59375 8.796875 
L 46.6875 54.6875 
L 56.203125 54.6875 
L 35.6875 0 
L 23.484375 0 
z
" id="DejaVuSans-118"/>
      <path d="M 34.28125 27.484375 
Q 23.390625 27.484375 19.1875 25 
Q 14.984375 22.515625 14.984375 16.5 
Q 14.984375 11.71875 18.140625 8.90625 
Q 21.296875 6.109375 26.703125 6.109375 
Q 34.1875 6.109375 38.703125 11.40625 
Q 43.21875 16.703125 43.21875 25.484375 
L 43.21875 27.484375 
z
M 52.203125 31.203125 
L 52.203125 0 
L 43.21875 0 
L 43.21875 8.296875 
Q 40.140625 3.328125 35.546875 0.953125 
Q 30.953125 -1.421875 24.3125 -1.421875 
Q 15.921875 -1.421875 10.953125 3.296875 
Q 6 8.015625 6 15.921875 
Q 6 25.140625 12.171875 29.828125 
Q 18.359375 34.515625 30.609375 34.515625 
L 43.21875 34.515625 
L 43.21875 35.40625 
Q 43.21875 41.609375 39.140625 45 
Q 35.0625 48.390625 27.6875 48.390625 
Q 23 48.390625 18.546875 47.265625 
Q 14.109375 46.140625 10.015625 43.890625 
L 10.015625 52.203125 
Q 14.9375 54.109375 19.578125 55.046875 
Q 24.21875 56 28.609375 56 
Q 40.484375 56 46.34375 49.84375 
Q 52.203125 43.703125 52.203125 31.203125 
z
" id="DejaVuSans-97"/>
      <path d="M 9.421875 75.984375 
L 18.40625 75.984375 
L 18.40625 0 
L 9.421875 0 
z
" id="DejaVuSans-108"/>
      <path d="M 8.5 21.578125 
L 8.5 54.6875 
L 17.484375 54.6875 
L 17.484375 21.921875 
Q 17.484375 14.15625 20.5 10.265625 
Q 23.53125 6.390625 29.59375 6.390625 
Q 36.859375 6.390625 41.078125 11.03125 
Q 45.3125 15.671875 45.3125 23.6875 
L 45.3125 54.6875 
L 54.296875 54.6875 
L 54.296875 0 
L 45.3125 0 
L 45.3125 8.40625 
Q 42.046875 3.421875 37.71875 1 
Q 33.40625 -1.421875 27.6875 -1.421875 
Q 18.265625 -1.421875 13.375 4.4375 
Q 8.5 10.296875 8.5 21.578125 
z
M 31.109375 56 
z
" id="DejaVuSans-117"/>
      <path d="M 56.203125 29.59375 
L 56.203125 25.203125 
L 14.890625 25.203125 
Q 15.484375 15.921875 20.484375 11.0625 
Q 25.484375 6.203125 34.421875 6.203125 
Q 39.59375 6.203125 44.453125 7.46875 
Q 49.3125 8.734375 54.109375 11.28125 
L 54.109375 2.78125 
Q 49.265625 0.734375 44.1875 -0.34375 
Q 39.109375 -1.421875 33.890625 -1.421875 
Q 20.796875 -1.421875 13.15625 6.1875 
Q 5.515625 13.8125 5.515625 26.8125 
Q 5.515625 40.234375 12.765625 48.109375 
Q 20.015625 56 32.328125 56 
Q 43.359375 56 49.78125 48.890625 
Q 56.203125 41.796875 56.203125 29.59375 
z
M 47.21875 32.234375 
Q 47.125 39.59375 43.09375 43.984375 
Q 39.0625 48.390625 32.421875 48.390625 
Q 24.90625 48.390625 20.390625 44.140625 
Q 15.875 39.890625 15.1875 32.171875 
z
" id="DejaVuSans-101"/>
      <path d="M 44.28125 53.078125 
L 44.28125 44.578125 
Q 40.484375 46.53125 36.375 47.5 
Q 32.28125 48.484375 27.875 48.484375 
Q 21.1875 48.484375 17.84375 46.4375 
Q 14.5 44.390625 14.5 40.28125 
Q 14.5 37.15625 16.890625 35.375 
Q 19.28125 33.59375 26.515625 31.984375 
L 29.59375 31.296875 
Q 39.15625 29.25 43.1875 25.515625 
Q 47.21875 21.78125 47.21875 15.09375 
Q 47.21875 7.46875 41.1875 3.015625 
Q 35.15625 -1.421875 24.609375 -1.421875 
Q 20.21875 -1.421875 15.453125 -0.5625 
Q 10.6875 0.296875 5.421875 2 
L 5.421875 11.28125 
Q 10.40625 8.6875 15.234375 7.390625 
Q 20.0625 6.109375 24.8125 6.109375 
Q 31.15625 6.109375 34.5625 8.28125 
Q 37.984375 10.453125 37.984375 14.40625 
Q 37.984375 18.0625 35.515625 20.015625 
Q 33.0625 21.96875 24.703125 23.78125 
L 21.578125 24.515625 
Q 13.234375 26.265625 9.515625 29.90625 
Q 5.8125 33.546875 5.8125 39.890625 
Q 5.8125 47.609375 11.28125 51.796875 
Q 16.75 56 26.8125 56 
Q 31.78125 56 36.171875 55.265625 
Q 40.578125 54.546875 44.28125 53.078125 
z
" id="DejaVuSans-115"/>
     </defs>
     <g transform="translate(215.349063 335.860562)scale(0.1 -0.1)">
      <use xlink:href="#DejaVuSans-120"/>
      <use x="59.179688" xlink:href="#DejaVuSans-32"/>
      <use x="90.966797" xlink:href="#DejaVuSans-118"/>
      <use x="150.146484" xlink:href="#DejaVuSans-97"/>
      <use x="211.425781" xlink:href="#DejaVuSans-108"/>
      <use x="239.208984" xlink:href="#DejaVuSans-117"/>
      <use x="302.587891" xlink:href="#DejaVuSans-101"/>
      <use x="364.111328" xlink:href="#DejaVuSans-115"/>
     </g>
    </g>
   </g>
   <g id="matplotlib.axis_2">
    <g id="ytick_1">
     <g id="line2d_6">
      <defs>
       <path d="M 0 0 
L -3.5 0 
" id="m48a0c72841" style="stroke:#000000;stroke-width:0.8;"/>
      </defs>
      <g>
       <use style="stroke:#000000;stroke-width:0.8;" x="57.6" xlink:href="#m48a0c72841" y="293.72744"/>
      </g>
     </g>
     <g id="text_7">
      <!-- 0 -->
      <g transform="translate(44.2375 297.526659)scale(0.1 -0.1)">
       <use xlink:href="#DejaVuSans-48"/>
      </g>
     </g>
    </g>
    <g id="ytick_2">
     <g id="line2d_7">
      <g>
       <use style="stroke:#000000;stroke-width:0.8;" x="57.6" xlink:href="#m48a0c72841" y="251.394803"/>
      </g>
     </g>
     <g id="text_8">
      <!-- 200 -->
      <g transform="translate(31.5125 255.194022)scale(0.1 -0.1)">
       <use xlink:href="#DejaVuSans-50"/>
       <use x="63.623047" xlink:href="#DejaVuSans-48"/>
       <use x="127.246094" xlink:href="#DejaVuSans-48"/>
      </g>
     </g>
    </g>
    <g id="ytick_3">
     <g id="line2d_8">
      <g>
       <use style="stroke:#000000;stroke-width:0.8;" x="57.6" xlink:href="#m48a0c72841" y="209.062166"/>
      </g>
     </g>
     <g id="text_9">
      <!-- 400 -->
      <g transform="translate(31.5125 212.861385)scale(0.1 -0.1)">
       <use xlink:href="#DejaVuSans-52"/>
       <use x="63.623047" xlink:href="#DejaVuSans-48"/>
       <use x="127.246094" xlink:href="#DejaVuSans-48"/>
      </g>
     </g>
    </g>
    <g id="ytick_4">
     <g id="line2d_9">
      <g>
       <use style="stroke:#000000;stroke-width:0.8;" x="57.6" xlink:href="#m48a0c72841" y="166.729529"/>
      </g>
     </g>
     <g id="text_10">
      <!-- 600 -->
      <g transform="translate(31.5125 170.528748)scale(0.1 -0.1)">
       <use xlink:href="#DejaVuSans-54"/>
       <use x="63.623047" xlink:href="#DejaVuSans-48"/>
       <use x="127.246094" xlink:href="#DejaVuSans-48"/>
      </g>
     </g>
    </g>
    <g id="ytick_5">
     <g id="line2d_10">
      <g>
       <use style="stroke:#000000;stroke-width:0.8;" x="57.6" xlink:href="#m48a0c72841" y="124.396892"/>
      </g>
     </g>
     <g id="text_11">
      <!-- 800 -->
      <g transform="translate(31.5125 128.196111)scale(0.1 -0.1)">
       <use xlink:href="#DejaVuSans-56"/>
       <use x="63.623047" xlink:href="#DejaVuSans-48"/>
       <use x="127.246094" xlink:href="#DejaVuSans-48"/>
      </g>
     </g>
    </g>
    <g id="ytick_6">
     <g id="line2d_11">
      <g>
       <use style="stroke:#000000;stroke-width:0.8;" x="57.6" xlink:href="#m48a0c72841" y="82.064255"/>
      </g>
     </g>
     <g id="text_12">
      <!-- 1000 -->
      <defs>
       <path d="M 12.40625 8.296875 
L 28.515625 8.296875 
L 28.515625 63.921875 
L 10.984375 60.40625 
L 10.984375 69.390625 
L 28.421875 72.90625 
L 38.28125 72.90625 
L 38.28125 8.296875 
L 54.390625 8.296875 
L 54.390625 0 
L 12.40625 0 
z
" id="DejaVuSans-49"/>
      </defs>
      <g transform="translate(25.15 85.863474)scale(0.1 -0.1)">
       <use xlink:href="#DejaVuSans-49"/>
       <use x="63.623047" xlink:href="#DejaVuSans-48"/>
       <use x="127.246094" xlink:href="#DejaVuSans-48"/>
       <use x="190.869141" xlink:href="#DejaVuSans-48"/>
      </g>
     </g>
    </g>
    <g id="text_13">
     <!-- y values -->
     <defs>
      <path d="M 32.171875 -5.078125 
Q 28.375 -14.84375 24.75 -17.8125 
Q 21.140625 -20.796875 15.09375 -20.796875 
L 7.90625 -20.796875 
L 7.90625 -13.28125 
L 13.1875 -13.28125 
Q 16.890625 -13.28125 18.9375 -11.515625 
Q 21 -9.765625 23.484375 -3.21875 
L 25.09375 0.875 
L 2.984375 54.6875 
L 12.5 54.6875 
L 29.59375 11.921875 
L 46.6875 54.6875 
L 56.203125 54.6875 
z
" id="DejaVuSans-121"/>
     </defs>
     <g transform="translate(19.070312 195.338937)rotate(-90)scale(0.1 -0.1)">
      <use xlink:href="#DejaVuSans-121"/>
      <use x="59.179688" xlink:href="#DejaVuSans-32"/>
      <use x="90.966797" xlink:href="#DejaVuSans-118"/>
      <use x="150.146484" xlink:href="#DejaVuSans-97"/>
      <use x="211.425781" xlink:href="#DejaVuSans-108"/>
      <use x="239.208984" xlink:href="#DejaVuSans-117"/>
      <use x="302.587891" xlink:href="#DejaVuSans-101"/>
      <use x="364.111328" xlink:href="#DejaVuSans-115"/>
     </g>
    </g>
   </g>
   <g id="line2d_12">
    <defs>
     <path d="M 0 1 
C 0.265203 1 0.51958 0.894634 0.707107 0.707107 
C 0.894634 0.51958 1 0.265203 1 0 
C 1 -0.265203 0.894634 -0.51958 0.707107 -0.707107 
C 0.51958 -0.894634 0.265203 -1 0 -1 
C -0.265203 -1 -0.51958 -0.894634 -0.707107 -0.707107 
C -0.894634 -0.51958 -1 -0.265203 -1 0 
C -1 0.265203 -0.894634 0.51958 -0.707107 0.707107 
C -0.51958 0.894634 -0.265203 1 0 1 
z
" id="m9db2f70cb1" style="stroke:#ff0000;"/>
    </defs>
    <g clip-path="url(#p0aab38c53b)">
     <use style="fill:#ff0000;stroke:#ff0000;" x="73.832727" xlink:href="#m9db2f70cb1" y="53.568"/>
     <use style="fill:#ff0000;stroke:#ff0000;" x="75.328831" xlink:href="#m9db2f70cb1" y="91.738297"/>
     <use style="fill:#ff0000;stroke:#ff0000;" x="76.824935" xlink:href="#m9db2f70cb1" y="83.323192"/>
     <use style="fill:#ff0000;stroke:#ff0000;" x="78.321039" xlink:href="#m9db2f70cb1" y="120.457862"/>
     <use style="fill:#ff0000;stroke:#ff0000;" x="79.817143" xlink:href="#m9db2f70cb1" y="101.897019"/>
     <use style="fill:#ff0000;stroke:#ff0000;" x="81.313247" xlink:href="#m9db2f70cb1" y="95.815725"/>
     <use style="fill:#ff0000;stroke:#ff0000;" x="82.809351" xlink:href="#m9db2f70cb1" y="120.657456"/>
     <use style="fill:#ff0000;stroke:#ff0000;" x="84.305455" xlink:href="#m9db2f70cb1" y="87.37897"/>
     <use style="fill:#ff0000;stroke:#ff0000;" x="85.801558" xlink:href="#m9db2f70cb1" y="122.055837"/>
     <use style="fill:#ff0000;stroke:#ff0000;" x="87.297662" xlink:href="#m9db2f70cb1" y="76.260506"/>
     <use style="fill:#ff0000;stroke:#ff0000;" x="88.793766" xlink:href="#m9db2f70cb1" y="92.236547"/>
     <use style="fill:#ff0000;stroke:#ff0000;" x="90.28987" xlink:href="#m9db2f70cb1" y="138.251011"/>
     <use style="fill:#ff0000;stroke:#ff0000;" x="91.785974" xlink:href="#m9db2f70cb1" y="135.756843"/>
     <use style="fill:#ff0000;stroke:#ff0000;" x="93.282078" xlink:href="#m9db2f70cb1" y="105.596066"/>
     <use style="fill:#ff0000;stroke:#ff0000;" x="94.778182" xlink:href="#m9db2f70cb1" y="156.425217"/>
     <use style="fill:#ff0000;stroke:#ff0000;" x="96.274286" xlink:href="#m9db2f70cb1" y="153.095566"/>
     <use style="fill:#ff0000;stroke:#ff0000;" x="97.77039" xlink:href="#m9db2f70cb1" y="154.046131"/>
     <use style="fill:#ff0000;stroke:#ff0000;" x="99.266494" xlink:href="#m9db2f70cb1" y="166.469782"/>
     <use style="fill:#ff0000;stroke:#ff0000;" x="100.762597" xlink:href="#m9db2f70cb1" y="125.419578"/>
     <use style="fill:#ff0000;stroke:#ff0000;" x="102.258701" xlink:href="#m9db2f70cb1" y="139.84842"/>
     <use style="fill:#ff0000;stroke:#ff0000;" x="103.754805" xlink:href="#m9db2f70cb1" y="173.600604"/>
     <use style="fill:#ff0000;stroke:#ff0000;" x="105.250909" xlink:href="#m9db2f70cb1" y="132.949805"/>
     <use style="fill:#ff0000;stroke:#ff0000;" x="106.747013" xlink:href="#m9db2f70cb1" y="164.789035"/>
     <use style="fill:#ff0000;stroke:#ff0000;" x="108.243117" xlink:href="#m9db2f70cb1" y="174.525859"/>
     <use style="fill:#ff0000;stroke:#ff0000;" x="109.739221" xlink:href="#m9db2f70cb1" y="138.870923"/>
     <use style="fill:#ff0000;stroke:#ff0000;" x="111.235325" xlink:href="#m9db2f70cb1" y="182.221532"/>
     <use style="fill:#ff0000;stroke:#ff0000;" x="112.731429" xlink:href="#m9db2f70cb1" y="147.36423"/>
     <use style="fill:#ff0000;stroke:#ff0000;" x="114.227532" xlink:href="#m9db2f70cb1" y="143.737277"/>
     <use style="fill:#ff0000;stroke:#ff0000;" x="115.723636" xlink:href="#m9db2f70cb1" y="192.632174"/>
     <use style="fill:#ff0000;stroke:#ff0000;" x="117.21974" xlink:href="#m9db2f70cb1" y="171.538023"/>
     <use style="fill:#ff0000;stroke:#ff0000;" x="118.715844" xlink:href="#m9db2f70cb1" y="175.391718"/>
     <use style="fill:#ff0000;stroke:#ff0000;" x="120.211948" xlink:href="#m9db2f70cb1" y="159.633527"/>
     <use style="fill:#ff0000;stroke:#ff0000;" x="121.708052" xlink:href="#m9db2f70cb1" y="160.03633"/>
     <use style="fill:#ff0000;stroke:#ff0000;" x="123.204156" xlink:href="#m9db2f70cb1" y="180.414696"/>
     <use style="fill:#ff0000;stroke:#ff0000;" x="124.70026" xlink:href="#m9db2f70cb1" y="206.476185"/>
     <use style="fill:#ff0000;stroke:#ff0000;" x="126.196364" xlink:href="#m9db2f70cb1" y="184.546119"/>
     <use style="fill:#ff0000;stroke:#ff0000;" x="127.692468" xlink:href="#m9db2f70cb1" y="182.652955"/>
     <use style="fill:#ff0000;stroke:#ff0000;" x="129.188571" xlink:href="#m9db2f70cb1" y="199.75162"/>
     <use style="fill:#ff0000;stroke:#ff0000;" x="130.684675" xlink:href="#m9db2f70cb1" y="196.641431"/>
     <use style="fill:#ff0000;stroke:#ff0000;" x="132.180779" xlink:href="#m9db2f70cb1" y="216.395288"/>
     <use style="fill:#ff0000;stroke:#ff0000;" x="133.676883" xlink:href="#m9db2f70cb1" y="214.947063"/>
     <use style="fill:#ff0000;stroke:#ff0000;" x="135.172987" xlink:href="#m9db2f70cb1" y="218.550342"/>
     <use style="fill:#ff0000;stroke:#ff0000;" x="136.669091" xlink:href="#m9db2f70cb1" y="214.237328"/>
     <use style="fill:#ff0000;stroke:#ff0000;" x="138.165195" xlink:href="#m9db2f70cb1" y="209.827416"/>
     <use style="fill:#ff0000;stroke:#ff0000;" x="139.661299" xlink:href="#m9db2f70cb1" y="211.429272"/>
     <use style="fill:#ff0000;stroke:#ff0000;" x="141.157403" xlink:href="#m9db2f70cb1" y="203.848782"/>
     <use style="fill:#ff0000;stroke:#ff0000;" x="142.653506" xlink:href="#m9db2f70cb1" y="229.399914"/>
     <use style="fill:#ff0000;stroke:#ff0000;" x="144.14961" xlink:href="#m9db2f70cb1" y="211.751185"/>
     <use style="fill:#ff0000;stroke:#ff0000;" x="145.645714" xlink:href="#m9db2f70cb1" y="230.378228"/>
     <use style="fill:#ff0000;stroke:#ff0000;" x="147.141818" xlink:href="#m9db2f70cb1" y="205.480536"/>
     <use style="fill:#ff0000;stroke:#ff0000;" x="148.637922" xlink:href="#m9db2f70cb1" y="211.085378"/>
     <use style="fill:#ff0000;stroke:#ff0000;" x="150.134026" xlink:href="#m9db2f70cb1" y="210.71571"/>
     <use style="fill:#ff0000;stroke:#ff0000;" x="151.63013" xlink:href="#m9db2f70cb1" y="211.350672"/>
     <use style="fill:#ff0000;stroke:#ff0000;" x="153.126234" xlink:href="#m9db2f70cb1" y="218.458458"/>
     <use style="fill:#ff0000;stroke:#ff0000;" x="154.622338" xlink:href="#m9db2f70cb1" y="222.628523"/>
     <use style="fill:#ff0000;stroke:#ff0000;" x="156.118442" xlink:href="#m9db2f70cb1" y="239.187145"/>
     <use style="fill:#ff0000;stroke:#ff0000;" x="157.614545" xlink:href="#m9db2f70cb1" y="225.903141"/>
     <use style="fill:#ff0000;stroke:#ff0000;" x="159.110649" xlink:href="#m9db2f70cb1" y="244.908812"/>
     <use style="fill:#ff0000;stroke:#ff0000;" x="160.606753" xlink:href="#m9db2f70cb1" y="243.087053"/>
     <use style="fill:#ff0000;stroke:#ff0000;" x="162.102857" xlink:href="#m9db2f70cb1" y="247.775585"/>
     <use style="fill:#ff0000;stroke:#ff0000;" x="163.598961" xlink:href="#m9db2f70cb1" y="241.05462"/>
     <use style="fill:#ff0000;stroke:#ff0000;" x="165.095065" xlink:href="#m9db2f70cb1" y="251.842007"/>
     <use style="fill:#ff0000;stroke:#ff0000;" x="166.591169" xlink:href="#m9db2f70cb1" y="245.376594"/>
     <use style="fill:#ff0000;stroke:#ff0000;" x="168.087273" xlink:href="#m9db2f70cb1" y="255.316401"/>
     <use style="fill:#ff0000;stroke:#ff0000;" x="169.583377" xlink:href="#m9db2f70cb1" y="243.2102"/>
     <use style="fill:#ff0000;stroke:#ff0000;" x="171.079481" xlink:href="#m9db2f70cb1" y="250.009414"/>
     <use style="fill:#ff0000;stroke:#ff0000;" x="172.575584" xlink:href="#m9db2f70cb1" y="260.740013"/>
     <use style="fill:#ff0000;stroke:#ff0000;" x="174.071688" xlink:href="#m9db2f70cb1" y="250.273932"/>
     <use style="fill:#ff0000;stroke:#ff0000;" x="175.567792" xlink:href="#m9db2f70cb1" y="253.914697"/>
     <use style="fill:#ff0000;stroke:#ff0000;" x="177.063896" xlink:href="#m9db2f70cb1" y="260.921518"/>
     <use style="fill:#ff0000;stroke:#ff0000;" x="178.56" xlink:href="#m9db2f70cb1" y="263.211778"/>
     <use style="fill:#ff0000;stroke:#ff0000;" x="180.056104" xlink:href="#m9db2f70cb1" y="267.25114"/>
     <use style="fill:#ff0000;stroke:#ff0000;" x="181.552208" xlink:href="#m9db2f70cb1" y="261.14566"/>
     <use style="fill:#ff0000;stroke:#ff0000;" x="183.048312" xlink:href="#m9db2f70cb1" y="257.583447"/>
     <use style="fill:#ff0000;stroke:#ff0000;" x="184.544416" xlink:href="#m9db2f70cb1" y="269.672429"/>
     <use style="fill:#ff0000;stroke:#ff0000;" x="186.040519" xlink:href="#m9db2f70cb1" y="264.346676"/>
     <use style="fill:#ff0000;stroke:#ff0000;" x="187.536623" xlink:href="#m9db2f70cb1" y="265.351298"/>
     <use style="fill:#ff0000;stroke:#ff0000;" x="189.032727" xlink:href="#m9db2f70cb1" y="264.375097"/>
     <use style="fill:#ff0000;stroke:#ff0000;" x="190.528831" xlink:href="#m9db2f70cb1" y="277.216907"/>
     <use style="fill:#ff0000;stroke:#ff0000;" x="192.024935" xlink:href="#m9db2f70cb1" y="271.366811"/>
     <use style="fill:#ff0000;stroke:#ff0000;" x="193.521039" xlink:href="#m9db2f70cb1" y="273.365968"/>
     <use style="fill:#ff0000;stroke:#ff0000;" x="195.017143" xlink:href="#m9db2f70cb1" y="268.663915"/>
     <use style="fill:#ff0000;stroke:#ff0000;" x="196.513247" xlink:href="#m9db2f70cb1" y="268.07274"/>
     <use style="fill:#ff0000;stroke:#ff0000;" x="198.009351" xlink:href="#m9db2f70cb1" y="273.388404"/>
     <use style="fill:#ff0000;stroke:#ff0000;" x="199.505455" xlink:href="#m9db2f70cb1" y="275.403998"/>
     <use style="fill:#ff0000;stroke:#ff0000;" x="201.001558" xlink:href="#m9db2f70cb1" y="274.605118"/>
     <use style="fill:#ff0000;stroke:#ff0000;" x="202.497662" xlink:href="#m9db2f70cb1" y="279.478645"/>
     <use style="fill:#ff0000;stroke:#ff0000;" x="203.993766" xlink:href="#m9db2f70cb1" y="282.931823"/>
     <use style="fill:#ff0000;stroke:#ff0000;" x="205.48987" xlink:href="#m9db2f70cb1" y="278.811447"/>
     <use style="fill:#ff0000;stroke:#ff0000;" x="206.985974" xlink:href="#m9db2f70cb1" y="285.874481"/>
     <use style="fill:#ff0000;stroke:#ff0000;" x="208.482078" xlink:href="#m9db2f70cb1" y="285.202386"/>
     <use style="fill:#ff0000;stroke:#ff0000;" x="209.978182" xlink:href="#m9db2f70cb1" y="279.071606"/>
     <use style="fill:#ff0000;stroke:#ff0000;" x="211.474286" xlink:href="#m9db2f70cb1" y="286.119306"/>
     <use style="fill:#ff0000;stroke:#ff0000;" x="212.97039" xlink:href="#m9db2f70cb1" y="277.615951"/>
     <use style="fill:#ff0000;stroke:#ff0000;" x="214.466494" xlink:href="#m9db2f70cb1" y="280.13573"/>
     <use style="fill:#ff0000;stroke:#ff0000;" x="215.962597" xlink:href="#m9db2f70cb1" y="279.413068"/>
     <use style="fill:#ff0000;stroke:#ff0000;" x="217.458701" xlink:href="#m9db2f70cb1" y="281.985969"/>
     <use style="fill:#ff0000;stroke:#ff0000;" x="218.954805" xlink:href="#m9db2f70cb1" y="282.844198"/>
     <use style="fill:#ff0000;stroke:#ff0000;" x="220.450909" xlink:href="#m9db2f70cb1" y="286.334691"/>
     <use style="fill:#ff0000;stroke:#ff0000;" x="221.947013" xlink:href="#m9db2f70cb1" y="287.510136"/>
     <use style="fill:#ff0000;stroke:#ff0000;" x="223.443117" xlink:href="#m9db2f70cb1" y="282.256913"/>
     <use style="fill:#ff0000;stroke:#ff0000;" x="224.939221" xlink:href="#m9db2f70cb1" y="290.983775"/>
     <use style="fill:#ff0000;stroke:#ff0000;" x="226.435325" xlink:href="#m9db2f70cb1" y="291.369595"/>
     <use style="fill:#ff0000;stroke:#ff0000;" x="227.931429" xlink:href="#m9db2f70cb1" y="290.863275"/>
     <use style="fill:#ff0000;stroke:#ff0000;" x="229.427532" xlink:href="#m9db2f70cb1" y="291.990711"/>
     <use style="fill:#ff0000;stroke:#ff0000;" x="230.923636" xlink:href="#m9db2f70cb1" y="292.190629"/>
     <use style="fill:#ff0000;stroke:#ff0000;" x="232.41974" xlink:href="#m9db2f70cb1" y="285.739535"/>
     <use style="fill:#ff0000;stroke:#ff0000;" x="233.915844" xlink:href="#m9db2f70cb1" y="293.862905"/>
     <use style="fill:#ff0000;stroke:#ff0000;" x="235.411948" xlink:href="#m9db2f70cb1" y="291.321858"/>
     <use style="fill:#ff0000;stroke:#ff0000;" x="236.908052" xlink:href="#m9db2f70cb1" y="287.084302"/>
     <use style="fill:#ff0000;stroke:#ff0000;" x="238.404156" xlink:href="#m9db2f70cb1" y="294.335201"/>
     <use style="fill:#ff0000;stroke:#ff0000;" x="239.90026" xlink:href="#m9db2f70cb1" y="295.488"/>
     <use style="fill:#ff0000;stroke:#ff0000;" x="241.396364" xlink:href="#m9db2f70cb1" y="293.325809"/>
     <use style="fill:#ff0000;stroke:#ff0000;" x="242.892468" xlink:href="#m9db2f70cb1" y="290.594468"/>
     <use style="fill:#ff0000;stroke:#ff0000;" x="244.388571" xlink:href="#m9db2f70cb1" y="286.947278"/>
     <use style="fill:#ff0000;stroke:#ff0000;" x="245.884675" xlink:href="#m9db2f70cb1" y="293.99035"/>
     <use style="fill:#ff0000;stroke:#ff0000;" x="247.380779" xlink:href="#m9db2f70cb1" y="294.388754"/>
     <use style="fill:#ff0000;stroke:#ff0000;" x="248.876883" xlink:href="#m9db2f70cb1" y="287.976654"/>
     <use style="fill:#ff0000;stroke:#ff0000;" x="250.372987" xlink:href="#m9db2f70cb1" y="293.972397"/>
     <use style="fill:#ff0000;stroke:#ff0000;" x="251.869091" xlink:href="#m9db2f70cb1" y="289.982996"/>
     <use style="fill:#ff0000;stroke:#ff0000;" x="253.365195" xlink:href="#m9db2f70cb1" y="286.962421"/>
     <use style="fill:#ff0000;stroke:#ff0000;" x="254.861299" xlink:href="#m9db2f70cb1" y="290.361601"/>
     <use style="fill:#ff0000;stroke:#ff0000;" x="256.357403" xlink:href="#m9db2f70cb1" y="295.158917"/>
     <use style="fill:#ff0000;stroke:#ff0000;" x="257.853506" xlink:href="#m9db2f70cb1" y="293.67323"/>
     <use style="fill:#ff0000;stroke:#ff0000;" x="259.34961" xlink:href="#m9db2f70cb1" y="290.374575"/>
     <use style="fill:#ff0000;stroke:#ff0000;" x="260.845714" xlink:href="#m9db2f70cb1" y="294.81159"/>
     <use style="fill:#ff0000;stroke:#ff0000;" x="262.341818" xlink:href="#m9db2f70cb1" y="284.347405"/>
     <use style="fill:#ff0000;stroke:#ff0000;" x="263.837922" xlink:href="#m9db2f70cb1" y="292.744095"/>
     <use style="fill:#ff0000;stroke:#ff0000;" x="265.334026" xlink:href="#m9db2f70cb1" y="292.577844"/>
     <use style="fill:#ff0000;stroke:#ff0000;" x="266.83013" xlink:href="#m9db2f70cb1" y="292.564394"/>
     <use style="fill:#ff0000;stroke:#ff0000;" x="268.326234" xlink:href="#m9db2f70cb1" y="285.588093"/>
     <use style="fill:#ff0000;stroke:#ff0000;" x="269.822338" xlink:href="#m9db2f70cb1" y="287.282477"/>
     <use style="fill:#ff0000;stroke:#ff0000;" x="271.318442" xlink:href="#m9db2f70cb1" y="292.92239"/>
     <use style="fill:#ff0000;stroke:#ff0000;" x="272.814545" xlink:href="#m9db2f70cb1" y="283.049194"/>
     <use style="fill:#ff0000;stroke:#ff0000;" x="274.310649" xlink:href="#m9db2f70cb1" y="281.847183"/>
     <use style="fill:#ff0000;stroke:#ff0000;" x="275.806753" xlink:href="#m9db2f70cb1" y="282.898663"/>
     <use style="fill:#ff0000;stroke:#ff0000;" x="277.302857" xlink:href="#m9db2f70cb1" y="288.30586"/>
     <use style="fill:#ff0000;stroke:#ff0000;" x="278.798961" xlink:href="#m9db2f70cb1" y="286.781872"/>
     <use style="fill:#ff0000;stroke:#ff0000;" x="280.295065" xlink:href="#m9db2f70cb1" y="289.675274"/>
     <use style="fill:#ff0000;stroke:#ff0000;" x="281.791169" xlink:href="#m9db2f70cb1" y="281.941347"/>
     <use style="fill:#ff0000;stroke:#ff0000;" x="283.287273" xlink:href="#m9db2f70cb1" y="282.119332"/>
     <use style="fill:#ff0000;stroke:#ff0000;" x="284.783377" xlink:href="#m9db2f70cb1" y="275.813808"/>
     <use style="fill:#ff0000;stroke:#ff0000;" x="286.279481" xlink:href="#m9db2f70cb1" y="281.651616"/>
     <use style="fill:#ff0000;stroke:#ff0000;" x="287.775584" xlink:href="#m9db2f70cb1" y="278.831368"/>
     <use style="fill:#ff0000;stroke:#ff0000;" x="289.271688" xlink:href="#m9db2f70cb1" y="275.683211"/>
     <use style="fill:#ff0000;stroke:#ff0000;" x="290.767792" xlink:href="#m9db2f70cb1" y="280.936472"/>
     <use style="fill:#ff0000;stroke:#ff0000;" x="292.263896" xlink:href="#m9db2f70cb1" y="282.042313"/>
     <use style="fill:#ff0000;stroke:#ff0000;" x="293.76" xlink:href="#m9db2f70cb1" y="279.146054"/>
     <use style="fill:#ff0000;stroke:#ff0000;" x="295.256104" xlink:href="#m9db2f70cb1" y="275.224285"/>
     <use style="fill:#ff0000;stroke:#ff0000;" x="296.752208" xlink:href="#m9db2f70cb1" y="274.801763"/>
     <use style="fill:#ff0000;stroke:#ff0000;" x="298.248312" xlink:href="#m9db2f70cb1" y="273.763026"/>
     <use style="fill:#ff0000;stroke:#ff0000;" x="299.744416" xlink:href="#m9db2f70cb1" y="268.432997"/>
     <use style="fill:#ff0000;stroke:#ff0000;" x="301.240519" xlink:href="#m9db2f70cb1" y="268.337634"/>
     <use style="fill:#ff0000;stroke:#ff0000;" x="302.736623" xlink:href="#m9db2f70cb1" y="273.555586"/>
     <use style="fill:#ff0000;stroke:#ff0000;" x="304.232727" xlink:href="#m9db2f70cb1" y="262.993355"/>
     <use style="fill:#ff0000;stroke:#ff0000;" x="305.728831" xlink:href="#m9db2f70cb1" y="269.280187"/>
     <use style="fill:#ff0000;stroke:#ff0000;" x="307.224935" xlink:href="#m9db2f70cb1" y="272.299425"/>
     <use style="fill:#ff0000;stroke:#ff0000;" x="308.721039" xlink:href="#m9db2f70cb1" y="267.498276"/>
     <use style="fill:#ff0000;stroke:#ff0000;" x="310.217143" xlink:href="#m9db2f70cb1" y="256.509257"/>
     <use style="fill:#ff0000;stroke:#ff0000;" x="311.713247" xlink:href="#m9db2f70cb1" y="255.472509"/>
     <use style="fill:#ff0000;stroke:#ff0000;" x="313.209351" xlink:href="#m9db2f70cb1" y="267.772382"/>
     <use style="fill:#ff0000;stroke:#ff0000;" x="314.705455" xlink:href="#m9db2f70cb1" y="261.801152"/>
     <use style="fill:#ff0000;stroke:#ff0000;" x="316.201558" xlink:href="#m9db2f70cb1" y="257.99075"/>
     <use style="fill:#ff0000;stroke:#ff0000;" x="317.697662" xlink:href="#m9db2f70cb1" y="260.011921"/>
     <use style="fill:#ff0000;stroke:#ff0000;" x="319.193766" xlink:href="#m9db2f70cb1" y="255.665235"/>
     <use style="fill:#ff0000;stroke:#ff0000;" x="320.68987" xlink:href="#m9db2f70cb1" y="244.018291"/>
     <use style="fill:#ff0000;stroke:#ff0000;" x="322.185974" xlink:href="#m9db2f70cb1" y="244.800062"/>
     <use style="fill:#ff0000;stroke:#ff0000;" x="323.682078" xlink:href="#m9db2f70cb1" y="254.233412"/>
     <use style="fill:#ff0000;stroke:#ff0000;" x="325.178182" xlink:href="#m9db2f70cb1" y="258.013906"/>
     <use style="fill:#ff0000;stroke:#ff0000;" x="326.674286" xlink:href="#m9db2f70cb1" y="245.67806"/>
     <use style="fill:#ff0000;stroke:#ff0000;" x="328.17039" xlink:href="#m9db2f70cb1" y="250.708852"/>
     <use style="fill:#ff0000;stroke:#ff0000;" x="329.666494" xlink:href="#m9db2f70cb1" y="249.021913"/>
     <use style="fill:#ff0000;stroke:#ff0000;" x="331.162597" xlink:href="#m9db2f70cb1" y="249.564818"/>
     <use style="fill:#ff0000;stroke:#ff0000;" x="332.658701" xlink:href="#m9db2f70cb1" y="247.892847"/>
     <use style="fill:#ff0000;stroke:#ff0000;" x="334.154805" xlink:href="#m9db2f70cb1" y="250.813083"/>
     <use style="fill:#ff0000;stroke:#ff0000;" x="335.650909" xlink:href="#m9db2f70cb1" y="231.648203"/>
     <use style="fill:#ff0000;stroke:#ff0000;" x="337.147013" xlink:href="#m9db2f70cb1" y="243.417483"/>
     <use style="fill:#ff0000;stroke:#ff0000;" x="338.643117" xlink:href="#m9db2f70cb1" y="229.626952"/>
     <use style="fill:#ff0000;stroke:#ff0000;" x="340.139221" xlink:href="#m9db2f70cb1" y="232.121347"/>
     <use style="fill:#ff0000;stroke:#ff0000;" x="341.635325" xlink:href="#m9db2f70cb1" y="220.823642"/>
     <use style="fill:#ff0000;stroke:#ff0000;" x="343.131429" xlink:href="#m9db2f70cb1" y="225.021459"/>
     <use style="fill:#ff0000;stroke:#ff0000;" x="344.627532" xlink:href="#m9db2f70cb1" y="215.295119"/>
     <use style="fill:#ff0000;stroke:#ff0000;" x="346.123636" xlink:href="#m9db2f70cb1" y="229.402107"/>
     <use style="fill:#ff0000;stroke:#ff0000;" x="347.61974" xlink:href="#m9db2f70cb1" y="205.482394"/>
     <use style="fill:#ff0000;stroke:#ff0000;" x="349.115844" xlink:href="#m9db2f70cb1" y="204.806229"/>
     <use style="fill:#ff0000;stroke:#ff0000;" x="350.611948" xlink:href="#m9db2f70cb1" y="224.222898"/>
     <use style="fill:#ff0000;stroke:#ff0000;" x="352.108052" xlink:href="#m9db2f70cb1" y="206.733998"/>
     <use style="fill:#ff0000;stroke:#ff0000;" x="353.604156" xlink:href="#m9db2f70cb1" y="229.432974"/>
     <use style="fill:#ff0000;stroke:#ff0000;" x="355.10026" xlink:href="#m9db2f70cb1" y="222.578115"/>
     <use style="fill:#ff0000;stroke:#ff0000;" x="356.596364" xlink:href="#m9db2f70cb1" y="194.991756"/>
     <use style="fill:#ff0000;stroke:#ff0000;" x="358.092468" xlink:href="#m9db2f70cb1" y="218.359337"/>
     <use style="fill:#ff0000;stroke:#ff0000;" x="359.588571" xlink:href="#m9db2f70cb1" y="204.111243"/>
     <use style="fill:#ff0000;stroke:#ff0000;" x="361.084675" xlink:href="#m9db2f70cb1" y="214.080621"/>
     <use style="fill:#ff0000;stroke:#ff0000;" x="362.580779" xlink:href="#m9db2f70cb1" y="193.290413"/>
     <use style="fill:#ff0000;stroke:#ff0000;" x="364.076883" xlink:href="#m9db2f70cb1" y="206.530549"/>
     <use style="fill:#ff0000;stroke:#ff0000;" x="365.572987" xlink:href="#m9db2f70cb1" y="188.025981"/>
     <use style="fill:#ff0000;stroke:#ff0000;" x="367.069091" xlink:href="#m9db2f70cb1" y="200.478693"/>
     <use style="fill:#ff0000;stroke:#ff0000;" x="368.565195" xlink:href="#m9db2f70cb1" y="207.67426"/>
     <use style="fill:#ff0000;stroke:#ff0000;" x="370.061299" xlink:href="#m9db2f70cb1" y="200.090698"/>
     <use style="fill:#ff0000;stroke:#ff0000;" x="371.557403" xlink:href="#m9db2f70cb1" y="182.933156"/>
     <use style="fill:#ff0000;stroke:#ff0000;" x="373.053506" xlink:href="#m9db2f70cb1" y="183.761615"/>
     <use style="fill:#ff0000;stroke:#ff0000;" x="374.54961" xlink:href="#m9db2f70cb1" y="168.876239"/>
     <use style="fill:#ff0000;stroke:#ff0000;" x="376.045714" xlink:href="#m9db2f70cb1" y="195.851103"/>
     <use style="fill:#ff0000;stroke:#ff0000;" x="377.541818" xlink:href="#m9db2f70cb1" y="161.188719"/>
     <use style="fill:#ff0000;stroke:#ff0000;" x="379.037922" xlink:href="#m9db2f70cb1" y="163.85341"/>
     <use style="fill:#ff0000;stroke:#ff0000;" x="380.534026" xlink:href="#m9db2f70cb1" y="177.44625"/>
     <use style="fill:#ff0000;stroke:#ff0000;" x="382.03013" xlink:href="#m9db2f70cb1" y="185.654575"/>
     <use style="fill:#ff0000;stroke:#ff0000;" x="383.526234" xlink:href="#m9db2f70cb1" y="145.758617"/>
     <use style="fill:#ff0000;stroke:#ff0000;" x="385.022338" xlink:href="#m9db2f70cb1" y="129.250135"/>
     <use style="fill:#ff0000;stroke:#ff0000;" x="386.518442" xlink:href="#m9db2f70cb1" y="151.791161"/>
     <use style="fill:#ff0000;stroke:#ff0000;" x="388.014545" xlink:href="#m9db2f70cb1" y="159.431657"/>
     <use style="fill:#ff0000;stroke:#ff0000;" x="389.510649" xlink:href="#m9db2f70cb1" y="152.826688"/>
     <use style="fill:#ff0000;stroke:#ff0000;" x="391.006753" xlink:href="#m9db2f70cb1" y="151.190834"/>
     <use style="fill:#ff0000;stroke:#ff0000;" x="392.502857" xlink:href="#m9db2f70cb1" y="118.56538"/>
     <use style="fill:#ff0000;stroke:#ff0000;" x="393.998961" xlink:href="#m9db2f70cb1" y="116.539835"/>
     <use style="fill:#ff0000;stroke:#ff0000;" x="395.495065" xlink:href="#m9db2f70cb1" y="101.096866"/>
     <use style="fill:#ff0000;stroke:#ff0000;" x="396.991169" xlink:href="#m9db2f70cb1" y="153.776012"/>
     <use style="fill:#ff0000;stroke:#ff0000;" x="398.487273" xlink:href="#m9db2f70cb1" y="138.879705"/>
    </g>
   </g>
   <g id="line2d_13">
    <path clip-path="url(#p0aab38c53b)" d="M 73.832727 81.996997 
L 79.817143 96.2629 
L 85.801558 110.026879 
L 91.785974 123.288936 
L 97.77039 136.049069 
L 103.754805 148.307279 
L 109.739221 160.063567 
L 115.723636 171.317931 
L 121.708052 182.070373 
L 127.692468 192.320891 
L 133.676883 202.069486 
L 139.661299 211.316159 
L 145.645714 220.060908 
L 151.63013 228.303734 
L 156.118442 234.156467 
L 160.606753 239.726868 
L 165.095065 245.014938 
L 169.583377 250.020675 
L 174.071688 254.744081 
L 178.56 259.185156 
L 183.048312 263.343898 
L 187.536623 267.220309 
L 192.024935 270.814389 
L 196.513247 274.126136 
L 201.001558 277.155552 
L 205.48987 279.902636 
L 209.978182 282.367389 
L 214.466494 284.54981 
L 218.954805 286.449899 
L 223.443117 288.067656 
L 227.931429 289.403082 
L 232.41974 290.456176 
L 236.908052 291.226938 
L 241.396364 291.715369 
L 245.884675 291.921468 
L 250.372987 291.845235 
L 254.861299 291.486671 
L 259.34961 290.845774 
L 263.837922 289.922547 
L 268.326234 288.716987 
L 272.814545 287.229096 
L 277.302857 285.458873 
L 281.791169 283.406318 
L 286.279481 281.071432 
L 290.767792 278.454214 
L 295.256104 275.554665 
L 299.744416 272.372783 
L 304.232727 268.90857 
L 308.721039 265.162025 
L 313.209351 261.133149 
L 317.697662 256.821941 
L 322.185974 252.228401 
L 326.674286 247.35253 
L 331.162597 242.194326 
L 335.650909 236.753792 
L 340.139221 231.030925 
L 344.627532 225.025727 
L 350.611948 216.579613 
L 356.596364 207.631577 
L 362.580779 198.181617 
L 368.565195 188.229734 
L 374.54961 177.775929 
L 380.534026 166.8202 
L 386.518442 155.362548 
L 392.502857 143.402973 
L 398.487273 130.941476 
L 398.487273 130.941476 
" style="fill:none;stroke:#008000;stroke-linecap:square;stroke-width:1.5;"/>
   </g>
   <g id="patch_3">
    <path d="M 57.6 307.584 
L 57.6 41.472 
" style="fill:none;stroke:#000000;stroke-linecap:square;stroke-linejoin:miter;stroke-width:0.8;"/>
   </g>
   <g id="patch_4">
    <path d="M 414.72 307.584 
L 414.72 41.472 
" style="fill:none;stroke:#000000;stroke-linecap:square;stroke-linejoin:miter;stroke-width:0.8;"/>
   </g>
   <g id="patch_5">
    <path d="M 57.6 307.584 
L 414.72 307.584 
" style="fill:none;stroke:#000000;stroke-linecap:square;stroke-linejoin:miter;stroke-width:0.8;"/>
   </g>
   <g id="patch_6">
    <path d="M 57.6 41.472 
L 414.72 41.472 
" style="fill:none;stroke:#000000;stroke-linecap:square;stroke-linejoin:miter;stroke-width:0.8;"/>
   </g>
   <g id="text_14">
    <!-- FunctionFitting 06 -->
    <defs>
     <path d="M 9.8125 72.90625 
L 51.703125 72.90625 
L 51.703125 64.59375 
L 19.671875 64.59375 
L 19.671875 43.109375 
L 48.578125 43.109375 
L 48.578125 34.8125 
L 19.671875 34.8125 
L 19.671875 0 
L 9.8125 0 
z
" id="DejaVuSans-70"/>
     <path d="M 54.890625 33.015625 
L 54.890625 0 
L 45.90625 0 
L 45.90625 32.71875 
Q 45.90625 40.484375 42.875 44.328125 
Q 39.84375 48.1875 33.796875 48.1875 
Q 26.515625 48.1875 22.3125 43.546875 
Q 18.109375 38.921875 18.109375 30.90625 
L 18.109375 0 
L 9.078125 0 
L 9.078125 54.6875 
L 18.109375 54.6875 
L 18.109375 46.1875 
Q 21.34375 51.125 25.703125 53.5625 
Q 30.078125 56 35.796875 56 
Q 45.21875 56 50.046875 50.171875 
Q 54.890625 44.34375 54.890625 33.015625 
z
" id="DejaVuSans-110"/>
     <path d="M 48.78125 52.59375 
L 48.78125 44.1875 
Q 44.96875 46.296875 41.140625 47.34375 
Q 37.3125 48.390625 33.40625 48.390625 
Q 24.65625 48.390625 19.8125 42.84375 
Q 14.984375 37.3125 14.984375 27.296875 
Q 14.984375 17.28125 19.8125 11.734375 
Q 24.65625 6.203125 33.40625 6.203125 
Q 37.3125 6.203125 41.140625 7.25 
Q 44.96875 8.296875 48.78125 10.40625 
L 48.78125 2.09375 
Q 45.015625 0.34375 40.984375 -0.53125 
Q 36.96875 -1.421875 32.421875 -1.421875 
Q 20.0625 -1.421875 12.78125 6.34375 
Q 5.515625 14.109375 5.515625 27.296875 
Q 5.515625 40.671875 12.859375 48.328125 
Q 20.21875 56 33.015625 56 
Q 37.15625 56 41.109375 55.140625 
Q 45.0625 54.296875 48.78125 52.59375 
z
" id="DejaVuSans-99"/>
     <path d="M 18.3125 70.21875 
L 18.3125 54.6875 
L 36.8125 54.6875 
L 36.8125 47.703125 
L 18.3125 47.703125 
L 18.3125 18.015625 
Q 18.3125 11.328125 20.140625 9.421875 
Q 21.96875 7.515625 27.59375 7.515625 
L 36.8125 7.515625 
L 36.8125 0 
L 27.59375 0 
Q 17.1875 0 13.234375 3.875 
Q 9.28125 7.765625 9.28125 18.015625 
L 9.28125 47.703125 
L 2.6875 47.703125 
L 2.6875 54.6875 
L 9.28125 54.6875 
L 9.28125 70.21875 
z
" id="DejaVuSans-116"/>
     <path d="M 9.421875 54.6875 
L 18.40625 54.6875 
L 18.40625 0 
L 9.421875 0 
z
M 9.421875 75.984375 
L 18.40625 75.984375 
L 18.40625 64.59375 
L 9.421875 64.59375 
z
" id="DejaVuSans-105"/>
     <path d="M 30.609375 48.390625 
Q 23.390625 48.390625 19.1875 42.75 
Q 14.984375 37.109375 14.984375 27.296875 
Q 14.984375 17.484375 19.15625 11.84375 
Q 23.34375 6.203125 30.609375 6.203125 
Q 37.796875 6.203125 41.984375 11.859375 
Q 46.1875 17.53125 46.1875 27.296875 
Q 46.1875 37.015625 41.984375 42.703125 
Q 37.796875 48.390625 30.609375 48.390625 
z
M 30.609375 56 
Q 42.328125 56 49.015625 48.375 
Q 55.71875 40.765625 55.71875 27.296875 
Q 55.71875 13.875 49.015625 6.21875 
Q 42.328125 -1.421875 30.609375 -1.421875 
Q 18.84375 -1.421875 12.171875 6.21875 
Q 5.515625 13.875 5.515625 27.296875 
Q 5.515625 40.765625 12.171875 48.375 
Q 18.84375 56 30.609375 56 
z
" id="DejaVuSans-111"/>
     <path d="M 45.40625 27.984375 
Q 45.40625 37.75 41.375 43.109375 
Q 37.359375 48.484375 30.078125 48.484375 
Q 22.859375 48.484375 18.828125 43.109375 
Q 14.796875 37.75 14.796875 27.984375 
Q 14.796875 18.265625 18.828125 12.890625 
Q 22.859375 7.515625 30.078125 7.515625 
Q 37.359375 7.515625 41.375 12.890625 
Q 45.40625 18.265625 45.40625 27.984375 
z
M 54.390625 6.78125 
Q 54.390625 -7.171875 48.1875 -13.984375 
Q 42 -20.796875 29.203125 -20.796875 
Q 24.46875 -20.796875 20.265625 -20.09375 
Q 16.0625 -19.390625 12.109375 -17.921875 
L 12.109375 -9.1875 
Q 16.0625 -11.328125 19.921875 -12.34375 
Q 23.78125 -13.375 27.78125 -13.375 
Q 36.625 -13.375 41.015625 -8.765625 
Q 45.40625 -4.15625 45.40625 5.171875 
L 45.40625 9.625 
Q 42.625 4.78125 38.28125 2.390625 
Q 33.9375 0 27.875 0 
Q 17.828125 0 11.671875 7.65625 
Q 5.515625 15.328125 5.515625 27.984375 
Q 5.515625 40.671875 11.671875 48.328125 
Q 17.828125 56 27.875 56 
Q 33.9375 56 38.28125 53.609375 
Q 42.625 51.21875 45.40625 46.390625 
L 45.40625 54.6875 
L 54.390625 54.6875 
z
" id="DejaVuSans-103"/>
    </defs>
    <g transform="translate(181.680937 35.472)scale(0.12 -0.12)">
     <use xlink:href="#DejaVuSans-70"/>
     <use x="57.441406" xlink:href="#DejaVuSans-117"/>
     <use x="120.820312" xlink:href="#DejaVuSans-110"/>
     <use x="184.199219" xlink:href="#DejaVuSans-99"/>
     <use x="239.179688" xlink:href="#DejaVuSans-116"/>
     <use x="278.388672" xlink:href="#DejaVuSans-105"/>
     <use x="306.171875" xlink:href="#DejaVuSans-111"/>
     <use x="367.353516" xlink:href="#DejaVuSans-110"/>
     <use x="430.732422" xlink:href="#DejaVuSans-70"/>
     <use x="488.142578" xlink:href="#DejaVuSans-105"/>
     <use x="515.925781" xlink:href="#DejaVuSans-116"/>
     <use x="555.134766" xlink:href="#DejaVuSans-116"/>
     <use x="594.34375" xlink:href="#DejaVuSans-105"/>
     <use x="622.126953" xlink:href="#DejaVuSans-110"/>
     <use x="685.505859" xlink:href="#DejaVuSans-103"/>
     <use x="748.982422" xlink:href="#DejaVuSans-32"/>
     <use x="780.769531" xlink:href="#DejaVuSans-48"/>
     <use x="844.392578" xlink:href="#DejaVuSans-54"/>
    </g>
   </g>
   <g id="legend_1">
    <g id="patch_7">
     <path d="M 299.83875 78.82825 
L 407.72 78.82825 
Q 409.72 78.82825 409.72 76.82825 
L 409.72 48.472 
Q 409.72 46.472 407.72 46.472 
L 299.83875 46.472 
Q 297.83875 46.472 297.83875 48.472 
L 297.83875 76.82825 
Q 297.83875 78.82825 299.83875 78.82825 
z
" style="fill:#ffffff;opacity:0.8;stroke:#cccccc;stroke-linejoin:miter;"/>
    </g>
    <g id="line2d_14"/>
    <g id="line2d_15">
     <g>
      <use style="fill:#ff0000;stroke:#ff0000;" x="311.83875" xlink:href="#m9db2f70cb1" y="54.570437"/>
     </g>
    </g>
    <g id="text_15">
     <!-- measured data -->
     <defs>
      <path d="M 52 44.1875 
Q 55.375 50.25 60.0625 53.125 
Q 64.75 56 71.09375 56 
Q 79.640625 56 84.28125 50.015625 
Q 88.921875 44.046875 88.921875 33.015625 
L 88.921875 0 
L 79.890625 0 
L 79.890625 32.71875 
Q 79.890625 40.578125 77.09375 44.375 
Q 74.3125 48.1875 68.609375 48.1875 
Q 61.625 48.1875 57.5625 43.546875 
Q 53.515625 38.921875 53.515625 30.90625 
L 53.515625 0 
L 44.484375 0 
L 44.484375 32.71875 
Q 44.484375 40.625 41.703125 44.40625 
Q 38.921875 48.1875 33.109375 48.1875 
Q 26.21875 48.1875 22.15625 43.53125 
Q 18.109375 38.875 18.109375 30.90625 
L 18.109375 0 
L 9.078125 0 
L 9.078125 54.6875 
L 18.109375 54.6875 
L 18.109375 46.1875 
Q 21.1875 51.21875 25.484375 53.609375 
Q 29.78125 56 35.6875 56 
Q 41.65625 56 45.828125 52.96875 
Q 50 49.953125 52 44.1875 
z
" id="DejaVuSans-109"/>
      <path d="M 41.109375 46.296875 
Q 39.59375 47.171875 37.8125 47.578125 
Q 36.03125 48 33.890625 48 
Q 26.265625 48 22.1875 43.046875 
Q 18.109375 38.09375 18.109375 28.8125 
L 18.109375 0 
L 9.078125 0 
L 9.078125 54.6875 
L 18.109375 54.6875 
L 18.109375 46.1875 
Q 20.953125 51.171875 25.484375 53.578125 
Q 30.03125 56 36.53125 56 
Q 37.453125 56 38.578125 55.875 
Q 39.703125 55.765625 41.0625 55.515625 
z
" id="DejaVuSans-114"/>
      <path d="M 45.40625 46.390625 
L 45.40625 75.984375 
L 54.390625 75.984375 
L 54.390625 0 
L 45.40625 0 
L 45.40625 8.203125 
Q 42.578125 3.328125 38.25 0.953125 
Q 33.9375 -1.421875 27.875 -1.421875 
Q 17.96875 -1.421875 11.734375 6.484375 
Q 5.515625 14.40625 5.515625 27.296875 
Q 5.515625 40.1875 11.734375 48.09375 
Q 17.96875 56 27.875 56 
Q 33.9375 56 38.25 53.625 
Q 42.578125 51.265625 45.40625 46.390625 
z
M 14.796875 27.296875 
Q 14.796875 17.390625 18.875 11.75 
Q 22.953125 6.109375 30.078125 6.109375 
Q 37.203125 6.109375 41.296875 11.75 
Q 45.40625 17.390625 45.40625 27.296875 
Q 45.40625 37.203125 41.296875 42.84375 
Q 37.203125 48.484375 30.078125 48.484375 
Q 22.953125 48.484375 18.875 42.84375 
Q 14.796875 37.203125 14.796875 27.296875 
z
" id="DejaVuSans-100"/>
     </defs>
     <g transform="translate(329.83875 58.070437)scale(0.1 -0.1)">
      <use xlink:href="#DejaVuSans-109"/>
      <use x="97.412109" xlink:href="#DejaVuSans-101"/>
      <use x="158.935547" xlink:href="#DejaVuSans-97"/>
      <use x="220.214844" xlink:href="#DejaVuSans-115"/>
      <use x="272.314453" xlink:href="#DejaVuSans-117"/>
      <use x="335.693359" xlink:href="#DejaVuSans-114"/>
      <use x="376.775391" xlink:href="#DejaVuSans-101"/>
      <use x="438.298828" xlink:href="#DejaVuSans-100"/>
      <use x="501.775391" xlink:href="#DejaVuSans-32"/>
      <use x="533.5625" xlink:href="#DejaVuSans-100"/>
      <use x="597.039062" xlink:href="#DejaVuSans-97"/>
      <use x="658.318359" xlink:href="#DejaVuSans-116"/>
      <use x="697.527344" xlink:href="#DejaVuSans-97"/>
     </g>
    </g>
    <g id="line2d_16">
     <path d="M 301.83875 69.248562 
L 321.83875 69.248562 
" style="fill:none;stroke:#008000;stroke-linecap:square;stroke-width:1.5;"/>
    </g>
    <g id="line2d_17"/>
    <g id="text_16">
     <!-- linear data -->
     <g transform="translate(329.83875 72.748562)scale(0.1 -0.1)">
      <use xlink:href="#DejaVuSans-108"/>
      <use x="27.783203" xlink:href="#DejaVuSans-105"/>
      <use x="55.566406" xlink:href="#DejaVuSans-110"/>
      <use x="118.945312" xlink:href="#DejaVuSans-101"/>
      <use x="180.46875" xlink:href="#DejaVuSans-97"/>
      <use x="241.748047" xlink:href="#DejaVuSans-114"/>
      <use x="282.861328" xlink:href="#DejaVuSans-32"/>
      <use x="314.648438" xlink:href="#DejaVuSans-100"/>
      <use x="378.125" xlink:href="#DejaVuSans-97"/>
      <use x="439.404297" xlink:href="#DejaVuSans-116"/>
      <use x="478.613281" xlink:href="#DejaVuSans-97"/>
     </g>
    </g>
   </g>
  </g>
 </g>
 <defs>
  <clipPath id="p0aab38c53b">
   <rect height="266.112" width="357.12" x="57.6" y="41.472"/>
  </clipPath>
 </defs>
</svg>
