<?xml version="1.0" encoding="utf-8" standalone="no"?>
<!DOCTYPE svg PUBLIC "-//W3C//DTD SVG 1.1//EN"
  "http://www.w3.org/Graphics/SVG/1.1/DTD/svg11.dtd">
<!-- Created with matplotlib (https://matplotlib.org/) -->
<svg height="345.6pt" version="1.1" viewBox="0 0 460.8 345.6" width="460.8pt" xmlns="http://www.w3.org/2000/svg" xmlns:xlink="http://www.w3.org/1999/xlink">
 <defs>
  <style type="text/css">
*{stroke-linecap:butt;stroke-linejoin:round;}
  </style>
 </defs>
 <g id="figure_1">
  <g id="patch_1">
   <path d="M 0 345.6 
L 460.8 345.6 
L 460.8 0 
L 0 0 
z
" style="fill:#ffffff;"/>
  </g>
  <g id="axes_1">
   <g id="patch_2">
    <path d="M 57.6 307.584 
L 414.72 307.584 
L 414.72 41.472 
L 57.6 41.472 
z
" style="fill:#ffffff;"/>
   </g>
   <g id="matplotlib.axis_1">
    <g id="xtick_1">
     <g id="line2d_1">
      <defs>
       <path d="M 0 0 
L 0 3.5 
" id="mcd8e181f00" style="stroke:#000000;stroke-width:0.8;"/>
      </defs>
      <g>
       <use style="stroke:#000000;stroke-width:0.8;" x="59.668694" xlink:href="#mcd8e181f00" y="307.584"/>
      </g>
     </g>
     <g id="text_1">
      <!-- 0 -->
      <defs>
       <path d="M 31.78125 66.40625 
Q 24.171875 66.40625 20.328125 58.90625 
Q 16.5 51.421875 16.5 36.375 
Q 16.5 21.390625 20.328125 13.890625 
Q 24.171875 6.390625 31.78125 6.390625 
Q 39.453125 6.390625 43.28125 13.890625 
Q 47.125 21.390625 47.125 36.375 
Q 47.125 51.421875 43.28125 58.90625 
Q 39.453125 66.40625 31.78125 66.40625 
z
M 31.78125 74.21875 
Q 44.046875 74.21875 50.515625 64.515625 
Q 56.984375 54.828125 56.984375 36.375 
Q 56.984375 17.96875 50.515625 8.265625 
Q 44.046875 -1.421875 31.78125 -1.421875 
Q 19.53125 -1.421875 13.0625 8.265625 
Q 6.59375 17.96875 6.59375 36.375 
Q 6.59375 54.828125 13.0625 64.515625 
Q 19.53125 74.21875 31.78125 74.21875 
z
" id="DejaVuSans-48"/>
      </defs>
      <g transform="translate(56.487444 322.182437)scale(0.1 -0.1)">
       <use xlink:href="#DejaVuSans-48"/>
      </g>
     </g>
    </g>
    <g id="xtick_2">
     <g id="line2d_2">
      <g>
       <use style="stroke:#000000;stroke-width:0.8;" x="116.762389" xlink:href="#mcd8e181f00" y="307.584"/>
      </g>
     </g>
     <g id="text_2">
      <!-- 20 -->
      <defs>
       <path d="M 19.1875 8.296875 
L 53.609375 8.296875 
L 53.609375 0 
L 7.328125 0 
L 7.328125 8.296875 
Q 12.9375 14.109375 22.625 23.890625 
Q 32.328125 33.6875 34.8125 36.53125 
Q 39.546875 41.84375 41.421875 45.53125 
Q 43.3125 49.21875 43.3125 52.78125 
Q 43.3125 58.59375 39.234375 62.25 
Q 35.15625 65.921875 28.609375 65.921875 
Q 23.96875 65.921875 18.8125 64.3125 
Q 13.671875 62.703125 7.8125 59.421875 
L 7.8125 69.390625 
Q 13.765625 71.78125 18.9375 73 
Q 24.125 74.21875 28.421875 74.21875 
Q 39.75 74.21875 46.484375 68.546875 
Q 53.21875 62.890625 53.21875 53.421875 
Q 53.21875 48.921875 51.53125 44.890625 
Q 49.859375 40.875 45.40625 35.40625 
Q 44.1875 33.984375 37.640625 27.21875 
Q 31.109375 20.453125 19.1875 8.296875 
z
" id="DejaVuSans-50"/>
      </defs>
      <g transform="translate(110.399889 322.182437)scale(0.1 -0.1)">
       <use xlink:href="#DejaVuSans-50"/>
       <use x="63.623047" xlink:href="#DejaVuSans-48"/>
      </g>
     </g>
    </g>
    <g id="xtick_3">
     <g id="line2d_3">
      <g>
       <use style="stroke:#000000;stroke-width:0.8;" x="173.856083" xlink:href="#mcd8e181f00" y="307.584"/>
      </g>
     </g>
     <g id="text_3">
      <!-- 40 -->
      <defs>
       <path d="M 37.796875 64.3125 
L 12.890625 25.390625 
L 37.796875 25.390625 
z
M 35.203125 72.90625 
L 47.609375 72.90625 
L 47.609375 25.390625 
L 58.015625 25.390625 
L 58.015625 17.1875 
L 47.609375 17.1875 
L 47.609375 0 
L 37.796875 0 
L 37.796875 17.1875 
L 4.890625 17.1875 
L 4.890625 26.703125 
z
" id="DejaVuSans-52"/>
      </defs>
      <g transform="translate(167.493583 322.182437)scale(0.1 -0.1)">
       <use xlink:href="#DejaVuSans-52"/>
       <use x="63.623047" xlink:href="#DejaVuSans-48"/>
      </g>
     </g>
    </g>
    <g id="xtick_4">
     <g id="line2d_4">
      <g>
       <use style="stroke:#000000;stroke-width:0.8;" x="230.949778" xlink:href="#mcd8e181f00" y="307.584"/>
      </g>
     </g>
     <g id="text_4">
      <!-- 60 -->
      <defs>
       <path d="M 33.015625 40.375 
Q 26.375 40.375 22.484375 35.828125 
Q 18.609375 31.296875 18.609375 23.390625 
Q 18.609375 15.53125 22.484375 10.953125 
Q 26.375 6.390625 33.015625 6.390625 
Q 39.65625 6.390625 43.53125 10.953125 
Q 47.40625 15.53125 47.40625 23.390625 
Q 47.40625 31.296875 43.53125 35.828125 
Q 39.65625 40.375 33.015625 40.375 
z
M 52.59375 71.296875 
L 52.59375 62.3125 
Q 48.875 64.0625 45.09375 64.984375 
Q 41.3125 65.921875 37.59375 65.921875 
Q 27.828125 65.921875 22.671875 59.328125 
Q 17.53125 52.734375 16.796875 39.40625 
Q 19.671875 43.65625 24.015625 45.921875 
Q 28.375 48.1875 33.59375 48.1875 
Q 44.578125 48.1875 50.953125 41.515625 
Q 57.328125 34.859375 57.328125 23.390625 
Q 57.328125 12.15625 50.6875 5.359375 
Q 44.046875 -1.421875 33.015625 -1.421875 
Q 20.359375 -1.421875 13.671875 8.265625 
Q 6.984375 17.96875 6.984375 36.375 
Q 6.984375 53.65625 15.1875 63.9375 
Q 23.390625 74.21875 37.203125 74.21875 
Q 40.921875 74.21875 44.703125 73.484375 
Q 48.484375 72.75 52.59375 71.296875 
z
" id="DejaVuSans-54"/>
      </defs>
      <g transform="translate(224.587278 322.182437)scale(0.1 -0.1)">
       <use xlink:href="#DejaVuSans-54"/>
       <use x="63.623047" xlink:href="#DejaVuSans-48"/>
      </g>
     </g>
    </g>
    <g id="xtick_5">
     <g id="line2d_5">
      <g>
       <use style="stroke:#000000;stroke-width:0.8;" x="288.043473" xlink:href="#mcd8e181f00" y="307.584"/>
      </g>
     </g>
     <g id="text_5">
      <!-- 80 -->
      <defs>
       <path d="M 31.78125 34.625 
Q 24.75 34.625 20.71875 30.859375 
Q 16.703125 27.09375 16.703125 20.515625 
Q 16.703125 13.921875 20.71875 10.15625 
Q 24.75 6.390625 31.78125 6.390625 
Q 38.8125 6.390625 42.859375 10.171875 
Q 46.921875 13.96875 46.921875 20.515625 
Q 46.921875 27.09375 42.890625 30.859375 
Q 38.875 34.625 31.78125 34.625 
z
M 21.921875 38.8125 
Q 15.578125 40.375 12.03125 44.71875 
Q 8.5 49.078125 8.5 55.328125 
Q 8.5 64.0625 14.71875 69.140625 
Q 20.953125 74.21875 31.78125 74.21875 
Q 42.671875 74.21875 48.875 69.140625 
Q 55.078125 64.0625 55.078125 55.328125 
Q 55.078125 49.078125 51.53125 44.71875 
Q 48 40.375 41.703125 38.8125 
Q 48.828125 37.15625 52.796875 32.3125 
Q 56.78125 27.484375 56.78125 20.515625 
Q 56.78125 9.90625 50.3125 4.234375 
Q 43.84375 -1.421875 31.78125 -1.421875 
Q 19.734375 -1.421875 13.25 4.234375 
Q 6.78125 9.90625 6.78125 20.515625 
Q 6.78125 27.484375 10.78125 32.3125 
Q 14.796875 37.15625 21.921875 38.8125 
z
M 18.3125 54.390625 
Q 18.3125 48.734375 21.84375 45.5625 
Q 25.390625 42.390625 31.78125 42.390625 
Q 38.140625 42.390625 41.71875 45.5625 
Q 45.3125 48.734375 45.3125 54.390625 
Q 45.3125 60.0625 41.71875 63.234375 
Q 38.140625 66.40625 31.78125 66.40625 
Q 25.390625 66.40625 21.84375 63.234375 
Q 18.3125 60.0625 18.3125 54.390625 
z
" id="DejaVuSans-56"/>
      </defs>
      <g transform="translate(281.680973 322.182437)scale(0.1 -0.1)">
       <use xlink:href="#DejaVuSans-56"/>
       <use x="63.623047" xlink:href="#DejaVuSans-48"/>
      </g>
     </g>
    </g>
    <g id="xtick_6">
     <g id="line2d_6">
      <g>
       <use style="stroke:#000000;stroke-width:0.8;" x="345.137168" xlink:href="#mcd8e181f00" y="307.584"/>
      </g>
     </g>
     <g id="text_6">
      <!-- 100 -->
      <defs>
       <path d="M 12.40625 8.296875 
L 28.515625 8.296875 
L 28.515625 63.921875 
L 10.984375 60.40625 
L 10.984375 69.390625 
L 28.421875 72.90625 
L 38.28125 72.90625 
L 38.28125 8.296875 
L 54.390625 8.296875 
L 54.390625 0 
L 12.40625 0 
z
" id="DejaVuSans-49"/>
      </defs>
      <g transform="translate(335.593418 322.182437)scale(0.1 -0.1)">
       <use xlink:href="#DejaVuSans-49"/>
       <use x="63.623047" xlink:href="#DejaVuSans-48"/>
       <use x="127.246094" xlink:href="#DejaVuSans-48"/>
      </g>
     </g>
    </g>
    <g id="xtick_7">
     <g id="line2d_7">
      <g>
       <use style="stroke:#000000;stroke-width:0.8;" x="402.230863" xlink:href="#mcd8e181f00" y="307.584"/>
      </g>
     </g>
     <g id="text_7">
      <!-- 120 -->
      <g transform="translate(392.687113 322.182437)scale(0.1 -0.1)">
       <use xlink:href="#DejaVuSans-49"/>
       <use x="63.623047" xlink:href="#DejaVuSans-50"/>
       <use x="127.246094" xlink:href="#DejaVuSans-48"/>
      </g>
     </g>
    </g>
    <g id="text_8">
     <!-- x values -->
     <defs>
      <path d="M 54.890625 54.6875 
L 35.109375 28.078125 
L 55.90625 0 
L 45.3125 0 
L 29.390625 21.484375 
L 13.484375 0 
L 2.875 0 
L 24.125 28.609375 
L 4.6875 54.6875 
L 15.28125 54.6875 
L 29.78125 35.203125 
L 44.28125 54.6875 
z
" id="DejaVuSans-120"/>
      <path id="DejaVuSans-32"/>
      <path d="M 2.984375 54.6875 
L 12.5 54.6875 
L 29.59375 8.796875 
L 46.6875 54.6875 
L 56.203125 54.6875 
L 35.6875 0 
L 23.484375 0 
z
" id="DejaVuSans-118"/>
      <path d="M 34.28125 27.484375 
Q 23.390625 27.484375 19.1875 25 
Q 14.984375 22.515625 14.984375 16.5 
Q 14.984375 11.71875 18.140625 8.90625 
Q 21.296875 6.109375 26.703125 6.109375 
Q 34.1875 6.109375 38.703125 11.40625 
Q 43.21875 16.703125 43.21875 25.484375 
L 43.21875 27.484375 
z
M 52.203125 31.203125 
L 52.203125 0 
L 43.21875 0 
L 43.21875 8.296875 
Q 40.140625 3.328125 35.546875 0.953125 
Q 30.953125 -1.421875 24.3125 -1.421875 
Q 15.921875 -1.421875 10.953125 3.296875 
Q 6 8.015625 6 15.921875 
Q 6 25.140625 12.171875 29.828125 
Q 18.359375 34.515625 30.609375 34.515625 
L 43.21875 34.515625 
L 43.21875 35.40625 
Q 43.21875 41.609375 39.140625 45 
Q 35.0625 48.390625 27.6875 48.390625 
Q 23 48.390625 18.546875 47.265625 
Q 14.109375 46.140625 10.015625 43.890625 
L 10.015625 52.203125 
Q 14.9375 54.109375 19.578125 55.046875 
Q 24.21875 56 28.609375 56 
Q 40.484375 56 46.34375 49.84375 
Q 52.203125 43.703125 52.203125 31.203125 
z
" id="DejaVuSans-97"/>
      <path d="M 9.421875 75.984375 
L 18.40625 75.984375 
L 18.40625 0 
L 9.421875 0 
z
" id="DejaVuSans-108"/>
      <path d="M 8.5 21.578125 
L 8.5 54.6875 
L 17.484375 54.6875 
L 17.484375 21.921875 
Q 17.484375 14.15625 20.5 10.265625 
Q 23.53125 6.390625 29.59375 6.390625 
Q 36.859375 6.390625 41.078125 11.03125 
Q 45.3125 15.671875 45.3125 23.6875 
L 45.3125 54.6875 
L 54.296875 54.6875 
L 54.296875 0 
L 45.3125 0 
L 45.3125 8.40625 
Q 42.046875 3.421875 37.71875 1 
Q 33.40625 -1.421875 27.6875 -1.421875 
Q 18.265625 -1.421875 13.375 4.4375 
Q 8.5 10.296875 8.5 21.578125 
z
M 31.109375 56 
z
" id="DejaVuSans-117"/>
      <path d="M 56.203125 29.59375 
L 56.203125 25.203125 
L 14.890625 25.203125 
Q 15.484375 15.921875 20.484375 11.0625 
Q 25.484375 6.203125 34.421875 6.203125 
Q 39.59375 6.203125 44.453125 7.46875 
Q 49.3125 8.734375 54.109375 11.28125 
L 54.109375 2.78125 
Q 49.265625 0.734375 44.1875 -0.34375 
Q 39.109375 -1.421875 33.890625 -1.421875 
Q 20.796875 -1.421875 13.15625 6.1875 
Q 5.515625 13.8125 5.515625 26.8125 
Q 5.515625 40.234375 12.765625 48.109375 
Q 20.015625 56 32.328125 56 
Q 43.359375 56 49.78125 48.890625 
Q 56.203125 41.796875 56.203125 29.59375 
z
M 47.21875 32.234375 
Q 47.125 39.59375 43.09375 43.984375 
Q 39.0625 48.390625 32.421875 48.390625 
Q 24.90625 48.390625 20.390625 44.140625 
Q 15.875 39.890625 15.1875 32.171875 
z
" id="DejaVuSans-101"/>
      <path d="M 44.28125 53.078125 
L 44.28125 44.578125 
Q 40.484375 46.53125 36.375 47.5 
Q 32.28125 48.484375 27.875 48.484375 
Q 21.1875 48.484375 17.84375 46.4375 
Q 14.5 44.390625 14.5 40.28125 
Q 14.5 37.15625 16.890625 35.375 
Q 19.28125 33.59375 26.515625 31.984375 
L 29.59375 31.296875 
Q 39.15625 29.25 43.1875 25.515625 
Q 47.21875 21.78125 47.21875 15.09375 
Q 47.21875 7.46875 41.1875 3.015625 
Q 35.15625 -1.421875 24.609375 -1.421875 
Q 20.21875 -1.421875 15.453125 -0.5625 
Q 10.6875 0.296875 5.421875 2 
L 5.421875 11.28125 
Q 10.40625 8.6875 15.234375 7.390625 
Q 20.0625 6.109375 24.8125 6.109375 
Q 31.15625 6.109375 34.5625 8.28125 
Q 37.984375 10.453125 37.984375 14.40625 
Q 37.984375 18.0625 35.515625 20.015625 
Q 33.0625 21.96875 24.703125 23.78125 
L 21.578125 24.515625 
Q 13.234375 26.265625 9.515625 29.90625 
Q 5.8125 33.546875 5.8125 39.890625 
Q 5.8125 47.609375 11.28125 51.796875 
Q 16.75 56 26.8125 56 
Q 31.78125 56 36.171875 55.265625 
Q 40.578125 54.546875 44.28125 53.078125 
z
" id="DejaVuSans-115"/>
     </defs>
     <g transform="translate(215.349063 335.860562)scale(0.1 -0.1)">
      <use xlink:href="#DejaVuSans-120"/>
      <use x="59.179688" xlink:href="#DejaVuSans-32"/>
      <use x="90.966797" xlink:href="#DejaVuSans-118"/>
      <use x="150.146484" xlink:href="#DejaVuSans-97"/>
      <use x="211.425781" xlink:href="#DejaVuSans-108"/>
      <use x="239.208984" xlink:href="#DejaVuSans-117"/>
      <use x="302.587891" xlink:href="#DejaVuSans-101"/>
      <use x="364.111328" xlink:href="#DejaVuSans-115"/>
     </g>
    </g>
   </g>
   <g id="matplotlib.axis_2">
    <g id="ytick_1">
     <g id="line2d_8">
      <defs>
       <path d="M 0 0 
L -3.5 0 
" id="mc8871c942f" style="stroke:#000000;stroke-width:0.8;"/>
      </defs>
      <g>
       <use style="stroke:#000000;stroke-width:0.8;" x="57.6" xlink:href="#mc8871c942f" y="293.325587"/>
      </g>
     </g>
     <g id="text_9">
      <!-- 0 -->
      <g transform="translate(44.2375 297.124805)scale(0.1 -0.1)">
       <use xlink:href="#DejaVuSans-48"/>
      </g>
     </g>
    </g>
    <g id="ytick_2">
     <g id="line2d_9">
      <g>
       <use style="stroke:#000000;stroke-width:0.8;" x="57.6" xlink:href="#mc8871c942f" y="260.542821"/>
      </g>
     </g>
     <g id="text_10">
      <!-- 200 -->
      <g transform="translate(31.5125 264.342039)scale(0.1 -0.1)">
       <use xlink:href="#DejaVuSans-50"/>
       <use x="63.623047" xlink:href="#DejaVuSans-48"/>
       <use x="127.246094" xlink:href="#DejaVuSans-48"/>
      </g>
     </g>
    </g>
    <g id="ytick_3">
     <g id="line2d_10">
      <g>
       <use style="stroke:#000000;stroke-width:0.8;" x="57.6" xlink:href="#mc8871c942f" y="227.760055"/>
      </g>
     </g>
     <g id="text_11">
      <!-- 400 -->
      <g transform="translate(31.5125 231.559273)scale(0.1 -0.1)">
       <use xlink:href="#DejaVuSans-52"/>
       <use x="63.623047" xlink:href="#DejaVuSans-48"/>
       <use x="127.246094" xlink:href="#DejaVuSans-48"/>
      </g>
     </g>
    </g>
    <g id="ytick_4">
     <g id="line2d_11">
      <g>
       <use style="stroke:#000000;stroke-width:0.8;" x="57.6" xlink:href="#mc8871c942f" y="194.977289"/>
      </g>
     </g>
     <g id="text_12">
      <!-- 600 -->
      <g transform="translate(31.5125 198.776507)scale(0.1 -0.1)">
       <use xlink:href="#DejaVuSans-54"/>
       <use x="63.623047" xlink:href="#DejaVuSans-48"/>
       <use x="127.246094" xlink:href="#DejaVuSans-48"/>
      </g>
     </g>
    </g>
    <g id="ytick_5">
     <g id="line2d_12">
      <g>
       <use style="stroke:#000000;stroke-width:0.8;" x="57.6" xlink:href="#mc8871c942f" y="162.194522"/>
      </g>
     </g>
     <g id="text_13">
      <!-- 800 -->
      <g transform="translate(31.5125 165.993741)scale(0.1 -0.1)">
       <use xlink:href="#DejaVuSans-56"/>
       <use x="63.623047" xlink:href="#DejaVuSans-48"/>
       <use x="127.246094" xlink:href="#DejaVuSans-48"/>
      </g>
     </g>
    </g>
    <g id="ytick_6">
     <g id="line2d_13">
      <g>
       <use style="stroke:#000000;stroke-width:0.8;" x="57.6" xlink:href="#mc8871c942f" y="129.411756"/>
      </g>
     </g>
     <g id="text_14">
      <!-- 1000 -->
      <g transform="translate(25.15 133.210975)scale(0.1 -0.1)">
       <use xlink:href="#DejaVuSans-49"/>
       <use x="63.623047" xlink:href="#DejaVuSans-48"/>
       <use x="127.246094" xlink:href="#DejaVuSans-48"/>
       <use x="190.869141" xlink:href="#DejaVuSans-48"/>
      </g>
     </g>
    </g>
    <g id="ytick_7">
     <g id="line2d_14">
      <g>
       <use style="stroke:#000000;stroke-width:0.8;" x="57.6" xlink:href="#mc8871c942f" y="96.62899"/>
      </g>
     </g>
     <g id="text_15">
      <!-- 1200 -->
      <g transform="translate(25.15 100.428209)scale(0.1 -0.1)">
       <use xlink:href="#DejaVuSans-49"/>
       <use x="63.623047" xlink:href="#DejaVuSans-50"/>
       <use x="127.246094" xlink:href="#DejaVuSans-48"/>
       <use x="190.869141" xlink:href="#DejaVuSans-48"/>
      </g>
     </g>
    </g>
    <g id="ytick_8">
     <g id="line2d_15">
      <g>
       <use style="stroke:#000000;stroke-width:0.8;" x="57.6" xlink:href="#mc8871c942f" y="63.846224"/>
      </g>
     </g>
     <g id="text_16">
      <!-- 1400 -->
      <g transform="translate(25.15 67.645443)scale(0.1 -0.1)">
       <use xlink:href="#DejaVuSans-49"/>
       <use x="63.623047" xlink:href="#DejaVuSans-52"/>
       <use x="127.246094" xlink:href="#DejaVuSans-48"/>
       <use x="190.869141" xlink:href="#DejaVuSans-48"/>
      </g>
     </g>
    </g>
    <g id="text_17">
     <!-- y values -->
     <defs>
      <path d="M 32.171875 -5.078125 
Q 28.375 -14.84375 24.75 -17.8125 
Q 21.140625 -20.796875 15.09375 -20.796875 
L 7.90625 -20.796875 
L 7.90625 -13.28125 
L 13.1875 -13.28125 
Q 16.890625 -13.28125 18.9375 -11.515625 
Q 21 -9.765625 23.484375 -3.21875 
L 25.09375 0.875 
L 2.984375 54.6875 
L 12.5 54.6875 
L 29.59375 11.921875 
L 46.6875 54.6875 
L 56.203125 54.6875 
z
" id="DejaVuSans-121"/>
     </defs>
     <g transform="translate(19.070312 195.338937)rotate(-90)scale(0.1 -0.1)">
      <use xlink:href="#DejaVuSans-121"/>
      <use x="59.179688" xlink:href="#DejaVuSans-32"/>
      <use x="90.966797" xlink:href="#DejaVuSans-118"/>
      <use x="150.146484" xlink:href="#DejaVuSans-97"/>
      <use x="211.425781" xlink:href="#DejaVuSans-108"/>
      <use x="239.208984" xlink:href="#DejaVuSans-117"/>
      <use x="302.587891" xlink:href="#DejaVuSans-101"/>
      <use x="364.111328" xlink:href="#DejaVuSans-115"/>
     </g>
    </g>
   </g>
   <g id="line2d_16">
    <defs>
     <path d="M 0 1 
C 0.265203 1 0.51958 0.894634 0.707107 0.707107 
C 0.894634 0.51958 1 0.265203 1 0 
C 1 -0.265203 0.894634 -0.51958 0.707107 -0.707107 
C 0.51958 -0.894634 0.265203 -1 0 -1 
C -0.265203 -1 -0.51958 -0.894634 -0.707107 -0.707107 
C -0.894634 -0.51958 -1 -0.265203 -1 0 
C -1 0.265203 -0.894634 0.51958 -0.707107 0.707107 
C -0.51958 0.894634 -0.265203 1 0 1 
z
" id="mb4d9549f74" style="stroke:#ff0000;"/>
    </defs>
    <g clip-path="url(#p454e2c243c)">
     <use style="fill:#ff0000;stroke:#ff0000;" x="73.832727" xlink:href="#mb4d9549f74" y="166.671179"/>
     <use style="fill:#ff0000;stroke:#ff0000;" x="75.356927" xlink:href="#mb4d9549f74" y="151.572752"/>
     <use style="fill:#ff0000;stroke:#ff0000;" x="76.881127" xlink:href="#mb4d9549f74" y="187.630245"/>
     <use style="fill:#ff0000;stroke:#ff0000;" x="78.405327" xlink:href="#mb4d9549f74" y="161.637884"/>
     <use style="fill:#ff0000;stroke:#ff0000;" x="79.929526" xlink:href="#mb4d9549f74" y="158.201834"/>
     <use style="fill:#ff0000;stroke:#ff0000;" x="81.453726" xlink:href="#mb4d9549f74" y="191.525941"/>
     <use style="fill:#ff0000;stroke:#ff0000;" x="82.977926" xlink:href="#mb4d9549f74" y="201.90025"/>
     <use style="fill:#ff0000;stroke:#ff0000;" x="84.502125" xlink:href="#mb4d9549f74" y="208.260944"/>
     <use style="fill:#ff0000;stroke:#ff0000;" x="86.026325" xlink:href="#mb4d9549f74" y="193.013721"/>
     <use style="fill:#ff0000;stroke:#ff0000;" x="87.550525" xlink:href="#mb4d9549f74" y="186.537836"/>
     <use style="fill:#ff0000;stroke:#ff0000;" x="89.074725" xlink:href="#mb4d9549f74" y="193.363793"/>
     <use style="fill:#ff0000;stroke:#ff0000;" x="90.598924" xlink:href="#mb4d9549f74" y="207.44677"/>
     <use style="fill:#ff0000;stroke:#ff0000;" x="92.123124" xlink:href="#mb4d9549f74" y="196.797093"/>
     <use style="fill:#ff0000;stroke:#ff0000;" x="93.647324" xlink:href="#mb4d9549f74" y="184.794256"/>
     <use style="fill:#ff0000;stroke:#ff0000;" x="95.171524" xlink:href="#mb4d9549f74" y="198.221053"/>
     <use style="fill:#ff0000;stroke:#ff0000;" x="96.695723" xlink:href="#mb4d9549f74" y="217.110563"/>
     <use style="fill:#ff0000;stroke:#ff0000;" x="98.219923" xlink:href="#mb4d9549f74" y="200.016265"/>
     <use style="fill:#ff0000;stroke:#ff0000;" x="99.744123" xlink:href="#mb4d9549f74" y="201.633742"/>
     <use style="fill:#ff0000;stroke:#ff0000;" x="101.268323" xlink:href="#mb4d9549f74" y="213.156671"/>
     <use style="fill:#ff0000;stroke:#ff0000;" x="102.792522" xlink:href="#mb4d9549f74" y="201.768827"/>
     <use style="fill:#ff0000;stroke:#ff0000;" x="104.316722" xlink:href="#mb4d9549f74" y="202.826617"/>
     <use style="fill:#ff0000;stroke:#ff0000;" x="105.840922" xlink:href="#mb4d9549f74" y="220.409432"/>
     <use style="fill:#ff0000;stroke:#ff0000;" x="107.365122" xlink:href="#mb4d9549f74" y="209.145688"/>
     <use style="fill:#ff0000;stroke:#ff0000;" x="108.889321" xlink:href="#mb4d9549f74" y="227.225154"/>
     <use style="fill:#ff0000;stroke:#ff0000;" x="110.413521" xlink:href="#mb4d9549f74" y="234.759958"/>
     <use style="fill:#ff0000;stroke:#ff0000;" x="111.937721" xlink:href="#mb4d9549f74" y="218.768596"/>
     <use style="fill:#ff0000;stroke:#ff0000;" x="113.461921" xlink:href="#mb4d9549f74" y="226.269004"/>
     <use style="fill:#ff0000;stroke:#ff0000;" x="114.98612" xlink:href="#mb4d9549f74" y="240.64727"/>
     <use style="fill:#ff0000;stroke:#ff0000;" x="116.51032" xlink:href="#mb4d9549f74" y="223.822326"/>
     <use style="fill:#ff0000;stroke:#ff0000;" x="118.03452" xlink:href="#mb4d9549f74" y="236.685427"/>
     <use style="fill:#ff0000;stroke:#ff0000;" x="119.55872" xlink:href="#mb4d9549f74" y="233.464343"/>
     <use style="fill:#ff0000;stroke:#ff0000;" x="121.082919" xlink:href="#mb4d9549f74" y="243.414285"/>
     <use style="fill:#ff0000;stroke:#ff0000;" x="122.607119" xlink:href="#mb4d9549f74" y="243.174055"/>
     <use style="fill:#ff0000;stroke:#ff0000;" x="124.131319" xlink:href="#mb4d9549f74" y="233.294821"/>
     <use style="fill:#ff0000;stroke:#ff0000;" x="125.655519" xlink:href="#mb4d9549f74" y="243.050487"/>
     <use style="fill:#ff0000;stroke:#ff0000;" x="127.179718" xlink:href="#mb4d9549f74" y="247.755666"/>
     <use style="fill:#ff0000;stroke:#ff0000;" x="128.703918" xlink:href="#mb4d9549f74" y="245.312079"/>
     <use style="fill:#ff0000;stroke:#ff0000;" x="130.228118" xlink:href="#mb4d9549f74" y="245.439331"/>
     <use style="fill:#ff0000;stroke:#ff0000;" x="131.752318" xlink:href="#mb4d9549f74" y="249.793187"/>
     <use style="fill:#ff0000;stroke:#ff0000;" x="133.276517" xlink:href="#mb4d9549f74" y="246.175718"/>
     <use style="fill:#ff0000;stroke:#ff0000;" x="134.800717" xlink:href="#mb4d9549f74" y="261.140589"/>
     <use style="fill:#ff0000;stroke:#ff0000;" x="136.324917" xlink:href="#mb4d9549f74" y="260.166475"/>
     <use style="fill:#ff0000;stroke:#ff0000;" x="137.849117" xlink:href="#mb4d9549f74" y="256.688026"/>
     <use style="fill:#ff0000;stroke:#ff0000;" x="139.373316" xlink:href="#mb4d9549f74" y="255.976794"/>
     <use style="fill:#ff0000;stroke:#ff0000;" x="140.897516" xlink:href="#mb4d9549f74" y="256.229197"/>
     <use style="fill:#ff0000;stroke:#ff0000;" x="142.421716" xlink:href="#mb4d9549f74" y="260.49132"/>
     <use style="fill:#ff0000;stroke:#ff0000;" x="143.945915" xlink:href="#mb4d9549f74" y="266.69715"/>
     <use style="fill:#ff0000;stroke:#ff0000;" x="145.470115" xlink:href="#mb4d9549f74" y="263.44564"/>
     <use style="fill:#ff0000;stroke:#ff0000;" x="146.994315" xlink:href="#mb4d9549f74" y="268.968627"/>
     <use style="fill:#ff0000;stroke:#ff0000;" x="148.518515" xlink:href="#mb4d9549f74" y="267.143262"/>
     <use style="fill:#ff0000;stroke:#ff0000;" x="150.042714" xlink:href="#mb4d9549f74" y="271.32575"/>
     <use style="fill:#ff0000;stroke:#ff0000;" x="151.566914" xlink:href="#mb4d9549f74" y="268.813514"/>
     <use style="fill:#ff0000;stroke:#ff0000;" x="153.091114" xlink:href="#mb4d9549f74" y="267.289319"/>
     <use style="fill:#ff0000;stroke:#ff0000;" x="154.615314" xlink:href="#mb4d9549f74" y="275.030475"/>
     <use style="fill:#ff0000;stroke:#ff0000;" x="156.139513" xlink:href="#mb4d9549f74" y="274.868714"/>
     <use style="fill:#ff0000;stroke:#ff0000;" x="157.663713" xlink:href="#mb4d9549f74" y="273.643148"/>
     <use style="fill:#ff0000;stroke:#ff0000;" x="159.187913" xlink:href="#mb4d9549f74" y="278.37668"/>
     <use style="fill:#ff0000;stroke:#ff0000;" x="160.712113" xlink:href="#mb4d9549f74" y="275.482482"/>
     <use style="fill:#ff0000;stroke:#ff0000;" x="162.236312" xlink:href="#mb4d9549f74" y="276.541001"/>
     <use style="fill:#ff0000;stroke:#ff0000;" x="163.760512" xlink:href="#mb4d9549f74" y="275.920627"/>
     <use style="fill:#ff0000;stroke:#ff0000;" x="165.284712" xlink:href="#mb4d9549f74" y="282.057114"/>
     <use style="fill:#ff0000;stroke:#ff0000;" x="166.808912" xlink:href="#mb4d9549f74" y="276.134551"/>
     <use style="fill:#ff0000;stroke:#ff0000;" x="168.333111" xlink:href="#mb4d9549f74" y="283.919531"/>
     <use style="fill:#ff0000;stroke:#ff0000;" x="169.857311" xlink:href="#mb4d9549f74" y="277.045128"/>
     <use style="fill:#ff0000;stroke:#ff0000;" x="171.381511" xlink:href="#mb4d9549f74" y="281.954105"/>
     <use style="fill:#ff0000;stroke:#ff0000;" x="172.905711" xlink:href="#mb4d9549f74" y="279.25461"/>
     <use style="fill:#ff0000;stroke:#ff0000;" x="174.42991" xlink:href="#mb4d9549f74" y="284.729725"/>
     <use style="fill:#ff0000;stroke:#ff0000;" x="175.95411" xlink:href="#mb4d9549f74" y="284.885324"/>
     <use style="fill:#ff0000;stroke:#ff0000;" x="177.47831" xlink:href="#mb4d9549f74" y="278.642777"/>
     <use style="fill:#ff0000;stroke:#ff0000;" x="179.00251" xlink:href="#mb4d9549f74" y="288.849906"/>
     <use style="fill:#ff0000;stroke:#ff0000;" x="180.526709" xlink:href="#mb4d9549f74" y="285.129174"/>
     <use style="fill:#ff0000;stroke:#ff0000;" x="182.050909" xlink:href="#mb4d9549f74" y="285.61205"/>
     <use style="fill:#ff0000;stroke:#ff0000;" x="183.575109" xlink:href="#mb4d9549f74" y="291.011366"/>
     <use style="fill:#ff0000;stroke:#ff0000;" x="185.099309" xlink:href="#mb4d9549f74" y="285.481103"/>
     <use style="fill:#ff0000;stroke:#ff0000;" x="186.623508" xlink:href="#mb4d9549f74" y="291.605334"/>
     <use style="fill:#ff0000;stroke:#ff0000;" x="188.147708" xlink:href="#mb4d9549f74" y="287.749679"/>
     <use style="fill:#ff0000;stroke:#ff0000;" x="189.671908" xlink:href="#mb4d9549f74" y="292.439011"/>
     <use style="fill:#ff0000;stroke:#ff0000;" x="191.196108" xlink:href="#mb4d9549f74" y="292.785499"/>
     <use style="fill:#ff0000;stroke:#ff0000;" x="192.720307" xlink:href="#mb4d9549f74" y="293.216325"/>
     <use style="fill:#ff0000;stroke:#ff0000;" x="194.244507" xlink:href="#mb4d9549f74" y="291.749878"/>
     <use style="fill:#ff0000;stroke:#ff0000;" x="195.768707" xlink:href="#mb4d9549f74" y="287.698651"/>
     <use style="fill:#ff0000;stroke:#ff0000;" x="197.292907" xlink:href="#mb4d9549f74" y="290.975604"/>
     <use style="fill:#ff0000;stroke:#ff0000;" x="198.817106" xlink:href="#mb4d9549f74" y="288.478607"/>
     <use style="fill:#ff0000;stroke:#ff0000;" x="200.341306" xlink:href="#mb4d9549f74" y="293.622876"/>
     <use style="fill:#ff0000;stroke:#ff0000;" x="201.865506" xlink:href="#mb4d9549f74" y="293.830671"/>
     <use style="fill:#ff0000;stroke:#ff0000;" x="203.389706" xlink:href="#mb4d9549f74" y="290.776196"/>
     <use style="fill:#ff0000;stroke:#ff0000;" x="204.913905" xlink:href="#mb4d9549f74" y="293.929722"/>
     <use style="fill:#ff0000;stroke:#ff0000;" x="206.438105" xlink:href="#mb4d9549f74" y="293.984622"/>
     <use style="fill:#ff0000;stroke:#ff0000;" x="207.962305" xlink:href="#mb4d9549f74" y="292.862813"/>
     <use style="fill:#ff0000;stroke:#ff0000;" x="209.486504" xlink:href="#mb4d9549f74" y="288.575648"/>
     <use style="fill:#ff0000;stroke:#ff0000;" x="211.010704" xlink:href="#mb4d9549f74" y="295.488"/>
     <use style="fill:#ff0000;stroke:#ff0000;" x="212.534904" xlink:href="#mb4d9549f74" y="291.555915"/>
     <use style="fill:#ff0000;stroke:#ff0000;" x="214.059104" xlink:href="#mb4d9549f74" y="291.672824"/>
     <use style="fill:#ff0000;stroke:#ff0000;" x="215.583303" xlink:href="#mb4d9549f74" y="295.308226"/>
     <use style="fill:#ff0000;stroke:#ff0000;" x="217.107503" xlink:href="#mb4d9549f74" y="287.702059"/>
     <use style="fill:#ff0000;stroke:#ff0000;" x="218.631703" xlink:href="#mb4d9549f74" y="294.184448"/>
     <use style="fill:#ff0000;stroke:#ff0000;" x="220.155903" xlink:href="#mb4d9549f74" y="293.042959"/>
     <use style="fill:#ff0000;stroke:#ff0000;" x="221.680102" xlink:href="#mb4d9549f74" y="294.808581"/>
     <use style="fill:#ff0000;stroke:#ff0000;" x="223.204302" xlink:href="#mb4d9549f74" y="291.644902"/>
     <use style="fill:#ff0000;stroke:#ff0000;" x="224.728502" xlink:href="#mb4d9549f74" y="293.492524"/>
     <use style="fill:#ff0000;stroke:#ff0000;" x="226.252702" xlink:href="#mb4d9549f74" y="291.77566"/>
     <use style="fill:#ff0000;stroke:#ff0000;" x="227.776901" xlink:href="#mb4d9549f74" y="287.494754"/>
     <use style="fill:#ff0000;stroke:#ff0000;" x="229.301101" xlink:href="#mb4d9549f74" y="289.595949"/>
     <use style="fill:#ff0000;stroke:#ff0000;" x="230.825301" xlink:href="#mb4d9549f74" y="290.112071"/>
     <use style="fill:#ff0000;stroke:#ff0000;" x="232.349501" xlink:href="#mb4d9549f74" y="288.645225"/>
     <use style="fill:#ff0000;stroke:#ff0000;" x="233.8737" xlink:href="#mb4d9549f74" y="287.021041"/>
     <use style="fill:#ff0000;stroke:#ff0000;" x="235.3979" xlink:href="#mb4d9549f74" y="286.666268"/>
     <use style="fill:#ff0000;stroke:#ff0000;" x="236.9221" xlink:href="#mb4d9549f74" y="284.716077"/>
     <use style="fill:#ff0000;stroke:#ff0000;" x="238.4463" xlink:href="#mb4d9549f74" y="284.865767"/>
     <use style="fill:#ff0000;stroke:#ff0000;" x="239.970499" xlink:href="#mb4d9549f74" y="281.000839"/>
     <use style="fill:#ff0000;stroke:#ff0000;" x="241.494699" xlink:href="#mb4d9549f74" y="289.055666"/>
     <use style="fill:#ff0000;stroke:#ff0000;" x="243.018899" xlink:href="#mb4d9549f74" y="287.318719"/>
     <use style="fill:#ff0000;stroke:#ff0000;" x="244.543099" xlink:href="#mb4d9549f74" y="282.648276"/>
     <use style="fill:#ff0000;stroke:#ff0000;" x="246.067298" xlink:href="#mb4d9549f74" y="281.381933"/>
     <use style="fill:#ff0000;stroke:#ff0000;" x="247.591498" xlink:href="#mb4d9549f74" y="285.753532"/>
     <use style="fill:#ff0000;stroke:#ff0000;" x="249.115698" xlink:href="#mb4d9549f74" y="285.608597"/>
     <use style="fill:#ff0000;stroke:#ff0000;" x="250.639898" xlink:href="#mb4d9549f74" y="278.235216"/>
     <use style="fill:#ff0000;stroke:#ff0000;" x="252.164097" xlink:href="#mb4d9549f74" y="276.258866"/>
     <use style="fill:#ff0000;stroke:#ff0000;" x="253.688297" xlink:href="#mb4d9549f74" y="278.603393"/>
     <use style="fill:#ff0000;stroke:#ff0000;" x="255.212497" xlink:href="#mb4d9549f74" y="276.212726"/>
     <use style="fill:#ff0000;stroke:#ff0000;" x="256.736697" xlink:href="#mb4d9549f74" y="278.938805"/>
     <use style="fill:#ff0000;stroke:#ff0000;" x="258.260896" xlink:href="#mb4d9549f74" y="275.789447"/>
     <use style="fill:#ff0000;stroke:#ff0000;" x="259.785096" xlink:href="#mb4d9549f74" y="275.409141"/>
     <use style="fill:#ff0000;stroke:#ff0000;" x="261.309296" xlink:href="#mb4d9549f74" y="269.7517"/>
     <use style="fill:#ff0000;stroke:#ff0000;" x="262.833496" xlink:href="#mb4d9549f74" y="272.12596"/>
     <use style="fill:#ff0000;stroke:#ff0000;" x="264.357695" xlink:href="#mb4d9549f74" y="275.146059"/>
     <use style="fill:#ff0000;stroke:#ff0000;" x="265.881895" xlink:href="#mb4d9549f74" y="267.981914"/>
     <use style="fill:#ff0000;stroke:#ff0000;" x="267.406095" xlink:href="#mb4d9549f74" y="271.956065"/>
     <use style="fill:#ff0000;stroke:#ff0000;" x="268.930294" xlink:href="#mb4d9549f74" y="268.246571"/>
     <use style="fill:#ff0000;stroke:#ff0000;" x="270.454494" xlink:href="#mb4d9549f74" y="271.964095"/>
     <use style="fill:#ff0000;stroke:#ff0000;" x="271.978694" xlink:href="#mb4d9549f74" y="266.831129"/>
     <use style="fill:#ff0000;stroke:#ff0000;" x="273.502894" xlink:href="#mb4d9549f74" y="267.292478"/>
     <use style="fill:#ff0000;stroke:#ff0000;" x="275.027093" xlink:href="#mb4d9549f74" y="260.3618"/>
     <use style="fill:#ff0000;stroke:#ff0000;" x="276.551293" xlink:href="#mb4d9549f74" y="258.793471"/>
     <use style="fill:#ff0000;stroke:#ff0000;" x="278.075493" xlink:href="#mb4d9549f74" y="265.381621"/>
     <use style="fill:#ff0000;stroke:#ff0000;" x="279.599693" xlink:href="#mb4d9549f74" y="259.065123"/>
     <use style="fill:#ff0000;stroke:#ff0000;" x="281.123892" xlink:href="#mb4d9549f74" y="266.780072"/>
     <use style="fill:#ff0000;stroke:#ff0000;" x="282.648092" xlink:href="#mb4d9549f74" y="256.816379"/>
     <use style="fill:#ff0000;stroke:#ff0000;" x="284.172292" xlink:href="#mb4d9549f74" y="258.165062"/>
     <use style="fill:#ff0000;stroke:#ff0000;" x="285.696492" xlink:href="#mb4d9549f74" y="261.777075"/>
     <use style="fill:#ff0000;stroke:#ff0000;" x="287.220691" xlink:href="#mb4d9549f74" y="252.692447"/>
     <use style="fill:#ff0000;stroke:#ff0000;" x="288.744891" xlink:href="#mb4d9549f74" y="257.381311"/>
     <use style="fill:#ff0000;stroke:#ff0000;" x="290.269091" xlink:href="#mb4d9549f74" y="240.995115"/>
     <use style="fill:#ff0000;stroke:#ff0000;" x="291.793291" xlink:href="#mb4d9549f74" y="255.599183"/>
     <use style="fill:#ff0000;stroke:#ff0000;" x="293.31749" xlink:href="#mb4d9549f74" y="244.666813"/>
     <use style="fill:#ff0000;stroke:#ff0000;" x="294.84169" xlink:href="#mb4d9549f74" y="244.447173"/>
     <use style="fill:#ff0000;stroke:#ff0000;" x="296.36589" xlink:href="#mb4d9549f74" y="233.890005"/>
     <use style="fill:#ff0000;stroke:#ff0000;" x="297.89009" xlink:href="#mb4d9549f74" y="248.602753"/>
     <use style="fill:#ff0000;stroke:#ff0000;" x="299.414289" xlink:href="#mb4d9549f74" y="226.332816"/>
     <use style="fill:#ff0000;stroke:#ff0000;" x="300.938489" xlink:href="#mb4d9549f74" y="240.15754"/>
     <use style="fill:#ff0000;stroke:#ff0000;" x="302.462689" xlink:href="#mb4d9549f74" y="241.753045"/>
     <use style="fill:#ff0000;stroke:#ff0000;" x="303.986889" xlink:href="#mb4d9549f74" y="236.020227"/>
     <use style="fill:#ff0000;stroke:#ff0000;" x="305.511088" xlink:href="#mb4d9549f74" y="244.257409"/>
     <use style="fill:#ff0000;stroke:#ff0000;" x="307.035288" xlink:href="#mb4d9549f74" y="234.873166"/>
     <use style="fill:#ff0000;stroke:#ff0000;" x="308.559488" xlink:href="#mb4d9549f74" y="239.978006"/>
     <use style="fill:#ff0000;stroke:#ff0000;" x="310.083688" xlink:href="#mb4d9549f74" y="228.399614"/>
     <use style="fill:#ff0000;stroke:#ff0000;" x="311.607887" xlink:href="#mb4d9549f74" y="224.649995"/>
     <use style="fill:#ff0000;stroke:#ff0000;" x="313.132087" xlink:href="#mb4d9549f74" y="209.717537"/>
     <use style="fill:#ff0000;stroke:#ff0000;" x="314.656287" xlink:href="#mb4d9549f74" y="213.918455"/>
     <use style="fill:#ff0000;stroke:#ff0000;" x="316.180487" xlink:href="#mb4d9549f74" y="204.242393"/>
     <use style="fill:#ff0000;stroke:#ff0000;" x="317.704686" xlink:href="#mb4d9549f74" y="230.822537"/>
     <use style="fill:#ff0000;stroke:#ff0000;" x="319.228886" xlink:href="#mb4d9549f74" y="223.121201"/>
     <use style="fill:#ff0000;stroke:#ff0000;" x="320.753086" xlink:href="#mb4d9549f74" y="201.714253"/>
     <use style="fill:#ff0000;stroke:#ff0000;" x="322.277286" xlink:href="#mb4d9549f74" y="216.417296"/>
     <use style="fill:#ff0000;stroke:#ff0000;" x="323.801485" xlink:href="#mb4d9549f74" y="211.552983"/>
     <use style="fill:#ff0000;stroke:#ff0000;" x="325.325685" xlink:href="#mb4d9549f74" y="209.466325"/>
     <use style="fill:#ff0000;stroke:#ff0000;" x="326.849885" xlink:href="#mb4d9549f74" y="212.673811"/>
     <use style="fill:#ff0000;stroke:#ff0000;" x="328.374085" xlink:href="#mb4d9549f74" y="213.115942"/>
     <use style="fill:#ff0000;stroke:#ff0000;" x="329.898284" xlink:href="#mb4d9549f74" y="188.838643"/>
     <use style="fill:#ff0000;stroke:#ff0000;" x="331.422484" xlink:href="#mb4d9549f74" y="195.690631"/>
     <use style="fill:#ff0000;stroke:#ff0000;" x="332.946684" xlink:href="#mb4d9549f74" y="173.899507"/>
     <use style="fill:#ff0000;stroke:#ff0000;" x="334.470883" xlink:href="#mb4d9549f74" y="174.713561"/>
     <use style="fill:#ff0000;stroke:#ff0000;" x="335.995083" xlink:href="#mb4d9549f74" y="195.044226"/>
     <use style="fill:#ff0000;stroke:#ff0000;" x="337.519283" xlink:href="#mb4d9549f74" y="169.528782"/>
     <use style="fill:#ff0000;stroke:#ff0000;" x="339.043483" xlink:href="#mb4d9549f74" y="170.834878"/>
     <use style="fill:#ff0000;stroke:#ff0000;" x="340.567682" xlink:href="#mb4d9549f74" y="198.248284"/>
     <use style="fill:#ff0000;stroke:#ff0000;" x="342.091882" xlink:href="#mb4d9549f74" y="190.629562"/>
     <use style="fill:#ff0000;stroke:#ff0000;" x="343.616082" xlink:href="#mb4d9549f74" y="164.397934"/>
     <use style="fill:#ff0000;stroke:#ff0000;" x="345.140282" xlink:href="#mb4d9549f74" y="146.273156"/>
     <use style="fill:#ff0000;stroke:#ff0000;" x="346.664481" xlink:href="#mb4d9549f74" y="179.840452"/>
     <use style="fill:#ff0000;stroke:#ff0000;" x="348.188681" xlink:href="#mb4d9549f74" y="143.715149"/>
     <use style="fill:#ff0000;stroke:#ff0000;" x="349.712881" xlink:href="#mb4d9549f74" y="172.147397"/>
     <use style="fill:#ff0000;stroke:#ff0000;" x="351.237081" xlink:href="#mb4d9549f74" y="183.005117"/>
     <use style="fill:#ff0000;stroke:#ff0000;" x="352.76128" xlink:href="#mb4d9549f74" y="137.848024"/>
     <use style="fill:#ff0000;stroke:#ff0000;" x="354.28548" xlink:href="#mb4d9549f74" y="180.430189"/>
     <use style="fill:#ff0000;stroke:#ff0000;" x="355.80968" xlink:href="#mb4d9549f74" y="157.874523"/>
     <use style="fill:#ff0000;stroke:#ff0000;" x="357.33388" xlink:href="#mb4d9549f74" y="156.749351"/>
     <use style="fill:#ff0000;stroke:#ff0000;" x="358.858079" xlink:href="#mb4d9549f74" y="113.526728"/>
     <use style="fill:#ff0000;stroke:#ff0000;" x="360.382279" xlink:href="#mb4d9549f74" y="141.20456"/>
     <use style="fill:#ff0000;stroke:#ff0000;" x="361.906479" xlink:href="#mb4d9549f74" y="145.22529"/>
     <use style="fill:#ff0000;stroke:#ff0000;" x="363.430679" xlink:href="#mb4d9549f74" y="155.597699"/>
     <use style="fill:#ff0000;stroke:#ff0000;" x="364.954878" xlink:href="#mb4d9549f74" y="142.206588"/>
     <use style="fill:#ff0000;stroke:#ff0000;" x="366.479078" xlink:href="#mb4d9549f74" y="119.440326"/>
     <use style="fill:#ff0000;stroke:#ff0000;" x="368.003278" xlink:href="#mb4d9549f74" y="153.647493"/>
     <use style="fill:#ff0000;stroke:#ff0000;" x="369.527478" xlink:href="#mb4d9549f74" y="153.107873"/>
     <use style="fill:#ff0000;stroke:#ff0000;" x="371.051677" xlink:href="#mb4d9549f74" y="87.040563"/>
     <use style="fill:#ff0000;stroke:#ff0000;" x="372.575877" xlink:href="#mb4d9549f74" y="105.448702"/>
     <use style="fill:#ff0000;stroke:#ff0000;" x="374.100077" xlink:href="#mb4d9549f74" y="113.712004"/>
     <use style="fill:#ff0000;stroke:#ff0000;" x="375.624277" xlink:href="#mb4d9549f74" y="123.558871"/>
     <use style="fill:#ff0000;stroke:#ff0000;" x="377.148476" xlink:href="#mb4d9549f74" y="128.746795"/>
     <use style="fill:#ff0000;stroke:#ff0000;" x="378.672676" xlink:href="#mb4d9549f74" y="67.777427"/>
     <use style="fill:#ff0000;stroke:#ff0000;" x="380.196876" xlink:href="#mb4d9549f74" y="100.175205"/>
     <use style="fill:#ff0000;stroke:#ff0000;" x="381.721076" xlink:href="#mb4d9549f74" y="130.840267"/>
     <use style="fill:#ff0000;stroke:#ff0000;" x="383.245275" xlink:href="#mb4d9549f74" y="95.952578"/>
     <use style="fill:#ff0000;stroke:#ff0000;" x="384.769475" xlink:href="#mb4d9549f74" y="61.23985"/>
     <use style="fill:#ff0000;stroke:#ff0000;" x="386.293675" xlink:href="#mb4d9549f74" y="128.823099"/>
     <use style="fill:#ff0000;stroke:#ff0000;" x="387.817875" xlink:href="#mb4d9549f74" y="72.609833"/>
     <use style="fill:#ff0000;stroke:#ff0000;" x="389.342074" xlink:href="#mb4d9549f74" y="111.876565"/>
     <use style="fill:#ff0000;stroke:#ff0000;" x="390.866274" xlink:href="#mb4d9549f74" y="111.455696"/>
     <use style="fill:#ff0000;stroke:#ff0000;" x="392.390474" xlink:href="#mb4d9549f74" y="68.839122"/>
     <use style="fill:#ff0000;stroke:#ff0000;" x="393.914673" xlink:href="#mb4d9549f74" y="102.140449"/>
     <use style="fill:#ff0000;stroke:#ff0000;" x="395.438873" xlink:href="#mb4d9549f74" y="85.77384"/>
     <use style="fill:#ff0000;stroke:#ff0000;" x="396.963073" xlink:href="#mb4d9549f74" y="60.450418"/>
     <use style="fill:#ff0000;stroke:#ff0000;" x="398.487273" xlink:href="#mb4d9549f74" y="53.568"/>
    </g>
   </g>
   <g id="line2d_17">
    <path clip-path="url(#p454e2c243c)" d="M 73.832727 168.001189 
L 79.929526 178.694843 
L 86.026325 188.903532 
L 92.123124 198.627256 
L 98.219923 207.866014 
L 104.316722 216.619808 
L 110.413521 224.888636 
L 116.51032 232.6725 
L 121.082919 238.192139 
L 125.655519 243.438986 
L 130.228118 248.413039 
L 134.800717 253.1143 
L 139.373316 257.542768 
L 143.945915 261.698443 
L 148.518515 265.581326 
L 153.091114 269.191415 
L 157.663713 272.528712 
L 162.236312 275.593215 
L 166.808912 278.384926 
L 171.381511 280.903844 
L 175.95411 283.14997 
L 180.526709 285.123302 
L 185.099309 286.823842 
L 189.671908 288.251588 
L 194.244507 289.406542 
L 198.817106 290.288703 
L 203.389706 290.898071 
L 207.962305 291.234647 
L 212.534904 291.298429 
L 217.107503 291.089419 
L 221.680102 290.607616 
L 226.252702 289.85302 
L 230.825301 288.825631 
L 235.3979 287.525449 
L 239.970499 285.952475 
L 244.543099 284.106707 
L 249.115698 281.988147 
L 253.688297 279.596794 
L 258.260896 276.932648 
L 262.833496 273.99571 
L 267.406095 270.785978 
L 271.978694 267.303454 
L 276.551293 263.548136 
L 281.123892 259.520026 
L 285.696492 255.219123 
L 290.269091 250.645427 
L 294.84169 245.798939 
L 299.414289 240.679657 
L 303.986889 235.287583 
L 308.559488 229.622716 
L 313.132087 223.685056 
L 319.228886 215.343832 
L 325.325685 206.517642 
L 331.422484 197.206488 
L 337.519283 187.410368 
L 343.616082 177.129284 
L 349.712881 166.363234 
L 355.80968 155.112219 
L 361.906479 143.376239 
L 368.003278 131.155295 
L 374.100077 118.449385 
L 380.196876 105.25851 
L 386.293675 91.58267 
L 392.390474 77.421865 
L 398.487273 62.776095 
L 398.487273 62.776095 
" style="fill:none;stroke:#008000;stroke-linecap:square;stroke-width:1.5;"/>
   </g>
   <g id="patch_3">
    <path d="M 57.6 307.584 
L 57.6 41.472 
" style="fill:none;stroke:#000000;stroke-linecap:square;stroke-linejoin:miter;stroke-width:0.8;"/>
   </g>
   <g id="patch_4">
    <path d="M 414.72 307.584 
L 414.72 41.472 
" style="fill:none;stroke:#000000;stroke-linecap:square;stroke-linejoin:miter;stroke-width:0.8;"/>
   </g>
   <g id="patch_5">
    <path d="M 57.6 307.584 
L 414.72 307.584 
" style="fill:none;stroke:#000000;stroke-linecap:square;stroke-linejoin:miter;stroke-width:0.8;"/>
   </g>
   <g id="patch_6">
    <path d="M 57.6 41.472 
L 414.72 41.472 
" style="fill:none;stroke:#000000;stroke-linecap:square;stroke-linejoin:miter;stroke-width:0.8;"/>
   </g>
   <g id="text_18">
    <!-- FunctionFitting 08 -->
    <defs>
     <path d="M 9.8125 72.90625 
L 51.703125 72.90625 
L 51.703125 64.59375 
L 19.671875 64.59375 
L 19.671875 43.109375 
L 48.578125 43.109375 
L 48.578125 34.8125 
L 19.671875 34.8125 
L 19.671875 0 
L 9.8125 0 
z
" id="DejaVuSans-70"/>
     <path d="M 54.890625 33.015625 
L 54.890625 0 
L 45.90625 0 
L 45.90625 32.71875 
Q 45.90625 40.484375 42.875 44.328125 
Q 39.84375 48.1875 33.796875 48.1875 
Q 26.515625 48.1875 22.3125 43.546875 
Q 18.109375 38.921875 18.109375 30.90625 
L 18.109375 0 
L 9.078125 0 
L 9.078125 54.6875 
L 18.109375 54.6875 
L 18.109375 46.1875 
Q 21.34375 51.125 25.703125 53.5625 
Q 30.078125 56 35.796875 56 
Q 45.21875 56 50.046875 50.171875 
Q 54.890625 44.34375 54.890625 33.015625 
z
" id="DejaVuSans-110"/>
     <path d="M 48.78125 52.59375 
L 48.78125 44.1875 
Q 44.96875 46.296875 41.140625 47.34375 
Q 37.3125 48.390625 33.40625 48.390625 
Q 24.65625 48.390625 19.8125 42.84375 
Q 14.984375 37.3125 14.984375 27.296875 
Q 14.984375 17.28125 19.8125 11.734375 
Q 24.65625 6.203125 33.40625 6.203125 
Q 37.3125 6.203125 41.140625 7.25 
Q 44.96875 8.296875 48.78125 10.40625 
L 48.78125 2.09375 
Q 45.015625 0.34375 40.984375 -0.53125 
Q 36.96875 -1.421875 32.421875 -1.421875 
Q 20.0625 -1.421875 12.78125 6.34375 
Q 5.515625 14.109375 5.515625 27.296875 
Q 5.515625 40.671875 12.859375 48.328125 
Q 20.21875 56 33.015625 56 
Q 37.15625 56 41.109375 55.140625 
Q 45.0625 54.296875 48.78125 52.59375 
z
" id="DejaVuSans-99"/>
     <path d="M 18.3125 70.21875 
L 18.3125 54.6875 
L 36.8125 54.6875 
L 36.8125 47.703125 
L 18.3125 47.703125 
L 18.3125 18.015625 
Q 18.3125 11.328125 20.140625 9.421875 
Q 21.96875 7.515625 27.59375 7.515625 
L 36.8125 7.515625 
L 36.8125 0 
L 27.59375 0 
Q 17.1875 0 13.234375 3.875 
Q 9.28125 7.765625 9.28125 18.015625 
L 9.28125 47.703125 
L 2.6875 47.703125 
L 2.6875 54.6875 
L 9.28125 54.6875 
L 9.28125 70.21875 
z
" id="DejaVuSans-116"/>
     <path d="M 9.421875 54.6875 
L 18.40625 54.6875 
L 18.40625 0 
L 9.421875 0 
z
M 9.421875 75.984375 
L 18.40625 75.984375 
L 18.40625 64.59375 
L 9.421875 64.59375 
z
" id="DejaVuSans-105"/>
     <path d="M 30.609375 48.390625 
Q 23.390625 48.390625 19.1875 42.75 
Q 14.984375 37.109375 14.984375 27.296875 
Q 14.984375 17.484375 19.15625 11.84375 
Q 23.34375 6.203125 30.609375 6.203125 
Q 37.796875 6.203125 41.984375 11.859375 
Q 46.1875 17.53125 46.1875 27.296875 
Q 46.1875 37.015625 41.984375 42.703125 
Q 37.796875 48.390625 30.609375 48.390625 
z
M 30.609375 56 
Q 42.328125 56 49.015625 48.375 
Q 55.71875 40.765625 55.71875 27.296875 
Q 55.71875 13.875 49.015625 6.21875 
Q 42.328125 -1.421875 30.609375 -1.421875 
Q 18.84375 -1.421875 12.171875 6.21875 
Q 5.515625 13.875 5.515625 27.296875 
Q 5.515625 40.765625 12.171875 48.375 
Q 18.84375 56 30.609375 56 
z
" id="DejaVuSans-111"/>
     <path d="M 45.40625 27.984375 
Q 45.40625 37.75 41.375 43.109375 
Q 37.359375 48.484375 30.078125 48.484375 
Q 22.859375 48.484375 18.828125 43.109375 
Q 14.796875 37.75 14.796875 27.984375 
Q 14.796875 18.265625 18.828125 12.890625 
Q 22.859375 7.515625 30.078125 7.515625 
Q 37.359375 7.515625 41.375 12.890625 
Q 45.40625 18.265625 45.40625 27.984375 
z
M 54.390625 6.78125 
Q 54.390625 -7.171875 48.1875 -13.984375 
Q 42 -20.796875 29.203125 -20.796875 
Q 24.46875 -20.796875 20.265625 -20.09375 
Q 16.0625 -19.390625 12.109375 -17.921875 
L 12.109375 -9.1875 
Q 16.0625 -11.328125 19.921875 -12.34375 
Q 23.78125 -13.375 27.78125 -13.375 
Q 36.625 -13.375 41.015625 -8.765625 
Q 45.40625 -4.15625 45.40625 5.171875 
L 45.40625 9.625 
Q 42.625 4.78125 38.28125 2.390625 
Q 33.9375 0 27.875 0 
Q 17.828125 0 11.671875 7.65625 
Q 5.515625 15.328125 5.515625 27.984375 
Q 5.515625 40.671875 11.671875 48.328125 
Q 17.828125 56 27.875 56 
Q 33.9375 56 38.28125 53.609375 
Q 42.625 51.21875 45.40625 46.390625 
L 45.40625 54.6875 
L 54.390625 54.6875 
z
" id="DejaVuSans-103"/>
    </defs>
    <g transform="translate(181.680937 35.472)scale(0.12 -0.12)">
     <use xlink:href="#DejaVuSans-70"/>
     <use x="57.441406" xlink:href="#DejaVuSans-117"/>
     <use x="120.820312" xlink:href="#DejaVuSans-110"/>
     <use x="184.199219" xlink:href="#DejaVuSans-99"/>
     <use x="239.179688" xlink:href="#DejaVuSans-116"/>
     <use x="278.388672" xlink:href="#DejaVuSans-105"/>
     <use x="306.171875" xlink:href="#DejaVuSans-111"/>
     <use x="367.353516" xlink:href="#DejaVuSans-110"/>
     <use x="430.732422" xlink:href="#DejaVuSans-70"/>
     <use x="488.142578" xlink:href="#DejaVuSans-105"/>
     <use x="515.925781" xlink:href="#DejaVuSans-116"/>
     <use x="555.134766" xlink:href="#DejaVuSans-116"/>
     <use x="594.34375" xlink:href="#DejaVuSans-105"/>
     <use x="622.126953" xlink:href="#DejaVuSans-110"/>
     <use x="685.505859" xlink:href="#DejaVuSans-103"/>
     <use x="748.982422" xlink:href="#DejaVuSans-32"/>
     <use x="780.769531" xlink:href="#DejaVuSans-48"/>
     <use x="844.392578" xlink:href="#DejaVuSans-56"/>
    </g>
   </g>
   <g id="legend_1">
    <g id="patch_7">
     <path d="M 64.6 78.82825 
L 172.48125 78.82825 
Q 174.48125 78.82825 174.48125 76.82825 
L 174.48125 48.472 
Q 174.48125 46.472 172.48125 46.472 
L 64.6 46.472 
Q 62.6 46.472 62.6 48.472 
L 62.6 76.82825 
Q 62.6 78.82825 64.6 78.82825 
z
" style="fill:#ffffff;opacity:0.8;stroke:#cccccc;stroke-linejoin:miter;"/>
    </g>
    <g id="line2d_18"/>
    <g id="line2d_19">
     <g>
      <use style="fill:#ff0000;stroke:#ff0000;" x="76.6" xlink:href="#mb4d9549f74" y="54.570437"/>
     </g>
    </g>
    <g id="text_19">
     <!-- measured data -->
     <defs>
      <path d="M 52 44.1875 
Q 55.375 50.25 60.0625 53.125 
Q 64.75 56 71.09375 56 
Q 79.640625 56 84.28125 50.015625 
Q 88.921875 44.046875 88.921875 33.015625 
L 88.921875 0 
L 79.890625 0 
L 79.890625 32.71875 
Q 79.890625 40.578125 77.09375 44.375 
Q 74.3125 48.1875 68.609375 48.1875 
Q 61.625 48.1875 57.5625 43.546875 
Q 53.515625 38.921875 53.515625 30.90625 
L 53.515625 0 
L 44.484375 0 
L 44.484375 32.71875 
Q 44.484375 40.625 41.703125 44.40625 
Q 38.921875 48.1875 33.109375 48.1875 
Q 26.21875 48.1875 22.15625 43.53125 
Q 18.109375 38.875 18.109375 30.90625 
L 18.109375 0 
L 9.078125 0 
L 9.078125 54.6875 
L 18.109375 54.6875 
L 18.109375 46.1875 
Q 21.1875 51.21875 25.484375 53.609375 
Q 29.78125 56 35.6875 56 
Q 41.65625 56 45.828125 52.96875 
Q 50 49.953125 52 44.1875 
z
" id="DejaVuSans-109"/>
      <path d="M 41.109375 46.296875 
Q 39.59375 47.171875 37.8125 47.578125 
Q 36.03125 48 33.890625 48 
Q 26.265625 48 22.1875 43.046875 
Q 18.109375 38.09375 18.109375 28.8125 
L 18.109375 0 
L 9.078125 0 
L 9.078125 54.6875 
L 18.109375 54.6875 
L 18.109375 46.1875 
Q 20.953125 51.171875 25.484375 53.578125 
Q 30.03125 56 36.53125 56 
Q 37.453125 56 38.578125 55.875 
Q 39.703125 55.765625 41.0625 55.515625 
z
" id="DejaVuSans-114"/>
      <path d="M 45.40625 46.390625 
L 45.40625 75.984375 
L 54.390625 75.984375 
L 54.390625 0 
L 45.40625 0 
L 45.40625 8.203125 
Q 42.578125 3.328125 38.25 0.953125 
Q 33.9375 -1.421875 27.875 -1.421875 
Q 17.96875 -1.421875 11.734375 6.484375 
Q 5.515625 14.40625 5.515625 27.296875 
Q 5.515625 40.1875 11.734375 48.09375 
Q 17.96875 56 27.875 56 
Q 33.9375 56 38.25 53.625 
Q 42.578125 51.265625 45.40625 46.390625 
z
M 14.796875 27.296875 
Q 14.796875 17.390625 18.875 11.75 
Q 22.953125 6.109375 30.078125 6.109375 
Q 37.203125 6.109375 41.296875 11.75 
Q 45.40625 17.390625 45.40625 27.296875 
Q 45.40625 37.203125 41.296875 42.84375 
Q 37.203125 48.484375 30.078125 48.484375 
Q 22.953125 48.484375 18.875 42.84375 
Q 14.796875 37.203125 14.796875 27.296875 
z
" id="DejaVuSans-100"/>
     </defs>
     <g transform="translate(94.6 58.070437)scale(0.1 -0.1)">
      <use xlink:href="#DejaVuSans-109"/>
      <use x="97.412109" xlink:href="#DejaVuSans-101"/>
      <use x="158.935547" xlink:href="#DejaVuSans-97"/>
      <use x="220.214844" xlink:href="#DejaVuSans-115"/>
      <use x="272.314453" xlink:href="#DejaVuSans-117"/>
      <use x="335.693359" xlink:href="#DejaVuSans-114"/>
      <use x="376.775391" xlink:href="#DejaVuSans-101"/>
      <use x="438.298828" xlink:href="#DejaVuSans-100"/>
      <use x="501.775391" xlink:href="#DejaVuSans-32"/>
      <use x="533.5625" xlink:href="#DejaVuSans-100"/>
      <use x="597.039062" xlink:href="#DejaVuSans-97"/>
      <use x="658.318359" xlink:href="#DejaVuSans-116"/>
      <use x="697.527344" xlink:href="#DejaVuSans-97"/>
     </g>
    </g>
    <g id="line2d_20">
     <path d="M 66.6 69.248562 
L 86.6 69.248562 
" style="fill:none;stroke:#008000;stroke-linecap:square;stroke-width:1.5;"/>
    </g>
    <g id="line2d_21"/>
    <g id="text_20">
     <!-- linear data -->
     <g transform="translate(94.6 72.748562)scale(0.1 -0.1)">
      <use xlink:href="#DejaVuSans-108"/>
      <use x="27.783203" xlink:href="#DejaVuSans-105"/>
      <use x="55.566406" xlink:href="#DejaVuSans-110"/>
      <use x="118.945312" xlink:href="#DejaVuSans-101"/>
      <use x="180.46875" xlink:href="#DejaVuSans-97"/>
      <use x="241.748047" xlink:href="#DejaVuSans-114"/>
      <use x="282.861328" xlink:href="#DejaVuSans-32"/>
      <use x="314.648438" xlink:href="#DejaVuSans-100"/>
      <use x="378.125" xlink:href="#DejaVuSans-97"/>
      <use x="439.404297" xlink:href="#DejaVuSans-116"/>
      <use x="478.613281" xlink:href="#DejaVuSans-97"/>
     </g>
    </g>
   </g>
  </g>
 </g>
 <defs>
  <clipPath id="p454e2c243c">
   <rect height="266.112" width="357.12" x="57.6" y="41.472"/>
  </clipPath>
 </defs>
</svg>
