<?xml version="1.0" encoding="utf-8" standalone="no"?>
<!DOCTYPE svg PUBLIC "-//W3C//DTD SVG 1.1//EN"
  "http://www.w3.org/Graphics/SVG/1.1/DTD/svg11.dtd">
<!-- Created with matplotlib (https://matplotlib.org/) -->
<svg height="345.6pt" version="1.1" viewBox="0 0 460.8 345.6" width="460.8pt" xmlns="http://www.w3.org/2000/svg" xmlns:xlink="http://www.w3.org/1999/xlink">
 <defs>
  <style type="text/css">
*{stroke-linecap:butt;stroke-linejoin:round;}
  </style>
 </defs>
 <g id="figure_1">
  <g id="patch_1">
   <path d="M 0 345.6 
L 460.8 345.6 
L 460.8 0 
L 0 0 
z
" style="fill:#ffffff;"/>
  </g>
  <g id="axes_1">
   <g id="patch_2">
    <path d="M 57.6 307.584 
L 414.72 307.584 
L 414.72 41.472 
L 57.6 41.472 
z
" style="fill:#ffffff;"/>
   </g>
   <g id="matplotlib.axis_1">
    <g id="xtick_1">
     <g id="line2d_1">
      <defs>
       <path d="M 0 0 
L 0 3.5 
" id="ma24ec122b7" style="stroke:#000000;stroke-width:0.8;"/>
      </defs>
      <g>
       <use style="stroke:#000000;stroke-width:0.8;" x="70.428716" xlink:href="#ma24ec122b7" y="307.584"/>
      </g>
     </g>
     <g id="text_1">
      <!-- 0 -->
      <defs>
       <path d="M 31.78125 66.40625 
Q 24.171875 66.40625 20.328125 58.90625 
Q 16.5 51.421875 16.5 36.375 
Q 16.5 21.390625 20.328125 13.890625 
Q 24.171875 6.390625 31.78125 6.390625 
Q 39.453125 6.390625 43.28125 13.890625 
Q 47.125 21.390625 47.125 36.375 
Q 47.125 51.421875 43.28125 58.90625 
Q 39.453125 66.40625 31.78125 66.40625 
z
M 31.78125 74.21875 
Q 44.046875 74.21875 50.515625 64.515625 
Q 56.984375 54.828125 56.984375 36.375 
Q 56.984375 17.96875 50.515625 8.265625 
Q 44.046875 -1.421875 31.78125 -1.421875 
Q 19.53125 -1.421875 13.0625 8.265625 
Q 6.59375 17.96875 6.59375 36.375 
Q 6.59375 54.828125 13.0625 64.515625 
Q 19.53125 74.21875 31.78125 74.21875 
z
" id="DejaVuSans-48"/>
      </defs>
      <g transform="translate(67.247466 322.182437)scale(0.1 -0.1)">
       <use xlink:href="#DejaVuSans-48"/>
      </g>
     </g>
    </g>
    <g id="xtick_2">
     <g id="line2d_2">
      <g>
       <use style="stroke:#000000;stroke-width:0.8;" x="127.996704" xlink:href="#ma24ec122b7" y="307.584"/>
      </g>
     </g>
     <g id="text_2">
      <!-- 20 -->
      <defs>
       <path d="M 19.1875 8.296875 
L 53.609375 8.296875 
L 53.609375 0 
L 7.328125 0 
L 7.328125 8.296875 
Q 12.9375 14.109375 22.625 23.890625 
Q 32.328125 33.6875 34.8125 36.53125 
Q 39.546875 41.84375 41.421875 45.53125 
Q 43.3125 49.21875 43.3125 52.78125 
Q 43.3125 58.59375 39.234375 62.25 
Q 35.15625 65.921875 28.609375 65.921875 
Q 23.96875 65.921875 18.8125 64.3125 
Q 13.671875 62.703125 7.8125 59.421875 
L 7.8125 69.390625 
Q 13.765625 71.78125 18.9375 73 
Q 24.125 74.21875 28.421875 74.21875 
Q 39.75 74.21875 46.484375 68.546875 
Q 53.21875 62.890625 53.21875 53.421875 
Q 53.21875 48.921875 51.53125 44.890625 
Q 49.859375 40.875 45.40625 35.40625 
Q 44.1875 33.984375 37.640625 27.21875 
Q 31.109375 20.453125 19.1875 8.296875 
z
" id="DejaVuSans-50"/>
      </defs>
      <g transform="translate(121.634204 322.182437)scale(0.1 -0.1)">
       <use xlink:href="#DejaVuSans-50"/>
       <use x="63.623047" xlink:href="#DejaVuSans-48"/>
      </g>
     </g>
    </g>
    <g id="xtick_3">
     <g id="line2d_3">
      <g>
       <use style="stroke:#000000;stroke-width:0.8;" x="185.564692" xlink:href="#ma24ec122b7" y="307.584"/>
      </g>
     </g>
     <g id="text_3">
      <!-- 40 -->
      <defs>
       <path d="M 37.796875 64.3125 
L 12.890625 25.390625 
L 37.796875 25.390625 
z
M 35.203125 72.90625 
L 47.609375 72.90625 
L 47.609375 25.390625 
L 58.015625 25.390625 
L 58.015625 17.1875 
L 47.609375 17.1875 
L 47.609375 0 
L 37.796875 0 
L 37.796875 17.1875 
L 4.890625 17.1875 
L 4.890625 26.703125 
z
" id="DejaVuSans-52"/>
      </defs>
      <g transform="translate(179.202192 322.182437)scale(0.1 -0.1)">
       <use xlink:href="#DejaVuSans-52"/>
       <use x="63.623047" xlink:href="#DejaVuSans-48"/>
      </g>
     </g>
    </g>
    <g id="xtick_4">
     <g id="line2d_4">
      <g>
       <use style="stroke:#000000;stroke-width:0.8;" x="243.132681" xlink:href="#ma24ec122b7" y="307.584"/>
      </g>
     </g>
     <g id="text_4">
      <!-- 60 -->
      <defs>
       <path d="M 33.015625 40.375 
Q 26.375 40.375 22.484375 35.828125 
Q 18.609375 31.296875 18.609375 23.390625 
Q 18.609375 15.53125 22.484375 10.953125 
Q 26.375 6.390625 33.015625 6.390625 
Q 39.65625 6.390625 43.53125 10.953125 
Q 47.40625 15.53125 47.40625 23.390625 
Q 47.40625 31.296875 43.53125 35.828125 
Q 39.65625 40.375 33.015625 40.375 
z
M 52.59375 71.296875 
L 52.59375 62.3125 
Q 48.875 64.0625 45.09375 64.984375 
Q 41.3125 65.921875 37.59375 65.921875 
Q 27.828125 65.921875 22.671875 59.328125 
Q 17.53125 52.734375 16.796875 39.40625 
Q 19.671875 43.65625 24.015625 45.921875 
Q 28.375 48.1875 33.59375 48.1875 
Q 44.578125 48.1875 50.953125 41.515625 
Q 57.328125 34.859375 57.328125 23.390625 
Q 57.328125 12.15625 50.6875 5.359375 
Q 44.046875 -1.421875 33.015625 -1.421875 
Q 20.359375 -1.421875 13.671875 8.265625 
Q 6.984375 17.96875 6.984375 36.375 
Q 6.984375 53.65625 15.1875 63.9375 
Q 23.390625 74.21875 37.203125 74.21875 
Q 40.921875 74.21875 44.703125 73.484375 
Q 48.484375 72.75 52.59375 71.296875 
z
" id="DejaVuSans-54"/>
      </defs>
      <g transform="translate(236.770181 322.182437)scale(0.1 -0.1)">
       <use xlink:href="#DejaVuSans-54"/>
       <use x="63.623047" xlink:href="#DejaVuSans-48"/>
      </g>
     </g>
    </g>
    <g id="xtick_5">
     <g id="line2d_5">
      <g>
       <use style="stroke:#000000;stroke-width:0.8;" x="300.700669" xlink:href="#ma24ec122b7" y="307.584"/>
      </g>
     </g>
     <g id="text_5">
      <!-- 80 -->
      <defs>
       <path d="M 31.78125 34.625 
Q 24.75 34.625 20.71875 30.859375 
Q 16.703125 27.09375 16.703125 20.515625 
Q 16.703125 13.921875 20.71875 10.15625 
Q 24.75 6.390625 31.78125 6.390625 
Q 38.8125 6.390625 42.859375 10.171875 
Q 46.921875 13.96875 46.921875 20.515625 
Q 46.921875 27.09375 42.890625 30.859375 
Q 38.875 34.625 31.78125 34.625 
z
M 21.921875 38.8125 
Q 15.578125 40.375 12.03125 44.71875 
Q 8.5 49.078125 8.5 55.328125 
Q 8.5 64.0625 14.71875 69.140625 
Q 20.953125 74.21875 31.78125 74.21875 
Q 42.671875 74.21875 48.875 69.140625 
Q 55.078125 64.0625 55.078125 55.328125 
Q 55.078125 49.078125 51.53125 44.71875 
Q 48 40.375 41.703125 38.8125 
Q 48.828125 37.15625 52.796875 32.3125 
Q 56.78125 27.484375 56.78125 20.515625 
Q 56.78125 9.90625 50.3125 4.234375 
Q 43.84375 -1.421875 31.78125 -1.421875 
Q 19.734375 -1.421875 13.25 4.234375 
Q 6.78125 9.90625 6.78125 20.515625 
Q 6.78125 27.484375 10.78125 32.3125 
Q 14.796875 37.15625 21.921875 38.8125 
z
M 18.3125 54.390625 
Q 18.3125 48.734375 21.84375 45.5625 
Q 25.390625 42.390625 31.78125 42.390625 
Q 38.140625 42.390625 41.71875 45.5625 
Q 45.3125 48.734375 45.3125 54.390625 
Q 45.3125 60.0625 41.71875 63.234375 
Q 38.140625 66.40625 31.78125 66.40625 
Q 25.390625 66.40625 21.84375 63.234375 
Q 18.3125 60.0625 18.3125 54.390625 
z
" id="DejaVuSans-56"/>
      </defs>
      <g transform="translate(294.338169 322.182437)scale(0.1 -0.1)">
       <use xlink:href="#DejaVuSans-56"/>
       <use x="63.623047" xlink:href="#DejaVuSans-48"/>
      </g>
     </g>
    </g>
    <g id="xtick_6">
     <g id="line2d_6">
      <g>
       <use style="stroke:#000000;stroke-width:0.8;" x="358.268657" xlink:href="#ma24ec122b7" y="307.584"/>
      </g>
     </g>
     <g id="text_6">
      <!-- 100 -->
      <defs>
       <path d="M 12.40625 8.296875 
L 28.515625 8.296875 
L 28.515625 63.921875 
L 10.984375 60.40625 
L 10.984375 69.390625 
L 28.421875 72.90625 
L 38.28125 72.90625 
L 38.28125 8.296875 
L 54.390625 8.296875 
L 54.390625 0 
L 12.40625 0 
z
" id="DejaVuSans-49"/>
      </defs>
      <g transform="translate(348.724907 322.182437)scale(0.1 -0.1)">
       <use xlink:href="#DejaVuSans-49"/>
       <use x="63.623047" xlink:href="#DejaVuSans-48"/>
       <use x="127.246094" xlink:href="#DejaVuSans-48"/>
      </g>
     </g>
    </g>
    <g id="text_7">
     <!-- x values -->
     <defs>
      <path d="M 54.890625 54.6875 
L 35.109375 28.078125 
L 55.90625 0 
L 45.3125 0 
L 29.390625 21.484375 
L 13.484375 0 
L 2.875 0 
L 24.125 28.609375 
L 4.6875 54.6875 
L 15.28125 54.6875 
L 29.78125 35.203125 
L 44.28125 54.6875 
z
" id="DejaVuSans-120"/>
      <path id="DejaVuSans-32"/>
      <path d="M 2.984375 54.6875 
L 12.5 54.6875 
L 29.59375 8.796875 
L 46.6875 54.6875 
L 56.203125 54.6875 
L 35.6875 0 
L 23.484375 0 
z
" id="DejaVuSans-118"/>
      <path d="M 34.28125 27.484375 
Q 23.390625 27.484375 19.1875 25 
Q 14.984375 22.515625 14.984375 16.5 
Q 14.984375 11.71875 18.140625 8.90625 
Q 21.296875 6.109375 26.703125 6.109375 
Q 34.1875 6.109375 38.703125 11.40625 
Q 43.21875 16.703125 43.21875 25.484375 
L 43.21875 27.484375 
z
M 52.203125 31.203125 
L 52.203125 0 
L 43.21875 0 
L 43.21875 8.296875 
Q 40.140625 3.328125 35.546875 0.953125 
Q 30.953125 -1.421875 24.3125 -1.421875 
Q 15.921875 -1.421875 10.953125 3.296875 
Q 6 8.015625 6 15.921875 
Q 6 25.140625 12.171875 29.828125 
Q 18.359375 34.515625 30.609375 34.515625 
L 43.21875 34.515625 
L 43.21875 35.40625 
Q 43.21875 41.609375 39.140625 45 
Q 35.0625 48.390625 27.6875 48.390625 
Q 23 48.390625 18.546875 47.265625 
Q 14.109375 46.140625 10.015625 43.890625 
L 10.015625 52.203125 
Q 14.9375 54.109375 19.578125 55.046875 
Q 24.21875 56 28.609375 56 
Q 40.484375 56 46.34375 49.84375 
Q 52.203125 43.703125 52.203125 31.203125 
z
" id="DejaVuSans-97"/>
      <path d="M 9.421875 75.984375 
L 18.40625 75.984375 
L 18.40625 0 
L 9.421875 0 
z
" id="DejaVuSans-108"/>
      <path d="M 8.5 21.578125 
L 8.5 54.6875 
L 17.484375 54.6875 
L 17.484375 21.921875 
Q 17.484375 14.15625 20.5 10.265625 
Q 23.53125 6.390625 29.59375 6.390625 
Q 36.859375 6.390625 41.078125 11.03125 
Q 45.3125 15.671875 45.3125 23.6875 
L 45.3125 54.6875 
L 54.296875 54.6875 
L 54.296875 0 
L 45.3125 0 
L 45.3125 8.40625 
Q 42.046875 3.421875 37.71875 1 
Q 33.40625 -1.421875 27.6875 -1.421875 
Q 18.265625 -1.421875 13.375 4.4375 
Q 8.5 10.296875 8.5 21.578125 
z
M 31.109375 56 
z
" id="DejaVuSans-117"/>
      <path d="M 56.203125 29.59375 
L 56.203125 25.203125 
L 14.890625 25.203125 
Q 15.484375 15.921875 20.484375 11.0625 
Q 25.484375 6.203125 34.421875 6.203125 
Q 39.59375 6.203125 44.453125 7.46875 
Q 49.3125 8.734375 54.109375 11.28125 
L 54.109375 2.78125 
Q 49.265625 0.734375 44.1875 -0.34375 
Q 39.109375 -1.421875 33.890625 -1.421875 
Q 20.796875 -1.421875 13.15625 6.1875 
Q 5.515625 13.8125 5.515625 26.8125 
Q 5.515625 40.234375 12.765625 48.109375 
Q 20.015625 56 32.328125 56 
Q 43.359375 56 49.78125 48.890625 
Q 56.203125 41.796875 56.203125 29.59375 
z
M 47.21875 32.234375 
Q 47.125 39.59375 43.09375 43.984375 
Q 39.0625 48.390625 32.421875 48.390625 
Q 24.90625 48.390625 20.390625 44.140625 
Q 15.875 39.890625 15.1875 32.171875 
z
" id="DejaVuSans-101"/>
      <path d="M 44.28125 53.078125 
L 44.28125 44.578125 
Q 40.484375 46.53125 36.375 47.5 
Q 32.28125 48.484375 27.875 48.484375 
Q 21.1875 48.484375 17.84375 46.4375 
Q 14.5 44.390625 14.5 40.28125 
Q 14.5 37.15625 16.890625 35.375 
Q 19.28125 33.59375 26.515625 31.984375 
L 29.59375 31.296875 
Q 39.15625 29.25 43.1875 25.515625 
Q 47.21875 21.78125 47.21875 15.09375 
Q 47.21875 7.46875 41.1875 3.015625 
Q 35.15625 -1.421875 24.609375 -1.421875 
Q 20.21875 -1.421875 15.453125 -0.5625 
Q 10.6875 0.296875 5.421875 2 
L 5.421875 11.28125 
Q 10.40625 8.6875 15.234375 7.390625 
Q 20.0625 6.109375 24.8125 6.109375 
Q 31.15625 6.109375 34.5625 8.28125 
Q 37.984375 10.453125 37.984375 14.40625 
Q 37.984375 18.0625 35.515625 20.015625 
Q 33.0625 21.96875 24.703125 23.78125 
L 21.578125 24.515625 
Q 13.234375 26.265625 9.515625 29.90625 
Q 5.8125 33.546875 5.8125 39.890625 
Q 5.8125 47.609375 11.28125 51.796875 
Q 16.75 56 26.8125 56 
Q 31.78125 56 36.171875 55.265625 
Q 40.578125 54.546875 44.28125 53.078125 
z
" id="DejaVuSans-115"/>
     </defs>
     <g transform="translate(215.349063 335.860562)scale(0.1 -0.1)">
      <use xlink:href="#DejaVuSans-120"/>
      <use x="59.179688" xlink:href="#DejaVuSans-32"/>
      <use x="90.966797" xlink:href="#DejaVuSans-118"/>
      <use x="150.146484" xlink:href="#DejaVuSans-97"/>
      <use x="211.425781" xlink:href="#DejaVuSans-108"/>
      <use x="239.208984" xlink:href="#DejaVuSans-117"/>
      <use x="302.587891" xlink:href="#DejaVuSans-101"/>
      <use x="364.111328" xlink:href="#DejaVuSans-115"/>
     </g>
    </g>
   </g>
   <g id="matplotlib.axis_2">
    <g id="ytick_1">
     <g id="line2d_7">
      <defs>
       <path d="M 0 0 
L -3.5 0 
" id="m87e972bea5" style="stroke:#000000;stroke-width:0.8;"/>
      </defs>
      <g>
       <use style="stroke:#000000;stroke-width:0.8;" x="57.6" xlink:href="#m87e972bea5" y="294.195405"/>
      </g>
     </g>
     <g id="text_8">
      <!-- 0 -->
      <g transform="translate(44.2375 297.994624)scale(0.1 -0.1)">
       <use xlink:href="#DejaVuSans-48"/>
      </g>
     </g>
    </g>
    <g id="ytick_2">
     <g id="line2d_8">
      <g>
       <use style="stroke:#000000;stroke-width:0.8;" x="57.6" xlink:href="#m87e972bea5" y="243.098719"/>
      </g>
     </g>
     <g id="text_9">
      <!-- 200 -->
      <g transform="translate(31.5125 246.897937)scale(0.1 -0.1)">
       <use xlink:href="#DejaVuSans-50"/>
       <use x="63.623047" xlink:href="#DejaVuSans-48"/>
       <use x="127.246094" xlink:href="#DejaVuSans-48"/>
      </g>
     </g>
    </g>
    <g id="ytick_3">
     <g id="line2d_9">
      <g>
       <use style="stroke:#000000;stroke-width:0.8;" x="57.6" xlink:href="#m87e972bea5" y="192.002032"/>
      </g>
     </g>
     <g id="text_10">
      <!-- 400 -->
      <g transform="translate(31.5125 195.801251)scale(0.1 -0.1)">
       <use xlink:href="#DejaVuSans-52"/>
       <use x="63.623047" xlink:href="#DejaVuSans-48"/>
       <use x="127.246094" xlink:href="#DejaVuSans-48"/>
      </g>
     </g>
    </g>
    <g id="ytick_4">
     <g id="line2d_10">
      <g>
       <use style="stroke:#000000;stroke-width:0.8;" x="57.6" xlink:href="#m87e972bea5" y="140.905346"/>
      </g>
     </g>
     <g id="text_11">
      <!-- 600 -->
      <g transform="translate(31.5125 144.704565)scale(0.1 -0.1)">
       <use xlink:href="#DejaVuSans-54"/>
       <use x="63.623047" xlink:href="#DejaVuSans-48"/>
       <use x="127.246094" xlink:href="#DejaVuSans-48"/>
      </g>
     </g>
    </g>
    <g id="ytick_5">
     <g id="line2d_11">
      <g>
       <use style="stroke:#000000;stroke-width:0.8;" x="57.6" xlink:href="#m87e972bea5" y="89.80866"/>
      </g>
     </g>
     <g id="text_12">
      <!-- 800 -->
      <g transform="translate(31.5125 93.607879)scale(0.1 -0.1)">
       <use xlink:href="#DejaVuSans-56"/>
       <use x="63.623047" xlink:href="#DejaVuSans-48"/>
       <use x="127.246094" xlink:href="#DejaVuSans-48"/>
      </g>
     </g>
    </g>
    <g id="text_13">
     <!-- y values -->
     <defs>
      <path d="M 32.171875 -5.078125 
Q 28.375 -14.84375 24.75 -17.8125 
Q 21.140625 -20.796875 15.09375 -20.796875 
L 7.90625 -20.796875 
L 7.90625 -13.28125 
L 13.1875 -13.28125 
Q 16.890625 -13.28125 18.9375 -11.515625 
Q 21 -9.765625 23.484375 -3.21875 
L 25.09375 0.875 
L 2.984375 54.6875 
L 12.5 54.6875 
L 29.59375 11.921875 
L 46.6875 54.6875 
L 56.203125 54.6875 
z
" id="DejaVuSans-121"/>
     </defs>
     <g transform="translate(25.432812 195.338937)rotate(-90)scale(0.1 -0.1)">
      <use xlink:href="#DejaVuSans-121"/>
      <use x="59.179688" xlink:href="#DejaVuSans-32"/>
      <use x="90.966797" xlink:href="#DejaVuSans-118"/>
      <use x="150.146484" xlink:href="#DejaVuSans-97"/>
      <use x="211.425781" xlink:href="#DejaVuSans-108"/>
      <use x="239.208984" xlink:href="#DejaVuSans-117"/>
      <use x="302.587891" xlink:href="#DejaVuSans-101"/>
      <use x="364.111328" xlink:href="#DejaVuSans-115"/>
     </g>
    </g>
   </g>
   <g id="line2d_12">
    <defs>
     <path d="M 0 1 
C 0.265203 1 0.51958 0.894634 0.707107 0.707107 
C 0.894634 0.51958 1 0.265203 1 0 
C 1 -0.265203 0.894634 -0.51958 0.707107 -0.707107 
C 0.51958 -0.894634 0.265203 -1 0 -1 
C -0.265203 -1 -0.51958 -0.894634 -0.707107 -0.707107 
C -0.894634 -0.51958 -1 -0.265203 -1 0 
C -1 0.265203 -0.894634 0.51958 -0.707107 0.707107 
C -0.51958 0.894634 -0.265203 1 0 1 
z
" id="mf0f0d08ffd" style="stroke:#ff0000;"/>
    </defs>
    <g clip-path="url(#p13a5f364c6)">
     <use style="fill:#ff0000;stroke:#ff0000;" x="73.832727" xlink:href="#mf0f0d08ffd" y="103.356125"/>
     <use style="fill:#ff0000;stroke:#ff0000;" x="75.401107" xlink:href="#mf0f0d08ffd" y="109.105274"/>
     <use style="fill:#ff0000;stroke:#ff0000;" x="76.969486" xlink:href="#mf0f0d08ffd" y="135.108348"/>
     <use style="fill:#ff0000;stroke:#ff0000;" x="78.537866" xlink:href="#mf0f0d08ffd" y="128.177729"/>
     <use style="fill:#ff0000;stroke:#ff0000;" x="80.106245" xlink:href="#mf0f0d08ffd" y="114.585496"/>
     <use style="fill:#ff0000;stroke:#ff0000;" x="81.674625" xlink:href="#mf0f0d08ffd" y="90.450032"/>
     <use style="fill:#ff0000;stroke:#ff0000;" x="83.243004" xlink:href="#mf0f0d08ffd" y="111.61706"/>
     <use style="fill:#ff0000;stroke:#ff0000;" x="84.811383" xlink:href="#mf0f0d08ffd" y="129.961322"/>
     <use style="fill:#ff0000;stroke:#ff0000;" x="86.379763" xlink:href="#mf0f0d08ffd" y="163.111234"/>
     <use style="fill:#ff0000;stroke:#ff0000;" x="87.948142" xlink:href="#mf0f0d08ffd" y="104.50531"/>
     <use style="fill:#ff0000;stroke:#ff0000;" x="89.516522" xlink:href="#mf0f0d08ffd" y="141.915652"/>
     <use style="fill:#ff0000;stroke:#ff0000;" x="91.084901" xlink:href="#mf0f0d08ffd" y="168.94491"/>
     <use style="fill:#ff0000;stroke:#ff0000;" x="92.653281" xlink:href="#mf0f0d08ffd" y="124.149908"/>
     <use style="fill:#ff0000;stroke:#ff0000;" x="94.22166" xlink:href="#mf0f0d08ffd" y="150.143524"/>
     <use style="fill:#ff0000;stroke:#ff0000;" x="95.79004" xlink:href="#mf0f0d08ffd" y="149.186978"/>
     <use style="fill:#ff0000;stroke:#ff0000;" x="97.358419" xlink:href="#mf0f0d08ffd" y="181.927801"/>
     <use style="fill:#ff0000;stroke:#ff0000;" x="98.926798" xlink:href="#mf0f0d08ffd" y="158.457613"/>
     <use style="fill:#ff0000;stroke:#ff0000;" x="100.495178" xlink:href="#mf0f0d08ffd" y="167.965949"/>
     <use style="fill:#ff0000;stroke:#ff0000;" x="102.063557" xlink:href="#mf0f0d08ffd" y="139.993175"/>
     <use style="fill:#ff0000;stroke:#ff0000;" x="103.631937" xlink:href="#mf0f0d08ffd" y="184.653432"/>
     <use style="fill:#ff0000;stroke:#ff0000;" x="105.200316" xlink:href="#mf0f0d08ffd" y="152.468865"/>
     <use style="fill:#ff0000;stroke:#ff0000;" x="106.768696" xlink:href="#mf0f0d08ffd" y="176.826017"/>
     <use style="fill:#ff0000;stroke:#ff0000;" x="108.337075" xlink:href="#mf0f0d08ffd" y="177.052007"/>
     <use style="fill:#ff0000;stroke:#ff0000;" x="109.905455" xlink:href="#mf0f0d08ffd" y="158.577613"/>
     <use style="fill:#ff0000;stroke:#ff0000;" x="111.473834" xlink:href="#mf0f0d08ffd" y="201.078224"/>
     <use style="fill:#ff0000;stroke:#ff0000;" x="113.042213" xlink:href="#mf0f0d08ffd" y="192.680329"/>
     <use style="fill:#ff0000;stroke:#ff0000;" x="114.610593" xlink:href="#mf0f0d08ffd" y="209.294274"/>
     <use style="fill:#ff0000;stroke:#ff0000;" x="116.178972" xlink:href="#mf0f0d08ffd" y="172.730831"/>
     <use style="fill:#ff0000;stroke:#ff0000;" x="117.747352" xlink:href="#mf0f0d08ffd" y="207.999638"/>
     <use style="fill:#ff0000;stroke:#ff0000;" x="119.315731" xlink:href="#mf0f0d08ffd" y="182.569002"/>
     <use style="fill:#ff0000;stroke:#ff0000;" x="120.884111" xlink:href="#mf0f0d08ffd" y="203.50859"/>
     <use style="fill:#ff0000;stroke:#ff0000;" x="122.45249" xlink:href="#mf0f0d08ffd" y="214.729688"/>
     <use style="fill:#ff0000;stroke:#ff0000;" x="124.02087" xlink:href="#mf0f0d08ffd" y="190.136644"/>
     <use style="fill:#ff0000;stroke:#ff0000;" x="125.589249" xlink:href="#mf0f0d08ffd" y="188.185585"/>
     <use style="fill:#ff0000;stroke:#ff0000;" x="127.157628" xlink:href="#mf0f0d08ffd" y="208.077342"/>
     <use style="fill:#ff0000;stroke:#ff0000;" x="128.726008" xlink:href="#mf0f0d08ffd" y="200.270929"/>
     <use style="fill:#ff0000;stroke:#ff0000;" x="130.294387" xlink:href="#mf0f0d08ffd" y="227.441659"/>
     <use style="fill:#ff0000;stroke:#ff0000;" x="131.862767" xlink:href="#mf0f0d08ffd" y="206.334322"/>
     <use style="fill:#ff0000;stroke:#ff0000;" x="133.431146" xlink:href="#mf0f0d08ffd" y="222.923822"/>
     <use style="fill:#ff0000;stroke:#ff0000;" x="134.999526" xlink:href="#mf0f0d08ffd" y="222.935898"/>
     <use style="fill:#ff0000;stroke:#ff0000;" x="136.567905" xlink:href="#mf0f0d08ffd" y="221.108792"/>
     <use style="fill:#ff0000;stroke:#ff0000;" x="138.136285" xlink:href="#mf0f0d08ffd" y="211.539133"/>
     <use style="fill:#ff0000;stroke:#ff0000;" x="139.704664" xlink:href="#mf0f0d08ffd" y="213.42647"/>
     <use style="fill:#ff0000;stroke:#ff0000;" x="141.273043" xlink:href="#mf0f0d08ffd" y="229.389331"/>
     <use style="fill:#ff0000;stroke:#ff0000;" x="142.841423" xlink:href="#mf0f0d08ffd" y="231.44979"/>
     <use style="fill:#ff0000;stroke:#ff0000;" x="144.409802" xlink:href="#mf0f0d08ffd" y="222.616897"/>
     <use style="fill:#ff0000;stroke:#ff0000;" x="145.978182" xlink:href="#mf0f0d08ffd" y="242.004477"/>
     <use style="fill:#ff0000;stroke:#ff0000;" x="147.546561" xlink:href="#mf0f0d08ffd" y="233.86383"/>
     <use style="fill:#ff0000;stroke:#ff0000;" x="149.114941" xlink:href="#mf0f0d08ffd" y="239.423356"/>
     <use style="fill:#ff0000;stroke:#ff0000;" x="150.68332" xlink:href="#mf0f0d08ffd" y="256.490038"/>
     <use style="fill:#ff0000;stroke:#ff0000;" x="152.2517" xlink:href="#mf0f0d08ffd" y="244.435479"/>
     <use style="fill:#ff0000;stroke:#ff0000;" x="153.820079" xlink:href="#mf0f0d08ffd" y="250.712595"/>
     <use style="fill:#ff0000;stroke:#ff0000;" x="155.388458" xlink:href="#mf0f0d08ffd" y="244.34161"/>
     <use style="fill:#ff0000;stroke:#ff0000;" x="156.956838" xlink:href="#mf0f0d08ffd" y="253.589316"/>
     <use style="fill:#ff0000;stroke:#ff0000;" x="158.525217" xlink:href="#mf0f0d08ffd" y="251.538806"/>
     <use style="fill:#ff0000;stroke:#ff0000;" x="160.093597" xlink:href="#mf0f0d08ffd" y="255.335178"/>
     <use style="fill:#ff0000;stroke:#ff0000;" x="161.661976" xlink:href="#mf0f0d08ffd" y="256.447083"/>
     <use style="fill:#ff0000;stroke:#ff0000;" x="163.230356" xlink:href="#mf0f0d08ffd" y="248.068379"/>
     <use style="fill:#ff0000;stroke:#ff0000;" x="164.798735" xlink:href="#mf0f0d08ffd" y="253.02277"/>
     <use style="fill:#ff0000;stroke:#ff0000;" x="166.367115" xlink:href="#mf0f0d08ffd" y="258.390902"/>
     <use style="fill:#ff0000;stroke:#ff0000;" x="167.935494" xlink:href="#mf0f0d08ffd" y="261.302622"/>
     <use style="fill:#ff0000;stroke:#ff0000;" x="169.503874" xlink:href="#mf0f0d08ffd" y="263.889614"/>
     <use style="fill:#ff0000;stroke:#ff0000;" x="171.072253" xlink:href="#mf0f0d08ffd" y="257.062776"/>
     <use style="fill:#ff0000;stroke:#ff0000;" x="172.640632" xlink:href="#mf0f0d08ffd" y="270.043765"/>
     <use style="fill:#ff0000;stroke:#ff0000;" x="174.209012" xlink:href="#mf0f0d08ffd" y="269.930003"/>
     <use style="fill:#ff0000;stroke:#ff0000;" x="175.777391" xlink:href="#mf0f0d08ffd" y="275.936284"/>
     <use style="fill:#ff0000;stroke:#ff0000;" x="177.345771" xlink:href="#mf0f0d08ffd" y="273.301575"/>
     <use style="fill:#ff0000;stroke:#ff0000;" x="178.91415" xlink:href="#mf0f0d08ffd" y="263.358741"/>
     <use style="fill:#ff0000;stroke:#ff0000;" x="180.48253" xlink:href="#mf0f0d08ffd" y="271.92618"/>
     <use style="fill:#ff0000;stroke:#ff0000;" x="182.050909" xlink:href="#mf0f0d08ffd" y="268.49989"/>
     <use style="fill:#ff0000;stroke:#ff0000;" x="183.619289" xlink:href="#mf0f0d08ffd" y="277.083002"/>
     <use style="fill:#ff0000;stroke:#ff0000;" x="185.187668" xlink:href="#mf0f0d08ffd" y="270.297045"/>
     <use style="fill:#ff0000;stroke:#ff0000;" x="186.756047" xlink:href="#mf0f0d08ffd" y="267.774472"/>
     <use style="fill:#ff0000;stroke:#ff0000;" x="188.324427" xlink:href="#mf0f0d08ffd" y="278.52853"/>
     <use style="fill:#ff0000;stroke:#ff0000;" x="189.892806" xlink:href="#mf0f0d08ffd" y="270.958937"/>
     <use style="fill:#ff0000;stroke:#ff0000;" x="191.461186" xlink:href="#mf0f0d08ffd" y="279.439714"/>
     <use style="fill:#ff0000;stroke:#ff0000;" x="193.029565" xlink:href="#mf0f0d08ffd" y="277.187115"/>
     <use style="fill:#ff0000;stroke:#ff0000;" x="194.597945" xlink:href="#mf0f0d08ffd" y="277.802899"/>
     <use style="fill:#ff0000;stroke:#ff0000;" x="196.166324" xlink:href="#mf0f0d08ffd" y="285.806583"/>
     <use style="fill:#ff0000;stroke:#ff0000;" x="197.734704" xlink:href="#mf0f0d08ffd" y="281.205329"/>
     <use style="fill:#ff0000;stroke:#ff0000;" x="199.303083" xlink:href="#mf0f0d08ffd" y="281.860783"/>
     <use style="fill:#ff0000;stroke:#ff0000;" x="200.871462" xlink:href="#mf0f0d08ffd" y="281.996202"/>
     <use style="fill:#ff0000;stroke:#ff0000;" x="202.439842" xlink:href="#mf0f0d08ffd" y="287.765014"/>
     <use style="fill:#ff0000;stroke:#ff0000;" x="204.008221" xlink:href="#mf0f0d08ffd" y="279.522423"/>
     <use style="fill:#ff0000;stroke:#ff0000;" x="205.576601" xlink:href="#mf0f0d08ffd" y="286.886331"/>
     <use style="fill:#ff0000;stroke:#ff0000;" x="207.14498" xlink:href="#mf0f0d08ffd" y="286.718581"/>
     <use style="fill:#ff0000;stroke:#ff0000;" x="208.71336" xlink:href="#mf0f0d08ffd" y="290.59219"/>
     <use style="fill:#ff0000;stroke:#ff0000;" x="210.281739" xlink:href="#mf0f0d08ffd" y="283.905358"/>
     <use style="fill:#ff0000;stroke:#ff0000;" x="211.850119" xlink:href="#mf0f0d08ffd" y="289.821844"/>
     <use style="fill:#ff0000;stroke:#ff0000;" x="213.418498" xlink:href="#mf0f0d08ffd" y="290.625812"/>
     <use style="fill:#ff0000;stroke:#ff0000;" x="214.986877" xlink:href="#mf0f0d08ffd" y="291.200862"/>
     <use style="fill:#ff0000;stroke:#ff0000;" x="216.555257" xlink:href="#mf0f0d08ffd" y="292.099075"/>
     <use style="fill:#ff0000;stroke:#ff0000;" x="218.123636" xlink:href="#mf0f0d08ffd" y="292.938205"/>
     <use style="fill:#ff0000;stroke:#ff0000;" x="219.692016" xlink:href="#mf0f0d08ffd" y="286.689654"/>
     <use style="fill:#ff0000;stroke:#ff0000;" x="221.260395" xlink:href="#mf0f0d08ffd" y="287.180421"/>
     <use style="fill:#ff0000;stroke:#ff0000;" x="222.828775" xlink:href="#mf0f0d08ffd" y="286.371446"/>
     <use style="fill:#ff0000;stroke:#ff0000;" x="224.397154" xlink:href="#mf0f0d08ffd" y="290.231994"/>
     <use style="fill:#ff0000;stroke:#ff0000;" x="225.965534" xlink:href="#mf0f0d08ffd" y="284.832095"/>
     <use style="fill:#ff0000;stroke:#ff0000;" x="227.533913" xlink:href="#mf0f0d08ffd" y="286.453434"/>
     <use style="fill:#ff0000;stroke:#ff0000;" x="229.102292" xlink:href="#mf0f0d08ffd" y="292.118748"/>
     <use style="fill:#ff0000;stroke:#ff0000;" x="230.670672" xlink:href="#mf0f0d08ffd" y="295.123819"/>
     <use style="fill:#ff0000;stroke:#ff0000;" x="232.239051" xlink:href="#mf0f0d08ffd" y="285.745511"/>
     <use style="fill:#ff0000;stroke:#ff0000;" x="233.807431" xlink:href="#mf0f0d08ffd" y="291.506438"/>
     <use style="fill:#ff0000;stroke:#ff0000;" x="235.37581" xlink:href="#mf0f0d08ffd" y="292.018527"/>
     <use style="fill:#ff0000;stroke:#ff0000;" x="236.94419" xlink:href="#mf0f0d08ffd" y="293.598975"/>
     <use style="fill:#ff0000;stroke:#ff0000;" x="238.512569" xlink:href="#mf0f0d08ffd" y="288.002954"/>
     <use style="fill:#ff0000;stroke:#ff0000;" x="240.080949" xlink:href="#mf0f0d08ffd" y="290.650274"/>
     <use style="fill:#ff0000;stroke:#ff0000;" x="241.649328" xlink:href="#mf0f0d08ffd" y="287.474012"/>
     <use style="fill:#ff0000;stroke:#ff0000;" x="243.217708" xlink:href="#mf0f0d08ffd" y="292.222598"/>
     <use style="fill:#ff0000;stroke:#ff0000;" x="244.786087" xlink:href="#mf0f0d08ffd" y="288.197289"/>
     <use style="fill:#ff0000;stroke:#ff0000;" x="246.354466" xlink:href="#mf0f0d08ffd" y="290.82768"/>
     <use style="fill:#ff0000;stroke:#ff0000;" x="247.922846" xlink:href="#mf0f0d08ffd" y="295.488"/>
     <use style="fill:#ff0000;stroke:#ff0000;" x="249.491225" xlink:href="#mf0f0d08ffd" y="292.369704"/>
     <use style="fill:#ff0000;stroke:#ff0000;" x="251.059605" xlink:href="#mf0f0d08ffd" y="290.071818"/>
     <use style="fill:#ff0000;stroke:#ff0000;" x="252.627984" xlink:href="#mf0f0d08ffd" y="288.868753"/>
     <use style="fill:#ff0000;stroke:#ff0000;" x="254.196364" xlink:href="#mf0f0d08ffd" y="288.551005"/>
     <use style="fill:#ff0000;stroke:#ff0000;" x="255.764743" xlink:href="#mf0f0d08ffd" y="292.317159"/>
     <use style="fill:#ff0000;stroke:#ff0000;" x="257.333123" xlink:href="#mf0f0d08ffd" y="292.367256"/>
     <use style="fill:#ff0000;stroke:#ff0000;" x="258.901502" xlink:href="#mf0f0d08ffd" y="288.111008"/>
     <use style="fill:#ff0000;stroke:#ff0000;" x="260.469881" xlink:href="#mf0f0d08ffd" y="283.546792"/>
     <use style="fill:#ff0000;stroke:#ff0000;" x="262.038261" xlink:href="#mf0f0d08ffd" y="283.491092"/>
     <use style="fill:#ff0000;stroke:#ff0000;" x="263.60664" xlink:href="#mf0f0d08ffd" y="287.91613"/>
     <use style="fill:#ff0000;stroke:#ff0000;" x="265.17502" xlink:href="#mf0f0d08ffd" y="284.977674"/>
     <use style="fill:#ff0000;stroke:#ff0000;" x="266.743399" xlink:href="#mf0f0d08ffd" y="287.064294"/>
     <use style="fill:#ff0000;stroke:#ff0000;" x="268.311779" xlink:href="#mf0f0d08ffd" y="280.684122"/>
     <use style="fill:#ff0000;stroke:#ff0000;" x="269.880158" xlink:href="#mf0f0d08ffd" y="286.063645"/>
     <use style="fill:#ff0000;stroke:#ff0000;" x="271.448538" xlink:href="#mf0f0d08ffd" y="280.196705"/>
     <use style="fill:#ff0000;stroke:#ff0000;" x="273.016917" xlink:href="#mf0f0d08ffd" y="284.628967"/>
     <use style="fill:#ff0000;stroke:#ff0000;" x="274.585296" xlink:href="#mf0f0d08ffd" y="283.098466"/>
     <use style="fill:#ff0000;stroke:#ff0000;" x="276.153676" xlink:href="#mf0f0d08ffd" y="271.165239"/>
     <use style="fill:#ff0000;stroke:#ff0000;" x="277.722055" xlink:href="#mf0f0d08ffd" y="271.58571"/>
     <use style="fill:#ff0000;stroke:#ff0000;" x="279.290435" xlink:href="#mf0f0d08ffd" y="278.271768"/>
     <use style="fill:#ff0000;stroke:#ff0000;" x="280.858814" xlink:href="#mf0f0d08ffd" y="269.330792"/>
     <use style="fill:#ff0000;stroke:#ff0000;" x="282.427194" xlink:href="#mf0f0d08ffd" y="270.187208"/>
     <use style="fill:#ff0000;stroke:#ff0000;" x="283.995573" xlink:href="#mf0f0d08ffd" y="272.101036"/>
     <use style="fill:#ff0000;stroke:#ff0000;" x="285.563953" xlink:href="#mf0f0d08ffd" y="275.056261"/>
     <use style="fill:#ff0000;stroke:#ff0000;" x="287.132332" xlink:href="#mf0f0d08ffd" y="266.198238"/>
     <use style="fill:#ff0000;stroke:#ff0000;" x="288.700711" xlink:href="#mf0f0d08ffd" y="266.509427"/>
     <use style="fill:#ff0000;stroke:#ff0000;" x="290.269091" xlink:href="#mf0f0d08ffd" y="267.519946"/>
     <use style="fill:#ff0000;stroke:#ff0000;" x="291.83747" xlink:href="#mf0f0d08ffd" y="263.454084"/>
     <use style="fill:#ff0000;stroke:#ff0000;" x="293.40585" xlink:href="#mf0f0d08ffd" y="262.210472"/>
     <use style="fill:#ff0000;stroke:#ff0000;" x="294.974229" xlink:href="#mf0f0d08ffd" y="265.018731"/>
     <use style="fill:#ff0000;stroke:#ff0000;" x="296.542609" xlink:href="#mf0f0d08ffd" y="258.122242"/>
     <use style="fill:#ff0000;stroke:#ff0000;" x="298.110988" xlink:href="#mf0f0d08ffd" y="253.07207"/>
     <use style="fill:#ff0000;stroke:#ff0000;" x="299.679368" xlink:href="#mf0f0d08ffd" y="254.230662"/>
     <use style="fill:#ff0000;stroke:#ff0000;" x="301.247747" xlink:href="#mf0f0d08ffd" y="256.041404"/>
     <use style="fill:#ff0000;stroke:#ff0000;" x="302.816126" xlink:href="#mf0f0d08ffd" y="251.205941"/>
     <use style="fill:#ff0000;stroke:#ff0000;" x="304.384506" xlink:href="#mf0f0d08ffd" y="256.451264"/>
     <use style="fill:#ff0000;stroke:#ff0000;" x="305.952885" xlink:href="#mf0f0d08ffd" y="249.068078"/>
     <use style="fill:#ff0000;stroke:#ff0000;" x="307.521265" xlink:href="#mf0f0d08ffd" y="237.623689"/>
     <use style="fill:#ff0000;stroke:#ff0000;" x="309.089644" xlink:href="#mf0f0d08ffd" y="248.208079"/>
     <use style="fill:#ff0000;stroke:#ff0000;" x="310.658024" xlink:href="#mf0f0d08ffd" y="241.097039"/>
     <use style="fill:#ff0000;stroke:#ff0000;" x="312.226403" xlink:href="#mf0f0d08ffd" y="250.628696"/>
     <use style="fill:#ff0000;stroke:#ff0000;" x="313.794783" xlink:href="#mf0f0d08ffd" y="237.092482"/>
     <use style="fill:#ff0000;stroke:#ff0000;" x="315.363162" xlink:href="#mf0f0d08ffd" y="227.305817"/>
     <use style="fill:#ff0000;stroke:#ff0000;" x="316.931542" xlink:href="#mf0f0d08ffd" y="237.287992"/>
     <use style="fill:#ff0000;stroke:#ff0000;" x="318.499921" xlink:href="#mf0f0d08ffd" y="231.229895"/>
     <use style="fill:#ff0000;stroke:#ff0000;" x="320.0683" xlink:href="#mf0f0d08ffd" y="219.627829"/>
     <use style="fill:#ff0000;stroke:#ff0000;" x="321.63668" xlink:href="#mf0f0d08ffd" y="233.019957"/>
     <use style="fill:#ff0000;stroke:#ff0000;" x="323.205059" xlink:href="#mf0f0d08ffd" y="209.027131"/>
     <use style="fill:#ff0000;stroke:#ff0000;" x="324.773439" xlink:href="#mf0f0d08ffd" y="241.338851"/>
     <use style="fill:#ff0000;stroke:#ff0000;" x="326.341818" xlink:href="#mf0f0d08ffd" y="216.590274"/>
     <use style="fill:#ff0000;stroke:#ff0000;" x="327.910198" xlink:href="#mf0f0d08ffd" y="236.162197"/>
     <use style="fill:#ff0000;stroke:#ff0000;" x="329.478577" xlink:href="#mf0f0d08ffd" y="229.087128"/>
     <use style="fill:#ff0000;stroke:#ff0000;" x="331.046957" xlink:href="#mf0f0d08ffd" y="204.41821"/>
     <use style="fill:#ff0000;stroke:#ff0000;" x="332.615336" xlink:href="#mf0f0d08ffd" y="202.012914"/>
     <use style="fill:#ff0000;stroke:#ff0000;" x="334.183715" xlink:href="#mf0f0d08ffd" y="198.889247"/>
     <use style="fill:#ff0000;stroke:#ff0000;" x="335.752095" xlink:href="#mf0f0d08ffd" y="194.654269"/>
     <use style="fill:#ff0000;stroke:#ff0000;" x="337.320474" xlink:href="#mf0f0d08ffd" y="193.072598"/>
     <use style="fill:#ff0000;stroke:#ff0000;" x="338.888854" xlink:href="#mf0f0d08ffd" y="221.903647"/>
     <use style="fill:#ff0000;stroke:#ff0000;" x="340.457233" xlink:href="#mf0f0d08ffd" y="189.373927"/>
     <use style="fill:#ff0000;stroke:#ff0000;" x="342.025613" xlink:href="#mf0f0d08ffd" y="197.652308"/>
     <use style="fill:#ff0000;stroke:#ff0000;" x="343.593992" xlink:href="#mf0f0d08ffd" y="175.433612"/>
     <use style="fill:#ff0000;stroke:#ff0000;" x="345.162372" xlink:href="#mf0f0d08ffd" y="211.379184"/>
     <use style="fill:#ff0000;stroke:#ff0000;" x="346.730751" xlink:href="#mf0f0d08ffd" y="196.302852"/>
     <use style="fill:#ff0000;stroke:#ff0000;" x="348.29913" xlink:href="#mf0f0d08ffd" y="169.348108"/>
     <use style="fill:#ff0000;stroke:#ff0000;" x="349.86751" xlink:href="#mf0f0d08ffd" y="170.262868"/>
     <use style="fill:#ff0000;stroke:#ff0000;" x="351.435889" xlink:href="#mf0f0d08ffd" y="175.915622"/>
     <use style="fill:#ff0000;stroke:#ff0000;" x="353.004269" xlink:href="#mf0f0d08ffd" y="197.232889"/>
     <use style="fill:#ff0000;stroke:#ff0000;" x="354.572648" xlink:href="#mf0f0d08ffd" y="179.588444"/>
     <use style="fill:#ff0000;stroke:#ff0000;" x="356.141028" xlink:href="#mf0f0d08ffd" y="145.048645"/>
     <use style="fill:#ff0000;stroke:#ff0000;" x="357.709407" xlink:href="#mf0f0d08ffd" y="156.541832"/>
     <use style="fill:#ff0000;stroke:#ff0000;" x="359.277787" xlink:href="#mf0f0d08ffd" y="158.589376"/>
     <use style="fill:#ff0000;stroke:#ff0000;" x="360.846166" xlink:href="#mf0f0d08ffd" y="140.653097"/>
     <use style="fill:#ff0000;stroke:#ff0000;" x="362.414545" xlink:href="#mf0f0d08ffd" y="149.619172"/>
     <use style="fill:#ff0000;stroke:#ff0000;" x="363.982925" xlink:href="#mf0f0d08ffd" y="178.47159"/>
     <use style="fill:#ff0000;stroke:#ff0000;" x="365.551304" xlink:href="#mf0f0d08ffd" y="142.250363"/>
     <use style="fill:#ff0000;stroke:#ff0000;" x="367.119684" xlink:href="#mf0f0d08ffd" y="138.44937"/>
     <use style="fill:#ff0000;stroke:#ff0000;" x="368.688063" xlink:href="#mf0f0d08ffd" y="142.684144"/>
     <use style="fill:#ff0000;stroke:#ff0000;" x="370.256443" xlink:href="#mf0f0d08ffd" y="159.893901"/>
     <use style="fill:#ff0000;stroke:#ff0000;" x="371.824822" xlink:href="#mf0f0d08ffd" y="128.058921"/>
     <use style="fill:#ff0000;stroke:#ff0000;" x="373.393202" xlink:href="#mf0f0d08ffd" y="164.510577"/>
     <use style="fill:#ff0000;stroke:#ff0000;" x="374.961581" xlink:href="#mf0f0d08ffd" y="107.231217"/>
     <use style="fill:#ff0000;stroke:#ff0000;" x="376.52996" xlink:href="#mf0f0d08ffd" y="112.624105"/>
     <use style="fill:#ff0000;stroke:#ff0000;" x="378.09834" xlink:href="#mf0f0d08ffd" y="112.543003"/>
     <use style="fill:#ff0000;stroke:#ff0000;" x="379.666719" xlink:href="#mf0f0d08ffd" y="96.033944"/>
     <use style="fill:#ff0000;stroke:#ff0000;" x="381.235099" xlink:href="#mf0f0d08ffd" y="106.255709"/>
     <use style="fill:#ff0000;stroke:#ff0000;" x="382.803478" xlink:href="#mf0f0d08ffd" y="138.87809"/>
     <use style="fill:#ff0000;stroke:#ff0000;" x="384.371858" xlink:href="#mf0f0d08ffd" y="131.91167"/>
     <use style="fill:#ff0000;stroke:#ff0000;" x="385.940237" xlink:href="#mf0f0d08ffd" y="89.794976"/>
     <use style="fill:#ff0000;stroke:#ff0000;" x="387.508617" xlink:href="#mf0f0d08ffd" y="86.16103"/>
     <use style="fill:#ff0000;stroke:#ff0000;" x="389.076996" xlink:href="#mf0f0d08ffd" y="61.516256"/>
     <use style="fill:#ff0000;stroke:#ff0000;" x="390.645375" xlink:href="#mf0f0d08ffd" y="113.51341"/>
     <use style="fill:#ff0000;stroke:#ff0000;" x="392.213755" xlink:href="#mf0f0d08ffd" y="102.535063"/>
     <use style="fill:#ff0000;stroke:#ff0000;" x="393.782134" xlink:href="#mf0f0d08ffd" y="57.416589"/>
     <use style="fill:#ff0000;stroke:#ff0000;" x="395.350514" xlink:href="#mf0f0d08ffd" y="74.080072"/>
     <use style="fill:#ff0000;stroke:#ff0000;" x="396.918893" xlink:href="#mf0f0d08ffd" y="53.568"/>
     <use style="fill:#ff0000;stroke:#ff0000;" x="398.487273" xlink:href="#mf0f0d08ffd" y="100.659489"/>
    </g>
   </g>
   <g id="line2d_13">
    <path clip-path="url(#p13a5f364c6)" d="M 73.832727 101.389627 
L 80.106245 116.358 
L 86.379763 130.713322 
L 92.653281 144.455594 
L 98.926798 157.584814 
L 105.200316 170.100983 
L 111.473834 182.004101 
L 117.747352 193.294169 
L 122.45249 201.359404 
L 127.157628 209.079799 
L 131.862767 216.455352 
L 136.567905 223.486064 
L 141.273043 230.171935 
L 145.978182 236.512965 
L 150.68332 242.509153 
L 155.388458 248.1605 
L 160.093597 253.467006 
L 164.798735 258.428671 
L 169.503874 263.045495 
L 174.209012 267.317477 
L 178.91415 271.244618 
L 183.619289 274.826918 
L 188.324427 278.064377 
L 193.029565 280.956995 
L 197.734704 283.504771 
L 202.439842 285.707706 
L 207.14498 287.5658 
L 211.850119 289.079053 
L 216.555257 290.247465 
L 219.692016 290.834828 
L 222.828775 291.268927 
L 225.965534 291.549764 
L 229.102292 291.677339 
L 232.239051 291.65165 
L 235.37581 291.472699 
L 238.512569 291.140485 
L 241.649328 290.655009 
L 244.786087 290.016269 
L 247.922846 289.224267 
L 252.627984 287.748896 
L 257.333123 285.928684 
L 262.038261 283.763631 
L 266.743399 281.253736 
L 271.448538 278.399 
L 276.153676 275.199423 
L 280.858814 271.655005 
L 285.563953 267.765746 
L 290.269091 263.531645 
L 294.974229 258.952703 
L 299.679368 254.02892 
L 304.384506 248.760296 
L 309.089644 243.146831 
L 313.794783 237.188524 
L 318.499921 230.885376 
L 323.205059 224.237387 
L 327.910198 217.244557 
L 332.615336 209.906886 
L 337.320474 202.224373 
L 342.025613 194.197019 
L 346.730751 185.824824 
L 353.004269 174.125478 
L 359.277787 161.813081 
L 365.551304 148.887632 
L 371.824822 135.349133 
L 378.09834 121.197582 
L 384.371858 106.432981 
L 390.645375 91.055328 
L 396.918893 75.064625 
L 398.487273 70.97116 
L 398.487273 70.97116 
" style="fill:none;stroke:#008000;stroke-linecap:square;stroke-width:1.5;"/>
   </g>
   <g id="patch_3">
    <path d="M 57.6 307.584 
L 57.6 41.472 
" style="fill:none;stroke:#000000;stroke-linecap:square;stroke-linejoin:miter;stroke-width:0.8;"/>
   </g>
   <g id="patch_4">
    <path d="M 414.72 307.584 
L 414.72 41.472 
" style="fill:none;stroke:#000000;stroke-linecap:square;stroke-linejoin:miter;stroke-width:0.8;"/>
   </g>
   <g id="patch_5">
    <path d="M 57.6 307.584 
L 414.72 307.584 
" style="fill:none;stroke:#000000;stroke-linecap:square;stroke-linejoin:miter;stroke-width:0.8;"/>
   </g>
   <g id="patch_6">
    <path d="M 57.6 41.472 
L 414.72 41.472 
" style="fill:none;stroke:#000000;stroke-linecap:square;stroke-linejoin:miter;stroke-width:0.8;"/>
   </g>
   <g id="text_14">
    <!-- FunctionFitting 11 -->
    <defs>
     <path d="M 9.8125 72.90625 
L 51.703125 72.90625 
L 51.703125 64.59375 
L 19.671875 64.59375 
L 19.671875 43.109375 
L 48.578125 43.109375 
L 48.578125 34.8125 
L 19.671875 34.8125 
L 19.671875 0 
L 9.8125 0 
z
" id="DejaVuSans-70"/>
     <path d="M 54.890625 33.015625 
L 54.890625 0 
L 45.90625 0 
L 45.90625 32.71875 
Q 45.90625 40.484375 42.875 44.328125 
Q 39.84375 48.1875 33.796875 48.1875 
Q 26.515625 48.1875 22.3125 43.546875 
Q 18.109375 38.921875 18.109375 30.90625 
L 18.109375 0 
L 9.078125 0 
L 9.078125 54.6875 
L 18.109375 54.6875 
L 18.109375 46.1875 
Q 21.34375 51.125 25.703125 53.5625 
Q 30.078125 56 35.796875 56 
Q 45.21875 56 50.046875 50.171875 
Q 54.890625 44.34375 54.890625 33.015625 
z
" id="DejaVuSans-110"/>
     <path d="M 48.78125 52.59375 
L 48.78125 44.1875 
Q 44.96875 46.296875 41.140625 47.34375 
Q 37.3125 48.390625 33.40625 48.390625 
Q 24.65625 48.390625 19.8125 42.84375 
Q 14.984375 37.3125 14.984375 27.296875 
Q 14.984375 17.28125 19.8125 11.734375 
Q 24.65625 6.203125 33.40625 6.203125 
Q 37.3125 6.203125 41.140625 7.25 
Q 44.96875 8.296875 48.78125 10.40625 
L 48.78125 2.09375 
Q 45.015625 0.34375 40.984375 -0.53125 
Q 36.96875 -1.421875 32.421875 -1.421875 
Q 20.0625 -1.421875 12.78125 6.34375 
Q 5.515625 14.109375 5.515625 27.296875 
Q 5.515625 40.671875 12.859375 48.328125 
Q 20.21875 56 33.015625 56 
Q 37.15625 56 41.109375 55.140625 
Q 45.0625 54.296875 48.78125 52.59375 
z
" id="DejaVuSans-99"/>
     <path d="M 18.3125 70.21875 
L 18.3125 54.6875 
L 36.8125 54.6875 
L 36.8125 47.703125 
L 18.3125 47.703125 
L 18.3125 18.015625 
Q 18.3125 11.328125 20.140625 9.421875 
Q 21.96875 7.515625 27.59375 7.515625 
L 36.8125 7.515625 
L 36.8125 0 
L 27.59375 0 
Q 17.1875 0 13.234375 3.875 
Q 9.28125 7.765625 9.28125 18.015625 
L 9.28125 47.703125 
L 2.6875 47.703125 
L 2.6875 54.6875 
L 9.28125 54.6875 
L 9.28125 70.21875 
z
" id="DejaVuSans-116"/>
     <path d="M 9.421875 54.6875 
L 18.40625 54.6875 
L 18.40625 0 
L 9.421875 0 
z
M 9.421875 75.984375 
L 18.40625 75.984375 
L 18.40625 64.59375 
L 9.421875 64.59375 
z
" id="DejaVuSans-105"/>
     <path d="M 30.609375 48.390625 
Q 23.390625 48.390625 19.1875 42.75 
Q 14.984375 37.109375 14.984375 27.296875 
Q 14.984375 17.484375 19.15625 11.84375 
Q 23.34375 6.203125 30.609375 6.203125 
Q 37.796875 6.203125 41.984375 11.859375 
Q 46.1875 17.53125 46.1875 27.296875 
Q 46.1875 37.015625 41.984375 42.703125 
Q 37.796875 48.390625 30.609375 48.390625 
z
M 30.609375 56 
Q 42.328125 56 49.015625 48.375 
Q 55.71875 40.765625 55.71875 27.296875 
Q 55.71875 13.875 49.015625 6.21875 
Q 42.328125 -1.421875 30.609375 -1.421875 
Q 18.84375 -1.421875 12.171875 6.21875 
Q 5.515625 13.875 5.515625 27.296875 
Q 5.515625 40.765625 12.171875 48.375 
Q 18.84375 56 30.609375 56 
z
" id="DejaVuSans-111"/>
     <path d="M 45.40625 27.984375 
Q 45.40625 37.75 41.375 43.109375 
Q 37.359375 48.484375 30.078125 48.484375 
Q 22.859375 48.484375 18.828125 43.109375 
Q 14.796875 37.75 14.796875 27.984375 
Q 14.796875 18.265625 18.828125 12.890625 
Q 22.859375 7.515625 30.078125 7.515625 
Q 37.359375 7.515625 41.375 12.890625 
Q 45.40625 18.265625 45.40625 27.984375 
z
M 54.390625 6.78125 
Q 54.390625 -7.171875 48.1875 -13.984375 
Q 42 -20.796875 29.203125 -20.796875 
Q 24.46875 -20.796875 20.265625 -20.09375 
Q 16.0625 -19.390625 12.109375 -17.921875 
L 12.109375 -9.1875 
Q 16.0625 -11.328125 19.921875 -12.34375 
Q 23.78125 -13.375 27.78125 -13.375 
Q 36.625 -13.375 41.015625 -8.765625 
Q 45.40625 -4.15625 45.40625 5.171875 
L 45.40625 9.625 
Q 42.625 4.78125 38.28125 2.390625 
Q 33.9375 0 27.875 0 
Q 17.828125 0 11.671875 7.65625 
Q 5.515625 15.328125 5.515625 27.984375 
Q 5.515625 40.671875 11.671875 48.328125 
Q 17.828125 56 27.875 56 
Q 33.9375 56 38.28125 53.609375 
Q 42.625 51.21875 45.40625 46.390625 
L 45.40625 54.6875 
L 54.390625 54.6875 
z
" id="DejaVuSans-103"/>
    </defs>
    <g transform="translate(181.680937 35.472)scale(0.12 -0.12)">
     <use xlink:href="#DejaVuSans-70"/>
     <use x="57.441406" xlink:href="#DejaVuSans-117"/>
     <use x="120.820312" xlink:href="#DejaVuSans-110"/>
     <use x="184.199219" xlink:href="#DejaVuSans-99"/>
     <use x="239.179688" xlink:href="#DejaVuSans-116"/>
     <use x="278.388672" xlink:href="#DejaVuSans-105"/>
     <use x="306.171875" xlink:href="#DejaVuSans-111"/>
     <use x="367.353516" xlink:href="#DejaVuSans-110"/>
     <use x="430.732422" xlink:href="#DejaVuSans-70"/>
     <use x="488.142578" xlink:href="#DejaVuSans-105"/>
     <use x="515.925781" xlink:href="#DejaVuSans-116"/>
     <use x="555.134766" xlink:href="#DejaVuSans-116"/>
     <use x="594.34375" xlink:href="#DejaVuSans-105"/>
     <use x="622.126953" xlink:href="#DejaVuSans-110"/>
     <use x="685.505859" xlink:href="#DejaVuSans-103"/>
     <use x="748.982422" xlink:href="#DejaVuSans-32"/>
     <use x="780.769531" xlink:href="#DejaVuSans-49"/>
     <use x="844.392578" xlink:href="#DejaVuSans-49"/>
    </g>
   </g>
   <g id="legend_1">
    <g id="patch_7">
     <path d="M 64.6 78.82825 
L 172.48125 78.82825 
Q 174.48125 78.82825 174.48125 76.82825 
L 174.48125 48.472 
Q 174.48125 46.472 172.48125 46.472 
L 64.6 46.472 
Q 62.6 46.472 62.6 48.472 
L 62.6 76.82825 
Q 62.6 78.82825 64.6 78.82825 
z
" style="fill:#ffffff;opacity:0.8;stroke:#cccccc;stroke-linejoin:miter;"/>
    </g>
    <g id="line2d_14"/>
    <g id="line2d_15">
     <g>
      <use style="fill:#ff0000;stroke:#ff0000;" x="76.6" xlink:href="#mf0f0d08ffd" y="54.570437"/>
     </g>
    </g>
    <g id="text_15">
     <!-- measured data -->
     <defs>
      <path d="M 52 44.1875 
Q 55.375 50.25 60.0625 53.125 
Q 64.75 56 71.09375 56 
Q 79.640625 56 84.28125 50.015625 
Q 88.921875 44.046875 88.921875 33.015625 
L 88.921875 0 
L 79.890625 0 
L 79.890625 32.71875 
Q 79.890625 40.578125 77.09375 44.375 
Q 74.3125 48.1875 68.609375 48.1875 
Q 61.625 48.1875 57.5625 43.546875 
Q 53.515625 38.921875 53.515625 30.90625 
L 53.515625 0 
L 44.484375 0 
L 44.484375 32.71875 
Q 44.484375 40.625 41.703125 44.40625 
Q 38.921875 48.1875 33.109375 48.1875 
Q 26.21875 48.1875 22.15625 43.53125 
Q 18.109375 38.875 18.109375 30.90625 
L 18.109375 0 
L 9.078125 0 
L 9.078125 54.6875 
L 18.109375 54.6875 
L 18.109375 46.1875 
Q 21.1875 51.21875 25.484375 53.609375 
Q 29.78125 56 35.6875 56 
Q 41.65625 56 45.828125 52.96875 
Q 50 49.953125 52 44.1875 
z
" id="DejaVuSans-109"/>
      <path d="M 41.109375 46.296875 
Q 39.59375 47.171875 37.8125 47.578125 
Q 36.03125 48 33.890625 48 
Q 26.265625 48 22.1875 43.046875 
Q 18.109375 38.09375 18.109375 28.8125 
L 18.109375 0 
L 9.078125 0 
L 9.078125 54.6875 
L 18.109375 54.6875 
L 18.109375 46.1875 
Q 20.953125 51.171875 25.484375 53.578125 
Q 30.03125 56 36.53125 56 
Q 37.453125 56 38.578125 55.875 
Q 39.703125 55.765625 41.0625 55.515625 
z
" id="DejaVuSans-114"/>
      <path d="M 45.40625 46.390625 
L 45.40625 75.984375 
L 54.390625 75.984375 
L 54.390625 0 
L 45.40625 0 
L 45.40625 8.203125 
Q 42.578125 3.328125 38.25 0.953125 
Q 33.9375 -1.421875 27.875 -1.421875 
Q 17.96875 -1.421875 11.734375 6.484375 
Q 5.515625 14.40625 5.515625 27.296875 
Q 5.515625 40.1875 11.734375 48.09375 
Q 17.96875 56 27.875 56 
Q 33.9375 56 38.25 53.625 
Q 42.578125 51.265625 45.40625 46.390625 
z
M 14.796875 27.296875 
Q 14.796875 17.390625 18.875 11.75 
Q 22.953125 6.109375 30.078125 6.109375 
Q 37.203125 6.109375 41.296875 11.75 
Q 45.40625 17.390625 45.40625 27.296875 
Q 45.40625 37.203125 41.296875 42.84375 
Q 37.203125 48.484375 30.078125 48.484375 
Q 22.953125 48.484375 18.875 42.84375 
Q 14.796875 37.203125 14.796875 27.296875 
z
" id="DejaVuSans-100"/>
     </defs>
     <g transform="translate(94.6 58.070437)scale(0.1 -0.1)">
      <use xlink:href="#DejaVuSans-109"/>
      <use x="97.412109" xlink:href="#DejaVuSans-101"/>
      <use x="158.935547" xlink:href="#DejaVuSans-97"/>
      <use x="220.214844" xlink:href="#DejaVuSans-115"/>
      <use x="272.314453" xlink:href="#DejaVuSans-117"/>
      <use x="335.693359" xlink:href="#DejaVuSans-114"/>
      <use x="376.775391" xlink:href="#DejaVuSans-101"/>
      <use x="438.298828" xlink:href="#DejaVuSans-100"/>
      <use x="501.775391" xlink:href="#DejaVuSans-32"/>
      <use x="533.5625" xlink:href="#DejaVuSans-100"/>
      <use x="597.039062" xlink:href="#DejaVuSans-97"/>
      <use x="658.318359" xlink:href="#DejaVuSans-116"/>
      <use x="697.527344" xlink:href="#DejaVuSans-97"/>
     </g>
    </g>
    <g id="line2d_16">
     <path d="M 66.6 69.248562 
L 86.6 69.248562 
" style="fill:none;stroke:#008000;stroke-linecap:square;stroke-width:1.5;"/>
    </g>
    <g id="line2d_17"/>
    <g id="text_16">
     <!-- linear data -->
     <g transform="translate(94.6 72.748562)scale(0.1 -0.1)">
      <use xlink:href="#DejaVuSans-108"/>
      <use x="27.783203" xlink:href="#DejaVuSans-105"/>
      <use x="55.566406" xlink:href="#DejaVuSans-110"/>
      <use x="118.945312" xlink:href="#DejaVuSans-101"/>
      <use x="180.46875" xlink:href="#DejaVuSans-97"/>
      <use x="241.748047" xlink:href="#DejaVuSans-114"/>
      <use x="282.861328" xlink:href="#DejaVuSans-32"/>
      <use x="314.648438" xlink:href="#DejaVuSans-100"/>
      <use x="378.125" xlink:href="#DejaVuSans-97"/>
      <use x="439.404297" xlink:href="#DejaVuSans-116"/>
      <use x="478.613281" xlink:href="#DejaVuSans-97"/>
     </g>
    </g>
   </g>
  </g>
 </g>
 <defs>
  <clipPath id="p13a5f364c6">
   <rect height="266.112" width="357.12" x="57.6" y="41.472"/>
  </clipPath>
 </defs>
</svg>
