<?xml version="1.0" encoding="utf-8" standalone="no"?>
<!DOCTYPE svg PUBLIC "-//W3C//DTD SVG 1.1//EN"
  "http://www.w3.org/Graphics/SVG/1.1/DTD/svg11.dtd">
<!-- Created with matplotlib (https://matplotlib.org/) -->
<svg height="345.6pt" version="1.1" viewBox="0 0 460.8 345.6" width="460.8pt" xmlns="http://www.w3.org/2000/svg" xmlns:xlink="http://www.w3.org/1999/xlink">
 <defs>
  <style type="text/css">
*{stroke-linecap:butt;stroke-linejoin:round;}
  </style>
 </defs>
 <g id="figure_1">
  <g id="patch_1">
   <path d="M 0 345.6 
L 460.8 345.6 
L 460.8 0 
L 0 0 
z
" style="fill:#ffffff;"/>
  </g>
  <g id="axes_1">
   <g id="patch_2">
    <path d="M 57.6 307.584 
L 414.72 307.584 
L 414.72 41.472 
L 57.6 41.472 
z
" style="fill:#ffffff;"/>
   </g>
   <g id="matplotlib.axis_1">
    <g id="xtick_1">
     <g id="line2d_1">
      <defs>
       <path d="M 0 0 
L 0 3.5 
" id="meb86414246" style="stroke:#000000;stroke-width:0.8;"/>
      </defs>
      <g>
       <use style="stroke:#000000;stroke-width:0.8;" x="111.945925" xlink:href="#meb86414246" y="307.584"/>
      </g>
     </g>
     <g id="text_1">
      <!-- 20 -->
      <defs>
       <path d="M 19.1875 8.296875 
L 53.609375 8.296875 
L 53.609375 0 
L 7.328125 0 
L 7.328125 8.296875 
Q 12.9375 14.109375 22.625 23.890625 
Q 32.328125 33.6875 34.8125 36.53125 
Q 39.546875 41.84375 41.421875 45.53125 
Q 43.3125 49.21875 43.3125 52.78125 
Q 43.3125 58.59375 39.234375 62.25 
Q 35.15625 65.921875 28.609375 65.921875 
Q 23.96875 65.921875 18.8125 64.3125 
Q 13.671875 62.703125 7.8125 59.421875 
L 7.8125 69.390625 
Q 13.765625 71.78125 18.9375 73 
Q 24.125 74.21875 28.421875 74.21875 
Q 39.75 74.21875 46.484375 68.546875 
Q 53.21875 62.890625 53.21875 53.421875 
Q 53.21875 48.921875 51.53125 44.890625 
Q 49.859375 40.875 45.40625 35.40625 
Q 44.1875 33.984375 37.640625 27.21875 
Q 31.109375 20.453125 19.1875 8.296875 
z
" id="DejaVuSans-50"/>
       <path d="M 31.78125 66.40625 
Q 24.171875 66.40625 20.328125 58.90625 
Q 16.5 51.421875 16.5 36.375 
Q 16.5 21.390625 20.328125 13.890625 
Q 24.171875 6.390625 31.78125 6.390625 
Q 39.453125 6.390625 43.28125 13.890625 
Q 47.125 21.390625 47.125 36.375 
Q 47.125 51.421875 43.28125 58.90625 
Q 39.453125 66.40625 31.78125 66.40625 
z
M 31.78125 74.21875 
Q 44.046875 74.21875 50.515625 64.515625 
Q 56.984375 54.828125 56.984375 36.375 
Q 56.984375 17.96875 50.515625 8.265625 
Q 44.046875 -1.421875 31.78125 -1.421875 
Q 19.53125 -1.421875 13.0625 8.265625 
Q 6.59375 17.96875 6.59375 36.375 
Q 6.59375 54.828125 13.0625 64.515625 
Q 19.53125 74.21875 31.78125 74.21875 
z
" id="DejaVuSans-48"/>
      </defs>
      <g transform="translate(105.583425 322.182437)scale(0.1 -0.1)">
       <use xlink:href="#DejaVuSans-50"/>
       <use x="63.623047" xlink:href="#DejaVuSans-48"/>
      </g>
     </g>
    </g>
    <g id="xtick_2">
     <g id="line2d_2">
      <g>
       <use style="stroke:#000000;stroke-width:0.8;" x="175.549442" xlink:href="#meb86414246" y="307.584"/>
      </g>
     </g>
     <g id="text_2">
      <!-- 40 -->
      <defs>
       <path d="M 37.796875 64.3125 
L 12.890625 25.390625 
L 37.796875 25.390625 
z
M 35.203125 72.90625 
L 47.609375 72.90625 
L 47.609375 25.390625 
L 58.015625 25.390625 
L 58.015625 17.1875 
L 47.609375 17.1875 
L 47.609375 0 
L 37.796875 0 
L 37.796875 17.1875 
L 4.890625 17.1875 
L 4.890625 26.703125 
z
" id="DejaVuSans-52"/>
      </defs>
      <g transform="translate(169.186942 322.182437)scale(0.1 -0.1)">
       <use xlink:href="#DejaVuSans-52"/>
       <use x="63.623047" xlink:href="#DejaVuSans-48"/>
      </g>
     </g>
    </g>
    <g id="xtick_3">
     <g id="line2d_3">
      <g>
       <use style="stroke:#000000;stroke-width:0.8;" x="239.152958" xlink:href="#meb86414246" y="307.584"/>
      </g>
     </g>
     <g id="text_3">
      <!-- 60 -->
      <defs>
       <path d="M 33.015625 40.375 
Q 26.375 40.375 22.484375 35.828125 
Q 18.609375 31.296875 18.609375 23.390625 
Q 18.609375 15.53125 22.484375 10.953125 
Q 26.375 6.390625 33.015625 6.390625 
Q 39.65625 6.390625 43.53125 10.953125 
Q 47.40625 15.53125 47.40625 23.390625 
Q 47.40625 31.296875 43.53125 35.828125 
Q 39.65625 40.375 33.015625 40.375 
z
M 52.59375 71.296875 
L 52.59375 62.3125 
Q 48.875 64.0625 45.09375 64.984375 
Q 41.3125 65.921875 37.59375 65.921875 
Q 27.828125 65.921875 22.671875 59.328125 
Q 17.53125 52.734375 16.796875 39.40625 
Q 19.671875 43.65625 24.015625 45.921875 
Q 28.375 48.1875 33.59375 48.1875 
Q 44.578125 48.1875 50.953125 41.515625 
Q 57.328125 34.859375 57.328125 23.390625 
Q 57.328125 12.15625 50.6875 5.359375 
Q 44.046875 -1.421875 33.015625 -1.421875 
Q 20.359375 -1.421875 13.671875 8.265625 
Q 6.984375 17.96875 6.984375 36.375 
Q 6.984375 53.65625 15.1875 63.9375 
Q 23.390625 74.21875 37.203125 74.21875 
Q 40.921875 74.21875 44.703125 73.484375 
Q 48.484375 72.75 52.59375 71.296875 
z
" id="DejaVuSans-54"/>
      </defs>
      <g transform="translate(232.790458 322.182437)scale(0.1 -0.1)">
       <use xlink:href="#DejaVuSans-54"/>
       <use x="63.623047" xlink:href="#DejaVuSans-48"/>
      </g>
     </g>
    </g>
    <g id="xtick_4">
     <g id="line2d_4">
      <g>
       <use style="stroke:#000000;stroke-width:0.8;" x="302.756475" xlink:href="#meb86414246" y="307.584"/>
      </g>
     </g>
     <g id="text_4">
      <!-- 80 -->
      <defs>
       <path d="M 31.78125 34.625 
Q 24.75 34.625 20.71875 30.859375 
Q 16.703125 27.09375 16.703125 20.515625 
Q 16.703125 13.921875 20.71875 10.15625 
Q 24.75 6.390625 31.78125 6.390625 
Q 38.8125 6.390625 42.859375 10.171875 
Q 46.921875 13.96875 46.921875 20.515625 
Q 46.921875 27.09375 42.890625 30.859375 
Q 38.875 34.625 31.78125 34.625 
z
M 21.921875 38.8125 
Q 15.578125 40.375 12.03125 44.71875 
Q 8.5 49.078125 8.5 55.328125 
Q 8.5 64.0625 14.71875 69.140625 
Q 20.953125 74.21875 31.78125 74.21875 
Q 42.671875 74.21875 48.875 69.140625 
Q 55.078125 64.0625 55.078125 55.328125 
Q 55.078125 49.078125 51.53125 44.71875 
Q 48 40.375 41.703125 38.8125 
Q 48.828125 37.15625 52.796875 32.3125 
Q 56.78125 27.484375 56.78125 20.515625 
Q 56.78125 9.90625 50.3125 4.234375 
Q 43.84375 -1.421875 31.78125 -1.421875 
Q 19.734375 -1.421875 13.25 4.234375 
Q 6.78125 9.90625 6.78125 20.515625 
Q 6.78125 27.484375 10.78125 32.3125 
Q 14.796875 37.15625 21.921875 38.8125 
z
M 18.3125 54.390625 
Q 18.3125 48.734375 21.84375 45.5625 
Q 25.390625 42.390625 31.78125 42.390625 
Q 38.140625 42.390625 41.71875 45.5625 
Q 45.3125 48.734375 45.3125 54.390625 
Q 45.3125 60.0625 41.71875 63.234375 
Q 38.140625 66.40625 31.78125 66.40625 
Q 25.390625 66.40625 21.84375 63.234375 
Q 18.3125 60.0625 18.3125 54.390625 
z
" id="DejaVuSans-56"/>
      </defs>
      <g transform="translate(296.393975 322.182437)scale(0.1 -0.1)">
       <use xlink:href="#DejaVuSans-56"/>
       <use x="63.623047" xlink:href="#DejaVuSans-48"/>
      </g>
     </g>
    </g>
    <g id="xtick_5">
     <g id="line2d_5">
      <g>
       <use style="stroke:#000000;stroke-width:0.8;" x="366.359992" xlink:href="#meb86414246" y="307.584"/>
      </g>
     </g>
     <g id="text_5">
      <!-- 100 -->
      <defs>
       <path d="M 12.40625 8.296875 
L 28.515625 8.296875 
L 28.515625 63.921875 
L 10.984375 60.40625 
L 10.984375 69.390625 
L 28.421875 72.90625 
L 38.28125 72.90625 
L 38.28125 8.296875 
L 54.390625 8.296875 
L 54.390625 0 
L 12.40625 0 
z
" id="DejaVuSans-49"/>
      </defs>
      <g transform="translate(356.816242 322.182437)scale(0.1 -0.1)">
       <use xlink:href="#DejaVuSans-49"/>
       <use x="63.623047" xlink:href="#DejaVuSans-48"/>
       <use x="127.246094" xlink:href="#DejaVuSans-48"/>
      </g>
     </g>
    </g>
    <g id="text_6">
     <!-- x values -->
     <defs>
      <path d="M 54.890625 54.6875 
L 35.109375 28.078125 
L 55.90625 0 
L 45.3125 0 
L 29.390625 21.484375 
L 13.484375 0 
L 2.875 0 
L 24.125 28.609375 
L 4.6875 54.6875 
L 15.28125 54.6875 
L 29.78125 35.203125 
L 44.28125 54.6875 
z
" id="DejaVuSans-120"/>
      <path id="DejaVuSans-32"/>
      <path d="M 2.984375 54.6875 
L 12.5 54.6875 
L 29.59375 8.796875 
L 46.6875 54.6875 
L 56.203125 54.6875 
L 35.6875 0 
L 23.484375 0 
z
" id="DejaVuSans-118"/>
      <path d="M 34.28125 27.484375 
Q 23.390625 27.484375 19.1875 25 
Q 14.984375 22.515625 14.984375 16.5 
Q 14.984375 11.71875 18.140625 8.90625 
Q 21.296875 6.109375 26.703125 6.109375 
Q 34.1875 6.109375 38.703125 11.40625 
Q 43.21875 16.703125 43.21875 25.484375 
L 43.21875 27.484375 
z
M 52.203125 31.203125 
L 52.203125 0 
L 43.21875 0 
L 43.21875 8.296875 
Q 40.140625 3.328125 35.546875 0.953125 
Q 30.953125 -1.421875 24.3125 -1.421875 
Q 15.921875 -1.421875 10.953125 3.296875 
Q 6 8.015625 6 15.921875 
Q 6 25.140625 12.171875 29.828125 
Q 18.359375 34.515625 30.609375 34.515625 
L 43.21875 34.515625 
L 43.21875 35.40625 
Q 43.21875 41.609375 39.140625 45 
Q 35.0625 48.390625 27.6875 48.390625 
Q 23 48.390625 18.546875 47.265625 
Q 14.109375 46.140625 10.015625 43.890625 
L 10.015625 52.203125 
Q 14.9375 54.109375 19.578125 55.046875 
Q 24.21875 56 28.609375 56 
Q 40.484375 56 46.34375 49.84375 
Q 52.203125 43.703125 52.203125 31.203125 
z
" id="DejaVuSans-97"/>
      <path d="M 9.421875 75.984375 
L 18.40625 75.984375 
L 18.40625 0 
L 9.421875 0 
z
" id="DejaVuSans-108"/>
      <path d="M 8.5 21.578125 
L 8.5 54.6875 
L 17.484375 54.6875 
L 17.484375 21.921875 
Q 17.484375 14.15625 20.5 10.265625 
Q 23.53125 6.390625 29.59375 6.390625 
Q 36.859375 6.390625 41.078125 11.03125 
Q 45.3125 15.671875 45.3125 23.6875 
L 45.3125 54.6875 
L 54.296875 54.6875 
L 54.296875 0 
L 45.3125 0 
L 45.3125 8.40625 
Q 42.046875 3.421875 37.71875 1 
Q 33.40625 -1.421875 27.6875 -1.421875 
Q 18.265625 -1.421875 13.375 4.4375 
Q 8.5 10.296875 8.5 21.578125 
z
M 31.109375 56 
z
" id="DejaVuSans-117"/>
      <path d="M 56.203125 29.59375 
L 56.203125 25.203125 
L 14.890625 25.203125 
Q 15.484375 15.921875 20.484375 11.0625 
Q 25.484375 6.203125 34.421875 6.203125 
Q 39.59375 6.203125 44.453125 7.46875 
Q 49.3125 8.734375 54.109375 11.28125 
L 54.109375 2.78125 
Q 49.265625 0.734375 44.1875 -0.34375 
Q 39.109375 -1.421875 33.890625 -1.421875 
Q 20.796875 -1.421875 13.15625 6.1875 
Q 5.515625 13.8125 5.515625 26.8125 
Q 5.515625 40.234375 12.765625 48.109375 
Q 20.015625 56 32.328125 56 
Q 43.359375 56 49.78125 48.890625 
Q 56.203125 41.796875 56.203125 29.59375 
z
M 47.21875 32.234375 
Q 47.125 39.59375 43.09375 43.984375 
Q 39.0625 48.390625 32.421875 48.390625 
Q 24.90625 48.390625 20.390625 44.140625 
Q 15.875 39.890625 15.1875 32.171875 
z
" id="DejaVuSans-101"/>
      <path d="M 44.28125 53.078125 
L 44.28125 44.578125 
Q 40.484375 46.53125 36.375 47.5 
Q 32.28125 48.484375 27.875 48.484375 
Q 21.1875 48.484375 17.84375 46.4375 
Q 14.5 44.390625 14.5 40.28125 
Q 14.5 37.15625 16.890625 35.375 
Q 19.28125 33.59375 26.515625 31.984375 
L 29.59375 31.296875 
Q 39.15625 29.25 43.1875 25.515625 
Q 47.21875 21.78125 47.21875 15.09375 
Q 47.21875 7.46875 41.1875 3.015625 
Q 35.15625 -1.421875 24.609375 -1.421875 
Q 20.21875 -1.421875 15.453125 -0.5625 
Q 10.6875 0.296875 5.421875 2 
L 5.421875 11.28125 
Q 10.40625 8.6875 15.234375 7.390625 
Q 20.0625 6.109375 24.8125 6.109375 
Q 31.15625 6.109375 34.5625 8.28125 
Q 37.984375 10.453125 37.984375 14.40625 
Q 37.984375 18.0625 35.515625 20.015625 
Q 33.0625 21.96875 24.703125 23.78125 
L 21.578125 24.515625 
Q 13.234375 26.265625 9.515625 29.90625 
Q 5.8125 33.546875 5.8125 39.890625 
Q 5.8125 47.609375 11.28125 51.796875 
Q 16.75 56 26.8125 56 
Q 31.78125 56 36.171875 55.265625 
Q 40.578125 54.546875 44.28125 53.078125 
z
" id="DejaVuSans-115"/>
     </defs>
     <g transform="translate(215.349063 335.860562)scale(0.1 -0.1)">
      <use xlink:href="#DejaVuSans-120"/>
      <use x="59.179688" xlink:href="#DejaVuSans-32"/>
      <use x="90.966797" xlink:href="#DejaVuSans-118"/>
      <use x="150.146484" xlink:href="#DejaVuSans-97"/>
      <use x="211.425781" xlink:href="#DejaVuSans-108"/>
      <use x="239.208984" xlink:href="#DejaVuSans-117"/>
      <use x="302.587891" xlink:href="#DejaVuSans-101"/>
      <use x="364.111328" xlink:href="#DejaVuSans-115"/>
     </g>
    </g>
   </g>
   <g id="matplotlib.axis_2">
    <g id="ytick_1">
     <g id="line2d_6">
      <defs>
       <path d="M 0 0 
L -3.5 0 
" id="m246a909c62" style="stroke:#000000;stroke-width:0.8;"/>
      </defs>
      <g>
       <use style="stroke:#000000;stroke-width:0.8;" x="57.6" xlink:href="#m246a909c62" y="289.930648"/>
      </g>
     </g>
     <g id="text_7">
      <!-- 0 -->
      <g transform="translate(44.2375 293.729867)scale(0.1 -0.1)">
       <use xlink:href="#DejaVuSans-48"/>
      </g>
     </g>
    </g>
    <g id="ytick_2">
     <g id="line2d_7">
      <g>
       <use style="stroke:#000000;stroke-width:0.8;" x="57.6" xlink:href="#m246a909c62" y="250.682301"/>
      </g>
     </g>
     <g id="text_8">
      <!-- 100 -->
      <g transform="translate(31.5125 254.48152)scale(0.1 -0.1)">
       <use xlink:href="#DejaVuSans-49"/>
       <use x="63.623047" xlink:href="#DejaVuSans-48"/>
       <use x="127.246094" xlink:href="#DejaVuSans-48"/>
      </g>
     </g>
    </g>
    <g id="ytick_3">
     <g id="line2d_8">
      <g>
       <use style="stroke:#000000;stroke-width:0.8;" x="57.6" xlink:href="#m246a909c62" y="211.433954"/>
      </g>
     </g>
     <g id="text_9">
      <!-- 200 -->
      <g transform="translate(31.5125 215.233173)scale(0.1 -0.1)">
       <use xlink:href="#DejaVuSans-50"/>
       <use x="63.623047" xlink:href="#DejaVuSans-48"/>
       <use x="127.246094" xlink:href="#DejaVuSans-48"/>
      </g>
     </g>
    </g>
    <g id="ytick_4">
     <g id="line2d_9">
      <g>
       <use style="stroke:#000000;stroke-width:0.8;" x="57.6" xlink:href="#m246a909c62" y="172.185607"/>
      </g>
     </g>
     <g id="text_10">
      <!-- 300 -->
      <defs>
       <path d="M 40.578125 39.3125 
Q 47.65625 37.796875 51.625 33 
Q 55.609375 28.21875 55.609375 21.1875 
Q 55.609375 10.40625 48.1875 4.484375 
Q 40.765625 -1.421875 27.09375 -1.421875 
Q 22.515625 -1.421875 17.65625 -0.515625 
Q 12.796875 0.390625 7.625 2.203125 
L 7.625 11.71875 
Q 11.71875 9.328125 16.59375 8.109375 
Q 21.484375 6.890625 26.8125 6.890625 
Q 36.078125 6.890625 40.9375 10.546875 
Q 45.796875 14.203125 45.796875 21.1875 
Q 45.796875 27.640625 41.28125 31.265625 
Q 36.765625 34.90625 28.71875 34.90625 
L 20.21875 34.90625 
L 20.21875 43.015625 
L 29.109375 43.015625 
Q 36.375 43.015625 40.234375 45.921875 
Q 44.09375 48.828125 44.09375 54.296875 
Q 44.09375 59.90625 40.109375 62.90625 
Q 36.140625 65.921875 28.71875 65.921875 
Q 24.65625 65.921875 20.015625 65.03125 
Q 15.375 64.15625 9.8125 62.3125 
L 9.8125 71.09375 
Q 15.4375 72.65625 20.34375 73.4375 
Q 25.25 74.21875 29.59375 74.21875 
Q 40.828125 74.21875 47.359375 69.109375 
Q 53.90625 64.015625 53.90625 55.328125 
Q 53.90625 49.265625 50.4375 45.09375 
Q 46.96875 40.921875 40.578125 39.3125 
z
" id="DejaVuSans-51"/>
      </defs>
      <g transform="translate(31.5125 175.984826)scale(0.1 -0.1)">
       <use xlink:href="#DejaVuSans-51"/>
       <use x="63.623047" xlink:href="#DejaVuSans-48"/>
       <use x="127.246094" xlink:href="#DejaVuSans-48"/>
      </g>
     </g>
    </g>
    <g id="ytick_5">
     <g id="line2d_10">
      <g>
       <use style="stroke:#000000;stroke-width:0.8;" x="57.6" xlink:href="#m246a909c62" y="132.937261"/>
      </g>
     </g>
     <g id="text_11">
      <!-- 400 -->
      <g transform="translate(31.5125 136.736479)scale(0.1 -0.1)">
       <use xlink:href="#DejaVuSans-52"/>
       <use x="63.623047" xlink:href="#DejaVuSans-48"/>
       <use x="127.246094" xlink:href="#DejaVuSans-48"/>
      </g>
     </g>
    </g>
    <g id="ytick_6">
     <g id="line2d_11">
      <g>
       <use style="stroke:#000000;stroke-width:0.8;" x="57.6" xlink:href="#m246a909c62" y="93.688914"/>
      </g>
     </g>
     <g id="text_12">
      <!-- 500 -->
      <defs>
       <path d="M 10.796875 72.90625 
L 49.515625 72.90625 
L 49.515625 64.59375 
L 19.828125 64.59375 
L 19.828125 46.734375 
Q 21.96875 47.46875 24.109375 47.828125 
Q 26.265625 48.1875 28.421875 48.1875 
Q 40.625 48.1875 47.75 41.5 
Q 54.890625 34.8125 54.890625 23.390625 
Q 54.890625 11.625 47.5625 5.09375 
Q 40.234375 -1.421875 26.90625 -1.421875 
Q 22.3125 -1.421875 17.546875 -0.640625 
Q 12.796875 0.140625 7.71875 1.703125 
L 7.71875 11.625 
Q 12.109375 9.234375 16.796875 8.0625 
Q 21.484375 6.890625 26.703125 6.890625 
Q 35.15625 6.890625 40.078125 11.328125 
Q 45.015625 15.765625 45.015625 23.390625 
Q 45.015625 31 40.078125 35.4375 
Q 35.15625 39.890625 26.703125 39.890625 
Q 22.75 39.890625 18.8125 39.015625 
Q 14.890625 38.140625 10.796875 36.28125 
z
" id="DejaVuSans-53"/>
      </defs>
      <g transform="translate(31.5125 97.488132)scale(0.1 -0.1)">
       <use xlink:href="#DejaVuSans-53"/>
       <use x="63.623047" xlink:href="#DejaVuSans-48"/>
       <use x="127.246094" xlink:href="#DejaVuSans-48"/>
      </g>
     </g>
    </g>
    <g id="ytick_7">
     <g id="line2d_12">
      <g>
       <use style="stroke:#000000;stroke-width:0.8;" x="57.6" xlink:href="#m246a909c62" y="54.440567"/>
      </g>
     </g>
     <g id="text_13">
      <!-- 600 -->
      <g transform="translate(31.5125 58.239786)scale(0.1 -0.1)">
       <use xlink:href="#DejaVuSans-54"/>
       <use x="63.623047" xlink:href="#DejaVuSans-48"/>
       <use x="127.246094" xlink:href="#DejaVuSans-48"/>
      </g>
     </g>
    </g>
    <g id="text_14">
     <!-- y values -->
     <defs>
      <path d="M 32.171875 -5.078125 
Q 28.375 -14.84375 24.75 -17.8125 
Q 21.140625 -20.796875 15.09375 -20.796875 
L 7.90625 -20.796875 
L 7.90625 -13.28125 
L 13.1875 -13.28125 
Q 16.890625 -13.28125 18.9375 -11.515625 
Q 21 -9.765625 23.484375 -3.21875 
L 25.09375 0.875 
L 2.984375 54.6875 
L 12.5 54.6875 
L 29.59375 11.921875 
L 46.6875 54.6875 
L 56.203125 54.6875 
z
" id="DejaVuSans-121"/>
     </defs>
     <g transform="translate(25.432812 195.338937)rotate(-90)scale(0.1 -0.1)">
      <use xlink:href="#DejaVuSans-121"/>
      <use x="59.179688" xlink:href="#DejaVuSans-32"/>
      <use x="90.966797" xlink:href="#DejaVuSans-118"/>
      <use x="150.146484" xlink:href="#DejaVuSans-97"/>
      <use x="211.425781" xlink:href="#DejaVuSans-108"/>
      <use x="239.208984" xlink:href="#DejaVuSans-117"/>
      <use x="302.587891" xlink:href="#DejaVuSans-101"/>
      <use x="364.111328" xlink:href="#DejaVuSans-115"/>
     </g>
    </g>
   </g>
   <g id="line2d_13">
    <defs>
     <path d="M 0 1 
C 0.265203 1 0.51958 0.894634 0.707107 0.707107 
C 0.894634 0.51958 1 0.265203 1 0 
C 1 -0.265203 0.894634 -0.51958 0.707107 -0.707107 
C 0.51958 -0.894634 0.265203 -1 0 -1 
C -0.265203 -1 -0.51958 -0.894634 -0.707107 -0.707107 
C -0.894634 -0.51958 -1 -0.265203 -1 0 
C -1 0.265203 -0.894634 0.51958 -0.707107 0.707107 
C -0.51958 0.894634 -0.265203 1 0 1 
z
" id="mb3ab3a8fea" style="stroke:#ff0000;"/>
    </defs>
    <g clip-path="url(#p7664dd7ea1)">
     <use style="fill:#ff0000;stroke:#ff0000;" x="73.832727" xlink:href="#mb3ab3a8fea" y="54.352823"/>
     <use style="fill:#ff0000;stroke:#ff0000;" x="75.174275" xlink:href="#mb3ab3a8fea" y="103.375552"/>
     <use style="fill:#ff0000;stroke:#ff0000;" x="76.515823" xlink:href="#mb3ab3a8fea" y="70.241005"/>
     <use style="fill:#ff0000;stroke:#ff0000;" x="77.85737" xlink:href="#mb3ab3a8fea" y="118.917222"/>
     <use style="fill:#ff0000;stroke:#ff0000;" x="79.198918" xlink:href="#mb3ab3a8fea" y="115.899314"/>
     <use style="fill:#ff0000;stroke:#ff0000;" x="80.540466" xlink:href="#mb3ab3a8fea" y="84.815182"/>
     <use style="fill:#ff0000;stroke:#ff0000;" x="81.882014" xlink:href="#mb3ab3a8fea" y="140.552065"/>
     <use style="fill:#ff0000;stroke:#ff0000;" x="83.223561" xlink:href="#mb3ab3a8fea" y="132.993337"/>
     <use style="fill:#ff0000;stroke:#ff0000;" x="84.565109" xlink:href="#mb3ab3a8fea" y="85.972285"/>
     <use style="fill:#ff0000;stroke:#ff0000;" x="85.906657" xlink:href="#mb3ab3a8fea" y="111.060677"/>
     <use style="fill:#ff0000;stroke:#ff0000;" x="87.248204" xlink:href="#mb3ab3a8fea" y="98.544543"/>
     <use style="fill:#ff0000;stroke:#ff0000;" x="88.589752" xlink:href="#mb3ab3a8fea" y="137.602162"/>
     <use style="fill:#ff0000;stroke:#ff0000;" x="89.9313" xlink:href="#mb3ab3a8fea" y="96.664873"/>
     <use style="fill:#ff0000;stroke:#ff0000;" x="91.272847" xlink:href="#mb3ab3a8fea" y="145.906294"/>
     <use style="fill:#ff0000;stroke:#ff0000;" x="92.614395" xlink:href="#mb3ab3a8fea" y="98.149852"/>
     <use style="fill:#ff0000;stroke:#ff0000;" x="93.955943" xlink:href="#mb3ab3a8fea" y="98.16841"/>
     <use style="fill:#ff0000;stroke:#ff0000;" x="95.297491" xlink:href="#mb3ab3a8fea" y="126.60737"/>
     <use style="fill:#ff0000;stroke:#ff0000;" x="96.639038" xlink:href="#mb3ab3a8fea" y="156.787317"/>
     <use style="fill:#ff0000;stroke:#ff0000;" x="97.980586" xlink:href="#mb3ab3a8fea" y="152.771697"/>
     <use style="fill:#ff0000;stroke:#ff0000;" x="99.322134" xlink:href="#mb3ab3a8fea" y="147.468271"/>
     <use style="fill:#ff0000;stroke:#ff0000;" x="100.663681" xlink:href="#mb3ab3a8fea" y="159.439766"/>
     <use style="fill:#ff0000;stroke:#ff0000;" x="102.005229" xlink:href="#mb3ab3a8fea" y="145.084854"/>
     <use style="fill:#ff0000;stroke:#ff0000;" x="103.346777" xlink:href="#mb3ab3a8fea" y="176.017043"/>
     <use style="fill:#ff0000;stroke:#ff0000;" x="104.688325" xlink:href="#mb3ab3a8fea" y="150.047321"/>
     <use style="fill:#ff0000;stroke:#ff0000;" x="106.029872" xlink:href="#mb3ab3a8fea" y="175.17318"/>
     <use style="fill:#ff0000;stroke:#ff0000;" x="107.37142" xlink:href="#mb3ab3a8fea" y="188.357145"/>
     <use style="fill:#ff0000;stroke:#ff0000;" x="108.712968" xlink:href="#mb3ab3a8fea" y="159.839461"/>
     <use style="fill:#ff0000;stroke:#ff0000;" x="110.054515" xlink:href="#mb3ab3a8fea" y="162.416588"/>
     <use style="fill:#ff0000;stroke:#ff0000;" x="111.396063" xlink:href="#mb3ab3a8fea" y="147.988517"/>
     <use style="fill:#ff0000;stroke:#ff0000;" x="112.737611" xlink:href="#mb3ab3a8fea" y="155.907487"/>
     <use style="fill:#ff0000;stroke:#ff0000;" x="114.079159" xlink:href="#mb3ab3a8fea" y="179.21049"/>
     <use style="fill:#ff0000;stroke:#ff0000;" x="115.420706" xlink:href="#mb3ab3a8fea" y="185.738787"/>
     <use style="fill:#ff0000;stroke:#ff0000;" x="116.762254" xlink:href="#mb3ab3a8fea" y="153.798424"/>
     <use style="fill:#ff0000;stroke:#ff0000;" x="118.103802" xlink:href="#mb3ab3a8fea" y="175.688703"/>
     <use style="fill:#ff0000;stroke:#ff0000;" x="119.445349" xlink:href="#mb3ab3a8fea" y="184.033529"/>
     <use style="fill:#ff0000;stroke:#ff0000;" x="120.786897" xlink:href="#mb3ab3a8fea" y="153.038896"/>
     <use style="fill:#ff0000;stroke:#ff0000;" x="122.128445" xlink:href="#mb3ab3a8fea" y="186.6756"/>
     <use style="fill:#ff0000;stroke:#ff0000;" x="123.469992" xlink:href="#mb3ab3a8fea" y="207.95999"/>
     <use style="fill:#ff0000;stroke:#ff0000;" x="124.81154" xlink:href="#mb3ab3a8fea" y="179.624823"/>
     <use style="fill:#ff0000;stroke:#ff0000;" x="126.153088" xlink:href="#mb3ab3a8fea" y="183.823646"/>
     <use style="fill:#ff0000;stroke:#ff0000;" x="127.494636" xlink:href="#mb3ab3a8fea" y="201.30563"/>
     <use style="fill:#ff0000;stroke:#ff0000;" x="128.836183" xlink:href="#mb3ab3a8fea" y="206.309057"/>
     <use style="fill:#ff0000;stroke:#ff0000;" x="130.177731" xlink:href="#mb3ab3a8fea" y="211.894014"/>
     <use style="fill:#ff0000;stroke:#ff0000;" x="131.519279" xlink:href="#mb3ab3a8fea" y="188.620962"/>
     <use style="fill:#ff0000;stroke:#ff0000;" x="132.860826" xlink:href="#mb3ab3a8fea" y="197.104191"/>
     <use style="fill:#ff0000;stroke:#ff0000;" x="134.202374" xlink:href="#mb3ab3a8fea" y="190.542601"/>
     <use style="fill:#ff0000;stroke:#ff0000;" x="135.543922" xlink:href="#mb3ab3a8fea" y="208.5723"/>
     <use style="fill:#ff0000;stroke:#ff0000;" x="136.88547" xlink:href="#mb3ab3a8fea" y="188.072767"/>
     <use style="fill:#ff0000;stroke:#ff0000;" x="138.227017" xlink:href="#mb3ab3a8fea" y="209.392301"/>
     <use style="fill:#ff0000;stroke:#ff0000;" x="139.568565" xlink:href="#mb3ab3a8fea" y="229.433238"/>
     <use style="fill:#ff0000;stroke:#ff0000;" x="140.910113" xlink:href="#mb3ab3a8fea" y="220.553081"/>
     <use style="fill:#ff0000;stroke:#ff0000;" x="142.25166" xlink:href="#mb3ab3a8fea" y="221.774385"/>
     <use style="fill:#ff0000;stroke:#ff0000;" x="143.593208" xlink:href="#mb3ab3a8fea" y="204.519395"/>
     <use style="fill:#ff0000;stroke:#ff0000;" x="144.934756" xlink:href="#mb3ab3a8fea" y="230.337218"/>
     <use style="fill:#ff0000;stroke:#ff0000;" x="146.276304" xlink:href="#mb3ab3a8fea" y="222.014824"/>
     <use style="fill:#ff0000;stroke:#ff0000;" x="147.617851" xlink:href="#mb3ab3a8fea" y="209.936593"/>
     <use style="fill:#ff0000;stroke:#ff0000;" x="148.959399" xlink:href="#mb3ab3a8fea" y="219.598197"/>
     <use style="fill:#ff0000;stroke:#ff0000;" x="150.300947" xlink:href="#mb3ab3a8fea" y="224.867022"/>
     <use style="fill:#ff0000;stroke:#ff0000;" x="151.642494" xlink:href="#mb3ab3a8fea" y="227.034566"/>
     <use style="fill:#ff0000;stroke:#ff0000;" x="152.984042" xlink:href="#mb3ab3a8fea" y="222.495659"/>
     <use style="fill:#ff0000;stroke:#ff0000;" x="154.32559" xlink:href="#mb3ab3a8fea" y="230.92028"/>
     <use style="fill:#ff0000;stroke:#ff0000;" x="155.667137" xlink:href="#mb3ab3a8fea" y="220.363261"/>
     <use style="fill:#ff0000;stroke:#ff0000;" x="157.008685" xlink:href="#mb3ab3a8fea" y="222.603956"/>
     <use style="fill:#ff0000;stroke:#ff0000;" x="158.350233" xlink:href="#mb3ab3a8fea" y="243.777228"/>
     <use style="fill:#ff0000;stroke:#ff0000;" x="159.691781" xlink:href="#mb3ab3a8fea" y="230.180945"/>
     <use style="fill:#ff0000;stroke:#ff0000;" x="161.033328" xlink:href="#mb3ab3a8fea" y="247.574699"/>
     <use style="fill:#ff0000;stroke:#ff0000;" x="162.374876" xlink:href="#mb3ab3a8fea" y="239.617908"/>
     <use style="fill:#ff0000;stroke:#ff0000;" x="163.716424" xlink:href="#mb3ab3a8fea" y="237.52511"/>
     <use style="fill:#ff0000;stroke:#ff0000;" x="165.057971" xlink:href="#mb3ab3a8fea" y="248.873906"/>
     <use style="fill:#ff0000;stroke:#ff0000;" x="166.399519" xlink:href="#mb3ab3a8fea" y="243.392063"/>
     <use style="fill:#ff0000;stroke:#ff0000;" x="167.741067" xlink:href="#mb3ab3a8fea" y="253.32865"/>
     <use style="fill:#ff0000;stroke:#ff0000;" x="169.082615" xlink:href="#mb3ab3a8fea" y="245.306819"/>
     <use style="fill:#ff0000;stroke:#ff0000;" x="170.424162" xlink:href="#mb3ab3a8fea" y="254.39975"/>
     <use style="fill:#ff0000;stroke:#ff0000;" x="171.76571" xlink:href="#mb3ab3a8fea" y="244.120081"/>
     <use style="fill:#ff0000;stroke:#ff0000;" x="173.107258" xlink:href="#mb3ab3a8fea" y="245.52103"/>
     <use style="fill:#ff0000;stroke:#ff0000;" x="174.448805" xlink:href="#mb3ab3a8fea" y="263.846806"/>
     <use style="fill:#ff0000;stroke:#ff0000;" x="175.790353" xlink:href="#mb3ab3a8fea" y="264.286362"/>
     <use style="fill:#ff0000;stroke:#ff0000;" x="177.131901" xlink:href="#mb3ab3a8fea" y="268.369682"/>
     <use style="fill:#ff0000;stroke:#ff0000;" x="178.473449" xlink:href="#mb3ab3a8fea" y="269.653542"/>
     <use style="fill:#ff0000;stroke:#ff0000;" x="179.814996" xlink:href="#mb3ab3a8fea" y="253.946297"/>
     <use style="fill:#ff0000;stroke:#ff0000;" x="181.156544" xlink:href="#mb3ab3a8fea" y="257.30406"/>
     <use style="fill:#ff0000;stroke:#ff0000;" x="182.498092" xlink:href="#mb3ab3a8fea" y="260.690879"/>
     <use style="fill:#ff0000;stroke:#ff0000;" x="183.839639" xlink:href="#mb3ab3a8fea" y="264.869111"/>
     <use style="fill:#ff0000;stroke:#ff0000;" x="185.181187" xlink:href="#mb3ab3a8fea" y="260.03835"/>
     <use style="fill:#ff0000;stroke:#ff0000;" x="186.522735" xlink:href="#mb3ab3a8fea" y="261.855719"/>
     <use style="fill:#ff0000;stroke:#ff0000;" x="187.864282" xlink:href="#mb3ab3a8fea" y="273.905891"/>
     <use style="fill:#ff0000;stroke:#ff0000;" x="189.20583" xlink:href="#mb3ab3a8fea" y="257.831194"/>
     <use style="fill:#ff0000;stroke:#ff0000;" x="190.547378" xlink:href="#mb3ab3a8fea" y="266.651093"/>
     <use style="fill:#ff0000;stroke:#ff0000;" x="191.888926" xlink:href="#mb3ab3a8fea" y="264.512126"/>
     <use style="fill:#ff0000;stroke:#ff0000;" x="193.230473" xlink:href="#mb3ab3a8fea" y="266.195935"/>
     <use style="fill:#ff0000;stroke:#ff0000;" x="194.572021" xlink:href="#mb3ab3a8fea" y="274.498158"/>
     <use style="fill:#ff0000;stroke:#ff0000;" x="195.913569" xlink:href="#mb3ab3a8fea" y="283.752103"/>
     <use style="fill:#ff0000;stroke:#ff0000;" x="197.255116" xlink:href="#mb3ab3a8fea" y="269.717757"/>
     <use style="fill:#ff0000;stroke:#ff0000;" x="198.596664" xlink:href="#mb3ab3a8fea" y="275.010426"/>
     <use style="fill:#ff0000;stroke:#ff0000;" x="199.938212" xlink:href="#mb3ab3a8fea" y="280.279297"/>
     <use style="fill:#ff0000;stroke:#ff0000;" x="201.27976" xlink:href="#mb3ab3a8fea" y="266.587611"/>
     <use style="fill:#ff0000;stroke:#ff0000;" x="202.621307" xlink:href="#mb3ab3a8fea" y="268.632501"/>
     <use style="fill:#ff0000;stroke:#ff0000;" x="203.962855" xlink:href="#mb3ab3a8fea" y="283.387435"/>
     <use style="fill:#ff0000;stroke:#ff0000;" x="205.304403" xlink:href="#mb3ab3a8fea" y="277.926831"/>
     <use style="fill:#ff0000;stroke:#ff0000;" x="206.64595" xlink:href="#mb3ab3a8fea" y="281.489545"/>
     <use style="fill:#ff0000;stroke:#ff0000;" x="207.987498" xlink:href="#mb3ab3a8fea" y="288.59935"/>
     <use style="fill:#ff0000;stroke:#ff0000;" x="209.329046" xlink:href="#mb3ab3a8fea" y="279.213592"/>
     <use style="fill:#ff0000;stroke:#ff0000;" x="210.670594" xlink:href="#mb3ab3a8fea" y="286.07038"/>
     <use style="fill:#ff0000;stroke:#ff0000;" x="212.012141" xlink:href="#mb3ab3a8fea" y="275.753817"/>
     <use style="fill:#ff0000;stroke:#ff0000;" x="213.353689" xlink:href="#mb3ab3a8fea" y="287.793496"/>
     <use style="fill:#ff0000;stroke:#ff0000;" x="214.695237" xlink:href="#mb3ab3a8fea" y="290.256008"/>
     <use style="fill:#ff0000;stroke:#ff0000;" x="216.036784" xlink:href="#mb3ab3a8fea" y="285.77756"/>
     <use style="fill:#ff0000;stroke:#ff0000;" x="217.378332" xlink:href="#mb3ab3a8fea" y="283.723408"/>
     <use style="fill:#ff0000;stroke:#ff0000;" x="218.71988" xlink:href="#mb3ab3a8fea" y="287.795155"/>
     <use style="fill:#ff0000;stroke:#ff0000;" x="220.061427" xlink:href="#mb3ab3a8fea" y="277.376586"/>
     <use style="fill:#ff0000;stroke:#ff0000;" x="221.402975" xlink:href="#mb3ab3a8fea" y="288.075554"/>
     <use style="fill:#ff0000;stroke:#ff0000;" x="222.744523" xlink:href="#mb3ab3a8fea" y="283.324393"/>
     <use style="fill:#ff0000;stroke:#ff0000;" x="224.086071" xlink:href="#mb3ab3a8fea" y="281.500066"/>
     <use style="fill:#ff0000;stroke:#ff0000;" x="225.427618" xlink:href="#mb3ab3a8fea" y="293.475271"/>
     <use style="fill:#ff0000;stroke:#ff0000;" x="226.769166" xlink:href="#mb3ab3a8fea" y="286.050676"/>
     <use style="fill:#ff0000;stroke:#ff0000;" x="228.110714" xlink:href="#mb3ab3a8fea" y="293.991488"/>
     <use style="fill:#ff0000;stroke:#ff0000;" x="229.452261" xlink:href="#mb3ab3a8fea" y="288.288743"/>
     <use style="fill:#ff0000;stroke:#ff0000;" x="230.793809" xlink:href="#mb3ab3a8fea" y="290.83185"/>
     <use style="fill:#ff0000;stroke:#ff0000;" x="232.135357" xlink:href="#mb3ab3a8fea" y="291.587913"/>
     <use style="fill:#ff0000;stroke:#ff0000;" x="233.476905" xlink:href="#mb3ab3a8fea" y="286.31778"/>
     <use style="fill:#ff0000;stroke:#ff0000;" x="234.818452" xlink:href="#mb3ab3a8fea" y="292.473313"/>
     <use style="fill:#ff0000;stroke:#ff0000;" x="236.16" xlink:href="#mb3ab3a8fea" y="291.890051"/>
     <use style="fill:#ff0000;stroke:#ff0000;" x="237.501548" xlink:href="#mb3ab3a8fea" y="284.803436"/>
     <use style="fill:#ff0000;stroke:#ff0000;" x="238.843095" xlink:href="#mb3ab3a8fea" y="289.529041"/>
     <use style="fill:#ff0000;stroke:#ff0000;" x="240.184643" xlink:href="#mb3ab3a8fea" y="276.785194"/>
     <use style="fill:#ff0000;stroke:#ff0000;" x="241.526191" xlink:href="#mb3ab3a8fea" y="292.392351"/>
     <use style="fill:#ff0000;stroke:#ff0000;" x="242.867739" xlink:href="#mb3ab3a8fea" y="287.052201"/>
     <use style="fill:#ff0000;stroke:#ff0000;" x="244.209286" xlink:href="#mb3ab3a8fea" y="285.944365"/>
     <use style="fill:#ff0000;stroke:#ff0000;" x="245.550834" xlink:href="#mb3ab3a8fea" y="295.488"/>
     <use style="fill:#ff0000;stroke:#ff0000;" x="246.892382" xlink:href="#mb3ab3a8fea" y="284.996432"/>
     <use style="fill:#ff0000;stroke:#ff0000;" x="248.233929" xlink:href="#mb3ab3a8fea" y="292.6588"/>
     <use style="fill:#ff0000;stroke:#ff0000;" x="249.575477" xlink:href="#mb3ab3a8fea" y="286.712618"/>
     <use style="fill:#ff0000;stroke:#ff0000;" x="250.917025" xlink:href="#mb3ab3a8fea" y="281.632175"/>
     <use style="fill:#ff0000;stroke:#ff0000;" x="252.258573" xlink:href="#mb3ab3a8fea" y="279.137369"/>
     <use style="fill:#ff0000;stroke:#ff0000;" x="253.60012" xlink:href="#mb3ab3a8fea" y="280.122956"/>
     <use style="fill:#ff0000;stroke:#ff0000;" x="254.941668" xlink:href="#mb3ab3a8fea" y="289.70009"/>
     <use style="fill:#ff0000;stroke:#ff0000;" x="256.283216" xlink:href="#mb3ab3a8fea" y="282.885936"/>
     <use style="fill:#ff0000;stroke:#ff0000;" x="257.624763" xlink:href="#mb3ab3a8fea" y="290.115357"/>
     <use style="fill:#ff0000;stroke:#ff0000;" x="258.966311" xlink:href="#mb3ab3a8fea" y="280.060169"/>
     <use style="fill:#ff0000;stroke:#ff0000;" x="260.307859" xlink:href="#mb3ab3a8fea" y="284.930443"/>
     <use style="fill:#ff0000;stroke:#ff0000;" x="261.649406" xlink:href="#mb3ab3a8fea" y="272.689591"/>
     <use style="fill:#ff0000;stroke:#ff0000;" x="262.990954" xlink:href="#mb3ab3a8fea" y="283.072027"/>
     <use style="fill:#ff0000;stroke:#ff0000;" x="264.332502" xlink:href="#mb3ab3a8fea" y="287.367356"/>
     <use style="fill:#ff0000;stroke:#ff0000;" x="265.67405" xlink:href="#mb3ab3a8fea" y="279.618041"/>
     <use style="fill:#ff0000;stroke:#ff0000;" x="267.015597" xlink:href="#mb3ab3a8fea" y="281.704923"/>
     <use style="fill:#ff0000;stroke:#ff0000;" x="268.357145" xlink:href="#mb3ab3a8fea" y="283.212016"/>
     <use style="fill:#ff0000;stroke:#ff0000;" x="269.698693" xlink:href="#mb3ab3a8fea" y="276.370763"/>
     <use style="fill:#ff0000;stroke:#ff0000;" x="271.04024" xlink:href="#mb3ab3a8fea" y="273.347441"/>
     <use style="fill:#ff0000;stroke:#ff0000;" x="272.381788" xlink:href="#mb3ab3a8fea" y="274.976693"/>
     <use style="fill:#ff0000;stroke:#ff0000;" x="273.723336" xlink:href="#mb3ab3a8fea" y="286.294262"/>
     <use style="fill:#ff0000;stroke:#ff0000;" x="275.064884" xlink:href="#mb3ab3a8fea" y="266.748551"/>
     <use style="fill:#ff0000;stroke:#ff0000;" x="276.406431" xlink:href="#mb3ab3a8fea" y="263.263521"/>
     <use style="fill:#ff0000;stroke:#ff0000;" x="277.747979" xlink:href="#mb3ab3a8fea" y="273.471983"/>
     <use style="fill:#ff0000;stroke:#ff0000;" x="279.089527" xlink:href="#mb3ab3a8fea" y="272.614159"/>
     <use style="fill:#ff0000;stroke:#ff0000;" x="280.431074" xlink:href="#mb3ab3a8fea" y="266.201299"/>
     <use style="fill:#ff0000;stroke:#ff0000;" x="281.772622" xlink:href="#mb3ab3a8fea" y="265.968766"/>
     <use style="fill:#ff0000;stroke:#ff0000;" x="283.11417" xlink:href="#mb3ab3a8fea" y="261.28997"/>
     <use style="fill:#ff0000;stroke:#ff0000;" x="284.455718" xlink:href="#mb3ab3a8fea" y="257.007903"/>
     <use style="fill:#ff0000;stroke:#ff0000;" x="285.797265" xlink:href="#mb3ab3a8fea" y="267.721366"/>
     <use style="fill:#ff0000;stroke:#ff0000;" x="287.138813" xlink:href="#mb3ab3a8fea" y="264.510367"/>
     <use style="fill:#ff0000;stroke:#ff0000;" x="288.480361" xlink:href="#mb3ab3a8fea" y="263.939179"/>
     <use style="fill:#ff0000;stroke:#ff0000;" x="289.821908" xlink:href="#mb3ab3a8fea" y="263.640562"/>
     <use style="fill:#ff0000;stroke:#ff0000;" x="291.163456" xlink:href="#mb3ab3a8fea" y="259.122821"/>
     <use style="fill:#ff0000;stroke:#ff0000;" x="292.505004" xlink:href="#mb3ab3a8fea" y="255.638873"/>
     <use style="fill:#ff0000;stroke:#ff0000;" x="293.846551" xlink:href="#mb3ab3a8fea" y="258.379053"/>
     <use style="fill:#ff0000;stroke:#ff0000;" x="295.188099" xlink:href="#mb3ab3a8fea" y="271.183303"/>
     <use style="fill:#ff0000;stroke:#ff0000;" x="296.529647" xlink:href="#mb3ab3a8fea" y="262.301086"/>
     <use style="fill:#ff0000;stroke:#ff0000;" x="297.871195" xlink:href="#mb3ab3a8fea" y="271.672787"/>
     <use style="fill:#ff0000;stroke:#ff0000;" x="299.212742" xlink:href="#mb3ab3a8fea" y="261.014595"/>
     <use style="fill:#ff0000;stroke:#ff0000;" x="300.55429" xlink:href="#mb3ab3a8fea" y="255.357245"/>
     <use style="fill:#ff0000;stroke:#ff0000;" x="301.895838" xlink:href="#mb3ab3a8fea" y="246.853198"/>
     <use style="fill:#ff0000;stroke:#ff0000;" x="303.237385" xlink:href="#mb3ab3a8fea" y="248.692016"/>
     <use style="fill:#ff0000;stroke:#ff0000;" x="304.578933" xlink:href="#mb3ab3a8fea" y="247.247697"/>
     <use style="fill:#ff0000;stroke:#ff0000;" x="305.920481" xlink:href="#mb3ab3a8fea" y="249.720815"/>
     <use style="fill:#ff0000;stroke:#ff0000;" x="307.262029" xlink:href="#mb3ab3a8fea" y="258.447221"/>
     <use style="fill:#ff0000;stroke:#ff0000;" x="308.603576" xlink:href="#mb3ab3a8fea" y="257.243098"/>
     <use style="fill:#ff0000;stroke:#ff0000;" x="309.945124" xlink:href="#mb3ab3a8fea" y="246.102445"/>
     <use style="fill:#ff0000;stroke:#ff0000;" x="311.286672" xlink:href="#mb3ab3a8fea" y="259.603503"/>
     <use style="fill:#ff0000;stroke:#ff0000;" x="312.628219" xlink:href="#mb3ab3a8fea" y="233.806776"/>
     <use style="fill:#ff0000;stroke:#ff0000;" x="313.969767" xlink:href="#mb3ab3a8fea" y="236.260333"/>
     <use style="fill:#ff0000;stroke:#ff0000;" x="315.311315" xlink:href="#mb3ab3a8fea" y="246.51688"/>
     <use style="fill:#ff0000;stroke:#ff0000;" x="316.652863" xlink:href="#mb3ab3a8fea" y="238.614516"/>
     <use style="fill:#ff0000;stroke:#ff0000;" x="317.99441" xlink:href="#mb3ab3a8fea" y="242.751979"/>
     <use style="fill:#ff0000;stroke:#ff0000;" x="319.335958" xlink:href="#mb3ab3a8fea" y="246.667427"/>
     <use style="fill:#ff0000;stroke:#ff0000;" x="320.677506" xlink:href="#mb3ab3a8fea" y="224.719362"/>
     <use style="fill:#ff0000;stroke:#ff0000;" x="322.019053" xlink:href="#mb3ab3a8fea" y="225.701751"/>
     <use style="fill:#ff0000;stroke:#ff0000;" x="323.360601" xlink:href="#mb3ab3a8fea" y="237.886825"/>
     <use style="fill:#ff0000;stroke:#ff0000;" x="324.702149" xlink:href="#mb3ab3a8fea" y="219.680939"/>
     <use style="fill:#ff0000;stroke:#ff0000;" x="326.043696" xlink:href="#mb3ab3a8fea" y="228.139949"/>
     <use style="fill:#ff0000;stroke:#ff0000;" x="327.385244" xlink:href="#mb3ab3a8fea" y="220.675165"/>
     <use style="fill:#ff0000;stroke:#ff0000;" x="328.726792" xlink:href="#mb3ab3a8fea" y="217.692762"/>
     <use style="fill:#ff0000;stroke:#ff0000;" x="330.06834" xlink:href="#mb3ab3a8fea" y="213.804269"/>
     <use style="fill:#ff0000;stroke:#ff0000;" x="331.409887" xlink:href="#mb3ab3a8fea" y="211.993662"/>
     <use style="fill:#ff0000;stroke:#ff0000;" x="332.751435" xlink:href="#mb3ab3a8fea" y="214.291072"/>
     <use style="fill:#ff0000;stroke:#ff0000;" x="334.092983" xlink:href="#mb3ab3a8fea" y="206.512932"/>
     <use style="fill:#ff0000;stroke:#ff0000;" x="335.43453" xlink:href="#mb3ab3a8fea" y="202.333829"/>
     <use style="fill:#ff0000;stroke:#ff0000;" x="336.776078" xlink:href="#mb3ab3a8fea" y="229.531539"/>
     <use style="fill:#ff0000;stroke:#ff0000;" x="338.117626" xlink:href="#mb3ab3a8fea" y="206.663089"/>
     <use style="fill:#ff0000;stroke:#ff0000;" x="339.459174" xlink:href="#mb3ab3a8fea" y="205.202087"/>
     <use style="fill:#ff0000;stroke:#ff0000;" x="340.800721" xlink:href="#mb3ab3a8fea" y="202.701226"/>
     <use style="fill:#ff0000;stroke:#ff0000;" x="342.142269" xlink:href="#mb3ab3a8fea" y="187.019803"/>
     <use style="fill:#ff0000;stroke:#ff0000;" x="343.483817" xlink:href="#mb3ab3a8fea" y="179.087956"/>
     <use style="fill:#ff0000;stroke:#ff0000;" x="344.825364" xlink:href="#mb3ab3a8fea" y="210.635553"/>
     <use style="fill:#ff0000;stroke:#ff0000;" x="346.166912" xlink:href="#mb3ab3a8fea" y="176.178644"/>
     <use style="fill:#ff0000;stroke:#ff0000;" x="347.50846" xlink:href="#mb3ab3a8fea" y="200.284034"/>
     <use style="fill:#ff0000;stroke:#ff0000;" x="348.850008" xlink:href="#mb3ab3a8fea" y="175.155492"/>
     <use style="fill:#ff0000;stroke:#ff0000;" x="350.191555" xlink:href="#mb3ab3a8fea" y="181.276232"/>
     <use style="fill:#ff0000;stroke:#ff0000;" x="351.533103" xlink:href="#mb3ab3a8fea" y="178.922715"/>
     <use style="fill:#ff0000;stroke:#ff0000;" x="352.874651" xlink:href="#mb3ab3a8fea" y="183.844413"/>
     <use style="fill:#ff0000;stroke:#ff0000;" x="354.216198" xlink:href="#mb3ab3a8fea" y="160.733529"/>
     <use style="fill:#ff0000;stroke:#ff0000;" x="355.557746" xlink:href="#mb3ab3a8fea" y="176.452844"/>
     <use style="fill:#ff0000;stroke:#ff0000;" x="356.899294" xlink:href="#mb3ab3a8fea" y="156.972366"/>
     <use style="fill:#ff0000;stroke:#ff0000;" x="358.240841" xlink:href="#mb3ab3a8fea" y="172.730663"/>
     <use style="fill:#ff0000;stroke:#ff0000;" x="359.582389" xlink:href="#mb3ab3a8fea" y="161.663984"/>
     <use style="fill:#ff0000;stroke:#ff0000;" x="360.923937" xlink:href="#mb3ab3a8fea" y="159.912266"/>
     <use style="fill:#ff0000;stroke:#ff0000;" x="362.265485" xlink:href="#mb3ab3a8fea" y="167.569569"/>
     <use style="fill:#ff0000;stroke:#ff0000;" x="363.607032" xlink:href="#mb3ab3a8fea" y="187.113192"/>
     <use style="fill:#ff0000;stroke:#ff0000;" x="364.94858" xlink:href="#mb3ab3a8fea" y="150.274806"/>
     <use style="fill:#ff0000;stroke:#ff0000;" x="366.290128" xlink:href="#mb3ab3a8fea" y="163.187006"/>
     <use style="fill:#ff0000;stroke:#ff0000;" x="367.631675" xlink:href="#mb3ab3a8fea" y="159.536214"/>
     <use style="fill:#ff0000;stroke:#ff0000;" x="368.973223" xlink:href="#mb3ab3a8fea" y="132.473709"/>
     <use style="fill:#ff0000;stroke:#ff0000;" x="370.314771" xlink:href="#mb3ab3a8fea" y="137.314501"/>
     <use style="fill:#ff0000;stroke:#ff0000;" x="371.656319" xlink:href="#mb3ab3a8fea" y="180.172056"/>
     <use style="fill:#ff0000;stroke:#ff0000;" x="372.997866" xlink:href="#mb3ab3a8fea" y="146.322838"/>
     <use style="fill:#ff0000;stroke:#ff0000;" x="374.339414" xlink:href="#mb3ab3a8fea" y="146.494153"/>
     <use style="fill:#ff0000;stroke:#ff0000;" x="375.680962" xlink:href="#mb3ab3a8fea" y="144.581782"/>
     <use style="fill:#ff0000;stroke:#ff0000;" x="377.022509" xlink:href="#mb3ab3a8fea" y="144.59367"/>
     <use style="fill:#ff0000;stroke:#ff0000;" x="378.364057" xlink:href="#mb3ab3a8fea" y="163.388378"/>
     <use style="fill:#ff0000;stroke:#ff0000;" x="379.705605" xlink:href="#mb3ab3a8fea" y="130.258905"/>
     <use style="fill:#ff0000;stroke:#ff0000;" x="381.047153" xlink:href="#mb3ab3a8fea" y="139.75366"/>
     <use style="fill:#ff0000;stroke:#ff0000;" x="382.3887" xlink:href="#mb3ab3a8fea" y="109.110052"/>
     <use style="fill:#ff0000;stroke:#ff0000;" x="383.730248" xlink:href="#mb3ab3a8fea" y="132.376583"/>
     <use style="fill:#ff0000;stroke:#ff0000;" x="385.071796" xlink:href="#mb3ab3a8fea" y="96.79683"/>
     <use style="fill:#ff0000;stroke:#ff0000;" x="386.413343" xlink:href="#mb3ab3a8fea" y="101.695927"/>
     <use style="fill:#ff0000;stroke:#ff0000;" x="387.754891" xlink:href="#mb3ab3a8fea" y="123.926422"/>
     <use style="fill:#ff0000;stroke:#ff0000;" x="389.096439" xlink:href="#mb3ab3a8fea" y="115.777865"/>
     <use style="fill:#ff0000;stroke:#ff0000;" x="390.437986" xlink:href="#mb3ab3a8fea" y="108.447519"/>
     <use style="fill:#ff0000;stroke:#ff0000;" x="391.779534" xlink:href="#mb3ab3a8fea" y="94.378152"/>
     <use style="fill:#ff0000;stroke:#ff0000;" x="393.121082" xlink:href="#mb3ab3a8fea" y="116.359578"/>
     <use style="fill:#ff0000;stroke:#ff0000;" x="394.46263" xlink:href="#mb3ab3a8fea" y="69.337541"/>
     <use style="fill:#ff0000;stroke:#ff0000;" x="395.804177" xlink:href="#mb3ab3a8fea" y="119.140997"/>
     <use style="fill:#ff0000;stroke:#ff0000;" x="397.145725" xlink:href="#mb3ab3a8fea" y="53.568"/>
     <use style="fill:#ff0000;stroke:#ff0000;" x="398.487273" xlink:href="#mb3ab3a8fea" y="105.601879"/>
    </g>
   </g>
   <g id="line2d_14">
    <path clip-path="url(#p7664dd7ea1)" d="M 73.832727 83.456485 
L 80.540466 99.754367 
L 87.248204 115.367169 
L 93.955943 130.294889 
L 99.322134 141.743807 
L 104.688325 152.754273 
L 110.054515 163.326287 
L 115.420706 173.459849 
L 120.786897 183.154958 
L 126.153088 192.411616 
L 131.519279 201.229822 
L 136.88547 209.609576 
L 142.25166 217.550878 
L 147.617851 225.053727 
L 152.984042 232.118125 
L 158.350233 238.744071 
L 163.716424 244.931565 
L 169.082615 250.680607 
L 173.107258 254.704654 
L 177.131901 258.482072 
L 181.156544 262.012861 
L 185.181187 265.29702 
L 189.20583 268.33455 
L 193.230473 271.125451 
L 197.255116 273.669723 
L 201.27976 275.967366 
L 205.304403 278.018379 
L 209.329046 279.822763 
L 213.353689 281.380518 
L 217.378332 282.691643 
L 221.402975 283.756139 
L 225.427618 284.574006 
L 229.452261 285.145244 
L 233.476905 285.469853 
L 237.501548 285.547832 
L 241.526191 285.379182 
L 245.550834 284.963903 
L 249.575477 284.301994 
L 253.60012 283.393456 
L 257.624763 282.238289 
L 261.649406 280.836493 
L 265.67405 279.188068 
L 269.698693 277.293013 
L 273.723336 275.151329 
L 277.747979 272.763016 
L 281.772622 270.128073 
L 285.797265 267.246502 
L 289.821908 264.118301 
L 293.846551 260.74347 
L 297.871195 257.122011 
L 301.895838 253.253922 
L 305.920481 249.139204 
L 309.945124 244.777857 
L 315.311315 238.579082 
L 320.677506 231.941855 
L 326.043696 224.866175 
L 331.409887 217.352044 
L 336.776078 209.399461 
L 342.142269 201.008426 
L 347.50846 192.178939 
L 352.874651 182.911 
L 358.240841 173.204609 
L 363.607032 163.059765 
L 368.973223 152.47647 
L 374.339414 141.454723 
L 379.705605 129.994524 
L 385.071796 118.095873 
L 391.779534 102.605986 
L 398.487273 86.431018 
L 398.487273 86.431018 
" style="fill:none;stroke:#008000;stroke-linecap:square;stroke-width:1.5;"/>
   </g>
   <g id="patch_3">
    <path d="M 57.6 307.584 
L 57.6 41.472 
" style="fill:none;stroke:#000000;stroke-linecap:square;stroke-linejoin:miter;stroke-width:0.8;"/>
   </g>
   <g id="patch_4">
    <path d="M 414.72 307.584 
L 414.72 41.472 
" style="fill:none;stroke:#000000;stroke-linecap:square;stroke-linejoin:miter;stroke-width:0.8;"/>
   </g>
   <g id="patch_5">
    <path d="M 57.6 307.584 
L 414.72 307.584 
" style="fill:none;stroke:#000000;stroke-linecap:square;stroke-linejoin:miter;stroke-width:0.8;"/>
   </g>
   <g id="patch_6">
    <path d="M 57.6 41.472 
L 414.72 41.472 
" style="fill:none;stroke:#000000;stroke-linecap:square;stroke-linejoin:miter;stroke-width:0.8;"/>
   </g>
   <g id="text_15">
    <!-- FunctionFitting 14 -->
    <defs>
     <path d="M 9.8125 72.90625 
L 51.703125 72.90625 
L 51.703125 64.59375 
L 19.671875 64.59375 
L 19.671875 43.109375 
L 48.578125 43.109375 
L 48.578125 34.8125 
L 19.671875 34.8125 
L 19.671875 0 
L 9.8125 0 
z
" id="DejaVuSans-70"/>
     <path d="M 54.890625 33.015625 
L 54.890625 0 
L 45.90625 0 
L 45.90625 32.71875 
Q 45.90625 40.484375 42.875 44.328125 
Q 39.84375 48.1875 33.796875 48.1875 
Q 26.515625 48.1875 22.3125 43.546875 
Q 18.109375 38.921875 18.109375 30.90625 
L 18.109375 0 
L 9.078125 0 
L 9.078125 54.6875 
L 18.109375 54.6875 
L 18.109375 46.1875 
Q 21.34375 51.125 25.703125 53.5625 
Q 30.078125 56 35.796875 56 
Q 45.21875 56 50.046875 50.171875 
Q 54.890625 44.34375 54.890625 33.015625 
z
" id="DejaVuSans-110"/>
     <path d="M 48.78125 52.59375 
L 48.78125 44.1875 
Q 44.96875 46.296875 41.140625 47.34375 
Q 37.3125 48.390625 33.40625 48.390625 
Q 24.65625 48.390625 19.8125 42.84375 
Q 14.984375 37.3125 14.984375 27.296875 
Q 14.984375 17.28125 19.8125 11.734375 
Q 24.65625 6.203125 33.40625 6.203125 
Q 37.3125 6.203125 41.140625 7.25 
Q 44.96875 8.296875 48.78125 10.40625 
L 48.78125 2.09375 
Q 45.015625 0.34375 40.984375 -0.53125 
Q 36.96875 -1.421875 32.421875 -1.421875 
Q 20.0625 -1.421875 12.78125 6.34375 
Q 5.515625 14.109375 5.515625 27.296875 
Q 5.515625 40.671875 12.859375 48.328125 
Q 20.21875 56 33.015625 56 
Q 37.15625 56 41.109375 55.140625 
Q 45.0625 54.296875 48.78125 52.59375 
z
" id="DejaVuSans-99"/>
     <path d="M 18.3125 70.21875 
L 18.3125 54.6875 
L 36.8125 54.6875 
L 36.8125 47.703125 
L 18.3125 47.703125 
L 18.3125 18.015625 
Q 18.3125 11.328125 20.140625 9.421875 
Q 21.96875 7.515625 27.59375 7.515625 
L 36.8125 7.515625 
L 36.8125 0 
L 27.59375 0 
Q 17.1875 0 13.234375 3.875 
Q 9.28125 7.765625 9.28125 18.015625 
L 9.28125 47.703125 
L 2.6875 47.703125 
L 2.6875 54.6875 
L 9.28125 54.6875 
L 9.28125 70.21875 
z
" id="DejaVuSans-116"/>
     <path d="M 9.421875 54.6875 
L 18.40625 54.6875 
L 18.40625 0 
L 9.421875 0 
z
M 9.421875 75.984375 
L 18.40625 75.984375 
L 18.40625 64.59375 
L 9.421875 64.59375 
z
" id="DejaVuSans-105"/>
     <path d="M 30.609375 48.390625 
Q 23.390625 48.390625 19.1875 42.75 
Q 14.984375 37.109375 14.984375 27.296875 
Q 14.984375 17.484375 19.15625 11.84375 
Q 23.34375 6.203125 30.609375 6.203125 
Q 37.796875 6.203125 41.984375 11.859375 
Q 46.1875 17.53125 46.1875 27.296875 
Q 46.1875 37.015625 41.984375 42.703125 
Q 37.796875 48.390625 30.609375 48.390625 
z
M 30.609375 56 
Q 42.328125 56 49.015625 48.375 
Q 55.71875 40.765625 55.71875 27.296875 
Q 55.71875 13.875 49.015625 6.21875 
Q 42.328125 -1.421875 30.609375 -1.421875 
Q 18.84375 -1.421875 12.171875 6.21875 
Q 5.515625 13.875 5.515625 27.296875 
Q 5.515625 40.765625 12.171875 48.375 
Q 18.84375 56 30.609375 56 
z
" id="DejaVuSans-111"/>
     <path d="M 45.40625 27.984375 
Q 45.40625 37.75 41.375 43.109375 
Q 37.359375 48.484375 30.078125 48.484375 
Q 22.859375 48.484375 18.828125 43.109375 
Q 14.796875 37.75 14.796875 27.984375 
Q 14.796875 18.265625 18.828125 12.890625 
Q 22.859375 7.515625 30.078125 7.515625 
Q 37.359375 7.515625 41.375 12.890625 
Q 45.40625 18.265625 45.40625 27.984375 
z
M 54.390625 6.78125 
Q 54.390625 -7.171875 48.1875 -13.984375 
Q 42 -20.796875 29.203125 -20.796875 
Q 24.46875 -20.796875 20.265625 -20.09375 
Q 16.0625 -19.390625 12.109375 -17.921875 
L 12.109375 -9.1875 
Q 16.0625 -11.328125 19.921875 -12.34375 
Q 23.78125 -13.375 27.78125 -13.375 
Q 36.625 -13.375 41.015625 -8.765625 
Q 45.40625 -4.15625 45.40625 5.171875 
L 45.40625 9.625 
Q 42.625 4.78125 38.28125 2.390625 
Q 33.9375 0 27.875 0 
Q 17.828125 0 11.671875 7.65625 
Q 5.515625 15.328125 5.515625 27.984375 
Q 5.515625 40.671875 11.671875 48.328125 
Q 17.828125 56 27.875 56 
Q 33.9375 56 38.28125 53.609375 
Q 42.625 51.21875 45.40625 46.390625 
L 45.40625 54.6875 
L 54.390625 54.6875 
z
" id="DejaVuSans-103"/>
    </defs>
    <g transform="translate(181.680937 35.472)scale(0.12 -0.12)">
     <use xlink:href="#DejaVuSans-70"/>
     <use x="57.441406" xlink:href="#DejaVuSans-117"/>
     <use x="120.820312" xlink:href="#DejaVuSans-110"/>
     <use x="184.199219" xlink:href="#DejaVuSans-99"/>
     <use x="239.179688" xlink:href="#DejaVuSans-116"/>
     <use x="278.388672" xlink:href="#DejaVuSans-105"/>
     <use x="306.171875" xlink:href="#DejaVuSans-111"/>
     <use x="367.353516" xlink:href="#DejaVuSans-110"/>
     <use x="430.732422" xlink:href="#DejaVuSans-70"/>
     <use x="488.142578" xlink:href="#DejaVuSans-105"/>
     <use x="515.925781" xlink:href="#DejaVuSans-116"/>
     <use x="555.134766" xlink:href="#DejaVuSans-116"/>
     <use x="594.34375" xlink:href="#DejaVuSans-105"/>
     <use x="622.126953" xlink:href="#DejaVuSans-110"/>
     <use x="685.505859" xlink:href="#DejaVuSans-103"/>
     <use x="748.982422" xlink:href="#DejaVuSans-32"/>
     <use x="780.769531" xlink:href="#DejaVuSans-49"/>
     <use x="844.392578" xlink:href="#DejaVuSans-52"/>
    </g>
   </g>
   <g id="legend_1">
    <g id="patch_7">
     <path d="M 64.6 302.584 
L 172.48125 302.584 
Q 174.48125 302.584 174.48125 300.584 
L 174.48125 272.22775 
Q 174.48125 270.22775 172.48125 270.22775 
L 64.6 270.22775 
Q 62.6 270.22775 62.6 272.22775 
L 62.6 300.584 
Q 62.6 302.584 64.6 302.584 
z
" style="fill:#ffffff;opacity:0.8;stroke:#cccccc;stroke-linejoin:miter;"/>
    </g>
    <g id="line2d_15"/>
    <g id="line2d_16">
     <g>
      <use style="fill:#ff0000;stroke:#ff0000;" x="76.6" xlink:href="#mb3ab3a8fea" y="278.326187"/>
     </g>
    </g>
    <g id="text_16">
     <!-- measured data -->
     <defs>
      <path d="M 52 44.1875 
Q 55.375 50.25 60.0625 53.125 
Q 64.75 56 71.09375 56 
Q 79.640625 56 84.28125 50.015625 
Q 88.921875 44.046875 88.921875 33.015625 
L 88.921875 0 
L 79.890625 0 
L 79.890625 32.71875 
Q 79.890625 40.578125 77.09375 44.375 
Q 74.3125 48.1875 68.609375 48.1875 
Q 61.625 48.1875 57.5625 43.546875 
Q 53.515625 38.921875 53.515625 30.90625 
L 53.515625 0 
L 44.484375 0 
L 44.484375 32.71875 
Q 44.484375 40.625 41.703125 44.40625 
Q 38.921875 48.1875 33.109375 48.1875 
Q 26.21875 48.1875 22.15625 43.53125 
Q 18.109375 38.875 18.109375 30.90625 
L 18.109375 0 
L 9.078125 0 
L 9.078125 54.6875 
L 18.109375 54.6875 
L 18.109375 46.1875 
Q 21.1875 51.21875 25.484375 53.609375 
Q 29.78125 56 35.6875 56 
Q 41.65625 56 45.828125 52.96875 
Q 50 49.953125 52 44.1875 
z
" id="DejaVuSans-109"/>
      <path d="M 41.109375 46.296875 
Q 39.59375 47.171875 37.8125 47.578125 
Q 36.03125 48 33.890625 48 
Q 26.265625 48 22.1875 43.046875 
Q 18.109375 38.09375 18.109375 28.8125 
L 18.109375 0 
L 9.078125 0 
L 9.078125 54.6875 
L 18.109375 54.6875 
L 18.109375 46.1875 
Q 20.953125 51.171875 25.484375 53.578125 
Q 30.03125 56 36.53125 56 
Q 37.453125 56 38.578125 55.875 
Q 39.703125 55.765625 41.0625 55.515625 
z
" id="DejaVuSans-114"/>
      <path d="M 45.40625 46.390625 
L 45.40625 75.984375 
L 54.390625 75.984375 
L 54.390625 0 
L 45.40625 0 
L 45.40625 8.203125 
Q 42.578125 3.328125 38.25 0.953125 
Q 33.9375 -1.421875 27.875 -1.421875 
Q 17.96875 -1.421875 11.734375 6.484375 
Q 5.515625 14.40625 5.515625 27.296875 
Q 5.515625 40.1875 11.734375 48.09375 
Q 17.96875 56 27.875 56 
Q 33.9375 56 38.25 53.625 
Q 42.578125 51.265625 45.40625 46.390625 
z
M 14.796875 27.296875 
Q 14.796875 17.390625 18.875 11.75 
Q 22.953125 6.109375 30.078125 6.109375 
Q 37.203125 6.109375 41.296875 11.75 
Q 45.40625 17.390625 45.40625 27.296875 
Q 45.40625 37.203125 41.296875 42.84375 
Q 37.203125 48.484375 30.078125 48.484375 
Q 22.953125 48.484375 18.875 42.84375 
Q 14.796875 37.203125 14.796875 27.296875 
z
" id="DejaVuSans-100"/>
     </defs>
     <g transform="translate(94.6 281.826187)scale(0.1 -0.1)">
      <use xlink:href="#DejaVuSans-109"/>
      <use x="97.412109" xlink:href="#DejaVuSans-101"/>
      <use x="158.935547" xlink:href="#DejaVuSans-97"/>
      <use x="220.214844" xlink:href="#DejaVuSans-115"/>
      <use x="272.314453" xlink:href="#DejaVuSans-117"/>
      <use x="335.693359" xlink:href="#DejaVuSans-114"/>
      <use x="376.775391" xlink:href="#DejaVuSans-101"/>
      <use x="438.298828" xlink:href="#DejaVuSans-100"/>
      <use x="501.775391" xlink:href="#DejaVuSans-32"/>
      <use x="533.5625" xlink:href="#DejaVuSans-100"/>
      <use x="597.039062" xlink:href="#DejaVuSans-97"/>
      <use x="658.318359" xlink:href="#DejaVuSans-116"/>
      <use x="697.527344" xlink:href="#DejaVuSans-97"/>
     </g>
    </g>
    <g id="line2d_17">
     <path d="M 66.6 293.004312 
L 86.6 293.004312 
" style="fill:none;stroke:#008000;stroke-linecap:square;stroke-width:1.5;"/>
    </g>
    <g id="line2d_18"/>
    <g id="text_17">
     <!-- linear data -->
     <g transform="translate(94.6 296.504312)scale(0.1 -0.1)">
      <use xlink:href="#DejaVuSans-108"/>
      <use x="27.783203" xlink:href="#DejaVuSans-105"/>
      <use x="55.566406" xlink:href="#DejaVuSans-110"/>
      <use x="118.945312" xlink:href="#DejaVuSans-101"/>
      <use x="180.46875" xlink:href="#DejaVuSans-97"/>
      <use x="241.748047" xlink:href="#DejaVuSans-114"/>
      <use x="282.861328" xlink:href="#DejaVuSans-32"/>
      <use x="314.648438" xlink:href="#DejaVuSans-100"/>
      <use x="378.125" xlink:href="#DejaVuSans-97"/>
      <use x="439.404297" xlink:href="#DejaVuSans-116"/>
      <use x="478.613281" xlink:href="#DejaVuSans-97"/>
     </g>
    </g>
   </g>
  </g>
 </g>
 <defs>
  <clipPath id="p7664dd7ea1">
   <rect height="266.112" width="357.12" x="57.6" y="41.472"/>
  </clipPath>
 </defs>
</svg>
