<?xml version="1.0" encoding="utf-8" standalone="no"?>
<!DOCTYPE svg PUBLIC "-//W3C//DTD SVG 1.1//EN"
  "http://www.w3.org/Graphics/SVG/1.1/DTD/svg11.dtd">
<!-- Created with matplotlib (https://matplotlib.org/) -->
<svg height="345.6pt" version="1.1" viewBox="0 0 460.8 345.6" width="460.8pt" xmlns="http://www.w3.org/2000/svg" xmlns:xlink="http://www.w3.org/1999/xlink">
 <defs>
  <style type="text/css">
*{stroke-linecap:butt;stroke-linejoin:round;}
  </style>
 </defs>
 <g id="figure_1">
  <g id="patch_1">
   <path d="M 0 345.6 
L 460.8 345.6 
L 460.8 0 
L 0 0 
z
" style="fill:#ffffff;"/>
  </g>
  <g id="axes_1">
   <g id="patch_2">
    <path d="M 57.6 307.584 
L 414.72 307.584 
L 414.72 41.472 
L 57.6 41.472 
z
" style="fill:#ffffff;"/>
   </g>
   <g id="matplotlib.axis_1">
    <g id="xtick_1">
     <g id="line2d_1">
      <defs>
       <path d="M 0 0 
L 0 3.5 
" id="m846388451d" style="stroke:#000000;stroke-width:0.8;"/>
      </defs>
      <g>
       <use style="stroke:#000000;stroke-width:0.8;" x="60.409679" xlink:href="#m846388451d" y="307.584"/>
      </g>
     </g>
     <g id="text_1">
      <!-- 0 -->
      <defs>
       <path d="M 31.78125 66.40625 
Q 24.171875 66.40625 20.328125 58.90625 
Q 16.5 51.421875 16.5 36.375 
Q 16.5 21.390625 20.328125 13.890625 
Q 24.171875 6.390625 31.78125 6.390625 
Q 39.453125 6.390625 43.28125 13.890625 
Q 47.125 21.390625 47.125 36.375 
Q 47.125 51.421875 43.28125 58.90625 
Q 39.453125 66.40625 31.78125 66.40625 
z
M 31.78125 74.21875 
Q 44.046875 74.21875 50.515625 64.515625 
Q 56.984375 54.828125 56.984375 36.375 
Q 56.984375 17.96875 50.515625 8.265625 
Q 44.046875 -1.421875 31.78125 -1.421875 
Q 19.53125 -1.421875 13.0625 8.265625 
Q 6.59375 17.96875 6.59375 36.375 
Q 6.59375 54.828125 13.0625 64.515625 
Q 19.53125 74.21875 31.78125 74.21875 
z
" id="DejaVuSans-48"/>
      </defs>
      <g transform="translate(57.228429 322.182437)scale(0.1 -0.1)">
       <use xlink:href="#DejaVuSans-48"/>
      </g>
     </g>
    </g>
    <g id="xtick_2">
     <g id="line2d_2">
      <g>
       <use style="stroke:#000000;stroke-width:0.8;" x="117.004142" xlink:href="#m846388451d" y="307.584"/>
      </g>
     </g>
     <g id="text_2">
      <!-- 20 -->
      <defs>
       <path d="M 19.1875 8.296875 
L 53.609375 8.296875 
L 53.609375 0 
L 7.328125 0 
L 7.328125 8.296875 
Q 12.9375 14.109375 22.625 23.890625 
Q 32.328125 33.6875 34.8125 36.53125 
Q 39.546875 41.84375 41.421875 45.53125 
Q 43.3125 49.21875 43.3125 52.78125 
Q 43.3125 58.59375 39.234375 62.25 
Q 35.15625 65.921875 28.609375 65.921875 
Q 23.96875 65.921875 18.8125 64.3125 
Q 13.671875 62.703125 7.8125 59.421875 
L 7.8125 69.390625 
Q 13.765625 71.78125 18.9375 73 
Q 24.125 74.21875 28.421875 74.21875 
Q 39.75 74.21875 46.484375 68.546875 
Q 53.21875 62.890625 53.21875 53.421875 
Q 53.21875 48.921875 51.53125 44.890625 
Q 49.859375 40.875 45.40625 35.40625 
Q 44.1875 33.984375 37.640625 27.21875 
Q 31.109375 20.453125 19.1875 8.296875 
z
" id="DejaVuSans-50"/>
      </defs>
      <g transform="translate(110.641642 322.182437)scale(0.1 -0.1)">
       <use xlink:href="#DejaVuSans-50"/>
       <use x="63.623047" xlink:href="#DejaVuSans-48"/>
      </g>
     </g>
    </g>
    <g id="xtick_3">
     <g id="line2d_3">
      <g>
       <use style="stroke:#000000;stroke-width:0.8;" x="173.598604" xlink:href="#m846388451d" y="307.584"/>
      </g>
     </g>
     <g id="text_3">
      <!-- 40 -->
      <defs>
       <path d="M 37.796875 64.3125 
L 12.890625 25.390625 
L 37.796875 25.390625 
z
M 35.203125 72.90625 
L 47.609375 72.90625 
L 47.609375 25.390625 
L 58.015625 25.390625 
L 58.015625 17.1875 
L 47.609375 17.1875 
L 47.609375 0 
L 37.796875 0 
L 37.796875 17.1875 
L 4.890625 17.1875 
L 4.890625 26.703125 
z
" id="DejaVuSans-52"/>
      </defs>
      <g transform="translate(167.236104 322.182437)scale(0.1 -0.1)">
       <use xlink:href="#DejaVuSans-52"/>
       <use x="63.623047" xlink:href="#DejaVuSans-48"/>
      </g>
     </g>
    </g>
    <g id="xtick_4">
     <g id="line2d_4">
      <g>
       <use style="stroke:#000000;stroke-width:0.8;" x="230.193067" xlink:href="#m846388451d" y="307.584"/>
      </g>
     </g>
     <g id="text_4">
      <!-- 60 -->
      <defs>
       <path d="M 33.015625 40.375 
Q 26.375 40.375 22.484375 35.828125 
Q 18.609375 31.296875 18.609375 23.390625 
Q 18.609375 15.53125 22.484375 10.953125 
Q 26.375 6.390625 33.015625 6.390625 
Q 39.65625 6.390625 43.53125 10.953125 
Q 47.40625 15.53125 47.40625 23.390625 
Q 47.40625 31.296875 43.53125 35.828125 
Q 39.65625 40.375 33.015625 40.375 
z
M 52.59375 71.296875 
L 52.59375 62.3125 
Q 48.875 64.0625 45.09375 64.984375 
Q 41.3125 65.921875 37.59375 65.921875 
Q 27.828125 65.921875 22.671875 59.328125 
Q 17.53125 52.734375 16.796875 39.40625 
Q 19.671875 43.65625 24.015625 45.921875 
Q 28.375 48.1875 33.59375 48.1875 
Q 44.578125 48.1875 50.953125 41.515625 
Q 57.328125 34.859375 57.328125 23.390625 
Q 57.328125 12.15625 50.6875 5.359375 
Q 44.046875 -1.421875 33.015625 -1.421875 
Q 20.359375 -1.421875 13.671875 8.265625 
Q 6.984375 17.96875 6.984375 36.375 
Q 6.984375 53.65625 15.1875 63.9375 
Q 23.390625 74.21875 37.203125 74.21875 
Q 40.921875 74.21875 44.703125 73.484375 
Q 48.484375 72.75 52.59375 71.296875 
z
" id="DejaVuSans-54"/>
      </defs>
      <g transform="translate(223.830567 322.182437)scale(0.1 -0.1)">
       <use xlink:href="#DejaVuSans-54"/>
       <use x="63.623047" xlink:href="#DejaVuSans-48"/>
      </g>
     </g>
    </g>
    <g id="xtick_5">
     <g id="line2d_5">
      <g>
       <use style="stroke:#000000;stroke-width:0.8;" x="286.787529" xlink:href="#m846388451d" y="307.584"/>
      </g>
     </g>
     <g id="text_5">
      <!-- 80 -->
      <defs>
       <path d="M 31.78125 34.625 
Q 24.75 34.625 20.71875 30.859375 
Q 16.703125 27.09375 16.703125 20.515625 
Q 16.703125 13.921875 20.71875 10.15625 
Q 24.75 6.390625 31.78125 6.390625 
Q 38.8125 6.390625 42.859375 10.171875 
Q 46.921875 13.96875 46.921875 20.515625 
Q 46.921875 27.09375 42.890625 30.859375 
Q 38.875 34.625 31.78125 34.625 
z
M 21.921875 38.8125 
Q 15.578125 40.375 12.03125 44.71875 
Q 8.5 49.078125 8.5 55.328125 
Q 8.5 64.0625 14.71875 69.140625 
Q 20.953125 74.21875 31.78125 74.21875 
Q 42.671875 74.21875 48.875 69.140625 
Q 55.078125 64.0625 55.078125 55.328125 
Q 55.078125 49.078125 51.53125 44.71875 
Q 48 40.375 41.703125 38.8125 
Q 48.828125 37.15625 52.796875 32.3125 
Q 56.78125 27.484375 56.78125 20.515625 
Q 56.78125 9.90625 50.3125 4.234375 
Q 43.84375 -1.421875 31.78125 -1.421875 
Q 19.734375 -1.421875 13.25 4.234375 
Q 6.78125 9.90625 6.78125 20.515625 
Q 6.78125 27.484375 10.78125 32.3125 
Q 14.796875 37.15625 21.921875 38.8125 
z
M 18.3125 54.390625 
Q 18.3125 48.734375 21.84375 45.5625 
Q 25.390625 42.390625 31.78125 42.390625 
Q 38.140625 42.390625 41.71875 45.5625 
Q 45.3125 48.734375 45.3125 54.390625 
Q 45.3125 60.0625 41.71875 63.234375 
Q 38.140625 66.40625 31.78125 66.40625 
Q 25.390625 66.40625 21.84375 63.234375 
Q 18.3125 60.0625 18.3125 54.390625 
z
" id="DejaVuSans-56"/>
      </defs>
      <g transform="translate(280.425029 322.182437)scale(0.1 -0.1)">
       <use xlink:href="#DejaVuSans-56"/>
       <use x="63.623047" xlink:href="#DejaVuSans-48"/>
      </g>
     </g>
    </g>
    <g id="xtick_6">
     <g id="line2d_6">
      <g>
       <use style="stroke:#000000;stroke-width:0.8;" x="343.381992" xlink:href="#m846388451d" y="307.584"/>
      </g>
     </g>
     <g id="text_6">
      <!-- 100 -->
      <defs>
       <path d="M 12.40625 8.296875 
L 28.515625 8.296875 
L 28.515625 63.921875 
L 10.984375 60.40625 
L 10.984375 69.390625 
L 28.421875 72.90625 
L 38.28125 72.90625 
L 38.28125 8.296875 
L 54.390625 8.296875 
L 54.390625 0 
L 12.40625 0 
z
" id="DejaVuSans-49"/>
      </defs>
      <g transform="translate(333.838242 322.182437)scale(0.1 -0.1)">
       <use xlink:href="#DejaVuSans-49"/>
       <use x="63.623047" xlink:href="#DejaVuSans-48"/>
       <use x="127.246094" xlink:href="#DejaVuSans-48"/>
      </g>
     </g>
    </g>
    <g id="xtick_7">
     <g id="line2d_7">
      <g>
       <use style="stroke:#000000;stroke-width:0.8;" x="399.976454" xlink:href="#m846388451d" y="307.584"/>
      </g>
     </g>
     <g id="text_7">
      <!-- 120 -->
      <g transform="translate(390.432704 322.182437)scale(0.1 -0.1)">
       <use xlink:href="#DejaVuSans-49"/>
       <use x="63.623047" xlink:href="#DejaVuSans-50"/>
       <use x="127.246094" xlink:href="#DejaVuSans-48"/>
      </g>
     </g>
    </g>
    <g id="text_8">
     <!-- x values -->
     <defs>
      <path d="M 54.890625 54.6875 
L 35.109375 28.078125 
L 55.90625 0 
L 45.3125 0 
L 29.390625 21.484375 
L 13.484375 0 
L 2.875 0 
L 24.125 28.609375 
L 4.6875 54.6875 
L 15.28125 54.6875 
L 29.78125 35.203125 
L 44.28125 54.6875 
z
" id="DejaVuSans-120"/>
      <path id="DejaVuSans-32"/>
      <path d="M 2.984375 54.6875 
L 12.5 54.6875 
L 29.59375 8.796875 
L 46.6875 54.6875 
L 56.203125 54.6875 
L 35.6875 0 
L 23.484375 0 
z
" id="DejaVuSans-118"/>
      <path d="M 34.28125 27.484375 
Q 23.390625 27.484375 19.1875 25 
Q 14.984375 22.515625 14.984375 16.5 
Q 14.984375 11.71875 18.140625 8.90625 
Q 21.296875 6.109375 26.703125 6.109375 
Q 34.1875 6.109375 38.703125 11.40625 
Q 43.21875 16.703125 43.21875 25.484375 
L 43.21875 27.484375 
z
M 52.203125 31.203125 
L 52.203125 0 
L 43.21875 0 
L 43.21875 8.296875 
Q 40.140625 3.328125 35.546875 0.953125 
Q 30.953125 -1.421875 24.3125 -1.421875 
Q 15.921875 -1.421875 10.953125 3.296875 
Q 6 8.015625 6 15.921875 
Q 6 25.140625 12.171875 29.828125 
Q 18.359375 34.515625 30.609375 34.515625 
L 43.21875 34.515625 
L 43.21875 35.40625 
Q 43.21875 41.609375 39.140625 45 
Q 35.0625 48.390625 27.6875 48.390625 
Q 23 48.390625 18.546875 47.265625 
Q 14.109375 46.140625 10.015625 43.890625 
L 10.015625 52.203125 
Q 14.9375 54.109375 19.578125 55.046875 
Q 24.21875 56 28.609375 56 
Q 40.484375 56 46.34375 49.84375 
Q 52.203125 43.703125 52.203125 31.203125 
z
" id="DejaVuSans-97"/>
      <path d="M 9.421875 75.984375 
L 18.40625 75.984375 
L 18.40625 0 
L 9.421875 0 
z
" id="DejaVuSans-108"/>
      <path d="M 8.5 21.578125 
L 8.5 54.6875 
L 17.484375 54.6875 
L 17.484375 21.921875 
Q 17.484375 14.15625 20.5 10.265625 
Q 23.53125 6.390625 29.59375 6.390625 
Q 36.859375 6.390625 41.078125 11.03125 
Q 45.3125 15.671875 45.3125 23.6875 
L 45.3125 54.6875 
L 54.296875 54.6875 
L 54.296875 0 
L 45.3125 0 
L 45.3125 8.40625 
Q 42.046875 3.421875 37.71875 1 
Q 33.40625 -1.421875 27.6875 -1.421875 
Q 18.265625 -1.421875 13.375 4.4375 
Q 8.5 10.296875 8.5 21.578125 
z
M 31.109375 56 
z
" id="DejaVuSans-117"/>
      <path d="M 56.203125 29.59375 
L 56.203125 25.203125 
L 14.890625 25.203125 
Q 15.484375 15.921875 20.484375 11.0625 
Q 25.484375 6.203125 34.421875 6.203125 
Q 39.59375 6.203125 44.453125 7.46875 
Q 49.3125 8.734375 54.109375 11.28125 
L 54.109375 2.78125 
Q 49.265625 0.734375 44.1875 -0.34375 
Q 39.109375 -1.421875 33.890625 -1.421875 
Q 20.796875 -1.421875 13.15625 6.1875 
Q 5.515625 13.8125 5.515625 26.8125 
Q 5.515625 40.234375 12.765625 48.109375 
Q 20.015625 56 32.328125 56 
Q 43.359375 56 49.78125 48.890625 
Q 56.203125 41.796875 56.203125 29.59375 
z
M 47.21875 32.234375 
Q 47.125 39.59375 43.09375 43.984375 
Q 39.0625 48.390625 32.421875 48.390625 
Q 24.90625 48.390625 20.390625 44.140625 
Q 15.875 39.890625 15.1875 32.171875 
z
" id="DejaVuSans-101"/>
      <path d="M 44.28125 53.078125 
L 44.28125 44.578125 
Q 40.484375 46.53125 36.375 47.5 
Q 32.28125 48.484375 27.875 48.484375 
Q 21.1875 48.484375 17.84375 46.4375 
Q 14.5 44.390625 14.5 40.28125 
Q 14.5 37.15625 16.890625 35.375 
Q 19.28125 33.59375 26.515625 31.984375 
L 29.59375 31.296875 
Q 39.15625 29.25 43.1875 25.515625 
Q 47.21875 21.78125 47.21875 15.09375 
Q 47.21875 7.46875 41.1875 3.015625 
Q 35.15625 -1.421875 24.609375 -1.421875 
Q 20.21875 -1.421875 15.453125 -0.5625 
Q 10.6875 0.296875 5.421875 2 
L 5.421875 11.28125 
Q 10.40625 8.6875 15.234375 7.390625 
Q 20.0625 6.109375 24.8125 6.109375 
Q 31.15625 6.109375 34.5625 8.28125 
Q 37.984375 10.453125 37.984375 14.40625 
Q 37.984375 18.0625 35.515625 20.015625 
Q 33.0625 21.96875 24.703125 23.78125 
L 21.578125 24.515625 
Q 13.234375 26.265625 9.515625 29.90625 
Q 5.8125 33.546875 5.8125 39.890625 
Q 5.8125 47.609375 11.28125 51.796875 
Q 16.75 56 26.8125 56 
Q 31.78125 56 36.171875 55.265625 
Q 40.578125 54.546875 44.28125 53.078125 
z
" id="DejaVuSans-115"/>
     </defs>
     <g transform="translate(215.349063 335.860562)scale(0.1 -0.1)">
      <use xlink:href="#DejaVuSans-120"/>
      <use x="59.179688" xlink:href="#DejaVuSans-32"/>
      <use x="90.966797" xlink:href="#DejaVuSans-118"/>
      <use x="150.146484" xlink:href="#DejaVuSans-97"/>
      <use x="211.425781" xlink:href="#DejaVuSans-108"/>
      <use x="239.208984" xlink:href="#DejaVuSans-117"/>
      <use x="302.587891" xlink:href="#DejaVuSans-101"/>
      <use x="364.111328" xlink:href="#DejaVuSans-115"/>
     </g>
    </g>
   </g>
   <g id="matplotlib.axis_2">
    <g id="ytick_1">
     <g id="line2d_8">
      <defs>
       <path d="M 0 0 
L -3.5 0 
" id="mae9116ecd5" style="stroke:#000000;stroke-width:0.8;"/>
      </defs>
      <g>
       <use style="stroke:#000000;stroke-width:0.8;" x="57.6" xlink:href="#mae9116ecd5" y="289.650162"/>
      </g>
     </g>
     <g id="text_9">
      <!-- 0 -->
      <g transform="translate(44.2375 293.449381)scale(0.1 -0.1)">
       <use xlink:href="#DejaVuSans-48"/>
      </g>
     </g>
    </g>
    <g id="ytick_2">
     <g id="line2d_9">
      <g>
       <use style="stroke:#000000;stroke-width:0.8;" x="57.6" xlink:href="#mae9116ecd5" y="242.796801"/>
      </g>
     </g>
     <g id="text_10">
      <!-- 100 -->
      <g transform="translate(31.5125 246.59602)scale(0.1 -0.1)">
       <use xlink:href="#DejaVuSans-49"/>
       <use x="63.623047" xlink:href="#DejaVuSans-48"/>
       <use x="127.246094" xlink:href="#DejaVuSans-48"/>
      </g>
     </g>
    </g>
    <g id="ytick_3">
     <g id="line2d_10">
      <g>
       <use style="stroke:#000000;stroke-width:0.8;" x="57.6" xlink:href="#mae9116ecd5" y="195.94344"/>
      </g>
     </g>
     <g id="text_11">
      <!-- 200 -->
      <g transform="translate(31.5125 199.742659)scale(0.1 -0.1)">
       <use xlink:href="#DejaVuSans-50"/>
       <use x="63.623047" xlink:href="#DejaVuSans-48"/>
       <use x="127.246094" xlink:href="#DejaVuSans-48"/>
      </g>
     </g>
    </g>
    <g id="ytick_4">
     <g id="line2d_11">
      <g>
       <use style="stroke:#000000;stroke-width:0.8;" x="57.6" xlink:href="#mae9116ecd5" y="149.090079"/>
      </g>
     </g>
     <g id="text_12">
      <!-- 300 -->
      <defs>
       <path d="M 40.578125 39.3125 
Q 47.65625 37.796875 51.625 33 
Q 55.609375 28.21875 55.609375 21.1875 
Q 55.609375 10.40625 48.1875 4.484375 
Q 40.765625 -1.421875 27.09375 -1.421875 
Q 22.515625 -1.421875 17.65625 -0.515625 
Q 12.796875 0.390625 7.625 2.203125 
L 7.625 11.71875 
Q 11.71875 9.328125 16.59375 8.109375 
Q 21.484375 6.890625 26.8125 6.890625 
Q 36.078125 6.890625 40.9375 10.546875 
Q 45.796875 14.203125 45.796875 21.1875 
Q 45.796875 27.640625 41.28125 31.265625 
Q 36.765625 34.90625 28.71875 34.90625 
L 20.21875 34.90625 
L 20.21875 43.015625 
L 29.109375 43.015625 
Q 36.375 43.015625 40.234375 45.921875 
Q 44.09375 48.828125 44.09375 54.296875 
Q 44.09375 59.90625 40.109375 62.90625 
Q 36.140625 65.921875 28.71875 65.921875 
Q 24.65625 65.921875 20.015625 65.03125 
Q 15.375 64.15625 9.8125 62.3125 
L 9.8125 71.09375 
Q 15.4375 72.65625 20.34375 73.4375 
Q 25.25 74.21875 29.59375 74.21875 
Q 40.828125 74.21875 47.359375 69.109375 
Q 53.90625 64.015625 53.90625 55.328125 
Q 53.90625 49.265625 50.4375 45.09375 
Q 46.96875 40.921875 40.578125 39.3125 
z
" id="DejaVuSans-51"/>
      </defs>
      <g transform="translate(31.5125 152.889298)scale(0.1 -0.1)">
       <use xlink:href="#DejaVuSans-51"/>
       <use x="63.623047" xlink:href="#DejaVuSans-48"/>
       <use x="127.246094" xlink:href="#DejaVuSans-48"/>
      </g>
     </g>
    </g>
    <g id="ytick_5">
     <g id="line2d_12">
      <g>
       <use style="stroke:#000000;stroke-width:0.8;" x="57.6" xlink:href="#mae9116ecd5" y="102.236718"/>
      </g>
     </g>
     <g id="text_13">
      <!-- 400 -->
      <g transform="translate(31.5125 106.035937)scale(0.1 -0.1)">
       <use xlink:href="#DejaVuSans-52"/>
       <use x="63.623047" xlink:href="#DejaVuSans-48"/>
       <use x="127.246094" xlink:href="#DejaVuSans-48"/>
      </g>
     </g>
    </g>
    <g id="ytick_6">
     <g id="line2d_13">
      <g>
       <use style="stroke:#000000;stroke-width:0.8;" x="57.6" xlink:href="#mae9116ecd5" y="55.383357"/>
      </g>
     </g>
     <g id="text_14">
      <!-- 500 -->
      <defs>
       <path d="M 10.796875 72.90625 
L 49.515625 72.90625 
L 49.515625 64.59375 
L 19.828125 64.59375 
L 19.828125 46.734375 
Q 21.96875 47.46875 24.109375 47.828125 
Q 26.265625 48.1875 28.421875 48.1875 
Q 40.625 48.1875 47.75 41.5 
Q 54.890625 34.8125 54.890625 23.390625 
Q 54.890625 11.625 47.5625 5.09375 
Q 40.234375 -1.421875 26.90625 -1.421875 
Q 22.3125 -1.421875 17.546875 -0.640625 
Q 12.796875 0.140625 7.71875 1.703125 
L 7.71875 11.625 
Q 12.109375 9.234375 16.796875 8.0625 
Q 21.484375 6.890625 26.703125 6.890625 
Q 35.15625 6.890625 40.078125 11.328125 
Q 45.015625 15.765625 45.015625 23.390625 
Q 45.015625 31 40.078125 35.4375 
Q 35.15625 39.890625 26.703125 39.890625 
Q 22.75 39.890625 18.8125 39.015625 
Q 14.890625 38.140625 10.796875 36.28125 
z
" id="DejaVuSans-53"/>
      </defs>
      <g transform="translate(31.5125 59.182576)scale(0.1 -0.1)">
       <use xlink:href="#DejaVuSans-53"/>
       <use x="63.623047" xlink:href="#DejaVuSans-48"/>
       <use x="127.246094" xlink:href="#DejaVuSans-48"/>
      </g>
     </g>
    </g>
    <g id="text_15">
     <!-- y values -->
     <defs>
      <path d="M 32.171875 -5.078125 
Q 28.375 -14.84375 24.75 -17.8125 
Q 21.140625 -20.796875 15.09375 -20.796875 
L 7.90625 -20.796875 
L 7.90625 -13.28125 
L 13.1875 -13.28125 
Q 16.890625 -13.28125 18.9375 -11.515625 
Q 21 -9.765625 23.484375 -3.21875 
L 25.09375 0.875 
L 2.984375 54.6875 
L 12.5 54.6875 
L 29.59375 11.921875 
L 46.6875 54.6875 
L 56.203125 54.6875 
z
" id="DejaVuSans-121"/>
     </defs>
     <g transform="translate(25.432812 195.338937)rotate(-90)scale(0.1 -0.1)">
      <use xlink:href="#DejaVuSans-121"/>
      <use x="59.179688" xlink:href="#DejaVuSans-32"/>
      <use x="90.966797" xlink:href="#DejaVuSans-118"/>
      <use x="150.146484" xlink:href="#DejaVuSans-97"/>
      <use x="211.425781" xlink:href="#DejaVuSans-108"/>
      <use x="239.208984" xlink:href="#DejaVuSans-117"/>
      <use x="302.587891" xlink:href="#DejaVuSans-101"/>
      <use x="364.111328" xlink:href="#DejaVuSans-115"/>
     </g>
    </g>
   </g>
   <g id="line2d_14">
    <defs>
     <path d="M 0 1 
C 0.265203 1 0.51958 0.894634 0.707107 0.707107 
C 0.894634 0.51958 1 0.265203 1 0 
C 1 -0.265203 0.894634 -0.51958 0.707107 -0.707107 
C 0.51958 -0.894634 0.265203 -1 0 -1 
C -0.265203 -1 -0.51958 -0.894634 -0.707107 -0.707107 
C -0.894634 -0.51958 -1 -0.265203 -1 0 
C -1 0.265203 -0.894634 0.51958 -0.707107 0.707107 
C -0.51958 0.894634 -0.265203 1 0 1 
z
" id="ma2badc4f52" style="stroke:#ff0000;"/>
    </defs>
    <g clip-path="url(#p50b2beab1c)">
     <use style="fill:#ff0000;stroke:#ff0000;" x="73.832727" xlink:href="#ma2badc4f52" y="65.619022"/>
     <use style="fill:#ff0000;stroke:#ff0000;" x="74.996364" xlink:href="#ma2badc4f52" y="64.476055"/>
     <use style="fill:#ff0000;stroke:#ff0000;" x="76.16" xlink:href="#ma2badc4f52" y="55.149041"/>
     <use style="fill:#ff0000;stroke:#ff0000;" x="77.323636" xlink:href="#ma2badc4f52" y="70.431268"/>
     <use style="fill:#ff0000;stroke:#ff0000;" x="78.487273" xlink:href="#ma2badc4f52" y="102.276871"/>
     <use style="fill:#ff0000;stroke:#ff0000;" x="79.650909" xlink:href="#ma2badc4f52" y="53.568"/>
     <use style="fill:#ff0000;stroke:#ff0000;" x="80.814545" xlink:href="#ma2badc4f52" y="95.147483"/>
     <use style="fill:#ff0000;stroke:#ff0000;" x="81.978182" xlink:href="#ma2badc4f52" y="59.329781"/>
     <use style="fill:#ff0000;stroke:#ff0000;" x="83.141818" xlink:href="#ma2badc4f52" y="81.306532"/>
     <use style="fill:#ff0000;stroke:#ff0000;" x="84.305455" xlink:href="#ma2badc4f52" y="108.941487"/>
     <use style="fill:#ff0000;stroke:#ff0000;" x="85.469091" xlink:href="#ma2badc4f52" y="130.895463"/>
     <use style="fill:#ff0000;stroke:#ff0000;" x="86.632727" xlink:href="#ma2badc4f52" y="91.813596"/>
     <use style="fill:#ff0000;stroke:#ff0000;" x="87.796364" xlink:href="#ma2badc4f52" y="67.848357"/>
     <use style="fill:#ff0000;stroke:#ff0000;" x="88.96" xlink:href="#ma2badc4f52" y="79.168101"/>
     <use style="fill:#ff0000;stroke:#ff0000;" x="90.123636" xlink:href="#ma2badc4f52" y="57.029749"/>
     <use style="fill:#ff0000;stroke:#ff0000;" x="91.287273" xlink:href="#ma2badc4f52" y="135.552785"/>
     <use style="fill:#ff0000;stroke:#ff0000;" x="92.450909" xlink:href="#ma2badc4f52" y="129.177946"/>
     <use style="fill:#ff0000;stroke:#ff0000;" x="93.614545" xlink:href="#ma2badc4f52" y="75.439874"/>
     <use style="fill:#ff0000;stroke:#ff0000;" x="94.778182" xlink:href="#ma2badc4f52" y="103.94523"/>
     <use style="fill:#ff0000;stroke:#ff0000;" x="95.941818" xlink:href="#ma2badc4f52" y="79.995254"/>
     <use style="fill:#ff0000;stroke:#ff0000;" x="97.105455" xlink:href="#ma2badc4f52" y="128.293837"/>
     <use style="fill:#ff0000;stroke:#ff0000;" x="98.269091" xlink:href="#ma2badc4f52" y="116.509277"/>
     <use style="fill:#ff0000;stroke:#ff0000;" x="99.432727" xlink:href="#ma2badc4f52" y="134.598601"/>
     <use style="fill:#ff0000;stroke:#ff0000;" x="100.596364" xlink:href="#ma2badc4f52" y="105.630476"/>
     <use style="fill:#ff0000;stroke:#ff0000;" x="101.76" xlink:href="#ma2badc4f52" y="100.311212"/>
     <use style="fill:#ff0000;stroke:#ff0000;" x="102.923636" xlink:href="#ma2badc4f52" y="163.91739"/>
     <use style="fill:#ff0000;stroke:#ff0000;" x="104.087273" xlink:href="#ma2badc4f52" y="128.569565"/>
     <use style="fill:#ff0000;stroke:#ff0000;" x="105.250909" xlink:href="#ma2badc4f52" y="97.035341"/>
     <use style="fill:#ff0000;stroke:#ff0000;" x="106.414545" xlink:href="#ma2badc4f52" y="112.0337"/>
     <use style="fill:#ff0000;stroke:#ff0000;" x="107.578182" xlink:href="#ma2badc4f52" y="146.70055"/>
     <use style="fill:#ff0000;stroke:#ff0000;" x="108.741818" xlink:href="#ma2badc4f52" y="126.288245"/>
     <use style="fill:#ff0000;stroke:#ff0000;" x="109.905455" xlink:href="#ma2badc4f52" y="107.441042"/>
     <use style="fill:#ff0000;stroke:#ff0000;" x="111.069091" xlink:href="#ma2badc4f52" y="158.952382"/>
     <use style="fill:#ff0000;stroke:#ff0000;" x="112.232727" xlink:href="#ma2badc4f52" y="119.439345"/>
     <use style="fill:#ff0000;stroke:#ff0000;" x="113.396364" xlink:href="#ma2badc4f52" y="153.539307"/>
     <use style="fill:#ff0000;stroke:#ff0000;" x="114.56" xlink:href="#ma2badc4f52" y="140.196969"/>
     <use style="fill:#ff0000;stroke:#ff0000;" x="115.723636" xlink:href="#ma2badc4f52" y="174.979348"/>
     <use style="fill:#ff0000;stroke:#ff0000;" x="116.887273" xlink:href="#ma2badc4f52" y="129.285428"/>
     <use style="fill:#ff0000;stroke:#ff0000;" x="118.050909" xlink:href="#ma2badc4f52" y="162.625221"/>
     <use style="fill:#ff0000;stroke:#ff0000;" x="119.214545" xlink:href="#ma2badc4f52" y="168.185012"/>
     <use style="fill:#ff0000;stroke:#ff0000;" x="120.378182" xlink:href="#ma2badc4f52" y="184.376188"/>
     <use style="fill:#ff0000;stroke:#ff0000;" x="121.541818" xlink:href="#ma2badc4f52" y="180.38816"/>
     <use style="fill:#ff0000;stroke:#ff0000;" x="122.705455" xlink:href="#ma2badc4f52" y="168.01048"/>
     <use style="fill:#ff0000;stroke:#ff0000;" x="123.869091" xlink:href="#ma2badc4f52" y="150.336908"/>
     <use style="fill:#ff0000;stroke:#ff0000;" x="125.032727" xlink:href="#ma2badc4f52" y="155.997341"/>
     <use style="fill:#ff0000;stroke:#ff0000;" x="126.196364" xlink:href="#ma2badc4f52" y="181.51088"/>
     <use style="fill:#ff0000;stroke:#ff0000;" x="127.36" xlink:href="#ma2badc4f52" y="160.130268"/>
     <use style="fill:#ff0000;stroke:#ff0000;" x="128.523636" xlink:href="#ma2badc4f52" y="154.342901"/>
     <use style="fill:#ff0000;stroke:#ff0000;" x="129.687273" xlink:href="#ma2badc4f52" y="179.784252"/>
     <use style="fill:#ff0000;stroke:#ff0000;" x="130.850909" xlink:href="#ma2badc4f52" y="196.311342"/>
     <use style="fill:#ff0000;stroke:#ff0000;" x="132.014545" xlink:href="#ma2badc4f52" y="180.452535"/>
     <use style="fill:#ff0000;stroke:#ff0000;" x="133.178182" xlink:href="#ma2badc4f52" y="164.582393"/>
     <use style="fill:#ff0000;stroke:#ff0000;" x="134.341818" xlink:href="#ma2badc4f52" y="180.123275"/>
     <use style="fill:#ff0000;stroke:#ff0000;" x="135.505455" xlink:href="#ma2badc4f52" y="173.657662"/>
     <use style="fill:#ff0000;stroke:#ff0000;" x="136.669091" xlink:href="#ma2badc4f52" y="193.864678"/>
     <use style="fill:#ff0000;stroke:#ff0000;" x="137.832727" xlink:href="#ma2badc4f52" y="201.264364"/>
     <use style="fill:#ff0000;stroke:#ff0000;" x="138.996364" xlink:href="#ma2badc4f52" y="189.944104"/>
     <use style="fill:#ff0000;stroke:#ff0000;" x="140.16" xlink:href="#ma2badc4f52" y="206.126453"/>
     <use style="fill:#ff0000;stroke:#ff0000;" x="141.323636" xlink:href="#ma2badc4f52" y="195.211248"/>
     <use style="fill:#ff0000;stroke:#ff0000;" x="142.487273" xlink:href="#ma2badc4f52" y="193.145699"/>
     <use style="fill:#ff0000;stroke:#ff0000;" x="143.650909" xlink:href="#ma2badc4f52" y="227.269401"/>
     <use style="fill:#ff0000;stroke:#ff0000;" x="144.814545" xlink:href="#ma2badc4f52" y="191.797948"/>
     <use style="fill:#ff0000;stroke:#ff0000;" x="145.978182" xlink:href="#ma2badc4f52" y="204.651326"/>
     <use style="fill:#ff0000;stroke:#ff0000;" x="147.141818" xlink:href="#ma2badc4f52" y="193.855592"/>
     <use style="fill:#ff0000;stroke:#ff0000;" x="148.305455" xlink:href="#ma2badc4f52" y="202.467044"/>
     <use style="fill:#ff0000;stroke:#ff0000;" x="149.469091" xlink:href="#ma2badc4f52" y="199.379068"/>
     <use style="fill:#ff0000;stroke:#ff0000;" x="150.632727" xlink:href="#ma2badc4f52" y="187.45481"/>
     <use style="fill:#ff0000;stroke:#ff0000;" x="151.796364" xlink:href="#ma2badc4f52" y="184.138883"/>
     <use style="fill:#ff0000;stroke:#ff0000;" x="152.96" xlink:href="#ma2badc4f52" y="211.574495"/>
     <use style="fill:#ff0000;stroke:#ff0000;" x="154.123636" xlink:href="#ma2badc4f52" y="205.946647"/>
     <use style="fill:#ff0000;stroke:#ff0000;" x="155.287273" xlink:href="#ma2badc4f52" y="210.39636"/>
     <use style="fill:#ff0000;stroke:#ff0000;" x="156.450909" xlink:href="#ma2badc4f52" y="206.067002"/>
     <use style="fill:#ff0000;stroke:#ff0000;" x="157.614545" xlink:href="#ma2badc4f52" y="208.502267"/>
     <use style="fill:#ff0000;stroke:#ff0000;" x="158.778182" xlink:href="#ma2badc4f52" y="212.288623"/>
     <use style="fill:#ff0000;stroke:#ff0000;" x="159.941818" xlink:href="#ma2badc4f52" y="223.6966"/>
     <use style="fill:#ff0000;stroke:#ff0000;" x="161.105455" xlink:href="#ma2badc4f52" y="224.458101"/>
     <use style="fill:#ff0000;stroke:#ff0000;" x="162.269091" xlink:href="#ma2badc4f52" y="227.977099"/>
     <use style="fill:#ff0000;stroke:#ff0000;" x="163.432727" xlink:href="#ma2badc4f52" y="221.747923"/>
     <use style="fill:#ff0000;stroke:#ff0000;" x="164.596364" xlink:href="#ma2badc4f52" y="239.948431"/>
     <use style="fill:#ff0000;stroke:#ff0000;" x="165.76" xlink:href="#ma2badc4f52" y="249.003668"/>
     <use style="fill:#ff0000;stroke:#ff0000;" x="166.923636" xlink:href="#ma2badc4f52" y="232.314923"/>
     <use style="fill:#ff0000;stroke:#ff0000;" x="168.087273" xlink:href="#ma2badc4f52" y="236.701143"/>
     <use style="fill:#ff0000;stroke:#ff0000;" x="169.250909" xlink:href="#ma2badc4f52" y="230.392515"/>
     <use style="fill:#ff0000;stroke:#ff0000;" x="170.414545" xlink:href="#ma2badc4f52" y="222.334438"/>
     <use style="fill:#ff0000;stroke:#ff0000;" x="171.578182" xlink:href="#ma2badc4f52" y="234.541044"/>
     <use style="fill:#ff0000;stroke:#ff0000;" x="172.741818" xlink:href="#ma2badc4f52" y="249.813695"/>
     <use style="fill:#ff0000;stroke:#ff0000;" x="173.905455" xlink:href="#ma2badc4f52" y="235.053666"/>
     <use style="fill:#ff0000;stroke:#ff0000;" x="175.069091" xlink:href="#ma2badc4f52" y="232.757286"/>
     <use style="fill:#ff0000;stroke:#ff0000;" x="176.232727" xlink:href="#ma2badc4f52" y="241.882519"/>
     <use style="fill:#ff0000;stroke:#ff0000;" x="177.396364" xlink:href="#ma2badc4f52" y="247.087009"/>
     <use style="fill:#ff0000;stroke:#ff0000;" x="178.56" xlink:href="#ma2badc4f52" y="244.172777"/>
     <use style="fill:#ff0000;stroke:#ff0000;" x="179.723636" xlink:href="#ma2badc4f52" y="235.030962"/>
     <use style="fill:#ff0000;stroke:#ff0000;" x="180.887273" xlink:href="#ma2badc4f52" y="251.947678"/>
     <use style="fill:#ff0000;stroke:#ff0000;" x="182.050909" xlink:href="#ma2badc4f52" y="240.75089"/>
     <use style="fill:#ff0000;stroke:#ff0000;" x="183.214545" xlink:href="#ma2badc4f52" y="234.804453"/>
     <use style="fill:#ff0000;stroke:#ff0000;" x="184.378182" xlink:href="#ma2badc4f52" y="250.606428"/>
     <use style="fill:#ff0000;stroke:#ff0000;" x="185.541818" xlink:href="#ma2badc4f52" y="263.161279"/>
     <use style="fill:#ff0000;stroke:#ff0000;" x="186.705455" xlink:href="#ma2badc4f52" y="266.170555"/>
     <use style="fill:#ff0000;stroke:#ff0000;" x="187.869091" xlink:href="#ma2badc4f52" y="263.766865"/>
     <use style="fill:#ff0000;stroke:#ff0000;" x="189.032727" xlink:href="#ma2badc4f52" y="257.823341"/>
     <use style="fill:#ff0000;stroke:#ff0000;" x="190.196364" xlink:href="#ma2badc4f52" y="259.994156"/>
     <use style="fill:#ff0000;stroke:#ff0000;" x="191.36" xlink:href="#ma2badc4f52" y="265.796739"/>
     <use style="fill:#ff0000;stroke:#ff0000;" x="192.523636" xlink:href="#ma2badc4f52" y="273.993959"/>
     <use style="fill:#ff0000;stroke:#ff0000;" x="193.687273" xlink:href="#ma2badc4f52" y="256.892248"/>
     <use style="fill:#ff0000;stroke:#ff0000;" x="194.850909" xlink:href="#ma2badc4f52" y="260.007977"/>
     <use style="fill:#ff0000;stroke:#ff0000;" x="196.014545" xlink:href="#ma2badc4f52" y="249.839389"/>
     <use style="fill:#ff0000;stroke:#ff0000;" x="197.178182" xlink:href="#ma2badc4f52" y="267.756953"/>
     <use style="fill:#ff0000;stroke:#ff0000;" x="198.341818" xlink:href="#ma2badc4f52" y="273.705349"/>
     <use style="fill:#ff0000;stroke:#ff0000;" x="199.505455" xlink:href="#ma2badc4f52" y="264.545865"/>
     <use style="fill:#ff0000;stroke:#ff0000;" x="200.669091" xlink:href="#ma2badc4f52" y="264.556788"/>
     <use style="fill:#ff0000;stroke:#ff0000;" x="201.832727" xlink:href="#ma2badc4f52" y="262.061147"/>
     <use style="fill:#ff0000;stroke:#ff0000;" x="202.996364" xlink:href="#ma2badc4f52" y="263.996922"/>
     <use style="fill:#ff0000;stroke:#ff0000;" x="204.16" xlink:href="#ma2badc4f52" y="272.516862"/>
     <use style="fill:#ff0000;stroke:#ff0000;" x="205.323636" xlink:href="#ma2badc4f52" y="264.363349"/>
     <use style="fill:#ff0000;stroke:#ff0000;" x="206.487273" xlink:href="#ma2badc4f52" y="263.164002"/>
     <use style="fill:#ff0000;stroke:#ff0000;" x="207.650909" xlink:href="#ma2badc4f52" y="274.202536"/>
     <use style="fill:#ff0000;stroke:#ff0000;" x="208.814545" xlink:href="#ma2badc4f52" y="270.594026"/>
     <use style="fill:#ff0000;stroke:#ff0000;" x="209.978182" xlink:href="#ma2badc4f52" y="271.003496"/>
     <use style="fill:#ff0000;stroke:#ff0000;" x="211.141818" xlink:href="#ma2badc4f52" y="276.895184"/>
     <use style="fill:#ff0000;stroke:#ff0000;" x="212.305455" xlink:href="#ma2badc4f52" y="284.584423"/>
     <use style="fill:#ff0000;stroke:#ff0000;" x="213.469091" xlink:href="#ma2badc4f52" y="275.902136"/>
     <use style="fill:#ff0000;stroke:#ff0000;" x="214.632727" xlink:href="#ma2badc4f52" y="273.384512"/>
     <use style="fill:#ff0000;stroke:#ff0000;" x="215.796364" xlink:href="#ma2badc4f52" y="285.869005"/>
     <use style="fill:#ff0000;stroke:#ff0000;" x="216.96" xlink:href="#ma2badc4f52" y="271.595576"/>
     <use style="fill:#ff0000;stroke:#ff0000;" x="218.123636" xlink:href="#ma2badc4f52" y="287.770717"/>
     <use style="fill:#ff0000;stroke:#ff0000;" x="219.287273" xlink:href="#ma2badc4f52" y="268.043713"/>
     <use style="fill:#ff0000;stroke:#ff0000;" x="220.450909" xlink:href="#ma2badc4f52" y="287.802411"/>
     <use style="fill:#ff0000;stroke:#ff0000;" x="221.614545" xlink:href="#ma2badc4f52" y="288.515007"/>
     <use style="fill:#ff0000;stroke:#ff0000;" x="222.778182" xlink:href="#ma2badc4f52" y="283.084282"/>
     <use style="fill:#ff0000;stroke:#ff0000;" x="223.941818" xlink:href="#ma2badc4f52" y="270.004711"/>
     <use style="fill:#ff0000;stroke:#ff0000;" x="225.105455" xlink:href="#ma2badc4f52" y="272.728629"/>
     <use style="fill:#ff0000;stroke:#ff0000;" x="226.269091" xlink:href="#ma2badc4f52" y="279.639461"/>
     <use style="fill:#ff0000;stroke:#ff0000;" x="227.432727" xlink:href="#ma2badc4f52" y="285.82071"/>
     <use style="fill:#ff0000;stroke:#ff0000;" x="228.596364" xlink:href="#ma2badc4f52" y="284.783695"/>
     <use style="fill:#ff0000;stroke:#ff0000;" x="229.76" xlink:href="#ma2badc4f52" y="272.772636"/>
     <use style="fill:#ff0000;stroke:#ff0000;" x="230.923636" xlink:href="#ma2badc4f52" y="287.788732"/>
     <use style="fill:#ff0000;stroke:#ff0000;" x="232.087273" xlink:href="#ma2badc4f52" y="283.910497"/>
     <use style="fill:#ff0000;stroke:#ff0000;" x="233.250909" xlink:href="#ma2badc4f52" y="295.488"/>
     <use style="fill:#ff0000;stroke:#ff0000;" x="234.414545" xlink:href="#ma2badc4f52" y="288.123312"/>
     <use style="fill:#ff0000;stroke:#ff0000;" x="235.578182" xlink:href="#ma2badc4f52" y="282.861813"/>
     <use style="fill:#ff0000;stroke:#ff0000;" x="236.741818" xlink:href="#ma2badc4f52" y="292.406373"/>
     <use style="fill:#ff0000;stroke:#ff0000;" x="237.905455" xlink:href="#ma2badc4f52" y="275.002776"/>
     <use style="fill:#ff0000;stroke:#ff0000;" x="239.069091" xlink:href="#ma2badc4f52" y="286.083955"/>
     <use style="fill:#ff0000;stroke:#ff0000;" x="240.232727" xlink:href="#ma2badc4f52" y="275.660452"/>
     <use style="fill:#ff0000;stroke:#ff0000;" x="241.396364" xlink:href="#ma2badc4f52" y="273.812418"/>
     <use style="fill:#ff0000;stroke:#ff0000;" x="242.56" xlink:href="#ma2badc4f52" y="276.613605"/>
     <use style="fill:#ff0000;stroke:#ff0000;" x="243.723636" xlink:href="#ma2badc4f52" y="283.950159"/>
     <use style="fill:#ff0000;stroke:#ff0000;" x="244.887273" xlink:href="#ma2badc4f52" y="273.565069"/>
     <use style="fill:#ff0000;stroke:#ff0000;" x="246.050909" xlink:href="#ma2badc4f52" y="289.632324"/>
     <use style="fill:#ff0000;stroke:#ff0000;" x="247.214545" xlink:href="#ma2badc4f52" y="276.340782"/>
     <use style="fill:#ff0000;stroke:#ff0000;" x="248.378182" xlink:href="#ma2badc4f52" y="277.383091"/>
     <use style="fill:#ff0000;stroke:#ff0000;" x="249.541818" xlink:href="#ma2badc4f52" y="287.509637"/>
     <use style="fill:#ff0000;stroke:#ff0000;" x="250.705455" xlink:href="#ma2badc4f52" y="280.375102"/>
     <use style="fill:#ff0000;stroke:#ff0000;" x="251.869091" xlink:href="#ma2badc4f52" y="292.358164"/>
     <use style="fill:#ff0000;stroke:#ff0000;" x="253.032727" xlink:href="#ma2badc4f52" y="293.041603"/>
     <use style="fill:#ff0000;stroke:#ff0000;" x="254.196364" xlink:href="#ma2badc4f52" y="283.400316"/>
     <use style="fill:#ff0000;stroke:#ff0000;" x="255.36" xlink:href="#ma2badc4f52" y="275.923228"/>
     <use style="fill:#ff0000;stroke:#ff0000;" x="256.523636" xlink:href="#ma2badc4f52" y="286.899255"/>
     <use style="fill:#ff0000;stroke:#ff0000;" x="257.687273" xlink:href="#ma2badc4f52" y="288.793629"/>
     <use style="fill:#ff0000;stroke:#ff0000;" x="258.850909" xlink:href="#ma2badc4f52" y="276.565892"/>
     <use style="fill:#ff0000;stroke:#ff0000;" x="260.014545" xlink:href="#ma2badc4f52" y="273.987686"/>
     <use style="fill:#ff0000;stroke:#ff0000;" x="261.178182" xlink:href="#ma2badc4f52" y="275.913953"/>
     <use style="fill:#ff0000;stroke:#ff0000;" x="262.341818" xlink:href="#ma2badc4f52" y="284.422858"/>
     <use style="fill:#ff0000;stroke:#ff0000;" x="263.505455" xlink:href="#ma2badc4f52" y="276.12458"/>
     <use style="fill:#ff0000;stroke:#ff0000;" x="264.669091" xlink:href="#ma2badc4f52" y="278.001922"/>
     <use style="fill:#ff0000;stroke:#ff0000;" x="265.832727" xlink:href="#ma2badc4f52" y="286.883094"/>
     <use style="fill:#ff0000;stroke:#ff0000;" x="266.996364" xlink:href="#ma2badc4f52" y="281.352698"/>
     <use style="fill:#ff0000;stroke:#ff0000;" x="268.16" xlink:href="#ma2badc4f52" y="271.346442"/>
     <use style="fill:#ff0000;stroke:#ff0000;" x="269.323636" xlink:href="#ma2badc4f52" y="286.978674"/>
     <use style="fill:#ff0000;stroke:#ff0000;" x="270.487273" xlink:href="#ma2badc4f52" y="279.752856"/>
     <use style="fill:#ff0000;stroke:#ff0000;" x="271.650909" xlink:href="#ma2badc4f52" y="290.222308"/>
     <use style="fill:#ff0000;stroke:#ff0000;" x="272.814545" xlink:href="#ma2badc4f52" y="287.689368"/>
     <use style="fill:#ff0000;stroke:#ff0000;" x="273.978182" xlink:href="#ma2badc4f52" y="281.326172"/>
     <use style="fill:#ff0000;stroke:#ff0000;" x="275.141818" xlink:href="#ma2badc4f52" y="284.25915"/>
     <use style="fill:#ff0000;stroke:#ff0000;" x="276.305455" xlink:href="#ma2badc4f52" y="286.617697"/>
     <use style="fill:#ff0000;stroke:#ff0000;" x="277.469091" xlink:href="#ma2badc4f52" y="282.712843"/>
     <use style="fill:#ff0000;stroke:#ff0000;" x="278.632727" xlink:href="#ma2badc4f52" y="277.460339"/>
     <use style="fill:#ff0000;stroke:#ff0000;" x="279.796364" xlink:href="#ma2badc4f52" y="272.739054"/>
     <use style="fill:#ff0000;stroke:#ff0000;" x="280.96" xlink:href="#ma2badc4f52" y="279.688758"/>
     <use style="fill:#ff0000;stroke:#ff0000;" x="282.123636" xlink:href="#ma2badc4f52" y="285.789615"/>
     <use style="fill:#ff0000;stroke:#ff0000;" x="283.287273" xlink:href="#ma2badc4f52" y="270.431063"/>
     <use style="fill:#ff0000;stroke:#ff0000;" x="284.450909" xlink:href="#ma2badc4f52" y="274.13315"/>
     <use style="fill:#ff0000;stroke:#ff0000;" x="285.614545" xlink:href="#ma2badc4f52" y="270.371289"/>
     <use style="fill:#ff0000;stroke:#ff0000;" x="286.778182" xlink:href="#ma2badc4f52" y="281.414789"/>
     <use style="fill:#ff0000;stroke:#ff0000;" x="287.941818" xlink:href="#ma2badc4f52" y="273.602635"/>
     <use style="fill:#ff0000;stroke:#ff0000;" x="289.105455" xlink:href="#ma2badc4f52" y="275.596886"/>
     <use style="fill:#ff0000;stroke:#ff0000;" x="290.269091" xlink:href="#ma2badc4f52" y="282.254184"/>
     <use style="fill:#ff0000;stroke:#ff0000;" x="291.432727" xlink:href="#ma2badc4f52" y="265.976209"/>
     <use style="fill:#ff0000;stroke:#ff0000;" x="292.596364" xlink:href="#ma2badc4f52" y="279.485433"/>
     <use style="fill:#ff0000;stroke:#ff0000;" x="293.76" xlink:href="#ma2badc4f52" y="275.974484"/>
     <use style="fill:#ff0000;stroke:#ff0000;" x="294.923636" xlink:href="#ma2badc4f52" y="264.045591"/>
     <use style="fill:#ff0000;stroke:#ff0000;" x="296.087273" xlink:href="#ma2badc4f52" y="273.096539"/>
     <use style="fill:#ff0000;stroke:#ff0000;" x="297.250909" xlink:href="#ma2badc4f52" y="274.281857"/>
     <use style="fill:#ff0000;stroke:#ff0000;" x="298.414545" xlink:href="#ma2badc4f52" y="269.855521"/>
     <use style="fill:#ff0000;stroke:#ff0000;" x="299.578182" xlink:href="#ma2badc4f52" y="260.019138"/>
     <use style="fill:#ff0000;stroke:#ff0000;" x="300.741818" xlink:href="#ma2badc4f52" y="270.817687"/>
     <use style="fill:#ff0000;stroke:#ff0000;" x="301.905455" xlink:href="#ma2badc4f52" y="257.882044"/>
     <use style="fill:#ff0000;stroke:#ff0000;" x="303.069091" xlink:href="#ma2badc4f52" y="267.772599"/>
     <use style="fill:#ff0000;stroke:#ff0000;" x="304.232727" xlink:href="#ma2badc4f52" y="259.504636"/>
     <use style="fill:#ff0000;stroke:#ff0000;" x="305.396364" xlink:href="#ma2badc4f52" y="265.556534"/>
     <use style="fill:#ff0000;stroke:#ff0000;" x="306.56" xlink:href="#ma2badc4f52" y="258.468214"/>
     <use style="fill:#ff0000;stroke:#ff0000;" x="307.723636" xlink:href="#ma2badc4f52" y="254.269456"/>
     <use style="fill:#ff0000;stroke:#ff0000;" x="308.887273" xlink:href="#ma2badc4f52" y="259.470612"/>
     <use style="fill:#ff0000;stroke:#ff0000;" x="310.050909" xlink:href="#ma2badc4f52" y="267.914246"/>
     <use style="fill:#ff0000;stroke:#ff0000;" x="311.214545" xlink:href="#ma2badc4f52" y="244.013801"/>
     <use style="fill:#ff0000;stroke:#ff0000;" x="312.378182" xlink:href="#ma2badc4f52" y="271.216373"/>
     <use style="fill:#ff0000;stroke:#ff0000;" x="313.541818" xlink:href="#ma2badc4f52" y="251.353742"/>
     <use style="fill:#ff0000;stroke:#ff0000;" x="314.705455" xlink:href="#ma2badc4f52" y="252.032412"/>
     <use style="fill:#ff0000;stroke:#ff0000;" x="315.869091" xlink:href="#ma2badc4f52" y="251.007497"/>
     <use style="fill:#ff0000;stroke:#ff0000;" x="317.032727" xlink:href="#ma2badc4f52" y="241.542522"/>
     <use style="fill:#ff0000;stroke:#ff0000;" x="318.196364" xlink:href="#ma2badc4f52" y="254.949359"/>
     <use style="fill:#ff0000;stroke:#ff0000;" x="319.36" xlink:href="#ma2badc4f52" y="265.917476"/>
     <use style="fill:#ff0000;stroke:#ff0000;" x="320.523636" xlink:href="#ma2badc4f52" y="234.273598"/>
     <use style="fill:#ff0000;stroke:#ff0000;" x="321.687273" xlink:href="#ma2badc4f52" y="258.890829"/>
     <use style="fill:#ff0000;stroke:#ff0000;" x="322.850909" xlink:href="#ma2badc4f52" y="250.097255"/>
     <use style="fill:#ff0000;stroke:#ff0000;" x="324.014545" xlink:href="#ma2badc4f52" y="243.754391"/>
     <use style="fill:#ff0000;stroke:#ff0000;" x="325.178182" xlink:href="#ma2badc4f52" y="230.94759"/>
     <use style="fill:#ff0000;stroke:#ff0000;" x="326.341818" xlink:href="#ma2badc4f52" y="244.575031"/>
     <use style="fill:#ff0000;stroke:#ff0000;" x="327.505455" xlink:href="#ma2badc4f52" y="242.231568"/>
     <use style="fill:#ff0000;stroke:#ff0000;" x="328.669091" xlink:href="#ma2badc4f52" y="233.859563"/>
     <use style="fill:#ff0000;stroke:#ff0000;" x="329.832727" xlink:href="#ma2badc4f52" y="245.34596"/>
     <use style="fill:#ff0000;stroke:#ff0000;" x="330.996364" xlink:href="#ma2badc4f52" y="231.197429"/>
     <use style="fill:#ff0000;stroke:#ff0000;" x="332.16" xlink:href="#ma2badc4f52" y="235.225795"/>
     <use style="fill:#ff0000;stroke:#ff0000;" x="333.323636" xlink:href="#ma2badc4f52" y="213.194311"/>
     <use style="fill:#ff0000;stroke:#ff0000;" x="334.487273" xlink:href="#ma2badc4f52" y="232.257591"/>
     <use style="fill:#ff0000;stroke:#ff0000;" x="335.650909" xlink:href="#ma2badc4f52" y="236.432127"/>
     <use style="fill:#ff0000;stroke:#ff0000;" x="336.814545" xlink:href="#ma2badc4f52" y="221.507804"/>
     <use style="fill:#ff0000;stroke:#ff0000;" x="337.978182" xlink:href="#ma2badc4f52" y="205.431703"/>
     <use style="fill:#ff0000;stroke:#ff0000;" x="339.141818" xlink:href="#ma2badc4f52" y="211.48468"/>
     <use style="fill:#ff0000;stroke:#ff0000;" x="340.305455" xlink:href="#ma2badc4f52" y="219.102921"/>
     <use style="fill:#ff0000;stroke:#ff0000;" x="341.469091" xlink:href="#ma2badc4f52" y="210.700471"/>
     <use style="fill:#ff0000;stroke:#ff0000;" x="342.632727" xlink:href="#ma2badc4f52" y="207.542647"/>
     <use style="fill:#ff0000;stroke:#ff0000;" x="343.796364" xlink:href="#ma2badc4f52" y="200.868755"/>
     <use style="fill:#ff0000;stroke:#ff0000;" x="344.96" xlink:href="#ma2badc4f52" y="235.881157"/>
     <use style="fill:#ff0000;stroke:#ff0000;" x="346.123636" xlink:href="#ma2badc4f52" y="233.076755"/>
     <use style="fill:#ff0000;stroke:#ff0000;" x="347.287273" xlink:href="#ma2badc4f52" y="218.517349"/>
     <use style="fill:#ff0000;stroke:#ff0000;" x="348.450909" xlink:href="#ma2badc4f52" y="230.011776"/>
     <use style="fill:#ff0000;stroke:#ff0000;" x="349.614545" xlink:href="#ma2badc4f52" y="224.547069"/>
     <use style="fill:#ff0000;stroke:#ff0000;" x="350.778182" xlink:href="#ma2badc4f52" y="220.788655"/>
     <use style="fill:#ff0000;stroke:#ff0000;" x="351.941818" xlink:href="#ma2badc4f52" y="193.042336"/>
     <use style="fill:#ff0000;stroke:#ff0000;" x="353.105455" xlink:href="#ma2badc4f52" y="213.716696"/>
     <use style="fill:#ff0000;stroke:#ff0000;" x="354.269091" xlink:href="#ma2badc4f52" y="208.968466"/>
     <use style="fill:#ff0000;stroke:#ff0000;" x="355.432727" xlink:href="#ma2badc4f52" y="192.664284"/>
     <use style="fill:#ff0000;stroke:#ff0000;" x="356.596364" xlink:href="#ma2badc4f52" y="170.048736"/>
     <use style="fill:#ff0000;stroke:#ff0000;" x="357.76" xlink:href="#ma2badc4f52" y="186.905045"/>
     <use style="fill:#ff0000;stroke:#ff0000;" x="358.923636" xlink:href="#ma2badc4f52" y="186.90103"/>
     <use style="fill:#ff0000;stroke:#ff0000;" x="360.087273" xlink:href="#ma2badc4f52" y="199.545169"/>
     <use style="fill:#ff0000;stroke:#ff0000;" x="361.250909" xlink:href="#ma2badc4f52" y="174.552937"/>
     <use style="fill:#ff0000;stroke:#ff0000;" x="362.414545" xlink:href="#ma2badc4f52" y="200.76384"/>
     <use style="fill:#ff0000;stroke:#ff0000;" x="363.578182" xlink:href="#ma2badc4f52" y="192.889246"/>
     <use style="fill:#ff0000;stroke:#ff0000;" x="364.741818" xlink:href="#ma2badc4f52" y="209.678247"/>
     <use style="fill:#ff0000;stroke:#ff0000;" x="365.905455" xlink:href="#ma2badc4f52" y="177.309929"/>
     <use style="fill:#ff0000;stroke:#ff0000;" x="367.069091" xlink:href="#ma2badc4f52" y="169.660566"/>
     <use style="fill:#ff0000;stroke:#ff0000;" x="368.232727" xlink:href="#ma2badc4f52" y="194.32063"/>
     <use style="fill:#ff0000;stroke:#ff0000;" x="369.396364" xlink:href="#ma2badc4f52" y="154.748658"/>
     <use style="fill:#ff0000;stroke:#ff0000;" x="370.56" xlink:href="#ma2badc4f52" y="178.597083"/>
     <use style="fill:#ff0000;stroke:#ff0000;" x="371.723636" xlink:href="#ma2badc4f52" y="199.284294"/>
     <use style="fill:#ff0000;stroke:#ff0000;" x="372.887273" xlink:href="#ma2badc4f52" y="184.380237"/>
     <use style="fill:#ff0000;stroke:#ff0000;" x="374.050909" xlink:href="#ma2badc4f52" y="202.812638"/>
     <use style="fill:#ff0000;stroke:#ff0000;" x="375.214545" xlink:href="#ma2badc4f52" y="153.280948"/>
     <use style="fill:#ff0000;stroke:#ff0000;" x="376.378182" xlink:href="#ma2badc4f52" y="145.483258"/>
     <use style="fill:#ff0000;stroke:#ff0000;" x="377.541818" xlink:href="#ma2badc4f52" y="164.744437"/>
     <use style="fill:#ff0000;stroke:#ff0000;" x="378.705455" xlink:href="#ma2badc4f52" y="145.555816"/>
     <use style="fill:#ff0000;stroke:#ff0000;" x="379.869091" xlink:href="#ma2badc4f52" y="163.64901"/>
     <use style="fill:#ff0000;stroke:#ff0000;" x="381.032727" xlink:href="#ma2badc4f52" y="176.744751"/>
     <use style="fill:#ff0000;stroke:#ff0000;" x="382.196364" xlink:href="#ma2badc4f52" y="159.592249"/>
     <use style="fill:#ff0000;stroke:#ff0000;" x="383.36" xlink:href="#ma2badc4f52" y="117.858788"/>
     <use style="fill:#ff0000;stroke:#ff0000;" x="384.523636" xlink:href="#ma2badc4f52" y="156.216464"/>
     <use style="fill:#ff0000;stroke:#ff0000;" x="385.687273" xlink:href="#ma2badc4f52" y="136.238324"/>
     <use style="fill:#ff0000;stroke:#ff0000;" x="386.850909" xlink:href="#ma2badc4f52" y="122.631314"/>
     <use style="fill:#ff0000;stroke:#ff0000;" x="388.014545" xlink:href="#ma2badc4f52" y="175.269337"/>
     <use style="fill:#ff0000;stroke:#ff0000;" x="389.178182" xlink:href="#ma2badc4f52" y="125.289599"/>
     <use style="fill:#ff0000;stroke:#ff0000;" x="390.341818" xlink:href="#ma2badc4f52" y="103.304595"/>
     <use style="fill:#ff0000;stroke:#ff0000;" x="391.505455" xlink:href="#ma2badc4f52" y="136.960344"/>
     <use style="fill:#ff0000;stroke:#ff0000;" x="392.669091" xlink:href="#ma2badc4f52" y="108.400957"/>
     <use style="fill:#ff0000;stroke:#ff0000;" x="393.832727" xlink:href="#ma2badc4f52" y="120.643953"/>
     <use style="fill:#ff0000;stroke:#ff0000;" x="394.996364" xlink:href="#ma2badc4f52" y="112.332863"/>
     <use style="fill:#ff0000;stroke:#ff0000;" x="396.16" xlink:href="#ma2badc4f52" y="138.750712"/>
     <use style="fill:#ff0000;stroke:#ff0000;" x="397.323636" xlink:href="#ma2badc4f52" y="101.645203"/>
     <use style="fill:#ff0000;stroke:#ff0000;" x="398.487273" xlink:href="#ma2badc4f52" y="143.533405"/>
    </g>
   </g>
   <g id="line2d_15">
    <path clip-path="url(#p50b2beab1c)" d="M 73.832727 54.281337 
L 80.814545 72.154544 
L 86.632727 86.495367 
L 92.450909 100.332992 
L 98.269091 113.667421 
L 104.087273 126.498653 
L 109.905455 138.826687 
L 115.723636 150.651525 
L 121.541818 161.973166 
L 127.36 172.79161 
L 133.178182 183.106857 
L 138.996364 192.918907 
L 144.814545 202.22776 
L 150.632727 211.033416 
L 155.287273 217.71564 
L 159.941818 224.075817 
L 164.596364 230.113948 
L 169.250909 235.830033 
L 173.905455 241.224072 
L 178.56 246.296065 
L 183.214545 251.046011 
L 187.869091 255.473912 
L 192.523636 259.579767 
L 197.178182 263.363576 
L 201.832727 266.825338 
L 206.487273 269.965055 
L 211.141818 272.782726 
L 215.796364 275.27835 
L 220.450909 277.451929 
L 223.941818 278.87077 
L 227.432727 280.10846 
L 230.923636 281.164999 
L 234.414545 282.040388 
L 237.905455 282.734625 
L 241.396364 283.247712 
L 244.887273 283.579648 
L 248.378182 283.730433 
L 251.869091 283.700067 
L 255.36 283.48855 
L 258.850909 283.095882 
L 262.341818 282.522063 
L 265.832727 281.767093 
L 269.323636 280.830973 
L 272.814545 279.713701 
L 276.305455 278.415279 
L 279.796364 276.935706 
L 284.450909 274.681151 
L 289.105455 272.10455 
L 293.76 269.205904 
L 298.414545 265.985211 
L 303.069091 262.442472 
L 307.723636 258.577687 
L 312.378182 254.390856 
L 317.032727 249.881979 
L 321.687273 245.051056 
L 326.341818 239.898087 
L 330.996364 234.423072 
L 335.650909 228.626011 
L 340.305455 222.506904 
L 344.96 216.065751 
L 349.614545 209.302551 
L 354.269091 202.217306 
L 360.087273 192.907872 
L 365.905455 183.095241 
L 371.723636 172.779413 
L 377.541818 161.960389 
L 383.36 150.638167 
L 389.178182 138.812748 
L 394.996364 126.484133 
L 398.487273 118.845429 
L 398.487273 118.845429 
" style="fill:none;stroke:#008000;stroke-linecap:square;stroke-width:1.5;"/>
   </g>
   <g id="patch_3">
    <path d="M 57.6 307.584 
L 57.6 41.472 
" style="fill:none;stroke:#000000;stroke-linecap:square;stroke-linejoin:miter;stroke-width:0.8;"/>
   </g>
   <g id="patch_4">
    <path d="M 414.72 307.584 
L 414.72 41.472 
" style="fill:none;stroke:#000000;stroke-linecap:square;stroke-linejoin:miter;stroke-width:0.8;"/>
   </g>
   <g id="patch_5">
    <path d="M 57.6 307.584 
L 414.72 307.584 
" style="fill:none;stroke:#000000;stroke-linecap:square;stroke-linejoin:miter;stroke-width:0.8;"/>
   </g>
   <g id="patch_6">
    <path d="M 57.6 41.472 
L 414.72 41.472 
" style="fill:none;stroke:#000000;stroke-linecap:square;stroke-linejoin:miter;stroke-width:0.8;"/>
   </g>
   <g id="text_16">
    <!-- FunctionFitting 22 -->
    <defs>
     <path d="M 9.8125 72.90625 
L 51.703125 72.90625 
L 51.703125 64.59375 
L 19.671875 64.59375 
L 19.671875 43.109375 
L 48.578125 43.109375 
L 48.578125 34.8125 
L 19.671875 34.8125 
L 19.671875 0 
L 9.8125 0 
z
" id="DejaVuSans-70"/>
     <path d="M 54.890625 33.015625 
L 54.890625 0 
L 45.90625 0 
L 45.90625 32.71875 
Q 45.90625 40.484375 42.875 44.328125 
Q 39.84375 48.1875 33.796875 48.1875 
Q 26.515625 48.1875 22.3125 43.546875 
Q 18.109375 38.921875 18.109375 30.90625 
L 18.109375 0 
L 9.078125 0 
L 9.078125 54.6875 
L 18.109375 54.6875 
L 18.109375 46.1875 
Q 21.34375 51.125 25.703125 53.5625 
Q 30.078125 56 35.796875 56 
Q 45.21875 56 50.046875 50.171875 
Q 54.890625 44.34375 54.890625 33.015625 
z
" id="DejaVuSans-110"/>
     <path d="M 48.78125 52.59375 
L 48.78125 44.1875 
Q 44.96875 46.296875 41.140625 47.34375 
Q 37.3125 48.390625 33.40625 48.390625 
Q 24.65625 48.390625 19.8125 42.84375 
Q 14.984375 37.3125 14.984375 27.296875 
Q 14.984375 17.28125 19.8125 11.734375 
Q 24.65625 6.203125 33.40625 6.203125 
Q 37.3125 6.203125 41.140625 7.25 
Q 44.96875 8.296875 48.78125 10.40625 
L 48.78125 2.09375 
Q 45.015625 0.34375 40.984375 -0.53125 
Q 36.96875 -1.421875 32.421875 -1.421875 
Q 20.0625 -1.421875 12.78125 6.34375 
Q 5.515625 14.109375 5.515625 27.296875 
Q 5.515625 40.671875 12.859375 48.328125 
Q 20.21875 56 33.015625 56 
Q 37.15625 56 41.109375 55.140625 
Q 45.0625 54.296875 48.78125 52.59375 
z
" id="DejaVuSans-99"/>
     <path d="M 18.3125 70.21875 
L 18.3125 54.6875 
L 36.8125 54.6875 
L 36.8125 47.703125 
L 18.3125 47.703125 
L 18.3125 18.015625 
Q 18.3125 11.328125 20.140625 9.421875 
Q 21.96875 7.515625 27.59375 7.515625 
L 36.8125 7.515625 
L 36.8125 0 
L 27.59375 0 
Q 17.1875 0 13.234375 3.875 
Q 9.28125 7.765625 9.28125 18.015625 
L 9.28125 47.703125 
L 2.6875 47.703125 
L 2.6875 54.6875 
L 9.28125 54.6875 
L 9.28125 70.21875 
z
" id="DejaVuSans-116"/>
     <path d="M 9.421875 54.6875 
L 18.40625 54.6875 
L 18.40625 0 
L 9.421875 0 
z
M 9.421875 75.984375 
L 18.40625 75.984375 
L 18.40625 64.59375 
L 9.421875 64.59375 
z
" id="DejaVuSans-105"/>
     <path d="M 30.609375 48.390625 
Q 23.390625 48.390625 19.1875 42.75 
Q 14.984375 37.109375 14.984375 27.296875 
Q 14.984375 17.484375 19.15625 11.84375 
Q 23.34375 6.203125 30.609375 6.203125 
Q 37.796875 6.203125 41.984375 11.859375 
Q 46.1875 17.53125 46.1875 27.296875 
Q 46.1875 37.015625 41.984375 42.703125 
Q 37.796875 48.390625 30.609375 48.390625 
z
M 30.609375 56 
Q 42.328125 56 49.015625 48.375 
Q 55.71875 40.765625 55.71875 27.296875 
Q 55.71875 13.875 49.015625 6.21875 
Q 42.328125 -1.421875 30.609375 -1.421875 
Q 18.84375 -1.421875 12.171875 6.21875 
Q 5.515625 13.875 5.515625 27.296875 
Q 5.515625 40.765625 12.171875 48.375 
Q 18.84375 56 30.609375 56 
z
" id="DejaVuSans-111"/>
     <path d="M 45.40625 27.984375 
Q 45.40625 37.75 41.375 43.109375 
Q 37.359375 48.484375 30.078125 48.484375 
Q 22.859375 48.484375 18.828125 43.109375 
Q 14.796875 37.75 14.796875 27.984375 
Q 14.796875 18.265625 18.828125 12.890625 
Q 22.859375 7.515625 30.078125 7.515625 
Q 37.359375 7.515625 41.375 12.890625 
Q 45.40625 18.265625 45.40625 27.984375 
z
M 54.390625 6.78125 
Q 54.390625 -7.171875 48.1875 -13.984375 
Q 42 -20.796875 29.203125 -20.796875 
Q 24.46875 -20.796875 20.265625 -20.09375 
Q 16.0625 -19.390625 12.109375 -17.921875 
L 12.109375 -9.1875 
Q 16.0625 -11.328125 19.921875 -12.34375 
Q 23.78125 -13.375 27.78125 -13.375 
Q 36.625 -13.375 41.015625 -8.765625 
Q 45.40625 -4.15625 45.40625 5.171875 
L 45.40625 9.625 
Q 42.625 4.78125 38.28125 2.390625 
Q 33.9375 0 27.875 0 
Q 17.828125 0 11.671875 7.65625 
Q 5.515625 15.328125 5.515625 27.984375 
Q 5.515625 40.671875 11.671875 48.328125 
Q 17.828125 56 27.875 56 
Q 33.9375 56 38.28125 53.609375 
Q 42.625 51.21875 45.40625 46.390625 
L 45.40625 54.6875 
L 54.390625 54.6875 
z
" id="DejaVuSans-103"/>
    </defs>
    <g transform="translate(181.680937 35.472)scale(0.12 -0.12)">
     <use xlink:href="#DejaVuSans-70"/>
     <use x="57.441406" xlink:href="#DejaVuSans-117"/>
     <use x="120.820312" xlink:href="#DejaVuSans-110"/>
     <use x="184.199219" xlink:href="#DejaVuSans-99"/>
     <use x="239.179688" xlink:href="#DejaVuSans-116"/>
     <use x="278.388672" xlink:href="#DejaVuSans-105"/>
     <use x="306.171875" xlink:href="#DejaVuSans-111"/>
     <use x="367.353516" xlink:href="#DejaVuSans-110"/>
     <use x="430.732422" xlink:href="#DejaVuSans-70"/>
     <use x="488.142578" xlink:href="#DejaVuSans-105"/>
     <use x="515.925781" xlink:href="#DejaVuSans-116"/>
     <use x="555.134766" xlink:href="#DejaVuSans-116"/>
     <use x="594.34375" xlink:href="#DejaVuSans-105"/>
     <use x="622.126953" xlink:href="#DejaVuSans-110"/>
     <use x="685.505859" xlink:href="#DejaVuSans-103"/>
     <use x="748.982422" xlink:href="#DejaVuSans-32"/>
     <use x="780.769531" xlink:href="#DejaVuSans-50"/>
     <use x="844.392578" xlink:href="#DejaVuSans-50"/>
    </g>
   </g>
   <g id="legend_1">
    <g id="patch_7">
     <path d="M 299.83875 78.82825 
L 407.72 78.82825 
Q 409.72 78.82825 409.72 76.82825 
L 409.72 48.472 
Q 409.72 46.472 407.72 46.472 
L 299.83875 46.472 
Q 297.83875 46.472 297.83875 48.472 
L 297.83875 76.82825 
Q 297.83875 78.82825 299.83875 78.82825 
z
" style="fill:#ffffff;opacity:0.8;stroke:#cccccc;stroke-linejoin:miter;"/>
    </g>
    <g id="line2d_16"/>
    <g id="line2d_17">
     <g>
      <use style="fill:#ff0000;stroke:#ff0000;" x="311.83875" xlink:href="#ma2badc4f52" y="54.570437"/>
     </g>
    </g>
    <g id="text_17">
     <!-- measured data -->
     <defs>
      <path d="M 52 44.1875 
Q 55.375 50.25 60.0625 53.125 
Q 64.75 56 71.09375 56 
Q 79.640625 56 84.28125 50.015625 
Q 88.921875 44.046875 88.921875 33.015625 
L 88.921875 0 
L 79.890625 0 
L 79.890625 32.71875 
Q 79.890625 40.578125 77.09375 44.375 
Q 74.3125 48.1875 68.609375 48.1875 
Q 61.625 48.1875 57.5625 43.546875 
Q 53.515625 38.921875 53.515625 30.90625 
L 53.515625 0 
L 44.484375 0 
L 44.484375 32.71875 
Q 44.484375 40.625 41.703125 44.40625 
Q 38.921875 48.1875 33.109375 48.1875 
Q 26.21875 48.1875 22.15625 43.53125 
Q 18.109375 38.875 18.109375 30.90625 
L 18.109375 0 
L 9.078125 0 
L 9.078125 54.6875 
L 18.109375 54.6875 
L 18.109375 46.1875 
Q 21.1875 51.21875 25.484375 53.609375 
Q 29.78125 56 35.6875 56 
Q 41.65625 56 45.828125 52.96875 
Q 50 49.953125 52 44.1875 
z
" id="DejaVuSans-109"/>
      <path d="M 41.109375 46.296875 
Q 39.59375 47.171875 37.8125 47.578125 
Q 36.03125 48 33.890625 48 
Q 26.265625 48 22.1875 43.046875 
Q 18.109375 38.09375 18.109375 28.8125 
L 18.109375 0 
L 9.078125 0 
L 9.078125 54.6875 
L 18.109375 54.6875 
L 18.109375 46.1875 
Q 20.953125 51.171875 25.484375 53.578125 
Q 30.03125 56 36.53125 56 
Q 37.453125 56 38.578125 55.875 
Q 39.703125 55.765625 41.0625 55.515625 
z
" id="DejaVuSans-114"/>
      <path d="M 45.40625 46.390625 
L 45.40625 75.984375 
L 54.390625 75.984375 
L 54.390625 0 
L 45.40625 0 
L 45.40625 8.203125 
Q 42.578125 3.328125 38.25 0.953125 
Q 33.9375 -1.421875 27.875 -1.421875 
Q 17.96875 -1.421875 11.734375 6.484375 
Q 5.515625 14.40625 5.515625 27.296875 
Q 5.515625 40.1875 11.734375 48.09375 
Q 17.96875 56 27.875 56 
Q 33.9375 56 38.25 53.625 
Q 42.578125 51.265625 45.40625 46.390625 
z
M 14.796875 27.296875 
Q 14.796875 17.390625 18.875 11.75 
Q 22.953125 6.109375 30.078125 6.109375 
Q 37.203125 6.109375 41.296875 11.75 
Q 45.40625 17.390625 45.40625 27.296875 
Q 45.40625 37.203125 41.296875 42.84375 
Q 37.203125 48.484375 30.078125 48.484375 
Q 22.953125 48.484375 18.875 42.84375 
Q 14.796875 37.203125 14.796875 27.296875 
z
" id="DejaVuSans-100"/>
     </defs>
     <g transform="translate(329.83875 58.070437)scale(0.1 -0.1)">
      <use xlink:href="#DejaVuSans-109"/>
      <use x="97.412109" xlink:href="#DejaVuSans-101"/>
      <use x="158.935547" xlink:href="#DejaVuSans-97"/>
      <use x="220.214844" xlink:href="#DejaVuSans-115"/>
      <use x="272.314453" xlink:href="#DejaVuSans-117"/>
      <use x="335.693359" xlink:href="#DejaVuSans-114"/>
      <use x="376.775391" xlink:href="#DejaVuSans-101"/>
      <use x="438.298828" xlink:href="#DejaVuSans-100"/>
      <use x="501.775391" xlink:href="#DejaVuSans-32"/>
      <use x="533.5625" xlink:href="#DejaVuSans-100"/>
      <use x="597.039062" xlink:href="#DejaVuSans-97"/>
      <use x="658.318359" xlink:href="#DejaVuSans-116"/>
      <use x="697.527344" xlink:href="#DejaVuSans-97"/>
     </g>
    </g>
    <g id="line2d_18">
     <path d="M 301.83875 69.248562 
L 321.83875 69.248562 
" style="fill:none;stroke:#008000;stroke-linecap:square;stroke-width:1.5;"/>
    </g>
    <g id="line2d_19"/>
    <g id="text_18">
     <!-- linear data -->
     <g transform="translate(329.83875 72.748562)scale(0.1 -0.1)">
      <use xlink:href="#DejaVuSans-108"/>
      <use x="27.783203" xlink:href="#DejaVuSans-105"/>
      <use x="55.566406" xlink:href="#DejaVuSans-110"/>
      <use x="118.945312" xlink:href="#DejaVuSans-101"/>
      <use x="180.46875" xlink:href="#DejaVuSans-97"/>
      <use x="241.748047" xlink:href="#DejaVuSans-114"/>
      <use x="282.861328" xlink:href="#DejaVuSans-32"/>
      <use x="314.648438" xlink:href="#DejaVuSans-100"/>
      <use x="378.125" xlink:href="#DejaVuSans-97"/>
      <use x="439.404297" xlink:href="#DejaVuSans-116"/>
      <use x="478.613281" xlink:href="#DejaVuSans-97"/>
     </g>
    </g>
   </g>
  </g>
 </g>
 <defs>
  <clipPath id="p50b2beab1c">
   <rect height="266.112" width="357.12" x="57.6" y="41.472"/>
  </clipPath>
 </defs>
</svg>
