<?xml version="1.0" encoding="utf-8" standalone="no"?>
<!DOCTYPE svg PUBLIC "-//W3C//DTD SVG 1.1//EN"
  "http://www.w3.org/Graphics/SVG/1.1/DTD/svg11.dtd">
<!-- Created with matplotlib (https://matplotlib.org/) -->
<svg height="345.6pt" version="1.1" viewBox="0 0 460.8 345.6" width="460.8pt" xmlns="http://www.w3.org/2000/svg" xmlns:xlink="http://www.w3.org/1999/xlink">
 <defs>
  <style type="text/css">
*{stroke-linecap:butt;stroke-linejoin:round;}
  </style>
 </defs>
 <g id="figure_1">
  <g id="patch_1">
   <path d="M 0 345.6 
L 460.8 345.6 
L 460.8 0 
L 0 0 
z
" style="fill:#ffffff;"/>
  </g>
  <g id="axes_1">
   <g id="patch_2">
    <path d="M 57.6 307.584 
L 414.72 307.584 
L 414.72 41.472 
L 57.6 41.472 
z
" style="fill:#ffffff;"/>
   </g>
   <g id="matplotlib.axis_1">
    <g id="xtick_1">
     <g id="line2d_1">
      <defs>
       <path d="M 0 0 
L 0 3.5 
" id="mcb9272c4cd" style="stroke:#000000;stroke-width:0.8;"/>
      </defs>
      <g>
       <use style="stroke:#000000;stroke-width:0.8;" x="67.736158" xlink:href="#mcb9272c4cd" y="307.584"/>
      </g>
     </g>
     <g id="text_1">
      <!-- 0 -->
      <defs>
       <path d="M 31.78125 66.40625 
Q 24.171875 66.40625 20.328125 58.90625 
Q 16.5 51.421875 16.5 36.375 
Q 16.5 21.390625 20.328125 13.890625 
Q 24.171875 6.390625 31.78125 6.390625 
Q 39.453125 6.390625 43.28125 13.890625 
Q 47.125 21.390625 47.125 36.375 
Q 47.125 51.421875 43.28125 58.90625 
Q 39.453125 66.40625 31.78125 66.40625 
z
M 31.78125 74.21875 
Q 44.046875 74.21875 50.515625 64.515625 
Q 56.984375 54.828125 56.984375 36.375 
Q 56.984375 17.96875 50.515625 8.265625 
Q 44.046875 -1.421875 31.78125 -1.421875 
Q 19.53125 -1.421875 13.0625 8.265625 
Q 6.59375 17.96875 6.59375 36.375 
Q 6.59375 54.828125 13.0625 64.515625 
Q 19.53125 74.21875 31.78125 74.21875 
z
" id="DejaVuSans-48"/>
      </defs>
      <g transform="translate(64.554908 322.182437)scale(0.1 -0.1)">
       <use xlink:href="#DejaVuSans-48"/>
      </g>
     </g>
    </g>
    <g id="xtick_2">
     <g id="line2d_2">
      <g>
       <use style="stroke:#000000;stroke-width:0.8;" x="130.203597" xlink:href="#mcb9272c4cd" y="307.584"/>
      </g>
     </g>
     <g id="text_2">
      <!-- 20 -->
      <defs>
       <path d="M 19.1875 8.296875 
L 53.609375 8.296875 
L 53.609375 0 
L 7.328125 0 
L 7.328125 8.296875 
Q 12.9375 14.109375 22.625 23.890625 
Q 32.328125 33.6875 34.8125 36.53125 
Q 39.546875 41.84375 41.421875 45.53125 
Q 43.3125 49.21875 43.3125 52.78125 
Q 43.3125 58.59375 39.234375 62.25 
Q 35.15625 65.921875 28.609375 65.921875 
Q 23.96875 65.921875 18.8125 64.3125 
Q 13.671875 62.703125 7.8125 59.421875 
L 7.8125 69.390625 
Q 13.765625 71.78125 18.9375 73 
Q 24.125 74.21875 28.421875 74.21875 
Q 39.75 74.21875 46.484375 68.546875 
Q 53.21875 62.890625 53.21875 53.421875 
Q 53.21875 48.921875 51.53125 44.890625 
Q 49.859375 40.875 45.40625 35.40625 
Q 44.1875 33.984375 37.640625 27.21875 
Q 31.109375 20.453125 19.1875 8.296875 
z
" id="DejaVuSans-50"/>
      </defs>
      <g transform="translate(123.841097 322.182437)scale(0.1 -0.1)">
       <use xlink:href="#DejaVuSans-50"/>
       <use x="63.623047" xlink:href="#DejaVuSans-48"/>
      </g>
     </g>
    </g>
    <g id="xtick_3">
     <g id="line2d_3">
      <g>
       <use style="stroke:#000000;stroke-width:0.8;" x="192.671036" xlink:href="#mcb9272c4cd" y="307.584"/>
      </g>
     </g>
     <g id="text_3">
      <!-- 40 -->
      <defs>
       <path d="M 37.796875 64.3125 
L 12.890625 25.390625 
L 37.796875 25.390625 
z
M 35.203125 72.90625 
L 47.609375 72.90625 
L 47.609375 25.390625 
L 58.015625 25.390625 
L 58.015625 17.1875 
L 47.609375 17.1875 
L 47.609375 0 
L 37.796875 0 
L 37.796875 17.1875 
L 4.890625 17.1875 
L 4.890625 26.703125 
z
" id="DejaVuSans-52"/>
      </defs>
      <g transform="translate(186.308536 322.182437)scale(0.1 -0.1)">
       <use xlink:href="#DejaVuSans-52"/>
       <use x="63.623047" xlink:href="#DejaVuSans-48"/>
      </g>
     </g>
    </g>
    <g id="xtick_4">
     <g id="line2d_4">
      <g>
       <use style="stroke:#000000;stroke-width:0.8;" x="255.138476" xlink:href="#mcb9272c4cd" y="307.584"/>
      </g>
     </g>
     <g id="text_4">
      <!-- 60 -->
      <defs>
       <path d="M 33.015625 40.375 
Q 26.375 40.375 22.484375 35.828125 
Q 18.609375 31.296875 18.609375 23.390625 
Q 18.609375 15.53125 22.484375 10.953125 
Q 26.375 6.390625 33.015625 6.390625 
Q 39.65625 6.390625 43.53125 10.953125 
Q 47.40625 15.53125 47.40625 23.390625 
Q 47.40625 31.296875 43.53125 35.828125 
Q 39.65625 40.375 33.015625 40.375 
z
M 52.59375 71.296875 
L 52.59375 62.3125 
Q 48.875 64.0625 45.09375 64.984375 
Q 41.3125 65.921875 37.59375 65.921875 
Q 27.828125 65.921875 22.671875 59.328125 
Q 17.53125 52.734375 16.796875 39.40625 
Q 19.671875 43.65625 24.015625 45.921875 
Q 28.375 48.1875 33.59375 48.1875 
Q 44.578125 48.1875 50.953125 41.515625 
Q 57.328125 34.859375 57.328125 23.390625 
Q 57.328125 12.15625 50.6875 5.359375 
Q 44.046875 -1.421875 33.015625 -1.421875 
Q 20.359375 -1.421875 13.671875 8.265625 
Q 6.984375 17.96875 6.984375 36.375 
Q 6.984375 53.65625 15.1875 63.9375 
Q 23.390625 74.21875 37.203125 74.21875 
Q 40.921875 74.21875 44.703125 73.484375 
Q 48.484375 72.75 52.59375 71.296875 
z
" id="DejaVuSans-54"/>
      </defs>
      <g transform="translate(248.775976 322.182437)scale(0.1 -0.1)">
       <use xlink:href="#DejaVuSans-54"/>
       <use x="63.623047" xlink:href="#DejaVuSans-48"/>
      </g>
     </g>
    </g>
    <g id="xtick_5">
     <g id="line2d_5">
      <g>
       <use style="stroke:#000000;stroke-width:0.8;" x="317.605915" xlink:href="#mcb9272c4cd" y="307.584"/>
      </g>
     </g>
     <g id="text_5">
      <!-- 80 -->
      <defs>
       <path d="M 31.78125 34.625 
Q 24.75 34.625 20.71875 30.859375 
Q 16.703125 27.09375 16.703125 20.515625 
Q 16.703125 13.921875 20.71875 10.15625 
Q 24.75 6.390625 31.78125 6.390625 
Q 38.8125 6.390625 42.859375 10.171875 
Q 46.921875 13.96875 46.921875 20.515625 
Q 46.921875 27.09375 42.890625 30.859375 
Q 38.875 34.625 31.78125 34.625 
z
M 21.921875 38.8125 
Q 15.578125 40.375 12.03125 44.71875 
Q 8.5 49.078125 8.5 55.328125 
Q 8.5 64.0625 14.71875 69.140625 
Q 20.953125 74.21875 31.78125 74.21875 
Q 42.671875 74.21875 48.875 69.140625 
Q 55.078125 64.0625 55.078125 55.328125 
Q 55.078125 49.078125 51.53125 44.71875 
Q 48 40.375 41.703125 38.8125 
Q 48.828125 37.15625 52.796875 32.3125 
Q 56.78125 27.484375 56.78125 20.515625 
Q 56.78125 9.90625 50.3125 4.234375 
Q 43.84375 -1.421875 31.78125 -1.421875 
Q 19.734375 -1.421875 13.25 4.234375 
Q 6.78125 9.90625 6.78125 20.515625 
Q 6.78125 27.484375 10.78125 32.3125 
Q 14.796875 37.15625 21.921875 38.8125 
z
M 18.3125 54.390625 
Q 18.3125 48.734375 21.84375 45.5625 
Q 25.390625 42.390625 31.78125 42.390625 
Q 38.140625 42.390625 41.71875 45.5625 
Q 45.3125 48.734375 45.3125 54.390625 
Q 45.3125 60.0625 41.71875 63.234375 
Q 38.140625 66.40625 31.78125 66.40625 
Q 25.390625 66.40625 21.84375 63.234375 
Q 18.3125 60.0625 18.3125 54.390625 
z
" id="DejaVuSans-56"/>
      </defs>
      <g transform="translate(311.243415 322.182437)scale(0.1 -0.1)">
       <use xlink:href="#DejaVuSans-56"/>
       <use x="63.623047" xlink:href="#DejaVuSans-48"/>
      </g>
     </g>
    </g>
    <g id="xtick_6">
     <g id="line2d_6">
      <g>
       <use style="stroke:#000000;stroke-width:0.8;" x="380.073354" xlink:href="#mcb9272c4cd" y="307.584"/>
      </g>
     </g>
     <g id="text_6">
      <!-- 100 -->
      <defs>
       <path d="M 12.40625 8.296875 
L 28.515625 8.296875 
L 28.515625 63.921875 
L 10.984375 60.40625 
L 10.984375 69.390625 
L 28.421875 72.90625 
L 38.28125 72.90625 
L 38.28125 8.296875 
L 54.390625 8.296875 
L 54.390625 0 
L 12.40625 0 
z
" id="DejaVuSans-49"/>
      </defs>
      <g transform="translate(370.529604 322.182437)scale(0.1 -0.1)">
       <use xlink:href="#DejaVuSans-49"/>
       <use x="63.623047" xlink:href="#DejaVuSans-48"/>
       <use x="127.246094" xlink:href="#DejaVuSans-48"/>
      </g>
     </g>
    </g>
    <g id="text_7">
     <!-- x values -->
     <defs>
      <path d="M 54.890625 54.6875 
L 35.109375 28.078125 
L 55.90625 0 
L 45.3125 0 
L 29.390625 21.484375 
L 13.484375 0 
L 2.875 0 
L 24.125 28.609375 
L 4.6875 54.6875 
L 15.28125 54.6875 
L 29.78125 35.203125 
L 44.28125 54.6875 
z
" id="DejaVuSans-120"/>
      <path id="DejaVuSans-32"/>
      <path d="M 2.984375 54.6875 
L 12.5 54.6875 
L 29.59375 8.796875 
L 46.6875 54.6875 
L 56.203125 54.6875 
L 35.6875 0 
L 23.484375 0 
z
" id="DejaVuSans-118"/>
      <path d="M 34.28125 27.484375 
Q 23.390625 27.484375 19.1875 25 
Q 14.984375 22.515625 14.984375 16.5 
Q 14.984375 11.71875 18.140625 8.90625 
Q 21.296875 6.109375 26.703125 6.109375 
Q 34.1875 6.109375 38.703125 11.40625 
Q 43.21875 16.703125 43.21875 25.484375 
L 43.21875 27.484375 
z
M 52.203125 31.203125 
L 52.203125 0 
L 43.21875 0 
L 43.21875 8.296875 
Q 40.140625 3.328125 35.546875 0.953125 
Q 30.953125 -1.421875 24.3125 -1.421875 
Q 15.921875 -1.421875 10.953125 3.296875 
Q 6 8.015625 6 15.921875 
Q 6 25.140625 12.171875 29.828125 
Q 18.359375 34.515625 30.609375 34.515625 
L 43.21875 34.515625 
L 43.21875 35.40625 
Q 43.21875 41.609375 39.140625 45 
Q 35.0625 48.390625 27.6875 48.390625 
Q 23 48.390625 18.546875 47.265625 
Q 14.109375 46.140625 10.015625 43.890625 
L 10.015625 52.203125 
Q 14.9375 54.109375 19.578125 55.046875 
Q 24.21875 56 28.609375 56 
Q 40.484375 56 46.34375 49.84375 
Q 52.203125 43.703125 52.203125 31.203125 
z
" id="DejaVuSans-97"/>
      <path d="M 9.421875 75.984375 
L 18.40625 75.984375 
L 18.40625 0 
L 9.421875 0 
z
" id="DejaVuSans-108"/>
      <path d="M 8.5 21.578125 
L 8.5 54.6875 
L 17.484375 54.6875 
L 17.484375 21.921875 
Q 17.484375 14.15625 20.5 10.265625 
Q 23.53125 6.390625 29.59375 6.390625 
Q 36.859375 6.390625 41.078125 11.03125 
Q 45.3125 15.671875 45.3125 23.6875 
L 45.3125 54.6875 
L 54.296875 54.6875 
L 54.296875 0 
L 45.3125 0 
L 45.3125 8.40625 
Q 42.046875 3.421875 37.71875 1 
Q 33.40625 -1.421875 27.6875 -1.421875 
Q 18.265625 -1.421875 13.375 4.4375 
Q 8.5 10.296875 8.5 21.578125 
z
M 31.109375 56 
z
" id="DejaVuSans-117"/>
      <path d="M 56.203125 29.59375 
L 56.203125 25.203125 
L 14.890625 25.203125 
Q 15.484375 15.921875 20.484375 11.0625 
Q 25.484375 6.203125 34.421875 6.203125 
Q 39.59375 6.203125 44.453125 7.46875 
Q 49.3125 8.734375 54.109375 11.28125 
L 54.109375 2.78125 
Q 49.265625 0.734375 44.1875 -0.34375 
Q 39.109375 -1.421875 33.890625 -1.421875 
Q 20.796875 -1.421875 13.15625 6.1875 
Q 5.515625 13.8125 5.515625 26.8125 
Q 5.515625 40.234375 12.765625 48.109375 
Q 20.015625 56 32.328125 56 
Q 43.359375 56 49.78125 48.890625 
Q 56.203125 41.796875 56.203125 29.59375 
z
M 47.21875 32.234375 
Q 47.125 39.59375 43.09375 43.984375 
Q 39.0625 48.390625 32.421875 48.390625 
Q 24.90625 48.390625 20.390625 44.140625 
Q 15.875 39.890625 15.1875 32.171875 
z
" id="DejaVuSans-101"/>
      <path d="M 44.28125 53.078125 
L 44.28125 44.578125 
Q 40.484375 46.53125 36.375 47.5 
Q 32.28125 48.484375 27.875 48.484375 
Q 21.1875 48.484375 17.84375 46.4375 
Q 14.5 44.390625 14.5 40.28125 
Q 14.5 37.15625 16.890625 35.375 
Q 19.28125 33.59375 26.515625 31.984375 
L 29.59375 31.296875 
Q 39.15625 29.25 43.1875 25.515625 
Q 47.21875 21.78125 47.21875 15.09375 
Q 47.21875 7.46875 41.1875 3.015625 
Q 35.15625 -1.421875 24.609375 -1.421875 
Q 20.21875 -1.421875 15.453125 -0.5625 
Q 10.6875 0.296875 5.421875 2 
L 5.421875 11.28125 
Q 10.40625 8.6875 15.234375 7.390625 
Q 20.0625 6.109375 24.8125 6.109375 
Q 31.15625 6.109375 34.5625 8.28125 
Q 37.984375 10.453125 37.984375 14.40625 
Q 37.984375 18.0625 35.515625 20.015625 
Q 33.0625 21.96875 24.703125 23.78125 
L 21.578125 24.515625 
Q 13.234375 26.265625 9.515625 29.90625 
Q 5.8125 33.546875 5.8125 39.890625 
Q 5.8125 47.609375 11.28125 51.796875 
Q 16.75 56 26.8125 56 
Q 31.78125 56 36.171875 55.265625 
Q 40.578125 54.546875 44.28125 53.078125 
z
" id="DejaVuSans-115"/>
     </defs>
     <g transform="translate(215.349063 335.860562)scale(0.1 -0.1)">
      <use xlink:href="#DejaVuSans-120"/>
      <use x="59.179688" xlink:href="#DejaVuSans-32"/>
      <use x="90.966797" xlink:href="#DejaVuSans-118"/>
      <use x="150.146484" xlink:href="#DejaVuSans-97"/>
      <use x="211.425781" xlink:href="#DejaVuSans-108"/>
      <use x="239.208984" xlink:href="#DejaVuSans-117"/>
      <use x="302.587891" xlink:href="#DejaVuSans-101"/>
      <use x="364.111328" xlink:href="#DejaVuSans-115"/>
     </g>
    </g>
   </g>
   <g id="matplotlib.axis_2">
    <g id="ytick_1">
     <g id="line2d_7">
      <defs>
       <path d="M 0 0 
L -3.5 0 
" id="me1c6d7e534" style="stroke:#000000;stroke-width:0.8;"/>
      </defs>
      <g>
       <use style="stroke:#000000;stroke-width:0.8;" x="57.6" xlink:href="#me1c6d7e534" y="290.531816"/>
      </g>
     </g>
     <g id="text_8">
      <!-- 0 -->
      <g transform="translate(44.2375 294.331035)scale(0.1 -0.1)">
       <use xlink:href="#DejaVuSans-48"/>
      </g>
     </g>
    </g>
    <g id="ytick_2">
     <g id="line2d_8">
      <g>
       <use style="stroke:#000000;stroke-width:0.8;" x="57.6" xlink:href="#me1c6d7e534" y="252.633546"/>
      </g>
     </g>
     <g id="text_9">
      <!-- 100 -->
      <g transform="translate(31.5125 256.432765)scale(0.1 -0.1)">
       <use xlink:href="#DejaVuSans-49"/>
       <use x="63.623047" xlink:href="#DejaVuSans-48"/>
       <use x="127.246094" xlink:href="#DejaVuSans-48"/>
      </g>
     </g>
    </g>
    <g id="ytick_3">
     <g id="line2d_9">
      <g>
       <use style="stroke:#000000;stroke-width:0.8;" x="57.6" xlink:href="#me1c6d7e534" y="214.735276"/>
      </g>
     </g>
     <g id="text_10">
      <!-- 200 -->
      <g transform="translate(31.5125 218.534495)scale(0.1 -0.1)">
       <use xlink:href="#DejaVuSans-50"/>
       <use x="63.623047" xlink:href="#DejaVuSans-48"/>
       <use x="127.246094" xlink:href="#DejaVuSans-48"/>
      </g>
     </g>
    </g>
    <g id="ytick_4">
     <g id="line2d_10">
      <g>
       <use style="stroke:#000000;stroke-width:0.8;" x="57.6" xlink:href="#me1c6d7e534" y="176.837007"/>
      </g>
     </g>
     <g id="text_11">
      <!-- 300 -->
      <defs>
       <path d="M 40.578125 39.3125 
Q 47.65625 37.796875 51.625 33 
Q 55.609375 28.21875 55.609375 21.1875 
Q 55.609375 10.40625 48.1875 4.484375 
Q 40.765625 -1.421875 27.09375 -1.421875 
Q 22.515625 -1.421875 17.65625 -0.515625 
Q 12.796875 0.390625 7.625 2.203125 
L 7.625 11.71875 
Q 11.71875 9.328125 16.59375 8.109375 
Q 21.484375 6.890625 26.8125 6.890625 
Q 36.078125 6.890625 40.9375 10.546875 
Q 45.796875 14.203125 45.796875 21.1875 
Q 45.796875 27.640625 41.28125 31.265625 
Q 36.765625 34.90625 28.71875 34.90625 
L 20.21875 34.90625 
L 20.21875 43.015625 
L 29.109375 43.015625 
Q 36.375 43.015625 40.234375 45.921875 
Q 44.09375 48.828125 44.09375 54.296875 
Q 44.09375 59.90625 40.109375 62.90625 
Q 36.140625 65.921875 28.71875 65.921875 
Q 24.65625 65.921875 20.015625 65.03125 
Q 15.375 64.15625 9.8125 62.3125 
L 9.8125 71.09375 
Q 15.4375 72.65625 20.34375 73.4375 
Q 25.25 74.21875 29.59375 74.21875 
Q 40.828125 74.21875 47.359375 69.109375 
Q 53.90625 64.015625 53.90625 55.328125 
Q 53.90625 49.265625 50.4375 45.09375 
Q 46.96875 40.921875 40.578125 39.3125 
z
" id="DejaVuSans-51"/>
      </defs>
      <g transform="translate(31.5125 180.636225)scale(0.1 -0.1)">
       <use xlink:href="#DejaVuSans-51"/>
       <use x="63.623047" xlink:href="#DejaVuSans-48"/>
       <use x="127.246094" xlink:href="#DejaVuSans-48"/>
      </g>
     </g>
    </g>
    <g id="ytick_5">
     <g id="line2d_11">
      <g>
       <use style="stroke:#000000;stroke-width:0.8;" x="57.6" xlink:href="#me1c6d7e534" y="138.938737"/>
      </g>
     </g>
     <g id="text_12">
      <!-- 400 -->
      <g transform="translate(31.5125 142.737956)scale(0.1 -0.1)">
       <use xlink:href="#DejaVuSans-52"/>
       <use x="63.623047" xlink:href="#DejaVuSans-48"/>
       <use x="127.246094" xlink:href="#DejaVuSans-48"/>
      </g>
     </g>
    </g>
    <g id="ytick_6">
     <g id="line2d_12">
      <g>
       <use style="stroke:#000000;stroke-width:0.8;" x="57.6" xlink:href="#me1c6d7e534" y="101.040467"/>
      </g>
     </g>
     <g id="text_13">
      <!-- 500 -->
      <defs>
       <path d="M 10.796875 72.90625 
L 49.515625 72.90625 
L 49.515625 64.59375 
L 19.828125 64.59375 
L 19.828125 46.734375 
Q 21.96875 47.46875 24.109375 47.828125 
Q 26.265625 48.1875 28.421875 48.1875 
Q 40.625 48.1875 47.75 41.5 
Q 54.890625 34.8125 54.890625 23.390625 
Q 54.890625 11.625 47.5625 5.09375 
Q 40.234375 -1.421875 26.90625 -1.421875 
Q 22.3125 -1.421875 17.546875 -0.640625 
Q 12.796875 0.140625 7.71875 1.703125 
L 7.71875 11.625 
Q 12.109375 9.234375 16.796875 8.0625 
Q 21.484375 6.890625 26.703125 6.890625 
Q 35.15625 6.890625 40.078125 11.328125 
Q 45.015625 15.765625 45.015625 23.390625 
Q 45.015625 31 40.078125 35.4375 
Q 35.15625 39.890625 26.703125 39.890625 
Q 22.75 39.890625 18.8125 39.015625 
Q 14.890625 38.140625 10.796875 36.28125 
z
" id="DejaVuSans-53"/>
      </defs>
      <g transform="translate(31.5125 104.839686)scale(0.1 -0.1)">
       <use xlink:href="#DejaVuSans-53"/>
       <use x="63.623047" xlink:href="#DejaVuSans-48"/>
       <use x="127.246094" xlink:href="#DejaVuSans-48"/>
      </g>
     </g>
    </g>
    <g id="ytick_7">
     <g id="line2d_13">
      <g>
       <use style="stroke:#000000;stroke-width:0.8;" x="57.6" xlink:href="#me1c6d7e534" y="63.142197"/>
      </g>
     </g>
     <g id="text_14">
      <!-- 600 -->
      <g transform="translate(31.5125 66.941416)scale(0.1 -0.1)">
       <use xlink:href="#DejaVuSans-54"/>
       <use x="63.623047" xlink:href="#DejaVuSans-48"/>
       <use x="127.246094" xlink:href="#DejaVuSans-48"/>
      </g>
     </g>
    </g>
    <g id="text_15">
     <!-- y values -->
     <defs>
      <path d="M 32.171875 -5.078125 
Q 28.375 -14.84375 24.75 -17.8125 
Q 21.140625 -20.796875 15.09375 -20.796875 
L 7.90625 -20.796875 
L 7.90625 -13.28125 
L 13.1875 -13.28125 
Q 16.890625 -13.28125 18.9375 -11.515625 
Q 21 -9.765625 23.484375 -3.21875 
L 25.09375 0.875 
L 2.984375 54.6875 
L 12.5 54.6875 
L 29.59375 11.921875 
L 46.6875 54.6875 
L 56.203125 54.6875 
z
" id="DejaVuSans-121"/>
     </defs>
     <g transform="translate(25.432812 195.338937)rotate(-90)scale(0.1 -0.1)">
      <use xlink:href="#DejaVuSans-121"/>
      <use x="59.179688" xlink:href="#DejaVuSans-32"/>
      <use x="90.966797" xlink:href="#DejaVuSans-118"/>
      <use x="150.146484" xlink:href="#DejaVuSans-97"/>
      <use x="211.425781" xlink:href="#DejaVuSans-108"/>
      <use x="239.208984" xlink:href="#DejaVuSans-117"/>
      <use x="302.587891" xlink:href="#DejaVuSans-101"/>
      <use x="364.111328" xlink:href="#DejaVuSans-115"/>
     </g>
    </g>
   </g>
   <g id="line2d_14">
    <defs>
     <path d="M 0 1 
C 0.265203 1 0.51958 0.894634 0.707107 0.707107 
C 0.894634 0.51958 1 0.265203 1 0 
C 1 -0.265203 0.894634 -0.51958 0.707107 -0.707107 
C 0.51958 -0.894634 0.265203 -1 0 -1 
C -0.265203 -1 -0.51958 -0.894634 -0.707107 -0.707107 
C -0.894634 -0.51958 -1 -0.265203 -1 0 
C -1 0.265203 -0.894634 0.51958 -0.707107 0.707107 
C -0.51958 0.894634 -0.265203 1 0 1 
z
" id="m1f29a9b563" style="stroke:#ff0000;"/>
    </defs>
    <g clip-path="url(#p9f357fd3cd)">
     <use style="fill:#ff0000;stroke:#ff0000;" x="73.832727" xlink:href="#m1f29a9b563" y="100.71972"/>
     <use style="fill:#ff0000;stroke:#ff0000;" x="74.940763" xlink:href="#m1f29a9b563" y="53.568"/>
     <use style="fill:#ff0000;stroke:#ff0000;" x="76.048799" xlink:href="#m1f29a9b563" y="86.687193"/>
     <use style="fill:#ff0000;stroke:#ff0000;" x="77.156835" xlink:href="#m1f29a9b563" y="108.206267"/>
     <use style="fill:#ff0000;stroke:#ff0000;" x="78.264871" xlink:href="#m1f29a9b563" y="99.493679"/>
     <use style="fill:#ff0000;stroke:#ff0000;" x="79.372907" xlink:href="#m1f29a9b563" y="81.817255"/>
     <use style="fill:#ff0000;stroke:#ff0000;" x="80.480943" xlink:href="#m1f29a9b563" y="56.471604"/>
     <use style="fill:#ff0000;stroke:#ff0000;" x="81.588979" xlink:href="#m1f29a9b563" y="108.706822"/>
     <use style="fill:#ff0000;stroke:#ff0000;" x="82.697015" xlink:href="#m1f29a9b563" y="124.252508"/>
     <use style="fill:#ff0000;stroke:#ff0000;" x="83.805051" xlink:href="#m1f29a9b563" y="78.247851"/>
     <use style="fill:#ff0000;stroke:#ff0000;" x="84.913087" xlink:href="#m1f29a9b563" y="86.167124"/>
     <use style="fill:#ff0000;stroke:#ff0000;" x="86.021123" xlink:href="#m1f29a9b563" y="80.775579"/>
     <use style="fill:#ff0000;stroke:#ff0000;" x="87.129159" xlink:href="#m1f29a9b563" y="131.975209"/>
     <use style="fill:#ff0000;stroke:#ff0000;" x="88.237195" xlink:href="#m1f29a9b563" y="105.072926"/>
     <use style="fill:#ff0000;stroke:#ff0000;" x="89.345231" xlink:href="#m1f29a9b563" y="113.558979"/>
     <use style="fill:#ff0000;stroke:#ff0000;" x="90.453267" xlink:href="#m1f29a9b563" y="105.445918"/>
     <use style="fill:#ff0000;stroke:#ff0000;" x="91.561303" xlink:href="#m1f29a9b563" y="113.916027"/>
     <use style="fill:#ff0000;stroke:#ff0000;" x="92.669339" xlink:href="#m1f29a9b563" y="152.544887"/>
     <use style="fill:#ff0000;stroke:#ff0000;" x="93.777375" xlink:href="#m1f29a9b563" y="93.772292"/>
     <use style="fill:#ff0000;stroke:#ff0000;" x="94.885411" xlink:href="#m1f29a9b563" y="125.314175"/>
     <use style="fill:#ff0000;stroke:#ff0000;" x="95.993447" xlink:href="#m1f29a9b563" y="145.357538"/>
     <use style="fill:#ff0000;stroke:#ff0000;" x="97.101483" xlink:href="#m1f29a9b563" y="107.226821"/>
     <use style="fill:#ff0000;stroke:#ff0000;" x="98.209519" xlink:href="#m1f29a9b563" y="159.723598"/>
     <use style="fill:#ff0000;stroke:#ff0000;" x="99.317555" xlink:href="#m1f29a9b563" y="123.734947"/>
     <use style="fill:#ff0000;stroke:#ff0000;" x="100.425591" xlink:href="#m1f29a9b563" y="152.254414"/>
     <use style="fill:#ff0000;stroke:#ff0000;" x="101.533627" xlink:href="#m1f29a9b563" y="144.230527"/>
     <use style="fill:#ff0000;stroke:#ff0000;" x="102.641663" xlink:href="#m1f29a9b563" y="106.240299"/>
     <use style="fill:#ff0000;stroke:#ff0000;" x="103.749699" xlink:href="#m1f29a9b563" y="135.49005"/>
     <use style="fill:#ff0000;stroke:#ff0000;" x="104.857735" xlink:href="#m1f29a9b563" y="152.764315"/>
     <use style="fill:#ff0000;stroke:#ff0000;" x="105.965771" xlink:href="#m1f29a9b563" y="157.137056"/>
     <use style="fill:#ff0000;stroke:#ff0000;" x="107.073807" xlink:href="#m1f29a9b563" y="146.690768"/>
     <use style="fill:#ff0000;stroke:#ff0000;" x="108.181843" xlink:href="#m1f29a9b563" y="123.18777"/>
     <use style="fill:#ff0000;stroke:#ff0000;" x="109.289879" xlink:href="#m1f29a9b563" y="162.009333"/>
     <use style="fill:#ff0000;stroke:#ff0000;" x="110.397915" xlink:href="#m1f29a9b563" y="176.407142"/>
     <use style="fill:#ff0000;stroke:#ff0000;" x="111.505951" xlink:href="#m1f29a9b563" y="127.521029"/>
     <use style="fill:#ff0000;stroke:#ff0000;" x="112.613987" xlink:href="#m1f29a9b563" y="175.649601"/>
     <use style="fill:#ff0000;stroke:#ff0000;" x="113.722023" xlink:href="#m1f29a9b563" y="151.158465"/>
     <use style="fill:#ff0000;stroke:#ff0000;" x="114.830059" xlink:href="#m1f29a9b563" y="181.186867"/>
     <use style="fill:#ff0000;stroke:#ff0000;" x="115.938095" xlink:href="#m1f29a9b563" y="179.663261"/>
     <use style="fill:#ff0000;stroke:#ff0000;" x="117.046131" xlink:href="#m1f29a9b563" y="152.919243"/>
     <use style="fill:#ff0000;stroke:#ff0000;" x="118.154167" xlink:href="#m1f29a9b563" y="145.675956"/>
     <use style="fill:#ff0000;stroke:#ff0000;" x="119.262203" xlink:href="#m1f29a9b563" y="159.662998"/>
     <use style="fill:#ff0000;stroke:#ff0000;" x="120.370239" xlink:href="#m1f29a9b563" y="148.932038"/>
     <use style="fill:#ff0000;stroke:#ff0000;" x="121.478275" xlink:href="#m1f29a9b563" y="184.665863"/>
     <use style="fill:#ff0000;stroke:#ff0000;" x="122.586311" xlink:href="#m1f29a9b563" y="138.061298"/>
     <use style="fill:#ff0000;stroke:#ff0000;" x="123.694347" xlink:href="#m1f29a9b563" y="193.080196"/>
     <use style="fill:#ff0000;stroke:#ff0000;" x="124.802383" xlink:href="#m1f29a9b563" y="144.316605"/>
     <use style="fill:#ff0000;stroke:#ff0000;" x="125.910419" xlink:href="#m1f29a9b563" y="178.950485"/>
     <use style="fill:#ff0000;stroke:#ff0000;" x="127.018455" xlink:href="#m1f29a9b563" y="195.805645"/>
     <use style="fill:#ff0000;stroke:#ff0000;" x="128.126491" xlink:href="#m1f29a9b563" y="179.244323"/>
     <use style="fill:#ff0000;stroke:#ff0000;" x="129.234527" xlink:href="#m1f29a9b563" y="157.185989"/>
     <use style="fill:#ff0000;stroke:#ff0000;" x="130.342563" xlink:href="#m1f29a9b563" y="187.082635"/>
     <use style="fill:#ff0000;stroke:#ff0000;" x="131.450599" xlink:href="#m1f29a9b563" y="153.64205"/>
     <use style="fill:#ff0000;stroke:#ff0000;" x="132.558635" xlink:href="#m1f29a9b563" y="163.98919"/>
     <use style="fill:#ff0000;stroke:#ff0000;" x="133.666671" xlink:href="#m1f29a9b563" y="166.190276"/>
     <use style="fill:#ff0000;stroke:#ff0000;" x="134.774707" xlink:href="#m1f29a9b563" y="195.285592"/>
     <use style="fill:#ff0000;stroke:#ff0000;" x="135.882743" xlink:href="#m1f29a9b563" y="182.218036"/>
     <use style="fill:#ff0000;stroke:#ff0000;" x="136.990779" xlink:href="#m1f29a9b563" y="181.918279"/>
     <use style="fill:#ff0000;stroke:#ff0000;" x="138.098815" xlink:href="#m1f29a9b563" y="176.297274"/>
     <use style="fill:#ff0000;stroke:#ff0000;" x="139.206851" xlink:href="#m1f29a9b563" y="207.310825"/>
     <use style="fill:#ff0000;stroke:#ff0000;" x="140.314887" xlink:href="#m1f29a9b563" y="189.785784"/>
     <use style="fill:#ff0000;stroke:#ff0000;" x="141.422923" xlink:href="#m1f29a9b563" y="168.206012"/>
     <use style="fill:#ff0000;stroke:#ff0000;" x="142.530959" xlink:href="#m1f29a9b563" y="186.724185"/>
     <use style="fill:#ff0000;stroke:#ff0000;" x="143.638995" xlink:href="#m1f29a9b563" y="180.558178"/>
     <use style="fill:#ff0000;stroke:#ff0000;" x="144.747031" xlink:href="#m1f29a9b563" y="204.381351"/>
     <use style="fill:#ff0000;stroke:#ff0000;" x="145.855067" xlink:href="#m1f29a9b563" y="203.944624"/>
     <use style="fill:#ff0000;stroke:#ff0000;" x="146.963103" xlink:href="#m1f29a9b563" y="194.64016"/>
     <use style="fill:#ff0000;stroke:#ff0000;" x="148.071139" xlink:href="#m1f29a9b563" y="203.569657"/>
     <use style="fill:#ff0000;stroke:#ff0000;" x="149.179175" xlink:href="#m1f29a9b563" y="221.30374"/>
     <use style="fill:#ff0000;stroke:#ff0000;" x="150.287211" xlink:href="#m1f29a9b563" y="202.0674"/>
     <use style="fill:#ff0000;stroke:#ff0000;" x="151.395247" xlink:href="#m1f29a9b563" y="228.013233"/>
     <use style="fill:#ff0000;stroke:#ff0000;" x="152.503283" xlink:href="#m1f29a9b563" y="232.863191"/>
     <use style="fill:#ff0000;stroke:#ff0000;" x="153.611319" xlink:href="#m1f29a9b563" y="211.039563"/>
     <use style="fill:#ff0000;stroke:#ff0000;" x="154.719355" xlink:href="#m1f29a9b563" y="212.451648"/>
     <use style="fill:#ff0000;stroke:#ff0000;" x="155.827391" xlink:href="#m1f29a9b563" y="218.795692"/>
     <use style="fill:#ff0000;stroke:#ff0000;" x="156.935427" xlink:href="#m1f29a9b563" y="229.764531"/>
     <use style="fill:#ff0000;stroke:#ff0000;" x="158.043463" xlink:href="#m1f29a9b563" y="225.218153"/>
     <use style="fill:#ff0000;stroke:#ff0000;" x="159.151499" xlink:href="#m1f29a9b563" y="229.027749"/>
     <use style="fill:#ff0000;stroke:#ff0000;" x="160.259535" xlink:href="#m1f29a9b563" y="210.073716"/>
     <use style="fill:#ff0000;stroke:#ff0000;" x="161.367571" xlink:href="#m1f29a9b563" y="222.579924"/>
     <use style="fill:#ff0000;stroke:#ff0000;" x="162.475607" xlink:href="#m1f29a9b563" y="215.177658"/>
     <use style="fill:#ff0000;stroke:#ff0000;" x="163.583643" xlink:href="#m1f29a9b563" y="224.518901"/>
     <use style="fill:#ff0000;stroke:#ff0000;" x="164.691679" xlink:href="#m1f29a9b563" y="221.907751"/>
     <use style="fill:#ff0000;stroke:#ff0000;" x="165.799715" xlink:href="#m1f29a9b563" y="232.128852"/>
     <use style="fill:#ff0000;stroke:#ff0000;" x="166.907751" xlink:href="#m1f29a9b563" y="224.839839"/>
     <use style="fill:#ff0000;stroke:#ff0000;" x="168.015787" xlink:href="#m1f29a9b563" y="235.683861"/>
     <use style="fill:#ff0000;stroke:#ff0000;" x="169.123823" xlink:href="#m1f29a9b563" y="228.045447"/>
     <use style="fill:#ff0000;stroke:#ff0000;" x="170.231859" xlink:href="#m1f29a9b563" y="215.81763"/>
     <use style="fill:#ff0000;stroke:#ff0000;" x="171.339895" xlink:href="#m1f29a9b563" y="230.621951"/>
     <use style="fill:#ff0000;stroke:#ff0000;" x="172.44793" xlink:href="#m1f29a9b563" y="217.417017"/>
     <use style="fill:#ff0000;stroke:#ff0000;" x="173.555966" xlink:href="#m1f29a9b563" y="232.489792"/>
     <use style="fill:#ff0000;stroke:#ff0000;" x="174.664002" xlink:href="#m1f29a9b563" y="233.864997"/>
     <use style="fill:#ff0000;stroke:#ff0000;" x="175.772038" xlink:href="#m1f29a9b563" y="230.892481"/>
     <use style="fill:#ff0000;stroke:#ff0000;" x="176.880074" xlink:href="#m1f29a9b563" y="250.126435"/>
     <use style="fill:#ff0000;stroke:#ff0000;" x="177.98811" xlink:href="#m1f29a9b563" y="251.343215"/>
     <use style="fill:#ff0000;stroke:#ff0000;" x="179.096146" xlink:href="#m1f29a9b563" y="243.363176"/>
     <use style="fill:#ff0000;stroke:#ff0000;" x="180.204182" xlink:href="#m1f29a9b563" y="229.334753"/>
     <use style="fill:#ff0000;stroke:#ff0000;" x="181.312218" xlink:href="#m1f29a9b563" y="233.235557"/>
     <use style="fill:#ff0000;stroke:#ff0000;" x="182.420254" xlink:href="#m1f29a9b563" y="256.288268"/>
     <use style="fill:#ff0000;stroke:#ff0000;" x="183.52829" xlink:href="#m1f29a9b563" y="236.563658"/>
     <use style="fill:#ff0000;stroke:#ff0000;" x="184.636326" xlink:href="#m1f29a9b563" y="240.301508"/>
     <use style="fill:#ff0000;stroke:#ff0000;" x="185.744362" xlink:href="#m1f29a9b563" y="243.510404"/>
     <use style="fill:#ff0000;stroke:#ff0000;" x="186.852398" xlink:href="#m1f29a9b563" y="246.98454"/>
     <use style="fill:#ff0000;stroke:#ff0000;" x="187.960434" xlink:href="#m1f29a9b563" y="254.473316"/>
     <use style="fill:#ff0000;stroke:#ff0000;" x="189.06847" xlink:href="#m1f29a9b563" y="249.93136"/>
     <use style="fill:#ff0000;stroke:#ff0000;" x="190.176506" xlink:href="#m1f29a9b563" y="247.145641"/>
     <use style="fill:#ff0000;stroke:#ff0000;" x="191.284542" xlink:href="#m1f29a9b563" y="248.689547"/>
     <use style="fill:#ff0000;stroke:#ff0000;" x="192.392578" xlink:href="#m1f29a9b563" y="253.224463"/>
     <use style="fill:#ff0000;stroke:#ff0000;" x="193.500614" xlink:href="#m1f29a9b563" y="252.610673"/>
     <use style="fill:#ff0000;stroke:#ff0000;" x="194.60865" xlink:href="#m1f29a9b563" y="256.837845"/>
     <use style="fill:#ff0000;stroke:#ff0000;" x="195.716686" xlink:href="#m1f29a9b563" y="245.724466"/>
     <use style="fill:#ff0000;stroke:#ff0000;" x="196.824722" xlink:href="#m1f29a9b563" y="255.587192"/>
     <use style="fill:#ff0000;stroke:#ff0000;" x="197.932758" xlink:href="#m1f29a9b563" y="251.316476"/>
     <use style="fill:#ff0000;stroke:#ff0000;" x="199.040794" xlink:href="#m1f29a9b563" y="266.288233"/>
     <use style="fill:#ff0000;stroke:#ff0000;" x="200.14883" xlink:href="#m1f29a9b563" y="265.82975"/>
     <use style="fill:#ff0000;stroke:#ff0000;" x="201.256866" xlink:href="#m1f29a9b563" y="260.717281"/>
     <use style="fill:#ff0000;stroke:#ff0000;" x="202.364902" xlink:href="#m1f29a9b563" y="258.82947"/>
     <use style="fill:#ff0000;stroke:#ff0000;" x="203.472938" xlink:href="#m1f29a9b563" y="254.972841"/>
     <use style="fill:#ff0000;stroke:#ff0000;" x="204.580974" xlink:href="#m1f29a9b563" y="264.516102"/>
     <use style="fill:#ff0000;stroke:#ff0000;" x="205.68901" xlink:href="#m1f29a9b563" y="265.944164"/>
     <use style="fill:#ff0000;stroke:#ff0000;" x="206.797046" xlink:href="#m1f29a9b563" y="266.414842"/>
     <use style="fill:#ff0000;stroke:#ff0000;" x="207.905082" xlink:href="#m1f29a9b563" y="256.738141"/>
     <use style="fill:#ff0000;stroke:#ff0000;" x="209.013118" xlink:href="#m1f29a9b563" y="258.664941"/>
     <use style="fill:#ff0000;stroke:#ff0000;" x="210.121154" xlink:href="#m1f29a9b563" y="266.439699"/>
     <use style="fill:#ff0000;stroke:#ff0000;" x="211.22919" xlink:href="#m1f29a9b563" y="253.918469"/>
     <use style="fill:#ff0000;stroke:#ff0000;" x="212.337226" xlink:href="#m1f29a9b563" y="256.026253"/>
     <use style="fill:#ff0000;stroke:#ff0000;" x="213.445262" xlink:href="#m1f29a9b563" y="270.832492"/>
     <use style="fill:#ff0000;stroke:#ff0000;" x="214.553298" xlink:href="#m1f29a9b563" y="261.518369"/>
     <use style="fill:#ff0000;stroke:#ff0000;" x="215.661334" xlink:href="#m1f29a9b563" y="266.363902"/>
     <use style="fill:#ff0000;stroke:#ff0000;" x="216.76937" xlink:href="#m1f29a9b563" y="267.334503"/>
     <use style="fill:#ff0000;stroke:#ff0000;" x="217.877406" xlink:href="#m1f29a9b563" y="272.559816"/>
     <use style="fill:#ff0000;stroke:#ff0000;" x="218.985442" xlink:href="#m1f29a9b563" y="277.239612"/>
     <use style="fill:#ff0000;stroke:#ff0000;" x="220.093478" xlink:href="#m1f29a9b563" y="258.836707"/>
     <use style="fill:#ff0000;stroke:#ff0000;" x="221.201514" xlink:href="#m1f29a9b563" y="267.189491"/>
     <use style="fill:#ff0000;stroke:#ff0000;" x="222.30955" xlink:href="#m1f29a9b563" y="277.455178"/>
     <use style="fill:#ff0000;stroke:#ff0000;" x="223.417586" xlink:href="#m1f29a9b563" y="269.788713"/>
     <use style="fill:#ff0000;stroke:#ff0000;" x="224.525622" xlink:href="#m1f29a9b563" y="280.275044"/>
     <use style="fill:#ff0000;stroke:#ff0000;" x="225.633658" xlink:href="#m1f29a9b563" y="273.150332"/>
     <use style="fill:#ff0000;stroke:#ff0000;" x="226.741694" xlink:href="#m1f29a9b563" y="267.351885"/>
     <use style="fill:#ff0000;stroke:#ff0000;" x="227.84973" xlink:href="#m1f29a9b563" y="264.526627"/>
     <use style="fill:#ff0000;stroke:#ff0000;" x="228.957766" xlink:href="#m1f29a9b563" y="278.513671"/>
     <use style="fill:#ff0000;stroke:#ff0000;" x="230.065802" xlink:href="#m1f29a9b563" y="272.296742"/>
     <use style="fill:#ff0000;stroke:#ff0000;" x="231.173838" xlink:href="#m1f29a9b563" y="275.380992"/>
     <use style="fill:#ff0000;stroke:#ff0000;" x="232.281874" xlink:href="#m1f29a9b563" y="282.937255"/>
     <use style="fill:#ff0000;stroke:#ff0000;" x="233.38991" xlink:href="#m1f29a9b563" y="269.70537"/>
     <use style="fill:#ff0000;stroke:#ff0000;" x="234.497946" xlink:href="#m1f29a9b563" y="275.943328"/>
     <use style="fill:#ff0000;stroke:#ff0000;" x="235.605982" xlink:href="#m1f29a9b563" y="275.451518"/>
     <use style="fill:#ff0000;stroke:#ff0000;" x="236.714018" xlink:href="#m1f29a9b563" y="279.418618"/>
     <use style="fill:#ff0000;stroke:#ff0000;" x="237.822054" xlink:href="#m1f29a9b563" y="284.146045"/>
     <use style="fill:#ff0000;stroke:#ff0000;" x="238.93009" xlink:href="#m1f29a9b563" y="273.795955"/>
     <use style="fill:#ff0000;stroke:#ff0000;" x="240.038126" xlink:href="#m1f29a9b563" y="275.92607"/>
     <use style="fill:#ff0000;stroke:#ff0000;" x="241.146162" xlink:href="#m1f29a9b563" y="282.286188"/>
     <use style="fill:#ff0000;stroke:#ff0000;" x="242.254198" xlink:href="#m1f29a9b563" y="280.585611"/>
     <use style="fill:#ff0000;stroke:#ff0000;" x="243.362234" xlink:href="#m1f29a9b563" y="273.13453"/>
     <use style="fill:#ff0000;stroke:#ff0000;" x="244.47027" xlink:href="#m1f29a9b563" y="280.964657"/>
     <use style="fill:#ff0000;stroke:#ff0000;" x="245.578306" xlink:href="#m1f29a9b563" y="273.453577"/>
     <use style="fill:#ff0000;stroke:#ff0000;" x="246.686342" xlink:href="#m1f29a9b563" y="280.619841"/>
     <use style="fill:#ff0000;stroke:#ff0000;" x="247.794378" xlink:href="#m1f29a9b563" y="290.387941"/>
     <use style="fill:#ff0000;stroke:#ff0000;" x="248.902414" xlink:href="#m1f29a9b563" y="276.093068"/>
     <use style="fill:#ff0000;stroke:#ff0000;" x="250.01045" xlink:href="#m1f29a9b563" y="283.676945"/>
     <use style="fill:#ff0000;stroke:#ff0000;" x="251.118486" xlink:href="#m1f29a9b563" y="284.060787"/>
     <use style="fill:#ff0000;stroke:#ff0000;" x="252.226522" xlink:href="#m1f29a9b563" y="275.856717"/>
     <use style="fill:#ff0000;stroke:#ff0000;" x="253.334558" xlink:href="#m1f29a9b563" y="283.647428"/>
     <use style="fill:#ff0000;stroke:#ff0000;" x="254.442594" xlink:href="#m1f29a9b563" y="283.730448"/>
     <use style="fill:#ff0000;stroke:#ff0000;" x="255.55063" xlink:href="#m1f29a9b563" y="285.598587"/>
     <use style="fill:#ff0000;stroke:#ff0000;" x="256.658666" xlink:href="#m1f29a9b563" y="280.332838"/>
     <use style="fill:#ff0000;stroke:#ff0000;" x="257.766702" xlink:href="#m1f29a9b563" y="283.61944"/>
     <use style="fill:#ff0000;stroke:#ff0000;" x="258.874738" xlink:href="#m1f29a9b563" y="278.091359"/>
     <use style="fill:#ff0000;stroke:#ff0000;" x="259.982774" xlink:href="#m1f29a9b563" y="278.323705"/>
     <use style="fill:#ff0000;stroke:#ff0000;" x="261.09081" xlink:href="#m1f29a9b563" y="290.801626"/>
     <use style="fill:#ff0000;stroke:#ff0000;" x="262.198846" xlink:href="#m1f29a9b563" y="288.143608"/>
     <use style="fill:#ff0000;stroke:#ff0000;" x="263.306882" xlink:href="#m1f29a9b563" y="282.228268"/>
     <use style="fill:#ff0000;stroke:#ff0000;" x="264.414918" xlink:href="#m1f29a9b563" y="279.484289"/>
     <use style="fill:#ff0000;stroke:#ff0000;" x="265.522954" xlink:href="#m1f29a9b563" y="293.716842"/>
     <use style="fill:#ff0000;stroke:#ff0000;" x="266.63099" xlink:href="#m1f29a9b563" y="287.263081"/>
     <use style="fill:#ff0000;stroke:#ff0000;" x="267.739026" xlink:href="#m1f29a9b563" y="288.434122"/>
     <use style="fill:#ff0000;stroke:#ff0000;" x="268.847062" xlink:href="#m1f29a9b563" y="279.695777"/>
     <use style="fill:#ff0000;stroke:#ff0000;" x="269.955098" xlink:href="#m1f29a9b563" y="278.107725"/>
     <use style="fill:#ff0000;stroke:#ff0000;" x="271.063134" xlink:href="#m1f29a9b563" y="295.131081"/>
     <use style="fill:#ff0000;stroke:#ff0000;" x="272.17117" xlink:href="#m1f29a9b563" y="295.065119"/>
     <use style="fill:#ff0000;stroke:#ff0000;" x="273.279206" xlink:href="#m1f29a9b563" y="285.661497"/>
     <use style="fill:#ff0000;stroke:#ff0000;" x="274.387242" xlink:href="#m1f29a9b563" y="282.994793"/>
     <use style="fill:#ff0000;stroke:#ff0000;" x="275.495278" xlink:href="#m1f29a9b563" y="286.048371"/>
     <use style="fill:#ff0000;stroke:#ff0000;" x="276.603314" xlink:href="#m1f29a9b563" y="285.190984"/>
     <use style="fill:#ff0000;stroke:#ff0000;" x="277.71135" xlink:href="#m1f29a9b563" y="291.878575"/>
     <use style="fill:#ff0000;stroke:#ff0000;" x="278.819386" xlink:href="#m1f29a9b563" y="290.296025"/>
     <use style="fill:#ff0000;stroke:#ff0000;" x="279.927422" xlink:href="#m1f29a9b563" y="295.272687"/>
     <use style="fill:#ff0000;stroke:#ff0000;" x="281.035458" xlink:href="#m1f29a9b563" y="287.65642"/>
     <use style="fill:#ff0000;stroke:#ff0000;" x="282.143494" xlink:href="#m1f29a9b563" y="283.677911"/>
     <use style="fill:#ff0000;stroke:#ff0000;" x="283.25153" xlink:href="#m1f29a9b563" y="295.488"/>
     <use style="fill:#ff0000;stroke:#ff0000;" x="284.359566" xlink:href="#m1f29a9b563" y="290.875987"/>
     <use style="fill:#ff0000;stroke:#ff0000;" x="285.467602" xlink:href="#m1f29a9b563" y="295.201707"/>
     <use style="fill:#ff0000;stroke:#ff0000;" x="286.575638" xlink:href="#m1f29a9b563" y="294.444386"/>
     <use style="fill:#ff0000;stroke:#ff0000;" x="287.683674" xlink:href="#m1f29a9b563" y="288.425811"/>
     <use style="fill:#ff0000;stroke:#ff0000;" x="288.79171" xlink:href="#m1f29a9b563" y="282.831942"/>
     <use style="fill:#ff0000;stroke:#ff0000;" x="289.899746" xlink:href="#m1f29a9b563" y="291.341164"/>
     <use style="fill:#ff0000;stroke:#ff0000;" x="291.007782" xlink:href="#m1f29a9b563" y="285.775184"/>
     <use style="fill:#ff0000;stroke:#ff0000;" x="292.115818" xlink:href="#m1f29a9b563" y="280.244726"/>
     <use style="fill:#ff0000;stroke:#ff0000;" x="293.223854" xlink:href="#m1f29a9b563" y="283.458895"/>
     <use style="fill:#ff0000;stroke:#ff0000;" x="294.33189" xlink:href="#m1f29a9b563" y="281.963441"/>
     <use style="fill:#ff0000;stroke:#ff0000;" x="295.439926" xlink:href="#m1f29a9b563" y="289.900015"/>
     <use style="fill:#ff0000;stroke:#ff0000;" x="296.547962" xlink:href="#m1f29a9b563" y="283.764769"/>
     <use style="fill:#ff0000;stroke:#ff0000;" x="297.655998" xlink:href="#m1f29a9b563" y="286.682545"/>
     <use style="fill:#ff0000;stroke:#ff0000;" x="298.764034" xlink:href="#m1f29a9b563" y="281.486398"/>
     <use style="fill:#ff0000;stroke:#ff0000;" x="299.87207" xlink:href="#m1f29a9b563" y="289.34744"/>
     <use style="fill:#ff0000;stroke:#ff0000;" x="300.980105" xlink:href="#m1f29a9b563" y="275.925429"/>
     <use style="fill:#ff0000;stroke:#ff0000;" x="302.088141" xlink:href="#m1f29a9b563" y="292.141702"/>
     <use style="fill:#ff0000;stroke:#ff0000;" x="303.196177" xlink:href="#m1f29a9b563" y="281.069287"/>
     <use style="fill:#ff0000;stroke:#ff0000;" x="304.304213" xlink:href="#m1f29a9b563" y="287.272102"/>
     <use style="fill:#ff0000;stroke:#ff0000;" x="305.412249" xlink:href="#m1f29a9b563" y="275.217244"/>
     <use style="fill:#ff0000;stroke:#ff0000;" x="306.520285" xlink:href="#m1f29a9b563" y="291.108597"/>
     <use style="fill:#ff0000;stroke:#ff0000;" x="307.628321" xlink:href="#m1f29a9b563" y="288.763556"/>
     <use style="fill:#ff0000;stroke:#ff0000;" x="308.736357" xlink:href="#m1f29a9b563" y="288.082567"/>
     <use style="fill:#ff0000;stroke:#ff0000;" x="309.844393" xlink:href="#m1f29a9b563" y="277.637584"/>
     <use style="fill:#ff0000;stroke:#ff0000;" x="310.952429" xlink:href="#m1f29a9b563" y="276.946882"/>
     <use style="fill:#ff0000;stroke:#ff0000;" x="312.060465" xlink:href="#m1f29a9b563" y="282.296689"/>
     <use style="fill:#ff0000;stroke:#ff0000;" x="313.168501" xlink:href="#m1f29a9b563" y="275.534009"/>
     <use style="fill:#ff0000;stroke:#ff0000;" x="314.276537" xlink:href="#m1f29a9b563" y="275.234884"/>
     <use style="fill:#ff0000;stroke:#ff0000;" x="315.384573" xlink:href="#m1f29a9b563" y="281.788699"/>
     <use style="fill:#ff0000;stroke:#ff0000;" x="316.492609" xlink:href="#m1f29a9b563" y="282.41608"/>
     <use style="fill:#ff0000;stroke:#ff0000;" x="317.600645" xlink:href="#m1f29a9b563" y="283.584884"/>
     <use style="fill:#ff0000;stroke:#ff0000;" x="318.708681" xlink:href="#m1f29a9b563" y="280.737863"/>
     <use style="fill:#ff0000;stroke:#ff0000;" x="319.816717" xlink:href="#m1f29a9b563" y="270.766985"/>
     <use style="fill:#ff0000;stroke:#ff0000;" x="320.924753" xlink:href="#m1f29a9b563" y="277.444987"/>
     <use style="fill:#ff0000;stroke:#ff0000;" x="322.032789" xlink:href="#m1f29a9b563" y="282.709149"/>
     <use style="fill:#ff0000;stroke:#ff0000;" x="323.140825" xlink:href="#m1f29a9b563" y="282.57078"/>
     <use style="fill:#ff0000;stroke:#ff0000;" x="324.248861" xlink:href="#m1f29a9b563" y="274.505319"/>
     <use style="fill:#ff0000;stroke:#ff0000;" x="325.356897" xlink:href="#m1f29a9b563" y="281.973396"/>
     <use style="fill:#ff0000;stroke:#ff0000;" x="326.464933" xlink:href="#m1f29a9b563" y="279.81843"/>
     <use style="fill:#ff0000;stroke:#ff0000;" x="327.572969" xlink:href="#m1f29a9b563" y="284.283079"/>
     <use style="fill:#ff0000;stroke:#ff0000;" x="328.681005" xlink:href="#m1f29a9b563" y="282.722811"/>
     <use style="fill:#ff0000;stroke:#ff0000;" x="329.789041" xlink:href="#m1f29a9b563" y="276.463549"/>
     <use style="fill:#ff0000;stroke:#ff0000;" x="330.897077" xlink:href="#m1f29a9b563" y="282.779876"/>
     <use style="fill:#ff0000;stroke:#ff0000;" x="332.005113" xlink:href="#m1f29a9b563" y="272.174536"/>
     <use style="fill:#ff0000;stroke:#ff0000;" x="333.113149" xlink:href="#m1f29a9b563" y="265.008431"/>
     <use style="fill:#ff0000;stroke:#ff0000;" x="334.221185" xlink:href="#m1f29a9b563" y="281.436592"/>
     <use style="fill:#ff0000;stroke:#ff0000;" x="335.329221" xlink:href="#m1f29a9b563" y="264.282455"/>
     <use style="fill:#ff0000;stroke:#ff0000;" x="336.437257" xlink:href="#m1f29a9b563" y="265.963983"/>
     <use style="fill:#ff0000;stroke:#ff0000;" x="337.545293" xlink:href="#m1f29a9b563" y="264.061865"/>
     <use style="fill:#ff0000;stroke:#ff0000;" x="338.653329" xlink:href="#m1f29a9b563" y="271.128382"/>
     <use style="fill:#ff0000;stroke:#ff0000;" x="339.761365" xlink:href="#m1f29a9b563" y="271.969121"/>
     <use style="fill:#ff0000;stroke:#ff0000;" x="340.869401" xlink:href="#m1f29a9b563" y="262.575722"/>
     <use style="fill:#ff0000;stroke:#ff0000;" x="341.977437" xlink:href="#m1f29a9b563" y="260.86406"/>
     <use style="fill:#ff0000;stroke:#ff0000;" x="343.085473" xlink:href="#m1f29a9b563" y="261.516474"/>
     <use style="fill:#ff0000;stroke:#ff0000;" x="344.193509" xlink:href="#m1f29a9b563" y="266.968524"/>
     <use style="fill:#ff0000;stroke:#ff0000;" x="345.301545" xlink:href="#m1f29a9b563" y="267.584748"/>
     <use style="fill:#ff0000;stroke:#ff0000;" x="346.409581" xlink:href="#m1f29a9b563" y="264.094622"/>
     <use style="fill:#ff0000;stroke:#ff0000;" x="347.517617" xlink:href="#m1f29a9b563" y="264.592308"/>
     <use style="fill:#ff0000;stroke:#ff0000;" x="348.625653" xlink:href="#m1f29a9b563" y="275.496223"/>
     <use style="fill:#ff0000;stroke:#ff0000;" x="349.733689" xlink:href="#m1f29a9b563" y="263.022"/>
     <use style="fill:#ff0000;stroke:#ff0000;" x="350.841725" xlink:href="#m1f29a9b563" y="268.554199"/>
     <use style="fill:#ff0000;stroke:#ff0000;" x="351.949761" xlink:href="#m1f29a9b563" y="263.567844"/>
     <use style="fill:#ff0000;stroke:#ff0000;" x="353.057797" xlink:href="#m1f29a9b563" y="263.827694"/>
     <use style="fill:#ff0000;stroke:#ff0000;" x="354.165833" xlink:href="#m1f29a9b563" y="256.295439"/>
     <use style="fill:#ff0000;stroke:#ff0000;" x="355.273869" xlink:href="#m1f29a9b563" y="261.615951"/>
     <use style="fill:#ff0000;stroke:#ff0000;" x="356.381905" xlink:href="#m1f29a9b563" y="262.282118"/>
     <use style="fill:#ff0000;stroke:#ff0000;" x="357.489941" xlink:href="#m1f29a9b563" y="263.802412"/>
     <use style="fill:#ff0000;stroke:#ff0000;" x="358.597977" xlink:href="#m1f29a9b563" y="263.204662"/>
     <use style="fill:#ff0000;stroke:#ff0000;" x="359.706013" xlink:href="#m1f29a9b563" y="252.813761"/>
     <use style="fill:#ff0000;stroke:#ff0000;" x="360.814049" xlink:href="#m1f29a9b563" y="263.936856"/>
     <use style="fill:#ff0000;stroke:#ff0000;" x="361.922085" xlink:href="#m1f29a9b563" y="256.874692"/>
     <use style="fill:#ff0000;stroke:#ff0000;" x="363.030121" xlink:href="#m1f29a9b563" y="241.760215"/>
     <use style="fill:#ff0000;stroke:#ff0000;" x="364.138157" xlink:href="#m1f29a9b563" y="253.167307"/>
     <use style="fill:#ff0000;stroke:#ff0000;" x="365.246193" xlink:href="#m1f29a9b563" y="254.77014"/>
     <use style="fill:#ff0000;stroke:#ff0000;" x="366.354229" xlink:href="#m1f29a9b563" y="243.056357"/>
     <use style="fill:#ff0000;stroke:#ff0000;" x="367.462265" xlink:href="#m1f29a9b563" y="240.552985"/>
     <use style="fill:#ff0000;stroke:#ff0000;" x="368.570301" xlink:href="#m1f29a9b563" y="234.452137"/>
     <use style="fill:#ff0000;stroke:#ff0000;" x="369.678337" xlink:href="#m1f29a9b563" y="242.319784"/>
     <use style="fill:#ff0000;stroke:#ff0000;" x="370.786373" xlink:href="#m1f29a9b563" y="248.198853"/>
     <use style="fill:#ff0000;stroke:#ff0000;" x="371.894409" xlink:href="#m1f29a9b563" y="237.090499"/>
     <use style="fill:#ff0000;stroke:#ff0000;" x="373.002445" xlink:href="#m1f29a9b563" y="246.00783"/>
     <use style="fill:#ff0000;stroke:#ff0000;" x="374.110481" xlink:href="#m1f29a9b563" y="240.417302"/>
     <use style="fill:#ff0000;stroke:#ff0000;" x="375.218517" xlink:href="#m1f29a9b563" y="232.157069"/>
     <use style="fill:#ff0000;stroke:#ff0000;" x="376.326553" xlink:href="#m1f29a9b563" y="227.739798"/>
     <use style="fill:#ff0000;stroke:#ff0000;" x="377.434589" xlink:href="#m1f29a9b563" y="245.133961"/>
     <use style="fill:#ff0000;stroke:#ff0000;" x="378.542625" xlink:href="#m1f29a9b563" y="235.568557"/>
     <use style="fill:#ff0000;stroke:#ff0000;" x="379.650661" xlink:href="#m1f29a9b563" y="247.82334"/>
     <use style="fill:#ff0000;stroke:#ff0000;" x="380.758697" xlink:href="#m1f29a9b563" y="242.82429"/>
     <use style="fill:#ff0000;stroke:#ff0000;" x="381.866733" xlink:href="#m1f29a9b563" y="218.327216"/>
     <use style="fill:#ff0000;stroke:#ff0000;" x="382.974769" xlink:href="#m1f29a9b563" y="245.735211"/>
     <use style="fill:#ff0000;stroke:#ff0000;" x="384.082805" xlink:href="#m1f29a9b563" y="232.954519"/>
     <use style="fill:#ff0000;stroke:#ff0000;" x="385.190841" xlink:href="#m1f29a9b563" y="226.313105"/>
     <use style="fill:#ff0000;stroke:#ff0000;" x="386.298877" xlink:href="#m1f29a9b563" y="233.773506"/>
     <use style="fill:#ff0000;stroke:#ff0000;" x="387.406913" xlink:href="#m1f29a9b563" y="228.648073"/>
     <use style="fill:#ff0000;stroke:#ff0000;" x="388.514949" xlink:href="#m1f29a9b563" y="233.540197"/>
     <use style="fill:#ff0000;stroke:#ff0000;" x="389.622985" xlink:href="#m1f29a9b563" y="225.913929"/>
     <use style="fill:#ff0000;stroke:#ff0000;" x="390.731021" xlink:href="#m1f29a9b563" y="232.707137"/>
     <use style="fill:#ff0000;stroke:#ff0000;" x="391.839057" xlink:href="#m1f29a9b563" y="220.349101"/>
     <use style="fill:#ff0000;stroke:#ff0000;" x="392.947093" xlink:href="#m1f29a9b563" y="225.677692"/>
     <use style="fill:#ff0000;stroke:#ff0000;" x="394.055129" xlink:href="#m1f29a9b563" y="240.542167"/>
     <use style="fill:#ff0000;stroke:#ff0000;" x="395.163165" xlink:href="#m1f29a9b563" y="235.668853"/>
     <use style="fill:#ff0000;stroke:#ff0000;" x="396.271201" xlink:href="#m1f29a9b563" y="210.436195"/>
     <use style="fill:#ff0000;stroke:#ff0000;" x="397.379237" xlink:href="#m1f29a9b563" y="204.495459"/>
     <use style="fill:#ff0000;stroke:#ff0000;" x="398.487273" xlink:href="#m1f29a9b563" y="212.639329"/>
    </g>
   </g>
   <g id="line2d_15">
    <path clip-path="url(#p9f357fd3cd)" d="M 73.832727 82.077107 
L 80.480943 95.157254 
L 87.129159 107.806351 
L 93.777375 120.024398 
L 100.425591 131.811396 
L 107.073807 143.167345 
L 113.722023 154.092244 
L 120.370239 164.586093 
L 127.018455 174.648893 
L 133.666671 184.280644 
L 140.314887 193.481345 
L 146.963103 202.250996 
L 153.611319 210.589598 
L 159.151499 217.209159 
L 164.691679 223.52938 
L 170.231859 229.550262 
L 175.772038 235.271803 
L 181.312218 240.694004 
L 186.852398 245.816866 
L 192.392578 250.640387 
L 197.932758 255.164569 
L 203.472938 259.38941 
L 209.013118 263.314912 
L 214.553298 266.941074 
L 220.093478 270.267896 
L 225.633658 273.295378 
L 231.173838 276.02352 
L 236.714018 278.452322 
L 242.254198 280.581784 
L 246.686342 282.069829 
L 251.118486 283.366296 
L 255.55063 284.471186 
L 259.982774 285.384499 
L 264.414918 286.106233 
L 268.847062 286.636391 
L 273.279206 286.97497 
L 277.71135 287.121972 
L 282.143494 287.077397 
L 286.575638 286.841244 
L 291.007782 286.413513 
L 295.439926 285.794205 
L 299.87207 284.98332 
L 304.304213 283.980856 
L 308.736357 282.786816 
L 313.168501 281.401197 
L 317.600645 279.824001 
L 322.032789 278.055228 
L 327.572969 275.574855 
L 333.113149 272.795143 
L 338.653329 269.71609 
L 344.193509 266.337698 
L 349.733689 262.659965 
L 355.273869 258.682893 
L 360.814049 254.40648 
L 366.354229 249.830728 
L 371.894409 244.955636 
L 377.434589 239.781204 
L 382.974769 234.307432 
L 388.514949 228.53432 
L 394.055129 222.461868 
L 398.487273 217.388382 
L 398.487273 217.388382 
" style="fill:none;stroke:#008000;stroke-linecap:square;stroke-width:1.5;"/>
   </g>
   <g id="patch_3">
    <path d="M 57.6 307.584 
L 57.6 41.472 
" style="fill:none;stroke:#000000;stroke-linecap:square;stroke-linejoin:miter;stroke-width:0.8;"/>
   </g>
   <g id="patch_4">
    <path d="M 414.72 307.584 
L 414.72 41.472 
" style="fill:none;stroke:#000000;stroke-linecap:square;stroke-linejoin:miter;stroke-width:0.8;"/>
   </g>
   <g id="patch_5">
    <path d="M 57.6 307.584 
L 414.72 307.584 
" style="fill:none;stroke:#000000;stroke-linecap:square;stroke-linejoin:miter;stroke-width:0.8;"/>
   </g>
   <g id="patch_6">
    <path d="M 57.6 41.472 
L 414.72 41.472 
" style="fill:none;stroke:#000000;stroke-linecap:square;stroke-linejoin:miter;stroke-width:0.8;"/>
   </g>
   <g id="text_16">
    <!-- FunctionFitting 23 -->
    <defs>
     <path d="M 9.8125 72.90625 
L 51.703125 72.90625 
L 51.703125 64.59375 
L 19.671875 64.59375 
L 19.671875 43.109375 
L 48.578125 43.109375 
L 48.578125 34.8125 
L 19.671875 34.8125 
L 19.671875 0 
L 9.8125 0 
z
" id="DejaVuSans-70"/>
     <path d="M 54.890625 33.015625 
L 54.890625 0 
L 45.90625 0 
L 45.90625 32.71875 
Q 45.90625 40.484375 42.875 44.328125 
Q 39.84375 48.1875 33.796875 48.1875 
Q 26.515625 48.1875 22.3125 43.546875 
Q 18.109375 38.921875 18.109375 30.90625 
L 18.109375 0 
L 9.078125 0 
L 9.078125 54.6875 
L 18.109375 54.6875 
L 18.109375 46.1875 
Q 21.34375 51.125 25.703125 53.5625 
Q 30.078125 56 35.796875 56 
Q 45.21875 56 50.046875 50.171875 
Q 54.890625 44.34375 54.890625 33.015625 
z
" id="DejaVuSans-110"/>
     <path d="M 48.78125 52.59375 
L 48.78125 44.1875 
Q 44.96875 46.296875 41.140625 47.34375 
Q 37.3125 48.390625 33.40625 48.390625 
Q 24.65625 48.390625 19.8125 42.84375 
Q 14.984375 37.3125 14.984375 27.296875 
Q 14.984375 17.28125 19.8125 11.734375 
Q 24.65625 6.203125 33.40625 6.203125 
Q 37.3125 6.203125 41.140625 7.25 
Q 44.96875 8.296875 48.78125 10.40625 
L 48.78125 2.09375 
Q 45.015625 0.34375 40.984375 -0.53125 
Q 36.96875 -1.421875 32.421875 -1.421875 
Q 20.0625 -1.421875 12.78125 6.34375 
Q 5.515625 14.109375 5.515625 27.296875 
Q 5.515625 40.671875 12.859375 48.328125 
Q 20.21875 56 33.015625 56 
Q 37.15625 56 41.109375 55.140625 
Q 45.0625 54.296875 48.78125 52.59375 
z
" id="DejaVuSans-99"/>
     <path d="M 18.3125 70.21875 
L 18.3125 54.6875 
L 36.8125 54.6875 
L 36.8125 47.703125 
L 18.3125 47.703125 
L 18.3125 18.015625 
Q 18.3125 11.328125 20.140625 9.421875 
Q 21.96875 7.515625 27.59375 7.515625 
L 36.8125 7.515625 
L 36.8125 0 
L 27.59375 0 
Q 17.1875 0 13.234375 3.875 
Q 9.28125 7.765625 9.28125 18.015625 
L 9.28125 47.703125 
L 2.6875 47.703125 
L 2.6875 54.6875 
L 9.28125 54.6875 
L 9.28125 70.21875 
z
" id="DejaVuSans-116"/>
     <path d="M 9.421875 54.6875 
L 18.40625 54.6875 
L 18.40625 0 
L 9.421875 0 
z
M 9.421875 75.984375 
L 18.40625 75.984375 
L 18.40625 64.59375 
L 9.421875 64.59375 
z
" id="DejaVuSans-105"/>
     <path d="M 30.609375 48.390625 
Q 23.390625 48.390625 19.1875 42.75 
Q 14.984375 37.109375 14.984375 27.296875 
Q 14.984375 17.484375 19.15625 11.84375 
Q 23.34375 6.203125 30.609375 6.203125 
Q 37.796875 6.203125 41.984375 11.859375 
Q 46.1875 17.53125 46.1875 27.296875 
Q 46.1875 37.015625 41.984375 42.703125 
Q 37.796875 48.390625 30.609375 48.390625 
z
M 30.609375 56 
Q 42.328125 56 49.015625 48.375 
Q 55.71875 40.765625 55.71875 27.296875 
Q 55.71875 13.875 49.015625 6.21875 
Q 42.328125 -1.421875 30.609375 -1.421875 
Q 18.84375 -1.421875 12.171875 6.21875 
Q 5.515625 13.875 5.515625 27.296875 
Q 5.515625 40.765625 12.171875 48.375 
Q 18.84375 56 30.609375 56 
z
" id="DejaVuSans-111"/>
     <path d="M 45.40625 27.984375 
Q 45.40625 37.75 41.375 43.109375 
Q 37.359375 48.484375 30.078125 48.484375 
Q 22.859375 48.484375 18.828125 43.109375 
Q 14.796875 37.75 14.796875 27.984375 
Q 14.796875 18.265625 18.828125 12.890625 
Q 22.859375 7.515625 30.078125 7.515625 
Q 37.359375 7.515625 41.375 12.890625 
Q 45.40625 18.265625 45.40625 27.984375 
z
M 54.390625 6.78125 
Q 54.390625 -7.171875 48.1875 -13.984375 
Q 42 -20.796875 29.203125 -20.796875 
Q 24.46875 -20.796875 20.265625 -20.09375 
Q 16.0625 -19.390625 12.109375 -17.921875 
L 12.109375 -9.1875 
Q 16.0625 -11.328125 19.921875 -12.34375 
Q 23.78125 -13.375 27.78125 -13.375 
Q 36.625 -13.375 41.015625 -8.765625 
Q 45.40625 -4.15625 45.40625 5.171875 
L 45.40625 9.625 
Q 42.625 4.78125 38.28125 2.390625 
Q 33.9375 0 27.875 0 
Q 17.828125 0 11.671875 7.65625 
Q 5.515625 15.328125 5.515625 27.984375 
Q 5.515625 40.671875 11.671875 48.328125 
Q 17.828125 56 27.875 56 
Q 33.9375 56 38.28125 53.609375 
Q 42.625 51.21875 45.40625 46.390625 
L 45.40625 54.6875 
L 54.390625 54.6875 
z
" id="DejaVuSans-103"/>
    </defs>
    <g transform="translate(181.680937 35.472)scale(0.12 -0.12)">
     <use xlink:href="#DejaVuSans-70"/>
     <use x="57.441406" xlink:href="#DejaVuSans-117"/>
     <use x="120.820312" xlink:href="#DejaVuSans-110"/>
     <use x="184.199219" xlink:href="#DejaVuSans-99"/>
     <use x="239.179688" xlink:href="#DejaVuSans-116"/>
     <use x="278.388672" xlink:href="#DejaVuSans-105"/>
     <use x="306.171875" xlink:href="#DejaVuSans-111"/>
     <use x="367.353516" xlink:href="#DejaVuSans-110"/>
     <use x="430.732422" xlink:href="#DejaVuSans-70"/>
     <use x="488.142578" xlink:href="#DejaVuSans-105"/>
     <use x="515.925781" xlink:href="#DejaVuSans-116"/>
     <use x="555.134766" xlink:href="#DejaVuSans-116"/>
     <use x="594.34375" xlink:href="#DejaVuSans-105"/>
     <use x="622.126953" xlink:href="#DejaVuSans-110"/>
     <use x="685.505859" xlink:href="#DejaVuSans-103"/>
     <use x="748.982422" xlink:href="#DejaVuSans-32"/>
     <use x="780.769531" xlink:href="#DejaVuSans-50"/>
     <use x="844.392578" xlink:href="#DejaVuSans-51"/>
    </g>
   </g>
   <g id="legend_1">
    <g id="patch_7">
     <path d="M 299.83875 78.82825 
L 407.72 78.82825 
Q 409.72 78.82825 409.72 76.82825 
L 409.72 48.472 
Q 409.72 46.472 407.72 46.472 
L 299.83875 46.472 
Q 297.83875 46.472 297.83875 48.472 
L 297.83875 76.82825 
Q 297.83875 78.82825 299.83875 78.82825 
z
" style="fill:#ffffff;opacity:0.8;stroke:#cccccc;stroke-linejoin:miter;"/>
    </g>
    <g id="line2d_16"/>
    <g id="line2d_17">
     <g>
      <use style="fill:#ff0000;stroke:#ff0000;" x="311.83875" xlink:href="#m1f29a9b563" y="54.570437"/>
     </g>
    </g>
    <g id="text_17">
     <!-- measured data -->
     <defs>
      <path d="M 52 44.1875 
Q 55.375 50.25 60.0625 53.125 
Q 64.75 56 71.09375 56 
Q 79.640625 56 84.28125 50.015625 
Q 88.921875 44.046875 88.921875 33.015625 
L 88.921875 0 
L 79.890625 0 
L 79.890625 32.71875 
Q 79.890625 40.578125 77.09375 44.375 
Q 74.3125 48.1875 68.609375 48.1875 
Q 61.625 48.1875 57.5625 43.546875 
Q 53.515625 38.921875 53.515625 30.90625 
L 53.515625 0 
L 44.484375 0 
L 44.484375 32.71875 
Q 44.484375 40.625 41.703125 44.40625 
Q 38.921875 48.1875 33.109375 48.1875 
Q 26.21875 48.1875 22.15625 43.53125 
Q 18.109375 38.875 18.109375 30.90625 
L 18.109375 0 
L 9.078125 0 
L 9.078125 54.6875 
L 18.109375 54.6875 
L 18.109375 46.1875 
Q 21.1875 51.21875 25.484375 53.609375 
Q 29.78125 56 35.6875 56 
Q 41.65625 56 45.828125 52.96875 
Q 50 49.953125 52 44.1875 
z
" id="DejaVuSans-109"/>
      <path d="M 41.109375 46.296875 
Q 39.59375 47.171875 37.8125 47.578125 
Q 36.03125 48 33.890625 48 
Q 26.265625 48 22.1875 43.046875 
Q 18.109375 38.09375 18.109375 28.8125 
L 18.109375 0 
L 9.078125 0 
L 9.078125 54.6875 
L 18.109375 54.6875 
L 18.109375 46.1875 
Q 20.953125 51.171875 25.484375 53.578125 
Q 30.03125 56 36.53125 56 
Q 37.453125 56 38.578125 55.875 
Q 39.703125 55.765625 41.0625 55.515625 
z
" id="DejaVuSans-114"/>
      <path d="M 45.40625 46.390625 
L 45.40625 75.984375 
L 54.390625 75.984375 
L 54.390625 0 
L 45.40625 0 
L 45.40625 8.203125 
Q 42.578125 3.328125 38.25 0.953125 
Q 33.9375 -1.421875 27.875 -1.421875 
Q 17.96875 -1.421875 11.734375 6.484375 
Q 5.515625 14.40625 5.515625 27.296875 
Q 5.515625 40.1875 11.734375 48.09375 
Q 17.96875 56 27.875 56 
Q 33.9375 56 38.25 53.625 
Q 42.578125 51.265625 45.40625 46.390625 
z
M 14.796875 27.296875 
Q 14.796875 17.390625 18.875 11.75 
Q 22.953125 6.109375 30.078125 6.109375 
Q 37.203125 6.109375 41.296875 11.75 
Q 45.40625 17.390625 45.40625 27.296875 
Q 45.40625 37.203125 41.296875 42.84375 
Q 37.203125 48.484375 30.078125 48.484375 
Q 22.953125 48.484375 18.875 42.84375 
Q 14.796875 37.203125 14.796875 27.296875 
z
" id="DejaVuSans-100"/>
     </defs>
     <g transform="translate(329.83875 58.070437)scale(0.1 -0.1)">
      <use xlink:href="#DejaVuSans-109"/>
      <use x="97.412109" xlink:href="#DejaVuSans-101"/>
      <use x="158.935547" xlink:href="#DejaVuSans-97"/>
      <use x="220.214844" xlink:href="#DejaVuSans-115"/>
      <use x="272.314453" xlink:href="#DejaVuSans-117"/>
      <use x="335.693359" xlink:href="#DejaVuSans-114"/>
      <use x="376.775391" xlink:href="#DejaVuSans-101"/>
      <use x="438.298828" xlink:href="#DejaVuSans-100"/>
      <use x="501.775391" xlink:href="#DejaVuSans-32"/>
      <use x="533.5625" xlink:href="#DejaVuSans-100"/>
      <use x="597.039062" xlink:href="#DejaVuSans-97"/>
      <use x="658.318359" xlink:href="#DejaVuSans-116"/>
      <use x="697.527344" xlink:href="#DejaVuSans-97"/>
     </g>
    </g>
    <g id="line2d_18">
     <path d="M 301.83875 69.248562 
L 321.83875 69.248562 
" style="fill:none;stroke:#008000;stroke-linecap:square;stroke-width:1.5;"/>
    </g>
    <g id="line2d_19"/>
    <g id="text_18">
     <!-- linear data -->
     <g transform="translate(329.83875 72.748562)scale(0.1 -0.1)">
      <use xlink:href="#DejaVuSans-108"/>
      <use x="27.783203" xlink:href="#DejaVuSans-105"/>
      <use x="55.566406" xlink:href="#DejaVuSans-110"/>
      <use x="118.945312" xlink:href="#DejaVuSans-101"/>
      <use x="180.46875" xlink:href="#DejaVuSans-97"/>
      <use x="241.748047" xlink:href="#DejaVuSans-114"/>
      <use x="282.861328" xlink:href="#DejaVuSans-32"/>
      <use x="314.648438" xlink:href="#DejaVuSans-100"/>
      <use x="378.125" xlink:href="#DejaVuSans-97"/>
      <use x="439.404297" xlink:href="#DejaVuSans-116"/>
      <use x="478.613281" xlink:href="#DejaVuSans-97"/>
     </g>
    </g>
   </g>
  </g>
 </g>
 <defs>
  <clipPath id="p9f357fd3cd">
   <rect height="266.112" width="357.12" x="57.6" y="41.472"/>
  </clipPath>
 </defs>
</svg>
