<?xml version="1.0" encoding="utf-8" standalone="no"?>
<!DOCTYPE svg PUBLIC "-//W3C//DTD SVG 1.1//EN"
  "http://www.w3.org/Graphics/SVG/1.1/DTD/svg11.dtd">
<!-- Created with matplotlib (https://matplotlib.org/) -->
<svg height="345.6pt" version="1.1" viewBox="0 0 460.8 345.6" width="460.8pt" xmlns="http://www.w3.org/2000/svg" xmlns:xlink="http://www.w3.org/1999/xlink">
 <defs>
  <style type="text/css">
*{stroke-linecap:butt;stroke-linejoin:round;}
  </style>
 </defs>
 <g id="figure_1">
  <g id="patch_1">
   <path d="M 0 345.6 
L 460.8 345.6 
L 460.8 0 
L 0 0 
z
" style="fill:#ffffff;"/>
  </g>
  <g id="axes_1">
   <g id="patch_2">
    <path d="M 57.6 307.584 
L 414.72 307.584 
L 414.72 41.472 
L 57.6 41.472 
z
" style="fill:#ffffff;"/>
   </g>
   <g id="matplotlib.axis_1">
    <g id="xtick_1">
     <g id="line2d_1">
      <defs>
       <path d="M 0 0 
L 0 3.5 
" id="maa080fb25e" style="stroke:#000000;stroke-width:0.8;"/>
      </defs>
      <g>
       <use style="stroke:#000000;stroke-width:0.8;" x="85.072425" xlink:href="#maa080fb25e" y="307.584"/>
      </g>
     </g>
     <g id="text_1">
      <!-- 10 -->
      <defs>
       <path d="M 12.40625 8.296875 
L 28.515625 8.296875 
L 28.515625 63.921875 
L 10.984375 60.40625 
L 10.984375 69.390625 
L 28.421875 72.90625 
L 38.28125 72.90625 
L 38.28125 8.296875 
L 54.390625 8.296875 
L 54.390625 0 
L 12.40625 0 
z
" id="DejaVuSans-49"/>
       <path d="M 31.78125 66.40625 
Q 24.171875 66.40625 20.328125 58.90625 
Q 16.5 51.421875 16.5 36.375 
Q 16.5 21.390625 20.328125 13.890625 
Q 24.171875 6.390625 31.78125 6.390625 
Q 39.453125 6.390625 43.28125 13.890625 
Q 47.125 21.390625 47.125 36.375 
Q 47.125 51.421875 43.28125 58.90625 
Q 39.453125 66.40625 31.78125 66.40625 
z
M 31.78125 74.21875 
Q 44.046875 74.21875 50.515625 64.515625 
Q 56.984375 54.828125 56.984375 36.375 
Q 56.984375 17.96875 50.515625 8.265625 
Q 44.046875 -1.421875 31.78125 -1.421875 
Q 19.53125 -1.421875 13.0625 8.265625 
Q 6.59375 17.96875 6.59375 36.375 
Q 6.59375 54.828125 13.0625 64.515625 
Q 19.53125 74.21875 31.78125 74.21875 
z
" id="DejaVuSans-48"/>
      </defs>
      <g transform="translate(78.709925 322.182437)scale(0.1 -0.1)">
       <use xlink:href="#DejaVuSans-49"/>
       <use x="63.623047" xlink:href="#DejaVuSans-48"/>
      </g>
     </g>
    </g>
    <g id="xtick_2">
     <g id="line2d_2">
      <g>
       <use style="stroke:#000000;stroke-width:0.8;" x="127.789478" xlink:href="#maa080fb25e" y="307.584"/>
      </g>
     </g>
     <g id="text_2">
      <!-- 20 -->
      <defs>
       <path d="M 19.1875 8.296875 
L 53.609375 8.296875 
L 53.609375 0 
L 7.328125 0 
L 7.328125 8.296875 
Q 12.9375 14.109375 22.625 23.890625 
Q 32.328125 33.6875 34.8125 36.53125 
Q 39.546875 41.84375 41.421875 45.53125 
Q 43.3125 49.21875 43.3125 52.78125 
Q 43.3125 58.59375 39.234375 62.25 
Q 35.15625 65.921875 28.609375 65.921875 
Q 23.96875 65.921875 18.8125 64.3125 
Q 13.671875 62.703125 7.8125 59.421875 
L 7.8125 69.390625 
Q 13.765625 71.78125 18.9375 73 
Q 24.125 74.21875 28.421875 74.21875 
Q 39.75 74.21875 46.484375 68.546875 
Q 53.21875 62.890625 53.21875 53.421875 
Q 53.21875 48.921875 51.53125 44.890625 
Q 49.859375 40.875 45.40625 35.40625 
Q 44.1875 33.984375 37.640625 27.21875 
Q 31.109375 20.453125 19.1875 8.296875 
z
" id="DejaVuSans-50"/>
      </defs>
      <g transform="translate(121.426978 322.182437)scale(0.1 -0.1)">
       <use xlink:href="#DejaVuSans-50"/>
       <use x="63.623047" xlink:href="#DejaVuSans-48"/>
      </g>
     </g>
    </g>
    <g id="xtick_3">
     <g id="line2d_3">
      <g>
       <use style="stroke:#000000;stroke-width:0.8;" x="170.506532" xlink:href="#maa080fb25e" y="307.584"/>
      </g>
     </g>
     <g id="text_3">
      <!-- 30 -->
      <defs>
       <path d="M 40.578125 39.3125 
Q 47.65625 37.796875 51.625 33 
Q 55.609375 28.21875 55.609375 21.1875 
Q 55.609375 10.40625 48.1875 4.484375 
Q 40.765625 -1.421875 27.09375 -1.421875 
Q 22.515625 -1.421875 17.65625 -0.515625 
Q 12.796875 0.390625 7.625 2.203125 
L 7.625 11.71875 
Q 11.71875 9.328125 16.59375 8.109375 
Q 21.484375 6.890625 26.8125 6.890625 
Q 36.078125 6.890625 40.9375 10.546875 
Q 45.796875 14.203125 45.796875 21.1875 
Q 45.796875 27.640625 41.28125 31.265625 
Q 36.765625 34.90625 28.71875 34.90625 
L 20.21875 34.90625 
L 20.21875 43.015625 
L 29.109375 43.015625 
Q 36.375 43.015625 40.234375 45.921875 
Q 44.09375 48.828125 44.09375 54.296875 
Q 44.09375 59.90625 40.109375 62.90625 
Q 36.140625 65.921875 28.71875 65.921875 
Q 24.65625 65.921875 20.015625 65.03125 
Q 15.375 64.15625 9.8125 62.3125 
L 9.8125 71.09375 
Q 15.4375 72.65625 20.34375 73.4375 
Q 25.25 74.21875 29.59375 74.21875 
Q 40.828125 74.21875 47.359375 69.109375 
Q 53.90625 64.015625 53.90625 55.328125 
Q 53.90625 49.265625 50.4375 45.09375 
Q 46.96875 40.921875 40.578125 39.3125 
z
" id="DejaVuSans-51"/>
      </defs>
      <g transform="translate(164.144032 322.182437)scale(0.1 -0.1)">
       <use xlink:href="#DejaVuSans-51"/>
       <use x="63.623047" xlink:href="#DejaVuSans-48"/>
      </g>
     </g>
    </g>
    <g id="xtick_4">
     <g id="line2d_4">
      <g>
       <use style="stroke:#000000;stroke-width:0.8;" x="213.223585" xlink:href="#maa080fb25e" y="307.584"/>
      </g>
     </g>
     <g id="text_4">
      <!-- 40 -->
      <defs>
       <path d="M 37.796875 64.3125 
L 12.890625 25.390625 
L 37.796875 25.390625 
z
M 35.203125 72.90625 
L 47.609375 72.90625 
L 47.609375 25.390625 
L 58.015625 25.390625 
L 58.015625 17.1875 
L 47.609375 17.1875 
L 47.609375 0 
L 37.796875 0 
L 37.796875 17.1875 
L 4.890625 17.1875 
L 4.890625 26.703125 
z
" id="DejaVuSans-52"/>
      </defs>
      <g transform="translate(206.861085 322.182437)scale(0.1 -0.1)">
       <use xlink:href="#DejaVuSans-52"/>
       <use x="63.623047" xlink:href="#DejaVuSans-48"/>
      </g>
     </g>
    </g>
    <g id="xtick_5">
     <g id="line2d_5">
      <g>
       <use style="stroke:#000000;stroke-width:0.8;" x="255.940639" xlink:href="#maa080fb25e" y="307.584"/>
      </g>
     </g>
     <g id="text_5">
      <!-- 50 -->
      <defs>
       <path d="M 10.796875 72.90625 
L 49.515625 72.90625 
L 49.515625 64.59375 
L 19.828125 64.59375 
L 19.828125 46.734375 
Q 21.96875 47.46875 24.109375 47.828125 
Q 26.265625 48.1875 28.421875 48.1875 
Q 40.625 48.1875 47.75 41.5 
Q 54.890625 34.8125 54.890625 23.390625 
Q 54.890625 11.625 47.5625 5.09375 
Q 40.234375 -1.421875 26.90625 -1.421875 
Q 22.3125 -1.421875 17.546875 -0.640625 
Q 12.796875 0.140625 7.71875 1.703125 
L 7.71875 11.625 
Q 12.109375 9.234375 16.796875 8.0625 
Q 21.484375 6.890625 26.703125 6.890625 
Q 35.15625 6.890625 40.078125 11.328125 
Q 45.015625 15.765625 45.015625 23.390625 
Q 45.015625 31 40.078125 35.4375 
Q 35.15625 39.890625 26.703125 39.890625 
Q 22.75 39.890625 18.8125 39.015625 
Q 14.890625 38.140625 10.796875 36.28125 
z
" id="DejaVuSans-53"/>
      </defs>
      <g transform="translate(249.578139 322.182437)scale(0.1 -0.1)">
       <use xlink:href="#DejaVuSans-53"/>
       <use x="63.623047" xlink:href="#DejaVuSans-48"/>
      </g>
     </g>
    </g>
    <g id="xtick_6">
     <g id="line2d_6">
      <g>
       <use style="stroke:#000000;stroke-width:0.8;" x="298.657692" xlink:href="#maa080fb25e" y="307.584"/>
      </g>
     </g>
     <g id="text_6">
      <!-- 60 -->
      <defs>
       <path d="M 33.015625 40.375 
Q 26.375 40.375 22.484375 35.828125 
Q 18.609375 31.296875 18.609375 23.390625 
Q 18.609375 15.53125 22.484375 10.953125 
Q 26.375 6.390625 33.015625 6.390625 
Q 39.65625 6.390625 43.53125 10.953125 
Q 47.40625 15.53125 47.40625 23.390625 
Q 47.40625 31.296875 43.53125 35.828125 
Q 39.65625 40.375 33.015625 40.375 
z
M 52.59375 71.296875 
L 52.59375 62.3125 
Q 48.875 64.0625 45.09375 64.984375 
Q 41.3125 65.921875 37.59375 65.921875 
Q 27.828125 65.921875 22.671875 59.328125 
Q 17.53125 52.734375 16.796875 39.40625 
Q 19.671875 43.65625 24.015625 45.921875 
Q 28.375 48.1875 33.59375 48.1875 
Q 44.578125 48.1875 50.953125 41.515625 
Q 57.328125 34.859375 57.328125 23.390625 
Q 57.328125 12.15625 50.6875 5.359375 
Q 44.046875 -1.421875 33.015625 -1.421875 
Q 20.359375 -1.421875 13.671875 8.265625 
Q 6.984375 17.96875 6.984375 36.375 
Q 6.984375 53.65625 15.1875 63.9375 
Q 23.390625 74.21875 37.203125 74.21875 
Q 40.921875 74.21875 44.703125 73.484375 
Q 48.484375 72.75 52.59375 71.296875 
z
" id="DejaVuSans-54"/>
      </defs>
      <g transform="translate(292.295192 322.182437)scale(0.1 -0.1)">
       <use xlink:href="#DejaVuSans-54"/>
       <use x="63.623047" xlink:href="#DejaVuSans-48"/>
      </g>
     </g>
    </g>
    <g id="xtick_7">
     <g id="line2d_7">
      <g>
       <use style="stroke:#000000;stroke-width:0.8;" x="341.374746" xlink:href="#maa080fb25e" y="307.584"/>
      </g>
     </g>
     <g id="text_7">
      <!-- 70 -->
      <defs>
       <path d="M 8.203125 72.90625 
L 55.078125 72.90625 
L 55.078125 68.703125 
L 28.609375 0 
L 18.3125 0 
L 43.21875 64.59375 
L 8.203125 64.59375 
z
" id="DejaVuSans-55"/>
      </defs>
      <g transform="translate(335.012246 322.182437)scale(0.1 -0.1)">
       <use xlink:href="#DejaVuSans-55"/>
       <use x="63.623047" xlink:href="#DejaVuSans-48"/>
      </g>
     </g>
    </g>
    <g id="xtick_8">
     <g id="line2d_8">
      <g>
       <use style="stroke:#000000;stroke-width:0.8;" x="384.091799" xlink:href="#maa080fb25e" y="307.584"/>
      </g>
     </g>
     <g id="text_8">
      <!-- 80 -->
      <defs>
       <path d="M 31.78125 34.625 
Q 24.75 34.625 20.71875 30.859375 
Q 16.703125 27.09375 16.703125 20.515625 
Q 16.703125 13.921875 20.71875 10.15625 
Q 24.75 6.390625 31.78125 6.390625 
Q 38.8125 6.390625 42.859375 10.171875 
Q 46.921875 13.96875 46.921875 20.515625 
Q 46.921875 27.09375 42.890625 30.859375 
Q 38.875 34.625 31.78125 34.625 
z
M 21.921875 38.8125 
Q 15.578125 40.375 12.03125 44.71875 
Q 8.5 49.078125 8.5 55.328125 
Q 8.5 64.0625 14.71875 69.140625 
Q 20.953125 74.21875 31.78125 74.21875 
Q 42.671875 74.21875 48.875 69.140625 
Q 55.078125 64.0625 55.078125 55.328125 
Q 55.078125 49.078125 51.53125 44.71875 
Q 48 40.375 41.703125 38.8125 
Q 48.828125 37.15625 52.796875 32.3125 
Q 56.78125 27.484375 56.78125 20.515625 
Q 56.78125 9.90625 50.3125 4.234375 
Q 43.84375 -1.421875 31.78125 -1.421875 
Q 19.734375 -1.421875 13.25 4.234375 
Q 6.78125 9.90625 6.78125 20.515625 
Q 6.78125 27.484375 10.78125 32.3125 
Q 14.796875 37.15625 21.921875 38.8125 
z
M 18.3125 54.390625 
Q 18.3125 48.734375 21.84375 45.5625 
Q 25.390625 42.390625 31.78125 42.390625 
Q 38.140625 42.390625 41.71875 45.5625 
Q 45.3125 48.734375 45.3125 54.390625 
Q 45.3125 60.0625 41.71875 63.234375 
Q 38.140625 66.40625 31.78125 66.40625 
Q 25.390625 66.40625 21.84375 63.234375 
Q 18.3125 60.0625 18.3125 54.390625 
z
" id="DejaVuSans-56"/>
      </defs>
      <g transform="translate(377.729299 322.182437)scale(0.1 -0.1)">
       <use xlink:href="#DejaVuSans-56"/>
       <use x="63.623047" xlink:href="#DejaVuSans-48"/>
      </g>
     </g>
    </g>
    <g id="text_9">
     <!-- x values -->
     <defs>
      <path d="M 54.890625 54.6875 
L 35.109375 28.078125 
L 55.90625 0 
L 45.3125 0 
L 29.390625 21.484375 
L 13.484375 0 
L 2.875 0 
L 24.125 28.609375 
L 4.6875 54.6875 
L 15.28125 54.6875 
L 29.78125 35.203125 
L 44.28125 54.6875 
z
" id="DejaVuSans-120"/>
      <path id="DejaVuSans-32"/>
      <path d="M 2.984375 54.6875 
L 12.5 54.6875 
L 29.59375 8.796875 
L 46.6875 54.6875 
L 56.203125 54.6875 
L 35.6875 0 
L 23.484375 0 
z
" id="DejaVuSans-118"/>
      <path d="M 34.28125 27.484375 
Q 23.390625 27.484375 19.1875 25 
Q 14.984375 22.515625 14.984375 16.5 
Q 14.984375 11.71875 18.140625 8.90625 
Q 21.296875 6.109375 26.703125 6.109375 
Q 34.1875 6.109375 38.703125 11.40625 
Q 43.21875 16.703125 43.21875 25.484375 
L 43.21875 27.484375 
z
M 52.203125 31.203125 
L 52.203125 0 
L 43.21875 0 
L 43.21875 8.296875 
Q 40.140625 3.328125 35.546875 0.953125 
Q 30.953125 -1.421875 24.3125 -1.421875 
Q 15.921875 -1.421875 10.953125 3.296875 
Q 6 8.015625 6 15.921875 
Q 6 25.140625 12.171875 29.828125 
Q 18.359375 34.515625 30.609375 34.515625 
L 43.21875 34.515625 
L 43.21875 35.40625 
Q 43.21875 41.609375 39.140625 45 
Q 35.0625 48.390625 27.6875 48.390625 
Q 23 48.390625 18.546875 47.265625 
Q 14.109375 46.140625 10.015625 43.890625 
L 10.015625 52.203125 
Q 14.9375 54.109375 19.578125 55.046875 
Q 24.21875 56 28.609375 56 
Q 40.484375 56 46.34375 49.84375 
Q 52.203125 43.703125 52.203125 31.203125 
z
" id="DejaVuSans-97"/>
      <path d="M 9.421875 75.984375 
L 18.40625 75.984375 
L 18.40625 0 
L 9.421875 0 
z
" id="DejaVuSans-108"/>
      <path d="M 8.5 21.578125 
L 8.5 54.6875 
L 17.484375 54.6875 
L 17.484375 21.921875 
Q 17.484375 14.15625 20.5 10.265625 
Q 23.53125 6.390625 29.59375 6.390625 
Q 36.859375 6.390625 41.078125 11.03125 
Q 45.3125 15.671875 45.3125 23.6875 
L 45.3125 54.6875 
L 54.296875 54.6875 
L 54.296875 0 
L 45.3125 0 
L 45.3125 8.40625 
Q 42.046875 3.421875 37.71875 1 
Q 33.40625 -1.421875 27.6875 -1.421875 
Q 18.265625 -1.421875 13.375 4.4375 
Q 8.5 10.296875 8.5 21.578125 
z
M 31.109375 56 
z
" id="DejaVuSans-117"/>
      <path d="M 56.203125 29.59375 
L 56.203125 25.203125 
L 14.890625 25.203125 
Q 15.484375 15.921875 20.484375 11.0625 
Q 25.484375 6.203125 34.421875 6.203125 
Q 39.59375 6.203125 44.453125 7.46875 
Q 49.3125 8.734375 54.109375 11.28125 
L 54.109375 2.78125 
Q 49.265625 0.734375 44.1875 -0.34375 
Q 39.109375 -1.421875 33.890625 -1.421875 
Q 20.796875 -1.421875 13.15625 6.1875 
Q 5.515625 13.8125 5.515625 26.8125 
Q 5.515625 40.234375 12.765625 48.109375 
Q 20.015625 56 32.328125 56 
Q 43.359375 56 49.78125 48.890625 
Q 56.203125 41.796875 56.203125 29.59375 
z
M 47.21875 32.234375 
Q 47.125 39.59375 43.09375 43.984375 
Q 39.0625 48.390625 32.421875 48.390625 
Q 24.90625 48.390625 20.390625 44.140625 
Q 15.875 39.890625 15.1875 32.171875 
z
" id="DejaVuSans-101"/>
      <path d="M 44.28125 53.078125 
L 44.28125 44.578125 
Q 40.484375 46.53125 36.375 47.5 
Q 32.28125 48.484375 27.875 48.484375 
Q 21.1875 48.484375 17.84375 46.4375 
Q 14.5 44.390625 14.5 40.28125 
Q 14.5 37.15625 16.890625 35.375 
Q 19.28125 33.59375 26.515625 31.984375 
L 29.59375 31.296875 
Q 39.15625 29.25 43.1875 25.515625 
Q 47.21875 21.78125 47.21875 15.09375 
Q 47.21875 7.46875 41.1875 3.015625 
Q 35.15625 -1.421875 24.609375 -1.421875 
Q 20.21875 -1.421875 15.453125 -0.5625 
Q 10.6875 0.296875 5.421875 2 
L 5.421875 11.28125 
Q 10.40625 8.6875 15.234375 7.390625 
Q 20.0625 6.109375 24.8125 6.109375 
Q 31.15625 6.109375 34.5625 8.28125 
Q 37.984375 10.453125 37.984375 14.40625 
Q 37.984375 18.0625 35.515625 20.015625 
Q 33.0625 21.96875 24.703125 23.78125 
L 21.578125 24.515625 
Q 13.234375 26.265625 9.515625 29.90625 
Q 5.8125 33.546875 5.8125 39.890625 
Q 5.8125 47.609375 11.28125 51.796875 
Q 16.75 56 26.8125 56 
Q 31.78125 56 36.171875 55.265625 
Q 40.578125 54.546875 44.28125 53.078125 
z
" id="DejaVuSans-115"/>
     </defs>
     <g transform="translate(215.349063 335.860562)scale(0.1 -0.1)">
      <use xlink:href="#DejaVuSans-120"/>
      <use x="59.179688" xlink:href="#DejaVuSans-32"/>
      <use x="90.966797" xlink:href="#DejaVuSans-118"/>
      <use x="150.146484" xlink:href="#DejaVuSans-97"/>
      <use x="211.425781" xlink:href="#DejaVuSans-108"/>
      <use x="239.208984" xlink:href="#DejaVuSans-117"/>
      <use x="302.587891" xlink:href="#DejaVuSans-101"/>
      <use x="364.111328" xlink:href="#DejaVuSans-115"/>
     </g>
    </g>
   </g>
   <g id="matplotlib.axis_2">
    <g id="ytick_1">
     <g id="line2d_9">
      <defs>
       <path d="M 0 0 
L -3.5 0 
" id="mfc60a184d7" style="stroke:#000000;stroke-width:0.8;"/>
      </defs>
      <g>
       <use style="stroke:#000000;stroke-width:0.8;" x="57.6" xlink:href="#mfc60a184d7" y="288.391204"/>
      </g>
     </g>
     <g id="text_10">
      <!-- 0 -->
      <g transform="translate(44.2375 292.190423)scale(0.1 -0.1)">
       <use xlink:href="#DejaVuSans-48"/>
      </g>
     </g>
    </g>
    <g id="ytick_2">
     <g id="line2d_10">
      <g>
       <use style="stroke:#000000;stroke-width:0.8;" x="57.6" xlink:href="#mfc60a184d7" y="244.094104"/>
      </g>
     </g>
     <g id="text_11">
      <!-- 100 -->
      <g transform="translate(31.5125 247.893323)scale(0.1 -0.1)">
       <use xlink:href="#DejaVuSans-49"/>
       <use x="63.623047" xlink:href="#DejaVuSans-48"/>
       <use x="127.246094" xlink:href="#DejaVuSans-48"/>
      </g>
     </g>
    </g>
    <g id="ytick_3">
     <g id="line2d_11">
      <g>
       <use style="stroke:#000000;stroke-width:0.8;" x="57.6" xlink:href="#mfc60a184d7" y="199.797004"/>
      </g>
     </g>
     <g id="text_12">
      <!-- 200 -->
      <g transform="translate(31.5125 203.596223)scale(0.1 -0.1)">
       <use xlink:href="#DejaVuSans-50"/>
       <use x="63.623047" xlink:href="#DejaVuSans-48"/>
       <use x="127.246094" xlink:href="#DejaVuSans-48"/>
      </g>
     </g>
    </g>
    <g id="ytick_4">
     <g id="line2d_12">
      <g>
       <use style="stroke:#000000;stroke-width:0.8;" x="57.6" xlink:href="#mfc60a184d7" y="155.499904"/>
      </g>
     </g>
     <g id="text_13">
      <!-- 300 -->
      <g transform="translate(31.5125 159.299122)scale(0.1 -0.1)">
       <use xlink:href="#DejaVuSans-51"/>
       <use x="63.623047" xlink:href="#DejaVuSans-48"/>
       <use x="127.246094" xlink:href="#DejaVuSans-48"/>
      </g>
     </g>
    </g>
    <g id="ytick_5">
     <g id="line2d_13">
      <g>
       <use style="stroke:#000000;stroke-width:0.8;" x="57.6" xlink:href="#mfc60a184d7" y="111.202803"/>
      </g>
     </g>
     <g id="text_14">
      <!-- 400 -->
      <g transform="translate(31.5125 115.002022)scale(0.1 -0.1)">
       <use xlink:href="#DejaVuSans-52"/>
       <use x="63.623047" xlink:href="#DejaVuSans-48"/>
       <use x="127.246094" xlink:href="#DejaVuSans-48"/>
      </g>
     </g>
    </g>
    <g id="ytick_6">
     <g id="line2d_14">
      <g>
       <use style="stroke:#000000;stroke-width:0.8;" x="57.6" xlink:href="#mfc60a184d7" y="66.905703"/>
      </g>
     </g>
     <g id="text_15">
      <!-- 500 -->
      <g transform="translate(31.5125 70.704922)scale(0.1 -0.1)">
       <use xlink:href="#DejaVuSans-53"/>
       <use x="63.623047" xlink:href="#DejaVuSans-48"/>
       <use x="127.246094" xlink:href="#DejaVuSans-48"/>
      </g>
     </g>
    </g>
    <g id="text_16">
     <!-- y values -->
     <defs>
      <path d="M 32.171875 -5.078125 
Q 28.375 -14.84375 24.75 -17.8125 
Q 21.140625 -20.796875 15.09375 -20.796875 
L 7.90625 -20.796875 
L 7.90625 -13.28125 
L 13.1875 -13.28125 
Q 16.890625 -13.28125 18.9375 -11.515625 
Q 21 -9.765625 23.484375 -3.21875 
L 25.09375 0.875 
L 2.984375 54.6875 
L 12.5 54.6875 
L 29.59375 11.921875 
L 46.6875 54.6875 
L 56.203125 54.6875 
z
" id="DejaVuSans-121"/>
     </defs>
     <g transform="translate(25.432812 195.338937)rotate(-90)scale(0.1 -0.1)">
      <use xlink:href="#DejaVuSans-121"/>
      <use x="59.179688" xlink:href="#DejaVuSans-32"/>
      <use x="90.966797" xlink:href="#DejaVuSans-118"/>
      <use x="150.146484" xlink:href="#DejaVuSans-97"/>
      <use x="211.425781" xlink:href="#DejaVuSans-108"/>
      <use x="239.208984" xlink:href="#DejaVuSans-117"/>
      <use x="302.587891" xlink:href="#DejaVuSans-101"/>
      <use x="364.111328" xlink:href="#DejaVuSans-115"/>
     </g>
    </g>
   </g>
   <g id="line2d_15">
    <defs>
     <path d="M 0 1 
C 0.265203 1 0.51958 0.894634 0.707107 0.707107 
C 0.894634 0.51958 1 0.265203 1 0 
C 1 -0.265203 0.894634 -0.51958 0.707107 -0.707107 
C 0.51958 -0.894634 0.265203 -1 0 -1 
C -0.265203 -1 -0.51958 -0.894634 -0.707107 -0.707107 
C -0.894634 -0.51958 -1 -0.265203 -1 0 
C -1 0.265203 -0.894634 0.51958 -0.707107 0.707107 
C -0.51958 0.894634 -0.265203 1 0 1 
z
" id="m3b9a1c5c6e" style="stroke:#ff0000;"/>
    </defs>
    <g clip-path="url(#p958e1d8738)">
     <use style="fill:#ff0000;stroke:#ff0000;" x="73.832727" xlink:href="#m3b9a1c5c6e" y="97.183814"/>
     <use style="fill:#ff0000;stroke:#ff0000;" x="75.378701" xlink:href="#m3b9a1c5c6e" y="91.737626"/>
     <use style="fill:#ff0000;stroke:#ff0000;" x="76.924675" xlink:href="#m3b9a1c5c6e" y="53.568"/>
     <use style="fill:#ff0000;stroke:#ff0000;" x="78.470649" xlink:href="#m3b9a1c5c6e" y="54.413159"/>
     <use style="fill:#ff0000;stroke:#ff0000;" x="80.016623" xlink:href="#m3b9a1c5c6e" y="115.519079"/>
     <use style="fill:#ff0000;stroke:#ff0000;" x="81.562597" xlink:href="#m3b9a1c5c6e" y="101.993557"/>
     <use style="fill:#ff0000;stroke:#ff0000;" x="83.108571" xlink:href="#m3b9a1c5c6e" y="109.926019"/>
     <use style="fill:#ff0000;stroke:#ff0000;" x="84.654545" xlink:href="#m3b9a1c5c6e" y="109.692741"/>
     <use style="fill:#ff0000;stroke:#ff0000;" x="86.200519" xlink:href="#m3b9a1c5c6e" y="79.382283"/>
     <use style="fill:#ff0000;stroke:#ff0000;" x="87.746494" xlink:href="#m3b9a1c5c6e" y="136.155002"/>
     <use style="fill:#ff0000;stroke:#ff0000;" x="89.292468" xlink:href="#m3b9a1c5c6e" y="137.451253"/>
     <use style="fill:#ff0000;stroke:#ff0000;" x="90.838442" xlink:href="#m3b9a1c5c6e" y="146.784304"/>
     <use style="fill:#ff0000;stroke:#ff0000;" x="92.384416" xlink:href="#m3b9a1c5c6e" y="108.314913"/>
     <use style="fill:#ff0000;stroke:#ff0000;" x="93.93039" xlink:href="#m3b9a1c5c6e" y="104.264173"/>
     <use style="fill:#ff0000;stroke:#ff0000;" x="95.476364" xlink:href="#m3b9a1c5c6e" y="95.077219"/>
     <use style="fill:#ff0000;stroke:#ff0000;" x="97.022338" xlink:href="#m3b9a1c5c6e" y="134.911009"/>
     <use style="fill:#ff0000;stroke:#ff0000;" x="98.568312" xlink:href="#m3b9a1c5c6e" y="108.057629"/>
     <use style="fill:#ff0000;stroke:#ff0000;" x="100.114286" xlink:href="#m3b9a1c5c6e" y="157.292212"/>
     <use style="fill:#ff0000;stroke:#ff0000;" x="101.66026" xlink:href="#m3b9a1c5c6e" y="107.568831"/>
     <use style="fill:#ff0000;stroke:#ff0000;" x="103.206234" xlink:href="#m3b9a1c5c6e" y="105.45976"/>
     <use style="fill:#ff0000;stroke:#ff0000;" x="104.752208" xlink:href="#m3b9a1c5c6e" y="114.406388"/>
     <use style="fill:#ff0000;stroke:#ff0000;" x="106.298182" xlink:href="#m3b9a1c5c6e" y="127.170341"/>
     <use style="fill:#ff0000;stroke:#ff0000;" x="107.844156" xlink:href="#m3b9a1c5c6e" y="125.855601"/>
     <use style="fill:#ff0000;stroke:#ff0000;" x="109.39013" xlink:href="#m3b9a1c5c6e" y="119.34757"/>
     <use style="fill:#ff0000;stroke:#ff0000;" x="110.936104" xlink:href="#m3b9a1c5c6e" y="151.518399"/>
     <use style="fill:#ff0000;stroke:#ff0000;" x="112.482078" xlink:href="#m3b9a1c5c6e" y="111.900342"/>
     <use style="fill:#ff0000;stroke:#ff0000;" x="114.028052" xlink:href="#m3b9a1c5c6e" y="159.957504"/>
     <use style="fill:#ff0000;stroke:#ff0000;" x="115.574026" xlink:href="#m3b9a1c5c6e" y="158.080874"/>
     <use style="fill:#ff0000;stroke:#ff0000;" x="117.12" xlink:href="#m3b9a1c5c6e" y="168.26805"/>
     <use style="fill:#ff0000;stroke:#ff0000;" x="118.665974" xlink:href="#m3b9a1c5c6e" y="150.802439"/>
     <use style="fill:#ff0000;stroke:#ff0000;" x="120.211948" xlink:href="#m3b9a1c5c6e" y="111.901909"/>
     <use style="fill:#ff0000;stroke:#ff0000;" x="121.757922" xlink:href="#m3b9a1c5c6e" y="128.935175"/>
     <use style="fill:#ff0000;stroke:#ff0000;" x="123.303896" xlink:href="#m3b9a1c5c6e" y="164.865921"/>
     <use style="fill:#ff0000;stroke:#ff0000;" x="124.84987" xlink:href="#m3b9a1c5c6e" y="144.707579"/>
     <use style="fill:#ff0000;stroke:#ff0000;" x="126.395844" xlink:href="#m3b9a1c5c6e" y="133.441834"/>
     <use style="fill:#ff0000;stroke:#ff0000;" x="127.941818" xlink:href="#m3b9a1c5c6e" y="180.665893"/>
     <use style="fill:#ff0000;stroke:#ff0000;" x="129.487792" xlink:href="#m3b9a1c5c6e" y="166.381706"/>
     <use style="fill:#ff0000;stroke:#ff0000;" x="131.033766" xlink:href="#m3b9a1c5c6e" y="174.872896"/>
     <use style="fill:#ff0000;stroke:#ff0000;" x="132.57974" xlink:href="#m3b9a1c5c6e" y="160.224083"/>
     <use style="fill:#ff0000;stroke:#ff0000;" x="134.125714" xlink:href="#m3b9a1c5c6e" y="183.323901"/>
     <use style="fill:#ff0000;stroke:#ff0000;" x="135.671688" xlink:href="#m3b9a1c5c6e" y="164.304526"/>
     <use style="fill:#ff0000;stroke:#ff0000;" x="137.217662" xlink:href="#m3b9a1c5c6e" y="182.110163"/>
     <use style="fill:#ff0000;stroke:#ff0000;" x="138.763636" xlink:href="#m3b9a1c5c6e" y="170.101741"/>
     <use style="fill:#ff0000;stroke:#ff0000;" x="140.30961" xlink:href="#m3b9a1c5c6e" y="146.636767"/>
     <use style="fill:#ff0000;stroke:#ff0000;" x="141.855584" xlink:href="#m3b9a1c5c6e" y="185.649611"/>
     <use style="fill:#ff0000;stroke:#ff0000;" x="143.401558" xlink:href="#m3b9a1c5c6e" y="164.500206"/>
     <use style="fill:#ff0000;stroke:#ff0000;" x="144.947532" xlink:href="#m3b9a1c5c6e" y="170.011647"/>
     <use style="fill:#ff0000;stroke:#ff0000;" x="146.493506" xlink:href="#m3b9a1c5c6e" y="169.746215"/>
     <use style="fill:#ff0000;stroke:#ff0000;" x="148.039481" xlink:href="#m3b9a1c5c6e" y="166.924194"/>
     <use style="fill:#ff0000;stroke:#ff0000;" x="149.585455" xlink:href="#m3b9a1c5c6e" y="179.923934"/>
     <use style="fill:#ff0000;stroke:#ff0000;" x="151.131429" xlink:href="#m3b9a1c5c6e" y="192.392116"/>
     <use style="fill:#ff0000;stroke:#ff0000;" x="152.677403" xlink:href="#m3b9a1c5c6e" y="176.143068"/>
     <use style="fill:#ff0000;stroke:#ff0000;" x="154.223377" xlink:href="#m3b9a1c5c6e" y="169.669414"/>
     <use style="fill:#ff0000;stroke:#ff0000;" x="155.769351" xlink:href="#m3b9a1c5c6e" y="207.555951"/>
     <use style="fill:#ff0000;stroke:#ff0000;" x="157.315325" xlink:href="#m3b9a1c5c6e" y="177.699985"/>
     <use style="fill:#ff0000;stroke:#ff0000;" x="158.861299" xlink:href="#m3b9a1c5c6e" y="179.514431"/>
     <use style="fill:#ff0000;stroke:#ff0000;" x="160.407273" xlink:href="#m3b9a1c5c6e" y="179.253772"/>
     <use style="fill:#ff0000;stroke:#ff0000;" x="161.953247" xlink:href="#m3b9a1c5c6e" y="193.119214"/>
     <use style="fill:#ff0000;stroke:#ff0000;" x="163.499221" xlink:href="#m3b9a1c5c6e" y="219.987752"/>
     <use style="fill:#ff0000;stroke:#ff0000;" x="165.045195" xlink:href="#m3b9a1c5c6e" y="186.141181"/>
     <use style="fill:#ff0000;stroke:#ff0000;" x="166.591169" xlink:href="#m3b9a1c5c6e" y="198.329269"/>
     <use style="fill:#ff0000;stroke:#ff0000;" x="168.137143" xlink:href="#m3b9a1c5c6e" y="183.572412"/>
     <use style="fill:#ff0000;stroke:#ff0000;" x="169.683117" xlink:href="#m3b9a1c5c6e" y="205.545154"/>
     <use style="fill:#ff0000;stroke:#ff0000;" x="171.229091" xlink:href="#m3b9a1c5c6e" y="219.059479"/>
     <use style="fill:#ff0000;stroke:#ff0000;" x="172.775065" xlink:href="#m3b9a1c5c6e" y="188.498299"/>
     <use style="fill:#ff0000;stroke:#ff0000;" x="174.321039" xlink:href="#m3b9a1c5c6e" y="219.853799"/>
     <use style="fill:#ff0000;stroke:#ff0000;" x="175.867013" xlink:href="#m3b9a1c5c6e" y="200.995366"/>
     <use style="fill:#ff0000;stroke:#ff0000;" x="177.412987" xlink:href="#m3b9a1c5c6e" y="199.659925"/>
     <use style="fill:#ff0000;stroke:#ff0000;" x="178.958961" xlink:href="#m3b9a1c5c6e" y="218.159335"/>
     <use style="fill:#ff0000;stroke:#ff0000;" x="180.504935" xlink:href="#m3b9a1c5c6e" y="223.455048"/>
     <use style="fill:#ff0000;stroke:#ff0000;" x="182.050909" xlink:href="#m3b9a1c5c6e" y="228.740622"/>
     <use style="fill:#ff0000;stroke:#ff0000;" x="183.596883" xlink:href="#m3b9a1c5c6e" y="217.313084"/>
     <use style="fill:#ff0000;stroke:#ff0000;" x="185.142857" xlink:href="#m3b9a1c5c6e" y="197.3226"/>
     <use style="fill:#ff0000;stroke:#ff0000;" x="186.688831" xlink:href="#m3b9a1c5c6e" y="208.607805"/>
     <use style="fill:#ff0000;stroke:#ff0000;" x="188.234805" xlink:href="#m3b9a1c5c6e" y="218.685533"/>
     <use style="fill:#ff0000;stroke:#ff0000;" x="189.780779" xlink:href="#m3b9a1c5c6e" y="219.714495"/>
     <use style="fill:#ff0000;stroke:#ff0000;" x="191.326753" xlink:href="#m3b9a1c5c6e" y="200.522645"/>
     <use style="fill:#ff0000;stroke:#ff0000;" x="192.872727" xlink:href="#m3b9a1c5c6e" y="239.500887"/>
     <use style="fill:#ff0000;stroke:#ff0000;" x="194.418701" xlink:href="#m3b9a1c5c6e" y="230.302876"/>
     <use style="fill:#ff0000;stroke:#ff0000;" x="195.964675" xlink:href="#m3b9a1c5c6e" y="216.578339"/>
     <use style="fill:#ff0000;stroke:#ff0000;" x="197.510649" xlink:href="#m3b9a1c5c6e" y="228.270408"/>
     <use style="fill:#ff0000;stroke:#ff0000;" x="199.056623" xlink:href="#m3b9a1c5c6e" y="219.768352"/>
     <use style="fill:#ff0000;stroke:#ff0000;" x="200.602597" xlink:href="#m3b9a1c5c6e" y="238.481524"/>
     <use style="fill:#ff0000;stroke:#ff0000;" x="202.148571" xlink:href="#m3b9a1c5c6e" y="223.929685"/>
     <use style="fill:#ff0000;stroke:#ff0000;" x="203.694545" xlink:href="#m3b9a1c5c6e" y="246.220318"/>
     <use style="fill:#ff0000;stroke:#ff0000;" x="205.240519" xlink:href="#m3b9a1c5c6e" y="228.748355"/>
     <use style="fill:#ff0000;stroke:#ff0000;" x="206.786494" xlink:href="#m3b9a1c5c6e" y="235.722684"/>
     <use style="fill:#ff0000;stroke:#ff0000;" x="208.332468" xlink:href="#m3b9a1c5c6e" y="230.703011"/>
     <use style="fill:#ff0000;stroke:#ff0000;" x="209.878442" xlink:href="#m3b9a1c5c6e" y="224.530292"/>
     <use style="fill:#ff0000;stroke:#ff0000;" x="211.424416" xlink:href="#m3b9a1c5c6e" y="235.414783"/>
     <use style="fill:#ff0000;stroke:#ff0000;" x="212.97039" xlink:href="#m3b9a1c5c6e" y="215.548469"/>
     <use style="fill:#ff0000;stroke:#ff0000;" x="214.516364" xlink:href="#m3b9a1c5c6e" y="221.379202"/>
     <use style="fill:#ff0000;stroke:#ff0000;" x="216.062338" xlink:href="#m3b9a1c5c6e" y="245.123815"/>
     <use style="fill:#ff0000;stroke:#ff0000;" x="217.608312" xlink:href="#m3b9a1c5c6e" y="237.629282"/>
     <use style="fill:#ff0000;stroke:#ff0000;" x="219.154286" xlink:href="#m3b9a1c5c6e" y="238.703875"/>
     <use style="fill:#ff0000;stroke:#ff0000;" x="220.70026" xlink:href="#m3b9a1c5c6e" y="242.642894"/>
     <use style="fill:#ff0000;stroke:#ff0000;" x="222.246234" xlink:href="#m3b9a1c5c6e" y="240.026703"/>
     <use style="fill:#ff0000;stroke:#ff0000;" x="223.792208" xlink:href="#m3b9a1c5c6e" y="240.769589"/>
     <use style="fill:#ff0000;stroke:#ff0000;" x="225.338182" xlink:href="#m3b9a1c5c6e" y="233.613583"/>
     <use style="fill:#ff0000;stroke:#ff0000;" x="226.884156" xlink:href="#m3b9a1c5c6e" y="240.536884"/>
     <use style="fill:#ff0000;stroke:#ff0000;" x="228.43013" xlink:href="#m3b9a1c5c6e" y="244.862588"/>
     <use style="fill:#ff0000;stroke:#ff0000;" x="229.976104" xlink:href="#m3b9a1c5c6e" y="248.27285"/>
     <use style="fill:#ff0000;stroke:#ff0000;" x="231.522078" xlink:href="#m3b9a1c5c6e" y="230.404871"/>
     <use style="fill:#ff0000;stroke:#ff0000;" x="233.068052" xlink:href="#m3b9a1c5c6e" y="242.275677"/>
     <use style="fill:#ff0000;stroke:#ff0000;" x="234.614026" xlink:href="#m3b9a1c5c6e" y="258.198052"/>
     <use style="fill:#ff0000;stroke:#ff0000;" x="236.16" xlink:href="#m3b9a1c5c6e" y="240.062484"/>
     <use style="fill:#ff0000;stroke:#ff0000;" x="237.705974" xlink:href="#m3b9a1c5c6e" y="244.181587"/>
     <use style="fill:#ff0000;stroke:#ff0000;" x="239.251948" xlink:href="#m3b9a1c5c6e" y="244.787437"/>
     <use style="fill:#ff0000;stroke:#ff0000;" x="240.797922" xlink:href="#m3b9a1c5c6e" y="249.915686"/>
     <use style="fill:#ff0000;stroke:#ff0000;" x="242.343896" xlink:href="#m3b9a1c5c6e" y="262.766609"/>
     <use style="fill:#ff0000;stroke:#ff0000;" x="243.88987" xlink:href="#m3b9a1c5c6e" y="269.255618"/>
     <use style="fill:#ff0000;stroke:#ff0000;" x="245.435844" xlink:href="#m3b9a1c5c6e" y="246.016011"/>
     <use style="fill:#ff0000;stroke:#ff0000;" x="246.981818" xlink:href="#m3b9a1c5c6e" y="249.554155"/>
     <use style="fill:#ff0000;stroke:#ff0000;" x="248.527792" xlink:href="#m3b9a1c5c6e" y="249.604593"/>
     <use style="fill:#ff0000;stroke:#ff0000;" x="250.073766" xlink:href="#m3b9a1c5c6e" y="258.169135"/>
     <use style="fill:#ff0000;stroke:#ff0000;" x="251.61974" xlink:href="#m3b9a1c5c6e" y="243.616781"/>
     <use style="fill:#ff0000;stroke:#ff0000;" x="253.165714" xlink:href="#m3b9a1c5c6e" y="249.956609"/>
     <use style="fill:#ff0000;stroke:#ff0000;" x="254.711688" xlink:href="#m3b9a1c5c6e" y="264.591911"/>
     <use style="fill:#ff0000;stroke:#ff0000;" x="256.257662" xlink:href="#m3b9a1c5c6e" y="261.378381"/>
     <use style="fill:#ff0000;stroke:#ff0000;" x="257.803636" xlink:href="#m3b9a1c5c6e" y="272.732107"/>
     <use style="fill:#ff0000;stroke:#ff0000;" x="259.34961" xlink:href="#m3b9a1c5c6e" y="263.675508"/>
     <use style="fill:#ff0000;stroke:#ff0000;" x="260.895584" xlink:href="#m3b9a1c5c6e" y="259.452304"/>
     <use style="fill:#ff0000;stroke:#ff0000;" x="262.441558" xlink:href="#m3b9a1c5c6e" y="256.978458"/>
     <use style="fill:#ff0000;stroke:#ff0000;" x="263.987532" xlink:href="#m3b9a1c5c6e" y="271.829984"/>
     <use style="fill:#ff0000;stroke:#ff0000;" x="265.533506" xlink:href="#m3b9a1c5c6e" y="273.99464"/>
     <use style="fill:#ff0000;stroke:#ff0000;" x="267.079481" xlink:href="#m3b9a1c5c6e" y="274.77647"/>
     <use style="fill:#ff0000;stroke:#ff0000;" x="268.625455" xlink:href="#m3b9a1c5c6e" y="255.741267"/>
     <use style="fill:#ff0000;stroke:#ff0000;" x="270.171429" xlink:href="#m3b9a1c5c6e" y="266.027414"/>
     <use style="fill:#ff0000;stroke:#ff0000;" x="271.717403" xlink:href="#m3b9a1c5c6e" y="262.306584"/>
     <use style="fill:#ff0000;stroke:#ff0000;" x="273.263377" xlink:href="#m3b9a1c5c6e" y="266.265259"/>
     <use style="fill:#ff0000;stroke:#ff0000;" x="274.809351" xlink:href="#m3b9a1c5c6e" y="261.871907"/>
     <use style="fill:#ff0000;stroke:#ff0000;" x="276.355325" xlink:href="#m3b9a1c5c6e" y="257.207749"/>
     <use style="fill:#ff0000;stroke:#ff0000;" x="277.901299" xlink:href="#m3b9a1c5c6e" y="266.499935"/>
     <use style="fill:#ff0000;stroke:#ff0000;" x="279.447273" xlink:href="#m3b9a1c5c6e" y="277.891122"/>
     <use style="fill:#ff0000;stroke:#ff0000;" x="280.993247" xlink:href="#m3b9a1c5c6e" y="261.755877"/>
     <use style="fill:#ff0000;stroke:#ff0000;" x="282.539221" xlink:href="#m3b9a1c5c6e" y="279.195494"/>
     <use style="fill:#ff0000;stroke:#ff0000;" x="284.085195" xlink:href="#m3b9a1c5c6e" y="273.412658"/>
     <use style="fill:#ff0000;stroke:#ff0000;" x="285.631169" xlink:href="#m3b9a1c5c6e" y="276.981371"/>
     <use style="fill:#ff0000;stroke:#ff0000;" x="287.177143" xlink:href="#m3b9a1c5c6e" y="276.324477"/>
     <use style="fill:#ff0000;stroke:#ff0000;" x="288.723117" xlink:href="#m3b9a1c5c6e" y="275.0541"/>
     <use style="fill:#ff0000;stroke:#ff0000;" x="290.269091" xlink:href="#m3b9a1c5c6e" y="271.756099"/>
     <use style="fill:#ff0000;stroke:#ff0000;" x="291.815065" xlink:href="#m3b9a1c5c6e" y="264.78454"/>
     <use style="fill:#ff0000;stroke:#ff0000;" x="293.361039" xlink:href="#m3b9a1c5c6e" y="276.222253"/>
     <use style="fill:#ff0000;stroke:#ff0000;" x="294.907013" xlink:href="#m3b9a1c5c6e" y="278.669672"/>
     <use style="fill:#ff0000;stroke:#ff0000;" x="296.452987" xlink:href="#m3b9a1c5c6e" y="285.228884"/>
     <use style="fill:#ff0000;stroke:#ff0000;" x="297.998961" xlink:href="#m3b9a1c5c6e" y="285.77987"/>
     <use style="fill:#ff0000;stroke:#ff0000;" x="299.544935" xlink:href="#m3b9a1c5c6e" y="266.206291"/>
     <use style="fill:#ff0000;stroke:#ff0000;" x="301.090909" xlink:href="#m3b9a1c5c6e" y="276.534646"/>
     <use style="fill:#ff0000;stroke:#ff0000;" x="302.636883" xlink:href="#m3b9a1c5c6e" y="266.402038"/>
     <use style="fill:#ff0000;stroke:#ff0000;" x="304.182857" xlink:href="#m3b9a1c5c6e" y="276.936236"/>
     <use style="fill:#ff0000;stroke:#ff0000;" x="305.728831" xlink:href="#m3b9a1c5c6e" y="276.625727"/>
     <use style="fill:#ff0000;stroke:#ff0000;" x="307.274805" xlink:href="#m3b9a1c5c6e" y="271.67223"/>
     <use style="fill:#ff0000;stroke:#ff0000;" x="308.820779" xlink:href="#m3b9a1c5c6e" y="277.189005"/>
     <use style="fill:#ff0000;stroke:#ff0000;" x="310.366753" xlink:href="#m3b9a1c5c6e" y="286.487694"/>
     <use style="fill:#ff0000;stroke:#ff0000;" x="311.912727" xlink:href="#m3b9a1c5c6e" y="271.878846"/>
     <use style="fill:#ff0000;stroke:#ff0000;" x="313.458701" xlink:href="#m3b9a1c5c6e" y="280.273081"/>
     <use style="fill:#ff0000;stroke:#ff0000;" x="315.004675" xlink:href="#m3b9a1c5c6e" y="284.121897"/>
     <use style="fill:#ff0000;stroke:#ff0000;" x="316.550649" xlink:href="#m3b9a1c5c6e" y="289.146769"/>
     <use style="fill:#ff0000;stroke:#ff0000;" x="318.096623" xlink:href="#m3b9a1c5c6e" y="279.841549"/>
     <use style="fill:#ff0000;stroke:#ff0000;" x="319.642597" xlink:href="#m3b9a1c5c6e" y="282.914187"/>
     <use style="fill:#ff0000;stroke:#ff0000;" x="321.188571" xlink:href="#m3b9a1c5c6e" y="288.927485"/>
     <use style="fill:#ff0000;stroke:#ff0000;" x="322.734545" xlink:href="#m3b9a1c5c6e" y="281.818117"/>
     <use style="fill:#ff0000;stroke:#ff0000;" x="324.280519" xlink:href="#m3b9a1c5c6e" y="290.223995"/>
     <use style="fill:#ff0000;stroke:#ff0000;" x="325.826494" xlink:href="#m3b9a1c5c6e" y="286.836579"/>
     <use style="fill:#ff0000;stroke:#ff0000;" x="327.372468" xlink:href="#m3b9a1c5c6e" y="275.092943"/>
     <use style="fill:#ff0000;stroke:#ff0000;" x="328.918442" xlink:href="#m3b9a1c5c6e" y="285.939912"/>
     <use style="fill:#ff0000;stroke:#ff0000;" x="330.464416" xlink:href="#m3b9a1c5c6e" y="281.861121"/>
     <use style="fill:#ff0000;stroke:#ff0000;" x="332.01039" xlink:href="#m3b9a1c5c6e" y="291.883346"/>
     <use style="fill:#ff0000;stroke:#ff0000;" x="333.556364" xlink:href="#m3b9a1c5c6e" y="291.108918"/>
     <use style="fill:#ff0000;stroke:#ff0000;" x="335.102338" xlink:href="#m3b9a1c5c6e" y="283.06427"/>
     <use style="fill:#ff0000;stroke:#ff0000;" x="336.648312" xlink:href="#m3b9a1c5c6e" y="290.678319"/>
     <use style="fill:#ff0000;stroke:#ff0000;" x="338.194286" xlink:href="#m3b9a1c5c6e" y="281.592625"/>
     <use style="fill:#ff0000;stroke:#ff0000;" x="339.74026" xlink:href="#m3b9a1c5c6e" y="273.989542"/>
     <use style="fill:#ff0000;stroke:#ff0000;" x="341.286234" xlink:href="#m3b9a1c5c6e" y="287.234141"/>
     <use style="fill:#ff0000;stroke:#ff0000;" x="342.832208" xlink:href="#m3b9a1c5c6e" y="286.376755"/>
     <use style="fill:#ff0000;stroke:#ff0000;" x="344.378182" xlink:href="#m3b9a1c5c6e" y="279.769379"/>
     <use style="fill:#ff0000;stroke:#ff0000;" x="345.924156" xlink:href="#m3b9a1c5c6e" y="277.128232"/>
     <use style="fill:#ff0000;stroke:#ff0000;" x="347.47013" xlink:href="#m3b9a1c5c6e" y="276.508804"/>
     <use style="fill:#ff0000;stroke:#ff0000;" x="349.016104" xlink:href="#m3b9a1c5c6e" y="276.410905"/>
     <use style="fill:#ff0000;stroke:#ff0000;" x="350.562078" xlink:href="#m3b9a1c5c6e" y="285.932579"/>
     <use style="fill:#ff0000;stroke:#ff0000;" x="352.108052" xlink:href="#m3b9a1c5c6e" y="290.569143"/>
     <use style="fill:#ff0000;stroke:#ff0000;" x="353.654026" xlink:href="#m3b9a1c5c6e" y="283.126359"/>
     <use style="fill:#ff0000;stroke:#ff0000;" x="355.2" xlink:href="#m3b9a1c5c6e" y="284.881082"/>
     <use style="fill:#ff0000;stroke:#ff0000;" x="356.745974" xlink:href="#m3b9a1c5c6e" y="282.029249"/>
     <use style="fill:#ff0000;stroke:#ff0000;" x="358.291948" xlink:href="#m3b9a1c5c6e" y="294.358088"/>
     <use style="fill:#ff0000;stroke:#ff0000;" x="359.837922" xlink:href="#m3b9a1c5c6e" y="289.337812"/>
     <use style="fill:#ff0000;stroke:#ff0000;" x="361.383896" xlink:href="#m3b9a1c5c6e" y="295.488"/>
     <use style="fill:#ff0000;stroke:#ff0000;" x="362.92987" xlink:href="#m3b9a1c5c6e" y="273.803408"/>
     <use style="fill:#ff0000;stroke:#ff0000;" x="364.475844" xlink:href="#m3b9a1c5c6e" y="274.869848"/>
     <use style="fill:#ff0000;stroke:#ff0000;" x="366.021818" xlink:href="#m3b9a1c5c6e" y="277.534873"/>
     <use style="fill:#ff0000;stroke:#ff0000;" x="367.567792" xlink:href="#m3b9a1c5c6e" y="293.907525"/>
     <use style="fill:#ff0000;stroke:#ff0000;" x="369.113766" xlink:href="#m3b9a1c5c6e" y="284.61156"/>
     <use style="fill:#ff0000;stroke:#ff0000;" x="370.65974" xlink:href="#m3b9a1c5c6e" y="286.791112"/>
     <use style="fill:#ff0000;stroke:#ff0000;" x="372.205714" xlink:href="#m3b9a1c5c6e" y="276.241374"/>
     <use style="fill:#ff0000;stroke:#ff0000;" x="373.751688" xlink:href="#m3b9a1c5c6e" y="287.076053"/>
     <use style="fill:#ff0000;stroke:#ff0000;" x="375.297662" xlink:href="#m3b9a1c5c6e" y="283.107007"/>
     <use style="fill:#ff0000;stroke:#ff0000;" x="376.843636" xlink:href="#m3b9a1c5c6e" y="274.392872"/>
     <use style="fill:#ff0000;stroke:#ff0000;" x="378.38961" xlink:href="#m3b9a1c5c6e" y="289.325322"/>
     <use style="fill:#ff0000;stroke:#ff0000;" x="379.935584" xlink:href="#m3b9a1c5c6e" y="281.329364"/>
     <use style="fill:#ff0000;stroke:#ff0000;" x="381.481558" xlink:href="#m3b9a1c5c6e" y="281.690334"/>
     <use style="fill:#ff0000;stroke:#ff0000;" x="383.027532" xlink:href="#m3b9a1c5c6e" y="290.919254"/>
     <use style="fill:#ff0000;stroke:#ff0000;" x="384.573506" xlink:href="#m3b9a1c5c6e" y="290.885867"/>
     <use style="fill:#ff0000;stroke:#ff0000;" x="386.119481" xlink:href="#m3b9a1c5c6e" y="284.231387"/>
     <use style="fill:#ff0000;stroke:#ff0000;" x="387.665455" xlink:href="#m3b9a1c5c6e" y="290.724402"/>
     <use style="fill:#ff0000;stroke:#ff0000;" x="389.211429" xlink:href="#m3b9a1c5c6e" y="275.320646"/>
     <use style="fill:#ff0000;stroke:#ff0000;" x="390.757403" xlink:href="#m3b9a1c5c6e" y="287.491542"/>
     <use style="fill:#ff0000;stroke:#ff0000;" x="392.303377" xlink:href="#m3b9a1c5c6e" y="281.481544"/>
     <use style="fill:#ff0000;stroke:#ff0000;" x="393.849351" xlink:href="#m3b9a1c5c6e" y="283.556807"/>
     <use style="fill:#ff0000;stroke:#ff0000;" x="395.395325" xlink:href="#m3b9a1c5c6e" y="288.179139"/>
     <use style="fill:#ff0000;stroke:#ff0000;" x="396.941299" xlink:href="#m3b9a1c5c6e" y="278.538963"/>
     <use style="fill:#ff0000;stroke:#ff0000;" x="398.487273" xlink:href="#m3b9a1c5c6e" y="269.163858"/>
    </g>
   </g>
   <g id="line2d_16">
    <path clip-path="url(#p958e1d8738)" d="M 73.832727 88.100754 
L 83.108571 100.823143 
L 92.384416 113.120283 
L 101.66026 124.992174 
L 110.936104 136.438816 
L 118.665974 145.652842 
L 126.395844 154.571555 
L 134.125714 163.194957 
L 141.855584 171.523047 
L 149.585455 179.555825 
L 157.315325 187.293292 
L 165.045195 194.735446 
L 172.775065 201.882289 
L 180.504935 208.73382 
L 188.234805 215.290039 
L 195.964675 221.550946 
L 203.694545 227.516542 
L 211.424416 233.186826 
L 219.154286 238.561798 
L 226.884156 243.641458 
L 234.614026 248.425806 
L 242.343896 252.914843 
L 250.073766 257.108567 
L 257.803636 261.00698 
L 265.533506 264.610081 
L 273.263377 267.917871 
L 280.993247 270.930348 
L 288.723117 273.647514 
L 294.907013 275.608622 
L 301.090909 277.38073 
L 307.274805 278.963839 
L 313.458701 280.357948 
L 319.642597 281.563058 
L 325.826494 282.579168 
L 332.01039 283.406279 
L 338.194286 284.04439 
L 344.378182 284.493502 
L 350.562078 284.753614 
L 356.745974 284.824726 
L 362.92987 284.706839 
L 369.113766 284.399953 
L 375.297662 283.904066 
L 381.481558 283.219181 
L 387.665455 282.345295 
L 393.849351 281.28241 
L 398.487273 280.361216 
L 398.487273 280.361216 
" style="fill:none;stroke:#008000;stroke-linecap:square;stroke-width:1.5;"/>
   </g>
   <g id="patch_3">
    <path d="M 57.6 307.584 
L 57.6 41.472 
" style="fill:none;stroke:#000000;stroke-linecap:square;stroke-linejoin:miter;stroke-width:0.8;"/>
   </g>
   <g id="patch_4">
    <path d="M 414.72 307.584 
L 414.72 41.472 
" style="fill:none;stroke:#000000;stroke-linecap:square;stroke-linejoin:miter;stroke-width:0.8;"/>
   </g>
   <g id="patch_5">
    <path d="M 57.6 307.584 
L 414.72 307.584 
" style="fill:none;stroke:#000000;stroke-linecap:square;stroke-linejoin:miter;stroke-width:0.8;"/>
   </g>
   <g id="patch_6">
    <path d="M 57.6 41.472 
L 414.72 41.472 
" style="fill:none;stroke:#000000;stroke-linecap:square;stroke-linejoin:miter;stroke-width:0.8;"/>
   </g>
   <g id="text_17">
    <!-- FunctionFitting 28 -->
    <defs>
     <path d="M 9.8125 72.90625 
L 51.703125 72.90625 
L 51.703125 64.59375 
L 19.671875 64.59375 
L 19.671875 43.109375 
L 48.578125 43.109375 
L 48.578125 34.8125 
L 19.671875 34.8125 
L 19.671875 0 
L 9.8125 0 
z
" id="DejaVuSans-70"/>
     <path d="M 54.890625 33.015625 
L 54.890625 0 
L 45.90625 0 
L 45.90625 32.71875 
Q 45.90625 40.484375 42.875 44.328125 
Q 39.84375 48.1875 33.796875 48.1875 
Q 26.515625 48.1875 22.3125 43.546875 
Q 18.109375 38.921875 18.109375 30.90625 
L 18.109375 0 
L 9.078125 0 
L 9.078125 54.6875 
L 18.109375 54.6875 
L 18.109375 46.1875 
Q 21.34375 51.125 25.703125 53.5625 
Q 30.078125 56 35.796875 56 
Q 45.21875 56 50.046875 50.171875 
Q 54.890625 44.34375 54.890625 33.015625 
z
" id="DejaVuSans-110"/>
     <path d="M 48.78125 52.59375 
L 48.78125 44.1875 
Q 44.96875 46.296875 41.140625 47.34375 
Q 37.3125 48.390625 33.40625 48.390625 
Q 24.65625 48.390625 19.8125 42.84375 
Q 14.984375 37.3125 14.984375 27.296875 
Q 14.984375 17.28125 19.8125 11.734375 
Q 24.65625 6.203125 33.40625 6.203125 
Q 37.3125 6.203125 41.140625 7.25 
Q 44.96875 8.296875 48.78125 10.40625 
L 48.78125 2.09375 
Q 45.015625 0.34375 40.984375 -0.53125 
Q 36.96875 -1.421875 32.421875 -1.421875 
Q 20.0625 -1.421875 12.78125 6.34375 
Q 5.515625 14.109375 5.515625 27.296875 
Q 5.515625 40.671875 12.859375 48.328125 
Q 20.21875 56 33.015625 56 
Q 37.15625 56 41.109375 55.140625 
Q 45.0625 54.296875 48.78125 52.59375 
z
" id="DejaVuSans-99"/>
     <path d="M 18.3125 70.21875 
L 18.3125 54.6875 
L 36.8125 54.6875 
L 36.8125 47.703125 
L 18.3125 47.703125 
L 18.3125 18.015625 
Q 18.3125 11.328125 20.140625 9.421875 
Q 21.96875 7.515625 27.59375 7.515625 
L 36.8125 7.515625 
L 36.8125 0 
L 27.59375 0 
Q 17.1875 0 13.234375 3.875 
Q 9.28125 7.765625 9.28125 18.015625 
L 9.28125 47.703125 
L 2.6875 47.703125 
L 2.6875 54.6875 
L 9.28125 54.6875 
L 9.28125 70.21875 
z
" id="DejaVuSans-116"/>
     <path d="M 9.421875 54.6875 
L 18.40625 54.6875 
L 18.40625 0 
L 9.421875 0 
z
M 9.421875 75.984375 
L 18.40625 75.984375 
L 18.40625 64.59375 
L 9.421875 64.59375 
z
" id="DejaVuSans-105"/>
     <path d="M 30.609375 48.390625 
Q 23.390625 48.390625 19.1875 42.75 
Q 14.984375 37.109375 14.984375 27.296875 
Q 14.984375 17.484375 19.15625 11.84375 
Q 23.34375 6.203125 30.609375 6.203125 
Q 37.796875 6.203125 41.984375 11.859375 
Q 46.1875 17.53125 46.1875 27.296875 
Q 46.1875 37.015625 41.984375 42.703125 
Q 37.796875 48.390625 30.609375 48.390625 
z
M 30.609375 56 
Q 42.328125 56 49.015625 48.375 
Q 55.71875 40.765625 55.71875 27.296875 
Q 55.71875 13.875 49.015625 6.21875 
Q 42.328125 -1.421875 30.609375 -1.421875 
Q 18.84375 -1.421875 12.171875 6.21875 
Q 5.515625 13.875 5.515625 27.296875 
Q 5.515625 40.765625 12.171875 48.375 
Q 18.84375 56 30.609375 56 
z
" id="DejaVuSans-111"/>
     <path d="M 45.40625 27.984375 
Q 45.40625 37.75 41.375 43.109375 
Q 37.359375 48.484375 30.078125 48.484375 
Q 22.859375 48.484375 18.828125 43.109375 
Q 14.796875 37.75 14.796875 27.984375 
Q 14.796875 18.265625 18.828125 12.890625 
Q 22.859375 7.515625 30.078125 7.515625 
Q 37.359375 7.515625 41.375 12.890625 
Q 45.40625 18.265625 45.40625 27.984375 
z
M 54.390625 6.78125 
Q 54.390625 -7.171875 48.1875 -13.984375 
Q 42 -20.796875 29.203125 -20.796875 
Q 24.46875 -20.796875 20.265625 -20.09375 
Q 16.0625 -19.390625 12.109375 -17.921875 
L 12.109375 -9.1875 
Q 16.0625 -11.328125 19.921875 -12.34375 
Q 23.78125 -13.375 27.78125 -13.375 
Q 36.625 -13.375 41.015625 -8.765625 
Q 45.40625 -4.15625 45.40625 5.171875 
L 45.40625 9.625 
Q 42.625 4.78125 38.28125 2.390625 
Q 33.9375 0 27.875 0 
Q 17.828125 0 11.671875 7.65625 
Q 5.515625 15.328125 5.515625 27.984375 
Q 5.515625 40.671875 11.671875 48.328125 
Q 17.828125 56 27.875 56 
Q 33.9375 56 38.28125 53.609375 
Q 42.625 51.21875 45.40625 46.390625 
L 45.40625 54.6875 
L 54.390625 54.6875 
z
" id="DejaVuSans-103"/>
    </defs>
    <g transform="translate(181.680937 35.472)scale(0.12 -0.12)">
     <use xlink:href="#DejaVuSans-70"/>
     <use x="57.441406" xlink:href="#DejaVuSans-117"/>
     <use x="120.820312" xlink:href="#DejaVuSans-110"/>
     <use x="184.199219" xlink:href="#DejaVuSans-99"/>
     <use x="239.179688" xlink:href="#DejaVuSans-116"/>
     <use x="278.388672" xlink:href="#DejaVuSans-105"/>
     <use x="306.171875" xlink:href="#DejaVuSans-111"/>
     <use x="367.353516" xlink:href="#DejaVuSans-110"/>
     <use x="430.732422" xlink:href="#DejaVuSans-70"/>
     <use x="488.142578" xlink:href="#DejaVuSans-105"/>
     <use x="515.925781" xlink:href="#DejaVuSans-116"/>
     <use x="555.134766" xlink:href="#DejaVuSans-116"/>
     <use x="594.34375" xlink:href="#DejaVuSans-105"/>
     <use x="622.126953" xlink:href="#DejaVuSans-110"/>
     <use x="685.505859" xlink:href="#DejaVuSans-103"/>
     <use x="748.982422" xlink:href="#DejaVuSans-32"/>
     <use x="780.769531" xlink:href="#DejaVuSans-50"/>
     <use x="844.392578" xlink:href="#DejaVuSans-56"/>
    </g>
   </g>
   <g id="legend_1">
    <g id="patch_7">
     <path d="M 299.83875 78.82825 
L 407.72 78.82825 
Q 409.72 78.82825 409.72 76.82825 
L 409.72 48.472 
Q 409.72 46.472 407.72 46.472 
L 299.83875 46.472 
Q 297.83875 46.472 297.83875 48.472 
L 297.83875 76.82825 
Q 297.83875 78.82825 299.83875 78.82825 
z
" style="fill:#ffffff;opacity:0.8;stroke:#cccccc;stroke-linejoin:miter;"/>
    </g>
    <g id="line2d_17"/>
    <g id="line2d_18">
     <g>
      <use style="fill:#ff0000;stroke:#ff0000;" x="311.83875" xlink:href="#m3b9a1c5c6e" y="54.570437"/>
     </g>
    </g>
    <g id="text_18">
     <!-- measured data -->
     <defs>
      <path d="M 52 44.1875 
Q 55.375 50.25 60.0625 53.125 
Q 64.75 56 71.09375 56 
Q 79.640625 56 84.28125 50.015625 
Q 88.921875 44.046875 88.921875 33.015625 
L 88.921875 0 
L 79.890625 0 
L 79.890625 32.71875 
Q 79.890625 40.578125 77.09375 44.375 
Q 74.3125 48.1875 68.609375 48.1875 
Q 61.625 48.1875 57.5625 43.546875 
Q 53.515625 38.921875 53.515625 30.90625 
L 53.515625 0 
L 44.484375 0 
L 44.484375 32.71875 
Q 44.484375 40.625 41.703125 44.40625 
Q 38.921875 48.1875 33.109375 48.1875 
Q 26.21875 48.1875 22.15625 43.53125 
Q 18.109375 38.875 18.109375 30.90625 
L 18.109375 0 
L 9.078125 0 
L 9.078125 54.6875 
L 18.109375 54.6875 
L 18.109375 46.1875 
Q 21.1875 51.21875 25.484375 53.609375 
Q 29.78125 56 35.6875 56 
Q 41.65625 56 45.828125 52.96875 
Q 50 49.953125 52 44.1875 
z
" id="DejaVuSans-109"/>
      <path d="M 41.109375 46.296875 
Q 39.59375 47.171875 37.8125 47.578125 
Q 36.03125 48 33.890625 48 
Q 26.265625 48 22.1875 43.046875 
Q 18.109375 38.09375 18.109375 28.8125 
L 18.109375 0 
L 9.078125 0 
L 9.078125 54.6875 
L 18.109375 54.6875 
L 18.109375 46.1875 
Q 20.953125 51.171875 25.484375 53.578125 
Q 30.03125 56 36.53125 56 
Q 37.453125 56 38.578125 55.875 
Q 39.703125 55.765625 41.0625 55.515625 
z
" id="DejaVuSans-114"/>
      <path d="M 45.40625 46.390625 
L 45.40625 75.984375 
L 54.390625 75.984375 
L 54.390625 0 
L 45.40625 0 
L 45.40625 8.203125 
Q 42.578125 3.328125 38.25 0.953125 
Q 33.9375 -1.421875 27.875 -1.421875 
Q 17.96875 -1.421875 11.734375 6.484375 
Q 5.515625 14.40625 5.515625 27.296875 
Q 5.515625 40.1875 11.734375 48.09375 
Q 17.96875 56 27.875 56 
Q 33.9375 56 38.25 53.625 
Q 42.578125 51.265625 45.40625 46.390625 
z
M 14.796875 27.296875 
Q 14.796875 17.390625 18.875 11.75 
Q 22.953125 6.109375 30.078125 6.109375 
Q 37.203125 6.109375 41.296875 11.75 
Q 45.40625 17.390625 45.40625 27.296875 
Q 45.40625 37.203125 41.296875 42.84375 
Q 37.203125 48.484375 30.078125 48.484375 
Q 22.953125 48.484375 18.875 42.84375 
Q 14.796875 37.203125 14.796875 27.296875 
z
" id="DejaVuSans-100"/>
     </defs>
     <g transform="translate(329.83875 58.070437)scale(0.1 -0.1)">
      <use xlink:href="#DejaVuSans-109"/>
      <use x="97.412109" xlink:href="#DejaVuSans-101"/>
      <use x="158.935547" xlink:href="#DejaVuSans-97"/>
      <use x="220.214844" xlink:href="#DejaVuSans-115"/>
      <use x="272.314453" xlink:href="#DejaVuSans-117"/>
      <use x="335.693359" xlink:href="#DejaVuSans-114"/>
      <use x="376.775391" xlink:href="#DejaVuSans-101"/>
      <use x="438.298828" xlink:href="#DejaVuSans-100"/>
      <use x="501.775391" xlink:href="#DejaVuSans-32"/>
      <use x="533.5625" xlink:href="#DejaVuSans-100"/>
      <use x="597.039062" xlink:href="#DejaVuSans-97"/>
      <use x="658.318359" xlink:href="#DejaVuSans-116"/>
      <use x="697.527344" xlink:href="#DejaVuSans-97"/>
     </g>
    </g>
    <g id="line2d_19">
     <path d="M 301.83875 69.248562 
L 321.83875 69.248562 
" style="fill:none;stroke:#008000;stroke-linecap:square;stroke-width:1.5;"/>
    </g>
    <g id="line2d_20"/>
    <g id="text_19">
     <!-- linear data -->
     <g transform="translate(329.83875 72.748562)scale(0.1 -0.1)">
      <use xlink:href="#DejaVuSans-108"/>
      <use x="27.783203" xlink:href="#DejaVuSans-105"/>
      <use x="55.566406" xlink:href="#DejaVuSans-110"/>
      <use x="118.945312" xlink:href="#DejaVuSans-101"/>
      <use x="180.46875" xlink:href="#DejaVuSans-97"/>
      <use x="241.748047" xlink:href="#DejaVuSans-114"/>
      <use x="282.861328" xlink:href="#DejaVuSans-32"/>
      <use x="314.648438" xlink:href="#DejaVuSans-100"/>
      <use x="378.125" xlink:href="#DejaVuSans-97"/>
      <use x="439.404297" xlink:href="#DejaVuSans-116"/>
      <use x="478.613281" xlink:href="#DejaVuSans-97"/>
     </g>
    </g>
   </g>
  </g>
 </g>
 <defs>
  <clipPath id="p958e1d8738">
   <rect height="266.112" width="357.12" x="57.6" y="41.472"/>
  </clipPath>
 </defs>
</svg>
