<?xml version="1.0" encoding="utf-8" standalone="no"?>
<!DOCTYPE svg PUBLIC "-//W3C//DTD SVG 1.1//EN"
  "http://www.w3.org/Graphics/SVG/1.1/DTD/svg11.dtd">
<!-- Created with matplotlib (https://matplotlib.org/) -->
<svg height="345.6pt" version="1.1" viewBox="0 0 460.8 345.6" width="460.8pt" xmlns="http://www.w3.org/2000/svg" xmlns:xlink="http://www.w3.org/1999/xlink">
 <defs>
  <style type="text/css">
*{stroke-linecap:butt;stroke-linejoin:round;}
  </style>
 </defs>
 <g id="figure_1">
  <g id="patch_1">
   <path d="M 0 345.6 
L 460.8 345.6 
L 460.8 0 
L 0 0 
z
" style="fill:#ffffff;"/>
  </g>
  <g id="axes_1">
   <g id="patch_2">
    <path d="M 57.6 307.584 
L 414.72 307.584 
L 414.72 41.472 
L 57.6 41.472 
z
" style="fill:#ffffff;"/>
   </g>
   <g id="matplotlib.axis_1">
    <g id="xtick_1">
     <g id="line2d_1">
      <defs>
       <path d="M 0 0 
L 0 3.5 
" id="m0f9f567bea" style="stroke:#000000;stroke-width:0.8;"/>
      </defs>
      <g>
       <use style="stroke:#000000;stroke-width:0.8;" x="72.48986" xlink:href="#m0f9f567bea" y="307.584"/>
      </g>
     </g>
     <g id="text_1">
      <!-- 0 -->
      <defs>
       <path d="M 31.78125 66.40625 
Q 24.171875 66.40625 20.328125 58.90625 
Q 16.5 51.421875 16.5 36.375 
Q 16.5 21.390625 20.328125 13.890625 
Q 24.171875 6.390625 31.78125 6.390625 
Q 39.453125 6.390625 43.28125 13.890625 
Q 47.125 21.390625 47.125 36.375 
Q 47.125 51.421875 43.28125 58.90625 
Q 39.453125 66.40625 31.78125 66.40625 
z
M 31.78125 74.21875 
Q 44.046875 74.21875 50.515625 64.515625 
Q 56.984375 54.828125 56.984375 36.375 
Q 56.984375 17.96875 50.515625 8.265625 
Q 44.046875 -1.421875 31.78125 -1.421875 
Q 19.53125 -1.421875 13.0625 8.265625 
Q 6.59375 17.96875 6.59375 36.375 
Q 6.59375 54.828125 13.0625 64.515625 
Q 19.53125 74.21875 31.78125 74.21875 
z
" id="DejaVuSans-48"/>
      </defs>
      <g transform="translate(69.30861 322.182437)scale(0.1 -0.1)">
       <use xlink:href="#DejaVuSans-48"/>
      </g>
     </g>
    </g>
    <g id="xtick_2">
     <g id="line2d_2">
      <g>
       <use style="stroke:#000000;stroke-width:0.8;" x="130.244157" xlink:href="#m0f9f567bea" y="307.584"/>
      </g>
     </g>
     <g id="text_2">
      <!-- 20 -->
      <defs>
       <path d="M 19.1875 8.296875 
L 53.609375 8.296875 
L 53.609375 0 
L 7.328125 0 
L 7.328125 8.296875 
Q 12.9375 14.109375 22.625 23.890625 
Q 32.328125 33.6875 34.8125 36.53125 
Q 39.546875 41.84375 41.421875 45.53125 
Q 43.3125 49.21875 43.3125 52.78125 
Q 43.3125 58.59375 39.234375 62.25 
Q 35.15625 65.921875 28.609375 65.921875 
Q 23.96875 65.921875 18.8125 64.3125 
Q 13.671875 62.703125 7.8125 59.421875 
L 7.8125 69.390625 
Q 13.765625 71.78125 18.9375 73 
Q 24.125 74.21875 28.421875 74.21875 
Q 39.75 74.21875 46.484375 68.546875 
Q 53.21875 62.890625 53.21875 53.421875 
Q 53.21875 48.921875 51.53125 44.890625 
Q 49.859375 40.875 45.40625 35.40625 
Q 44.1875 33.984375 37.640625 27.21875 
Q 31.109375 20.453125 19.1875 8.296875 
z
" id="DejaVuSans-50"/>
      </defs>
      <g transform="translate(123.881657 322.182437)scale(0.1 -0.1)">
       <use xlink:href="#DejaVuSans-50"/>
       <use x="63.623047" xlink:href="#DejaVuSans-48"/>
      </g>
     </g>
    </g>
    <g id="xtick_3">
     <g id="line2d_3">
      <g>
       <use style="stroke:#000000;stroke-width:0.8;" x="187.998453" xlink:href="#m0f9f567bea" y="307.584"/>
      </g>
     </g>
     <g id="text_3">
      <!-- 40 -->
      <defs>
       <path d="M 37.796875 64.3125 
L 12.890625 25.390625 
L 37.796875 25.390625 
z
M 35.203125 72.90625 
L 47.609375 72.90625 
L 47.609375 25.390625 
L 58.015625 25.390625 
L 58.015625 17.1875 
L 47.609375 17.1875 
L 47.609375 0 
L 37.796875 0 
L 37.796875 17.1875 
L 4.890625 17.1875 
L 4.890625 26.703125 
z
" id="DejaVuSans-52"/>
      </defs>
      <g transform="translate(181.635953 322.182437)scale(0.1 -0.1)">
       <use xlink:href="#DejaVuSans-52"/>
       <use x="63.623047" xlink:href="#DejaVuSans-48"/>
      </g>
     </g>
    </g>
    <g id="xtick_4">
     <g id="line2d_4">
      <g>
       <use style="stroke:#000000;stroke-width:0.8;" x="245.752749" xlink:href="#m0f9f567bea" y="307.584"/>
      </g>
     </g>
     <g id="text_4">
      <!-- 60 -->
      <defs>
       <path d="M 33.015625 40.375 
Q 26.375 40.375 22.484375 35.828125 
Q 18.609375 31.296875 18.609375 23.390625 
Q 18.609375 15.53125 22.484375 10.953125 
Q 26.375 6.390625 33.015625 6.390625 
Q 39.65625 6.390625 43.53125 10.953125 
Q 47.40625 15.53125 47.40625 23.390625 
Q 47.40625 31.296875 43.53125 35.828125 
Q 39.65625 40.375 33.015625 40.375 
z
M 52.59375 71.296875 
L 52.59375 62.3125 
Q 48.875 64.0625 45.09375 64.984375 
Q 41.3125 65.921875 37.59375 65.921875 
Q 27.828125 65.921875 22.671875 59.328125 
Q 17.53125 52.734375 16.796875 39.40625 
Q 19.671875 43.65625 24.015625 45.921875 
Q 28.375 48.1875 33.59375 48.1875 
Q 44.578125 48.1875 50.953125 41.515625 
Q 57.328125 34.859375 57.328125 23.390625 
Q 57.328125 12.15625 50.6875 5.359375 
Q 44.046875 -1.421875 33.015625 -1.421875 
Q 20.359375 -1.421875 13.671875 8.265625 
Q 6.984375 17.96875 6.984375 36.375 
Q 6.984375 53.65625 15.1875 63.9375 
Q 23.390625 74.21875 37.203125 74.21875 
Q 40.921875 74.21875 44.703125 73.484375 
Q 48.484375 72.75 52.59375 71.296875 
z
" id="DejaVuSans-54"/>
      </defs>
      <g transform="translate(239.390249 322.182437)scale(0.1 -0.1)">
       <use xlink:href="#DejaVuSans-54"/>
       <use x="63.623047" xlink:href="#DejaVuSans-48"/>
      </g>
     </g>
    </g>
    <g id="xtick_5">
     <g id="line2d_5">
      <g>
       <use style="stroke:#000000;stroke-width:0.8;" x="303.507046" xlink:href="#m0f9f567bea" y="307.584"/>
      </g>
     </g>
     <g id="text_5">
      <!-- 80 -->
      <defs>
       <path d="M 31.78125 34.625 
Q 24.75 34.625 20.71875 30.859375 
Q 16.703125 27.09375 16.703125 20.515625 
Q 16.703125 13.921875 20.71875 10.15625 
Q 24.75 6.390625 31.78125 6.390625 
Q 38.8125 6.390625 42.859375 10.171875 
Q 46.921875 13.96875 46.921875 20.515625 
Q 46.921875 27.09375 42.890625 30.859375 
Q 38.875 34.625 31.78125 34.625 
z
M 21.921875 38.8125 
Q 15.578125 40.375 12.03125 44.71875 
Q 8.5 49.078125 8.5 55.328125 
Q 8.5 64.0625 14.71875 69.140625 
Q 20.953125 74.21875 31.78125 74.21875 
Q 42.671875 74.21875 48.875 69.140625 
Q 55.078125 64.0625 55.078125 55.328125 
Q 55.078125 49.078125 51.53125 44.71875 
Q 48 40.375 41.703125 38.8125 
Q 48.828125 37.15625 52.796875 32.3125 
Q 56.78125 27.484375 56.78125 20.515625 
Q 56.78125 9.90625 50.3125 4.234375 
Q 43.84375 -1.421875 31.78125 -1.421875 
Q 19.734375 -1.421875 13.25 4.234375 
Q 6.78125 9.90625 6.78125 20.515625 
Q 6.78125 27.484375 10.78125 32.3125 
Q 14.796875 37.15625 21.921875 38.8125 
z
M 18.3125 54.390625 
Q 18.3125 48.734375 21.84375 45.5625 
Q 25.390625 42.390625 31.78125 42.390625 
Q 38.140625 42.390625 41.71875 45.5625 
Q 45.3125 48.734375 45.3125 54.390625 
Q 45.3125 60.0625 41.71875 63.234375 
Q 38.140625 66.40625 31.78125 66.40625 
Q 25.390625 66.40625 21.84375 63.234375 
Q 18.3125 60.0625 18.3125 54.390625 
z
" id="DejaVuSans-56"/>
      </defs>
      <g transform="translate(297.144546 322.182437)scale(0.1 -0.1)">
       <use xlink:href="#DejaVuSans-56"/>
       <use x="63.623047" xlink:href="#DejaVuSans-48"/>
      </g>
     </g>
    </g>
    <g id="xtick_6">
     <g id="line2d_6">
      <g>
       <use style="stroke:#000000;stroke-width:0.8;" x="361.261342" xlink:href="#m0f9f567bea" y="307.584"/>
      </g>
     </g>
     <g id="text_6">
      <!-- 100 -->
      <defs>
       <path d="M 12.40625 8.296875 
L 28.515625 8.296875 
L 28.515625 63.921875 
L 10.984375 60.40625 
L 10.984375 69.390625 
L 28.421875 72.90625 
L 38.28125 72.90625 
L 38.28125 8.296875 
L 54.390625 8.296875 
L 54.390625 0 
L 12.40625 0 
z
" id="DejaVuSans-49"/>
      </defs>
      <g transform="translate(351.717592 322.182437)scale(0.1 -0.1)">
       <use xlink:href="#DejaVuSans-49"/>
       <use x="63.623047" xlink:href="#DejaVuSans-48"/>
       <use x="127.246094" xlink:href="#DejaVuSans-48"/>
      </g>
     </g>
    </g>
    <g id="text_7">
     <!-- x values -->
     <defs>
      <path d="M 54.890625 54.6875 
L 35.109375 28.078125 
L 55.90625 0 
L 45.3125 0 
L 29.390625 21.484375 
L 13.484375 0 
L 2.875 0 
L 24.125 28.609375 
L 4.6875 54.6875 
L 15.28125 54.6875 
L 29.78125 35.203125 
L 44.28125 54.6875 
z
" id="DejaVuSans-120"/>
      <path id="DejaVuSans-32"/>
      <path d="M 2.984375 54.6875 
L 12.5 54.6875 
L 29.59375 8.796875 
L 46.6875 54.6875 
L 56.203125 54.6875 
L 35.6875 0 
L 23.484375 0 
z
" id="DejaVuSans-118"/>
      <path d="M 34.28125 27.484375 
Q 23.390625 27.484375 19.1875 25 
Q 14.984375 22.515625 14.984375 16.5 
Q 14.984375 11.71875 18.140625 8.90625 
Q 21.296875 6.109375 26.703125 6.109375 
Q 34.1875 6.109375 38.703125 11.40625 
Q 43.21875 16.703125 43.21875 25.484375 
L 43.21875 27.484375 
z
M 52.203125 31.203125 
L 52.203125 0 
L 43.21875 0 
L 43.21875 8.296875 
Q 40.140625 3.328125 35.546875 0.953125 
Q 30.953125 -1.421875 24.3125 -1.421875 
Q 15.921875 -1.421875 10.953125 3.296875 
Q 6 8.015625 6 15.921875 
Q 6 25.140625 12.171875 29.828125 
Q 18.359375 34.515625 30.609375 34.515625 
L 43.21875 34.515625 
L 43.21875 35.40625 
Q 43.21875 41.609375 39.140625 45 
Q 35.0625 48.390625 27.6875 48.390625 
Q 23 48.390625 18.546875 47.265625 
Q 14.109375 46.140625 10.015625 43.890625 
L 10.015625 52.203125 
Q 14.9375 54.109375 19.578125 55.046875 
Q 24.21875 56 28.609375 56 
Q 40.484375 56 46.34375 49.84375 
Q 52.203125 43.703125 52.203125 31.203125 
z
" id="DejaVuSans-97"/>
      <path d="M 9.421875 75.984375 
L 18.40625 75.984375 
L 18.40625 0 
L 9.421875 0 
z
" id="DejaVuSans-108"/>
      <path d="M 8.5 21.578125 
L 8.5 54.6875 
L 17.484375 54.6875 
L 17.484375 21.921875 
Q 17.484375 14.15625 20.5 10.265625 
Q 23.53125 6.390625 29.59375 6.390625 
Q 36.859375 6.390625 41.078125 11.03125 
Q 45.3125 15.671875 45.3125 23.6875 
L 45.3125 54.6875 
L 54.296875 54.6875 
L 54.296875 0 
L 45.3125 0 
L 45.3125 8.40625 
Q 42.046875 3.421875 37.71875 1 
Q 33.40625 -1.421875 27.6875 -1.421875 
Q 18.265625 -1.421875 13.375 4.4375 
Q 8.5 10.296875 8.5 21.578125 
z
M 31.109375 56 
z
" id="DejaVuSans-117"/>
      <path d="M 56.203125 29.59375 
L 56.203125 25.203125 
L 14.890625 25.203125 
Q 15.484375 15.921875 20.484375 11.0625 
Q 25.484375 6.203125 34.421875 6.203125 
Q 39.59375 6.203125 44.453125 7.46875 
Q 49.3125 8.734375 54.109375 11.28125 
L 54.109375 2.78125 
Q 49.265625 0.734375 44.1875 -0.34375 
Q 39.109375 -1.421875 33.890625 -1.421875 
Q 20.796875 -1.421875 13.15625 6.1875 
Q 5.515625 13.8125 5.515625 26.8125 
Q 5.515625 40.234375 12.765625 48.109375 
Q 20.015625 56 32.328125 56 
Q 43.359375 56 49.78125 48.890625 
Q 56.203125 41.796875 56.203125 29.59375 
z
M 47.21875 32.234375 
Q 47.125 39.59375 43.09375 43.984375 
Q 39.0625 48.390625 32.421875 48.390625 
Q 24.90625 48.390625 20.390625 44.140625 
Q 15.875 39.890625 15.1875 32.171875 
z
" id="DejaVuSans-101"/>
      <path d="M 44.28125 53.078125 
L 44.28125 44.578125 
Q 40.484375 46.53125 36.375 47.5 
Q 32.28125 48.484375 27.875 48.484375 
Q 21.1875 48.484375 17.84375 46.4375 
Q 14.5 44.390625 14.5 40.28125 
Q 14.5 37.15625 16.890625 35.375 
Q 19.28125 33.59375 26.515625 31.984375 
L 29.59375 31.296875 
Q 39.15625 29.25 43.1875 25.515625 
Q 47.21875 21.78125 47.21875 15.09375 
Q 47.21875 7.46875 41.1875 3.015625 
Q 35.15625 -1.421875 24.609375 -1.421875 
Q 20.21875 -1.421875 15.453125 -0.5625 
Q 10.6875 0.296875 5.421875 2 
L 5.421875 11.28125 
Q 10.40625 8.6875 15.234375 7.390625 
Q 20.0625 6.109375 24.8125 6.109375 
Q 31.15625 6.109375 34.5625 8.28125 
Q 37.984375 10.453125 37.984375 14.40625 
Q 37.984375 18.0625 35.515625 20.015625 
Q 33.0625 21.96875 24.703125 23.78125 
L 21.578125 24.515625 
Q 13.234375 26.265625 9.515625 29.90625 
Q 5.8125 33.546875 5.8125 39.890625 
Q 5.8125 47.609375 11.28125 51.796875 
Q 16.75 56 26.8125 56 
Q 31.78125 56 36.171875 55.265625 
Q 40.578125 54.546875 44.28125 53.078125 
z
" id="DejaVuSans-115"/>
     </defs>
     <g transform="translate(215.349063 335.860562)scale(0.1 -0.1)">
      <use xlink:href="#DejaVuSans-120"/>
      <use x="59.179688" xlink:href="#DejaVuSans-32"/>
      <use x="90.966797" xlink:href="#DejaVuSans-118"/>
      <use x="150.146484" xlink:href="#DejaVuSans-97"/>
      <use x="211.425781" xlink:href="#DejaVuSans-108"/>
      <use x="239.208984" xlink:href="#DejaVuSans-117"/>
      <use x="302.587891" xlink:href="#DejaVuSans-101"/>
      <use x="364.111328" xlink:href="#DejaVuSans-115"/>
     </g>
    </g>
   </g>
   <g id="matplotlib.axis_2">
    <g id="ytick_1">
     <g id="line2d_7">
      <defs>
       <path d="M 0 0 
L -3.5 0 
" id="m524e71f7f0" style="stroke:#000000;stroke-width:0.8;"/>
      </defs>
      <g>
       <use style="stroke:#000000;stroke-width:0.8;" x="57.6" xlink:href="#m524e71f7f0" y="290.133762"/>
      </g>
     </g>
     <g id="text_8">
      <!-- 0 -->
      <g transform="translate(44.2375 293.932981)scale(0.1 -0.1)">
       <use xlink:href="#DejaVuSans-48"/>
      </g>
     </g>
    </g>
    <g id="ytick_2">
     <g id="line2d_8">
      <g>
       <use style="stroke:#000000;stroke-width:0.8;" x="57.6" xlink:href="#m524e71f7f0" y="251.014208"/>
      </g>
     </g>
     <g id="text_9">
      <!-- 100 -->
      <g transform="translate(31.5125 254.813426)scale(0.1 -0.1)">
       <use xlink:href="#DejaVuSans-49"/>
       <use x="63.623047" xlink:href="#DejaVuSans-48"/>
       <use x="127.246094" xlink:href="#DejaVuSans-48"/>
      </g>
     </g>
    </g>
    <g id="ytick_3">
     <g id="line2d_9">
      <g>
       <use style="stroke:#000000;stroke-width:0.8;" x="57.6" xlink:href="#m524e71f7f0" y="211.894653"/>
      </g>
     </g>
     <g id="text_10">
      <!-- 200 -->
      <g transform="translate(31.5125 215.693872)scale(0.1 -0.1)">
       <use xlink:href="#DejaVuSans-50"/>
       <use x="63.623047" xlink:href="#DejaVuSans-48"/>
       <use x="127.246094" xlink:href="#DejaVuSans-48"/>
      </g>
     </g>
    </g>
    <g id="ytick_4">
     <g id="line2d_10">
      <g>
       <use style="stroke:#000000;stroke-width:0.8;" x="57.6" xlink:href="#m524e71f7f0" y="172.775099"/>
      </g>
     </g>
     <g id="text_11">
      <!-- 300 -->
      <defs>
       <path d="M 40.578125 39.3125 
Q 47.65625 37.796875 51.625 33 
Q 55.609375 28.21875 55.609375 21.1875 
Q 55.609375 10.40625 48.1875 4.484375 
Q 40.765625 -1.421875 27.09375 -1.421875 
Q 22.515625 -1.421875 17.65625 -0.515625 
Q 12.796875 0.390625 7.625 2.203125 
L 7.625 11.71875 
Q 11.71875 9.328125 16.59375 8.109375 
Q 21.484375 6.890625 26.8125 6.890625 
Q 36.078125 6.890625 40.9375 10.546875 
Q 45.796875 14.203125 45.796875 21.1875 
Q 45.796875 27.640625 41.28125 31.265625 
Q 36.765625 34.90625 28.71875 34.90625 
L 20.21875 34.90625 
L 20.21875 43.015625 
L 29.109375 43.015625 
Q 36.375 43.015625 40.234375 45.921875 
Q 44.09375 48.828125 44.09375 54.296875 
Q 44.09375 59.90625 40.109375 62.90625 
Q 36.140625 65.921875 28.71875 65.921875 
Q 24.65625 65.921875 20.015625 65.03125 
Q 15.375 64.15625 9.8125 62.3125 
L 9.8125 71.09375 
Q 15.4375 72.65625 20.34375 73.4375 
Q 25.25 74.21875 29.59375 74.21875 
Q 40.828125 74.21875 47.359375 69.109375 
Q 53.90625 64.015625 53.90625 55.328125 
Q 53.90625 49.265625 50.4375 45.09375 
Q 46.96875 40.921875 40.578125 39.3125 
z
" id="DejaVuSans-51"/>
      </defs>
      <g transform="translate(31.5125 176.574318)scale(0.1 -0.1)">
       <use xlink:href="#DejaVuSans-51"/>
       <use x="63.623047" xlink:href="#DejaVuSans-48"/>
       <use x="127.246094" xlink:href="#DejaVuSans-48"/>
      </g>
     </g>
    </g>
    <g id="ytick_5">
     <g id="line2d_11">
      <g>
       <use style="stroke:#000000;stroke-width:0.8;" x="57.6" xlink:href="#m524e71f7f0" y="133.655545"/>
      </g>
     </g>
     <g id="text_12">
      <!-- 400 -->
      <g transform="translate(31.5125 137.454763)scale(0.1 -0.1)">
       <use xlink:href="#DejaVuSans-52"/>
       <use x="63.623047" xlink:href="#DejaVuSans-48"/>
       <use x="127.246094" xlink:href="#DejaVuSans-48"/>
      </g>
     </g>
    </g>
    <g id="ytick_6">
     <g id="line2d_12">
      <g>
       <use style="stroke:#000000;stroke-width:0.8;" x="57.6" xlink:href="#m524e71f7f0" y="94.53599"/>
      </g>
     </g>
     <g id="text_13">
      <!-- 500 -->
      <defs>
       <path d="M 10.796875 72.90625 
L 49.515625 72.90625 
L 49.515625 64.59375 
L 19.828125 64.59375 
L 19.828125 46.734375 
Q 21.96875 47.46875 24.109375 47.828125 
Q 26.265625 48.1875 28.421875 48.1875 
Q 40.625 48.1875 47.75 41.5 
Q 54.890625 34.8125 54.890625 23.390625 
Q 54.890625 11.625 47.5625 5.09375 
Q 40.234375 -1.421875 26.90625 -1.421875 
Q 22.3125 -1.421875 17.546875 -0.640625 
Q 12.796875 0.140625 7.71875 1.703125 
L 7.71875 11.625 
Q 12.109375 9.234375 16.796875 8.0625 
Q 21.484375 6.890625 26.703125 6.890625 
Q 35.15625 6.890625 40.078125 11.328125 
Q 45.015625 15.765625 45.015625 23.390625 
Q 45.015625 31 40.078125 35.4375 
Q 35.15625 39.890625 26.703125 39.890625 
Q 22.75 39.890625 18.8125 39.015625 
Q 14.890625 38.140625 10.796875 36.28125 
z
" id="DejaVuSans-53"/>
      </defs>
      <g transform="translate(31.5125 98.335209)scale(0.1 -0.1)">
       <use xlink:href="#DejaVuSans-53"/>
       <use x="63.623047" xlink:href="#DejaVuSans-48"/>
       <use x="127.246094" xlink:href="#DejaVuSans-48"/>
      </g>
     </g>
    </g>
    <g id="ytick_7">
     <g id="line2d_13">
      <g>
       <use style="stroke:#000000;stroke-width:0.8;" x="57.6" xlink:href="#m524e71f7f0" y="55.416436"/>
      </g>
     </g>
     <g id="text_14">
      <!-- 600 -->
      <g transform="translate(31.5125 59.215655)scale(0.1 -0.1)">
       <use xlink:href="#DejaVuSans-54"/>
       <use x="63.623047" xlink:href="#DejaVuSans-48"/>
       <use x="127.246094" xlink:href="#DejaVuSans-48"/>
      </g>
     </g>
    </g>
    <g id="text_15">
     <!-- y values -->
     <defs>
      <path d="M 32.171875 -5.078125 
Q 28.375 -14.84375 24.75 -17.8125 
Q 21.140625 -20.796875 15.09375 -20.796875 
L 7.90625 -20.796875 
L 7.90625 -13.28125 
L 13.1875 -13.28125 
Q 16.890625 -13.28125 18.9375 -11.515625 
Q 21 -9.765625 23.484375 -3.21875 
L 25.09375 0.875 
L 2.984375 54.6875 
L 12.5 54.6875 
L 29.59375 11.921875 
L 46.6875 54.6875 
L 56.203125 54.6875 
z
" id="DejaVuSans-121"/>
     </defs>
     <g transform="translate(25.432812 195.338937)rotate(-90)scale(0.1 -0.1)">
      <use xlink:href="#DejaVuSans-121"/>
      <use x="59.179688" xlink:href="#DejaVuSans-32"/>
      <use x="90.966797" xlink:href="#DejaVuSans-118"/>
      <use x="150.146484" xlink:href="#DejaVuSans-97"/>
      <use x="211.425781" xlink:href="#DejaVuSans-108"/>
      <use x="239.208984" xlink:href="#DejaVuSans-117"/>
      <use x="302.587891" xlink:href="#DejaVuSans-101"/>
      <use x="364.111328" xlink:href="#DejaVuSans-115"/>
     </g>
    </g>
   </g>
   <g id="line2d_14">
    <defs>
     <path d="M 0 1 
C 0.265203 1 0.51958 0.894634 0.707107 0.707107 
C 0.894634 0.51958 1 0.265203 1 0 
C 1 -0.265203 0.894634 -0.51958 0.707107 -0.707107 
C 0.51958 -0.894634 0.265203 -1 0 -1 
C -0.265203 -1 -0.51958 -0.894634 -0.707107 -0.707107 
C -0.894634 -0.51958 -1 -0.265203 -1 0 
C -1 0.265203 -0.894634 0.51958 -0.707107 0.707107 
C -0.51958 0.894634 -0.265203 1 0 1 
z
" id="m6e5f9fd8f4" style="stroke:#ff0000;"/>
    </defs>
    <g clip-path="url(#p774ee72a5a)">
     <use style="fill:#ff0000;stroke:#ff0000;" x="73.832727" xlink:href="#m6e5f9fd8f4" y="62.427655"/>
     <use style="fill:#ff0000;stroke:#ff0000;" x="75.335758" xlink:href="#m6e5f9fd8f4" y="76.014418"/>
     <use style="fill:#ff0000;stroke:#ff0000;" x="76.838788" xlink:href="#m6e5f9fd8f4" y="53.615713"/>
     <use style="fill:#ff0000;stroke:#ff0000;" x="78.341818" xlink:href="#m6e5f9fd8f4" y="80.418161"/>
     <use style="fill:#ff0000;stroke:#ff0000;" x="79.844848" xlink:href="#m6e5f9fd8f4" y="53.568"/>
     <use style="fill:#ff0000;stroke:#ff0000;" x="81.347879" xlink:href="#m6e5f9fd8f4" y="100.81127"/>
     <use style="fill:#ff0000;stroke:#ff0000;" x="82.850909" xlink:href="#m6e5f9fd8f4" y="130.653296"/>
     <use style="fill:#ff0000;stroke:#ff0000;" x="84.353939" xlink:href="#m6e5f9fd8f4" y="98.101591"/>
     <use style="fill:#ff0000;stroke:#ff0000;" x="85.85697" xlink:href="#m6e5f9fd8f4" y="90.408275"/>
     <use style="fill:#ff0000;stroke:#ff0000;" x="87.36" xlink:href="#m6e5f9fd8f4" y="88.662194"/>
     <use style="fill:#ff0000;stroke:#ff0000;" x="88.86303" xlink:href="#m6e5f9fd8f4" y="99.133695"/>
     <use style="fill:#ff0000;stroke:#ff0000;" x="90.366061" xlink:href="#m6e5f9fd8f4" y="125.330291"/>
     <use style="fill:#ff0000;stroke:#ff0000;" x="91.869091" xlink:href="#m6e5f9fd8f4" y="72.627139"/>
     <use style="fill:#ff0000;stroke:#ff0000;" x="93.372121" xlink:href="#m6e5f9fd8f4" y="111.245693"/>
     <use style="fill:#ff0000;stroke:#ff0000;" x="94.875152" xlink:href="#m6e5f9fd8f4" y="132.63395"/>
     <use style="fill:#ff0000;stroke:#ff0000;" x="96.378182" xlink:href="#m6e5f9fd8f4" y="152.566623"/>
     <use style="fill:#ff0000;stroke:#ff0000;" x="97.881212" xlink:href="#m6e5f9fd8f4" y="123.336576"/>
     <use style="fill:#ff0000;stroke:#ff0000;" x="99.384242" xlink:href="#m6e5f9fd8f4" y="101.993094"/>
     <use style="fill:#ff0000;stroke:#ff0000;" x="100.887273" xlink:href="#m6e5f9fd8f4" y="113.809333"/>
     <use style="fill:#ff0000;stroke:#ff0000;" x="102.390303" xlink:href="#m6e5f9fd8f4" y="131.279982"/>
     <use style="fill:#ff0000;stroke:#ff0000;" x="103.893333" xlink:href="#m6e5f9fd8f4" y="113.789508"/>
     <use style="fill:#ff0000;stroke:#ff0000;" x="105.396364" xlink:href="#m6e5f9fd8f4" y="131.631679"/>
     <use style="fill:#ff0000;stroke:#ff0000;" x="106.899394" xlink:href="#m6e5f9fd8f4" y="112.830385"/>
     <use style="fill:#ff0000;stroke:#ff0000;" x="108.402424" xlink:href="#m6e5f9fd8f4" y="140.540544"/>
     <use style="fill:#ff0000;stroke:#ff0000;" x="109.905455" xlink:href="#m6e5f9fd8f4" y="163.825783"/>
     <use style="fill:#ff0000;stroke:#ff0000;" x="111.408485" xlink:href="#m6e5f9fd8f4" y="138.74371"/>
     <use style="fill:#ff0000;stroke:#ff0000;" x="112.911515" xlink:href="#m6e5f9fd8f4" y="125.849496"/>
     <use style="fill:#ff0000;stroke:#ff0000;" x="114.414545" xlink:href="#m6e5f9fd8f4" y="179.585014"/>
     <use style="fill:#ff0000;stroke:#ff0000;" x="115.917576" xlink:href="#m6e5f9fd8f4" y="129.738384"/>
     <use style="fill:#ff0000;stroke:#ff0000;" x="117.420606" xlink:href="#m6e5f9fd8f4" y="157.673743"/>
     <use style="fill:#ff0000;stroke:#ff0000;" x="118.923636" xlink:href="#m6e5f9fd8f4" y="166.772359"/>
     <use style="fill:#ff0000;stroke:#ff0000;" x="120.426667" xlink:href="#m6e5f9fd8f4" y="177.365166"/>
     <use style="fill:#ff0000;stroke:#ff0000;" x="121.929697" xlink:href="#m6e5f9fd8f4" y="164.631668"/>
     <use style="fill:#ff0000;stroke:#ff0000;" x="123.432727" xlink:href="#m6e5f9fd8f4" y="171.674957"/>
     <use style="fill:#ff0000;stroke:#ff0000;" x="124.935758" xlink:href="#m6e5f9fd8f4" y="139.027484"/>
     <use style="fill:#ff0000;stroke:#ff0000;" x="126.438788" xlink:href="#m6e5f9fd8f4" y="169.419098"/>
     <use style="fill:#ff0000;stroke:#ff0000;" x="127.941818" xlink:href="#m6e5f9fd8f4" y="160.239355"/>
     <use style="fill:#ff0000;stroke:#ff0000;" x="129.444848" xlink:href="#m6e5f9fd8f4" y="171.272118"/>
     <use style="fill:#ff0000;stroke:#ff0000;" x="130.947879" xlink:href="#m6e5f9fd8f4" y="162.915424"/>
     <use style="fill:#ff0000;stroke:#ff0000;" x="132.450909" xlink:href="#m6e5f9fd8f4" y="200.032521"/>
     <use style="fill:#ff0000;stroke:#ff0000;" x="133.953939" xlink:href="#m6e5f9fd8f4" y="174.255885"/>
     <use style="fill:#ff0000;stroke:#ff0000;" x="135.45697" xlink:href="#m6e5f9fd8f4" y="171.741979"/>
     <use style="fill:#ff0000;stroke:#ff0000;" x="136.96" xlink:href="#m6e5f9fd8f4" y="192.147113"/>
     <use style="fill:#ff0000;stroke:#ff0000;" x="138.46303" xlink:href="#m6e5f9fd8f4" y="185.500123"/>
     <use style="fill:#ff0000;stroke:#ff0000;" x="139.966061" xlink:href="#m6e5f9fd8f4" y="188.489987"/>
     <use style="fill:#ff0000;stroke:#ff0000;" x="141.469091" xlink:href="#m6e5f9fd8f4" y="205.798723"/>
     <use style="fill:#ff0000;stroke:#ff0000;" x="142.972121" xlink:href="#m6e5f9fd8f4" y="179.909032"/>
     <use style="fill:#ff0000;stroke:#ff0000;" x="144.475152" xlink:href="#m6e5f9fd8f4" y="202.873206"/>
     <use style="fill:#ff0000;stroke:#ff0000;" x="145.978182" xlink:href="#m6e5f9fd8f4" y="215.674728"/>
     <use style="fill:#ff0000;stroke:#ff0000;" x="147.481212" xlink:href="#m6e5f9fd8f4" y="197.502553"/>
     <use style="fill:#ff0000;stroke:#ff0000;" x="148.984242" xlink:href="#m6e5f9fd8f4" y="190.549634"/>
     <use style="fill:#ff0000;stroke:#ff0000;" x="150.487273" xlink:href="#m6e5f9fd8f4" y="178.376999"/>
     <use style="fill:#ff0000;stroke:#ff0000;" x="151.990303" xlink:href="#m6e5f9fd8f4" y="203.253095"/>
     <use style="fill:#ff0000;stroke:#ff0000;" x="153.493333" xlink:href="#m6e5f9fd8f4" y="215.890264"/>
     <use style="fill:#ff0000;stroke:#ff0000;" x="154.996364" xlink:href="#m6e5f9fd8f4" y="197.921638"/>
     <use style="fill:#ff0000;stroke:#ff0000;" x="156.499394" xlink:href="#m6e5f9fd8f4" y="213.498207"/>
     <use style="fill:#ff0000;stroke:#ff0000;" x="158.002424" xlink:href="#m6e5f9fd8f4" y="191.267202"/>
     <use style="fill:#ff0000;stroke:#ff0000;" x="159.505455" xlink:href="#m6e5f9fd8f4" y="226.575636"/>
     <use style="fill:#ff0000;stroke:#ff0000;" x="161.008485" xlink:href="#m6e5f9fd8f4" y="205.272739"/>
     <use style="fill:#ff0000;stroke:#ff0000;" x="162.511515" xlink:href="#m6e5f9fd8f4" y="233.5775"/>
     <use style="fill:#ff0000;stroke:#ff0000;" x="164.014545" xlink:href="#m6e5f9fd8f4" y="215.412499"/>
     <use style="fill:#ff0000;stroke:#ff0000;" x="165.517576" xlink:href="#m6e5f9fd8f4" y="223.375639"/>
     <use style="fill:#ff0000;stroke:#ff0000;" x="167.020606" xlink:href="#m6e5f9fd8f4" y="231.42197"/>
     <use style="fill:#ff0000;stroke:#ff0000;" x="168.523636" xlink:href="#m6e5f9fd8f4" y="215.149123"/>
     <use style="fill:#ff0000;stroke:#ff0000;" x="170.026667" xlink:href="#m6e5f9fd8f4" y="214.076671"/>
     <use style="fill:#ff0000;stroke:#ff0000;" x="171.529697" xlink:href="#m6e5f9fd8f4" y="201.195159"/>
     <use style="fill:#ff0000;stroke:#ff0000;" x="173.032727" xlink:href="#m6e5f9fd8f4" y="227.737805"/>
     <use style="fill:#ff0000;stroke:#ff0000;" x="174.535758" xlink:href="#m6e5f9fd8f4" y="225.682317"/>
     <use style="fill:#ff0000;stroke:#ff0000;" x="176.038788" xlink:href="#m6e5f9fd8f4" y="208.61705"/>
     <use style="fill:#ff0000;stroke:#ff0000;" x="177.541818" xlink:href="#m6e5f9fd8f4" y="243.375444"/>
     <use style="fill:#ff0000;stroke:#ff0000;" x="179.044848" xlink:href="#m6e5f9fd8f4" y="206.449101"/>
     <use style="fill:#ff0000;stroke:#ff0000;" x="180.547879" xlink:href="#m6e5f9fd8f4" y="223.717306"/>
     <use style="fill:#ff0000;stroke:#ff0000;" x="182.050909" xlink:href="#m6e5f9fd8f4" y="223.194094"/>
     <use style="fill:#ff0000;stroke:#ff0000;" x="183.553939" xlink:href="#m6e5f9fd8f4" y="227.039413"/>
     <use style="fill:#ff0000;stroke:#ff0000;" x="185.05697" xlink:href="#m6e5f9fd8f4" y="227.010997"/>
     <use style="fill:#ff0000;stroke:#ff0000;" x="186.56" xlink:href="#m6e5f9fd8f4" y="222.083761"/>
     <use style="fill:#ff0000;stroke:#ff0000;" x="188.06303" xlink:href="#m6e5f9fd8f4" y="236.155338"/>
     <use style="fill:#ff0000;stroke:#ff0000;" x="189.566061" xlink:href="#m6e5f9fd8f4" y="234.88423"/>
     <use style="fill:#ff0000;stroke:#ff0000;" x="191.069091" xlink:href="#m6e5f9fd8f4" y="250.009231"/>
     <use style="fill:#ff0000;stroke:#ff0000;" x="192.572121" xlink:href="#m6e5f9fd8f4" y="239.14898"/>
     <use style="fill:#ff0000;stroke:#ff0000;" x="194.075152" xlink:href="#m6e5f9fd8f4" y="248.293871"/>
     <use style="fill:#ff0000;stroke:#ff0000;" x="195.578182" xlink:href="#m6e5f9fd8f4" y="234.543307"/>
     <use style="fill:#ff0000;stroke:#ff0000;" x="197.081212" xlink:href="#m6e5f9fd8f4" y="246.787574"/>
     <use style="fill:#ff0000;stroke:#ff0000;" x="198.584242" xlink:href="#m6e5f9fd8f4" y="235.949604"/>
     <use style="fill:#ff0000;stroke:#ff0000;" x="200.087273" xlink:href="#m6e5f9fd8f4" y="253.967405"/>
     <use style="fill:#ff0000;stroke:#ff0000;" x="201.590303" xlink:href="#m6e5f9fd8f4" y="255.545421"/>
     <use style="fill:#ff0000;stroke:#ff0000;" x="203.093333" xlink:href="#m6e5f9fd8f4" y="253.787985"/>
     <use style="fill:#ff0000;stroke:#ff0000;" x="204.596364" xlink:href="#m6e5f9fd8f4" y="245.815554"/>
     <use style="fill:#ff0000;stroke:#ff0000;" x="206.099394" xlink:href="#m6e5f9fd8f4" y="249.135152"/>
     <use style="fill:#ff0000;stroke:#ff0000;" x="207.602424" xlink:href="#m6e5f9fd8f4" y="259.694389"/>
     <use style="fill:#ff0000;stroke:#ff0000;" x="209.105455" xlink:href="#m6e5f9fd8f4" y="250.411918"/>
     <use style="fill:#ff0000;stroke:#ff0000;" x="210.608485" xlink:href="#m6e5f9fd8f4" y="256.099356"/>
     <use style="fill:#ff0000;stroke:#ff0000;" x="212.111515" xlink:href="#m6e5f9fd8f4" y="245.076425"/>
     <use style="fill:#ff0000;stroke:#ff0000;" x="213.614545" xlink:href="#m6e5f9fd8f4" y="259.335776"/>
     <use style="fill:#ff0000;stroke:#ff0000;" x="215.117576" xlink:href="#m6e5f9fd8f4" y="258.588631"/>
     <use style="fill:#ff0000;stroke:#ff0000;" x="216.620606" xlink:href="#m6e5f9fd8f4" y="248.881691"/>
     <use style="fill:#ff0000;stroke:#ff0000;" x="218.123636" xlink:href="#m6e5f9fd8f4" y="265.843564"/>
     <use style="fill:#ff0000;stroke:#ff0000;" x="219.626667" xlink:href="#m6e5f9fd8f4" y="264.637097"/>
     <use style="fill:#ff0000;stroke:#ff0000;" x="221.129697" xlink:href="#m6e5f9fd8f4" y="262.359124"/>
     <use style="fill:#ff0000;stroke:#ff0000;" x="222.632727" xlink:href="#m6e5f9fd8f4" y="258.762029"/>
     <use style="fill:#ff0000;stroke:#ff0000;" x="224.135758" xlink:href="#m6e5f9fd8f4" y="251.229689"/>
     <use style="fill:#ff0000;stroke:#ff0000;" x="225.638788" xlink:href="#m6e5f9fd8f4" y="260.918517"/>
     <use style="fill:#ff0000;stroke:#ff0000;" x="227.141818" xlink:href="#m6e5f9fd8f4" y="266.432327"/>
     <use style="fill:#ff0000;stroke:#ff0000;" x="228.644848" xlink:href="#m6e5f9fd8f4" y="269.496407"/>
     <use style="fill:#ff0000;stroke:#ff0000;" x="230.147879" xlink:href="#m6e5f9fd8f4" y="271.951964"/>
     <use style="fill:#ff0000;stroke:#ff0000;" x="231.650909" xlink:href="#m6e5f9fd8f4" y="267.764488"/>
     <use style="fill:#ff0000;stroke:#ff0000;" x="233.153939" xlink:href="#m6e5f9fd8f4" y="266.349473"/>
     <use style="fill:#ff0000;stroke:#ff0000;" x="234.65697" xlink:href="#m6e5f9fd8f4" y="264.498422"/>
     <use style="fill:#ff0000;stroke:#ff0000;" x="236.16" xlink:href="#m6e5f9fd8f4" y="264.03992"/>
     <use style="fill:#ff0000;stroke:#ff0000;" x="237.66303" xlink:href="#m6e5f9fd8f4" y="273.718424"/>
     <use style="fill:#ff0000;stroke:#ff0000;" x="239.166061" xlink:href="#m6e5f9fd8f4" y="275.196877"/>
     <use style="fill:#ff0000;stroke:#ff0000;" x="240.669091" xlink:href="#m6e5f9fd8f4" y="275.358735"/>
     <use style="fill:#ff0000;stroke:#ff0000;" x="242.172121" xlink:href="#m6e5f9fd8f4" y="269.681726"/>
     <use style="fill:#ff0000;stroke:#ff0000;" x="243.675152" xlink:href="#m6e5f9fd8f4" y="277.585431"/>
     <use style="fill:#ff0000;stroke:#ff0000;" x="245.178182" xlink:href="#m6e5f9fd8f4" y="261.718724"/>
     <use style="fill:#ff0000;stroke:#ff0000;" x="246.681212" xlink:href="#m6e5f9fd8f4" y="269.342464"/>
     <use style="fill:#ff0000;stroke:#ff0000;" x="248.184242" xlink:href="#m6e5f9fd8f4" y="275.088837"/>
     <use style="fill:#ff0000;stroke:#ff0000;" x="249.687273" xlink:href="#m6e5f9fd8f4" y="278.744949"/>
     <use style="fill:#ff0000;stroke:#ff0000;" x="251.190303" xlink:href="#m6e5f9fd8f4" y="283.100656"/>
     <use style="fill:#ff0000;stroke:#ff0000;" x="252.693333" xlink:href="#m6e5f9fd8f4" y="276.732118"/>
     <use style="fill:#ff0000;stroke:#ff0000;" x="254.196364" xlink:href="#m6e5f9fd8f4" y="282.200502"/>
     <use style="fill:#ff0000;stroke:#ff0000;" x="255.699394" xlink:href="#m6e5f9fd8f4" y="274.384139"/>
     <use style="fill:#ff0000;stroke:#ff0000;" x="257.202424" xlink:href="#m6e5f9fd8f4" y="282.610475"/>
     <use style="fill:#ff0000;stroke:#ff0000;" x="258.705455" xlink:href="#m6e5f9fd8f4" y="286.35519"/>
     <use style="fill:#ff0000;stroke:#ff0000;" x="260.208485" xlink:href="#m6e5f9fd8f4" y="281.060508"/>
     <use style="fill:#ff0000;stroke:#ff0000;" x="261.711515" xlink:href="#m6e5f9fd8f4" y="286.914953"/>
     <use style="fill:#ff0000;stroke:#ff0000;" x="263.214545" xlink:href="#m6e5f9fd8f4" y="276.340309"/>
     <use style="fill:#ff0000;stroke:#ff0000;" x="264.717576" xlink:href="#m6e5f9fd8f4" y="284.16337"/>
     <use style="fill:#ff0000;stroke:#ff0000;" x="266.220606" xlink:href="#m6e5f9fd8f4" y="287.858829"/>
     <use style="fill:#ff0000;stroke:#ff0000;" x="267.723636" xlink:href="#m6e5f9fd8f4" y="291.823836"/>
     <use style="fill:#ff0000;stroke:#ff0000;" x="269.226667" xlink:href="#m6e5f9fd8f4" y="287.709832"/>
     <use style="fill:#ff0000;stroke:#ff0000;" x="270.729697" xlink:href="#m6e5f9fd8f4" y="274.60293"/>
     <use style="fill:#ff0000;stroke:#ff0000;" x="272.232727" xlink:href="#m6e5f9fd8f4" y="279.932332"/>
     <use style="fill:#ff0000;stroke:#ff0000;" x="273.735758" xlink:href="#m6e5f9fd8f4" y="278.702381"/>
     <use style="fill:#ff0000;stroke:#ff0000;" x="275.238788" xlink:href="#m6e5f9fd8f4" y="292.916528"/>
     <use style="fill:#ff0000;stroke:#ff0000;" x="276.741818" xlink:href="#m6e5f9fd8f4" y="280.054267"/>
     <use style="fill:#ff0000;stroke:#ff0000;" x="278.244848" xlink:href="#m6e5f9fd8f4" y="279.573119"/>
     <use style="fill:#ff0000;stroke:#ff0000;" x="279.747879" xlink:href="#m6e5f9fd8f4" y="282.482024"/>
     <use style="fill:#ff0000;stroke:#ff0000;" x="281.250909" xlink:href="#m6e5f9fd8f4" y="292.141781"/>
     <use style="fill:#ff0000;stroke:#ff0000;" x="282.753939" xlink:href="#m6e5f9fd8f4" y="278.268546"/>
     <use style="fill:#ff0000;stroke:#ff0000;" x="284.25697" xlink:href="#m6e5f9fd8f4" y="291.987034"/>
     <use style="fill:#ff0000;stroke:#ff0000;" x="285.76" xlink:href="#m6e5f9fd8f4" y="289.788767"/>
     <use style="fill:#ff0000;stroke:#ff0000;" x="287.26303" xlink:href="#m6e5f9fd8f4" y="295.488"/>
     <use style="fill:#ff0000;stroke:#ff0000;" x="288.766061" xlink:href="#m6e5f9fd8f4" y="278.631059"/>
     <use style="fill:#ff0000;stroke:#ff0000;" x="290.269091" xlink:href="#m6e5f9fd8f4" y="277.285425"/>
     <use style="fill:#ff0000;stroke:#ff0000;" x="291.772121" xlink:href="#m6e5f9fd8f4" y="290.438185"/>
     <use style="fill:#ff0000;stroke:#ff0000;" x="293.275152" xlink:href="#m6e5f9fd8f4" y="285.615169"/>
     <use style="fill:#ff0000;stroke:#ff0000;" x="294.778182" xlink:href="#m6e5f9fd8f4" y="276.893622"/>
     <use style="fill:#ff0000;stroke:#ff0000;" x="296.281212" xlink:href="#m6e5f9fd8f4" y="293.952733"/>
     <use style="fill:#ff0000;stroke:#ff0000;" x="297.784242" xlink:href="#m6e5f9fd8f4" y="282.35385"/>
     <use style="fill:#ff0000;stroke:#ff0000;" x="299.287273" xlink:href="#m6e5f9fd8f4" y="288.855071"/>
     <use style="fill:#ff0000;stroke:#ff0000;" x="300.790303" xlink:href="#m6e5f9fd8f4" y="280.242374"/>
     <use style="fill:#ff0000;stroke:#ff0000;" x="302.293333" xlink:href="#m6e5f9fd8f4" y="286.476072"/>
     <use style="fill:#ff0000;stroke:#ff0000;" x="303.796364" xlink:href="#m6e5f9fd8f4" y="279.184617"/>
     <use style="fill:#ff0000;stroke:#ff0000;" x="305.299394" xlink:href="#m6e5f9fd8f4" y="286.787724"/>
     <use style="fill:#ff0000;stroke:#ff0000;" x="306.802424" xlink:href="#m6e5f9fd8f4" y="287.909081"/>
     <use style="fill:#ff0000;stroke:#ff0000;" x="308.305455" xlink:href="#m6e5f9fd8f4" y="284.019083"/>
     <use style="fill:#ff0000;stroke:#ff0000;" x="309.808485" xlink:href="#m6e5f9fd8f4" y="281.589444"/>
     <use style="fill:#ff0000;stroke:#ff0000;" x="311.311515" xlink:href="#m6e5f9fd8f4" y="281.333647"/>
     <use style="fill:#ff0000;stroke:#ff0000;" x="312.814545" xlink:href="#m6e5f9fd8f4" y="280.992768"/>
     <use style="fill:#ff0000;stroke:#ff0000;" x="314.317576" xlink:href="#m6e5f9fd8f4" y="282.861338"/>
     <use style="fill:#ff0000;stroke:#ff0000;" x="315.820606" xlink:href="#m6e5f9fd8f4" y="279.791832"/>
     <use style="fill:#ff0000;stroke:#ff0000;" x="317.323636" xlink:href="#m6e5f9fd8f4" y="285.13793"/>
     <use style="fill:#ff0000;stroke:#ff0000;" x="318.826667" xlink:href="#m6e5f9fd8f4" y="285.058302"/>
     <use style="fill:#ff0000;stroke:#ff0000;" x="320.329697" xlink:href="#m6e5f9fd8f4" y="289.021983"/>
     <use style="fill:#ff0000;stroke:#ff0000;" x="321.832727" xlink:href="#m6e5f9fd8f4" y="279.330444"/>
     <use style="fill:#ff0000;stroke:#ff0000;" x="323.335758" xlink:href="#m6e5f9fd8f4" y="278.236727"/>
     <use style="fill:#ff0000;stroke:#ff0000;" x="324.838788" xlink:href="#m6e5f9fd8f4" y="285.879773"/>
     <use style="fill:#ff0000;stroke:#ff0000;" x="326.341818" xlink:href="#m6e5f9fd8f4" y="277.352155"/>
     <use style="fill:#ff0000;stroke:#ff0000;" x="327.844848" xlink:href="#m6e5f9fd8f4" y="280.261367"/>
     <use style="fill:#ff0000;stroke:#ff0000;" x="329.347879" xlink:href="#m6e5f9fd8f4" y="274.79224"/>
     <use style="fill:#ff0000;stroke:#ff0000;" x="330.850909" xlink:href="#m6e5f9fd8f4" y="281.616178"/>
     <use style="fill:#ff0000;stroke:#ff0000;" x="332.353939" xlink:href="#m6e5f9fd8f4" y="277.164876"/>
     <use style="fill:#ff0000;stroke:#ff0000;" x="333.85697" xlink:href="#m6e5f9fd8f4" y="275.978787"/>
     <use style="fill:#ff0000;stroke:#ff0000;" x="335.36" xlink:href="#m6e5f9fd8f4" y="285.845768"/>
     <use style="fill:#ff0000;stroke:#ff0000;" x="336.86303" xlink:href="#m6e5f9fd8f4" y="285.293468"/>
     <use style="fill:#ff0000;stroke:#ff0000;" x="338.366061" xlink:href="#m6e5f9fd8f4" y="274.543153"/>
     <use style="fill:#ff0000;stroke:#ff0000;" x="339.869091" xlink:href="#m6e5f9fd8f4" y="285.644638"/>
     <use style="fill:#ff0000;stroke:#ff0000;" x="341.372121" xlink:href="#m6e5f9fd8f4" y="274.217559"/>
     <use style="fill:#ff0000;stroke:#ff0000;" x="342.875152" xlink:href="#m6e5f9fd8f4" y="283.143597"/>
     <use style="fill:#ff0000;stroke:#ff0000;" x="344.378182" xlink:href="#m6e5f9fd8f4" y="284.692909"/>
     <use style="fill:#ff0000;stroke:#ff0000;" x="345.881212" xlink:href="#m6e5f9fd8f4" y="282.096023"/>
     <use style="fill:#ff0000;stroke:#ff0000;" x="347.384242" xlink:href="#m6e5f9fd8f4" y="275.628333"/>
     <use style="fill:#ff0000;stroke:#ff0000;" x="348.887273" xlink:href="#m6e5f9fd8f4" y="285.449115"/>
     <use style="fill:#ff0000;stroke:#ff0000;" x="350.390303" xlink:href="#m6e5f9fd8f4" y="269.832895"/>
     <use style="fill:#ff0000;stroke:#ff0000;" x="351.893333" xlink:href="#m6e5f9fd8f4" y="274.848778"/>
     <use style="fill:#ff0000;stroke:#ff0000;" x="353.396364" xlink:href="#m6e5f9fd8f4" y="267.257781"/>
     <use style="fill:#ff0000;stroke:#ff0000;" x="354.899394" xlink:href="#m6e5f9fd8f4" y="270.333023"/>
     <use style="fill:#ff0000;stroke:#ff0000;" x="356.402424" xlink:href="#m6e5f9fd8f4" y="275.790185"/>
     <use style="fill:#ff0000;stroke:#ff0000;" x="357.905455" xlink:href="#m6e5f9fd8f4" y="264.780121"/>
     <use style="fill:#ff0000;stroke:#ff0000;" x="359.408485" xlink:href="#m6e5f9fd8f4" y="262.615782"/>
     <use style="fill:#ff0000;stroke:#ff0000;" x="360.911515" xlink:href="#m6e5f9fd8f4" y="275.722261"/>
     <use style="fill:#ff0000;stroke:#ff0000;" x="362.414545" xlink:href="#m6e5f9fd8f4" y="260.169483"/>
     <use style="fill:#ff0000;stroke:#ff0000;" x="363.917576" xlink:href="#m6e5f9fd8f4" y="272.751631"/>
     <use style="fill:#ff0000;stroke:#ff0000;" x="365.420606" xlink:href="#m6e5f9fd8f4" y="265.130678"/>
     <use style="fill:#ff0000;stroke:#ff0000;" x="366.923636" xlink:href="#m6e5f9fd8f4" y="258.665075"/>
     <use style="fill:#ff0000;stroke:#ff0000;" x="368.426667" xlink:href="#m6e5f9fd8f4" y="261.56027"/>
     <use style="fill:#ff0000;stroke:#ff0000;" x="369.929697" xlink:href="#m6e5f9fd8f4" y="263.055978"/>
     <use style="fill:#ff0000;stroke:#ff0000;" x="371.432727" xlink:href="#m6e5f9fd8f4" y="264.153565"/>
     <use style="fill:#ff0000;stroke:#ff0000;" x="372.935758" xlink:href="#m6e5f9fd8f4" y="265.780188"/>
     <use style="fill:#ff0000;stroke:#ff0000;" x="374.438788" xlink:href="#m6e5f9fd8f4" y="260.012185"/>
     <use style="fill:#ff0000;stroke:#ff0000;" x="375.941818" xlink:href="#m6e5f9fd8f4" y="268.312233"/>
     <use style="fill:#ff0000;stroke:#ff0000;" x="377.444848" xlink:href="#m6e5f9fd8f4" y="267.228849"/>
     <use style="fill:#ff0000;stroke:#ff0000;" x="378.947879" xlink:href="#m6e5f9fd8f4" y="260.885685"/>
     <use style="fill:#ff0000;stroke:#ff0000;" x="380.450909" xlink:href="#m6e5f9fd8f4" y="258.466964"/>
     <use style="fill:#ff0000;stroke:#ff0000;" x="381.953939" xlink:href="#m6e5f9fd8f4" y="250.142944"/>
     <use style="fill:#ff0000;stroke:#ff0000;" x="383.45697" xlink:href="#m6e5f9fd8f4" y="259.99849"/>
     <use style="fill:#ff0000;stroke:#ff0000;" x="384.96" xlink:href="#m6e5f9fd8f4" y="257.191245"/>
     <use style="fill:#ff0000;stroke:#ff0000;" x="386.46303" xlink:href="#m6e5f9fd8f4" y="253.542952"/>
     <use style="fill:#ff0000;stroke:#ff0000;" x="387.966061" xlink:href="#m6e5f9fd8f4" y="255.493089"/>
     <use style="fill:#ff0000;stroke:#ff0000;" x="389.469091" xlink:href="#m6e5f9fd8f4" y="253.427214"/>
     <use style="fill:#ff0000;stroke:#ff0000;" x="390.972121" xlink:href="#m6e5f9fd8f4" y="252.592907"/>
     <use style="fill:#ff0000;stroke:#ff0000;" x="392.475152" xlink:href="#m6e5f9fd8f4" y="253.924783"/>
     <use style="fill:#ff0000;stroke:#ff0000;" x="393.978182" xlink:href="#m6e5f9fd8f4" y="242.710375"/>
     <use style="fill:#ff0000;stroke:#ff0000;" x="395.481212" xlink:href="#m6e5f9fd8f4" y="253.264132"/>
     <use style="fill:#ff0000;stroke:#ff0000;" x="396.984242" xlink:href="#m6e5f9fd8f4" y="242.939841"/>
     <use style="fill:#ff0000;stroke:#ff0000;" x="398.487273" xlink:href="#m6e5f9fd8f4" y="246.922277"/>
    </g>
   </g>
   <g id="line2d_15">
    <path clip-path="url(#p774ee72a5a)" d="M 73.832727 77.467407 
L 81.347879 91.289828 
L 88.86303 104.639323 
L 96.378182 117.515893 
L 103.893333 129.919539 
L 111.408485 141.850259 
L 118.923636 153.308054 
L 126.438788 164.292924 
L 133.953939 174.804869 
L 139.966061 182.873919 
L 145.978182 190.640297 
L 151.990303 198.104003 
L 158.002424 205.265037 
L 164.014545 212.123399 
L 170.026667 218.679089 
L 176.038788 224.932107 
L 182.050909 230.882453 
L 188.06303 236.530126 
L 194.075152 241.875128 
L 200.087273 246.917458 
L 206.099394 251.657115 
L 212.111515 256.094101 
L 218.123636 260.228415 
L 224.135758 264.060056 
L 230.147879 267.589026 
L 236.16 270.815323 
L 242.172121 273.738949 
L 248.184242 276.359902 
L 254.196364 278.678183 
L 260.208485 280.693793 
L 266.220606 282.40673 
L 272.232727 283.816995 
L 276.741818 284.676066 
L 281.250909 285.364883 
L 285.76 285.883447 
L 290.269091 286.231759 
L 294.778182 286.409817 
L 299.287273 286.417622 
L 303.796364 286.255175 
L 308.305455 285.922474 
L 312.814545 285.41952 
L 317.323636 284.746314 
L 321.832727 283.902854 
L 327.844848 282.513403 
L 333.85697 280.82128 
L 339.869091 278.826484 
L 345.881212 276.529017 
L 351.893333 273.928878 
L 357.905455 271.026067 
L 363.917576 267.820584 
L 369.929697 264.312428 
L 375.941818 260.501601 
L 381.953939 256.388102 
L 387.966061 251.97193 
L 393.978182 247.253087 
L 398.487273 243.515326 
L 398.487273 243.515326 
" style="fill:none;stroke:#008000;stroke-linecap:square;stroke-width:1.5;"/>
   </g>
   <g id="patch_3">
    <path d="M 57.6 307.584 
L 57.6 41.472 
" style="fill:none;stroke:#000000;stroke-linecap:square;stroke-linejoin:miter;stroke-width:0.8;"/>
   </g>
   <g id="patch_4">
    <path d="M 414.72 307.584 
L 414.72 41.472 
" style="fill:none;stroke:#000000;stroke-linecap:square;stroke-linejoin:miter;stroke-width:0.8;"/>
   </g>
   <g id="patch_5">
    <path d="M 57.6 307.584 
L 414.72 307.584 
" style="fill:none;stroke:#000000;stroke-linecap:square;stroke-linejoin:miter;stroke-width:0.8;"/>
   </g>
   <g id="patch_6">
    <path d="M 57.6 41.472 
L 414.72 41.472 
" style="fill:none;stroke:#000000;stroke-linecap:square;stroke-linejoin:miter;stroke-width:0.8;"/>
   </g>
   <g id="text_16">
    <!-- FunctionFitting 34 -->
    <defs>
     <path d="M 9.8125 72.90625 
L 51.703125 72.90625 
L 51.703125 64.59375 
L 19.671875 64.59375 
L 19.671875 43.109375 
L 48.578125 43.109375 
L 48.578125 34.8125 
L 19.671875 34.8125 
L 19.671875 0 
L 9.8125 0 
z
" id="DejaVuSans-70"/>
     <path d="M 54.890625 33.015625 
L 54.890625 0 
L 45.90625 0 
L 45.90625 32.71875 
Q 45.90625 40.484375 42.875 44.328125 
Q 39.84375 48.1875 33.796875 48.1875 
Q 26.515625 48.1875 22.3125 43.546875 
Q 18.109375 38.921875 18.109375 30.90625 
L 18.109375 0 
L 9.078125 0 
L 9.078125 54.6875 
L 18.109375 54.6875 
L 18.109375 46.1875 
Q 21.34375 51.125 25.703125 53.5625 
Q 30.078125 56 35.796875 56 
Q 45.21875 56 50.046875 50.171875 
Q 54.890625 44.34375 54.890625 33.015625 
z
" id="DejaVuSans-110"/>
     <path d="M 48.78125 52.59375 
L 48.78125 44.1875 
Q 44.96875 46.296875 41.140625 47.34375 
Q 37.3125 48.390625 33.40625 48.390625 
Q 24.65625 48.390625 19.8125 42.84375 
Q 14.984375 37.3125 14.984375 27.296875 
Q 14.984375 17.28125 19.8125 11.734375 
Q 24.65625 6.203125 33.40625 6.203125 
Q 37.3125 6.203125 41.140625 7.25 
Q 44.96875 8.296875 48.78125 10.40625 
L 48.78125 2.09375 
Q 45.015625 0.34375 40.984375 -0.53125 
Q 36.96875 -1.421875 32.421875 -1.421875 
Q 20.0625 -1.421875 12.78125 6.34375 
Q 5.515625 14.109375 5.515625 27.296875 
Q 5.515625 40.671875 12.859375 48.328125 
Q 20.21875 56 33.015625 56 
Q 37.15625 56 41.109375 55.140625 
Q 45.0625 54.296875 48.78125 52.59375 
z
" id="DejaVuSans-99"/>
     <path d="M 18.3125 70.21875 
L 18.3125 54.6875 
L 36.8125 54.6875 
L 36.8125 47.703125 
L 18.3125 47.703125 
L 18.3125 18.015625 
Q 18.3125 11.328125 20.140625 9.421875 
Q 21.96875 7.515625 27.59375 7.515625 
L 36.8125 7.515625 
L 36.8125 0 
L 27.59375 0 
Q 17.1875 0 13.234375 3.875 
Q 9.28125 7.765625 9.28125 18.015625 
L 9.28125 47.703125 
L 2.6875 47.703125 
L 2.6875 54.6875 
L 9.28125 54.6875 
L 9.28125 70.21875 
z
" id="DejaVuSans-116"/>
     <path d="M 9.421875 54.6875 
L 18.40625 54.6875 
L 18.40625 0 
L 9.421875 0 
z
M 9.421875 75.984375 
L 18.40625 75.984375 
L 18.40625 64.59375 
L 9.421875 64.59375 
z
" id="DejaVuSans-105"/>
     <path d="M 30.609375 48.390625 
Q 23.390625 48.390625 19.1875 42.75 
Q 14.984375 37.109375 14.984375 27.296875 
Q 14.984375 17.484375 19.15625 11.84375 
Q 23.34375 6.203125 30.609375 6.203125 
Q 37.796875 6.203125 41.984375 11.859375 
Q 46.1875 17.53125 46.1875 27.296875 
Q 46.1875 37.015625 41.984375 42.703125 
Q 37.796875 48.390625 30.609375 48.390625 
z
M 30.609375 56 
Q 42.328125 56 49.015625 48.375 
Q 55.71875 40.765625 55.71875 27.296875 
Q 55.71875 13.875 49.015625 6.21875 
Q 42.328125 -1.421875 30.609375 -1.421875 
Q 18.84375 -1.421875 12.171875 6.21875 
Q 5.515625 13.875 5.515625 27.296875 
Q 5.515625 40.765625 12.171875 48.375 
Q 18.84375 56 30.609375 56 
z
" id="DejaVuSans-111"/>
     <path d="M 45.40625 27.984375 
Q 45.40625 37.75 41.375 43.109375 
Q 37.359375 48.484375 30.078125 48.484375 
Q 22.859375 48.484375 18.828125 43.109375 
Q 14.796875 37.75 14.796875 27.984375 
Q 14.796875 18.265625 18.828125 12.890625 
Q 22.859375 7.515625 30.078125 7.515625 
Q 37.359375 7.515625 41.375 12.890625 
Q 45.40625 18.265625 45.40625 27.984375 
z
M 54.390625 6.78125 
Q 54.390625 -7.171875 48.1875 -13.984375 
Q 42 -20.796875 29.203125 -20.796875 
Q 24.46875 -20.796875 20.265625 -20.09375 
Q 16.0625 -19.390625 12.109375 -17.921875 
L 12.109375 -9.1875 
Q 16.0625 -11.328125 19.921875 -12.34375 
Q 23.78125 -13.375 27.78125 -13.375 
Q 36.625 -13.375 41.015625 -8.765625 
Q 45.40625 -4.15625 45.40625 5.171875 
L 45.40625 9.625 
Q 42.625 4.78125 38.28125 2.390625 
Q 33.9375 0 27.875 0 
Q 17.828125 0 11.671875 7.65625 
Q 5.515625 15.328125 5.515625 27.984375 
Q 5.515625 40.671875 11.671875 48.328125 
Q 17.828125 56 27.875 56 
Q 33.9375 56 38.28125 53.609375 
Q 42.625 51.21875 45.40625 46.390625 
L 45.40625 54.6875 
L 54.390625 54.6875 
z
" id="DejaVuSans-103"/>
    </defs>
    <g transform="translate(181.680937 35.472)scale(0.12 -0.12)">
     <use xlink:href="#DejaVuSans-70"/>
     <use x="57.441406" xlink:href="#DejaVuSans-117"/>
     <use x="120.820312" xlink:href="#DejaVuSans-110"/>
     <use x="184.199219" xlink:href="#DejaVuSans-99"/>
     <use x="239.179688" xlink:href="#DejaVuSans-116"/>
     <use x="278.388672" xlink:href="#DejaVuSans-105"/>
     <use x="306.171875" xlink:href="#DejaVuSans-111"/>
     <use x="367.353516" xlink:href="#DejaVuSans-110"/>
     <use x="430.732422" xlink:href="#DejaVuSans-70"/>
     <use x="488.142578" xlink:href="#DejaVuSans-105"/>
     <use x="515.925781" xlink:href="#DejaVuSans-116"/>
     <use x="555.134766" xlink:href="#DejaVuSans-116"/>
     <use x="594.34375" xlink:href="#DejaVuSans-105"/>
     <use x="622.126953" xlink:href="#DejaVuSans-110"/>
     <use x="685.505859" xlink:href="#DejaVuSans-103"/>
     <use x="748.982422" xlink:href="#DejaVuSans-32"/>
     <use x="780.769531" xlink:href="#DejaVuSans-51"/>
     <use x="844.392578" xlink:href="#DejaVuSans-52"/>
    </g>
   </g>
   <g id="legend_1">
    <g id="patch_7">
     <path d="M 299.83875 78.82825 
L 407.72 78.82825 
Q 409.72 78.82825 409.72 76.82825 
L 409.72 48.472 
Q 409.72 46.472 407.72 46.472 
L 299.83875 46.472 
Q 297.83875 46.472 297.83875 48.472 
L 297.83875 76.82825 
Q 297.83875 78.82825 299.83875 78.82825 
z
" style="fill:#ffffff;opacity:0.8;stroke:#cccccc;stroke-linejoin:miter;"/>
    </g>
    <g id="line2d_16"/>
    <g id="line2d_17">
     <g>
      <use style="fill:#ff0000;stroke:#ff0000;" x="311.83875" xlink:href="#m6e5f9fd8f4" y="54.570437"/>
     </g>
    </g>
    <g id="text_17">
     <!-- measured data -->
     <defs>
      <path d="M 52 44.1875 
Q 55.375 50.25 60.0625 53.125 
Q 64.75 56 71.09375 56 
Q 79.640625 56 84.28125 50.015625 
Q 88.921875 44.046875 88.921875 33.015625 
L 88.921875 0 
L 79.890625 0 
L 79.890625 32.71875 
Q 79.890625 40.578125 77.09375 44.375 
Q 74.3125 48.1875 68.609375 48.1875 
Q 61.625 48.1875 57.5625 43.546875 
Q 53.515625 38.921875 53.515625 30.90625 
L 53.515625 0 
L 44.484375 0 
L 44.484375 32.71875 
Q 44.484375 40.625 41.703125 44.40625 
Q 38.921875 48.1875 33.109375 48.1875 
Q 26.21875 48.1875 22.15625 43.53125 
Q 18.109375 38.875 18.109375 30.90625 
L 18.109375 0 
L 9.078125 0 
L 9.078125 54.6875 
L 18.109375 54.6875 
L 18.109375 46.1875 
Q 21.1875 51.21875 25.484375 53.609375 
Q 29.78125 56 35.6875 56 
Q 41.65625 56 45.828125 52.96875 
Q 50 49.953125 52 44.1875 
z
" id="DejaVuSans-109"/>
      <path d="M 41.109375 46.296875 
Q 39.59375 47.171875 37.8125 47.578125 
Q 36.03125 48 33.890625 48 
Q 26.265625 48 22.1875 43.046875 
Q 18.109375 38.09375 18.109375 28.8125 
L 18.109375 0 
L 9.078125 0 
L 9.078125 54.6875 
L 18.109375 54.6875 
L 18.109375 46.1875 
Q 20.953125 51.171875 25.484375 53.578125 
Q 30.03125 56 36.53125 56 
Q 37.453125 56 38.578125 55.875 
Q 39.703125 55.765625 41.0625 55.515625 
z
" id="DejaVuSans-114"/>
      <path d="M 45.40625 46.390625 
L 45.40625 75.984375 
L 54.390625 75.984375 
L 54.390625 0 
L 45.40625 0 
L 45.40625 8.203125 
Q 42.578125 3.328125 38.25 0.953125 
Q 33.9375 -1.421875 27.875 -1.421875 
Q 17.96875 -1.421875 11.734375 6.484375 
Q 5.515625 14.40625 5.515625 27.296875 
Q 5.515625 40.1875 11.734375 48.09375 
Q 17.96875 56 27.875 56 
Q 33.9375 56 38.25 53.625 
Q 42.578125 51.265625 45.40625 46.390625 
z
M 14.796875 27.296875 
Q 14.796875 17.390625 18.875 11.75 
Q 22.953125 6.109375 30.078125 6.109375 
Q 37.203125 6.109375 41.296875 11.75 
Q 45.40625 17.390625 45.40625 27.296875 
Q 45.40625 37.203125 41.296875 42.84375 
Q 37.203125 48.484375 30.078125 48.484375 
Q 22.953125 48.484375 18.875 42.84375 
Q 14.796875 37.203125 14.796875 27.296875 
z
" id="DejaVuSans-100"/>
     </defs>
     <g transform="translate(329.83875 58.070437)scale(0.1 -0.1)">
      <use xlink:href="#DejaVuSans-109"/>
      <use x="97.412109" xlink:href="#DejaVuSans-101"/>
      <use x="158.935547" xlink:href="#DejaVuSans-97"/>
      <use x="220.214844" xlink:href="#DejaVuSans-115"/>
      <use x="272.314453" xlink:href="#DejaVuSans-117"/>
      <use x="335.693359" xlink:href="#DejaVuSans-114"/>
      <use x="376.775391" xlink:href="#DejaVuSans-101"/>
      <use x="438.298828" xlink:href="#DejaVuSans-100"/>
      <use x="501.775391" xlink:href="#DejaVuSans-32"/>
      <use x="533.5625" xlink:href="#DejaVuSans-100"/>
      <use x="597.039062" xlink:href="#DejaVuSans-97"/>
      <use x="658.318359" xlink:href="#DejaVuSans-116"/>
      <use x="697.527344" xlink:href="#DejaVuSans-97"/>
     </g>
    </g>
    <g id="line2d_18">
     <path d="M 301.83875 69.248562 
L 321.83875 69.248562 
" style="fill:none;stroke:#008000;stroke-linecap:square;stroke-width:1.5;"/>
    </g>
    <g id="line2d_19"/>
    <g id="text_18">
     <!-- linear data -->
     <g transform="translate(329.83875 72.748562)scale(0.1 -0.1)">
      <use xlink:href="#DejaVuSans-108"/>
      <use x="27.783203" xlink:href="#DejaVuSans-105"/>
      <use x="55.566406" xlink:href="#DejaVuSans-110"/>
      <use x="118.945312" xlink:href="#DejaVuSans-101"/>
      <use x="180.46875" xlink:href="#DejaVuSans-97"/>
      <use x="241.748047" xlink:href="#DejaVuSans-114"/>
      <use x="282.861328" xlink:href="#DejaVuSans-32"/>
      <use x="314.648438" xlink:href="#DejaVuSans-100"/>
      <use x="378.125" xlink:href="#DejaVuSans-97"/>
      <use x="439.404297" xlink:href="#DejaVuSans-116"/>
      <use x="478.613281" xlink:href="#DejaVuSans-97"/>
     </g>
    </g>
   </g>
  </g>
 </g>
 <defs>
  <clipPath id="p774ee72a5a">
   <rect height="266.112" width="357.12" x="57.6" y="41.472"/>
  </clipPath>
 </defs>
</svg>
