<?xml version="1.0" encoding="utf-8" standalone="no"?>
<!DOCTYPE svg PUBLIC "-//W3C//DTD SVG 1.1//EN"
  "http://www.w3.org/Graphics/SVG/1.1/DTD/svg11.dtd">
<!-- Created with matplotlib (https://matplotlib.org/) -->
<svg height="345.6pt" version="1.1" viewBox="0 0 460.8 345.6" width="460.8pt" xmlns="http://www.w3.org/2000/svg" xmlns:xlink="http://www.w3.org/1999/xlink">
 <defs>
  <style type="text/css">
*{stroke-linecap:butt;stroke-linejoin:round;}
  </style>
 </defs>
 <g id="figure_1">
  <g id="patch_1">
   <path d="M 0 345.6 
L 460.8 345.6 
L 460.8 0 
L 0 0 
z
" style="fill:#ffffff;"/>
  </g>
  <g id="axes_1">
   <g id="patch_2">
    <path d="M 57.6 307.584 
L 414.72 307.584 
L 414.72 41.472 
L 57.6 41.472 
z
" style="fill:#ffffff;"/>
   </g>
   <g id="matplotlib.axis_1">
    <g id="xtick_1">
     <g id="line2d_1">
      <defs>
       <path d="M 0 0 
L 0 3.5 
" id="mfffad60b8d" style="stroke:#000000;stroke-width:0.8;"/>
      </defs>
      <g>
       <use style="stroke:#000000;stroke-width:0.8;" x="120.565323" xlink:href="#mfffad60b8d" y="307.584"/>
      </g>
     </g>
     <g id="text_1">
      <!-- 20 -->
      <defs>
       <path d="M 19.1875 8.296875 
L 53.609375 8.296875 
L 53.609375 0 
L 7.328125 0 
L 7.328125 8.296875 
Q 12.9375 14.109375 22.625 23.890625 
Q 32.328125 33.6875 34.8125 36.53125 
Q 39.546875 41.84375 41.421875 45.53125 
Q 43.3125 49.21875 43.3125 52.78125 
Q 43.3125 58.59375 39.234375 62.25 
Q 35.15625 65.921875 28.609375 65.921875 
Q 23.96875 65.921875 18.8125 64.3125 
Q 13.671875 62.703125 7.8125 59.421875 
L 7.8125 69.390625 
Q 13.765625 71.78125 18.9375 73 
Q 24.125 74.21875 28.421875 74.21875 
Q 39.75 74.21875 46.484375 68.546875 
Q 53.21875 62.890625 53.21875 53.421875 
Q 53.21875 48.921875 51.53125 44.890625 
Q 49.859375 40.875 45.40625 35.40625 
Q 44.1875 33.984375 37.640625 27.21875 
Q 31.109375 20.453125 19.1875 8.296875 
z
" id="DejaVuSans-50"/>
       <path d="M 31.78125 66.40625 
Q 24.171875 66.40625 20.328125 58.90625 
Q 16.5 51.421875 16.5 36.375 
Q 16.5 21.390625 20.328125 13.890625 
Q 24.171875 6.390625 31.78125 6.390625 
Q 39.453125 6.390625 43.28125 13.890625 
Q 47.125 21.390625 47.125 36.375 
Q 47.125 51.421875 43.28125 58.90625 
Q 39.453125 66.40625 31.78125 66.40625 
z
M 31.78125 74.21875 
Q 44.046875 74.21875 50.515625 64.515625 
Q 56.984375 54.828125 56.984375 36.375 
Q 56.984375 17.96875 50.515625 8.265625 
Q 44.046875 -1.421875 31.78125 -1.421875 
Q 19.53125 -1.421875 13.0625 8.265625 
Q 6.59375 17.96875 6.59375 36.375 
Q 6.59375 54.828125 13.0625 64.515625 
Q 19.53125 74.21875 31.78125 74.21875 
z
" id="DejaVuSans-48"/>
      </defs>
      <g transform="translate(114.202823 322.182437)scale(0.1 -0.1)">
       <use xlink:href="#DejaVuSans-50"/>
       <use x="63.623047" xlink:href="#DejaVuSans-48"/>
      </g>
     </g>
    </g>
    <g id="xtick_2">
     <g id="line2d_2">
      <g>
       <use style="stroke:#000000;stroke-width:0.8;" x="198.333253" xlink:href="#mfffad60b8d" y="307.584"/>
      </g>
     </g>
     <g id="text_2">
      <!-- 40 -->
      <defs>
       <path d="M 37.796875 64.3125 
L 12.890625 25.390625 
L 37.796875 25.390625 
z
M 35.203125 72.90625 
L 47.609375 72.90625 
L 47.609375 25.390625 
L 58.015625 25.390625 
L 58.015625 17.1875 
L 47.609375 17.1875 
L 47.609375 0 
L 37.796875 0 
L 37.796875 17.1875 
L 4.890625 17.1875 
L 4.890625 26.703125 
z
" id="DejaVuSans-52"/>
      </defs>
      <g transform="translate(191.970753 322.182437)scale(0.1 -0.1)">
       <use xlink:href="#DejaVuSans-52"/>
       <use x="63.623047" xlink:href="#DejaVuSans-48"/>
      </g>
     </g>
    </g>
    <g id="xtick_3">
     <g id="line2d_3">
      <g>
       <use style="stroke:#000000;stroke-width:0.8;" x="276.101184" xlink:href="#mfffad60b8d" y="307.584"/>
      </g>
     </g>
     <g id="text_3">
      <!-- 60 -->
      <defs>
       <path d="M 33.015625 40.375 
Q 26.375 40.375 22.484375 35.828125 
Q 18.609375 31.296875 18.609375 23.390625 
Q 18.609375 15.53125 22.484375 10.953125 
Q 26.375 6.390625 33.015625 6.390625 
Q 39.65625 6.390625 43.53125 10.953125 
Q 47.40625 15.53125 47.40625 23.390625 
Q 47.40625 31.296875 43.53125 35.828125 
Q 39.65625 40.375 33.015625 40.375 
z
M 52.59375 71.296875 
L 52.59375 62.3125 
Q 48.875 64.0625 45.09375 64.984375 
Q 41.3125 65.921875 37.59375 65.921875 
Q 27.828125 65.921875 22.671875 59.328125 
Q 17.53125 52.734375 16.796875 39.40625 
Q 19.671875 43.65625 24.015625 45.921875 
Q 28.375 48.1875 33.59375 48.1875 
Q 44.578125 48.1875 50.953125 41.515625 
Q 57.328125 34.859375 57.328125 23.390625 
Q 57.328125 12.15625 50.6875 5.359375 
Q 44.046875 -1.421875 33.015625 -1.421875 
Q 20.359375 -1.421875 13.671875 8.265625 
Q 6.984375 17.96875 6.984375 36.375 
Q 6.984375 53.65625 15.1875 63.9375 
Q 23.390625 74.21875 37.203125 74.21875 
Q 40.921875 74.21875 44.703125 73.484375 
Q 48.484375 72.75 52.59375 71.296875 
z
" id="DejaVuSans-54"/>
      </defs>
      <g transform="translate(269.738684 322.182437)scale(0.1 -0.1)">
       <use xlink:href="#DejaVuSans-54"/>
       <use x="63.623047" xlink:href="#DejaVuSans-48"/>
      </g>
     </g>
    </g>
    <g id="xtick_4">
     <g id="line2d_4">
      <g>
       <use style="stroke:#000000;stroke-width:0.8;" x="353.869114" xlink:href="#mfffad60b8d" y="307.584"/>
      </g>
     </g>
     <g id="text_4">
      <!-- 80 -->
      <defs>
       <path d="M 31.78125 34.625 
Q 24.75 34.625 20.71875 30.859375 
Q 16.703125 27.09375 16.703125 20.515625 
Q 16.703125 13.921875 20.71875 10.15625 
Q 24.75 6.390625 31.78125 6.390625 
Q 38.8125 6.390625 42.859375 10.171875 
Q 46.921875 13.96875 46.921875 20.515625 
Q 46.921875 27.09375 42.890625 30.859375 
Q 38.875 34.625 31.78125 34.625 
z
M 21.921875 38.8125 
Q 15.578125 40.375 12.03125 44.71875 
Q 8.5 49.078125 8.5 55.328125 
Q 8.5 64.0625 14.71875 69.140625 
Q 20.953125 74.21875 31.78125 74.21875 
Q 42.671875 74.21875 48.875 69.140625 
Q 55.078125 64.0625 55.078125 55.328125 
Q 55.078125 49.078125 51.53125 44.71875 
Q 48 40.375 41.703125 38.8125 
Q 48.828125 37.15625 52.796875 32.3125 
Q 56.78125 27.484375 56.78125 20.515625 
Q 56.78125 9.90625 50.3125 4.234375 
Q 43.84375 -1.421875 31.78125 -1.421875 
Q 19.734375 -1.421875 13.25 4.234375 
Q 6.78125 9.90625 6.78125 20.515625 
Q 6.78125 27.484375 10.78125 32.3125 
Q 14.796875 37.15625 21.921875 38.8125 
z
M 18.3125 54.390625 
Q 18.3125 48.734375 21.84375 45.5625 
Q 25.390625 42.390625 31.78125 42.390625 
Q 38.140625 42.390625 41.71875 45.5625 
Q 45.3125 48.734375 45.3125 54.390625 
Q 45.3125 60.0625 41.71875 63.234375 
Q 38.140625 66.40625 31.78125 66.40625 
Q 25.390625 66.40625 21.84375 63.234375 
Q 18.3125 60.0625 18.3125 54.390625 
z
" id="DejaVuSans-56"/>
      </defs>
      <g transform="translate(347.506614 322.182437)scale(0.1 -0.1)">
       <use xlink:href="#DejaVuSans-56"/>
       <use x="63.623047" xlink:href="#DejaVuSans-48"/>
      </g>
     </g>
    </g>
    <g id="text_5">
     <!-- x values -->
     <defs>
      <path d="M 54.890625 54.6875 
L 35.109375 28.078125 
L 55.90625 0 
L 45.3125 0 
L 29.390625 21.484375 
L 13.484375 0 
L 2.875 0 
L 24.125 28.609375 
L 4.6875 54.6875 
L 15.28125 54.6875 
L 29.78125 35.203125 
L 44.28125 54.6875 
z
" id="DejaVuSans-120"/>
      <path id="DejaVuSans-32"/>
      <path d="M 2.984375 54.6875 
L 12.5 54.6875 
L 29.59375 8.796875 
L 46.6875 54.6875 
L 56.203125 54.6875 
L 35.6875 0 
L 23.484375 0 
z
" id="DejaVuSans-118"/>
      <path d="M 34.28125 27.484375 
Q 23.390625 27.484375 19.1875 25 
Q 14.984375 22.515625 14.984375 16.5 
Q 14.984375 11.71875 18.140625 8.90625 
Q 21.296875 6.109375 26.703125 6.109375 
Q 34.1875 6.109375 38.703125 11.40625 
Q 43.21875 16.703125 43.21875 25.484375 
L 43.21875 27.484375 
z
M 52.203125 31.203125 
L 52.203125 0 
L 43.21875 0 
L 43.21875 8.296875 
Q 40.140625 3.328125 35.546875 0.953125 
Q 30.953125 -1.421875 24.3125 -1.421875 
Q 15.921875 -1.421875 10.953125 3.296875 
Q 6 8.015625 6 15.921875 
Q 6 25.140625 12.171875 29.828125 
Q 18.359375 34.515625 30.609375 34.515625 
L 43.21875 34.515625 
L 43.21875 35.40625 
Q 43.21875 41.609375 39.140625 45 
Q 35.0625 48.390625 27.6875 48.390625 
Q 23 48.390625 18.546875 47.265625 
Q 14.109375 46.140625 10.015625 43.890625 
L 10.015625 52.203125 
Q 14.9375 54.109375 19.578125 55.046875 
Q 24.21875 56 28.609375 56 
Q 40.484375 56 46.34375 49.84375 
Q 52.203125 43.703125 52.203125 31.203125 
z
" id="DejaVuSans-97"/>
      <path d="M 9.421875 75.984375 
L 18.40625 75.984375 
L 18.40625 0 
L 9.421875 0 
z
" id="DejaVuSans-108"/>
      <path d="M 8.5 21.578125 
L 8.5 54.6875 
L 17.484375 54.6875 
L 17.484375 21.921875 
Q 17.484375 14.15625 20.5 10.265625 
Q 23.53125 6.390625 29.59375 6.390625 
Q 36.859375 6.390625 41.078125 11.03125 
Q 45.3125 15.671875 45.3125 23.6875 
L 45.3125 54.6875 
L 54.296875 54.6875 
L 54.296875 0 
L 45.3125 0 
L 45.3125 8.40625 
Q 42.046875 3.421875 37.71875 1 
Q 33.40625 -1.421875 27.6875 -1.421875 
Q 18.265625 -1.421875 13.375 4.4375 
Q 8.5 10.296875 8.5 21.578125 
z
M 31.109375 56 
z
" id="DejaVuSans-117"/>
      <path d="M 56.203125 29.59375 
L 56.203125 25.203125 
L 14.890625 25.203125 
Q 15.484375 15.921875 20.484375 11.0625 
Q 25.484375 6.203125 34.421875 6.203125 
Q 39.59375 6.203125 44.453125 7.46875 
Q 49.3125 8.734375 54.109375 11.28125 
L 54.109375 2.78125 
Q 49.265625 0.734375 44.1875 -0.34375 
Q 39.109375 -1.421875 33.890625 -1.421875 
Q 20.796875 -1.421875 13.15625 6.1875 
Q 5.515625 13.8125 5.515625 26.8125 
Q 5.515625 40.234375 12.765625 48.109375 
Q 20.015625 56 32.328125 56 
Q 43.359375 56 49.78125 48.890625 
Q 56.203125 41.796875 56.203125 29.59375 
z
M 47.21875 32.234375 
Q 47.125 39.59375 43.09375 43.984375 
Q 39.0625 48.390625 32.421875 48.390625 
Q 24.90625 48.390625 20.390625 44.140625 
Q 15.875 39.890625 15.1875 32.171875 
z
" id="DejaVuSans-101"/>
      <path d="M 44.28125 53.078125 
L 44.28125 44.578125 
Q 40.484375 46.53125 36.375 47.5 
Q 32.28125 48.484375 27.875 48.484375 
Q 21.1875 48.484375 17.84375 46.4375 
Q 14.5 44.390625 14.5 40.28125 
Q 14.5 37.15625 16.890625 35.375 
Q 19.28125 33.59375 26.515625 31.984375 
L 29.59375 31.296875 
Q 39.15625 29.25 43.1875 25.515625 
Q 47.21875 21.78125 47.21875 15.09375 
Q 47.21875 7.46875 41.1875 3.015625 
Q 35.15625 -1.421875 24.609375 -1.421875 
Q 20.21875 -1.421875 15.453125 -0.5625 
Q 10.6875 0.296875 5.421875 2 
L 5.421875 11.28125 
Q 10.40625 8.6875 15.234375 7.390625 
Q 20.0625 6.109375 24.8125 6.109375 
Q 31.15625 6.109375 34.5625 8.28125 
Q 37.984375 10.453125 37.984375 14.40625 
Q 37.984375 18.0625 35.515625 20.015625 
Q 33.0625 21.96875 24.703125 23.78125 
L 21.578125 24.515625 
Q 13.234375 26.265625 9.515625 29.90625 
Q 5.8125 33.546875 5.8125 39.890625 
Q 5.8125 47.609375 11.28125 51.796875 
Q 16.75 56 26.8125 56 
Q 31.78125 56 36.171875 55.265625 
Q 40.578125 54.546875 44.28125 53.078125 
z
" id="DejaVuSans-115"/>
     </defs>
     <g transform="translate(215.349063 335.860562)scale(0.1 -0.1)">
      <use xlink:href="#DejaVuSans-120"/>
      <use x="59.179688" xlink:href="#DejaVuSans-32"/>
      <use x="90.966797" xlink:href="#DejaVuSans-118"/>
      <use x="150.146484" xlink:href="#DejaVuSans-97"/>
      <use x="211.425781" xlink:href="#DejaVuSans-108"/>
      <use x="239.208984" xlink:href="#DejaVuSans-117"/>
      <use x="302.587891" xlink:href="#DejaVuSans-101"/>
      <use x="364.111328" xlink:href="#DejaVuSans-115"/>
     </g>
    </g>
   </g>
   <g id="matplotlib.axis_2">
    <g id="ytick_1">
     <g id="line2d_5">
      <defs>
       <path d="M 0 0 
L -3.5 0 
" id="m15d77a29f6" style="stroke:#000000;stroke-width:0.8;"/>
      </defs>
      <g>
       <use style="stroke:#000000;stroke-width:0.8;" x="57.6" xlink:href="#m15d77a29f6" y="290.095608"/>
      </g>
     </g>
     <g id="text_6">
      <!-- 0 -->
      <g transform="translate(44.2375 293.894827)scale(0.1 -0.1)">
       <use xlink:href="#DejaVuSans-48"/>
      </g>
     </g>
    </g>
    <g id="ytick_2">
     <g id="line2d_6">
      <g>
       <use style="stroke:#000000;stroke-width:0.8;" x="57.6" xlink:href="#m15d77a29f6" y="242.249643"/>
      </g>
     </g>
     <g id="text_7">
      <!-- 100 -->
      <defs>
       <path d="M 12.40625 8.296875 
L 28.515625 8.296875 
L 28.515625 63.921875 
L 10.984375 60.40625 
L 10.984375 69.390625 
L 28.421875 72.90625 
L 38.28125 72.90625 
L 38.28125 8.296875 
L 54.390625 8.296875 
L 54.390625 0 
L 12.40625 0 
z
" id="DejaVuSans-49"/>
      </defs>
      <g transform="translate(31.5125 246.048862)scale(0.1 -0.1)">
       <use xlink:href="#DejaVuSans-49"/>
       <use x="63.623047" xlink:href="#DejaVuSans-48"/>
       <use x="127.246094" xlink:href="#DejaVuSans-48"/>
      </g>
     </g>
    </g>
    <g id="ytick_3">
     <g id="line2d_7">
      <g>
       <use style="stroke:#000000;stroke-width:0.8;" x="57.6" xlink:href="#m15d77a29f6" y="194.403678"/>
      </g>
     </g>
     <g id="text_8">
      <!-- 200 -->
      <g transform="translate(31.5125 198.202897)scale(0.1 -0.1)">
       <use xlink:href="#DejaVuSans-50"/>
       <use x="63.623047" xlink:href="#DejaVuSans-48"/>
       <use x="127.246094" xlink:href="#DejaVuSans-48"/>
      </g>
     </g>
    </g>
    <g id="ytick_4">
     <g id="line2d_8">
      <g>
       <use style="stroke:#000000;stroke-width:0.8;" x="57.6" xlink:href="#m15d77a29f6" y="146.557714"/>
      </g>
     </g>
     <g id="text_9">
      <!-- 300 -->
      <defs>
       <path d="M 40.578125 39.3125 
Q 47.65625 37.796875 51.625 33 
Q 55.609375 28.21875 55.609375 21.1875 
Q 55.609375 10.40625 48.1875 4.484375 
Q 40.765625 -1.421875 27.09375 -1.421875 
Q 22.515625 -1.421875 17.65625 -0.515625 
Q 12.796875 0.390625 7.625 2.203125 
L 7.625 11.71875 
Q 11.71875 9.328125 16.59375 8.109375 
Q 21.484375 6.890625 26.8125 6.890625 
Q 36.078125 6.890625 40.9375 10.546875 
Q 45.796875 14.203125 45.796875 21.1875 
Q 45.796875 27.640625 41.28125 31.265625 
Q 36.765625 34.90625 28.71875 34.90625 
L 20.21875 34.90625 
L 20.21875 43.015625 
L 29.109375 43.015625 
Q 36.375 43.015625 40.234375 45.921875 
Q 44.09375 48.828125 44.09375 54.296875 
Q 44.09375 59.90625 40.109375 62.90625 
Q 36.140625 65.921875 28.71875 65.921875 
Q 24.65625 65.921875 20.015625 65.03125 
Q 15.375 64.15625 9.8125 62.3125 
L 9.8125 71.09375 
Q 15.4375 72.65625 20.34375 73.4375 
Q 25.25 74.21875 29.59375 74.21875 
Q 40.828125 74.21875 47.359375 69.109375 
Q 53.90625 64.015625 53.90625 55.328125 
Q 53.90625 49.265625 50.4375 45.09375 
Q 46.96875 40.921875 40.578125 39.3125 
z
" id="DejaVuSans-51"/>
      </defs>
      <g transform="translate(31.5125 150.356932)scale(0.1 -0.1)">
       <use xlink:href="#DejaVuSans-51"/>
       <use x="63.623047" xlink:href="#DejaVuSans-48"/>
       <use x="127.246094" xlink:href="#DejaVuSans-48"/>
      </g>
     </g>
    </g>
    <g id="ytick_5">
     <g id="line2d_9">
      <g>
       <use style="stroke:#000000;stroke-width:0.8;" x="57.6" xlink:href="#m15d77a29f6" y="98.711749"/>
      </g>
     </g>
     <g id="text_10">
      <!-- 400 -->
      <g transform="translate(31.5125 102.510967)scale(0.1 -0.1)">
       <use xlink:href="#DejaVuSans-52"/>
       <use x="63.623047" xlink:href="#DejaVuSans-48"/>
       <use x="127.246094" xlink:href="#DejaVuSans-48"/>
      </g>
     </g>
    </g>
    <g id="ytick_6">
     <g id="line2d_10">
      <g>
       <use style="stroke:#000000;stroke-width:0.8;" x="57.6" xlink:href="#m15d77a29f6" y="50.865784"/>
      </g>
     </g>
     <g id="text_11">
      <!-- 500 -->
      <defs>
       <path d="M 10.796875 72.90625 
L 49.515625 72.90625 
L 49.515625 64.59375 
L 19.828125 64.59375 
L 19.828125 46.734375 
Q 21.96875 47.46875 24.109375 47.828125 
Q 26.265625 48.1875 28.421875 48.1875 
Q 40.625 48.1875 47.75 41.5 
Q 54.890625 34.8125 54.890625 23.390625 
Q 54.890625 11.625 47.5625 5.09375 
Q 40.234375 -1.421875 26.90625 -1.421875 
Q 22.3125 -1.421875 17.546875 -0.640625 
Q 12.796875 0.140625 7.71875 1.703125 
L 7.71875 11.625 
Q 12.109375 9.234375 16.796875 8.0625 
Q 21.484375 6.890625 26.703125 6.890625 
Q 35.15625 6.890625 40.078125 11.328125 
Q 45.015625 15.765625 45.015625 23.390625 
Q 45.015625 31 40.078125 35.4375 
Q 35.15625 39.890625 26.703125 39.890625 
Q 22.75 39.890625 18.8125 39.015625 
Q 14.890625 38.140625 10.796875 36.28125 
z
" id="DejaVuSans-53"/>
      </defs>
      <g transform="translate(31.5125 54.665002)scale(0.1 -0.1)">
       <use xlink:href="#DejaVuSans-53"/>
       <use x="63.623047" xlink:href="#DejaVuSans-48"/>
       <use x="127.246094" xlink:href="#DejaVuSans-48"/>
      </g>
     </g>
    </g>
    <g id="text_12">
     <!-- y values -->
     <defs>
      <path d="M 32.171875 -5.078125 
Q 28.375 -14.84375 24.75 -17.8125 
Q 21.140625 -20.796875 15.09375 -20.796875 
L 7.90625 -20.796875 
L 7.90625 -13.28125 
L 13.1875 -13.28125 
Q 16.890625 -13.28125 18.9375 -11.515625 
Q 21 -9.765625 23.484375 -3.21875 
L 25.09375 0.875 
L 2.984375 54.6875 
L 12.5 54.6875 
L 29.59375 11.921875 
L 46.6875 54.6875 
L 56.203125 54.6875 
z
" id="DejaVuSans-121"/>
     </defs>
     <g transform="translate(25.432812 195.338937)rotate(-90)scale(0.1 -0.1)">
      <use xlink:href="#DejaVuSans-121"/>
      <use x="59.179688" xlink:href="#DejaVuSans-32"/>
      <use x="90.966797" xlink:href="#DejaVuSans-118"/>
      <use x="150.146484" xlink:href="#DejaVuSans-97"/>
      <use x="211.425781" xlink:href="#DejaVuSans-108"/>
      <use x="239.208984" xlink:href="#DejaVuSans-117"/>
      <use x="302.587891" xlink:href="#DejaVuSans-101"/>
      <use x="364.111328" xlink:href="#DejaVuSans-115"/>
     </g>
    </g>
   </g>
   <g id="line2d_11">
    <defs>
     <path d="M 0 1 
C 0.265203 1 0.51958 0.894634 0.707107 0.707107 
C 0.894634 0.51958 1 0.265203 1 0 
C 1 -0.265203 0.894634 -0.51958 0.707107 -0.707107 
C 0.51958 -0.894634 0.265203 -1 0 -1 
C -0.265203 -1 -0.51958 -0.894634 -0.707107 -0.707107 
C -0.894634 -0.51958 -1 -0.265203 -1 0 
C -1 0.265203 -0.894634 0.51958 -0.707107 0.707107 
C -0.51958 0.894634 -0.265203 1 0 1 
z
" id="m461a478048" style="stroke:#ff0000;"/>
    </defs>
    <g clip-path="url(#p33c0c4a1bb)">
     <use style="fill:#ff0000;stroke:#ff0000;" x="73.832727" xlink:href="#m461a478048" y="93.233266"/>
     <use style="fill:#ff0000;stroke:#ff0000;" x="75.147118" xlink:href="#m461a478048" y="76.915305"/>
     <use style="fill:#ff0000;stroke:#ff0000;" x="76.461509" xlink:href="#m461a478048" y="92.349913"/>
     <use style="fill:#ff0000;stroke:#ff0000;" x="77.7759" xlink:href="#m461a478048" y="53.568"/>
     <use style="fill:#ff0000;stroke:#ff0000;" x="79.090291" xlink:href="#m461a478048" y="122.276752"/>
     <use style="fill:#ff0000;stroke:#ff0000;" x="80.404682" xlink:href="#m461a478048" y="89.215042"/>
     <use style="fill:#ff0000;stroke:#ff0000;" x="81.719073" xlink:href="#m461a478048" y="90.002865"/>
     <use style="fill:#ff0000;stroke:#ff0000;" x="83.033463" xlink:href="#m461a478048" y="128.024827"/>
     <use style="fill:#ff0000;stroke:#ff0000;" x="84.347854" xlink:href="#m461a478048" y="54.350121"/>
     <use style="fill:#ff0000;stroke:#ff0000;" x="85.662245" xlink:href="#m461a478048" y="70.256205"/>
     <use style="fill:#ff0000;stroke:#ff0000;" x="86.976636" xlink:href="#m461a478048" y="103.446186"/>
     <use style="fill:#ff0000;stroke:#ff0000;" x="88.291027" xlink:href="#m461a478048" y="65.223256"/>
     <use style="fill:#ff0000;stroke:#ff0000;" x="89.605418" xlink:href="#m461a478048" y="103.839624"/>
     <use style="fill:#ff0000;stroke:#ff0000;" x="90.919809" xlink:href="#m461a478048" y="127.837539"/>
     <use style="fill:#ff0000;stroke:#ff0000;" x="92.234199" xlink:href="#m461a478048" y="113.341516"/>
     <use style="fill:#ff0000;stroke:#ff0000;" x="93.54859" xlink:href="#m461a478048" y="92.155619"/>
     <use style="fill:#ff0000;stroke:#ff0000;" x="94.862981" xlink:href="#m461a478048" y="104.442906"/>
     <use style="fill:#ff0000;stroke:#ff0000;" x="96.177372" xlink:href="#m461a478048" y="125.834398"/>
     <use style="fill:#ff0000;stroke:#ff0000;" x="97.491763" xlink:href="#m461a478048" y="84.098442"/>
     <use style="fill:#ff0000;stroke:#ff0000;" x="98.806154" xlink:href="#m461a478048" y="101.229232"/>
     <use style="fill:#ff0000;stroke:#ff0000;" x="100.120545" xlink:href="#m461a478048" y="89.878378"/>
     <use style="fill:#ff0000;stroke:#ff0000;" x="101.434936" xlink:href="#m461a478048" y="100.401923"/>
     <use style="fill:#ff0000;stroke:#ff0000;" x="102.749326" xlink:href="#m461a478048" y="86.022108"/>
     <use style="fill:#ff0000;stroke:#ff0000;" x="104.063717" xlink:href="#m461a478048" y="108.035834"/>
     <use style="fill:#ff0000;stroke:#ff0000;" x="105.378108" xlink:href="#m461a478048" y="156.201613"/>
     <use style="fill:#ff0000;stroke:#ff0000;" x="106.692499" xlink:href="#m461a478048" y="124.325367"/>
     <use style="fill:#ff0000;stroke:#ff0000;" x="108.00689" xlink:href="#m461a478048" y="109.269723"/>
     <use style="fill:#ff0000;stroke:#ff0000;" x="109.321281" xlink:href="#m461a478048" y="160.193599"/>
     <use style="fill:#ff0000;stroke:#ff0000;" x="110.635672" xlink:href="#m461a478048" y="154.408286"/>
     <use style="fill:#ff0000;stroke:#ff0000;" x="111.950063" xlink:href="#m461a478048" y="130.579679"/>
     <use style="fill:#ff0000;stroke:#ff0000;" x="113.264453" xlink:href="#m461a478048" y="137.584362"/>
     <use style="fill:#ff0000;stroke:#ff0000;" x="114.578844" xlink:href="#m461a478048" y="138.229027"/>
     <use style="fill:#ff0000;stroke:#ff0000;" x="115.893235" xlink:href="#m461a478048" y="161.41753"/>
     <use style="fill:#ff0000;stroke:#ff0000;" x="117.207626" xlink:href="#m461a478048" y="147.50256"/>
     <use style="fill:#ff0000;stroke:#ff0000;" x="118.522017" xlink:href="#m461a478048" y="122.606232"/>
     <use style="fill:#ff0000;stroke:#ff0000;" x="119.836408" xlink:href="#m461a478048" y="143.407064"/>
     <use style="fill:#ff0000;stroke:#ff0000;" x="121.150799" xlink:href="#m461a478048" y="146.973582"/>
     <use style="fill:#ff0000;stroke:#ff0000;" x="122.46519" xlink:href="#m461a478048" y="134.922868"/>
     <use style="fill:#ff0000;stroke:#ff0000;" x="123.77958" xlink:href="#m461a478048" y="124.251405"/>
     <use style="fill:#ff0000;stroke:#ff0000;" x="125.093971" xlink:href="#m461a478048" y="121.630904"/>
     <use style="fill:#ff0000;stroke:#ff0000;" x="126.408362" xlink:href="#m461a478048" y="135.672738"/>
     <use style="fill:#ff0000;stroke:#ff0000;" x="127.722753" xlink:href="#m461a478048" y="120.139763"/>
     <use style="fill:#ff0000;stroke:#ff0000;" x="129.037144" xlink:href="#m461a478048" y="170.811137"/>
     <use style="fill:#ff0000;stroke:#ff0000;" x="130.351535" xlink:href="#m461a478048" y="156.611443"/>
     <use style="fill:#ff0000;stroke:#ff0000;" x="131.665926" xlink:href="#m461a478048" y="164.534055"/>
     <use style="fill:#ff0000;stroke:#ff0000;" x="132.980317" xlink:href="#m461a478048" y="141.321619"/>
     <use style="fill:#ff0000;stroke:#ff0000;" x="134.294707" xlink:href="#m461a478048" y="151.017458"/>
     <use style="fill:#ff0000;stroke:#ff0000;" x="135.609098" xlink:href="#m461a478048" y="154.204973"/>
     <use style="fill:#ff0000;stroke:#ff0000;" x="136.923489" xlink:href="#m461a478048" y="140.009527"/>
     <use style="fill:#ff0000;stroke:#ff0000;" x="138.23788" xlink:href="#m461a478048" y="175.432098"/>
     <use style="fill:#ff0000;stroke:#ff0000;" x="139.552271" xlink:href="#m461a478048" y="158.877416"/>
     <use style="fill:#ff0000;stroke:#ff0000;" x="140.866662" xlink:href="#m461a478048" y="166.518043"/>
     <use style="fill:#ff0000;stroke:#ff0000;" x="142.181053" xlink:href="#m461a478048" y="146.88821"/>
     <use style="fill:#ff0000;stroke:#ff0000;" x="143.495444" xlink:href="#m461a478048" y="172.728171"/>
     <use style="fill:#ff0000;stroke:#ff0000;" x="144.809834" xlink:href="#m461a478048" y="157.845047"/>
     <use style="fill:#ff0000;stroke:#ff0000;" x="146.124225" xlink:href="#m461a478048" y="163.18829"/>
     <use style="fill:#ff0000;stroke:#ff0000;" x="147.438616" xlink:href="#m461a478048" y="173.08884"/>
     <use style="fill:#ff0000;stroke:#ff0000;" x="148.753007" xlink:href="#m461a478048" y="181.860686"/>
     <use style="fill:#ff0000;stroke:#ff0000;" x="150.067398" xlink:href="#m461a478048" y="175.378942"/>
     <use style="fill:#ff0000;stroke:#ff0000;" x="151.381789" xlink:href="#m461a478048" y="178.463636"/>
     <use style="fill:#ff0000;stroke:#ff0000;" x="152.69618" xlink:href="#m461a478048" y="145.647336"/>
     <use style="fill:#ff0000;stroke:#ff0000;" x="154.01057" xlink:href="#m461a478048" y="156.225353"/>
     <use style="fill:#ff0000;stroke:#ff0000;" x="155.324961" xlink:href="#m461a478048" y="193.400546"/>
     <use style="fill:#ff0000;stroke:#ff0000;" x="156.639352" xlink:href="#m461a478048" y="173.539134"/>
     <use style="fill:#ff0000;stroke:#ff0000;" x="157.953743" xlink:href="#m461a478048" y="194.775278"/>
     <use style="fill:#ff0000;stroke:#ff0000;" x="159.268134" xlink:href="#m461a478048" y="174.23303"/>
     <use style="fill:#ff0000;stroke:#ff0000;" x="160.582525" xlink:href="#m461a478048" y="184.24115"/>
     <use style="fill:#ff0000;stroke:#ff0000;" x="161.896916" xlink:href="#m461a478048" y="169.353359"/>
     <use style="fill:#ff0000;stroke:#ff0000;" x="163.211307" xlink:href="#m461a478048" y="188.557944"/>
     <use style="fill:#ff0000;stroke:#ff0000;" x="164.525697" xlink:href="#m461a478048" y="161.990778"/>
     <use style="fill:#ff0000;stroke:#ff0000;" x="165.840088" xlink:href="#m461a478048" y="181.392463"/>
     <use style="fill:#ff0000;stroke:#ff0000;" x="167.154479" xlink:href="#m461a478048" y="185.929331"/>
     <use style="fill:#ff0000;stroke:#ff0000;" x="168.46887" xlink:href="#m461a478048" y="177.494108"/>
     <use style="fill:#ff0000;stroke:#ff0000;" x="169.783261" xlink:href="#m461a478048" y="206.732464"/>
     <use style="fill:#ff0000;stroke:#ff0000;" x="171.097652" xlink:href="#m461a478048" y="207.119064"/>
     <use style="fill:#ff0000;stroke:#ff0000;" x="172.412043" xlink:href="#m461a478048" y="207.723194"/>
     <use style="fill:#ff0000;stroke:#ff0000;" x="173.726434" xlink:href="#m461a478048" y="186.975535"/>
     <use style="fill:#ff0000;stroke:#ff0000;" x="175.040824" xlink:href="#m461a478048" y="202.204968"/>
     <use style="fill:#ff0000;stroke:#ff0000;" x="176.355215" xlink:href="#m461a478048" y="209.845657"/>
     <use style="fill:#ff0000;stroke:#ff0000;" x="177.669606" xlink:href="#m461a478048" y="216.059725"/>
     <use style="fill:#ff0000;stroke:#ff0000;" x="178.983997" xlink:href="#m461a478048" y="209.64612"/>
     <use style="fill:#ff0000;stroke:#ff0000;" x="180.298388" xlink:href="#m461a478048" y="203.500965"/>
     <use style="fill:#ff0000;stroke:#ff0000;" x="181.612779" xlink:href="#m461a478048" y="191.663636"/>
     <use style="fill:#ff0000;stroke:#ff0000;" x="182.92717" xlink:href="#m461a478048" y="194.514275"/>
     <use style="fill:#ff0000;stroke:#ff0000;" x="184.241561" xlink:href="#m461a478048" y="198.856921"/>
     <use style="fill:#ff0000;stroke:#ff0000;" x="185.555951" xlink:href="#m461a478048" y="211.086272"/>
     <use style="fill:#ff0000;stroke:#ff0000;" x="186.870342" xlink:href="#m461a478048" y="207.48129"/>
     <use style="fill:#ff0000;stroke:#ff0000;" x="188.184733" xlink:href="#m461a478048" y="213.995263"/>
     <use style="fill:#ff0000;stroke:#ff0000;" x="189.499124" xlink:href="#m461a478048" y="211.332909"/>
     <use style="fill:#ff0000;stroke:#ff0000;" x="190.813515" xlink:href="#m461a478048" y="186.891411"/>
     <use style="fill:#ff0000;stroke:#ff0000;" x="192.127906" xlink:href="#m461a478048" y="210.00629"/>
     <use style="fill:#ff0000;stroke:#ff0000;" x="193.442297" xlink:href="#m461a478048" y="212.384744"/>
     <use style="fill:#ff0000;stroke:#ff0000;" x="194.756688" xlink:href="#m461a478048" y="196.021909"/>
     <use style="fill:#ff0000;stroke:#ff0000;" x="196.071078" xlink:href="#m461a478048" y="225.070439"/>
     <use style="fill:#ff0000;stroke:#ff0000;" x="197.385469" xlink:href="#m461a478048" y="212.666631"/>
     <use style="fill:#ff0000;stroke:#ff0000;" x="198.69986" xlink:href="#m461a478048" y="220.205749"/>
     <use style="fill:#ff0000;stroke:#ff0000;" x="200.014251" xlink:href="#m461a478048" y="219.102343"/>
     <use style="fill:#ff0000;stroke:#ff0000;" x="201.328642" xlink:href="#m461a478048" y="226.305096"/>
     <use style="fill:#ff0000;stroke:#ff0000;" x="202.643033" xlink:href="#m461a478048" y="225.548935"/>
     <use style="fill:#ff0000;stroke:#ff0000;" x="203.957424" xlink:href="#m461a478048" y="235.067136"/>
     <use style="fill:#ff0000;stroke:#ff0000;" x="205.271815" xlink:href="#m461a478048" y="214.70464"/>
     <use style="fill:#ff0000;stroke:#ff0000;" x="206.586205" xlink:href="#m461a478048" y="230.073847"/>
     <use style="fill:#ff0000;stroke:#ff0000;" x="207.900596" xlink:href="#m461a478048" y="238.791067"/>
     <use style="fill:#ff0000;stroke:#ff0000;" x="209.214987" xlink:href="#m461a478048" y="233.846155"/>
     <use style="fill:#ff0000;stroke:#ff0000;" x="210.529378" xlink:href="#m461a478048" y="219.500608"/>
     <use style="fill:#ff0000;stroke:#ff0000;" x="211.843769" xlink:href="#m461a478048" y="219.191466"/>
     <use style="fill:#ff0000;stroke:#ff0000;" x="213.15816" xlink:href="#m461a478048" y="234.873049"/>
     <use style="fill:#ff0000;stroke:#ff0000;" x="214.472551" xlink:href="#m461a478048" y="242.5557"/>
     <use style="fill:#ff0000;stroke:#ff0000;" x="215.786941" xlink:href="#m461a478048" y="230.882679"/>
     <use style="fill:#ff0000;stroke:#ff0000;" x="217.101332" xlink:href="#m461a478048" y="222.815369"/>
     <use style="fill:#ff0000;stroke:#ff0000;" x="218.415723" xlink:href="#m461a478048" y="234.557839"/>
     <use style="fill:#ff0000;stroke:#ff0000;" x="219.730114" xlink:href="#m461a478048" y="235.844217"/>
     <use style="fill:#ff0000;stroke:#ff0000;" x="221.044505" xlink:href="#m461a478048" y="246.141385"/>
     <use style="fill:#ff0000;stroke:#ff0000;" x="222.358896" xlink:href="#m461a478048" y="251.240569"/>
     <use style="fill:#ff0000;stroke:#ff0000;" x="223.673287" xlink:href="#m461a478048" y="236.617405"/>
     <use style="fill:#ff0000;stroke:#ff0000;" x="224.987678" xlink:href="#m461a478048" y="239.069234"/>
     <use style="fill:#ff0000;stroke:#ff0000;" x="226.302068" xlink:href="#m461a478048" y="245.063199"/>
     <use style="fill:#ff0000;stroke:#ff0000;" x="227.616459" xlink:href="#m461a478048" y="243.298143"/>
     <use style="fill:#ff0000;stroke:#ff0000;" x="228.93085" xlink:href="#m461a478048" y="237.026747"/>
     <use style="fill:#ff0000;stroke:#ff0000;" x="230.245241" xlink:href="#m461a478048" y="242.234426"/>
     <use style="fill:#ff0000;stroke:#ff0000;" x="231.559632" xlink:href="#m461a478048" y="247.875385"/>
     <use style="fill:#ff0000;stroke:#ff0000;" x="232.874023" xlink:href="#m461a478048" y="244.147395"/>
     <use style="fill:#ff0000;stroke:#ff0000;" x="234.188414" xlink:href="#m461a478048" y="235.354837"/>
     <use style="fill:#ff0000;stroke:#ff0000;" x="235.502805" xlink:href="#m461a478048" y="251.835057"/>
     <use style="fill:#ff0000;stroke:#ff0000;" x="236.817195" xlink:href="#m461a478048" y="246.964982"/>
     <use style="fill:#ff0000;stroke:#ff0000;" x="238.131586" xlink:href="#m461a478048" y="250.113974"/>
     <use style="fill:#ff0000;stroke:#ff0000;" x="239.445977" xlink:href="#m461a478048" y="252.857172"/>
     <use style="fill:#ff0000;stroke:#ff0000;" x="240.760368" xlink:href="#m461a478048" y="263.01169"/>
     <use style="fill:#ff0000;stroke:#ff0000;" x="242.074759" xlink:href="#m461a478048" y="245.176922"/>
     <use style="fill:#ff0000;stroke:#ff0000;" x="243.38915" xlink:href="#m461a478048" y="245.639964"/>
     <use style="fill:#ff0000;stroke:#ff0000;" x="244.703541" xlink:href="#m461a478048" y="246.142089"/>
     <use style="fill:#ff0000;stroke:#ff0000;" x="246.017932" xlink:href="#m461a478048" y="268.282477"/>
     <use style="fill:#ff0000;stroke:#ff0000;" x="247.332322" xlink:href="#m461a478048" y="247.711663"/>
     <use style="fill:#ff0000;stroke:#ff0000;" x="248.646713" xlink:href="#m461a478048" y="241.456337"/>
     <use style="fill:#ff0000;stroke:#ff0000;" x="249.961104" xlink:href="#m461a478048" y="254.985522"/>
     <use style="fill:#ff0000;stroke:#ff0000;" x="251.275495" xlink:href="#m461a478048" y="254.860816"/>
     <use style="fill:#ff0000;stroke:#ff0000;" x="252.589886" xlink:href="#m461a478048" y="273.412108"/>
     <use style="fill:#ff0000;stroke:#ff0000;" x="253.904277" xlink:href="#m461a478048" y="255.31096"/>
     <use style="fill:#ff0000;stroke:#ff0000;" x="255.218668" xlink:href="#m461a478048" y="263.8335"/>
     <use style="fill:#ff0000;stroke:#ff0000;" x="256.533059" xlink:href="#m461a478048" y="273.057559"/>
     <use style="fill:#ff0000;stroke:#ff0000;" x="257.847449" xlink:href="#m461a478048" y="254.623602"/>
     <use style="fill:#ff0000;stroke:#ff0000;" x="259.16184" xlink:href="#m461a478048" y="266.762241"/>
     <use style="fill:#ff0000;stroke:#ff0000;" x="260.476231" xlink:href="#m461a478048" y="269.147167"/>
     <use style="fill:#ff0000;stroke:#ff0000;" x="261.790622" xlink:href="#m461a478048" y="262.472561"/>
     <use style="fill:#ff0000;stroke:#ff0000;" x="263.105013" xlink:href="#m461a478048" y="259.963725"/>
     <use style="fill:#ff0000;stroke:#ff0000;" x="264.419404" xlink:href="#m461a478048" y="258.277201"/>
     <use style="fill:#ff0000;stroke:#ff0000;" x="265.733795" xlink:href="#m461a478048" y="278.948284"/>
     <use style="fill:#ff0000;stroke:#ff0000;" x="267.048185" xlink:href="#m461a478048" y="266.11273"/>
     <use style="fill:#ff0000;stroke:#ff0000;" x="268.362576" xlink:href="#m461a478048" y="255.402137"/>
     <use style="fill:#ff0000;stroke:#ff0000;" x="269.676967" xlink:href="#m461a478048" y="267.908517"/>
     <use style="fill:#ff0000;stroke:#ff0000;" x="270.991358" xlink:href="#m461a478048" y="266.50989"/>
     <use style="fill:#ff0000;stroke:#ff0000;" x="272.305749" xlink:href="#m461a478048" y="257.047231"/>
     <use style="fill:#ff0000;stroke:#ff0000;" x="273.62014" xlink:href="#m461a478048" y="260.453178"/>
     <use style="fill:#ff0000;stroke:#ff0000;" x="274.934531" xlink:href="#m461a478048" y="255.758107"/>
     <use style="fill:#ff0000;stroke:#ff0000;" x="276.248922" xlink:href="#m461a478048" y="261.500234"/>
     <use style="fill:#ff0000;stroke:#ff0000;" x="277.563312" xlink:href="#m461a478048" y="264.2532"/>
     <use style="fill:#ff0000;stroke:#ff0000;" x="278.877703" xlink:href="#m461a478048" y="269.449546"/>
     <use style="fill:#ff0000;stroke:#ff0000;" x="280.192094" xlink:href="#m461a478048" y="271.70822"/>
     <use style="fill:#ff0000;stroke:#ff0000;" x="281.506485" xlink:href="#m461a478048" y="274.26015"/>
     <use style="fill:#ff0000;stroke:#ff0000;" x="282.820876" xlink:href="#m461a478048" y="285.949429"/>
     <use style="fill:#ff0000;stroke:#ff0000;" x="284.135267" xlink:href="#m461a478048" y="285.190432"/>
     <use style="fill:#ff0000;stroke:#ff0000;" x="285.449658" xlink:href="#m461a478048" y="262.504972"/>
     <use style="fill:#ff0000;stroke:#ff0000;" x="286.764049" xlink:href="#m461a478048" y="267.79432"/>
     <use style="fill:#ff0000;stroke:#ff0000;" x="288.078439" xlink:href="#m461a478048" y="275.721142"/>
     <use style="fill:#ff0000;stroke:#ff0000;" x="289.39283" xlink:href="#m461a478048" y="267.880131"/>
     <use style="fill:#ff0000;stroke:#ff0000;" x="290.707221" xlink:href="#m461a478048" y="263.119827"/>
     <use style="fill:#ff0000;stroke:#ff0000;" x="292.021612" xlink:href="#m461a478048" y="272.640778"/>
     <use style="fill:#ff0000;stroke:#ff0000;" x="293.336003" xlink:href="#m461a478048" y="273.238621"/>
     <use style="fill:#ff0000;stroke:#ff0000;" x="294.650394" xlink:href="#m461a478048" y="286.101334"/>
     <use style="fill:#ff0000;stroke:#ff0000;" x="295.964785" xlink:href="#m461a478048" y="280.395804"/>
     <use style="fill:#ff0000;stroke:#ff0000;" x="297.279176" xlink:href="#m461a478048" y="279.521838"/>
     <use style="fill:#ff0000;stroke:#ff0000;" x="298.593566" xlink:href="#m461a478048" y="287.665015"/>
     <use style="fill:#ff0000;stroke:#ff0000;" x="299.907957" xlink:href="#m461a478048" y="286.953178"/>
     <use style="fill:#ff0000;stroke:#ff0000;" x="301.222348" xlink:href="#m461a478048" y="269.765691"/>
     <use style="fill:#ff0000;stroke:#ff0000;" x="302.536739" xlink:href="#m461a478048" y="279.859302"/>
     <use style="fill:#ff0000;stroke:#ff0000;" x="303.85113" xlink:href="#m461a478048" y="283.327528"/>
     <use style="fill:#ff0000;stroke:#ff0000;" x="305.165521" xlink:href="#m461a478048" y="267.342264"/>
     <use style="fill:#ff0000;stroke:#ff0000;" x="306.479912" xlink:href="#m461a478048" y="280.563348"/>
     <use style="fill:#ff0000;stroke:#ff0000;" x="307.794303" xlink:href="#m461a478048" y="277.199286"/>
     <use style="fill:#ff0000;stroke:#ff0000;" x="309.108693" xlink:href="#m461a478048" y="268.243115"/>
     <use style="fill:#ff0000;stroke:#ff0000;" x="310.423084" xlink:href="#m461a478048" y="283.44095"/>
     <use style="fill:#ff0000;stroke:#ff0000;" x="311.737475" xlink:href="#m461a478048" y="273.369047"/>
     <use style="fill:#ff0000;stroke:#ff0000;" x="313.051866" xlink:href="#m461a478048" y="274.084352"/>
     <use style="fill:#ff0000;stroke:#ff0000;" x="314.366257" xlink:href="#m461a478048" y="276.321381"/>
     <use style="fill:#ff0000;stroke:#ff0000;" x="315.680648" xlink:href="#m461a478048" y="276.925774"/>
     <use style="fill:#ff0000;stroke:#ff0000;" x="316.995039" xlink:href="#m461a478048" y="270.522179"/>
     <use style="fill:#ff0000;stroke:#ff0000;" x="318.30943" xlink:href="#m461a478048" y="278.968547"/>
     <use style="fill:#ff0000;stroke:#ff0000;" x="319.62382" xlink:href="#m461a478048" y="289.526278"/>
     <use style="fill:#ff0000;stroke:#ff0000;" x="320.938211" xlink:href="#m461a478048" y="280.261865"/>
     <use style="fill:#ff0000;stroke:#ff0000;" x="322.252602" xlink:href="#m461a478048" y="281.183898"/>
     <use style="fill:#ff0000;stroke:#ff0000;" x="323.566993" xlink:href="#m461a478048" y="285.244699"/>
     <use style="fill:#ff0000;stroke:#ff0000;" x="324.881384" xlink:href="#m461a478048" y="294.459879"/>
     <use style="fill:#ff0000;stroke:#ff0000;" x="326.195775" xlink:href="#m461a478048" y="286.287917"/>
     <use style="fill:#ff0000;stroke:#ff0000;" x="327.510166" xlink:href="#m461a478048" y="293.847735"/>
     <use style="fill:#ff0000;stroke:#ff0000;" x="328.824556" xlink:href="#m461a478048" y="293.988039"/>
     <use style="fill:#ff0000;stroke:#ff0000;" x="330.138947" xlink:href="#m461a478048" y="283.616444"/>
     <use style="fill:#ff0000;stroke:#ff0000;" x="331.453338" xlink:href="#m461a478048" y="281.158314"/>
     <use style="fill:#ff0000;stroke:#ff0000;" x="332.767729" xlink:href="#m461a478048" y="292.219719"/>
     <use style="fill:#ff0000;stroke:#ff0000;" x="334.08212" xlink:href="#m461a478048" y="292.185267"/>
     <use style="fill:#ff0000;stroke:#ff0000;" x="335.396511" xlink:href="#m461a478048" y="281.025216"/>
     <use style="fill:#ff0000;stroke:#ff0000;" x="336.710902" xlink:href="#m461a478048" y="292.053228"/>
     <use style="fill:#ff0000;stroke:#ff0000;" x="338.025293" xlink:href="#m461a478048" y="275.419704"/>
     <use style="fill:#ff0000;stroke:#ff0000;" x="339.339683" xlink:href="#m461a478048" y="272.745318"/>
     <use style="fill:#ff0000;stroke:#ff0000;" x="340.654074" xlink:href="#m461a478048" y="285.469485"/>
     <use style="fill:#ff0000;stroke:#ff0000;" x="341.968465" xlink:href="#m461a478048" y="273.480037"/>
     <use style="fill:#ff0000;stroke:#ff0000;" x="343.282856" xlink:href="#m461a478048" y="278.850855"/>
     <use style="fill:#ff0000;stroke:#ff0000;" x="344.597247" xlink:href="#m461a478048" y="292.755752"/>
     <use style="fill:#ff0000;stroke:#ff0000;" x="345.911638" xlink:href="#m461a478048" y="279.279858"/>
     <use style="fill:#ff0000;stroke:#ff0000;" x="347.226029" xlink:href="#m461a478048" y="274.075369"/>
     <use style="fill:#ff0000;stroke:#ff0000;" x="348.54042" xlink:href="#m461a478048" y="281.118948"/>
     <use style="fill:#ff0000;stroke:#ff0000;" x="349.85481" xlink:href="#m461a478048" y="282.057564"/>
     <use style="fill:#ff0000;stroke:#ff0000;" x="351.169201" xlink:href="#m461a478048" y="293.841"/>
     <use style="fill:#ff0000;stroke:#ff0000;" x="352.483592" xlink:href="#m461a478048" y="288.520132"/>
     <use style="fill:#ff0000;stroke:#ff0000;" x="353.797983" xlink:href="#m461a478048" y="286.192518"/>
     <use style="fill:#ff0000;stroke:#ff0000;" x="355.112374" xlink:href="#m461a478048" y="287.170647"/>
     <use style="fill:#ff0000;stroke:#ff0000;" x="356.426765" xlink:href="#m461a478048" y="280.514554"/>
     <use style="fill:#ff0000;stroke:#ff0000;" x="357.741156" xlink:href="#m461a478048" y="273.830103"/>
     <use style="fill:#ff0000;stroke:#ff0000;" x="359.055547" xlink:href="#m461a478048" y="275.66295"/>
     <use style="fill:#ff0000;stroke:#ff0000;" x="360.369937" xlink:href="#m461a478048" y="285.082663"/>
     <use style="fill:#ff0000;stroke:#ff0000;" x="361.684328" xlink:href="#m461a478048" y="276.677127"/>
     <use style="fill:#ff0000;stroke:#ff0000;" x="362.998719" xlink:href="#m461a478048" y="295.488"/>
     <use style="fill:#ff0000;stroke:#ff0000;" x="364.31311" xlink:href="#m461a478048" y="284.75719"/>
     <use style="fill:#ff0000;stroke:#ff0000;" x="365.627501" xlink:href="#m461a478048" y="293.814003"/>
     <use style="fill:#ff0000;stroke:#ff0000;" x="366.941892" xlink:href="#m461a478048" y="278.643732"/>
     <use style="fill:#ff0000;stroke:#ff0000;" x="368.256283" xlink:href="#m461a478048" y="278.218305"/>
     <use style="fill:#ff0000;stroke:#ff0000;" x="369.570674" xlink:href="#m461a478048" y="279.396899"/>
     <use style="fill:#ff0000;stroke:#ff0000;" x="370.885064" xlink:href="#m461a478048" y="292.786438"/>
     <use style="fill:#ff0000;stroke:#ff0000;" x="372.199455" xlink:href="#m461a478048" y="279.6888"/>
     <use style="fill:#ff0000;stroke:#ff0000;" x="373.513846" xlink:href="#m461a478048" y="280.006803"/>
     <use style="fill:#ff0000;stroke:#ff0000;" x="374.828237" xlink:href="#m461a478048" y="273.930859"/>
     <use style="fill:#ff0000;stroke:#ff0000;" x="376.142628" xlink:href="#m461a478048" y="273.033951"/>
     <use style="fill:#ff0000;stroke:#ff0000;" x="377.457019" xlink:href="#m461a478048" y="286.375424"/>
     <use style="fill:#ff0000;stroke:#ff0000;" x="378.77141" xlink:href="#m461a478048" y="291.410244"/>
     <use style="fill:#ff0000;stroke:#ff0000;" x="380.085801" xlink:href="#m461a478048" y="273.143294"/>
     <use style="fill:#ff0000;stroke:#ff0000;" x="381.400191" xlink:href="#m461a478048" y="284.369623"/>
     <use style="fill:#ff0000;stroke:#ff0000;" x="382.714582" xlink:href="#m461a478048" y="274.060638"/>
     <use style="fill:#ff0000;stroke:#ff0000;" x="384.028973" xlink:href="#m461a478048" y="285.279616"/>
     <use style="fill:#ff0000;stroke:#ff0000;" x="385.343364" xlink:href="#m461a478048" y="287.897647"/>
     <use style="fill:#ff0000;stroke:#ff0000;" x="386.657755" xlink:href="#m461a478048" y="273.325219"/>
     <use style="fill:#ff0000;stroke:#ff0000;" x="387.972146" xlink:href="#m461a478048" y="271.714901"/>
     <use style="fill:#ff0000;stroke:#ff0000;" x="389.286537" xlink:href="#m461a478048" y="288.124917"/>
     <use style="fill:#ff0000;stroke:#ff0000;" x="390.600927" xlink:href="#m461a478048" y="288.041922"/>
     <use style="fill:#ff0000;stroke:#ff0000;" x="391.915318" xlink:href="#m461a478048" y="284.115522"/>
     <use style="fill:#ff0000;stroke:#ff0000;" x="393.229709" xlink:href="#m461a478048" y="291.82204"/>
     <use style="fill:#ff0000;stroke:#ff0000;" x="394.5441" xlink:href="#m461a478048" y="291.938586"/>
     <use style="fill:#ff0000;stroke:#ff0000;" x="395.858491" xlink:href="#m461a478048" y="274.60312"/>
     <use style="fill:#ff0000;stroke:#ff0000;" x="397.172882" xlink:href="#m461a478048" y="291.913112"/>
     <use style="fill:#ff0000;stroke:#ff0000;" x="398.487273" xlink:href="#m461a478048" y="287.258762"/>
    </g>
   </g>
   <g id="line2d_12">
    <path clip-path="url(#p33c0c4a1bb)" d="M 73.832727 75.672691 
L 83.033463 88.987319 
L 92.234199 101.864629 
L 101.434936 114.304622 
L 109.321281 124.619403 
L 117.207626 134.61289 
L 125.093971 144.285082 
L 132.980317 153.63598 
L 140.866662 162.665583 
L 148.753007 171.373891 
L 156.639352 179.760904 
L 164.525697 187.826623 
L 172.412043 195.571047 
L 180.298388 202.994177 
L 188.184733 210.096012 
L 196.071078 216.876552 
L 203.957424 223.335797 
L 211.843769 229.473748 
L 219.730114 235.290404 
L 227.616459 240.785765 
L 235.502805 245.959832 
L 242.074759 250.026121 
L 248.646713 253.869289 
L 255.218668 257.489335 
L 261.790622 260.88626 
L 268.362576 264.060063 
L 274.934531 267.010746 
L 281.506485 269.738307 
L 288.078439 272.242747 
L 294.650394 274.524065 
L 301.222348 276.582262 
L 307.794303 278.417338 
L 314.366257 280.029293 
L 320.938211 281.418126 
L 327.510166 282.583838 
L 334.08212 283.526428 
L 340.654074 284.245898 
L 347.226029 284.742246 
L 353.797983 285.015472 
L 360.369937 285.065578 
L 366.941892 284.892562 
L 373.513846 284.496425 
L 380.085801 283.877166 
L 386.657755 283.034786 
L 393.229709 281.969285 
L 398.487273 280.956237 
L 398.487273 280.956237 
" style="fill:none;stroke:#008000;stroke-linecap:square;stroke-width:1.5;"/>
   </g>
   <g id="patch_3">
    <path d="M 57.6 307.584 
L 57.6 41.472 
" style="fill:none;stroke:#000000;stroke-linecap:square;stroke-linejoin:miter;stroke-width:0.8;"/>
   </g>
   <g id="patch_4">
    <path d="M 414.72 307.584 
L 414.72 41.472 
" style="fill:none;stroke:#000000;stroke-linecap:square;stroke-linejoin:miter;stroke-width:0.8;"/>
   </g>
   <g id="patch_5">
    <path d="M 57.6 307.584 
L 414.72 307.584 
" style="fill:none;stroke:#000000;stroke-linecap:square;stroke-linejoin:miter;stroke-width:0.8;"/>
   </g>
   <g id="patch_6">
    <path d="M 57.6 41.472 
L 414.72 41.472 
" style="fill:none;stroke:#000000;stroke-linecap:square;stroke-linejoin:miter;stroke-width:0.8;"/>
   </g>
   <g id="text_13">
    <!-- FunctionFitting 36 -->
    <defs>
     <path d="M 9.8125 72.90625 
L 51.703125 72.90625 
L 51.703125 64.59375 
L 19.671875 64.59375 
L 19.671875 43.109375 
L 48.578125 43.109375 
L 48.578125 34.8125 
L 19.671875 34.8125 
L 19.671875 0 
L 9.8125 0 
z
" id="DejaVuSans-70"/>
     <path d="M 54.890625 33.015625 
L 54.890625 0 
L 45.90625 0 
L 45.90625 32.71875 
Q 45.90625 40.484375 42.875 44.328125 
Q 39.84375 48.1875 33.796875 48.1875 
Q 26.515625 48.1875 22.3125 43.546875 
Q 18.109375 38.921875 18.109375 30.90625 
L 18.109375 0 
L 9.078125 0 
L 9.078125 54.6875 
L 18.109375 54.6875 
L 18.109375 46.1875 
Q 21.34375 51.125 25.703125 53.5625 
Q 30.078125 56 35.796875 56 
Q 45.21875 56 50.046875 50.171875 
Q 54.890625 44.34375 54.890625 33.015625 
z
" id="DejaVuSans-110"/>
     <path d="M 48.78125 52.59375 
L 48.78125 44.1875 
Q 44.96875 46.296875 41.140625 47.34375 
Q 37.3125 48.390625 33.40625 48.390625 
Q 24.65625 48.390625 19.8125 42.84375 
Q 14.984375 37.3125 14.984375 27.296875 
Q 14.984375 17.28125 19.8125 11.734375 
Q 24.65625 6.203125 33.40625 6.203125 
Q 37.3125 6.203125 41.140625 7.25 
Q 44.96875 8.296875 48.78125 10.40625 
L 48.78125 2.09375 
Q 45.015625 0.34375 40.984375 -0.53125 
Q 36.96875 -1.421875 32.421875 -1.421875 
Q 20.0625 -1.421875 12.78125 6.34375 
Q 5.515625 14.109375 5.515625 27.296875 
Q 5.515625 40.671875 12.859375 48.328125 
Q 20.21875 56 33.015625 56 
Q 37.15625 56 41.109375 55.140625 
Q 45.0625 54.296875 48.78125 52.59375 
z
" id="DejaVuSans-99"/>
     <path d="M 18.3125 70.21875 
L 18.3125 54.6875 
L 36.8125 54.6875 
L 36.8125 47.703125 
L 18.3125 47.703125 
L 18.3125 18.015625 
Q 18.3125 11.328125 20.140625 9.421875 
Q 21.96875 7.515625 27.59375 7.515625 
L 36.8125 7.515625 
L 36.8125 0 
L 27.59375 0 
Q 17.1875 0 13.234375 3.875 
Q 9.28125 7.765625 9.28125 18.015625 
L 9.28125 47.703125 
L 2.6875 47.703125 
L 2.6875 54.6875 
L 9.28125 54.6875 
L 9.28125 70.21875 
z
" id="DejaVuSans-116"/>
     <path d="M 9.421875 54.6875 
L 18.40625 54.6875 
L 18.40625 0 
L 9.421875 0 
z
M 9.421875 75.984375 
L 18.40625 75.984375 
L 18.40625 64.59375 
L 9.421875 64.59375 
z
" id="DejaVuSans-105"/>
     <path d="M 30.609375 48.390625 
Q 23.390625 48.390625 19.1875 42.75 
Q 14.984375 37.109375 14.984375 27.296875 
Q 14.984375 17.484375 19.15625 11.84375 
Q 23.34375 6.203125 30.609375 6.203125 
Q 37.796875 6.203125 41.984375 11.859375 
Q 46.1875 17.53125 46.1875 27.296875 
Q 46.1875 37.015625 41.984375 42.703125 
Q 37.796875 48.390625 30.609375 48.390625 
z
M 30.609375 56 
Q 42.328125 56 49.015625 48.375 
Q 55.71875 40.765625 55.71875 27.296875 
Q 55.71875 13.875 49.015625 6.21875 
Q 42.328125 -1.421875 30.609375 -1.421875 
Q 18.84375 -1.421875 12.171875 6.21875 
Q 5.515625 13.875 5.515625 27.296875 
Q 5.515625 40.765625 12.171875 48.375 
Q 18.84375 56 30.609375 56 
z
" id="DejaVuSans-111"/>
     <path d="M 45.40625 27.984375 
Q 45.40625 37.75 41.375 43.109375 
Q 37.359375 48.484375 30.078125 48.484375 
Q 22.859375 48.484375 18.828125 43.109375 
Q 14.796875 37.75 14.796875 27.984375 
Q 14.796875 18.265625 18.828125 12.890625 
Q 22.859375 7.515625 30.078125 7.515625 
Q 37.359375 7.515625 41.375 12.890625 
Q 45.40625 18.265625 45.40625 27.984375 
z
M 54.390625 6.78125 
Q 54.390625 -7.171875 48.1875 -13.984375 
Q 42 -20.796875 29.203125 -20.796875 
Q 24.46875 -20.796875 20.265625 -20.09375 
Q 16.0625 -19.390625 12.109375 -17.921875 
L 12.109375 -9.1875 
Q 16.0625 -11.328125 19.921875 -12.34375 
Q 23.78125 -13.375 27.78125 -13.375 
Q 36.625 -13.375 41.015625 -8.765625 
Q 45.40625 -4.15625 45.40625 5.171875 
L 45.40625 9.625 
Q 42.625 4.78125 38.28125 2.390625 
Q 33.9375 0 27.875 0 
Q 17.828125 0 11.671875 7.65625 
Q 5.515625 15.328125 5.515625 27.984375 
Q 5.515625 40.671875 11.671875 48.328125 
Q 17.828125 56 27.875 56 
Q 33.9375 56 38.28125 53.609375 
Q 42.625 51.21875 45.40625 46.390625 
L 45.40625 54.6875 
L 54.390625 54.6875 
z
" id="DejaVuSans-103"/>
    </defs>
    <g transform="translate(181.680937 35.472)scale(0.12 -0.12)">
     <use xlink:href="#DejaVuSans-70"/>
     <use x="57.441406" xlink:href="#DejaVuSans-117"/>
     <use x="120.820312" xlink:href="#DejaVuSans-110"/>
     <use x="184.199219" xlink:href="#DejaVuSans-99"/>
     <use x="239.179688" xlink:href="#DejaVuSans-116"/>
     <use x="278.388672" xlink:href="#DejaVuSans-105"/>
     <use x="306.171875" xlink:href="#DejaVuSans-111"/>
     <use x="367.353516" xlink:href="#DejaVuSans-110"/>
     <use x="430.732422" xlink:href="#DejaVuSans-70"/>
     <use x="488.142578" xlink:href="#DejaVuSans-105"/>
     <use x="515.925781" xlink:href="#DejaVuSans-116"/>
     <use x="555.134766" xlink:href="#DejaVuSans-116"/>
     <use x="594.34375" xlink:href="#DejaVuSans-105"/>
     <use x="622.126953" xlink:href="#DejaVuSans-110"/>
     <use x="685.505859" xlink:href="#DejaVuSans-103"/>
     <use x="748.982422" xlink:href="#DejaVuSans-32"/>
     <use x="780.769531" xlink:href="#DejaVuSans-51"/>
     <use x="844.392578" xlink:href="#DejaVuSans-54"/>
    </g>
   </g>
   <g id="legend_1">
    <g id="patch_7">
     <path d="M 299.83875 78.82825 
L 407.72 78.82825 
Q 409.72 78.82825 409.72 76.82825 
L 409.72 48.472 
Q 409.72 46.472 407.72 46.472 
L 299.83875 46.472 
Q 297.83875 46.472 297.83875 48.472 
L 297.83875 76.82825 
Q 297.83875 78.82825 299.83875 78.82825 
z
" style="fill:#ffffff;opacity:0.8;stroke:#cccccc;stroke-linejoin:miter;"/>
    </g>
    <g id="line2d_13"/>
    <g id="line2d_14">
     <g>
      <use style="fill:#ff0000;stroke:#ff0000;" x="311.83875" xlink:href="#m461a478048" y="54.570437"/>
     </g>
    </g>
    <g id="text_14">
     <!-- measured data -->
     <defs>
      <path d="M 52 44.1875 
Q 55.375 50.25 60.0625 53.125 
Q 64.75 56 71.09375 56 
Q 79.640625 56 84.28125 50.015625 
Q 88.921875 44.046875 88.921875 33.015625 
L 88.921875 0 
L 79.890625 0 
L 79.890625 32.71875 
Q 79.890625 40.578125 77.09375 44.375 
Q 74.3125 48.1875 68.609375 48.1875 
Q 61.625 48.1875 57.5625 43.546875 
Q 53.515625 38.921875 53.515625 30.90625 
L 53.515625 0 
L 44.484375 0 
L 44.484375 32.71875 
Q 44.484375 40.625 41.703125 44.40625 
Q 38.921875 48.1875 33.109375 48.1875 
Q 26.21875 48.1875 22.15625 43.53125 
Q 18.109375 38.875 18.109375 30.90625 
L 18.109375 0 
L 9.078125 0 
L 9.078125 54.6875 
L 18.109375 54.6875 
L 18.109375 46.1875 
Q 21.1875 51.21875 25.484375 53.609375 
Q 29.78125 56 35.6875 56 
Q 41.65625 56 45.828125 52.96875 
Q 50 49.953125 52 44.1875 
z
" id="DejaVuSans-109"/>
      <path d="M 41.109375 46.296875 
Q 39.59375 47.171875 37.8125 47.578125 
Q 36.03125 48 33.890625 48 
Q 26.265625 48 22.1875 43.046875 
Q 18.109375 38.09375 18.109375 28.8125 
L 18.109375 0 
L 9.078125 0 
L 9.078125 54.6875 
L 18.109375 54.6875 
L 18.109375 46.1875 
Q 20.953125 51.171875 25.484375 53.578125 
Q 30.03125 56 36.53125 56 
Q 37.453125 56 38.578125 55.875 
Q 39.703125 55.765625 41.0625 55.515625 
z
" id="DejaVuSans-114"/>
      <path d="M 45.40625 46.390625 
L 45.40625 75.984375 
L 54.390625 75.984375 
L 54.390625 0 
L 45.40625 0 
L 45.40625 8.203125 
Q 42.578125 3.328125 38.25 0.953125 
Q 33.9375 -1.421875 27.875 -1.421875 
Q 17.96875 -1.421875 11.734375 6.484375 
Q 5.515625 14.40625 5.515625 27.296875 
Q 5.515625 40.1875 11.734375 48.09375 
Q 17.96875 56 27.875 56 
Q 33.9375 56 38.25 53.625 
Q 42.578125 51.265625 45.40625 46.390625 
z
M 14.796875 27.296875 
Q 14.796875 17.390625 18.875 11.75 
Q 22.953125 6.109375 30.078125 6.109375 
Q 37.203125 6.109375 41.296875 11.75 
Q 45.40625 17.390625 45.40625 27.296875 
Q 45.40625 37.203125 41.296875 42.84375 
Q 37.203125 48.484375 30.078125 48.484375 
Q 22.953125 48.484375 18.875 42.84375 
Q 14.796875 37.203125 14.796875 27.296875 
z
" id="DejaVuSans-100"/>
     </defs>
     <g transform="translate(329.83875 58.070437)scale(0.1 -0.1)">
      <use xlink:href="#DejaVuSans-109"/>
      <use x="97.412109" xlink:href="#DejaVuSans-101"/>
      <use x="158.935547" xlink:href="#DejaVuSans-97"/>
      <use x="220.214844" xlink:href="#DejaVuSans-115"/>
      <use x="272.314453" xlink:href="#DejaVuSans-117"/>
      <use x="335.693359" xlink:href="#DejaVuSans-114"/>
      <use x="376.775391" xlink:href="#DejaVuSans-101"/>
      <use x="438.298828" xlink:href="#DejaVuSans-100"/>
      <use x="501.775391" xlink:href="#DejaVuSans-32"/>
      <use x="533.5625" xlink:href="#DejaVuSans-100"/>
      <use x="597.039062" xlink:href="#DejaVuSans-97"/>
      <use x="658.318359" xlink:href="#DejaVuSans-116"/>
      <use x="697.527344" xlink:href="#DejaVuSans-97"/>
     </g>
    </g>
    <g id="line2d_15">
     <path d="M 301.83875 69.248562 
L 321.83875 69.248562 
" style="fill:none;stroke:#008000;stroke-linecap:square;stroke-width:1.5;"/>
    </g>
    <g id="line2d_16"/>
    <g id="text_15">
     <!-- linear data -->
     <g transform="translate(329.83875 72.748562)scale(0.1 -0.1)">
      <use xlink:href="#DejaVuSans-108"/>
      <use x="27.783203" xlink:href="#DejaVuSans-105"/>
      <use x="55.566406" xlink:href="#DejaVuSans-110"/>
      <use x="118.945312" xlink:href="#DejaVuSans-101"/>
      <use x="180.46875" xlink:href="#DejaVuSans-97"/>
      <use x="241.748047" xlink:href="#DejaVuSans-114"/>
      <use x="282.861328" xlink:href="#DejaVuSans-32"/>
      <use x="314.648438" xlink:href="#DejaVuSans-100"/>
      <use x="378.125" xlink:href="#DejaVuSans-97"/>
      <use x="439.404297" xlink:href="#DejaVuSans-116"/>
      <use x="478.613281" xlink:href="#DejaVuSans-97"/>
     </g>
    </g>
   </g>
  </g>
 </g>
 <defs>
  <clipPath id="p33c0c4a1bb">
   <rect height="266.112" width="357.12" x="57.6" y="41.472"/>
  </clipPath>
 </defs>
</svg>
