<?xml version="1.0" encoding="utf-8" standalone="no"?>
<!DOCTYPE svg PUBLIC "-//W3C//DTD SVG 1.1//EN"
  "http://www.w3.org/Graphics/SVG/1.1/DTD/svg11.dtd">
<!-- Created with matplotlib (https://matplotlib.org/) -->
<svg height="345.6pt" version="1.1" viewBox="0 0 460.8 345.6" width="460.8pt" xmlns="http://www.w3.org/2000/svg" xmlns:xlink="http://www.w3.org/1999/xlink">
 <defs>
  <style type="text/css">
*{stroke-linecap:butt;stroke-linejoin:round;}
  </style>
 </defs>
 <g id="figure_1">
  <g id="patch_1">
   <path d="M 0 345.6 
L 460.8 345.6 
L 460.8 0 
L 0 0 
z
" style="fill:#ffffff;"/>
  </g>
  <g id="axes_1">
   <g id="patch_2">
    <path d="M 57.6 307.584 
L 414.72 307.584 
L 414.72 41.472 
L 57.6 41.472 
z
" style="fill:#ffffff;"/>
   </g>
   <g id="matplotlib.axis_1">
    <g id="xtick_1">
     <g id="line2d_1">
      <defs>
       <path d="M 0 0 
L 0 3.5 
" id="md8de19b190" style="stroke:#000000;stroke-width:0.8;"/>
      </defs>
      <g>
       <use style="stroke:#000000;stroke-width:0.8;" x="123.22154" xlink:href="#md8de19b190" y="307.584"/>
      </g>
     </g>
     <g id="text_1">
      <!-- 20 -->
      <defs>
       <path d="M 19.1875 8.296875 
L 53.609375 8.296875 
L 53.609375 0 
L 7.328125 0 
L 7.328125 8.296875 
Q 12.9375 14.109375 22.625 23.890625 
Q 32.328125 33.6875 34.8125 36.53125 
Q 39.546875 41.84375 41.421875 45.53125 
Q 43.3125 49.21875 43.3125 52.78125 
Q 43.3125 58.59375 39.234375 62.25 
Q 35.15625 65.921875 28.609375 65.921875 
Q 23.96875 65.921875 18.8125 64.3125 
Q 13.671875 62.703125 7.8125 59.421875 
L 7.8125 69.390625 
Q 13.765625 71.78125 18.9375 73 
Q 24.125 74.21875 28.421875 74.21875 
Q 39.75 74.21875 46.484375 68.546875 
Q 53.21875 62.890625 53.21875 53.421875 
Q 53.21875 48.921875 51.53125 44.890625 
Q 49.859375 40.875 45.40625 35.40625 
Q 44.1875 33.984375 37.640625 27.21875 
Q 31.109375 20.453125 19.1875 8.296875 
z
" id="DejaVuSans-50"/>
       <path d="M 31.78125 66.40625 
Q 24.171875 66.40625 20.328125 58.90625 
Q 16.5 51.421875 16.5 36.375 
Q 16.5 21.390625 20.328125 13.890625 
Q 24.171875 6.390625 31.78125 6.390625 
Q 39.453125 6.390625 43.28125 13.890625 
Q 47.125 21.390625 47.125 36.375 
Q 47.125 51.421875 43.28125 58.90625 
Q 39.453125 66.40625 31.78125 66.40625 
z
M 31.78125 74.21875 
Q 44.046875 74.21875 50.515625 64.515625 
Q 56.984375 54.828125 56.984375 36.375 
Q 56.984375 17.96875 50.515625 8.265625 
Q 44.046875 -1.421875 31.78125 -1.421875 
Q 19.53125 -1.421875 13.0625 8.265625 
Q 6.59375 17.96875 6.59375 36.375 
Q 6.59375 54.828125 13.0625 64.515625 
Q 19.53125 74.21875 31.78125 74.21875 
z
" id="DejaVuSans-48"/>
      </defs>
      <g transform="translate(116.85904 322.182437)scale(0.1 -0.1)">
       <use xlink:href="#DejaVuSans-50"/>
       <use x="63.623047" xlink:href="#DejaVuSans-48"/>
      </g>
     </g>
    </g>
    <g id="xtick_2">
     <g id="line2d_2">
      <g>
       <use style="stroke:#000000;stroke-width:0.8;" x="193.883648" xlink:href="#md8de19b190" y="307.584"/>
      </g>
     </g>
     <g id="text_2">
      <!-- 40 -->
      <defs>
       <path d="M 37.796875 64.3125 
L 12.890625 25.390625 
L 37.796875 25.390625 
z
M 35.203125 72.90625 
L 47.609375 72.90625 
L 47.609375 25.390625 
L 58.015625 25.390625 
L 58.015625 17.1875 
L 47.609375 17.1875 
L 47.609375 0 
L 37.796875 0 
L 37.796875 17.1875 
L 4.890625 17.1875 
L 4.890625 26.703125 
z
" id="DejaVuSans-52"/>
      </defs>
      <g transform="translate(187.521148 322.182437)scale(0.1 -0.1)">
       <use xlink:href="#DejaVuSans-52"/>
       <use x="63.623047" xlink:href="#DejaVuSans-48"/>
      </g>
     </g>
    </g>
    <g id="xtick_3">
     <g id="line2d_3">
      <g>
       <use style="stroke:#000000;stroke-width:0.8;" x="264.545757" xlink:href="#md8de19b190" y="307.584"/>
      </g>
     </g>
     <g id="text_3">
      <!-- 60 -->
      <defs>
       <path d="M 33.015625 40.375 
Q 26.375 40.375 22.484375 35.828125 
Q 18.609375 31.296875 18.609375 23.390625 
Q 18.609375 15.53125 22.484375 10.953125 
Q 26.375 6.390625 33.015625 6.390625 
Q 39.65625 6.390625 43.53125 10.953125 
Q 47.40625 15.53125 47.40625 23.390625 
Q 47.40625 31.296875 43.53125 35.828125 
Q 39.65625 40.375 33.015625 40.375 
z
M 52.59375 71.296875 
L 52.59375 62.3125 
Q 48.875 64.0625 45.09375 64.984375 
Q 41.3125 65.921875 37.59375 65.921875 
Q 27.828125 65.921875 22.671875 59.328125 
Q 17.53125 52.734375 16.796875 39.40625 
Q 19.671875 43.65625 24.015625 45.921875 
Q 28.375 48.1875 33.59375 48.1875 
Q 44.578125 48.1875 50.953125 41.515625 
Q 57.328125 34.859375 57.328125 23.390625 
Q 57.328125 12.15625 50.6875 5.359375 
Q 44.046875 -1.421875 33.015625 -1.421875 
Q 20.359375 -1.421875 13.671875 8.265625 
Q 6.984375 17.96875 6.984375 36.375 
Q 6.984375 53.65625 15.1875 63.9375 
Q 23.390625 74.21875 37.203125 74.21875 
Q 40.921875 74.21875 44.703125 73.484375 
Q 48.484375 72.75 52.59375 71.296875 
z
" id="DejaVuSans-54"/>
      </defs>
      <g transform="translate(258.183257 322.182437)scale(0.1 -0.1)">
       <use xlink:href="#DejaVuSans-54"/>
       <use x="63.623047" xlink:href="#DejaVuSans-48"/>
      </g>
     </g>
    </g>
    <g id="xtick_4">
     <g id="line2d_4">
      <g>
       <use style="stroke:#000000;stroke-width:0.8;" x="335.207865" xlink:href="#md8de19b190" y="307.584"/>
      </g>
     </g>
     <g id="text_4">
      <!-- 80 -->
      <defs>
       <path d="M 31.78125 34.625 
Q 24.75 34.625 20.71875 30.859375 
Q 16.703125 27.09375 16.703125 20.515625 
Q 16.703125 13.921875 20.71875 10.15625 
Q 24.75 6.390625 31.78125 6.390625 
Q 38.8125 6.390625 42.859375 10.171875 
Q 46.921875 13.96875 46.921875 20.515625 
Q 46.921875 27.09375 42.890625 30.859375 
Q 38.875 34.625 31.78125 34.625 
z
M 21.921875 38.8125 
Q 15.578125 40.375 12.03125 44.71875 
Q 8.5 49.078125 8.5 55.328125 
Q 8.5 64.0625 14.71875 69.140625 
Q 20.953125 74.21875 31.78125 74.21875 
Q 42.671875 74.21875 48.875 69.140625 
Q 55.078125 64.0625 55.078125 55.328125 
Q 55.078125 49.078125 51.53125 44.71875 
Q 48 40.375 41.703125 38.8125 
Q 48.828125 37.15625 52.796875 32.3125 
Q 56.78125 27.484375 56.78125 20.515625 
Q 56.78125 9.90625 50.3125 4.234375 
Q 43.84375 -1.421875 31.78125 -1.421875 
Q 19.734375 -1.421875 13.25 4.234375 
Q 6.78125 9.90625 6.78125 20.515625 
Q 6.78125 27.484375 10.78125 32.3125 
Q 14.796875 37.15625 21.921875 38.8125 
z
M 18.3125 54.390625 
Q 18.3125 48.734375 21.84375 45.5625 
Q 25.390625 42.390625 31.78125 42.390625 
Q 38.140625 42.390625 41.71875 45.5625 
Q 45.3125 48.734375 45.3125 54.390625 
Q 45.3125 60.0625 41.71875 63.234375 
Q 38.140625 66.40625 31.78125 66.40625 
Q 25.390625 66.40625 21.84375 63.234375 
Q 18.3125 60.0625 18.3125 54.390625 
z
" id="DejaVuSans-56"/>
      </defs>
      <g transform="translate(328.845365 322.182437)scale(0.1 -0.1)">
       <use xlink:href="#DejaVuSans-56"/>
       <use x="63.623047" xlink:href="#DejaVuSans-48"/>
      </g>
     </g>
    </g>
    <g id="xtick_5">
     <g id="line2d_5">
      <g>
       <use style="stroke:#000000;stroke-width:0.8;" x="405.869973" xlink:href="#md8de19b190" y="307.584"/>
      </g>
     </g>
     <g id="text_5">
      <!-- 100 -->
      <defs>
       <path d="M 12.40625 8.296875 
L 28.515625 8.296875 
L 28.515625 63.921875 
L 10.984375 60.40625 
L 10.984375 69.390625 
L 28.421875 72.90625 
L 38.28125 72.90625 
L 38.28125 8.296875 
L 54.390625 8.296875 
L 54.390625 0 
L 12.40625 0 
z
" id="DejaVuSans-49"/>
      </defs>
      <g transform="translate(396.326223 322.182437)scale(0.1 -0.1)">
       <use xlink:href="#DejaVuSans-49"/>
       <use x="63.623047" xlink:href="#DejaVuSans-48"/>
       <use x="127.246094" xlink:href="#DejaVuSans-48"/>
      </g>
     </g>
    </g>
    <g id="text_6">
     <!-- x values -->
     <defs>
      <path d="M 54.890625 54.6875 
L 35.109375 28.078125 
L 55.90625 0 
L 45.3125 0 
L 29.390625 21.484375 
L 13.484375 0 
L 2.875 0 
L 24.125 28.609375 
L 4.6875 54.6875 
L 15.28125 54.6875 
L 29.78125 35.203125 
L 44.28125 54.6875 
z
" id="DejaVuSans-120"/>
      <path id="DejaVuSans-32"/>
      <path d="M 2.984375 54.6875 
L 12.5 54.6875 
L 29.59375 8.796875 
L 46.6875 54.6875 
L 56.203125 54.6875 
L 35.6875 0 
L 23.484375 0 
z
" id="DejaVuSans-118"/>
      <path d="M 34.28125 27.484375 
Q 23.390625 27.484375 19.1875 25 
Q 14.984375 22.515625 14.984375 16.5 
Q 14.984375 11.71875 18.140625 8.90625 
Q 21.296875 6.109375 26.703125 6.109375 
Q 34.1875 6.109375 38.703125 11.40625 
Q 43.21875 16.703125 43.21875 25.484375 
L 43.21875 27.484375 
z
M 52.203125 31.203125 
L 52.203125 0 
L 43.21875 0 
L 43.21875 8.296875 
Q 40.140625 3.328125 35.546875 0.953125 
Q 30.953125 -1.421875 24.3125 -1.421875 
Q 15.921875 -1.421875 10.953125 3.296875 
Q 6 8.015625 6 15.921875 
Q 6 25.140625 12.171875 29.828125 
Q 18.359375 34.515625 30.609375 34.515625 
L 43.21875 34.515625 
L 43.21875 35.40625 
Q 43.21875 41.609375 39.140625 45 
Q 35.0625 48.390625 27.6875 48.390625 
Q 23 48.390625 18.546875 47.265625 
Q 14.109375 46.140625 10.015625 43.890625 
L 10.015625 52.203125 
Q 14.9375 54.109375 19.578125 55.046875 
Q 24.21875 56 28.609375 56 
Q 40.484375 56 46.34375 49.84375 
Q 52.203125 43.703125 52.203125 31.203125 
z
" id="DejaVuSans-97"/>
      <path d="M 9.421875 75.984375 
L 18.40625 75.984375 
L 18.40625 0 
L 9.421875 0 
z
" id="DejaVuSans-108"/>
      <path d="M 8.5 21.578125 
L 8.5 54.6875 
L 17.484375 54.6875 
L 17.484375 21.921875 
Q 17.484375 14.15625 20.5 10.265625 
Q 23.53125 6.390625 29.59375 6.390625 
Q 36.859375 6.390625 41.078125 11.03125 
Q 45.3125 15.671875 45.3125 23.6875 
L 45.3125 54.6875 
L 54.296875 54.6875 
L 54.296875 0 
L 45.3125 0 
L 45.3125 8.40625 
Q 42.046875 3.421875 37.71875 1 
Q 33.40625 -1.421875 27.6875 -1.421875 
Q 18.265625 -1.421875 13.375 4.4375 
Q 8.5 10.296875 8.5 21.578125 
z
M 31.109375 56 
z
" id="DejaVuSans-117"/>
      <path d="M 56.203125 29.59375 
L 56.203125 25.203125 
L 14.890625 25.203125 
Q 15.484375 15.921875 20.484375 11.0625 
Q 25.484375 6.203125 34.421875 6.203125 
Q 39.59375 6.203125 44.453125 7.46875 
Q 49.3125 8.734375 54.109375 11.28125 
L 54.109375 2.78125 
Q 49.265625 0.734375 44.1875 -0.34375 
Q 39.109375 -1.421875 33.890625 -1.421875 
Q 20.796875 -1.421875 13.15625 6.1875 
Q 5.515625 13.8125 5.515625 26.8125 
Q 5.515625 40.234375 12.765625 48.109375 
Q 20.015625 56 32.328125 56 
Q 43.359375 56 49.78125 48.890625 
Q 56.203125 41.796875 56.203125 29.59375 
z
M 47.21875 32.234375 
Q 47.125 39.59375 43.09375 43.984375 
Q 39.0625 48.390625 32.421875 48.390625 
Q 24.90625 48.390625 20.390625 44.140625 
Q 15.875 39.890625 15.1875 32.171875 
z
" id="DejaVuSans-101"/>
      <path d="M 44.28125 53.078125 
L 44.28125 44.578125 
Q 40.484375 46.53125 36.375 47.5 
Q 32.28125 48.484375 27.875 48.484375 
Q 21.1875 48.484375 17.84375 46.4375 
Q 14.5 44.390625 14.5 40.28125 
Q 14.5 37.15625 16.890625 35.375 
Q 19.28125 33.59375 26.515625 31.984375 
L 29.59375 31.296875 
Q 39.15625 29.25 43.1875 25.515625 
Q 47.21875 21.78125 47.21875 15.09375 
Q 47.21875 7.46875 41.1875 3.015625 
Q 35.15625 -1.421875 24.609375 -1.421875 
Q 20.21875 -1.421875 15.453125 -0.5625 
Q 10.6875 0.296875 5.421875 2 
L 5.421875 11.28125 
Q 10.40625 8.6875 15.234375 7.390625 
Q 20.0625 6.109375 24.8125 6.109375 
Q 31.15625 6.109375 34.5625 8.28125 
Q 37.984375 10.453125 37.984375 14.40625 
Q 37.984375 18.0625 35.515625 20.015625 
Q 33.0625 21.96875 24.703125 23.78125 
L 21.578125 24.515625 
Q 13.234375 26.265625 9.515625 29.90625 
Q 5.8125 33.546875 5.8125 39.890625 
Q 5.8125 47.609375 11.28125 51.796875 
Q 16.75 56 26.8125 56 
Q 31.78125 56 36.171875 55.265625 
Q 40.578125 54.546875 44.28125 53.078125 
z
" id="DejaVuSans-115"/>
     </defs>
     <g transform="translate(215.349063 335.860562)scale(0.1 -0.1)">
      <use xlink:href="#DejaVuSans-120"/>
      <use x="59.179688" xlink:href="#DejaVuSans-32"/>
      <use x="90.966797" xlink:href="#DejaVuSans-118"/>
      <use x="150.146484" xlink:href="#DejaVuSans-97"/>
      <use x="211.425781" xlink:href="#DejaVuSans-108"/>
      <use x="239.208984" xlink:href="#DejaVuSans-117"/>
      <use x="302.587891" xlink:href="#DejaVuSans-101"/>
      <use x="364.111328" xlink:href="#DejaVuSans-115"/>
     </g>
    </g>
   </g>
   <g id="matplotlib.axis_2">
    <g id="ytick_1">
     <g id="line2d_6">
      <defs>
       <path d="M 0 0 
L -3.5 0 
" id="mefadbfe1c2" style="stroke:#000000;stroke-width:0.8;"/>
      </defs>
      <g>
       <use style="stroke:#000000;stroke-width:0.8;" x="57.6" xlink:href="#mefadbfe1c2" y="289.921829"/>
      </g>
     </g>
     <g id="text_7">
      <!-- 0 -->
      <g transform="translate(44.2375 293.721048)scale(0.1 -0.1)">
       <use xlink:href="#DejaVuSans-48"/>
      </g>
     </g>
    </g>
    <g id="ytick_2">
     <g id="line2d_7">
      <g>
       <use style="stroke:#000000;stroke-width:0.8;" x="57.6" xlink:href="#mefadbfe1c2" y="243.693865"/>
      </g>
     </g>
     <g id="text_8">
      <!-- 100 -->
      <g transform="translate(31.5125 247.493084)scale(0.1 -0.1)">
       <use xlink:href="#DejaVuSans-49"/>
       <use x="63.623047" xlink:href="#DejaVuSans-48"/>
       <use x="127.246094" xlink:href="#DejaVuSans-48"/>
      </g>
     </g>
    </g>
    <g id="ytick_3">
     <g id="line2d_8">
      <g>
       <use style="stroke:#000000;stroke-width:0.8;" x="57.6" xlink:href="#mefadbfe1c2" y="197.4659"/>
      </g>
     </g>
     <g id="text_9">
      <!-- 200 -->
      <g transform="translate(31.5125 201.265119)scale(0.1 -0.1)">
       <use xlink:href="#DejaVuSans-50"/>
       <use x="63.623047" xlink:href="#DejaVuSans-48"/>
       <use x="127.246094" xlink:href="#DejaVuSans-48"/>
      </g>
     </g>
    </g>
    <g id="ytick_4">
     <g id="line2d_9">
      <g>
       <use style="stroke:#000000;stroke-width:0.8;" x="57.6" xlink:href="#mefadbfe1c2" y="151.237936"/>
      </g>
     </g>
     <g id="text_10">
      <!-- 300 -->
      <defs>
       <path d="M 40.578125 39.3125 
Q 47.65625 37.796875 51.625 33 
Q 55.609375 28.21875 55.609375 21.1875 
Q 55.609375 10.40625 48.1875 4.484375 
Q 40.765625 -1.421875 27.09375 -1.421875 
Q 22.515625 -1.421875 17.65625 -0.515625 
Q 12.796875 0.390625 7.625 2.203125 
L 7.625 11.71875 
Q 11.71875 9.328125 16.59375 8.109375 
Q 21.484375 6.890625 26.8125 6.890625 
Q 36.078125 6.890625 40.9375 10.546875 
Q 45.796875 14.203125 45.796875 21.1875 
Q 45.796875 27.640625 41.28125 31.265625 
Q 36.765625 34.90625 28.71875 34.90625 
L 20.21875 34.90625 
L 20.21875 43.015625 
L 29.109375 43.015625 
Q 36.375 43.015625 40.234375 45.921875 
Q 44.09375 48.828125 44.09375 54.296875 
Q 44.09375 59.90625 40.109375 62.90625 
Q 36.140625 65.921875 28.71875 65.921875 
Q 24.65625 65.921875 20.015625 65.03125 
Q 15.375 64.15625 9.8125 62.3125 
L 9.8125 71.09375 
Q 15.4375 72.65625 20.34375 73.4375 
Q 25.25 74.21875 29.59375 74.21875 
Q 40.828125 74.21875 47.359375 69.109375 
Q 53.90625 64.015625 53.90625 55.328125 
Q 53.90625 49.265625 50.4375 45.09375 
Q 46.96875 40.921875 40.578125 39.3125 
z
" id="DejaVuSans-51"/>
      </defs>
      <g transform="translate(31.5125 155.037154)scale(0.1 -0.1)">
       <use xlink:href="#DejaVuSans-51"/>
       <use x="63.623047" xlink:href="#DejaVuSans-48"/>
       <use x="127.246094" xlink:href="#DejaVuSans-48"/>
      </g>
     </g>
    </g>
    <g id="ytick_5">
     <g id="line2d_10">
      <g>
       <use style="stroke:#000000;stroke-width:0.8;" x="57.6" xlink:href="#mefadbfe1c2" y="105.009971"/>
      </g>
     </g>
     <g id="text_11">
      <!-- 400 -->
      <g transform="translate(31.5125 108.80919)scale(0.1 -0.1)">
       <use xlink:href="#DejaVuSans-52"/>
       <use x="63.623047" xlink:href="#DejaVuSans-48"/>
       <use x="127.246094" xlink:href="#DejaVuSans-48"/>
      </g>
     </g>
    </g>
    <g id="ytick_6">
     <g id="line2d_11">
      <g>
       <use style="stroke:#000000;stroke-width:0.8;" x="57.6" xlink:href="#mefadbfe1c2" y="58.782006"/>
      </g>
     </g>
     <g id="text_12">
      <!-- 500 -->
      <defs>
       <path d="M 10.796875 72.90625 
L 49.515625 72.90625 
L 49.515625 64.59375 
L 19.828125 64.59375 
L 19.828125 46.734375 
Q 21.96875 47.46875 24.109375 47.828125 
Q 26.265625 48.1875 28.421875 48.1875 
Q 40.625 48.1875 47.75 41.5 
Q 54.890625 34.8125 54.890625 23.390625 
Q 54.890625 11.625 47.5625 5.09375 
Q 40.234375 -1.421875 26.90625 -1.421875 
Q 22.3125 -1.421875 17.546875 -0.640625 
Q 12.796875 0.140625 7.71875 1.703125 
L 7.71875 11.625 
Q 12.109375 9.234375 16.796875 8.0625 
Q 21.484375 6.890625 26.703125 6.890625 
Q 35.15625 6.890625 40.078125 11.328125 
Q 45.015625 15.765625 45.015625 23.390625 
Q 45.015625 31 40.078125 35.4375 
Q 35.15625 39.890625 26.703125 39.890625 
Q 22.75 39.890625 18.8125 39.015625 
Q 14.890625 38.140625 10.796875 36.28125 
z
" id="DejaVuSans-53"/>
      </defs>
      <g transform="translate(31.5125 62.581225)scale(0.1 -0.1)">
       <use xlink:href="#DejaVuSans-53"/>
       <use x="63.623047" xlink:href="#DejaVuSans-48"/>
       <use x="127.246094" xlink:href="#DejaVuSans-48"/>
      </g>
     </g>
    </g>
    <g id="text_13">
     <!-- y values -->
     <defs>
      <path d="M 32.171875 -5.078125 
Q 28.375 -14.84375 24.75 -17.8125 
Q 21.140625 -20.796875 15.09375 -20.796875 
L 7.90625 -20.796875 
L 7.90625 -13.28125 
L 13.1875 -13.28125 
Q 16.890625 -13.28125 18.9375 -11.515625 
Q 21 -9.765625 23.484375 -3.21875 
L 25.09375 0.875 
L 2.984375 54.6875 
L 12.5 54.6875 
L 29.59375 11.921875 
L 46.6875 54.6875 
L 56.203125 54.6875 
z
" id="DejaVuSans-121"/>
     </defs>
     <g transform="translate(25.432812 195.338937)rotate(-90)scale(0.1 -0.1)">
      <use xlink:href="#DejaVuSans-121"/>
      <use x="59.179688" xlink:href="#DejaVuSans-32"/>
      <use x="90.966797" xlink:href="#DejaVuSans-118"/>
      <use x="150.146484" xlink:href="#DejaVuSans-97"/>
      <use x="211.425781" xlink:href="#DejaVuSans-108"/>
      <use x="239.208984" xlink:href="#DejaVuSans-117"/>
      <use x="302.587891" xlink:href="#DejaVuSans-101"/>
      <use x="364.111328" xlink:href="#DejaVuSans-115"/>
     </g>
    </g>
   </g>
   <g id="line2d_12">
    <defs>
     <path d="M 0 1 
C 0.265203 1 0.51958 0.894634 0.707107 0.707107 
C 0.894634 0.51958 1 0.265203 1 0 
C 1 -0.265203 0.894634 -0.51958 0.707107 -0.707107 
C 0.51958 -0.894634 0.265203 -1 0 -1 
C -0.265203 -1 -0.51958 -0.894634 -0.707107 -0.707107 
C -0.894634 -0.51958 -1 -0.265203 -1 0 
C -1 0.265203 -0.894634 0.51958 -0.707107 0.707107 
C -0.51958 0.894634 -0.265203 1 0 1 
z
" id="m9145cbfb8a" style="stroke:#ff0000;"/>
    </defs>
    <g clip-path="url(#p6ffe6a0089)">
     <use style="fill:#ff0000;stroke:#ff0000;" x="73.832727" xlink:href="#m9145cbfb8a" y="65.423539"/>
     <use style="fill:#ff0000;stroke:#ff0000;" x="75.009012" xlink:href="#m9145cbfb8a" y="121.978825"/>
     <use style="fill:#ff0000;stroke:#ff0000;" x="76.185296" xlink:href="#m9145cbfb8a" y="86.57534"/>
     <use style="fill:#ff0000;stroke:#ff0000;" x="77.361581" xlink:href="#m9145cbfb8a" y="71.779639"/>
     <use style="fill:#ff0000;stroke:#ff0000;" x="78.537866" xlink:href="#m9145cbfb8a" y="53.568"/>
     <use style="fill:#ff0000;stroke:#ff0000;" x="79.71415" xlink:href="#m9145cbfb8a" y="119.59802"/>
     <use style="fill:#ff0000;stroke:#ff0000;" x="80.890435" xlink:href="#m9145cbfb8a" y="100.345235"/>
     <use style="fill:#ff0000;stroke:#ff0000;" x="82.066719" xlink:href="#m9145cbfb8a" y="75.38174"/>
     <use style="fill:#ff0000;stroke:#ff0000;" x="83.243004" xlink:href="#m9145cbfb8a" y="59.383918"/>
     <use style="fill:#ff0000;stroke:#ff0000;" x="84.419289" xlink:href="#m9145cbfb8a" y="106.859484"/>
     <use style="fill:#ff0000;stroke:#ff0000;" x="85.595573" xlink:href="#m9145cbfb8a" y="97.983505"/>
     <use style="fill:#ff0000;stroke:#ff0000;" x="86.771858" xlink:href="#m9145cbfb8a" y="108.760553"/>
     <use style="fill:#ff0000;stroke:#ff0000;" x="87.948142" xlink:href="#m9145cbfb8a" y="96.712665"/>
     <use style="fill:#ff0000;stroke:#ff0000;" x="89.124427" xlink:href="#m9145cbfb8a" y="127.175506"/>
     <use style="fill:#ff0000;stroke:#ff0000;" x="90.300711" xlink:href="#m9145cbfb8a" y="80.523438"/>
     <use style="fill:#ff0000;stroke:#ff0000;" x="91.476996" xlink:href="#m9145cbfb8a" y="110.139118"/>
     <use style="fill:#ff0000;stroke:#ff0000;" x="92.653281" xlink:href="#m9145cbfb8a" y="115.30609"/>
     <use style="fill:#ff0000;stroke:#ff0000;" x="93.829565" xlink:href="#m9145cbfb8a" y="127.581325"/>
     <use style="fill:#ff0000;stroke:#ff0000;" x="95.00585" xlink:href="#m9145cbfb8a" y="78.152805"/>
     <use style="fill:#ff0000;stroke:#ff0000;" x="96.182134" xlink:href="#m9145cbfb8a" y="95.675528"/>
     <use style="fill:#ff0000;stroke:#ff0000;" x="97.358419" xlink:href="#m9145cbfb8a" y="116.570467"/>
     <use style="fill:#ff0000;stroke:#ff0000;" x="98.534704" xlink:href="#m9145cbfb8a" y="120.707768"/>
     <use style="fill:#ff0000;stroke:#ff0000;" x="99.710988" xlink:href="#m9145cbfb8a" y="103.854835"/>
     <use style="fill:#ff0000;stroke:#ff0000;" x="100.887273" xlink:href="#m9145cbfb8a" y="93.10614"/>
     <use style="fill:#ff0000;stroke:#ff0000;" x="102.063557" xlink:href="#m9145cbfb8a" y="137.398637"/>
     <use style="fill:#ff0000;stroke:#ff0000;" x="103.239842" xlink:href="#m9145cbfb8a" y="98.023186"/>
     <use style="fill:#ff0000;stroke:#ff0000;" x="104.416126" xlink:href="#m9145cbfb8a" y="127.59437"/>
     <use style="fill:#ff0000;stroke:#ff0000;" x="105.592411" xlink:href="#m9145cbfb8a" y="124.631713"/>
     <use style="fill:#ff0000;stroke:#ff0000;" x="106.768696" xlink:href="#m9145cbfb8a" y="112.281932"/>
     <use style="fill:#ff0000;stroke:#ff0000;" x="107.94498" xlink:href="#m9145cbfb8a" y="95.043858"/>
     <use style="fill:#ff0000;stroke:#ff0000;" x="109.121265" xlink:href="#m9145cbfb8a" y="133.932318"/>
     <use style="fill:#ff0000;stroke:#ff0000;" x="110.297549" xlink:href="#m9145cbfb8a" y="125.905365"/>
     <use style="fill:#ff0000;stroke:#ff0000;" x="111.473834" xlink:href="#m9145cbfb8a" y="156.325446"/>
     <use style="fill:#ff0000;stroke:#ff0000;" x="112.650119" xlink:href="#m9145cbfb8a" y="116.621801"/>
     <use style="fill:#ff0000;stroke:#ff0000;" x="113.826403" xlink:href="#m9145cbfb8a" y="154.408801"/>
     <use style="fill:#ff0000;stroke:#ff0000;" x="115.002688" xlink:href="#m9145cbfb8a" y="102.074936"/>
     <use style="fill:#ff0000;stroke:#ff0000;" x="116.178972" xlink:href="#m9145cbfb8a" y="140.518656"/>
     <use style="fill:#ff0000;stroke:#ff0000;" x="117.355257" xlink:href="#m9145cbfb8a" y="121.876278"/>
     <use style="fill:#ff0000;stroke:#ff0000;" x="118.531542" xlink:href="#m9145cbfb8a" y="157.282864"/>
     <use style="fill:#ff0000;stroke:#ff0000;" x="119.707826" xlink:href="#m9145cbfb8a" y="141.595054"/>
     <use style="fill:#ff0000;stroke:#ff0000;" x="120.884111" xlink:href="#m9145cbfb8a" y="149.185405"/>
     <use style="fill:#ff0000;stroke:#ff0000;" x="122.060395" xlink:href="#m9145cbfb8a" y="151.728557"/>
     <use style="fill:#ff0000;stroke:#ff0000;" x="123.23668" xlink:href="#m9145cbfb8a" y="168.800543"/>
     <use style="fill:#ff0000;stroke:#ff0000;" x="124.412964" xlink:href="#m9145cbfb8a" y="155.392771"/>
     <use style="fill:#ff0000;stroke:#ff0000;" x="125.589249" xlink:href="#m9145cbfb8a" y="121.309831"/>
     <use style="fill:#ff0000;stroke:#ff0000;" x="126.765534" xlink:href="#m9145cbfb8a" y="121.237923"/>
     <use style="fill:#ff0000;stroke:#ff0000;" x="127.941818" xlink:href="#m9145cbfb8a" y="144.701"/>
     <use style="fill:#ff0000;stroke:#ff0000;" x="129.118103" xlink:href="#m9145cbfb8a" y="119.188394"/>
     <use style="fill:#ff0000;stroke:#ff0000;" x="130.294387" xlink:href="#m9145cbfb8a" y="138.534861"/>
     <use style="fill:#ff0000;stroke:#ff0000;" x="131.470672" xlink:href="#m9145cbfb8a" y="162.975904"/>
     <use style="fill:#ff0000;stroke:#ff0000;" x="132.646957" xlink:href="#m9145cbfb8a" y="145.43042"/>
     <use style="fill:#ff0000;stroke:#ff0000;" x="133.823241" xlink:href="#m9145cbfb8a" y="143.625318"/>
     <use style="fill:#ff0000;stroke:#ff0000;" x="134.999526" xlink:href="#m9145cbfb8a" y="178.663049"/>
     <use style="fill:#ff0000;stroke:#ff0000;" x="136.17581" xlink:href="#m9145cbfb8a" y="155.052811"/>
     <use style="fill:#ff0000;stroke:#ff0000;" x="137.352095" xlink:href="#m9145cbfb8a" y="169.363208"/>
     <use style="fill:#ff0000;stroke:#ff0000;" x="138.528379" xlink:href="#m9145cbfb8a" y="167.128953"/>
     <use style="fill:#ff0000;stroke:#ff0000;" x="139.704664" xlink:href="#m9145cbfb8a" y="175.401224"/>
     <use style="fill:#ff0000;stroke:#ff0000;" x="140.880949" xlink:href="#m9145cbfb8a" y="164.884541"/>
     <use style="fill:#ff0000;stroke:#ff0000;" x="142.057233" xlink:href="#m9145cbfb8a" y="153.21009"/>
     <use style="fill:#ff0000;stroke:#ff0000;" x="143.233518" xlink:href="#m9145cbfb8a" y="167.271194"/>
     <use style="fill:#ff0000;stroke:#ff0000;" x="144.409802" xlink:href="#m9145cbfb8a" y="160.917126"/>
     <use style="fill:#ff0000;stroke:#ff0000;" x="145.586087" xlink:href="#m9145cbfb8a" y="156.524679"/>
     <use style="fill:#ff0000;stroke:#ff0000;" x="146.762372" xlink:href="#m9145cbfb8a" y="157.848064"/>
     <use style="fill:#ff0000;stroke:#ff0000;" x="147.938656" xlink:href="#m9145cbfb8a" y="164.176241"/>
     <use style="fill:#ff0000;stroke:#ff0000;" x="149.114941" xlink:href="#m9145cbfb8a" y="144.272791"/>
     <use style="fill:#ff0000;stroke:#ff0000;" x="150.291225" xlink:href="#m9145cbfb8a" y="160.393852"/>
     <use style="fill:#ff0000;stroke:#ff0000;" x="151.46751" xlink:href="#m9145cbfb8a" y="164.817688"/>
     <use style="fill:#ff0000;stroke:#ff0000;" x="152.643794" xlink:href="#m9145cbfb8a" y="185.194269"/>
     <use style="fill:#ff0000;stroke:#ff0000;" x="153.820079" xlink:href="#m9145cbfb8a" y="168.271548"/>
     <use style="fill:#ff0000;stroke:#ff0000;" x="154.996364" xlink:href="#m9145cbfb8a" y="198.56135"/>
     <use style="fill:#ff0000;stroke:#ff0000;" x="156.172648" xlink:href="#m9145cbfb8a" y="172.848406"/>
     <use style="fill:#ff0000;stroke:#ff0000;" x="157.348933" xlink:href="#m9145cbfb8a" y="180.419256"/>
     <use style="fill:#ff0000;stroke:#ff0000;" x="158.525217" xlink:href="#m9145cbfb8a" y="187.87762"/>
     <use style="fill:#ff0000;stroke:#ff0000;" x="159.701502" xlink:href="#m9145cbfb8a" y="186.395918"/>
     <use style="fill:#ff0000;stroke:#ff0000;" x="160.877787" xlink:href="#m9145cbfb8a" y="194.134093"/>
     <use style="fill:#ff0000;stroke:#ff0000;" x="162.054071" xlink:href="#m9145cbfb8a" y="216.211105"/>
     <use style="fill:#ff0000;stroke:#ff0000;" x="163.230356" xlink:href="#m9145cbfb8a" y="187.723395"/>
     <use style="fill:#ff0000;stroke:#ff0000;" x="164.40664" xlink:href="#m9145cbfb8a" y="190.03401"/>
     <use style="fill:#ff0000;stroke:#ff0000;" x="165.582925" xlink:href="#m9145cbfb8a" y="177.211625"/>
     <use style="fill:#ff0000;stroke:#ff0000;" x="166.759209" xlink:href="#m9145cbfb8a" y="210.438095"/>
     <use style="fill:#ff0000;stroke:#ff0000;" x="167.935494" xlink:href="#m9145cbfb8a" y="206.232211"/>
     <use style="fill:#ff0000;stroke:#ff0000;" x="169.111779" xlink:href="#m9145cbfb8a" y="193.716426"/>
     <use style="fill:#ff0000;stroke:#ff0000;" x="170.288063" xlink:href="#m9145cbfb8a" y="191.402776"/>
     <use style="fill:#ff0000;stroke:#ff0000;" x="171.464348" xlink:href="#m9145cbfb8a" y="186.01824"/>
     <use style="fill:#ff0000;stroke:#ff0000;" x="172.640632" xlink:href="#m9145cbfb8a" y="192.076033"/>
     <use style="fill:#ff0000;stroke:#ff0000;" x="173.816917" xlink:href="#m9145cbfb8a" y="187.602579"/>
     <use style="fill:#ff0000;stroke:#ff0000;" x="174.993202" xlink:href="#m9145cbfb8a" y="218.486387"/>
     <use style="fill:#ff0000;stroke:#ff0000;" x="176.169486" xlink:href="#m9145cbfb8a" y="205.339851"/>
     <use style="fill:#ff0000;stroke:#ff0000;" x="177.345771" xlink:href="#m9145cbfb8a" y="198.323276"/>
     <use style="fill:#ff0000;stroke:#ff0000;" x="178.522055" xlink:href="#m9145cbfb8a" y="182.692269"/>
     <use style="fill:#ff0000;stroke:#ff0000;" x="179.69834" xlink:href="#m9145cbfb8a" y="207.724495"/>
     <use style="fill:#ff0000;stroke:#ff0000;" x="180.874625" xlink:href="#m9145cbfb8a" y="201.981343"/>
     <use style="fill:#ff0000;stroke:#ff0000;" x="182.050909" xlink:href="#m9145cbfb8a" y="207.929047"/>
     <use style="fill:#ff0000;stroke:#ff0000;" x="183.227194" xlink:href="#m9145cbfb8a" y="220.84951"/>
     <use style="fill:#ff0000;stroke:#ff0000;" x="184.403478" xlink:href="#m9145cbfb8a" y="185.646158"/>
     <use style="fill:#ff0000;stroke:#ff0000;" x="185.579763" xlink:href="#m9145cbfb8a" y="205.288318"/>
     <use style="fill:#ff0000;stroke:#ff0000;" x="186.756047" xlink:href="#m9145cbfb8a" y="209.088079"/>
     <use style="fill:#ff0000;stroke:#ff0000;" x="187.932332" xlink:href="#m9145cbfb8a" y="214.285486"/>
     <use style="fill:#ff0000;stroke:#ff0000;" x="189.108617" xlink:href="#m9145cbfb8a" y="218.923242"/>
     <use style="fill:#ff0000;stroke:#ff0000;" x="190.284901" xlink:href="#m9145cbfb8a" y="229.795101"/>
     <use style="fill:#ff0000;stroke:#ff0000;" x="191.461186" xlink:href="#m9145cbfb8a" y="225.303699"/>
     <use style="fill:#ff0000;stroke:#ff0000;" x="192.63747" xlink:href="#m9145cbfb8a" y="226.923496"/>
     <use style="fill:#ff0000;stroke:#ff0000;" x="193.813755" xlink:href="#m9145cbfb8a" y="216.49354"/>
     <use style="fill:#ff0000;stroke:#ff0000;" x="194.99004" xlink:href="#m9145cbfb8a" y="214.78569"/>
     <use style="fill:#ff0000;stroke:#ff0000;" x="196.166324" xlink:href="#m9145cbfb8a" y="204.767787"/>
     <use style="fill:#ff0000;stroke:#ff0000;" x="197.342609" xlink:href="#m9145cbfb8a" y="219.618226"/>
     <use style="fill:#ff0000;stroke:#ff0000;" x="198.518893" xlink:href="#m9145cbfb8a" y="243.980425"/>
     <use style="fill:#ff0000;stroke:#ff0000;" x="199.695178" xlink:href="#m9145cbfb8a" y="227.176474"/>
     <use style="fill:#ff0000;stroke:#ff0000;" x="200.871462" xlink:href="#m9145cbfb8a" y="219.509523"/>
     <use style="fill:#ff0000;stroke:#ff0000;" x="202.047747" xlink:href="#m9145cbfb8a" y="233.839466"/>
     <use style="fill:#ff0000;stroke:#ff0000;" x="203.224032" xlink:href="#m9145cbfb8a" y="216.768844"/>
     <use style="fill:#ff0000;stroke:#ff0000;" x="204.400316" xlink:href="#m9145cbfb8a" y="237.587139"/>
     <use style="fill:#ff0000;stroke:#ff0000;" x="205.576601" xlink:href="#m9145cbfb8a" y="243.63438"/>
     <use style="fill:#ff0000;stroke:#ff0000;" x="206.752885" xlink:href="#m9145cbfb8a" y="228.561259"/>
     <use style="fill:#ff0000;stroke:#ff0000;" x="207.92917" xlink:href="#m9145cbfb8a" y="243.745627"/>
     <use style="fill:#ff0000;stroke:#ff0000;" x="209.105455" xlink:href="#m9145cbfb8a" y="247.932277"/>
     <use style="fill:#ff0000;stroke:#ff0000;" x="210.281739" xlink:href="#m9145cbfb8a" y="234.991002"/>
     <use style="fill:#ff0000;stroke:#ff0000;" x="211.458024" xlink:href="#m9145cbfb8a" y="233.11891"/>
     <use style="fill:#ff0000;stroke:#ff0000;" x="212.634308" xlink:href="#m9145cbfb8a" y="230.714972"/>
     <use style="fill:#ff0000;stroke:#ff0000;" x="213.810593" xlink:href="#m9145cbfb8a" y="219.116827"/>
     <use style="fill:#ff0000;stroke:#ff0000;" x="214.986877" xlink:href="#m9145cbfb8a" y="235.806737"/>
     <use style="fill:#ff0000;stroke:#ff0000;" x="216.163162" xlink:href="#m9145cbfb8a" y="246.042858"/>
     <use style="fill:#ff0000;stroke:#ff0000;" x="217.339447" xlink:href="#m9145cbfb8a" y="237.671529"/>
     <use style="fill:#ff0000;stroke:#ff0000;" x="218.515731" xlink:href="#m9145cbfb8a" y="238.828446"/>
     <use style="fill:#ff0000;stroke:#ff0000;" x="219.692016" xlink:href="#m9145cbfb8a" y="225.583865"/>
     <use style="fill:#ff0000;stroke:#ff0000;" x="220.8683" xlink:href="#m9145cbfb8a" y="229.526945"/>
     <use style="fill:#ff0000;stroke:#ff0000;" x="222.044585" xlink:href="#m9145cbfb8a" y="252.549612"/>
     <use style="fill:#ff0000;stroke:#ff0000;" x="223.22087" xlink:href="#m9145cbfb8a" y="247.262538"/>
     <use style="fill:#ff0000;stroke:#ff0000;" x="224.397154" xlink:href="#m9145cbfb8a" y="239.356592"/>
     <use style="fill:#ff0000;stroke:#ff0000;" x="225.573439" xlink:href="#m9145cbfb8a" y="247.585148"/>
     <use style="fill:#ff0000;stroke:#ff0000;" x="226.749723" xlink:href="#m9145cbfb8a" y="230.353743"/>
     <use style="fill:#ff0000;stroke:#ff0000;" x="227.926008" xlink:href="#m9145cbfb8a" y="262.473978"/>
     <use style="fill:#ff0000;stroke:#ff0000;" x="229.102292" xlink:href="#m9145cbfb8a" y="257.858168"/>
     <use style="fill:#ff0000;stroke:#ff0000;" x="230.278577" xlink:href="#m9145cbfb8a" y="241.300216"/>
     <use style="fill:#ff0000;stroke:#ff0000;" x="231.454862" xlink:href="#m9145cbfb8a" y="233.204898"/>
     <use style="fill:#ff0000;stroke:#ff0000;" x="232.631146" xlink:href="#m9145cbfb8a" y="246.802996"/>
     <use style="fill:#ff0000;stroke:#ff0000;" x="233.807431" xlink:href="#m9145cbfb8a" y="257.239667"/>
     <use style="fill:#ff0000;stroke:#ff0000;" x="234.983715" xlink:href="#m9145cbfb8a" y="245.059677"/>
     <use style="fill:#ff0000;stroke:#ff0000;" x="236.16" xlink:href="#m9145cbfb8a" y="260.179358"/>
     <use style="fill:#ff0000;stroke:#ff0000;" x="237.336285" xlink:href="#m9145cbfb8a" y="239.563617"/>
     <use style="fill:#ff0000;stroke:#ff0000;" x="238.512569" xlink:href="#m9145cbfb8a" y="238.749586"/>
     <use style="fill:#ff0000;stroke:#ff0000;" x="239.688854" xlink:href="#m9145cbfb8a" y="259.197697"/>
     <use style="fill:#ff0000;stroke:#ff0000;" x="240.865138" xlink:href="#m9145cbfb8a" y="243.448083"/>
     <use style="fill:#ff0000;stroke:#ff0000;" x="242.041423" xlink:href="#m9145cbfb8a" y="251.462065"/>
     <use style="fill:#ff0000;stroke:#ff0000;" x="243.217708" xlink:href="#m9145cbfb8a" y="249.177332"/>
     <use style="fill:#ff0000;stroke:#ff0000;" x="244.393992" xlink:href="#m9145cbfb8a" y="263.342019"/>
     <use style="fill:#ff0000;stroke:#ff0000;" x="245.570277" xlink:href="#m9145cbfb8a" y="265.290071"/>
     <use style="fill:#ff0000;stroke:#ff0000;" x="246.746561" xlink:href="#m9145cbfb8a" y="251.647503"/>
     <use style="fill:#ff0000;stroke:#ff0000;" x="247.922846" xlink:href="#m9145cbfb8a" y="258.112253"/>
     <use style="fill:#ff0000;stroke:#ff0000;" x="249.09913" xlink:href="#m9145cbfb8a" y="256.884139"/>
     <use style="fill:#ff0000;stroke:#ff0000;" x="250.275415" xlink:href="#m9145cbfb8a" y="260.329906"/>
     <use style="fill:#ff0000;stroke:#ff0000;" x="251.4517" xlink:href="#m9145cbfb8a" y="262.46538"/>
     <use style="fill:#ff0000;stroke:#ff0000;" x="252.627984" xlink:href="#m9145cbfb8a" y="251.628338"/>
     <use style="fill:#ff0000;stroke:#ff0000;" x="253.804269" xlink:href="#m9145cbfb8a" y="257.341077"/>
     <use style="fill:#ff0000;stroke:#ff0000;" x="254.980553" xlink:href="#m9145cbfb8a" y="255.32618"/>
     <use style="fill:#ff0000;stroke:#ff0000;" x="256.156838" xlink:href="#m9145cbfb8a" y="271.512292"/>
     <use style="fill:#ff0000;stroke:#ff0000;" x="257.333123" xlink:href="#m9145cbfb8a" y="271.18991"/>
     <use style="fill:#ff0000;stroke:#ff0000;" x="258.509407" xlink:href="#m9145cbfb8a" y="276.266042"/>
     <use style="fill:#ff0000;stroke:#ff0000;" x="259.685692" xlink:href="#m9145cbfb8a" y="270.706675"/>
     <use style="fill:#ff0000;stroke:#ff0000;" x="260.861976" xlink:href="#m9145cbfb8a" y="272.305838"/>
     <use style="fill:#ff0000;stroke:#ff0000;" x="262.038261" xlink:href="#m9145cbfb8a" y="276.301555"/>
     <use style="fill:#ff0000;stroke:#ff0000;" x="263.214545" xlink:href="#m9145cbfb8a" y="271.59169"/>
     <use style="fill:#ff0000;stroke:#ff0000;" x="264.39083" xlink:href="#m9145cbfb8a" y="268.98948"/>
     <use style="fill:#ff0000;stroke:#ff0000;" x="265.567115" xlink:href="#m9145cbfb8a" y="259.397854"/>
     <use style="fill:#ff0000;stroke:#ff0000;" x="266.743399" xlink:href="#m9145cbfb8a" y="258.332212"/>
     <use style="fill:#ff0000;stroke:#ff0000;" x="267.919684" xlink:href="#m9145cbfb8a" y="269.028776"/>
     <use style="fill:#ff0000;stroke:#ff0000;" x="269.095968" xlink:href="#m9145cbfb8a" y="266.654812"/>
     <use style="fill:#ff0000;stroke:#ff0000;" x="270.272253" xlink:href="#m9145cbfb8a" y="274.138858"/>
     <use style="fill:#ff0000;stroke:#ff0000;" x="271.448538" xlink:href="#m9145cbfb8a" y="262.719989"/>
     <use style="fill:#ff0000;stroke:#ff0000;" x="272.624822" xlink:href="#m9145cbfb8a" y="276.331266"/>
     <use style="fill:#ff0000;stroke:#ff0000;" x="273.801107" xlink:href="#m9145cbfb8a" y="259.807865"/>
     <use style="fill:#ff0000;stroke:#ff0000;" x="274.977391" xlink:href="#m9145cbfb8a" y="261.152374"/>
     <use style="fill:#ff0000;stroke:#ff0000;" x="276.153676" xlink:href="#m9145cbfb8a" y="269.231539"/>
     <use style="fill:#ff0000;stroke:#ff0000;" x="277.32996" xlink:href="#m9145cbfb8a" y="262.680178"/>
     <use style="fill:#ff0000;stroke:#ff0000;" x="278.506245" xlink:href="#m9145cbfb8a" y="263.529962"/>
     <use style="fill:#ff0000;stroke:#ff0000;" x="279.68253" xlink:href="#m9145cbfb8a" y="265.648121"/>
     <use style="fill:#ff0000;stroke:#ff0000;" x="280.858814" xlink:href="#m9145cbfb8a" y="274.270768"/>
     <use style="fill:#ff0000;stroke:#ff0000;" x="282.035099" xlink:href="#m9145cbfb8a" y="270.24327"/>
     <use style="fill:#ff0000;stroke:#ff0000;" x="283.211383" xlink:href="#m9145cbfb8a" y="282.886025"/>
     <use style="fill:#ff0000;stroke:#ff0000;" x="284.387668" xlink:href="#m9145cbfb8a" y="281.613503"/>
     <use style="fill:#ff0000;stroke:#ff0000;" x="285.563953" xlink:href="#m9145cbfb8a" y="268.884244"/>
     <use style="fill:#ff0000;stroke:#ff0000;" x="286.740237" xlink:href="#m9145cbfb8a" y="280.505067"/>
     <use style="fill:#ff0000;stroke:#ff0000;" x="287.916522" xlink:href="#m9145cbfb8a" y="263.751823"/>
     <use style="fill:#ff0000;stroke:#ff0000;" x="289.092806" xlink:href="#m9145cbfb8a" y="287.309288"/>
     <use style="fill:#ff0000;stroke:#ff0000;" x="290.269091" xlink:href="#m9145cbfb8a" y="263.188663"/>
     <use style="fill:#ff0000;stroke:#ff0000;" x="291.445375" xlink:href="#m9145cbfb8a" y="278.844803"/>
     <use style="fill:#ff0000;stroke:#ff0000;" x="292.62166" xlink:href="#m9145cbfb8a" y="279.254905"/>
     <use style="fill:#ff0000;stroke:#ff0000;" x="293.797945" xlink:href="#m9145cbfb8a" y="284.763945"/>
     <use style="fill:#ff0000;stroke:#ff0000;" x="294.974229" xlink:href="#m9145cbfb8a" y="271.293374"/>
     <use style="fill:#ff0000;stroke:#ff0000;" x="296.150514" xlink:href="#m9145cbfb8a" y="276.840676"/>
     <use style="fill:#ff0000;stroke:#ff0000;" x="297.326798" xlink:href="#m9145cbfb8a" y="270.352111"/>
     <use style="fill:#ff0000;stroke:#ff0000;" x="298.503083" xlink:href="#m9145cbfb8a" y="290.923602"/>
     <use style="fill:#ff0000;stroke:#ff0000;" x="299.679368" xlink:href="#m9145cbfb8a" y="283.67233"/>
     <use style="fill:#ff0000;stroke:#ff0000;" x="300.855652" xlink:href="#m9145cbfb8a" y="279.923898"/>
     <use style="fill:#ff0000;stroke:#ff0000;" x="302.031937" xlink:href="#m9145cbfb8a" y="268.006777"/>
     <use style="fill:#ff0000;stroke:#ff0000;" x="303.208221" xlink:href="#m9145cbfb8a" y="278.242627"/>
     <use style="fill:#ff0000;stroke:#ff0000;" x="304.384506" xlink:href="#m9145cbfb8a" y="285.559818"/>
     <use style="fill:#ff0000;stroke:#ff0000;" x="305.560791" xlink:href="#m9145cbfb8a" y="288.424928"/>
     <use style="fill:#ff0000;stroke:#ff0000;" x="306.737075" xlink:href="#m9145cbfb8a" y="277.92377"/>
     <use style="fill:#ff0000;stroke:#ff0000;" x="307.91336" xlink:href="#m9145cbfb8a" y="275.761607"/>
     <use style="fill:#ff0000;stroke:#ff0000;" x="309.089644" xlink:href="#m9145cbfb8a" y="285.213819"/>
     <use style="fill:#ff0000;stroke:#ff0000;" x="310.265929" xlink:href="#m9145cbfb8a" y="286.700927"/>
     <use style="fill:#ff0000;stroke:#ff0000;" x="311.442213" xlink:href="#m9145cbfb8a" y="274.622464"/>
     <use style="fill:#ff0000;stroke:#ff0000;" x="312.618498" xlink:href="#m9145cbfb8a" y="279.675861"/>
     <use style="fill:#ff0000;stroke:#ff0000;" x="313.794783" xlink:href="#m9145cbfb8a" y="276.106907"/>
     <use style="fill:#ff0000;stroke:#ff0000;" x="314.971067" xlink:href="#m9145cbfb8a" y="277.254411"/>
     <use style="fill:#ff0000;stroke:#ff0000;" x="316.147352" xlink:href="#m9145cbfb8a" y="274.1239"/>
     <use style="fill:#ff0000;stroke:#ff0000;" x="317.323636" xlink:href="#m9145cbfb8a" y="286.974577"/>
     <use style="fill:#ff0000;stroke:#ff0000;" x="318.499921" xlink:href="#m9145cbfb8a" y="270.868918"/>
     <use style="fill:#ff0000;stroke:#ff0000;" x="319.676206" xlink:href="#m9145cbfb8a" y="291.553015"/>
     <use style="fill:#ff0000;stroke:#ff0000;" x="320.85249" xlink:href="#m9145cbfb8a" y="277.882093"/>
     <use style="fill:#ff0000;stroke:#ff0000;" x="322.028775" xlink:href="#m9145cbfb8a" y="285.361427"/>
     <use style="fill:#ff0000;stroke:#ff0000;" x="323.205059" xlink:href="#m9145cbfb8a" y="289.297432"/>
     <use style="fill:#ff0000;stroke:#ff0000;" x="324.381344" xlink:href="#m9145cbfb8a" y="271.387237"/>
     <use style="fill:#ff0000;stroke:#ff0000;" x="325.557628" xlink:href="#m9145cbfb8a" y="274.434694"/>
     <use style="fill:#ff0000;stroke:#ff0000;" x="326.733913" xlink:href="#m9145cbfb8a" y="289.780168"/>
     <use style="fill:#ff0000;stroke:#ff0000;" x="327.910198" xlink:href="#m9145cbfb8a" y="287.290973"/>
     <use style="fill:#ff0000;stroke:#ff0000;" x="329.086482" xlink:href="#m9145cbfb8a" y="294.525169"/>
     <use style="fill:#ff0000;stroke:#ff0000;" x="330.262767" xlink:href="#m9145cbfb8a" y="288.940624"/>
     <use style="fill:#ff0000;stroke:#ff0000;" x="331.439051" xlink:href="#m9145cbfb8a" y="292.230888"/>
     <use style="fill:#ff0000;stroke:#ff0000;" x="332.615336" xlink:href="#m9145cbfb8a" y="292.824889"/>
     <use style="fill:#ff0000;stroke:#ff0000;" x="333.791621" xlink:href="#m9145cbfb8a" y="284.189048"/>
     <use style="fill:#ff0000;stroke:#ff0000;" x="334.967905" xlink:href="#m9145cbfb8a" y="288.521613"/>
     <use style="fill:#ff0000;stroke:#ff0000;" x="336.14419" xlink:href="#m9145cbfb8a" y="293.929386"/>
     <use style="fill:#ff0000;stroke:#ff0000;" x="337.320474" xlink:href="#m9145cbfb8a" y="284.308498"/>
     <use style="fill:#ff0000;stroke:#ff0000;" x="338.496759" xlink:href="#m9145cbfb8a" y="279.124242"/>
     <use style="fill:#ff0000;stroke:#ff0000;" x="339.673043" xlink:href="#m9145cbfb8a" y="282.0959"/>
     <use style="fill:#ff0000;stroke:#ff0000;" x="340.849328" xlink:href="#m9145cbfb8a" y="286.772738"/>
     <use style="fill:#ff0000;stroke:#ff0000;" x="342.025613" xlink:href="#m9145cbfb8a" y="288.427422"/>
     <use style="fill:#ff0000;stroke:#ff0000;" x="343.201897" xlink:href="#m9145cbfb8a" y="289.795928"/>
     <use style="fill:#ff0000;stroke:#ff0000;" x="344.378182" xlink:href="#m9145cbfb8a" y="276.838587"/>
     <use style="fill:#ff0000;stroke:#ff0000;" x="345.554466" xlink:href="#m9145cbfb8a" y="280.641159"/>
     <use style="fill:#ff0000;stroke:#ff0000;" x="346.730751" xlink:href="#m9145cbfb8a" y="274.781271"/>
     <use style="fill:#ff0000;stroke:#ff0000;" x="347.907036" xlink:href="#m9145cbfb8a" y="290.835728"/>
     <use style="fill:#ff0000;stroke:#ff0000;" x="349.08332" xlink:href="#m9145cbfb8a" y="283.59323"/>
     <use style="fill:#ff0000;stroke:#ff0000;" x="350.259605" xlink:href="#m9145cbfb8a" y="277.494069"/>
     <use style="fill:#ff0000;stroke:#ff0000;" x="351.435889" xlink:href="#m9145cbfb8a" y="282.014907"/>
     <use style="fill:#ff0000;stroke:#ff0000;" x="352.612174" xlink:href="#m9145cbfb8a" y="289.425841"/>
     <use style="fill:#ff0000;stroke:#ff0000;" x="353.788458" xlink:href="#m9145cbfb8a" y="286.235759"/>
     <use style="fill:#ff0000;stroke:#ff0000;" x="354.964743" xlink:href="#m9145cbfb8a" y="286.472446"/>
     <use style="fill:#ff0000;stroke:#ff0000;" x="356.141028" xlink:href="#m9145cbfb8a" y="295.488"/>
     <use style="fill:#ff0000;stroke:#ff0000;" x="357.317312" xlink:href="#m9145cbfb8a" y="291.292473"/>
     <use style="fill:#ff0000;stroke:#ff0000;" x="358.493597" xlink:href="#m9145cbfb8a" y="280.011226"/>
     <use style="fill:#ff0000;stroke:#ff0000;" x="359.669881" xlink:href="#m9145cbfb8a" y="273.059358"/>
     <use style="fill:#ff0000;stroke:#ff0000;" x="360.846166" xlink:href="#m9145cbfb8a" y="278.313957"/>
     <use style="fill:#ff0000;stroke:#ff0000;" x="362.022451" xlink:href="#m9145cbfb8a" y="279.883234"/>
     <use style="fill:#ff0000;stroke:#ff0000;" x="363.198735" xlink:href="#m9145cbfb8a" y="290.290705"/>
     <use style="fill:#ff0000;stroke:#ff0000;" x="364.37502" xlink:href="#m9145cbfb8a" y="275.834472"/>
     <use style="fill:#ff0000;stroke:#ff0000;" x="365.551304" xlink:href="#m9145cbfb8a" y="293.807312"/>
     <use style="fill:#ff0000;stroke:#ff0000;" x="366.727589" xlink:href="#m9145cbfb8a" y="276.855431"/>
     <use style="fill:#ff0000;stroke:#ff0000;" x="367.903874" xlink:href="#m9145cbfb8a" y="285.658162"/>
     <use style="fill:#ff0000;stroke:#ff0000;" x="369.080158" xlink:href="#m9145cbfb8a" y="272.909361"/>
     <use style="fill:#ff0000;stroke:#ff0000;" x="370.256443" xlink:href="#m9145cbfb8a" y="291.003273"/>
     <use style="fill:#ff0000;stroke:#ff0000;" x="371.432727" xlink:href="#m9145cbfb8a" y="274.570349"/>
     <use style="fill:#ff0000;stroke:#ff0000;" x="372.609012" xlink:href="#m9145cbfb8a" y="288.400967"/>
     <use style="fill:#ff0000;stroke:#ff0000;" x="373.785296" xlink:href="#m9145cbfb8a" y="292.868012"/>
     <use style="fill:#ff0000;stroke:#ff0000;" x="374.961581" xlink:href="#m9145cbfb8a" y="285.247447"/>
     <use style="fill:#ff0000;stroke:#ff0000;" x="376.137866" xlink:href="#m9145cbfb8a" y="283.162551"/>
     <use style="fill:#ff0000;stroke:#ff0000;" x="377.31415" xlink:href="#m9145cbfb8a" y="289.071943"/>
     <use style="fill:#ff0000;stroke:#ff0000;" x="378.490435" xlink:href="#m9145cbfb8a" y="281.969714"/>
     <use style="fill:#ff0000;stroke:#ff0000;" x="379.666719" xlink:href="#m9145cbfb8a" y="283.13258"/>
     <use style="fill:#ff0000;stroke:#ff0000;" x="380.843004" xlink:href="#m9145cbfb8a" y="292.850602"/>
     <use style="fill:#ff0000;stroke:#ff0000;" x="382.019289" xlink:href="#m9145cbfb8a" y="282.674552"/>
     <use style="fill:#ff0000;stroke:#ff0000;" x="383.195573" xlink:href="#m9145cbfb8a" y="287.810452"/>
     <use style="fill:#ff0000;stroke:#ff0000;" x="384.371858" xlink:href="#m9145cbfb8a" y="280.503197"/>
     <use style="fill:#ff0000;stroke:#ff0000;" x="385.548142" xlink:href="#m9145cbfb8a" y="290.379115"/>
     <use style="fill:#ff0000;stroke:#ff0000;" x="386.724427" xlink:href="#m9145cbfb8a" y="272.57807"/>
     <use style="fill:#ff0000;stroke:#ff0000;" x="387.900711" xlink:href="#m9145cbfb8a" y="274.854925"/>
     <use style="fill:#ff0000;stroke:#ff0000;" x="389.076996" xlink:href="#m9145cbfb8a" y="276.133562"/>
     <use style="fill:#ff0000;stroke:#ff0000;" x="390.253281" xlink:href="#m9145cbfb8a" y="273.547022"/>
     <use style="fill:#ff0000;stroke:#ff0000;" x="391.429565" xlink:href="#m9145cbfb8a" y="284.057628"/>
     <use style="fill:#ff0000;stroke:#ff0000;" x="392.60585" xlink:href="#m9145cbfb8a" y="273.854255"/>
     <use style="fill:#ff0000;stroke:#ff0000;" x="393.782134" xlink:href="#m9145cbfb8a" y="281.504552"/>
     <use style="fill:#ff0000;stroke:#ff0000;" x="394.958419" xlink:href="#m9145cbfb8a" y="279.640096"/>
     <use style="fill:#ff0000;stroke:#ff0000;" x="396.134704" xlink:href="#m9145cbfb8a" y="267.604398"/>
     <use style="fill:#ff0000;stroke:#ff0000;" x="397.310988" xlink:href="#m9145cbfb8a" y="284.440168"/>
     <use style="fill:#ff0000;stroke:#ff0000;" x="398.487273" xlink:href="#m9145cbfb8a" y="269.452414"/>
    </g>
   </g>
   <g id="line2d_13">
    <path clip-path="url(#p6ffe6a0089)" d="M 73.832727 75.098272 
L 82.066719 87.485973 
L 90.300711 99.497131 
L 98.534704 111.131746 
L 106.768696 122.389817 
L 115.002688 133.271345 
L 123.23668 143.776329 
L 131.470672 153.904771 
L 139.704664 163.656668 
L 147.938656 173.032023 
L 156.172648 182.030834 
L 164.40664 190.653102 
L 171.464348 197.743919 
L 178.522055 204.558092 
L 185.579763 211.095621 
L 192.63747 217.356506 
L 199.695178 223.340747 
L 206.752885 229.048344 
L 213.810593 234.479297 
L 220.8683 239.633606 
L 227.926008 244.51127 
L 234.983715 249.112291 
L 242.041423 253.436667 
L 249.09913 257.484399 
L 256.156838 261.255487 
L 263.214545 264.749931 
L 270.272253 267.967731 
L 277.32996 270.908887 
L 284.387668 273.573398 
L 291.445375 275.961266 
L 298.503083 278.072489 
L 305.560791 279.907069 
L 311.442213 281.224559 
L 317.323636 282.349936 
L 323.205059 283.283199 
L 329.086482 284.024348 
L 334.967905 284.573383 
L 340.849328 284.930304 
L 346.730751 285.095111 
L 352.612174 285.067804 
L 358.493597 284.848383 
L 364.37502 284.436848 
L 370.256443 283.833199 
L 376.137866 283.037436 
L 382.019289 282.049559 
L 387.900711 280.869569 
L 393.782134 279.497464 
L 398.487273 278.261458 
L 398.487273 278.261458 
" style="fill:none;stroke:#008000;stroke-linecap:square;stroke-width:1.5;"/>
   </g>
   <g id="patch_3">
    <path d="M 57.6 307.584 
L 57.6 41.472 
" style="fill:none;stroke:#000000;stroke-linecap:square;stroke-linejoin:miter;stroke-width:0.8;"/>
   </g>
   <g id="patch_4">
    <path d="M 414.72 307.584 
L 414.72 41.472 
" style="fill:none;stroke:#000000;stroke-linecap:square;stroke-linejoin:miter;stroke-width:0.8;"/>
   </g>
   <g id="patch_5">
    <path d="M 57.6 307.584 
L 414.72 307.584 
" style="fill:none;stroke:#000000;stroke-linecap:square;stroke-linejoin:miter;stroke-width:0.8;"/>
   </g>
   <g id="patch_6">
    <path d="M 57.6 41.472 
L 414.72 41.472 
" style="fill:none;stroke:#000000;stroke-linecap:square;stroke-linejoin:miter;stroke-width:0.8;"/>
   </g>
   <g id="text_14">
    <!-- FunctionFitting 39 -->
    <defs>
     <path d="M 9.8125 72.90625 
L 51.703125 72.90625 
L 51.703125 64.59375 
L 19.671875 64.59375 
L 19.671875 43.109375 
L 48.578125 43.109375 
L 48.578125 34.8125 
L 19.671875 34.8125 
L 19.671875 0 
L 9.8125 0 
z
" id="DejaVuSans-70"/>
     <path d="M 54.890625 33.015625 
L 54.890625 0 
L 45.90625 0 
L 45.90625 32.71875 
Q 45.90625 40.484375 42.875 44.328125 
Q 39.84375 48.1875 33.796875 48.1875 
Q 26.515625 48.1875 22.3125 43.546875 
Q 18.109375 38.921875 18.109375 30.90625 
L 18.109375 0 
L 9.078125 0 
L 9.078125 54.6875 
L 18.109375 54.6875 
L 18.109375 46.1875 
Q 21.34375 51.125 25.703125 53.5625 
Q 30.078125 56 35.796875 56 
Q 45.21875 56 50.046875 50.171875 
Q 54.890625 44.34375 54.890625 33.015625 
z
" id="DejaVuSans-110"/>
     <path d="M 48.78125 52.59375 
L 48.78125 44.1875 
Q 44.96875 46.296875 41.140625 47.34375 
Q 37.3125 48.390625 33.40625 48.390625 
Q 24.65625 48.390625 19.8125 42.84375 
Q 14.984375 37.3125 14.984375 27.296875 
Q 14.984375 17.28125 19.8125 11.734375 
Q 24.65625 6.203125 33.40625 6.203125 
Q 37.3125 6.203125 41.140625 7.25 
Q 44.96875 8.296875 48.78125 10.40625 
L 48.78125 2.09375 
Q 45.015625 0.34375 40.984375 -0.53125 
Q 36.96875 -1.421875 32.421875 -1.421875 
Q 20.0625 -1.421875 12.78125 6.34375 
Q 5.515625 14.109375 5.515625 27.296875 
Q 5.515625 40.671875 12.859375 48.328125 
Q 20.21875 56 33.015625 56 
Q 37.15625 56 41.109375 55.140625 
Q 45.0625 54.296875 48.78125 52.59375 
z
" id="DejaVuSans-99"/>
     <path d="M 18.3125 70.21875 
L 18.3125 54.6875 
L 36.8125 54.6875 
L 36.8125 47.703125 
L 18.3125 47.703125 
L 18.3125 18.015625 
Q 18.3125 11.328125 20.140625 9.421875 
Q 21.96875 7.515625 27.59375 7.515625 
L 36.8125 7.515625 
L 36.8125 0 
L 27.59375 0 
Q 17.1875 0 13.234375 3.875 
Q 9.28125 7.765625 9.28125 18.015625 
L 9.28125 47.703125 
L 2.6875 47.703125 
L 2.6875 54.6875 
L 9.28125 54.6875 
L 9.28125 70.21875 
z
" id="DejaVuSans-116"/>
     <path d="M 9.421875 54.6875 
L 18.40625 54.6875 
L 18.40625 0 
L 9.421875 0 
z
M 9.421875 75.984375 
L 18.40625 75.984375 
L 18.40625 64.59375 
L 9.421875 64.59375 
z
" id="DejaVuSans-105"/>
     <path d="M 30.609375 48.390625 
Q 23.390625 48.390625 19.1875 42.75 
Q 14.984375 37.109375 14.984375 27.296875 
Q 14.984375 17.484375 19.15625 11.84375 
Q 23.34375 6.203125 30.609375 6.203125 
Q 37.796875 6.203125 41.984375 11.859375 
Q 46.1875 17.53125 46.1875 27.296875 
Q 46.1875 37.015625 41.984375 42.703125 
Q 37.796875 48.390625 30.609375 48.390625 
z
M 30.609375 56 
Q 42.328125 56 49.015625 48.375 
Q 55.71875 40.765625 55.71875 27.296875 
Q 55.71875 13.875 49.015625 6.21875 
Q 42.328125 -1.421875 30.609375 -1.421875 
Q 18.84375 -1.421875 12.171875 6.21875 
Q 5.515625 13.875 5.515625 27.296875 
Q 5.515625 40.765625 12.171875 48.375 
Q 18.84375 56 30.609375 56 
z
" id="DejaVuSans-111"/>
     <path d="M 45.40625 27.984375 
Q 45.40625 37.75 41.375 43.109375 
Q 37.359375 48.484375 30.078125 48.484375 
Q 22.859375 48.484375 18.828125 43.109375 
Q 14.796875 37.75 14.796875 27.984375 
Q 14.796875 18.265625 18.828125 12.890625 
Q 22.859375 7.515625 30.078125 7.515625 
Q 37.359375 7.515625 41.375 12.890625 
Q 45.40625 18.265625 45.40625 27.984375 
z
M 54.390625 6.78125 
Q 54.390625 -7.171875 48.1875 -13.984375 
Q 42 -20.796875 29.203125 -20.796875 
Q 24.46875 -20.796875 20.265625 -20.09375 
Q 16.0625 -19.390625 12.109375 -17.921875 
L 12.109375 -9.1875 
Q 16.0625 -11.328125 19.921875 -12.34375 
Q 23.78125 -13.375 27.78125 -13.375 
Q 36.625 -13.375 41.015625 -8.765625 
Q 45.40625 -4.15625 45.40625 5.171875 
L 45.40625 9.625 
Q 42.625 4.78125 38.28125 2.390625 
Q 33.9375 0 27.875 0 
Q 17.828125 0 11.671875 7.65625 
Q 5.515625 15.328125 5.515625 27.984375 
Q 5.515625 40.671875 11.671875 48.328125 
Q 17.828125 56 27.875 56 
Q 33.9375 56 38.28125 53.609375 
Q 42.625 51.21875 45.40625 46.390625 
L 45.40625 54.6875 
L 54.390625 54.6875 
z
" id="DejaVuSans-103"/>
     <path d="M 10.984375 1.515625 
L 10.984375 10.5 
Q 14.703125 8.734375 18.5 7.8125 
Q 22.3125 6.890625 25.984375 6.890625 
Q 35.75 6.890625 40.890625 13.453125 
Q 46.046875 20.015625 46.78125 33.40625 
Q 43.953125 29.203125 39.59375 26.953125 
Q 35.25 24.703125 29.984375 24.703125 
Q 19.046875 24.703125 12.671875 31.3125 
Q 6.296875 37.9375 6.296875 49.421875 
Q 6.296875 60.640625 12.9375 67.421875 
Q 19.578125 74.21875 30.609375 74.21875 
Q 43.265625 74.21875 49.921875 64.515625 
Q 56.59375 54.828125 56.59375 36.375 
Q 56.59375 19.140625 48.40625 8.859375 
Q 40.234375 -1.421875 26.421875 -1.421875 
Q 22.703125 -1.421875 18.890625 -0.6875 
Q 15.09375 0.046875 10.984375 1.515625 
z
M 30.609375 32.421875 
Q 37.25 32.421875 41.125 36.953125 
Q 45.015625 41.5 45.015625 49.421875 
Q 45.015625 57.28125 41.125 61.84375 
Q 37.25 66.40625 30.609375 66.40625 
Q 23.96875 66.40625 20.09375 61.84375 
Q 16.21875 57.28125 16.21875 49.421875 
Q 16.21875 41.5 20.09375 36.953125 
Q 23.96875 32.421875 30.609375 32.421875 
z
" id="DejaVuSans-57"/>
    </defs>
    <g transform="translate(181.680937 35.472)scale(0.12 -0.12)">
     <use xlink:href="#DejaVuSans-70"/>
     <use x="57.441406" xlink:href="#DejaVuSans-117"/>
     <use x="120.820312" xlink:href="#DejaVuSans-110"/>
     <use x="184.199219" xlink:href="#DejaVuSans-99"/>
     <use x="239.179688" xlink:href="#DejaVuSans-116"/>
     <use x="278.388672" xlink:href="#DejaVuSans-105"/>
     <use x="306.171875" xlink:href="#DejaVuSans-111"/>
     <use x="367.353516" xlink:href="#DejaVuSans-110"/>
     <use x="430.732422" xlink:href="#DejaVuSans-70"/>
     <use x="488.142578" xlink:href="#DejaVuSans-105"/>
     <use x="515.925781" xlink:href="#DejaVuSans-116"/>
     <use x="555.134766" xlink:href="#DejaVuSans-116"/>
     <use x="594.34375" xlink:href="#DejaVuSans-105"/>
     <use x="622.126953" xlink:href="#DejaVuSans-110"/>
     <use x="685.505859" xlink:href="#DejaVuSans-103"/>
     <use x="748.982422" xlink:href="#DejaVuSans-32"/>
     <use x="780.769531" xlink:href="#DejaVuSans-51"/>
     <use x="844.392578" xlink:href="#DejaVuSans-57"/>
    </g>
   </g>
   <g id="legend_1">
    <g id="patch_7">
     <path d="M 299.83875 78.82825 
L 407.72 78.82825 
Q 409.72 78.82825 409.72 76.82825 
L 409.72 48.472 
Q 409.72 46.472 407.72 46.472 
L 299.83875 46.472 
Q 297.83875 46.472 297.83875 48.472 
L 297.83875 76.82825 
Q 297.83875 78.82825 299.83875 78.82825 
z
" style="fill:#ffffff;opacity:0.8;stroke:#cccccc;stroke-linejoin:miter;"/>
    </g>
    <g id="line2d_14"/>
    <g id="line2d_15">
     <g>
      <use style="fill:#ff0000;stroke:#ff0000;" x="311.83875" xlink:href="#m9145cbfb8a" y="54.570437"/>
     </g>
    </g>
    <g id="text_15">
     <!-- measured data -->
     <defs>
      <path d="M 52 44.1875 
Q 55.375 50.25 60.0625 53.125 
Q 64.75 56 71.09375 56 
Q 79.640625 56 84.28125 50.015625 
Q 88.921875 44.046875 88.921875 33.015625 
L 88.921875 0 
L 79.890625 0 
L 79.890625 32.71875 
Q 79.890625 40.578125 77.09375 44.375 
Q 74.3125 48.1875 68.609375 48.1875 
Q 61.625 48.1875 57.5625 43.546875 
Q 53.515625 38.921875 53.515625 30.90625 
L 53.515625 0 
L 44.484375 0 
L 44.484375 32.71875 
Q 44.484375 40.625 41.703125 44.40625 
Q 38.921875 48.1875 33.109375 48.1875 
Q 26.21875 48.1875 22.15625 43.53125 
Q 18.109375 38.875 18.109375 30.90625 
L 18.109375 0 
L 9.078125 0 
L 9.078125 54.6875 
L 18.109375 54.6875 
L 18.109375 46.1875 
Q 21.1875 51.21875 25.484375 53.609375 
Q 29.78125 56 35.6875 56 
Q 41.65625 56 45.828125 52.96875 
Q 50 49.953125 52 44.1875 
z
" id="DejaVuSans-109"/>
      <path d="M 41.109375 46.296875 
Q 39.59375 47.171875 37.8125 47.578125 
Q 36.03125 48 33.890625 48 
Q 26.265625 48 22.1875 43.046875 
Q 18.109375 38.09375 18.109375 28.8125 
L 18.109375 0 
L 9.078125 0 
L 9.078125 54.6875 
L 18.109375 54.6875 
L 18.109375 46.1875 
Q 20.953125 51.171875 25.484375 53.578125 
Q 30.03125 56 36.53125 56 
Q 37.453125 56 38.578125 55.875 
Q 39.703125 55.765625 41.0625 55.515625 
z
" id="DejaVuSans-114"/>
      <path d="M 45.40625 46.390625 
L 45.40625 75.984375 
L 54.390625 75.984375 
L 54.390625 0 
L 45.40625 0 
L 45.40625 8.203125 
Q 42.578125 3.328125 38.25 0.953125 
Q 33.9375 -1.421875 27.875 -1.421875 
Q 17.96875 -1.421875 11.734375 6.484375 
Q 5.515625 14.40625 5.515625 27.296875 
Q 5.515625 40.1875 11.734375 48.09375 
Q 17.96875 56 27.875 56 
Q 33.9375 56 38.25 53.625 
Q 42.578125 51.265625 45.40625 46.390625 
z
M 14.796875 27.296875 
Q 14.796875 17.390625 18.875 11.75 
Q 22.953125 6.109375 30.078125 6.109375 
Q 37.203125 6.109375 41.296875 11.75 
Q 45.40625 17.390625 45.40625 27.296875 
Q 45.40625 37.203125 41.296875 42.84375 
Q 37.203125 48.484375 30.078125 48.484375 
Q 22.953125 48.484375 18.875 42.84375 
Q 14.796875 37.203125 14.796875 27.296875 
z
" id="DejaVuSans-100"/>
     </defs>
     <g transform="translate(329.83875 58.070437)scale(0.1 -0.1)">
      <use xlink:href="#DejaVuSans-109"/>
      <use x="97.412109" xlink:href="#DejaVuSans-101"/>
      <use x="158.935547" xlink:href="#DejaVuSans-97"/>
      <use x="220.214844" xlink:href="#DejaVuSans-115"/>
      <use x="272.314453" xlink:href="#DejaVuSans-117"/>
      <use x="335.693359" xlink:href="#DejaVuSans-114"/>
      <use x="376.775391" xlink:href="#DejaVuSans-101"/>
      <use x="438.298828" xlink:href="#DejaVuSans-100"/>
      <use x="501.775391" xlink:href="#DejaVuSans-32"/>
      <use x="533.5625" xlink:href="#DejaVuSans-100"/>
      <use x="597.039062" xlink:href="#DejaVuSans-97"/>
      <use x="658.318359" xlink:href="#DejaVuSans-116"/>
      <use x="697.527344" xlink:href="#DejaVuSans-97"/>
     </g>
    </g>
    <g id="line2d_16">
     <path d="M 301.83875 69.248562 
L 321.83875 69.248562 
" style="fill:none;stroke:#008000;stroke-linecap:square;stroke-width:1.5;"/>
    </g>
    <g id="line2d_17"/>
    <g id="text_16">
     <!-- linear data -->
     <g transform="translate(329.83875 72.748562)scale(0.1 -0.1)">
      <use xlink:href="#DejaVuSans-108"/>
      <use x="27.783203" xlink:href="#DejaVuSans-105"/>
      <use x="55.566406" xlink:href="#DejaVuSans-110"/>
      <use x="118.945312" xlink:href="#DejaVuSans-101"/>
      <use x="180.46875" xlink:href="#DejaVuSans-97"/>
      <use x="241.748047" xlink:href="#DejaVuSans-114"/>
      <use x="282.861328" xlink:href="#DejaVuSans-32"/>
      <use x="314.648438" xlink:href="#DejaVuSans-100"/>
      <use x="378.125" xlink:href="#DejaVuSans-97"/>
      <use x="439.404297" xlink:href="#DejaVuSans-116"/>
      <use x="478.613281" xlink:href="#DejaVuSans-97"/>
     </g>
    </g>
   </g>
  </g>
 </g>
 <defs>
  <clipPath id="p6ffe6a0089">
   <rect height="266.112" width="357.12" x="57.6" y="41.472"/>
  </clipPath>
 </defs>
</svg>
