<?xml version="1.0" encoding="utf-8" standalone="no"?>
<!DOCTYPE svg PUBLIC "-//W3C//DTD SVG 1.1//EN"
  "http://www.w3.org/Graphics/SVG/1.1/DTD/svg11.dtd">
<!-- Created with matplotlib (https://matplotlib.org/) -->
<svg height="345.6pt" version="1.1" viewBox="0 0 460.8 345.6" width="460.8pt" xmlns="http://www.w3.org/2000/svg" xmlns:xlink="http://www.w3.org/1999/xlink">
 <defs>
  <style type="text/css">
*{stroke-linecap:butt;stroke-linejoin:round;}
  </style>
 </defs>
 <g id="figure_1">
  <g id="patch_1">
   <path d="M 0 345.6 
L 460.8 345.6 
L 460.8 0 
L 0 0 
z
" style="fill:#ffffff;"/>
  </g>
  <g id="axes_1">
   <g id="patch_2">
    <path d="M 57.6 307.584 
L 414.72 307.584 
L 414.72 41.472 
L 57.6 41.472 
z
" style="fill:#ffffff;"/>
   </g>
   <g id="matplotlib.axis_1">
    <g id="xtick_1">
     <g id="line2d_1">
      <defs>
       <path d="M 0 0 
L 0 3.5 
" id="m3504a9f269" style="stroke:#000000;stroke-width:0.8;"/>
      </defs>
      <g>
       <use style="stroke:#000000;stroke-width:0.8;" x="117.391296" xlink:href="#m3504a9f269" y="307.584"/>
      </g>
     </g>
     <g id="text_1">
      <!-- 20 -->
      <defs>
       <path d="M 19.1875 8.296875 
L 53.609375 8.296875 
L 53.609375 0 
L 7.328125 0 
L 7.328125 8.296875 
Q 12.9375 14.109375 22.625 23.890625 
Q 32.328125 33.6875 34.8125 36.53125 
Q 39.546875 41.84375 41.421875 45.53125 
Q 43.3125 49.21875 43.3125 52.78125 
Q 43.3125 58.59375 39.234375 62.25 
Q 35.15625 65.921875 28.609375 65.921875 
Q 23.96875 65.921875 18.8125 64.3125 
Q 13.671875 62.703125 7.8125 59.421875 
L 7.8125 69.390625 
Q 13.765625 71.78125 18.9375 73 
Q 24.125 74.21875 28.421875 74.21875 
Q 39.75 74.21875 46.484375 68.546875 
Q 53.21875 62.890625 53.21875 53.421875 
Q 53.21875 48.921875 51.53125 44.890625 
Q 49.859375 40.875 45.40625 35.40625 
Q 44.1875 33.984375 37.640625 27.21875 
Q 31.109375 20.453125 19.1875 8.296875 
z
" id="DejaVuSans-50"/>
       <path d="M 31.78125 66.40625 
Q 24.171875 66.40625 20.328125 58.90625 
Q 16.5 51.421875 16.5 36.375 
Q 16.5 21.390625 20.328125 13.890625 
Q 24.171875 6.390625 31.78125 6.390625 
Q 39.453125 6.390625 43.28125 13.890625 
Q 47.125 21.390625 47.125 36.375 
Q 47.125 51.421875 43.28125 58.90625 
Q 39.453125 66.40625 31.78125 66.40625 
z
M 31.78125 74.21875 
Q 44.046875 74.21875 50.515625 64.515625 
Q 56.984375 54.828125 56.984375 36.375 
Q 56.984375 17.96875 50.515625 8.265625 
Q 44.046875 -1.421875 31.78125 -1.421875 
Q 19.53125 -1.421875 13.0625 8.265625 
Q 6.59375 17.96875 6.59375 36.375 
Q 6.59375 54.828125 13.0625 64.515625 
Q 19.53125 74.21875 31.78125 74.21875 
z
" id="DejaVuSans-48"/>
      </defs>
      <g transform="translate(111.028796 322.182437)scale(0.1 -0.1)">
       <use xlink:href="#DejaVuSans-50"/>
       <use x="63.623047" xlink:href="#DejaVuSans-48"/>
      </g>
     </g>
    </g>
    <g id="xtick_2">
     <g id="line2d_2">
      <g>
       <use style="stroke:#000000;stroke-width:0.8;" x="182.184204" xlink:href="#m3504a9f269" y="307.584"/>
      </g>
     </g>
     <g id="text_2">
      <!-- 40 -->
      <defs>
       <path d="M 37.796875 64.3125 
L 12.890625 25.390625 
L 37.796875 25.390625 
z
M 35.203125 72.90625 
L 47.609375 72.90625 
L 47.609375 25.390625 
L 58.015625 25.390625 
L 58.015625 17.1875 
L 47.609375 17.1875 
L 47.609375 0 
L 37.796875 0 
L 37.796875 17.1875 
L 4.890625 17.1875 
L 4.890625 26.703125 
z
" id="DejaVuSans-52"/>
      </defs>
      <g transform="translate(175.821704 322.182437)scale(0.1 -0.1)">
       <use xlink:href="#DejaVuSans-52"/>
       <use x="63.623047" xlink:href="#DejaVuSans-48"/>
      </g>
     </g>
    </g>
    <g id="xtick_3">
     <g id="line2d_3">
      <g>
       <use style="stroke:#000000;stroke-width:0.8;" x="246.977112" xlink:href="#m3504a9f269" y="307.584"/>
      </g>
     </g>
     <g id="text_3">
      <!-- 60 -->
      <defs>
       <path d="M 33.015625 40.375 
Q 26.375 40.375 22.484375 35.828125 
Q 18.609375 31.296875 18.609375 23.390625 
Q 18.609375 15.53125 22.484375 10.953125 
Q 26.375 6.390625 33.015625 6.390625 
Q 39.65625 6.390625 43.53125 10.953125 
Q 47.40625 15.53125 47.40625 23.390625 
Q 47.40625 31.296875 43.53125 35.828125 
Q 39.65625 40.375 33.015625 40.375 
z
M 52.59375 71.296875 
L 52.59375 62.3125 
Q 48.875 64.0625 45.09375 64.984375 
Q 41.3125 65.921875 37.59375 65.921875 
Q 27.828125 65.921875 22.671875 59.328125 
Q 17.53125 52.734375 16.796875 39.40625 
Q 19.671875 43.65625 24.015625 45.921875 
Q 28.375 48.1875 33.59375 48.1875 
Q 44.578125 48.1875 50.953125 41.515625 
Q 57.328125 34.859375 57.328125 23.390625 
Q 57.328125 12.15625 50.6875 5.359375 
Q 44.046875 -1.421875 33.015625 -1.421875 
Q 20.359375 -1.421875 13.671875 8.265625 
Q 6.984375 17.96875 6.984375 36.375 
Q 6.984375 53.65625 15.1875 63.9375 
Q 23.390625 74.21875 37.203125 74.21875 
Q 40.921875 74.21875 44.703125 73.484375 
Q 48.484375 72.75 52.59375 71.296875 
z
" id="DejaVuSans-54"/>
      </defs>
      <g transform="translate(240.614612 322.182437)scale(0.1 -0.1)">
       <use xlink:href="#DejaVuSans-54"/>
       <use x="63.623047" xlink:href="#DejaVuSans-48"/>
      </g>
     </g>
    </g>
    <g id="xtick_4">
     <g id="line2d_4">
      <g>
       <use style="stroke:#000000;stroke-width:0.8;" x="311.770021" xlink:href="#m3504a9f269" y="307.584"/>
      </g>
     </g>
     <g id="text_4">
      <!-- 80 -->
      <defs>
       <path d="M 31.78125 34.625 
Q 24.75 34.625 20.71875 30.859375 
Q 16.703125 27.09375 16.703125 20.515625 
Q 16.703125 13.921875 20.71875 10.15625 
Q 24.75 6.390625 31.78125 6.390625 
Q 38.8125 6.390625 42.859375 10.171875 
Q 46.921875 13.96875 46.921875 20.515625 
Q 46.921875 27.09375 42.890625 30.859375 
Q 38.875 34.625 31.78125 34.625 
z
M 21.921875 38.8125 
Q 15.578125 40.375 12.03125 44.71875 
Q 8.5 49.078125 8.5 55.328125 
Q 8.5 64.0625 14.71875 69.140625 
Q 20.953125 74.21875 31.78125 74.21875 
Q 42.671875 74.21875 48.875 69.140625 
Q 55.078125 64.0625 55.078125 55.328125 
Q 55.078125 49.078125 51.53125 44.71875 
Q 48 40.375 41.703125 38.8125 
Q 48.828125 37.15625 52.796875 32.3125 
Q 56.78125 27.484375 56.78125 20.515625 
Q 56.78125 9.90625 50.3125 4.234375 
Q 43.84375 -1.421875 31.78125 -1.421875 
Q 19.734375 -1.421875 13.25 4.234375 
Q 6.78125 9.90625 6.78125 20.515625 
Q 6.78125 27.484375 10.78125 32.3125 
Q 14.796875 37.15625 21.921875 38.8125 
z
M 18.3125 54.390625 
Q 18.3125 48.734375 21.84375 45.5625 
Q 25.390625 42.390625 31.78125 42.390625 
Q 38.140625 42.390625 41.71875 45.5625 
Q 45.3125 48.734375 45.3125 54.390625 
Q 45.3125 60.0625 41.71875 63.234375 
Q 38.140625 66.40625 31.78125 66.40625 
Q 25.390625 66.40625 21.84375 63.234375 
Q 18.3125 60.0625 18.3125 54.390625 
z
" id="DejaVuSans-56"/>
      </defs>
      <g transform="translate(305.407521 322.182437)scale(0.1 -0.1)">
       <use xlink:href="#DejaVuSans-56"/>
       <use x="63.623047" xlink:href="#DejaVuSans-48"/>
      </g>
     </g>
    </g>
    <g id="xtick_5">
     <g id="line2d_5">
      <g>
       <use style="stroke:#000000;stroke-width:0.8;" x="376.562929" xlink:href="#m3504a9f269" y="307.584"/>
      </g>
     </g>
     <g id="text_5">
      <!-- 100 -->
      <defs>
       <path d="M 12.40625 8.296875 
L 28.515625 8.296875 
L 28.515625 63.921875 
L 10.984375 60.40625 
L 10.984375 69.390625 
L 28.421875 72.90625 
L 38.28125 72.90625 
L 38.28125 8.296875 
L 54.390625 8.296875 
L 54.390625 0 
L 12.40625 0 
z
" id="DejaVuSans-49"/>
      </defs>
      <g transform="translate(367.019179 322.182437)scale(0.1 -0.1)">
       <use xlink:href="#DejaVuSans-49"/>
       <use x="63.623047" xlink:href="#DejaVuSans-48"/>
       <use x="127.246094" xlink:href="#DejaVuSans-48"/>
      </g>
     </g>
    </g>
    <g id="text_6">
     <!-- x values -->
     <defs>
      <path d="M 54.890625 54.6875 
L 35.109375 28.078125 
L 55.90625 0 
L 45.3125 0 
L 29.390625 21.484375 
L 13.484375 0 
L 2.875 0 
L 24.125 28.609375 
L 4.6875 54.6875 
L 15.28125 54.6875 
L 29.78125 35.203125 
L 44.28125 54.6875 
z
" id="DejaVuSans-120"/>
      <path id="DejaVuSans-32"/>
      <path d="M 2.984375 54.6875 
L 12.5 54.6875 
L 29.59375 8.796875 
L 46.6875 54.6875 
L 56.203125 54.6875 
L 35.6875 0 
L 23.484375 0 
z
" id="DejaVuSans-118"/>
      <path d="M 34.28125 27.484375 
Q 23.390625 27.484375 19.1875 25 
Q 14.984375 22.515625 14.984375 16.5 
Q 14.984375 11.71875 18.140625 8.90625 
Q 21.296875 6.109375 26.703125 6.109375 
Q 34.1875 6.109375 38.703125 11.40625 
Q 43.21875 16.703125 43.21875 25.484375 
L 43.21875 27.484375 
z
M 52.203125 31.203125 
L 52.203125 0 
L 43.21875 0 
L 43.21875 8.296875 
Q 40.140625 3.328125 35.546875 0.953125 
Q 30.953125 -1.421875 24.3125 -1.421875 
Q 15.921875 -1.421875 10.953125 3.296875 
Q 6 8.015625 6 15.921875 
Q 6 25.140625 12.171875 29.828125 
Q 18.359375 34.515625 30.609375 34.515625 
L 43.21875 34.515625 
L 43.21875 35.40625 
Q 43.21875 41.609375 39.140625 45 
Q 35.0625 48.390625 27.6875 48.390625 
Q 23 48.390625 18.546875 47.265625 
Q 14.109375 46.140625 10.015625 43.890625 
L 10.015625 52.203125 
Q 14.9375 54.109375 19.578125 55.046875 
Q 24.21875 56 28.609375 56 
Q 40.484375 56 46.34375 49.84375 
Q 52.203125 43.703125 52.203125 31.203125 
z
" id="DejaVuSans-97"/>
      <path d="M 9.421875 75.984375 
L 18.40625 75.984375 
L 18.40625 0 
L 9.421875 0 
z
" id="DejaVuSans-108"/>
      <path d="M 8.5 21.578125 
L 8.5 54.6875 
L 17.484375 54.6875 
L 17.484375 21.921875 
Q 17.484375 14.15625 20.5 10.265625 
Q 23.53125 6.390625 29.59375 6.390625 
Q 36.859375 6.390625 41.078125 11.03125 
Q 45.3125 15.671875 45.3125 23.6875 
L 45.3125 54.6875 
L 54.296875 54.6875 
L 54.296875 0 
L 45.3125 0 
L 45.3125 8.40625 
Q 42.046875 3.421875 37.71875 1 
Q 33.40625 -1.421875 27.6875 -1.421875 
Q 18.265625 -1.421875 13.375 4.4375 
Q 8.5 10.296875 8.5 21.578125 
z
M 31.109375 56 
z
" id="DejaVuSans-117"/>
      <path d="M 56.203125 29.59375 
L 56.203125 25.203125 
L 14.890625 25.203125 
Q 15.484375 15.921875 20.484375 11.0625 
Q 25.484375 6.203125 34.421875 6.203125 
Q 39.59375 6.203125 44.453125 7.46875 
Q 49.3125 8.734375 54.109375 11.28125 
L 54.109375 2.78125 
Q 49.265625 0.734375 44.1875 -0.34375 
Q 39.109375 -1.421875 33.890625 -1.421875 
Q 20.796875 -1.421875 13.15625 6.1875 
Q 5.515625 13.8125 5.515625 26.8125 
Q 5.515625 40.234375 12.765625 48.109375 
Q 20.015625 56 32.328125 56 
Q 43.359375 56 49.78125 48.890625 
Q 56.203125 41.796875 56.203125 29.59375 
z
M 47.21875 32.234375 
Q 47.125 39.59375 43.09375 43.984375 
Q 39.0625 48.390625 32.421875 48.390625 
Q 24.90625 48.390625 20.390625 44.140625 
Q 15.875 39.890625 15.1875 32.171875 
z
" id="DejaVuSans-101"/>
      <path d="M 44.28125 53.078125 
L 44.28125 44.578125 
Q 40.484375 46.53125 36.375 47.5 
Q 32.28125 48.484375 27.875 48.484375 
Q 21.1875 48.484375 17.84375 46.4375 
Q 14.5 44.390625 14.5 40.28125 
Q 14.5 37.15625 16.890625 35.375 
Q 19.28125 33.59375 26.515625 31.984375 
L 29.59375 31.296875 
Q 39.15625 29.25 43.1875 25.515625 
Q 47.21875 21.78125 47.21875 15.09375 
Q 47.21875 7.46875 41.1875 3.015625 
Q 35.15625 -1.421875 24.609375 -1.421875 
Q 20.21875 -1.421875 15.453125 -0.5625 
Q 10.6875 0.296875 5.421875 2 
L 5.421875 11.28125 
Q 10.40625 8.6875 15.234375 7.390625 
Q 20.0625 6.109375 24.8125 6.109375 
Q 31.15625 6.109375 34.5625 8.28125 
Q 37.984375 10.453125 37.984375 14.40625 
Q 37.984375 18.0625 35.515625 20.015625 
Q 33.0625 21.96875 24.703125 23.78125 
L 21.578125 24.515625 
Q 13.234375 26.265625 9.515625 29.90625 
Q 5.8125 33.546875 5.8125 39.890625 
Q 5.8125 47.609375 11.28125 51.796875 
Q 16.75 56 26.8125 56 
Q 31.78125 56 36.171875 55.265625 
Q 40.578125 54.546875 44.28125 53.078125 
z
" id="DejaVuSans-115"/>
     </defs>
     <g transform="translate(215.349063 335.860562)scale(0.1 -0.1)">
      <use xlink:href="#DejaVuSans-120"/>
      <use x="59.179688" xlink:href="#DejaVuSans-32"/>
      <use x="90.966797" xlink:href="#DejaVuSans-118"/>
      <use x="150.146484" xlink:href="#DejaVuSans-97"/>
      <use x="211.425781" xlink:href="#DejaVuSans-108"/>
      <use x="239.208984" xlink:href="#DejaVuSans-117"/>
      <use x="302.587891" xlink:href="#DejaVuSans-101"/>
      <use x="364.111328" xlink:href="#DejaVuSans-115"/>
     </g>
    </g>
   </g>
   <g id="matplotlib.axis_2">
    <g id="ytick_1">
     <g id="line2d_6">
      <defs>
       <path d="M 0 0 
L -3.5 0 
" id="mfbf8389566" style="stroke:#000000;stroke-width:0.8;"/>
      </defs>
      <g>
       <use style="stroke:#000000;stroke-width:0.8;" x="57.6" xlink:href="#mfbf8389566" y="289.450234"/>
      </g>
     </g>
     <g id="text_7">
      <!-- 0 -->
      <g transform="translate(44.2375 293.249453)scale(0.1 -0.1)">
       <use xlink:href="#DejaVuSans-48"/>
      </g>
     </g>
    </g>
    <g id="ytick_2">
     <g id="line2d_7">
      <g>
       <use style="stroke:#000000;stroke-width:0.8;" x="57.6" xlink:href="#mfbf8389566" y="242.202661"/>
      </g>
     </g>
     <g id="text_8">
      <!-- 100 -->
      <g transform="translate(31.5125 246.00188)scale(0.1 -0.1)">
       <use xlink:href="#DejaVuSans-49"/>
       <use x="63.623047" xlink:href="#DejaVuSans-48"/>
       <use x="127.246094" xlink:href="#DejaVuSans-48"/>
      </g>
     </g>
    </g>
    <g id="ytick_3">
     <g id="line2d_8">
      <g>
       <use style="stroke:#000000;stroke-width:0.8;" x="57.6" xlink:href="#mfbf8389566" y="194.955088"/>
      </g>
     </g>
     <g id="text_9">
      <!-- 200 -->
      <g transform="translate(31.5125 198.754306)scale(0.1 -0.1)">
       <use xlink:href="#DejaVuSans-50"/>
       <use x="63.623047" xlink:href="#DejaVuSans-48"/>
       <use x="127.246094" xlink:href="#DejaVuSans-48"/>
      </g>
     </g>
    </g>
    <g id="ytick_4">
     <g id="line2d_9">
      <g>
       <use style="stroke:#000000;stroke-width:0.8;" x="57.6" xlink:href="#mfbf8389566" y="147.707514"/>
      </g>
     </g>
     <g id="text_10">
      <!-- 300 -->
      <defs>
       <path d="M 40.578125 39.3125 
Q 47.65625 37.796875 51.625 33 
Q 55.609375 28.21875 55.609375 21.1875 
Q 55.609375 10.40625 48.1875 4.484375 
Q 40.765625 -1.421875 27.09375 -1.421875 
Q 22.515625 -1.421875 17.65625 -0.515625 
Q 12.796875 0.390625 7.625 2.203125 
L 7.625 11.71875 
Q 11.71875 9.328125 16.59375 8.109375 
Q 21.484375 6.890625 26.8125 6.890625 
Q 36.078125 6.890625 40.9375 10.546875 
Q 45.796875 14.203125 45.796875 21.1875 
Q 45.796875 27.640625 41.28125 31.265625 
Q 36.765625 34.90625 28.71875 34.90625 
L 20.21875 34.90625 
L 20.21875 43.015625 
L 29.109375 43.015625 
Q 36.375 43.015625 40.234375 45.921875 
Q 44.09375 48.828125 44.09375 54.296875 
Q 44.09375 59.90625 40.109375 62.90625 
Q 36.140625 65.921875 28.71875 65.921875 
Q 24.65625 65.921875 20.015625 65.03125 
Q 15.375 64.15625 9.8125 62.3125 
L 9.8125 71.09375 
Q 15.4375 72.65625 20.34375 73.4375 
Q 25.25 74.21875 29.59375 74.21875 
Q 40.828125 74.21875 47.359375 69.109375 
Q 53.90625 64.015625 53.90625 55.328125 
Q 53.90625 49.265625 50.4375 45.09375 
Q 46.96875 40.921875 40.578125 39.3125 
z
" id="DejaVuSans-51"/>
      </defs>
      <g transform="translate(31.5125 151.506733)scale(0.1 -0.1)">
       <use xlink:href="#DejaVuSans-51"/>
       <use x="63.623047" xlink:href="#DejaVuSans-48"/>
       <use x="127.246094" xlink:href="#DejaVuSans-48"/>
      </g>
     </g>
    </g>
    <g id="ytick_5">
     <g id="line2d_10">
      <g>
       <use style="stroke:#000000;stroke-width:0.8;" x="57.6" xlink:href="#mfbf8389566" y="100.459941"/>
      </g>
     </g>
     <g id="text_11">
      <!-- 400 -->
      <g transform="translate(31.5125 104.25916)scale(0.1 -0.1)">
       <use xlink:href="#DejaVuSans-52"/>
       <use x="63.623047" xlink:href="#DejaVuSans-48"/>
       <use x="127.246094" xlink:href="#DejaVuSans-48"/>
      </g>
     </g>
    </g>
    <g id="ytick_6">
     <g id="line2d_11">
      <g>
       <use style="stroke:#000000;stroke-width:0.8;" x="57.6" xlink:href="#mfbf8389566" y="53.212368"/>
      </g>
     </g>
     <g id="text_12">
      <!-- 500 -->
      <defs>
       <path d="M 10.796875 72.90625 
L 49.515625 72.90625 
L 49.515625 64.59375 
L 19.828125 64.59375 
L 19.828125 46.734375 
Q 21.96875 47.46875 24.109375 47.828125 
Q 26.265625 48.1875 28.421875 48.1875 
Q 40.625 48.1875 47.75 41.5 
Q 54.890625 34.8125 54.890625 23.390625 
Q 54.890625 11.625 47.5625 5.09375 
Q 40.234375 -1.421875 26.90625 -1.421875 
Q 22.3125 -1.421875 17.546875 -0.640625 
Q 12.796875 0.140625 7.71875 1.703125 
L 7.71875 11.625 
Q 12.109375 9.234375 16.796875 8.0625 
Q 21.484375 6.890625 26.703125 6.890625 
Q 35.15625 6.890625 40.078125 11.328125 
Q 45.015625 15.765625 45.015625 23.390625 
Q 45.015625 31 40.078125 35.4375 
Q 35.15625 39.890625 26.703125 39.890625 
Q 22.75 39.890625 18.8125 39.015625 
Q 14.890625 38.140625 10.796875 36.28125 
z
" id="DejaVuSans-53"/>
      </defs>
      <g transform="translate(31.5125 57.011586)scale(0.1 -0.1)">
       <use xlink:href="#DejaVuSans-53"/>
       <use x="63.623047" xlink:href="#DejaVuSans-48"/>
       <use x="127.246094" xlink:href="#DejaVuSans-48"/>
      </g>
     </g>
    </g>
    <g id="text_13">
     <!-- y values -->
     <defs>
      <path d="M 32.171875 -5.078125 
Q 28.375 -14.84375 24.75 -17.8125 
Q 21.140625 -20.796875 15.09375 -20.796875 
L 7.90625 -20.796875 
L 7.90625 -13.28125 
L 13.1875 -13.28125 
Q 16.890625 -13.28125 18.9375 -11.515625 
Q 21 -9.765625 23.484375 -3.21875 
L 25.09375 0.875 
L 2.984375 54.6875 
L 12.5 54.6875 
L 29.59375 11.921875 
L 46.6875 54.6875 
L 56.203125 54.6875 
z
" id="DejaVuSans-121"/>
     </defs>
     <g transform="translate(25.432812 195.338937)rotate(-90)scale(0.1 -0.1)">
      <use xlink:href="#DejaVuSans-121"/>
      <use x="59.179688" xlink:href="#DejaVuSans-32"/>
      <use x="90.966797" xlink:href="#DejaVuSans-118"/>
      <use x="150.146484" xlink:href="#DejaVuSans-97"/>
      <use x="211.425781" xlink:href="#DejaVuSans-108"/>
      <use x="239.208984" xlink:href="#DejaVuSans-117"/>
      <use x="302.587891" xlink:href="#DejaVuSans-101"/>
      <use x="364.111328" xlink:href="#DejaVuSans-115"/>
     </g>
    </g>
   </g>
   <g id="line2d_12">
    <defs>
     <path d="M 0 1 
C 0.265203 1 0.51958 0.894634 0.707107 0.707107 
C 0.894634 0.51958 1 0.265203 1 0 
C 1 -0.265203 0.894634 -0.51958 0.707107 -0.707107 
C 0.51958 -0.894634 0.265203 -1 0 -1 
C -0.265203 -1 -0.51958 -0.894634 -0.707107 -0.707107 
C -0.894634 -0.51958 -1 -0.265203 -1 0 
C -1 0.265203 -0.894634 0.51958 -0.707107 0.707107 
C -0.51958 0.894634 -0.265203 1 0 1 
z
" id="m1c419369df" style="stroke:#ff0000;"/>
    </defs>
    <g clip-path="url(#pf18d933798)">
     <use style="fill:#ff0000;stroke:#ff0000;" x="73.832727" xlink:href="#m1c419369df" y="61.261541"/>
     <use style="fill:#ff0000;stroke:#ff0000;" x="75.100909" xlink:href="#m1c419369df" y="53.568"/>
     <use style="fill:#ff0000;stroke:#ff0000;" x="76.369091" xlink:href="#m1c419369df" y="95.786369"/>
     <use style="fill:#ff0000;stroke:#ff0000;" x="77.637273" xlink:href="#m1c419369df" y="61.794595"/>
     <use style="fill:#ff0000;stroke:#ff0000;" x="78.905455" xlink:href="#m1c419369df" y="57.870209"/>
     <use style="fill:#ff0000;stroke:#ff0000;" x="80.173636" xlink:href="#m1c419369df" y="127.089941"/>
     <use style="fill:#ff0000;stroke:#ff0000;" x="81.441818" xlink:href="#m1c419369df" y="60.504091"/>
     <use style="fill:#ff0000;stroke:#ff0000;" x="82.71" xlink:href="#m1c419369df" y="80.0193"/>
     <use style="fill:#ff0000;stroke:#ff0000;" x="83.978182" xlink:href="#m1c419369df" y="130.50307"/>
     <use style="fill:#ff0000;stroke:#ff0000;" x="85.246364" xlink:href="#m1c419369df" y="102.696514"/>
     <use style="fill:#ff0000;stroke:#ff0000;" x="86.514545" xlink:href="#m1c419369df" y="77.987846"/>
     <use style="fill:#ff0000;stroke:#ff0000;" x="87.782727" xlink:href="#m1c419369df" y="88.838815"/>
     <use style="fill:#ff0000;stroke:#ff0000;" x="89.050909" xlink:href="#m1c419369df" y="58.154736"/>
     <use style="fill:#ff0000;stroke:#ff0000;" x="90.319091" xlink:href="#m1c419369df" y="100.780756"/>
     <use style="fill:#ff0000;stroke:#ff0000;" x="91.587273" xlink:href="#m1c419369df" y="91.390915"/>
     <use style="fill:#ff0000;stroke:#ff0000;" x="92.855455" xlink:href="#m1c419369df" y="120.269648"/>
     <use style="fill:#ff0000;stroke:#ff0000;" x="94.123636" xlink:href="#m1c419369df" y="122.670956"/>
     <use style="fill:#ff0000;stroke:#ff0000;" x="95.391818" xlink:href="#m1c419369df" y="104.404321"/>
     <use style="fill:#ff0000;stroke:#ff0000;" x="96.66" xlink:href="#m1c419369df" y="106.259639"/>
     <use style="fill:#ff0000;stroke:#ff0000;" x="97.928182" xlink:href="#m1c419369df" y="88.875157"/>
     <use style="fill:#ff0000;stroke:#ff0000;" x="99.196364" xlink:href="#m1c419369df" y="122.382342"/>
     <use style="fill:#ff0000;stroke:#ff0000;" x="100.464545" xlink:href="#m1c419369df" y="148.88357"/>
     <use style="fill:#ff0000;stroke:#ff0000;" x="101.732727" xlink:href="#m1c419369df" y="81.226524"/>
     <use style="fill:#ff0000;stroke:#ff0000;" x="103.000909" xlink:href="#m1c419369df" y="145.643751"/>
     <use style="fill:#ff0000;stroke:#ff0000;" x="104.269091" xlink:href="#m1c419369df" y="138.164476"/>
     <use style="fill:#ff0000;stroke:#ff0000;" x="105.537273" xlink:href="#m1c419369df" y="120.383158"/>
     <use style="fill:#ff0000;stroke:#ff0000;" x="106.805455" xlink:href="#m1c419369df" y="138.23278"/>
     <use style="fill:#ff0000;stroke:#ff0000;" x="108.073636" xlink:href="#m1c419369df" y="86.872224"/>
     <use style="fill:#ff0000;stroke:#ff0000;" x="109.341818" xlink:href="#m1c419369df" y="121.907924"/>
     <use style="fill:#ff0000;stroke:#ff0000;" x="110.61" xlink:href="#m1c419369df" y="99.488549"/>
     <use style="fill:#ff0000;stroke:#ff0000;" x="111.878182" xlink:href="#m1c419369df" y="119.921936"/>
     <use style="fill:#ff0000;stroke:#ff0000;" x="113.146364" xlink:href="#m1c419369df" y="109.446296"/>
     <use style="fill:#ff0000;stroke:#ff0000;" x="114.414545" xlink:href="#m1c419369df" y="152.400069"/>
     <use style="fill:#ff0000;stroke:#ff0000;" x="115.682727" xlink:href="#m1c419369df" y="118.425361"/>
     <use style="fill:#ff0000;stroke:#ff0000;" x="116.950909" xlink:href="#m1c419369df" y="109.628497"/>
     <use style="fill:#ff0000;stroke:#ff0000;" x="118.219091" xlink:href="#m1c419369df" y="136.99647"/>
     <use style="fill:#ff0000;stroke:#ff0000;" x="119.487273" xlink:href="#m1c419369df" y="142.252476"/>
     <use style="fill:#ff0000;stroke:#ff0000;" x="120.755455" xlink:href="#m1c419369df" y="126.558239"/>
     <use style="fill:#ff0000;stroke:#ff0000;" x="122.023636" xlink:href="#m1c419369df" y="150.37269"/>
     <use style="fill:#ff0000;stroke:#ff0000;" x="123.291818" xlink:href="#m1c419369df" y="146.375573"/>
     <use style="fill:#ff0000;stroke:#ff0000;" x="124.56" xlink:href="#m1c419369df" y="138.740172"/>
     <use style="fill:#ff0000;stroke:#ff0000;" x="125.828182" xlink:href="#m1c419369df" y="144.759693"/>
     <use style="fill:#ff0000;stroke:#ff0000;" x="127.096364" xlink:href="#m1c419369df" y="182.580728"/>
     <use style="fill:#ff0000;stroke:#ff0000;" x="128.364545" xlink:href="#m1c419369df" y="156.632605"/>
     <use style="fill:#ff0000;stroke:#ff0000;" x="129.632727" xlink:href="#m1c419369df" y="139.092089"/>
     <use style="fill:#ff0000;stroke:#ff0000;" x="130.900909" xlink:href="#m1c419369df" y="162.134446"/>
     <use style="fill:#ff0000;stroke:#ff0000;" x="132.169091" xlink:href="#m1c419369df" y="145.586185"/>
     <use style="fill:#ff0000;stroke:#ff0000;" x="133.437273" xlink:href="#m1c419369df" y="182.104124"/>
     <use style="fill:#ff0000;stroke:#ff0000;" x="134.705455" xlink:href="#m1c419369df" y="190.5756"/>
     <use style="fill:#ff0000;stroke:#ff0000;" x="135.973636" xlink:href="#m1c419369df" y="162.223897"/>
     <use style="fill:#ff0000;stroke:#ff0000;" x="137.241818" xlink:href="#m1c419369df" y="192.871136"/>
     <use style="fill:#ff0000;stroke:#ff0000;" x="138.51" xlink:href="#m1c419369df" y="162.948788"/>
     <use style="fill:#ff0000;stroke:#ff0000;" x="139.778182" xlink:href="#m1c419369df" y="153.390146"/>
     <use style="fill:#ff0000;stroke:#ff0000;" x="141.046364" xlink:href="#m1c419369df" y="159.050226"/>
     <use style="fill:#ff0000;stroke:#ff0000;" x="142.314545" xlink:href="#m1c419369df" y="157.910794"/>
     <use style="fill:#ff0000;stroke:#ff0000;" x="143.582727" xlink:href="#m1c419369df" y="148.208079"/>
     <use style="fill:#ff0000;stroke:#ff0000;" x="144.850909" xlink:href="#m1c419369df" y="166.516295"/>
     <use style="fill:#ff0000;stroke:#ff0000;" x="146.119091" xlink:href="#m1c419369df" y="205.545951"/>
     <use style="fill:#ff0000;stroke:#ff0000;" x="147.387273" xlink:href="#m1c419369df" y="165.541084"/>
     <use style="fill:#ff0000;stroke:#ff0000;" x="148.655455" xlink:href="#m1c419369df" y="169.467313"/>
     <use style="fill:#ff0000;stroke:#ff0000;" x="149.923636" xlink:href="#m1c419369df" y="185.177105"/>
     <use style="fill:#ff0000;stroke:#ff0000;" x="151.191818" xlink:href="#m1c419369df" y="176.262262"/>
     <use style="fill:#ff0000;stroke:#ff0000;" x="152.46" xlink:href="#m1c419369df" y="182.020423"/>
     <use style="fill:#ff0000;stroke:#ff0000;" x="153.728182" xlink:href="#m1c419369df" y="173.834745"/>
     <use style="fill:#ff0000;stroke:#ff0000;" x="154.996364" xlink:href="#m1c419369df" y="175.888202"/>
     <use style="fill:#ff0000;stroke:#ff0000;" x="156.264545" xlink:href="#m1c419369df" y="175.392193"/>
     <use style="fill:#ff0000;stroke:#ff0000;" x="157.532727" xlink:href="#m1c419369df" y="178.733081"/>
     <use style="fill:#ff0000;stroke:#ff0000;" x="158.800909" xlink:href="#m1c419369df" y="207.5147"/>
     <use style="fill:#ff0000;stroke:#ff0000;" x="160.069091" xlink:href="#m1c419369df" y="194.997335"/>
     <use style="fill:#ff0000;stroke:#ff0000;" x="161.337273" xlink:href="#m1c419369df" y="212.749765"/>
     <use style="fill:#ff0000;stroke:#ff0000;" x="162.605455" xlink:href="#m1c419369df" y="170.467782"/>
     <use style="fill:#ff0000;stroke:#ff0000;" x="163.873636" xlink:href="#m1c419369df" y="186.658566"/>
     <use style="fill:#ff0000;stroke:#ff0000;" x="165.141818" xlink:href="#m1c419369df" y="187.360112"/>
     <use style="fill:#ff0000;stroke:#ff0000;" x="166.41" xlink:href="#m1c419369df" y="216.728559"/>
     <use style="fill:#ff0000;stroke:#ff0000;" x="167.678182" xlink:href="#m1c419369df" y="203.287898"/>
     <use style="fill:#ff0000;stroke:#ff0000;" x="168.946364" xlink:href="#m1c419369df" y="212.880609"/>
     <use style="fill:#ff0000;stroke:#ff0000;" x="170.214545" xlink:href="#m1c419369df" y="198.555224"/>
     <use style="fill:#ff0000;stroke:#ff0000;" x="171.482727" xlink:href="#m1c419369df" y="195.515917"/>
     <use style="fill:#ff0000;stroke:#ff0000;" x="172.750909" xlink:href="#m1c419369df" y="195.608671"/>
     <use style="fill:#ff0000;stroke:#ff0000;" x="174.019091" xlink:href="#m1c419369df" y="193.039088"/>
     <use style="fill:#ff0000;stroke:#ff0000;" x="175.287273" xlink:href="#m1c419369df" y="199.792427"/>
     <use style="fill:#ff0000;stroke:#ff0000;" x="176.555455" xlink:href="#m1c419369df" y="192.802296"/>
     <use style="fill:#ff0000;stroke:#ff0000;" x="177.823636" xlink:href="#m1c419369df" y="192.191077"/>
     <use style="fill:#ff0000;stroke:#ff0000;" x="179.091818" xlink:href="#m1c419369df" y="233.268471"/>
     <use style="fill:#ff0000;stroke:#ff0000;" x="180.36" xlink:href="#m1c419369df" y="210.258397"/>
     <use style="fill:#ff0000;stroke:#ff0000;" x="181.628182" xlink:href="#m1c419369df" y="214.948532"/>
     <use style="fill:#ff0000;stroke:#ff0000;" x="182.896364" xlink:href="#m1c419369df" y="229.315955"/>
     <use style="fill:#ff0000;stroke:#ff0000;" x="184.164545" xlink:href="#m1c419369df" y="225.018013"/>
     <use style="fill:#ff0000;stroke:#ff0000;" x="185.432727" xlink:href="#m1c419369df" y="208.769832"/>
     <use style="fill:#ff0000;stroke:#ff0000;" x="186.700909" xlink:href="#m1c419369df" y="225.998824"/>
     <use style="fill:#ff0000;stroke:#ff0000;" x="187.969091" xlink:href="#m1c419369df" y="207.568804"/>
     <use style="fill:#ff0000;stroke:#ff0000;" x="189.237273" xlink:href="#m1c419369df" y="221.978335"/>
     <use style="fill:#ff0000;stroke:#ff0000;" x="190.505455" xlink:href="#m1c419369df" y="220.061417"/>
     <use style="fill:#ff0000;stroke:#ff0000;" x="191.773636" xlink:href="#m1c419369df" y="205.092493"/>
     <use style="fill:#ff0000;stroke:#ff0000;" x="193.041818" xlink:href="#m1c419369df" y="232.312829"/>
     <use style="fill:#ff0000;stroke:#ff0000;" x="194.31" xlink:href="#m1c419369df" y="239.170435"/>
     <use style="fill:#ff0000;stroke:#ff0000;" x="195.578182" xlink:href="#m1c419369df" y="223.629905"/>
     <use style="fill:#ff0000;stroke:#ff0000;" x="196.846364" xlink:href="#m1c419369df" y="223.916332"/>
     <use style="fill:#ff0000;stroke:#ff0000;" x="198.114545" xlink:href="#m1c419369df" y="213.768229"/>
     <use style="fill:#ff0000;stroke:#ff0000;" x="199.382727" xlink:href="#m1c419369df" y="211.394086"/>
     <use style="fill:#ff0000;stroke:#ff0000;" x="200.650909" xlink:href="#m1c419369df" y="230.978617"/>
     <use style="fill:#ff0000;stroke:#ff0000;" x="201.919091" xlink:href="#m1c419369df" y="233.188981"/>
     <use style="fill:#ff0000;stroke:#ff0000;" x="203.187273" xlink:href="#m1c419369df" y="241.913641"/>
     <use style="fill:#ff0000;stroke:#ff0000;" x="204.455455" xlink:href="#m1c419369df" y="252.659031"/>
     <use style="fill:#ff0000;stroke:#ff0000;" x="205.723636" xlink:href="#m1c419369df" y="237.689598"/>
     <use style="fill:#ff0000;stroke:#ff0000;" x="206.991818" xlink:href="#m1c419369df" y="246.760209"/>
     <use style="fill:#ff0000;stroke:#ff0000;" x="208.26" xlink:href="#m1c419369df" y="238.139554"/>
     <use style="fill:#ff0000;stroke:#ff0000;" x="209.528182" xlink:href="#m1c419369df" y="223.931628"/>
     <use style="fill:#ff0000;stroke:#ff0000;" x="210.796364" xlink:href="#m1c419369df" y="253.640178"/>
     <use style="fill:#ff0000;stroke:#ff0000;" x="212.064545" xlink:href="#m1c419369df" y="231.731467"/>
     <use style="fill:#ff0000;stroke:#ff0000;" x="213.332727" xlink:href="#m1c419369df" y="253.598231"/>
     <use style="fill:#ff0000;stroke:#ff0000;" x="214.600909" xlink:href="#m1c419369df" y="242.073291"/>
     <use style="fill:#ff0000;stroke:#ff0000;" x="215.869091" xlink:href="#m1c419369df" y="239.054631"/>
     <use style="fill:#ff0000;stroke:#ff0000;" x="217.137273" xlink:href="#m1c419369df" y="252.411749"/>
     <use style="fill:#ff0000;stroke:#ff0000;" x="218.405455" xlink:href="#m1c419369df" y="245.505881"/>
     <use style="fill:#ff0000;stroke:#ff0000;" x="219.673636" xlink:href="#m1c419369df" y="226.90374"/>
     <use style="fill:#ff0000;stroke:#ff0000;" x="220.941818" xlink:href="#m1c419369df" y="249.295337"/>
     <use style="fill:#ff0000;stroke:#ff0000;" x="222.21" xlink:href="#m1c419369df" y="241.886905"/>
     <use style="fill:#ff0000;stroke:#ff0000;" x="223.478182" xlink:href="#m1c419369df" y="247.17867"/>
     <use style="fill:#ff0000;stroke:#ff0000;" x="224.746364" xlink:href="#m1c419369df" y="251.111898"/>
     <use style="fill:#ff0000;stroke:#ff0000;" x="226.014545" xlink:href="#m1c419369df" y="246.479884"/>
     <use style="fill:#ff0000;stroke:#ff0000;" x="227.282727" xlink:href="#m1c419369df" y="250.724469"/>
     <use style="fill:#ff0000;stroke:#ff0000;" x="228.550909" xlink:href="#m1c419369df" y="231.443865"/>
     <use style="fill:#ff0000;stroke:#ff0000;" x="229.819091" xlink:href="#m1c419369df" y="239.980601"/>
     <use style="fill:#ff0000;stroke:#ff0000;" x="231.087273" xlink:href="#m1c419369df" y="245.85407"/>
     <use style="fill:#ff0000;stroke:#ff0000;" x="232.355455" xlink:href="#m1c419369df" y="248.925999"/>
     <use style="fill:#ff0000;stroke:#ff0000;" x="233.623636" xlink:href="#m1c419369df" y="248.614348"/>
     <use style="fill:#ff0000;stroke:#ff0000;" x="234.891818" xlink:href="#m1c419369df" y="265.55736"/>
     <use style="fill:#ff0000;stroke:#ff0000;" x="236.16" xlink:href="#m1c419369df" y="262.581287"/>
     <use style="fill:#ff0000;stroke:#ff0000;" x="237.428182" xlink:href="#m1c419369df" y="251.943166"/>
     <use style="fill:#ff0000;stroke:#ff0000;" x="238.696364" xlink:href="#m1c419369df" y="239.863571"/>
     <use style="fill:#ff0000;stroke:#ff0000;" x="239.964545" xlink:href="#m1c419369df" y="248.707189"/>
     <use style="fill:#ff0000;stroke:#ff0000;" x="241.232727" xlink:href="#m1c419369df" y="257.181085"/>
     <use style="fill:#ff0000;stroke:#ff0000;" x="242.500909" xlink:href="#m1c419369df" y="243.344612"/>
     <use style="fill:#ff0000;stroke:#ff0000;" x="243.769091" xlink:href="#m1c419369df" y="262.455184"/>
     <use style="fill:#ff0000;stroke:#ff0000;" x="245.037273" xlink:href="#m1c419369df" y="263.813757"/>
     <use style="fill:#ff0000;stroke:#ff0000;" x="246.305455" xlink:href="#m1c419369df" y="246.187827"/>
     <use style="fill:#ff0000;stroke:#ff0000;" x="247.573636" xlink:href="#m1c419369df" y="249.2045"/>
     <use style="fill:#ff0000;stroke:#ff0000;" x="248.841818" xlink:href="#m1c419369df" y="266.755298"/>
     <use style="fill:#ff0000;stroke:#ff0000;" x="250.11" xlink:href="#m1c419369df" y="263.921512"/>
     <use style="fill:#ff0000;stroke:#ff0000;" x="251.378182" xlink:href="#m1c419369df" y="250.831226"/>
     <use style="fill:#ff0000;stroke:#ff0000;" x="252.646364" xlink:href="#m1c419369df" y="249.425402"/>
     <use style="fill:#ff0000;stroke:#ff0000;" x="253.914545" xlink:href="#m1c419369df" y="267.142028"/>
     <use style="fill:#ff0000;stroke:#ff0000;" x="255.182727" xlink:href="#m1c419369df" y="265.595955"/>
     <use style="fill:#ff0000;stroke:#ff0000;" x="256.450909" xlink:href="#m1c419369df" y="276.789189"/>
     <use style="fill:#ff0000;stroke:#ff0000;" x="257.719091" xlink:href="#m1c419369df" y="254.506211"/>
     <use style="fill:#ff0000;stroke:#ff0000;" x="258.987273" xlink:href="#m1c419369df" y="263.248931"/>
     <use style="fill:#ff0000;stroke:#ff0000;" x="260.255455" xlink:href="#m1c419369df" y="262.541183"/>
     <use style="fill:#ff0000;stroke:#ff0000;" x="261.523636" xlink:href="#m1c419369df" y="260.205415"/>
     <use style="fill:#ff0000;stroke:#ff0000;" x="262.791818" xlink:href="#m1c419369df" y="270.858858"/>
     <use style="fill:#ff0000;stroke:#ff0000;" x="264.06" xlink:href="#m1c419369df" y="257.781127"/>
     <use style="fill:#ff0000;stroke:#ff0000;" x="265.328182" xlink:href="#m1c419369df" y="264.710928"/>
     <use style="fill:#ff0000;stroke:#ff0000;" x="266.596364" xlink:href="#m1c419369df" y="259.779204"/>
     <use style="fill:#ff0000;stroke:#ff0000;" x="267.864545" xlink:href="#m1c419369df" y="262.425655"/>
     <use style="fill:#ff0000;stroke:#ff0000;" x="269.132727" xlink:href="#m1c419369df" y="273.863446"/>
     <use style="fill:#ff0000;stroke:#ff0000;" x="270.400909" xlink:href="#m1c419369df" y="268.320365"/>
     <use style="fill:#ff0000;stroke:#ff0000;" x="271.669091" xlink:href="#m1c419369df" y="268.581169"/>
     <use style="fill:#ff0000;stroke:#ff0000;" x="272.937273" xlink:href="#m1c419369df" y="269.809862"/>
     <use style="fill:#ff0000;stroke:#ff0000;" x="274.205455" xlink:href="#m1c419369df" y="280.655958"/>
     <use style="fill:#ff0000;stroke:#ff0000;" x="275.473636" xlink:href="#m1c419369df" y="270.606057"/>
     <use style="fill:#ff0000;stroke:#ff0000;" x="276.741818" xlink:href="#m1c419369df" y="271.535994"/>
     <use style="fill:#ff0000;stroke:#ff0000;" x="278.01" xlink:href="#m1c419369df" y="283.303924"/>
     <use style="fill:#ff0000;stroke:#ff0000;" x="279.278182" xlink:href="#m1c419369df" y="264.282379"/>
     <use style="fill:#ff0000;stroke:#ff0000;" x="280.546364" xlink:href="#m1c419369df" y="274.94055"/>
     <use style="fill:#ff0000;stroke:#ff0000;" x="281.814545" xlink:href="#m1c419369df" y="276.464229"/>
     <use style="fill:#ff0000;stroke:#ff0000;" x="283.082727" xlink:href="#m1c419369df" y="287.760301"/>
     <use style="fill:#ff0000;stroke:#ff0000;" x="284.350909" xlink:href="#m1c419369df" y="289.602425"/>
     <use style="fill:#ff0000;stroke:#ff0000;" x="285.619091" xlink:href="#m1c419369df" y="264.751593"/>
     <use style="fill:#ff0000;stroke:#ff0000;" x="286.887273" xlink:href="#m1c419369df" y="273.198287"/>
     <use style="fill:#ff0000;stroke:#ff0000;" x="288.155455" xlink:href="#m1c419369df" y="268.923563"/>
     <use style="fill:#ff0000;stroke:#ff0000;" x="289.423636" xlink:href="#m1c419369df" y="272.816519"/>
     <use style="fill:#ff0000;stroke:#ff0000;" x="290.691818" xlink:href="#m1c419369df" y="278.441934"/>
     <use style="fill:#ff0000;stroke:#ff0000;" x="291.96" xlink:href="#m1c419369df" y="285.049965"/>
     <use style="fill:#ff0000;stroke:#ff0000;" x="293.228182" xlink:href="#m1c419369df" y="286.024279"/>
     <use style="fill:#ff0000;stroke:#ff0000;" x="294.496364" xlink:href="#m1c419369df" y="282.421961"/>
     <use style="fill:#ff0000;stroke:#ff0000;" x="295.764545" xlink:href="#m1c419369df" y="281.803066"/>
     <use style="fill:#ff0000;stroke:#ff0000;" x="297.032727" xlink:href="#m1c419369df" y="273.759758"/>
     <use style="fill:#ff0000;stroke:#ff0000;" x="298.300909" xlink:href="#m1c419369df" y="274.976063"/>
     <use style="fill:#ff0000;stroke:#ff0000;" x="299.569091" xlink:href="#m1c419369df" y="289.573213"/>
     <use style="fill:#ff0000;stroke:#ff0000;" x="300.837273" xlink:href="#m1c419369df" y="273.479399"/>
     <use style="fill:#ff0000;stroke:#ff0000;" x="302.105455" xlink:href="#m1c419369df" y="292.555791"/>
     <use style="fill:#ff0000;stroke:#ff0000;" x="303.373636" xlink:href="#m1c419369df" y="278.208452"/>
     <use style="fill:#ff0000;stroke:#ff0000;" x="304.641818" xlink:href="#m1c419369df" y="281.370174"/>
     <use style="fill:#ff0000;stroke:#ff0000;" x="305.91" xlink:href="#m1c419369df" y="290.321333"/>
     <use style="fill:#ff0000;stroke:#ff0000;" x="307.178182" xlink:href="#m1c419369df" y="292.766379"/>
     <use style="fill:#ff0000;stroke:#ff0000;" x="308.446364" xlink:href="#m1c419369df" y="294.074501"/>
     <use style="fill:#ff0000;stroke:#ff0000;" x="309.714545" xlink:href="#m1c419369df" y="278.819779"/>
     <use style="fill:#ff0000;stroke:#ff0000;" x="310.982727" xlink:href="#m1c419369df" y="285.850483"/>
     <use style="fill:#ff0000;stroke:#ff0000;" x="312.250909" xlink:href="#m1c419369df" y="283.449353"/>
     <use style="fill:#ff0000;stroke:#ff0000;" x="313.519091" xlink:href="#m1c419369df" y="273.960352"/>
     <use style="fill:#ff0000;stroke:#ff0000;" x="314.787273" xlink:href="#m1c419369df" y="289.611004"/>
     <use style="fill:#ff0000;stroke:#ff0000;" x="316.055455" xlink:href="#m1c419369df" y="277.200991"/>
     <use style="fill:#ff0000;stroke:#ff0000;" x="317.323636" xlink:href="#m1c419369df" y="276.323831"/>
     <use style="fill:#ff0000;stroke:#ff0000;" x="318.591818" xlink:href="#m1c419369df" y="285.559475"/>
     <use style="fill:#ff0000;stroke:#ff0000;" x="319.86" xlink:href="#m1c419369df" y="274.681882"/>
     <use style="fill:#ff0000;stroke:#ff0000;" x="321.128182" xlink:href="#m1c419369df" y="284.787466"/>
     <use style="fill:#ff0000;stroke:#ff0000;" x="322.396364" xlink:href="#m1c419369df" y="287.147791"/>
     <use style="fill:#ff0000;stroke:#ff0000;" x="323.664545" xlink:href="#m1c419369df" y="283.750487"/>
     <use style="fill:#ff0000;stroke:#ff0000;" x="324.932727" xlink:href="#m1c419369df" y="281.665132"/>
     <use style="fill:#ff0000;stroke:#ff0000;" x="326.200909" xlink:href="#m1c419369df" y="287.875205"/>
     <use style="fill:#ff0000;stroke:#ff0000;" x="327.469091" xlink:href="#m1c419369df" y="281.319316"/>
     <use style="fill:#ff0000;stroke:#ff0000;" x="328.737273" xlink:href="#m1c419369df" y="281.296796"/>
     <use style="fill:#ff0000;stroke:#ff0000;" x="330.005455" xlink:href="#m1c419369df" y="279.129401"/>
     <use style="fill:#ff0000;stroke:#ff0000;" x="331.273636" xlink:href="#m1c419369df" y="278.69688"/>
     <use style="fill:#ff0000;stroke:#ff0000;" x="332.541818" xlink:href="#m1c419369df" y="295.488"/>
     <use style="fill:#ff0000;stroke:#ff0000;" x="333.81" xlink:href="#m1c419369df" y="292.323206"/>
     <use style="fill:#ff0000;stroke:#ff0000;" x="335.078182" xlink:href="#m1c419369df" y="286.641646"/>
     <use style="fill:#ff0000;stroke:#ff0000;" x="336.346364" xlink:href="#m1c419369df" y="274.576616"/>
     <use style="fill:#ff0000;stroke:#ff0000;" x="337.614545" xlink:href="#m1c419369df" y="279.824064"/>
     <use style="fill:#ff0000;stroke:#ff0000;" x="338.882727" xlink:href="#m1c419369df" y="281.328071"/>
     <use style="fill:#ff0000;stroke:#ff0000;" x="340.150909" xlink:href="#m1c419369df" y="289.546562"/>
     <use style="fill:#ff0000;stroke:#ff0000;" x="341.419091" xlink:href="#m1c419369df" y="273.213446"/>
     <use style="fill:#ff0000;stroke:#ff0000;" x="342.687273" xlink:href="#m1c419369df" y="278.644712"/>
     <use style="fill:#ff0000;stroke:#ff0000;" x="343.955455" xlink:href="#m1c419369df" y="275.728013"/>
     <use style="fill:#ff0000;stroke:#ff0000;" x="345.223636" xlink:href="#m1c419369df" y="290.412901"/>
     <use style="fill:#ff0000;stroke:#ff0000;" x="346.491818" xlink:href="#m1c419369df" y="274.171726"/>
     <use style="fill:#ff0000;stroke:#ff0000;" x="347.76" xlink:href="#m1c419369df" y="278.398815"/>
     <use style="fill:#ff0000;stroke:#ff0000;" x="349.028182" xlink:href="#m1c419369df" y="273.922284"/>
     <use style="fill:#ff0000;stroke:#ff0000;" x="350.296364" xlink:href="#m1c419369df" y="275.184594"/>
     <use style="fill:#ff0000;stroke:#ff0000;" x="351.564545" xlink:href="#m1c419369df" y="273.461639"/>
     <use style="fill:#ff0000;stroke:#ff0000;" x="352.832727" xlink:href="#m1c419369df" y="289.598932"/>
     <use style="fill:#ff0000;stroke:#ff0000;" x="354.100909" xlink:href="#m1c419369df" y="278.061467"/>
     <use style="fill:#ff0000;stroke:#ff0000;" x="355.369091" xlink:href="#m1c419369df" y="292.870709"/>
     <use style="fill:#ff0000;stroke:#ff0000;" x="356.637273" xlink:href="#m1c419369df" y="287.363876"/>
     <use style="fill:#ff0000;stroke:#ff0000;" x="357.905455" xlink:href="#m1c419369df" y="293.751726"/>
     <use style="fill:#ff0000;stroke:#ff0000;" x="359.173636" xlink:href="#m1c419369df" y="278.462652"/>
     <use style="fill:#ff0000;stroke:#ff0000;" x="360.441818" xlink:href="#m1c419369df" y="273.435742"/>
     <use style="fill:#ff0000;stroke:#ff0000;" x="361.71" xlink:href="#m1c419369df" y="272.061783"/>
     <use style="fill:#ff0000;stroke:#ff0000;" x="362.978182" xlink:href="#m1c419369df" y="279.860528"/>
     <use style="fill:#ff0000;stroke:#ff0000;" x="364.246364" xlink:href="#m1c419369df" y="274.146681"/>
     <use style="fill:#ff0000;stroke:#ff0000;" x="365.514545" xlink:href="#m1c419369df" y="285.071928"/>
     <use style="fill:#ff0000;stroke:#ff0000;" x="366.782727" xlink:href="#m1c419369df" y="278.576929"/>
     <use style="fill:#ff0000;stroke:#ff0000;" x="368.050909" xlink:href="#m1c419369df" y="277.651719"/>
     <use style="fill:#ff0000;stroke:#ff0000;" x="369.319091" xlink:href="#m1c419369df" y="284.853577"/>
     <use style="fill:#ff0000;stroke:#ff0000;" x="370.587273" xlink:href="#m1c419369df" y="270.035381"/>
     <use style="fill:#ff0000;stroke:#ff0000;" x="371.855455" xlink:href="#m1c419369df" y="282.208275"/>
     <use style="fill:#ff0000;stroke:#ff0000;" x="373.123636" xlink:href="#m1c419369df" y="281.44129"/>
     <use style="fill:#ff0000;stroke:#ff0000;" x="374.391818" xlink:href="#m1c419369df" y="268.496376"/>
     <use style="fill:#ff0000;stroke:#ff0000;" x="375.66" xlink:href="#m1c419369df" y="271.356908"/>
     <use style="fill:#ff0000;stroke:#ff0000;" x="376.928182" xlink:href="#m1c419369df" y="280.592035"/>
     <use style="fill:#ff0000;stroke:#ff0000;" x="378.196364" xlink:href="#m1c419369df" y="267.66123"/>
     <use style="fill:#ff0000;stroke:#ff0000;" x="379.464545" xlink:href="#m1c419369df" y="280.563094"/>
     <use style="fill:#ff0000;stroke:#ff0000;" x="380.732727" xlink:href="#m1c419369df" y="280.154466"/>
     <use style="fill:#ff0000;stroke:#ff0000;" x="382.000909" xlink:href="#m1c419369df" y="281.191866"/>
     <use style="fill:#ff0000;stroke:#ff0000;" x="383.269091" xlink:href="#m1c419369df" y="279.915325"/>
     <use style="fill:#ff0000;stroke:#ff0000;" x="384.537273" xlink:href="#m1c419369df" y="283.323471"/>
     <use style="fill:#ff0000;stroke:#ff0000;" x="385.805455" xlink:href="#m1c419369df" y="284.542034"/>
     <use style="fill:#ff0000;stroke:#ff0000;" x="387.073636" xlink:href="#m1c419369df" y="280.685625"/>
     <use style="fill:#ff0000;stroke:#ff0000;" x="388.341818" xlink:href="#m1c419369df" y="284.217986"/>
     <use style="fill:#ff0000;stroke:#ff0000;" x="389.61" xlink:href="#m1c419369df" y="276.236209"/>
     <use style="fill:#ff0000;stroke:#ff0000;" x="390.878182" xlink:href="#m1c419369df" y="266.454937"/>
     <use style="fill:#ff0000;stroke:#ff0000;" x="392.146364" xlink:href="#m1c419369df" y="262.617166"/>
     <use style="fill:#ff0000;stroke:#ff0000;" x="393.414545" xlink:href="#m1c419369df" y="264.380342"/>
     <use style="fill:#ff0000;stroke:#ff0000;" x="394.682727" xlink:href="#m1c419369df" y="263.834881"/>
     <use style="fill:#ff0000;stroke:#ff0000;" x="395.950909" xlink:href="#m1c419369df" y="265.710882"/>
     <use style="fill:#ff0000;stroke:#ff0000;" x="397.219091" xlink:href="#m1c419369df" y="267.334723"/>
     <use style="fill:#ff0000;stroke:#ff0000;" x="398.487273" xlink:href="#m1c419369df" y="265.939851"/>
    </g>
   </g>
   <g id="line2d_13">
    <path clip-path="url(#pf18d933798)" d="M 73.832727 71.176926 
L 81.441818 83.494428 
L 89.050909 95.443068 
L 96.66 107.022847 
L 104.269091 118.233766 
L 111.878182 129.075823 
L 119.487273 139.54902 
L 127.096364 149.653356 
L 134.705455 159.388831 
L 142.314545 168.755445 
L 149.923636 177.753198 
L 157.532727 186.38209 
L 165.141818 194.642121 
L 172.750909 202.533291 
L 180.36 210.055601 
L 187.969091 217.209049 
L 194.31 222.888488 
L 200.650909 228.311773 
L 206.991818 233.478904 
L 213.332727 238.389882 
L 219.673636 243.044707 
L 226.014545 247.443378 
L 232.355455 251.585896 
L 238.696364 255.472261 
L 245.037273 259.102472 
L 251.378182 262.476529 
L 257.719091 265.594434 
L 264.06 268.456185 
L 270.400909 271.061782 
L 276.741818 273.411226 
L 283.082727 275.504517 
L 289.423636 277.341654 
L 295.764545 278.922638 
L 302.105455 280.247468 
L 308.446364 281.316145 
L 314.787273 282.128669 
L 321.128182 282.685039 
L 327.469091 282.985256 
L 333.81 283.029319 
L 340.150909 282.817229 
L 346.491818 282.348986 
L 352.832727 281.624589 
L 359.173636 280.644039 
L 365.514545 279.407335 
L 371.855455 277.914478 
L 378.196364 276.165467 
L 384.537273 274.160304 
L 390.878182 271.898986 
L 397.219091 269.381516 
L 398.487273 268.847283 
L 398.487273 268.847283 
" style="fill:none;stroke:#008000;stroke-linecap:square;stroke-width:1.5;"/>
   </g>
   <g id="patch_3">
    <path d="M 57.6 307.584 
L 57.6 41.472 
" style="fill:none;stroke:#000000;stroke-linecap:square;stroke-linejoin:miter;stroke-width:0.8;"/>
   </g>
   <g id="patch_4">
    <path d="M 414.72 307.584 
L 414.72 41.472 
" style="fill:none;stroke:#000000;stroke-linecap:square;stroke-linejoin:miter;stroke-width:0.8;"/>
   </g>
   <g id="patch_5">
    <path d="M 57.6 307.584 
L 414.72 307.584 
" style="fill:none;stroke:#000000;stroke-linecap:square;stroke-linejoin:miter;stroke-width:0.8;"/>
   </g>
   <g id="patch_6">
    <path d="M 57.6 41.472 
L 414.72 41.472 
" style="fill:none;stroke:#000000;stroke-linecap:square;stroke-linejoin:miter;stroke-width:0.8;"/>
   </g>
   <g id="text_14">
    <!-- FunctionFitting 42 -->
    <defs>
     <path d="M 9.8125 72.90625 
L 51.703125 72.90625 
L 51.703125 64.59375 
L 19.671875 64.59375 
L 19.671875 43.109375 
L 48.578125 43.109375 
L 48.578125 34.8125 
L 19.671875 34.8125 
L 19.671875 0 
L 9.8125 0 
z
" id="DejaVuSans-70"/>
     <path d="M 54.890625 33.015625 
L 54.890625 0 
L 45.90625 0 
L 45.90625 32.71875 
Q 45.90625 40.484375 42.875 44.328125 
Q 39.84375 48.1875 33.796875 48.1875 
Q 26.515625 48.1875 22.3125 43.546875 
Q 18.109375 38.921875 18.109375 30.90625 
L 18.109375 0 
L 9.078125 0 
L 9.078125 54.6875 
L 18.109375 54.6875 
L 18.109375 46.1875 
Q 21.34375 51.125 25.703125 53.5625 
Q 30.078125 56 35.796875 56 
Q 45.21875 56 50.046875 50.171875 
Q 54.890625 44.34375 54.890625 33.015625 
z
" id="DejaVuSans-110"/>
     <path d="M 48.78125 52.59375 
L 48.78125 44.1875 
Q 44.96875 46.296875 41.140625 47.34375 
Q 37.3125 48.390625 33.40625 48.390625 
Q 24.65625 48.390625 19.8125 42.84375 
Q 14.984375 37.3125 14.984375 27.296875 
Q 14.984375 17.28125 19.8125 11.734375 
Q 24.65625 6.203125 33.40625 6.203125 
Q 37.3125 6.203125 41.140625 7.25 
Q 44.96875 8.296875 48.78125 10.40625 
L 48.78125 2.09375 
Q 45.015625 0.34375 40.984375 -0.53125 
Q 36.96875 -1.421875 32.421875 -1.421875 
Q 20.0625 -1.421875 12.78125 6.34375 
Q 5.515625 14.109375 5.515625 27.296875 
Q 5.515625 40.671875 12.859375 48.328125 
Q 20.21875 56 33.015625 56 
Q 37.15625 56 41.109375 55.140625 
Q 45.0625 54.296875 48.78125 52.59375 
z
" id="DejaVuSans-99"/>
     <path d="M 18.3125 70.21875 
L 18.3125 54.6875 
L 36.8125 54.6875 
L 36.8125 47.703125 
L 18.3125 47.703125 
L 18.3125 18.015625 
Q 18.3125 11.328125 20.140625 9.421875 
Q 21.96875 7.515625 27.59375 7.515625 
L 36.8125 7.515625 
L 36.8125 0 
L 27.59375 0 
Q 17.1875 0 13.234375 3.875 
Q 9.28125 7.765625 9.28125 18.015625 
L 9.28125 47.703125 
L 2.6875 47.703125 
L 2.6875 54.6875 
L 9.28125 54.6875 
L 9.28125 70.21875 
z
" id="DejaVuSans-116"/>
     <path d="M 9.421875 54.6875 
L 18.40625 54.6875 
L 18.40625 0 
L 9.421875 0 
z
M 9.421875 75.984375 
L 18.40625 75.984375 
L 18.40625 64.59375 
L 9.421875 64.59375 
z
" id="DejaVuSans-105"/>
     <path d="M 30.609375 48.390625 
Q 23.390625 48.390625 19.1875 42.75 
Q 14.984375 37.109375 14.984375 27.296875 
Q 14.984375 17.484375 19.15625 11.84375 
Q 23.34375 6.203125 30.609375 6.203125 
Q 37.796875 6.203125 41.984375 11.859375 
Q 46.1875 17.53125 46.1875 27.296875 
Q 46.1875 37.015625 41.984375 42.703125 
Q 37.796875 48.390625 30.609375 48.390625 
z
M 30.609375 56 
Q 42.328125 56 49.015625 48.375 
Q 55.71875 40.765625 55.71875 27.296875 
Q 55.71875 13.875 49.015625 6.21875 
Q 42.328125 -1.421875 30.609375 -1.421875 
Q 18.84375 -1.421875 12.171875 6.21875 
Q 5.515625 13.875 5.515625 27.296875 
Q 5.515625 40.765625 12.171875 48.375 
Q 18.84375 56 30.609375 56 
z
" id="DejaVuSans-111"/>
     <path d="M 45.40625 27.984375 
Q 45.40625 37.75 41.375 43.109375 
Q 37.359375 48.484375 30.078125 48.484375 
Q 22.859375 48.484375 18.828125 43.109375 
Q 14.796875 37.75 14.796875 27.984375 
Q 14.796875 18.265625 18.828125 12.890625 
Q 22.859375 7.515625 30.078125 7.515625 
Q 37.359375 7.515625 41.375 12.890625 
Q 45.40625 18.265625 45.40625 27.984375 
z
M 54.390625 6.78125 
Q 54.390625 -7.171875 48.1875 -13.984375 
Q 42 -20.796875 29.203125 -20.796875 
Q 24.46875 -20.796875 20.265625 -20.09375 
Q 16.0625 -19.390625 12.109375 -17.921875 
L 12.109375 -9.1875 
Q 16.0625 -11.328125 19.921875 -12.34375 
Q 23.78125 -13.375 27.78125 -13.375 
Q 36.625 -13.375 41.015625 -8.765625 
Q 45.40625 -4.15625 45.40625 5.171875 
L 45.40625 9.625 
Q 42.625 4.78125 38.28125 2.390625 
Q 33.9375 0 27.875 0 
Q 17.828125 0 11.671875 7.65625 
Q 5.515625 15.328125 5.515625 27.984375 
Q 5.515625 40.671875 11.671875 48.328125 
Q 17.828125 56 27.875 56 
Q 33.9375 56 38.28125 53.609375 
Q 42.625 51.21875 45.40625 46.390625 
L 45.40625 54.6875 
L 54.390625 54.6875 
z
" id="DejaVuSans-103"/>
    </defs>
    <g transform="translate(181.680937 35.472)scale(0.12 -0.12)">
     <use xlink:href="#DejaVuSans-70"/>
     <use x="57.441406" xlink:href="#DejaVuSans-117"/>
     <use x="120.820312" xlink:href="#DejaVuSans-110"/>
     <use x="184.199219" xlink:href="#DejaVuSans-99"/>
     <use x="239.179688" xlink:href="#DejaVuSans-116"/>
     <use x="278.388672" xlink:href="#DejaVuSans-105"/>
     <use x="306.171875" xlink:href="#DejaVuSans-111"/>
     <use x="367.353516" xlink:href="#DejaVuSans-110"/>
     <use x="430.732422" xlink:href="#DejaVuSans-70"/>
     <use x="488.142578" xlink:href="#DejaVuSans-105"/>
     <use x="515.925781" xlink:href="#DejaVuSans-116"/>
     <use x="555.134766" xlink:href="#DejaVuSans-116"/>
     <use x="594.34375" xlink:href="#DejaVuSans-105"/>
     <use x="622.126953" xlink:href="#DejaVuSans-110"/>
     <use x="685.505859" xlink:href="#DejaVuSans-103"/>
     <use x="748.982422" xlink:href="#DejaVuSans-32"/>
     <use x="780.769531" xlink:href="#DejaVuSans-52"/>
     <use x="844.392578" xlink:href="#DejaVuSans-50"/>
    </g>
   </g>
   <g id="legend_1">
    <g id="patch_7">
     <path d="M 299.83875 78.82825 
L 407.72 78.82825 
Q 409.72 78.82825 409.72 76.82825 
L 409.72 48.472 
Q 409.72 46.472 407.72 46.472 
L 299.83875 46.472 
Q 297.83875 46.472 297.83875 48.472 
L 297.83875 76.82825 
Q 297.83875 78.82825 299.83875 78.82825 
z
" style="fill:#ffffff;opacity:0.8;stroke:#cccccc;stroke-linejoin:miter;"/>
    </g>
    <g id="line2d_14"/>
    <g id="line2d_15">
     <g>
      <use style="fill:#ff0000;stroke:#ff0000;" x="311.83875" xlink:href="#m1c419369df" y="54.570437"/>
     </g>
    </g>
    <g id="text_15">
     <!-- measured data -->
     <defs>
      <path d="M 52 44.1875 
Q 55.375 50.25 60.0625 53.125 
Q 64.75 56 71.09375 56 
Q 79.640625 56 84.28125 50.015625 
Q 88.921875 44.046875 88.921875 33.015625 
L 88.921875 0 
L 79.890625 0 
L 79.890625 32.71875 
Q 79.890625 40.578125 77.09375 44.375 
Q 74.3125 48.1875 68.609375 48.1875 
Q 61.625 48.1875 57.5625 43.546875 
Q 53.515625 38.921875 53.515625 30.90625 
L 53.515625 0 
L 44.484375 0 
L 44.484375 32.71875 
Q 44.484375 40.625 41.703125 44.40625 
Q 38.921875 48.1875 33.109375 48.1875 
Q 26.21875 48.1875 22.15625 43.53125 
Q 18.109375 38.875 18.109375 30.90625 
L 18.109375 0 
L 9.078125 0 
L 9.078125 54.6875 
L 18.109375 54.6875 
L 18.109375 46.1875 
Q 21.1875 51.21875 25.484375 53.609375 
Q 29.78125 56 35.6875 56 
Q 41.65625 56 45.828125 52.96875 
Q 50 49.953125 52 44.1875 
z
" id="DejaVuSans-109"/>
      <path d="M 41.109375 46.296875 
Q 39.59375 47.171875 37.8125 47.578125 
Q 36.03125 48 33.890625 48 
Q 26.265625 48 22.1875 43.046875 
Q 18.109375 38.09375 18.109375 28.8125 
L 18.109375 0 
L 9.078125 0 
L 9.078125 54.6875 
L 18.109375 54.6875 
L 18.109375 46.1875 
Q 20.953125 51.171875 25.484375 53.578125 
Q 30.03125 56 36.53125 56 
Q 37.453125 56 38.578125 55.875 
Q 39.703125 55.765625 41.0625 55.515625 
z
" id="DejaVuSans-114"/>
      <path d="M 45.40625 46.390625 
L 45.40625 75.984375 
L 54.390625 75.984375 
L 54.390625 0 
L 45.40625 0 
L 45.40625 8.203125 
Q 42.578125 3.328125 38.25 0.953125 
Q 33.9375 -1.421875 27.875 -1.421875 
Q 17.96875 -1.421875 11.734375 6.484375 
Q 5.515625 14.40625 5.515625 27.296875 
Q 5.515625 40.1875 11.734375 48.09375 
Q 17.96875 56 27.875 56 
Q 33.9375 56 38.25 53.625 
Q 42.578125 51.265625 45.40625 46.390625 
z
M 14.796875 27.296875 
Q 14.796875 17.390625 18.875 11.75 
Q 22.953125 6.109375 30.078125 6.109375 
Q 37.203125 6.109375 41.296875 11.75 
Q 45.40625 17.390625 45.40625 27.296875 
Q 45.40625 37.203125 41.296875 42.84375 
Q 37.203125 48.484375 30.078125 48.484375 
Q 22.953125 48.484375 18.875 42.84375 
Q 14.796875 37.203125 14.796875 27.296875 
z
" id="DejaVuSans-100"/>
     </defs>
     <g transform="translate(329.83875 58.070437)scale(0.1 -0.1)">
      <use xlink:href="#DejaVuSans-109"/>
      <use x="97.412109" xlink:href="#DejaVuSans-101"/>
      <use x="158.935547" xlink:href="#DejaVuSans-97"/>
      <use x="220.214844" xlink:href="#DejaVuSans-115"/>
      <use x="272.314453" xlink:href="#DejaVuSans-117"/>
      <use x="335.693359" xlink:href="#DejaVuSans-114"/>
      <use x="376.775391" xlink:href="#DejaVuSans-101"/>
      <use x="438.298828" xlink:href="#DejaVuSans-100"/>
      <use x="501.775391" xlink:href="#DejaVuSans-32"/>
      <use x="533.5625" xlink:href="#DejaVuSans-100"/>
      <use x="597.039062" xlink:href="#DejaVuSans-97"/>
      <use x="658.318359" xlink:href="#DejaVuSans-116"/>
      <use x="697.527344" xlink:href="#DejaVuSans-97"/>
     </g>
    </g>
    <g id="line2d_16">
     <path d="M 301.83875 69.248562 
L 321.83875 69.248562 
" style="fill:none;stroke:#008000;stroke-linecap:square;stroke-width:1.5;"/>
    </g>
    <g id="line2d_17"/>
    <g id="text_16">
     <!-- linear data -->
     <g transform="translate(329.83875 72.748562)scale(0.1 -0.1)">
      <use xlink:href="#DejaVuSans-108"/>
      <use x="27.783203" xlink:href="#DejaVuSans-105"/>
      <use x="55.566406" xlink:href="#DejaVuSans-110"/>
      <use x="118.945312" xlink:href="#DejaVuSans-101"/>
      <use x="180.46875" xlink:href="#DejaVuSans-97"/>
      <use x="241.748047" xlink:href="#DejaVuSans-114"/>
      <use x="282.861328" xlink:href="#DejaVuSans-32"/>
      <use x="314.648438" xlink:href="#DejaVuSans-100"/>
      <use x="378.125" xlink:href="#DejaVuSans-97"/>
      <use x="439.404297" xlink:href="#DejaVuSans-116"/>
      <use x="478.613281" xlink:href="#DejaVuSans-97"/>
     </g>
    </g>
   </g>
  </g>
 </g>
 <defs>
  <clipPath id="pf18d933798">
   <rect height="266.112" width="357.12" x="57.6" y="41.472"/>
  </clipPath>
 </defs>
</svg>
