<?xml version="1.0" encoding="utf-8" standalone="no"?>
<!DOCTYPE svg PUBLIC "-//W3C//DTD SVG 1.1//EN"
  "http://www.w3.org/Graphics/SVG/1.1/DTD/svg11.dtd">
<!-- Created with matplotlib (https://matplotlib.org/) -->
<svg height="345.6pt" version="1.1" viewBox="0 0 460.8 345.6" width="460.8pt" xmlns="http://www.w3.org/2000/svg" xmlns:xlink="http://www.w3.org/1999/xlink">
 <defs>
  <style type="text/css">
*{stroke-linecap:butt;stroke-linejoin:round;}
  </style>
 </defs>
 <g id="figure_1">
  <g id="patch_1">
   <path d="M 0 345.6 
L 460.8 345.6 
L 460.8 0 
L 0 0 
z
" style="fill:#ffffff;"/>
  </g>
  <g id="axes_1">
   <g id="patch_2">
    <path d="M 57.6 307.584 
L 414.72 307.584 
L 414.72 41.472 
L 57.6 41.472 
z
" style="fill:#ffffff;"/>
   </g>
   <g id="matplotlib.axis_1">
    <g id="xtick_1">
     <g id="line2d_1">
      <defs>
       <path d="M 0 0 
L 0 3.5 
" id="m027b17577a" style="stroke:#000000;stroke-width:0.8;"/>
      </defs>
      <g>
       <use style="stroke:#000000;stroke-width:0.8;" x="112.452492" xlink:href="#m027b17577a" y="307.584"/>
      </g>
     </g>
     <g id="text_1">
      <!-- 20 -->
      <defs>
       <path d="M 19.1875 8.296875 
L 53.609375 8.296875 
L 53.609375 0 
L 7.328125 0 
L 7.328125 8.296875 
Q 12.9375 14.109375 22.625 23.890625 
Q 32.328125 33.6875 34.8125 36.53125 
Q 39.546875 41.84375 41.421875 45.53125 
Q 43.3125 49.21875 43.3125 52.78125 
Q 43.3125 58.59375 39.234375 62.25 
Q 35.15625 65.921875 28.609375 65.921875 
Q 23.96875 65.921875 18.8125 64.3125 
Q 13.671875 62.703125 7.8125 59.421875 
L 7.8125 69.390625 
Q 13.765625 71.78125 18.9375 73 
Q 24.125 74.21875 28.421875 74.21875 
Q 39.75 74.21875 46.484375 68.546875 
Q 53.21875 62.890625 53.21875 53.421875 
Q 53.21875 48.921875 51.53125 44.890625 
Q 49.859375 40.875 45.40625 35.40625 
Q 44.1875 33.984375 37.640625 27.21875 
Q 31.109375 20.453125 19.1875 8.296875 
z
" id="DejaVuSans-50"/>
       <path d="M 31.78125 66.40625 
Q 24.171875 66.40625 20.328125 58.90625 
Q 16.5 51.421875 16.5 36.375 
Q 16.5 21.390625 20.328125 13.890625 
Q 24.171875 6.390625 31.78125 6.390625 
Q 39.453125 6.390625 43.28125 13.890625 
Q 47.125 21.390625 47.125 36.375 
Q 47.125 51.421875 43.28125 58.90625 
Q 39.453125 66.40625 31.78125 66.40625 
z
M 31.78125 74.21875 
Q 44.046875 74.21875 50.515625 64.515625 
Q 56.984375 54.828125 56.984375 36.375 
Q 56.984375 17.96875 50.515625 8.265625 
Q 44.046875 -1.421875 31.78125 -1.421875 
Q 19.53125 -1.421875 13.0625 8.265625 
Q 6.59375 17.96875 6.59375 36.375 
Q 6.59375 54.828125 13.0625 64.515625 
Q 19.53125 74.21875 31.78125 74.21875 
z
" id="DejaVuSans-48"/>
      </defs>
      <g transform="translate(106.089992 322.182437)scale(0.1 -0.1)">
       <use xlink:href="#DejaVuSans-50"/>
       <use x="63.623047" xlink:href="#DejaVuSans-48"/>
      </g>
     </g>
    </g>
    <g id="xtick_2">
     <g id="line2d_2">
      <g>
       <use style="stroke:#000000;stroke-width:0.8;" x="180.076252" xlink:href="#m027b17577a" y="307.584"/>
      </g>
     </g>
     <g id="text_2">
      <!-- 40 -->
      <defs>
       <path d="M 37.796875 64.3125 
L 12.890625 25.390625 
L 37.796875 25.390625 
z
M 35.203125 72.90625 
L 47.609375 72.90625 
L 47.609375 25.390625 
L 58.015625 25.390625 
L 58.015625 17.1875 
L 47.609375 17.1875 
L 47.609375 0 
L 37.796875 0 
L 37.796875 17.1875 
L 4.890625 17.1875 
L 4.890625 26.703125 
z
" id="DejaVuSans-52"/>
      </defs>
      <g transform="translate(173.713752 322.182437)scale(0.1 -0.1)">
       <use xlink:href="#DejaVuSans-52"/>
       <use x="63.623047" xlink:href="#DejaVuSans-48"/>
      </g>
     </g>
    </g>
    <g id="xtick_3">
     <g id="line2d_3">
      <g>
       <use style="stroke:#000000;stroke-width:0.8;" x="247.700012" xlink:href="#m027b17577a" y="307.584"/>
      </g>
     </g>
     <g id="text_3">
      <!-- 60 -->
      <defs>
       <path d="M 33.015625 40.375 
Q 26.375 40.375 22.484375 35.828125 
Q 18.609375 31.296875 18.609375 23.390625 
Q 18.609375 15.53125 22.484375 10.953125 
Q 26.375 6.390625 33.015625 6.390625 
Q 39.65625 6.390625 43.53125 10.953125 
Q 47.40625 15.53125 47.40625 23.390625 
Q 47.40625 31.296875 43.53125 35.828125 
Q 39.65625 40.375 33.015625 40.375 
z
M 52.59375 71.296875 
L 52.59375 62.3125 
Q 48.875 64.0625 45.09375 64.984375 
Q 41.3125 65.921875 37.59375 65.921875 
Q 27.828125 65.921875 22.671875 59.328125 
Q 17.53125 52.734375 16.796875 39.40625 
Q 19.671875 43.65625 24.015625 45.921875 
Q 28.375 48.1875 33.59375 48.1875 
Q 44.578125 48.1875 50.953125 41.515625 
Q 57.328125 34.859375 57.328125 23.390625 
Q 57.328125 12.15625 50.6875 5.359375 
Q 44.046875 -1.421875 33.015625 -1.421875 
Q 20.359375 -1.421875 13.671875 8.265625 
Q 6.984375 17.96875 6.984375 36.375 
Q 6.984375 53.65625 15.1875 63.9375 
Q 23.390625 74.21875 37.203125 74.21875 
Q 40.921875 74.21875 44.703125 73.484375 
Q 48.484375 72.75 52.59375 71.296875 
z
" id="DejaVuSans-54"/>
      </defs>
      <g transform="translate(241.337512 322.182437)scale(0.1 -0.1)">
       <use xlink:href="#DejaVuSans-54"/>
       <use x="63.623047" xlink:href="#DejaVuSans-48"/>
      </g>
     </g>
    </g>
    <g id="xtick_4">
     <g id="line2d_4">
      <g>
       <use style="stroke:#000000;stroke-width:0.8;" x="315.323772" xlink:href="#m027b17577a" y="307.584"/>
      </g>
     </g>
     <g id="text_4">
      <!-- 80 -->
      <defs>
       <path d="M 31.78125 34.625 
Q 24.75 34.625 20.71875 30.859375 
Q 16.703125 27.09375 16.703125 20.515625 
Q 16.703125 13.921875 20.71875 10.15625 
Q 24.75 6.390625 31.78125 6.390625 
Q 38.8125 6.390625 42.859375 10.171875 
Q 46.921875 13.96875 46.921875 20.515625 
Q 46.921875 27.09375 42.890625 30.859375 
Q 38.875 34.625 31.78125 34.625 
z
M 21.921875 38.8125 
Q 15.578125 40.375 12.03125 44.71875 
Q 8.5 49.078125 8.5 55.328125 
Q 8.5 64.0625 14.71875 69.140625 
Q 20.953125 74.21875 31.78125 74.21875 
Q 42.671875 74.21875 48.875 69.140625 
Q 55.078125 64.0625 55.078125 55.328125 
Q 55.078125 49.078125 51.53125 44.71875 
Q 48 40.375 41.703125 38.8125 
Q 48.828125 37.15625 52.796875 32.3125 
Q 56.78125 27.484375 56.78125 20.515625 
Q 56.78125 9.90625 50.3125 4.234375 
Q 43.84375 -1.421875 31.78125 -1.421875 
Q 19.734375 -1.421875 13.25 4.234375 
Q 6.78125 9.90625 6.78125 20.515625 
Q 6.78125 27.484375 10.78125 32.3125 
Q 14.796875 37.15625 21.921875 38.8125 
z
M 18.3125 54.390625 
Q 18.3125 48.734375 21.84375 45.5625 
Q 25.390625 42.390625 31.78125 42.390625 
Q 38.140625 42.390625 41.71875 45.5625 
Q 45.3125 48.734375 45.3125 54.390625 
Q 45.3125 60.0625 41.71875 63.234375 
Q 38.140625 66.40625 31.78125 66.40625 
Q 25.390625 66.40625 21.84375 63.234375 
Q 18.3125 60.0625 18.3125 54.390625 
z
" id="DejaVuSans-56"/>
      </defs>
      <g transform="translate(308.961272 322.182437)scale(0.1 -0.1)">
       <use xlink:href="#DejaVuSans-56"/>
       <use x="63.623047" xlink:href="#DejaVuSans-48"/>
      </g>
     </g>
    </g>
    <g id="xtick_5">
     <g id="line2d_5">
      <g>
       <use style="stroke:#000000;stroke-width:0.8;" x="382.947532" xlink:href="#m027b17577a" y="307.584"/>
      </g>
     </g>
     <g id="text_5">
      <!-- 100 -->
      <defs>
       <path d="M 12.40625 8.296875 
L 28.515625 8.296875 
L 28.515625 63.921875 
L 10.984375 60.40625 
L 10.984375 69.390625 
L 28.421875 72.90625 
L 38.28125 72.90625 
L 38.28125 8.296875 
L 54.390625 8.296875 
L 54.390625 0 
L 12.40625 0 
z
" id="DejaVuSans-49"/>
      </defs>
      <g transform="translate(373.403782 322.182437)scale(0.1 -0.1)">
       <use xlink:href="#DejaVuSans-49"/>
       <use x="63.623047" xlink:href="#DejaVuSans-48"/>
       <use x="127.246094" xlink:href="#DejaVuSans-48"/>
      </g>
     </g>
    </g>
    <g id="text_6">
     <!-- x values -->
     <defs>
      <path d="M 54.890625 54.6875 
L 35.109375 28.078125 
L 55.90625 0 
L 45.3125 0 
L 29.390625 21.484375 
L 13.484375 0 
L 2.875 0 
L 24.125 28.609375 
L 4.6875 54.6875 
L 15.28125 54.6875 
L 29.78125 35.203125 
L 44.28125 54.6875 
z
" id="DejaVuSans-120"/>
      <path id="DejaVuSans-32"/>
      <path d="M 2.984375 54.6875 
L 12.5 54.6875 
L 29.59375 8.796875 
L 46.6875 54.6875 
L 56.203125 54.6875 
L 35.6875 0 
L 23.484375 0 
z
" id="DejaVuSans-118"/>
      <path d="M 34.28125 27.484375 
Q 23.390625 27.484375 19.1875 25 
Q 14.984375 22.515625 14.984375 16.5 
Q 14.984375 11.71875 18.140625 8.90625 
Q 21.296875 6.109375 26.703125 6.109375 
Q 34.1875 6.109375 38.703125 11.40625 
Q 43.21875 16.703125 43.21875 25.484375 
L 43.21875 27.484375 
z
M 52.203125 31.203125 
L 52.203125 0 
L 43.21875 0 
L 43.21875 8.296875 
Q 40.140625 3.328125 35.546875 0.953125 
Q 30.953125 -1.421875 24.3125 -1.421875 
Q 15.921875 -1.421875 10.953125 3.296875 
Q 6 8.015625 6 15.921875 
Q 6 25.140625 12.171875 29.828125 
Q 18.359375 34.515625 30.609375 34.515625 
L 43.21875 34.515625 
L 43.21875 35.40625 
Q 43.21875 41.609375 39.140625 45 
Q 35.0625 48.390625 27.6875 48.390625 
Q 23 48.390625 18.546875 47.265625 
Q 14.109375 46.140625 10.015625 43.890625 
L 10.015625 52.203125 
Q 14.9375 54.109375 19.578125 55.046875 
Q 24.21875 56 28.609375 56 
Q 40.484375 56 46.34375 49.84375 
Q 52.203125 43.703125 52.203125 31.203125 
z
" id="DejaVuSans-97"/>
      <path d="M 9.421875 75.984375 
L 18.40625 75.984375 
L 18.40625 0 
L 9.421875 0 
z
" id="DejaVuSans-108"/>
      <path d="M 8.5 21.578125 
L 8.5 54.6875 
L 17.484375 54.6875 
L 17.484375 21.921875 
Q 17.484375 14.15625 20.5 10.265625 
Q 23.53125 6.390625 29.59375 6.390625 
Q 36.859375 6.390625 41.078125 11.03125 
Q 45.3125 15.671875 45.3125 23.6875 
L 45.3125 54.6875 
L 54.296875 54.6875 
L 54.296875 0 
L 45.3125 0 
L 45.3125 8.40625 
Q 42.046875 3.421875 37.71875 1 
Q 33.40625 -1.421875 27.6875 -1.421875 
Q 18.265625 -1.421875 13.375 4.4375 
Q 8.5 10.296875 8.5 21.578125 
z
M 31.109375 56 
z
" id="DejaVuSans-117"/>
      <path d="M 56.203125 29.59375 
L 56.203125 25.203125 
L 14.890625 25.203125 
Q 15.484375 15.921875 20.484375 11.0625 
Q 25.484375 6.203125 34.421875 6.203125 
Q 39.59375 6.203125 44.453125 7.46875 
Q 49.3125 8.734375 54.109375 11.28125 
L 54.109375 2.78125 
Q 49.265625 0.734375 44.1875 -0.34375 
Q 39.109375 -1.421875 33.890625 -1.421875 
Q 20.796875 -1.421875 13.15625 6.1875 
Q 5.515625 13.8125 5.515625 26.8125 
Q 5.515625 40.234375 12.765625 48.109375 
Q 20.015625 56 32.328125 56 
Q 43.359375 56 49.78125 48.890625 
Q 56.203125 41.796875 56.203125 29.59375 
z
M 47.21875 32.234375 
Q 47.125 39.59375 43.09375 43.984375 
Q 39.0625 48.390625 32.421875 48.390625 
Q 24.90625 48.390625 20.390625 44.140625 
Q 15.875 39.890625 15.1875 32.171875 
z
" id="DejaVuSans-101"/>
      <path d="M 44.28125 53.078125 
L 44.28125 44.578125 
Q 40.484375 46.53125 36.375 47.5 
Q 32.28125 48.484375 27.875 48.484375 
Q 21.1875 48.484375 17.84375 46.4375 
Q 14.5 44.390625 14.5 40.28125 
Q 14.5 37.15625 16.890625 35.375 
Q 19.28125 33.59375 26.515625 31.984375 
L 29.59375 31.296875 
Q 39.15625 29.25 43.1875 25.515625 
Q 47.21875 21.78125 47.21875 15.09375 
Q 47.21875 7.46875 41.1875 3.015625 
Q 35.15625 -1.421875 24.609375 -1.421875 
Q 20.21875 -1.421875 15.453125 -0.5625 
Q 10.6875 0.296875 5.421875 2 
L 5.421875 11.28125 
Q 10.40625 8.6875 15.234375 7.390625 
Q 20.0625 6.109375 24.8125 6.109375 
Q 31.15625 6.109375 34.5625 8.28125 
Q 37.984375 10.453125 37.984375 14.40625 
Q 37.984375 18.0625 35.515625 20.015625 
Q 33.0625 21.96875 24.703125 23.78125 
L 21.578125 24.515625 
Q 13.234375 26.265625 9.515625 29.90625 
Q 5.8125 33.546875 5.8125 39.890625 
Q 5.8125 47.609375 11.28125 51.796875 
Q 16.75 56 26.8125 56 
Q 31.78125 56 36.171875 55.265625 
Q 40.578125 54.546875 44.28125 53.078125 
z
" id="DejaVuSans-115"/>
     </defs>
     <g transform="translate(215.349063 335.860562)scale(0.1 -0.1)">
      <use xlink:href="#DejaVuSans-120"/>
      <use x="59.179688" xlink:href="#DejaVuSans-32"/>
      <use x="90.966797" xlink:href="#DejaVuSans-118"/>
      <use x="150.146484" xlink:href="#DejaVuSans-97"/>
      <use x="211.425781" xlink:href="#DejaVuSans-108"/>
      <use x="239.208984" xlink:href="#DejaVuSans-117"/>
      <use x="302.587891" xlink:href="#DejaVuSans-101"/>
      <use x="364.111328" xlink:href="#DejaVuSans-115"/>
     </g>
    </g>
   </g>
   <g id="matplotlib.axis_2">
    <g id="ytick_1">
     <g id="line2d_6">
      <defs>
       <path d="M 0 0 
L -3.5 0 
" id="m555cbfce82" style="stroke:#000000;stroke-width:0.8;"/>
      </defs>
      <g>
       <use style="stroke:#000000;stroke-width:0.8;" x="57.6" xlink:href="#m555cbfce82" y="288.121758"/>
      </g>
     </g>
     <g id="text_7">
      <!-- 0 -->
      <g transform="translate(44.2375 291.920977)scale(0.1 -0.1)">
       <use xlink:href="#DejaVuSans-48"/>
      </g>
     </g>
    </g>
    <g id="ytick_2">
     <g id="line2d_7">
      <g>
       <use style="stroke:#000000;stroke-width:0.8;" x="57.6" xlink:href="#m555cbfce82" y="239.187799"/>
      </g>
     </g>
     <g id="text_8">
      <!-- 100 -->
      <g transform="translate(31.5125 242.987018)scale(0.1 -0.1)">
       <use xlink:href="#DejaVuSans-49"/>
       <use x="63.623047" xlink:href="#DejaVuSans-48"/>
       <use x="127.246094" xlink:href="#DejaVuSans-48"/>
      </g>
     </g>
    </g>
    <g id="ytick_3">
     <g id="line2d_8">
      <g>
       <use style="stroke:#000000;stroke-width:0.8;" x="57.6" xlink:href="#m555cbfce82" y="190.253841"/>
      </g>
     </g>
     <g id="text_9">
      <!-- 200 -->
      <g transform="translate(31.5125 194.053059)scale(0.1 -0.1)">
       <use xlink:href="#DejaVuSans-50"/>
       <use x="63.623047" xlink:href="#DejaVuSans-48"/>
       <use x="127.246094" xlink:href="#DejaVuSans-48"/>
      </g>
     </g>
    </g>
    <g id="ytick_4">
     <g id="line2d_9">
      <g>
       <use style="stroke:#000000;stroke-width:0.8;" x="57.6" xlink:href="#m555cbfce82" y="141.319882"/>
      </g>
     </g>
     <g id="text_10">
      <!-- 300 -->
      <defs>
       <path d="M 40.578125 39.3125 
Q 47.65625 37.796875 51.625 33 
Q 55.609375 28.21875 55.609375 21.1875 
Q 55.609375 10.40625 48.1875 4.484375 
Q 40.765625 -1.421875 27.09375 -1.421875 
Q 22.515625 -1.421875 17.65625 -0.515625 
Q 12.796875 0.390625 7.625 2.203125 
L 7.625 11.71875 
Q 11.71875 9.328125 16.59375 8.109375 
Q 21.484375 6.890625 26.8125 6.890625 
Q 36.078125 6.890625 40.9375 10.546875 
Q 45.796875 14.203125 45.796875 21.1875 
Q 45.796875 27.640625 41.28125 31.265625 
Q 36.765625 34.90625 28.71875 34.90625 
L 20.21875 34.90625 
L 20.21875 43.015625 
L 29.109375 43.015625 
Q 36.375 43.015625 40.234375 45.921875 
Q 44.09375 48.828125 44.09375 54.296875 
Q 44.09375 59.90625 40.109375 62.90625 
Q 36.140625 65.921875 28.71875 65.921875 
Q 24.65625 65.921875 20.015625 65.03125 
Q 15.375 64.15625 9.8125 62.3125 
L 9.8125 71.09375 
Q 15.4375 72.65625 20.34375 73.4375 
Q 25.25 74.21875 29.59375 74.21875 
Q 40.828125 74.21875 47.359375 69.109375 
Q 53.90625 64.015625 53.90625 55.328125 
Q 53.90625 49.265625 50.4375 45.09375 
Q 46.96875 40.921875 40.578125 39.3125 
z
" id="DejaVuSans-51"/>
      </defs>
      <g transform="translate(31.5125 145.119101)scale(0.1 -0.1)">
       <use xlink:href="#DejaVuSans-51"/>
       <use x="63.623047" xlink:href="#DejaVuSans-48"/>
       <use x="127.246094" xlink:href="#DejaVuSans-48"/>
      </g>
     </g>
    </g>
    <g id="ytick_5">
     <g id="line2d_10">
      <g>
       <use style="stroke:#000000;stroke-width:0.8;" x="57.6" xlink:href="#m555cbfce82" y="92.385923"/>
      </g>
     </g>
     <g id="text_11">
      <!-- 400 -->
      <g transform="translate(31.5125 96.185142)scale(0.1 -0.1)">
       <use xlink:href="#DejaVuSans-52"/>
       <use x="63.623047" xlink:href="#DejaVuSans-48"/>
       <use x="127.246094" xlink:href="#DejaVuSans-48"/>
      </g>
     </g>
    </g>
    <g id="ytick_6">
     <g id="line2d_11">
      <g>
       <use style="stroke:#000000;stroke-width:0.8;" x="57.6" xlink:href="#m555cbfce82" y="43.451964"/>
      </g>
     </g>
     <g id="text_12">
      <!-- 500 -->
      <defs>
       <path d="M 10.796875 72.90625 
L 49.515625 72.90625 
L 49.515625 64.59375 
L 19.828125 64.59375 
L 19.828125 46.734375 
Q 21.96875 47.46875 24.109375 47.828125 
Q 26.265625 48.1875 28.421875 48.1875 
Q 40.625 48.1875 47.75 41.5 
Q 54.890625 34.8125 54.890625 23.390625 
Q 54.890625 11.625 47.5625 5.09375 
Q 40.234375 -1.421875 26.90625 -1.421875 
Q 22.3125 -1.421875 17.546875 -0.640625 
Q 12.796875 0.140625 7.71875 1.703125 
L 7.71875 11.625 
Q 12.109375 9.234375 16.796875 8.0625 
Q 21.484375 6.890625 26.703125 6.890625 
Q 35.15625 6.890625 40.078125 11.328125 
Q 45.015625 15.765625 45.015625 23.390625 
Q 45.015625 31 40.078125 35.4375 
Q 35.15625 39.890625 26.703125 39.890625 
Q 22.75 39.890625 18.8125 39.015625 
Q 14.890625 38.140625 10.796875 36.28125 
z
" id="DejaVuSans-53"/>
      </defs>
      <g transform="translate(31.5125 47.251183)scale(0.1 -0.1)">
       <use xlink:href="#DejaVuSans-53"/>
       <use x="63.623047" xlink:href="#DejaVuSans-48"/>
       <use x="127.246094" xlink:href="#DejaVuSans-48"/>
      </g>
     </g>
    </g>
    <g id="text_13">
     <!-- y values -->
     <defs>
      <path d="M 32.171875 -5.078125 
Q 28.375 -14.84375 24.75 -17.8125 
Q 21.140625 -20.796875 15.09375 -20.796875 
L 7.90625 -20.796875 
L 7.90625 -13.28125 
L 13.1875 -13.28125 
Q 16.890625 -13.28125 18.9375 -11.515625 
Q 21 -9.765625 23.484375 -3.21875 
L 25.09375 0.875 
L 2.984375 54.6875 
L 12.5 54.6875 
L 29.59375 11.921875 
L 46.6875 54.6875 
L 56.203125 54.6875 
z
" id="DejaVuSans-121"/>
     </defs>
     <g transform="translate(25.432812 195.338937)rotate(-90)scale(0.1 -0.1)">
      <use xlink:href="#DejaVuSans-121"/>
      <use x="59.179688" xlink:href="#DejaVuSans-32"/>
      <use x="90.966797" xlink:href="#DejaVuSans-118"/>
      <use x="150.146484" xlink:href="#DejaVuSans-97"/>
      <use x="211.425781" xlink:href="#DejaVuSans-108"/>
      <use x="239.208984" xlink:href="#DejaVuSans-117"/>
      <use x="302.587891" xlink:href="#DejaVuSans-101"/>
      <use x="364.111328" xlink:href="#DejaVuSans-115"/>
     </g>
    </g>
   </g>
   <g id="line2d_12">
    <defs>
     <path d="M 0 1 
C 0.265203 1 0.51958 0.894634 0.707107 0.707107 
C 0.894634 0.51958 1 0.265203 1 0 
C 1 -0.265203 0.894634 -0.51958 0.707107 -0.707107 
C 0.51958 -0.894634 0.265203 -1 0 -1 
C -0.265203 -1 -0.51958 -0.894634 -0.707107 -0.707107 
C -0.894634 -0.51958 -1 -0.265203 -1 0 
C -1 0.265203 -0.894634 0.51958 -0.707107 0.707107 
C -0.51958 0.894634 -0.265203 1 0 1 
z
" id="me5ec48e935" style="stroke:#ff0000;"/>
    </defs>
    <g clip-path="url(#p5b620aa4d5)">
     <use style="fill:#ff0000;stroke:#ff0000;" x="73.832727" xlink:href="#me5ec48e935" y="89.227505"/>
     <use style="fill:#ff0000;stroke:#ff0000;" x="75.315168" xlink:href="#me5ec48e935" y="92.41928"/>
     <use style="fill:#ff0000;stroke:#ff0000;" x="76.797609" xlink:href="#me5ec48e935" y="77.713055"/>
     <use style="fill:#ff0000;stroke:#ff0000;" x="78.28005" xlink:href="#me5ec48e935" y="55.689575"/>
     <use style="fill:#ff0000;stroke:#ff0000;" x="79.762491" xlink:href="#me5ec48e935" y="53.568"/>
     <use style="fill:#ff0000;stroke:#ff0000;" x="81.244932" xlink:href="#me5ec48e935" y="72.985226"/>
     <use style="fill:#ff0000;stroke:#ff0000;" x="82.727372" xlink:href="#me5ec48e935" y="62.399129"/>
     <use style="fill:#ff0000;stroke:#ff0000;" x="84.209813" xlink:href="#me5ec48e935" y="62.784152"/>
     <use style="fill:#ff0000;stroke:#ff0000;" x="85.692254" xlink:href="#me5ec48e935" y="127.694089"/>
     <use style="fill:#ff0000;stroke:#ff0000;" x="87.174695" xlink:href="#me5ec48e935" y="65.437538"/>
     <use style="fill:#ff0000;stroke:#ff0000;" x="88.657136" xlink:href="#me5ec48e935" y="94.546565"/>
     <use style="fill:#ff0000;stroke:#ff0000;" x="90.139577" xlink:href="#me5ec48e935" y="78.103823"/>
     <use style="fill:#ff0000;stroke:#ff0000;" x="91.622017" xlink:href="#me5ec48e935" y="64.260919"/>
     <use style="fill:#ff0000;stroke:#ff0000;" x="93.104458" xlink:href="#me5ec48e935" y="109.936131"/>
     <use style="fill:#ff0000;stroke:#ff0000;" x="94.586899" xlink:href="#me5ec48e935" y="93.994139"/>
     <use style="fill:#ff0000;stroke:#ff0000;" x="96.06934" xlink:href="#me5ec48e935" y="101.226368"/>
     <use style="fill:#ff0000;stroke:#ff0000;" x="97.551781" xlink:href="#me5ec48e935" y="87.790289"/>
     <use style="fill:#ff0000;stroke:#ff0000;" x="99.034222" xlink:href="#me5ec48e935" y="96.765562"/>
     <use style="fill:#ff0000;stroke:#ff0000;" x="100.516663" xlink:href="#me5ec48e935" y="103.772692"/>
     <use style="fill:#ff0000;stroke:#ff0000;" x="101.999103" xlink:href="#me5ec48e935" y="77.513643"/>
     <use style="fill:#ff0000;stroke:#ff0000;" x="103.481544" xlink:href="#me5ec48e935" y="114.394473"/>
     <use style="fill:#ff0000;stroke:#ff0000;" x="104.963985" xlink:href="#me5ec48e935" y="135.832417"/>
     <use style="fill:#ff0000;stroke:#ff0000;" x="106.446426" xlink:href="#me5ec48e935" y="96.933454"/>
     <use style="fill:#ff0000;stroke:#ff0000;" x="107.928867" xlink:href="#me5ec48e935" y="136.915722"/>
     <use style="fill:#ff0000;stroke:#ff0000;" x="109.411308" xlink:href="#me5ec48e935" y="143.31859"/>
     <use style="fill:#ff0000;stroke:#ff0000;" x="110.893748" xlink:href="#me5ec48e935" y="107.605757"/>
     <use style="fill:#ff0000;stroke:#ff0000;" x="112.376189" xlink:href="#me5ec48e935" y="140.099552"/>
     <use style="fill:#ff0000;stroke:#ff0000;" x="113.85863" xlink:href="#me5ec48e935" y="96.278137"/>
     <use style="fill:#ff0000;stroke:#ff0000;" x="115.341071" xlink:href="#me5ec48e935" y="139.650806"/>
     <use style="fill:#ff0000;stroke:#ff0000;" x="116.823512" xlink:href="#me5ec48e935" y="136.475107"/>
     <use style="fill:#ff0000;stroke:#ff0000;" x="118.305953" xlink:href="#me5ec48e935" y="148.848723"/>
     <use style="fill:#ff0000;stroke:#ff0000;" x="119.788394" xlink:href="#me5ec48e935" y="103.608802"/>
     <use style="fill:#ff0000;stroke:#ff0000;" x="121.270834" xlink:href="#me5ec48e935" y="109.140222"/>
     <use style="fill:#ff0000;stroke:#ff0000;" x="122.753275" xlink:href="#me5ec48e935" y="144.330607"/>
     <use style="fill:#ff0000;stroke:#ff0000;" x="124.235716" xlink:href="#me5ec48e935" y="133.224486"/>
     <use style="fill:#ff0000;stroke:#ff0000;" x="125.718157" xlink:href="#me5ec48e935" y="146.462127"/>
     <use style="fill:#ff0000;stroke:#ff0000;" x="127.200598" xlink:href="#me5ec48e935" y="132.205262"/>
     <use style="fill:#ff0000;stroke:#ff0000;" x="128.683039" xlink:href="#me5ec48e935" y="129.65007"/>
     <use style="fill:#ff0000;stroke:#ff0000;" x="130.165479" xlink:href="#me5ec48e935" y="132.07262"/>
     <use style="fill:#ff0000;stroke:#ff0000;" x="131.64792" xlink:href="#me5ec48e935" y="158.878271"/>
     <use style="fill:#ff0000;stroke:#ff0000;" x="133.130361" xlink:href="#me5ec48e935" y="171.127677"/>
     <use style="fill:#ff0000;stroke:#ff0000;" x="134.612802" xlink:href="#me5ec48e935" y="125.110215"/>
     <use style="fill:#ff0000;stroke:#ff0000;" x="136.095243" xlink:href="#me5ec48e935" y="168.349097"/>
     <use style="fill:#ff0000;stroke:#ff0000;" x="137.577684" xlink:href="#me5ec48e935" y="161.498828"/>
     <use style="fill:#ff0000;stroke:#ff0000;" x="139.060125" xlink:href="#me5ec48e935" y="141.065794"/>
     <use style="fill:#ff0000;stroke:#ff0000;" x="140.542565" xlink:href="#me5ec48e935" y="130.029796"/>
     <use style="fill:#ff0000;stroke:#ff0000;" x="142.025006" xlink:href="#me5ec48e935" y="193.334758"/>
     <use style="fill:#ff0000;stroke:#ff0000;" x="143.507447" xlink:href="#me5ec48e935" y="154.725679"/>
     <use style="fill:#ff0000;stroke:#ff0000;" x="144.989888" xlink:href="#me5ec48e935" y="151.197489"/>
     <use style="fill:#ff0000;stroke:#ff0000;" x="146.472329" xlink:href="#me5ec48e935" y="141.720992"/>
     <use style="fill:#ff0000;stroke:#ff0000;" x="147.95477" xlink:href="#me5ec48e935" y="166.292161"/>
     <use style="fill:#ff0000;stroke:#ff0000;" x="149.43721" xlink:href="#me5ec48e935" y="188.226854"/>
     <use style="fill:#ff0000;stroke:#ff0000;" x="150.919651" xlink:href="#me5ec48e935" y="172.774131"/>
     <use style="fill:#ff0000;stroke:#ff0000;" x="152.402092" xlink:href="#me5ec48e935" y="158.674519"/>
     <use style="fill:#ff0000;stroke:#ff0000;" x="153.884533" xlink:href="#me5ec48e935" y="179.017601"/>
     <use style="fill:#ff0000;stroke:#ff0000;" x="155.366974" xlink:href="#me5ec48e935" y="163.727733"/>
     <use style="fill:#ff0000;stroke:#ff0000;" x="156.849415" xlink:href="#me5ec48e935" y="165.97835"/>
     <use style="fill:#ff0000;stroke:#ff0000;" x="158.331856" xlink:href="#me5ec48e935" y="162.526512"/>
     <use style="fill:#ff0000;stroke:#ff0000;" x="159.814296" xlink:href="#me5ec48e935" y="192.564299"/>
     <use style="fill:#ff0000;stroke:#ff0000;" x="161.296737" xlink:href="#me5ec48e935" y="186.624317"/>
     <use style="fill:#ff0000;stroke:#ff0000;" x="162.779178" xlink:href="#me5ec48e935" y="188.552482"/>
     <use style="fill:#ff0000;stroke:#ff0000;" x="164.261619" xlink:href="#me5ec48e935" y="190.589042"/>
     <use style="fill:#ff0000;stroke:#ff0000;" x="165.74406" xlink:href="#me5ec48e935" y="187.889272"/>
     <use style="fill:#ff0000;stroke:#ff0000;" x="167.226501" xlink:href="#me5ec48e935" y="195.227886"/>
     <use style="fill:#ff0000;stroke:#ff0000;" x="168.708941" xlink:href="#me5ec48e935" y="194.080734"/>
     <use style="fill:#ff0000;stroke:#ff0000;" x="170.191382" xlink:href="#me5ec48e935" y="185.804274"/>
     <use style="fill:#ff0000;stroke:#ff0000;" x="171.673823" xlink:href="#me5ec48e935" y="192.800645"/>
     <use style="fill:#ff0000;stroke:#ff0000;" x="173.156264" xlink:href="#me5ec48e935" y="178.401344"/>
     <use style="fill:#ff0000;stroke:#ff0000;" x="174.638705" xlink:href="#me5ec48e935" y="187.041883"/>
     <use style="fill:#ff0000;stroke:#ff0000;" x="176.121146" xlink:href="#me5ec48e935" y="174.600129"/>
     <use style="fill:#ff0000;stroke:#ff0000;" x="177.603587" xlink:href="#me5ec48e935" y="192.371547"/>
     <use style="fill:#ff0000;stroke:#ff0000;" x="179.086027" xlink:href="#me5ec48e935" y="189.180687"/>
     <use style="fill:#ff0000;stroke:#ff0000;" x="180.568468" xlink:href="#me5ec48e935" y="200.078309"/>
     <use style="fill:#ff0000;stroke:#ff0000;" x="182.050909" xlink:href="#me5ec48e935" y="212.55931"/>
     <use style="fill:#ff0000;stroke:#ff0000;" x="183.53335" xlink:href="#me5ec48e935" y="187.177488"/>
     <use style="fill:#ff0000;stroke:#ff0000;" x="185.015791" xlink:href="#me5ec48e935" y="211.881792"/>
     <use style="fill:#ff0000;stroke:#ff0000;" x="186.498232" xlink:href="#me5ec48e935" y="190.731779"/>
     <use style="fill:#ff0000;stroke:#ff0000;" x="187.980672" xlink:href="#me5ec48e935" y="205.076996"/>
     <use style="fill:#ff0000;stroke:#ff0000;" x="189.463113" xlink:href="#me5ec48e935" y="210.890686"/>
     <use style="fill:#ff0000;stroke:#ff0000;" x="190.945554" xlink:href="#me5ec48e935" y="222.824976"/>
     <use style="fill:#ff0000;stroke:#ff0000;" x="192.427995" xlink:href="#me5ec48e935" y="213.597477"/>
     <use style="fill:#ff0000;stroke:#ff0000;" x="193.910436" xlink:href="#me5ec48e935" y="225.956703"/>
     <use style="fill:#ff0000;stroke:#ff0000;" x="195.392877" xlink:href="#me5ec48e935" y="213.172303"/>
     <use style="fill:#ff0000;stroke:#ff0000;" x="196.875318" xlink:href="#me5ec48e935" y="228.229723"/>
     <use style="fill:#ff0000;stroke:#ff0000;" x="198.357758" xlink:href="#me5ec48e935" y="203.090301"/>
     <use style="fill:#ff0000;stroke:#ff0000;" x="199.840199" xlink:href="#me5ec48e935" y="222.976487"/>
     <use style="fill:#ff0000;stroke:#ff0000;" x="201.32264" xlink:href="#me5ec48e935" y="212.37615"/>
     <use style="fill:#ff0000;stroke:#ff0000;" x="202.805081" xlink:href="#me5ec48e935" y="223.383625"/>
     <use style="fill:#ff0000;stroke:#ff0000;" x="204.287522" xlink:href="#me5ec48e935" y="226.109637"/>
     <use style="fill:#ff0000;stroke:#ff0000;" x="205.769963" xlink:href="#me5ec48e935" y="243.200217"/>
     <use style="fill:#ff0000;stroke:#ff0000;" x="207.252403" xlink:href="#me5ec48e935" y="228.371363"/>
     <use style="fill:#ff0000;stroke:#ff0000;" x="208.734844" xlink:href="#me5ec48e935" y="228.84638"/>
     <use style="fill:#ff0000;stroke:#ff0000;" x="210.217285" xlink:href="#me5ec48e935" y="243.085803"/>
     <use style="fill:#ff0000;stroke:#ff0000;" x="211.699726" xlink:href="#me5ec48e935" y="238.843378"/>
     <use style="fill:#ff0000;stroke:#ff0000;" x="213.182167" xlink:href="#me5ec48e935" y="242.266814"/>
     <use style="fill:#ff0000;stroke:#ff0000;" x="214.664608" xlink:href="#me5ec48e935" y="228.372511"/>
     <use style="fill:#ff0000;stroke:#ff0000;" x="216.147049" xlink:href="#me5ec48e935" y="232.881962"/>
     <use style="fill:#ff0000;stroke:#ff0000;" x="217.629489" xlink:href="#me5ec48e935" y="252.496615"/>
     <use style="fill:#ff0000;stroke:#ff0000;" x="219.11193" xlink:href="#me5ec48e935" y="222.540925"/>
     <use style="fill:#ff0000;stroke:#ff0000;" x="220.594371" xlink:href="#me5ec48e935" y="246.449351"/>
     <use style="fill:#ff0000;stroke:#ff0000;" x="222.076812" xlink:href="#me5ec48e935" y="242.008513"/>
     <use style="fill:#ff0000;stroke:#ff0000;" x="223.559253" xlink:href="#me5ec48e935" y="234.617884"/>
     <use style="fill:#ff0000;stroke:#ff0000;" x="225.041694" xlink:href="#me5ec48e935" y="241.428689"/>
     <use style="fill:#ff0000;stroke:#ff0000;" x="226.524134" xlink:href="#me5ec48e935" y="221.238323"/>
     <use style="fill:#ff0000;stroke:#ff0000;" x="228.006575" xlink:href="#me5ec48e935" y="260.466418"/>
     <use style="fill:#ff0000;stroke:#ff0000;" x="229.489016" xlink:href="#me5ec48e935" y="238.846668"/>
     <use style="fill:#ff0000;stroke:#ff0000;" x="230.971457" xlink:href="#me5ec48e935" y="232.475743"/>
     <use style="fill:#ff0000;stroke:#ff0000;" x="232.453898" xlink:href="#me5ec48e935" y="237.961239"/>
     <use style="fill:#ff0000;stroke:#ff0000;" x="233.936339" xlink:href="#me5ec48e935" y="254.498312"/>
     <use style="fill:#ff0000;stroke:#ff0000;" x="235.41878" xlink:href="#me5ec48e935" y="240.658864"/>
     <use style="fill:#ff0000;stroke:#ff0000;" x="236.90122" xlink:href="#me5ec48e935" y="235.591727"/>
     <use style="fill:#ff0000;stroke:#ff0000;" x="238.383661" xlink:href="#me5ec48e935" y="252.716204"/>
     <use style="fill:#ff0000;stroke:#ff0000;" x="239.866102" xlink:href="#me5ec48e935" y="263.27493"/>
     <use style="fill:#ff0000;stroke:#ff0000;" x="241.348543" xlink:href="#me5ec48e935" y="243.186817"/>
     <use style="fill:#ff0000;stroke:#ff0000;" x="242.830984" xlink:href="#me5ec48e935" y="253.145254"/>
     <use style="fill:#ff0000;stroke:#ff0000;" x="244.313425" xlink:href="#me5ec48e935" y="249.550785"/>
     <use style="fill:#ff0000;stroke:#ff0000;" x="245.795866" xlink:href="#me5ec48e935" y="256.612732"/>
     <use style="fill:#ff0000;stroke:#ff0000;" x="247.278306" xlink:href="#me5ec48e935" y="244.421341"/>
     <use style="fill:#ff0000;stroke:#ff0000;" x="248.760747" xlink:href="#me5ec48e935" y="260.266046"/>
     <use style="fill:#ff0000;stroke:#ff0000;" x="250.243188" xlink:href="#me5ec48e935" y="261.248649"/>
     <use style="fill:#ff0000;stroke:#ff0000;" x="251.725629" xlink:href="#me5ec48e935" y="266.091144"/>
     <use style="fill:#ff0000;stroke:#ff0000;" x="253.20807" xlink:href="#me5ec48e935" y="258.993182"/>
     <use style="fill:#ff0000;stroke:#ff0000;" x="254.690511" xlink:href="#me5ec48e935" y="251.898675"/>
     <use style="fill:#ff0000;stroke:#ff0000;" x="256.172951" xlink:href="#me5ec48e935" y="266.651767"/>
     <use style="fill:#ff0000;stroke:#ff0000;" x="257.655392" xlink:href="#me5ec48e935" y="254.636684"/>
     <use style="fill:#ff0000;stroke:#ff0000;" x="259.137833" xlink:href="#me5ec48e935" y="253.617365"/>
     <use style="fill:#ff0000;stroke:#ff0000;" x="260.620274" xlink:href="#me5ec48e935" y="269.770758"/>
     <use style="fill:#ff0000;stroke:#ff0000;" x="262.102715" xlink:href="#me5ec48e935" y="266.352809"/>
     <use style="fill:#ff0000;stroke:#ff0000;" x="263.585156" xlink:href="#me5ec48e935" y="266.338106"/>
     <use style="fill:#ff0000;stroke:#ff0000;" x="265.067597" xlink:href="#me5ec48e935" y="252.26593"/>
     <use style="fill:#ff0000;stroke:#ff0000;" x="266.550037" xlink:href="#me5ec48e935" y="259.553714"/>
     <use style="fill:#ff0000;stroke:#ff0000;" x="268.032478" xlink:href="#me5ec48e935" y="262.634057"/>
     <use style="fill:#ff0000;stroke:#ff0000;" x="269.514919" xlink:href="#me5ec48e935" y="259.433214"/>
     <use style="fill:#ff0000;stroke:#ff0000;" x="270.99736" xlink:href="#me5ec48e935" y="254.903807"/>
     <use style="fill:#ff0000;stroke:#ff0000;" x="272.479801" xlink:href="#me5ec48e935" y="258.016969"/>
     <use style="fill:#ff0000;stroke:#ff0000;" x="273.962242" xlink:href="#me5ec48e935" y="265.027585"/>
     <use style="fill:#ff0000;stroke:#ff0000;" x="275.444682" xlink:href="#me5ec48e935" y="275.936779"/>
     <use style="fill:#ff0000;stroke:#ff0000;" x="276.927123" xlink:href="#me5ec48e935" y="263.443121"/>
     <use style="fill:#ff0000;stroke:#ff0000;" x="278.409564" xlink:href="#me5ec48e935" y="268.241215"/>
     <use style="fill:#ff0000;stroke:#ff0000;" x="279.892005" xlink:href="#me5ec48e935" y="262.817326"/>
     <use style="fill:#ff0000;stroke:#ff0000;" x="281.374446" xlink:href="#me5ec48e935" y="260.219769"/>
     <use style="fill:#ff0000;stroke:#ff0000;" x="282.856887" xlink:href="#me5ec48e935" y="265.543976"/>
     <use style="fill:#ff0000;stroke:#ff0000;" x="284.339328" xlink:href="#me5ec48e935" y="260.813584"/>
     <use style="fill:#ff0000;stroke:#ff0000;" x="285.821768" xlink:href="#me5ec48e935" y="265.115713"/>
     <use style="fill:#ff0000;stroke:#ff0000;" x="287.304209" xlink:href="#me5ec48e935" y="270.293119"/>
     <use style="fill:#ff0000;stroke:#ff0000;" x="288.78665" xlink:href="#me5ec48e935" y="260.759669"/>
     <use style="fill:#ff0000;stroke:#ff0000;" x="290.269091" xlink:href="#me5ec48e935" y="270.684963"/>
     <use style="fill:#ff0000;stroke:#ff0000;" x="291.751532" xlink:href="#me5ec48e935" y="283.780019"/>
     <use style="fill:#ff0000;stroke:#ff0000;" x="293.233973" xlink:href="#me5ec48e935" y="267.336412"/>
     <use style="fill:#ff0000;stroke:#ff0000;" x="294.716413" xlink:href="#me5ec48e935" y="281.516322"/>
     <use style="fill:#ff0000;stroke:#ff0000;" x="296.198854" xlink:href="#me5ec48e935" y="286.996558"/>
     <use style="fill:#ff0000;stroke:#ff0000;" x="297.681295" xlink:href="#me5ec48e935" y="281.367114"/>
     <use style="fill:#ff0000;stroke:#ff0000;" x="299.163736" xlink:href="#me5ec48e935" y="268.271079"/>
     <use style="fill:#ff0000;stroke:#ff0000;" x="300.646177" xlink:href="#me5ec48e935" y="264.275993"/>
     <use style="fill:#ff0000;stroke:#ff0000;" x="302.128618" xlink:href="#me5ec48e935" y="272.540087"/>
     <use style="fill:#ff0000;stroke:#ff0000;" x="303.611059" xlink:href="#me5ec48e935" y="281.299651"/>
     <use style="fill:#ff0000;stroke:#ff0000;" x="305.093499" xlink:href="#me5ec48e935" y="264.12753"/>
     <use style="fill:#ff0000;stroke:#ff0000;" x="306.57594" xlink:href="#me5ec48e935" y="286.260033"/>
     <use style="fill:#ff0000;stroke:#ff0000;" x="308.058381" xlink:href="#me5ec48e935" y="270.444942"/>
     <use style="fill:#ff0000;stroke:#ff0000;" x="309.540822" xlink:href="#me5ec48e935" y="283.928977"/>
     <use style="fill:#ff0000;stroke:#ff0000;" x="311.023263" xlink:href="#me5ec48e935" y="266.260773"/>
     <use style="fill:#ff0000;stroke:#ff0000;" x="312.505704" xlink:href="#me5ec48e935" y="277.049753"/>
     <use style="fill:#ff0000;stroke:#ff0000;" x="313.988144" xlink:href="#me5ec48e935" y="280.821437"/>
     <use style="fill:#ff0000;stroke:#ff0000;" x="315.470585" xlink:href="#me5ec48e935" y="272.249506"/>
     <use style="fill:#ff0000;stroke:#ff0000;" x="316.953026" xlink:href="#me5ec48e935" y="270.09689"/>
     <use style="fill:#ff0000;stroke:#ff0000;" x="318.435467" xlink:href="#me5ec48e935" y="292.44488"/>
     <use style="fill:#ff0000;stroke:#ff0000;" x="319.917908" xlink:href="#me5ec48e935" y="271.869202"/>
     <use style="fill:#ff0000;stroke:#ff0000;" x="321.400349" xlink:href="#me5ec48e935" y="283.683214"/>
     <use style="fill:#ff0000;stroke:#ff0000;" x="322.88279" xlink:href="#me5ec48e935" y="291.793663"/>
     <use style="fill:#ff0000;stroke:#ff0000;" x="324.36523" xlink:href="#me5ec48e935" y="274.546204"/>
     <use style="fill:#ff0000;stroke:#ff0000;" x="325.847671" xlink:href="#me5ec48e935" y="290.064512"/>
     <use style="fill:#ff0000;stroke:#ff0000;" x="327.330112" xlink:href="#me5ec48e935" y="277.416544"/>
     <use style="fill:#ff0000;stroke:#ff0000;" x="328.812553" xlink:href="#me5ec48e935" y="289.991266"/>
     <use style="fill:#ff0000;stroke:#ff0000;" x="330.294994" xlink:href="#me5ec48e935" y="291.685727"/>
     <use style="fill:#ff0000;stroke:#ff0000;" x="331.777435" xlink:href="#me5ec48e935" y="283.435094"/>
     <use style="fill:#ff0000;stroke:#ff0000;" x="333.259875" xlink:href="#me5ec48e935" y="284.413934"/>
     <use style="fill:#ff0000;stroke:#ff0000;" x="334.742316" xlink:href="#me5ec48e935" y="286.138654"/>
     <use style="fill:#ff0000;stroke:#ff0000;" x="336.224757" xlink:href="#me5ec48e935" y="278.897737"/>
     <use style="fill:#ff0000;stroke:#ff0000;" x="337.707198" xlink:href="#me5ec48e935" y="280.954842"/>
     <use style="fill:#ff0000;stroke:#ff0000;" x="339.189639" xlink:href="#me5ec48e935" y="272.985194"/>
     <use style="fill:#ff0000;stroke:#ff0000;" x="340.67208" xlink:href="#me5ec48e935" y="292.496811"/>
     <use style="fill:#ff0000;stroke:#ff0000;" x="342.154521" xlink:href="#me5ec48e935" y="289.046025"/>
     <use style="fill:#ff0000;stroke:#ff0000;" x="343.636961" xlink:href="#me5ec48e935" y="273.211314"/>
     <use style="fill:#ff0000;stroke:#ff0000;" x="345.119402" xlink:href="#me5ec48e935" y="278.410762"/>
     <use style="fill:#ff0000;stroke:#ff0000;" x="346.601843" xlink:href="#me5ec48e935" y="280.285457"/>
     <use style="fill:#ff0000;stroke:#ff0000;" x="348.084284" xlink:href="#me5ec48e935" y="293.266079"/>
     <use style="fill:#ff0000;stroke:#ff0000;" x="349.566725" xlink:href="#me5ec48e935" y="291.147652"/>
     <use style="fill:#ff0000;stroke:#ff0000;" x="351.049166" xlink:href="#me5ec48e935" y="295.488"/>
     <use style="fill:#ff0000;stroke:#ff0000;" x="352.531606" xlink:href="#me5ec48e935" y="280.2889"/>
     <use style="fill:#ff0000;stroke:#ff0000;" x="354.014047" xlink:href="#me5ec48e935" y="288.467698"/>
     <use style="fill:#ff0000;stroke:#ff0000;" x="355.496488" xlink:href="#me5ec48e935" y="275.969347"/>
     <use style="fill:#ff0000;stroke:#ff0000;" x="356.978929" xlink:href="#me5ec48e935" y="291.475766"/>
     <use style="fill:#ff0000;stroke:#ff0000;" x="358.46137" xlink:href="#me5ec48e935" y="285.753822"/>
     <use style="fill:#ff0000;stroke:#ff0000;" x="359.943811" xlink:href="#me5ec48e935" y="273.682542"/>
     <use style="fill:#ff0000;stroke:#ff0000;" x="361.426252" xlink:href="#me5ec48e935" y="283.897059"/>
     <use style="fill:#ff0000;stroke:#ff0000;" x="362.908692" xlink:href="#me5ec48e935" y="293.496859"/>
     <use style="fill:#ff0000;stroke:#ff0000;" x="364.391133" xlink:href="#me5ec48e935" y="282.899259"/>
     <use style="fill:#ff0000;stroke:#ff0000;" x="365.873574" xlink:href="#me5ec48e935" y="280.21096"/>
     <use style="fill:#ff0000;stroke:#ff0000;" x="367.356015" xlink:href="#me5ec48e935" y="272.703229"/>
     <use style="fill:#ff0000;stroke:#ff0000;" x="368.838456" xlink:href="#me5ec48e935" y="273.484891"/>
     <use style="fill:#ff0000;stroke:#ff0000;" x="370.320897" xlink:href="#me5ec48e935" y="289.219756"/>
     <use style="fill:#ff0000;stroke:#ff0000;" x="371.803337" xlink:href="#me5ec48e935" y="290.515298"/>
     <use style="fill:#ff0000;stroke:#ff0000;" x="373.285778" xlink:href="#me5ec48e935" y="271.405677"/>
     <use style="fill:#ff0000;stroke:#ff0000;" x="374.768219" xlink:href="#me5ec48e935" y="284.369711"/>
     <use style="fill:#ff0000;stroke:#ff0000;" x="376.25066" xlink:href="#me5ec48e935" y="276.292727"/>
     <use style="fill:#ff0000;stroke:#ff0000;" x="377.733101" xlink:href="#me5ec48e935" y="270.32717"/>
     <use style="fill:#ff0000;stroke:#ff0000;" x="379.215542" xlink:href="#me5ec48e935" y="279.578857"/>
     <use style="fill:#ff0000;stroke:#ff0000;" x="380.697983" xlink:href="#me5ec48e935" y="292.97946"/>
     <use style="fill:#ff0000;stroke:#ff0000;" x="382.180423" xlink:href="#me5ec48e935" y="293.964009"/>
     <use style="fill:#ff0000;stroke:#ff0000;" x="383.662864" xlink:href="#me5ec48e935" y="269.956524"/>
     <use style="fill:#ff0000;stroke:#ff0000;" x="385.145305" xlink:href="#me5ec48e935" y="288.880163"/>
     <use style="fill:#ff0000;stroke:#ff0000;" x="386.627746" xlink:href="#me5ec48e935" y="279.502664"/>
     <use style="fill:#ff0000;stroke:#ff0000;" x="388.110187" xlink:href="#me5ec48e935" y="288.688456"/>
     <use style="fill:#ff0000;stroke:#ff0000;" x="389.592628" xlink:href="#me5ec48e935" y="287.320299"/>
     <use style="fill:#ff0000;stroke:#ff0000;" x="391.075068" xlink:href="#me5ec48e935" y="278.783272"/>
     <use style="fill:#ff0000;stroke:#ff0000;" x="392.557509" xlink:href="#me5ec48e935" y="290.198015"/>
     <use style="fill:#ff0000;stroke:#ff0000;" x="394.03995" xlink:href="#me5ec48e935" y="270.98995"/>
     <use style="fill:#ff0000;stroke:#ff0000;" x="395.522391" xlink:href="#me5ec48e935" y="270.067016"/>
     <use style="fill:#ff0000;stroke:#ff0000;" x="397.004832" xlink:href="#me5ec48e935" y="285.333544"/>
     <use style="fill:#ff0000;stroke:#ff0000;" x="398.487273" xlink:href="#me5ec48e935" y="283.817657"/>
    </g>
   </g>
   <g id="line2d_13">
    <path clip-path="url(#p5b620aa4d5)" d="M 73.832727 64.304015 
L 82.727372 78.105818 
L 91.622017 91.459991 
L 100.516663 104.366532 
L 109.411308 116.825442 
L 118.305953 128.836721 
L 125.718157 138.50418 
L 133.130361 147.860784 
L 140.542565 156.906533 
L 147.95477 165.641427 
L 155.366974 174.065467 
L 162.779178 182.178651 
L 170.191382 189.98098 
L 177.603587 197.472455 
L 185.015791 204.653074 
L 192.427995 211.522839 
L 199.840199 218.081749 
L 207.252403 224.329804 
L 214.664608 230.267004 
L 222.076812 235.893349 
L 229.489016 241.208839 
L 236.90122 246.213474 
L 244.313425 250.907254 
L 251.725629 255.290179 
L 259.137833 259.36225 
L 266.550037 263.123466 
L 272.479801 265.908622 
L 278.409564 268.494832 
L 284.339328 270.882095 
L 290.269091 273.07041 
L 296.198854 275.059779 
L 302.128618 276.8502 
L 308.058381 278.441674 
L 313.988144 279.834201 
L 319.917908 281.02778 
L 325.847671 282.022413 
L 331.777435 282.818099 
L 337.707198 283.414837 
L 343.636961 283.812628 
L 349.566725 284.011472 
L 355.496488 284.011369 
L 361.426252 283.812319 
L 367.356015 283.414321 
L 373.285778 282.817377 
L 379.215542 282.021485 
L 385.145305 281.026646 
L 391.075068 279.83286 
L 397.004832 278.440127 
L 398.487273 278.060859 
L 398.487273 278.060859 
" style="fill:none;stroke:#008000;stroke-linecap:square;stroke-width:1.5;"/>
   </g>
   <g id="patch_3">
    <path d="M 57.6 307.584 
L 57.6 41.472 
" style="fill:none;stroke:#000000;stroke-linecap:square;stroke-linejoin:miter;stroke-width:0.8;"/>
   </g>
   <g id="patch_4">
    <path d="M 414.72 307.584 
L 414.72 41.472 
" style="fill:none;stroke:#000000;stroke-linecap:square;stroke-linejoin:miter;stroke-width:0.8;"/>
   </g>
   <g id="patch_5">
    <path d="M 57.6 307.584 
L 414.72 307.584 
" style="fill:none;stroke:#000000;stroke-linecap:square;stroke-linejoin:miter;stroke-width:0.8;"/>
   </g>
   <g id="patch_6">
    <path d="M 57.6 41.472 
L 414.72 41.472 
" style="fill:none;stroke:#000000;stroke-linecap:square;stroke-linejoin:miter;stroke-width:0.8;"/>
   </g>
   <g id="text_14">
    <!-- FunctionFitting 46 -->
    <defs>
     <path d="M 9.8125 72.90625 
L 51.703125 72.90625 
L 51.703125 64.59375 
L 19.671875 64.59375 
L 19.671875 43.109375 
L 48.578125 43.109375 
L 48.578125 34.8125 
L 19.671875 34.8125 
L 19.671875 0 
L 9.8125 0 
z
" id="DejaVuSans-70"/>
     <path d="M 54.890625 33.015625 
L 54.890625 0 
L 45.90625 0 
L 45.90625 32.71875 
Q 45.90625 40.484375 42.875 44.328125 
Q 39.84375 48.1875 33.796875 48.1875 
Q 26.515625 48.1875 22.3125 43.546875 
Q 18.109375 38.921875 18.109375 30.90625 
L 18.109375 0 
L 9.078125 0 
L 9.078125 54.6875 
L 18.109375 54.6875 
L 18.109375 46.1875 
Q 21.34375 51.125 25.703125 53.5625 
Q 30.078125 56 35.796875 56 
Q 45.21875 56 50.046875 50.171875 
Q 54.890625 44.34375 54.890625 33.015625 
z
" id="DejaVuSans-110"/>
     <path d="M 48.78125 52.59375 
L 48.78125 44.1875 
Q 44.96875 46.296875 41.140625 47.34375 
Q 37.3125 48.390625 33.40625 48.390625 
Q 24.65625 48.390625 19.8125 42.84375 
Q 14.984375 37.3125 14.984375 27.296875 
Q 14.984375 17.28125 19.8125 11.734375 
Q 24.65625 6.203125 33.40625 6.203125 
Q 37.3125 6.203125 41.140625 7.25 
Q 44.96875 8.296875 48.78125 10.40625 
L 48.78125 2.09375 
Q 45.015625 0.34375 40.984375 -0.53125 
Q 36.96875 -1.421875 32.421875 -1.421875 
Q 20.0625 -1.421875 12.78125 6.34375 
Q 5.515625 14.109375 5.515625 27.296875 
Q 5.515625 40.671875 12.859375 48.328125 
Q 20.21875 56 33.015625 56 
Q 37.15625 56 41.109375 55.140625 
Q 45.0625 54.296875 48.78125 52.59375 
z
" id="DejaVuSans-99"/>
     <path d="M 18.3125 70.21875 
L 18.3125 54.6875 
L 36.8125 54.6875 
L 36.8125 47.703125 
L 18.3125 47.703125 
L 18.3125 18.015625 
Q 18.3125 11.328125 20.140625 9.421875 
Q 21.96875 7.515625 27.59375 7.515625 
L 36.8125 7.515625 
L 36.8125 0 
L 27.59375 0 
Q 17.1875 0 13.234375 3.875 
Q 9.28125 7.765625 9.28125 18.015625 
L 9.28125 47.703125 
L 2.6875 47.703125 
L 2.6875 54.6875 
L 9.28125 54.6875 
L 9.28125 70.21875 
z
" id="DejaVuSans-116"/>
     <path d="M 9.421875 54.6875 
L 18.40625 54.6875 
L 18.40625 0 
L 9.421875 0 
z
M 9.421875 75.984375 
L 18.40625 75.984375 
L 18.40625 64.59375 
L 9.421875 64.59375 
z
" id="DejaVuSans-105"/>
     <path d="M 30.609375 48.390625 
Q 23.390625 48.390625 19.1875 42.75 
Q 14.984375 37.109375 14.984375 27.296875 
Q 14.984375 17.484375 19.15625 11.84375 
Q 23.34375 6.203125 30.609375 6.203125 
Q 37.796875 6.203125 41.984375 11.859375 
Q 46.1875 17.53125 46.1875 27.296875 
Q 46.1875 37.015625 41.984375 42.703125 
Q 37.796875 48.390625 30.609375 48.390625 
z
M 30.609375 56 
Q 42.328125 56 49.015625 48.375 
Q 55.71875 40.765625 55.71875 27.296875 
Q 55.71875 13.875 49.015625 6.21875 
Q 42.328125 -1.421875 30.609375 -1.421875 
Q 18.84375 -1.421875 12.171875 6.21875 
Q 5.515625 13.875 5.515625 27.296875 
Q 5.515625 40.765625 12.171875 48.375 
Q 18.84375 56 30.609375 56 
z
" id="DejaVuSans-111"/>
     <path d="M 45.40625 27.984375 
Q 45.40625 37.75 41.375 43.109375 
Q 37.359375 48.484375 30.078125 48.484375 
Q 22.859375 48.484375 18.828125 43.109375 
Q 14.796875 37.75 14.796875 27.984375 
Q 14.796875 18.265625 18.828125 12.890625 
Q 22.859375 7.515625 30.078125 7.515625 
Q 37.359375 7.515625 41.375 12.890625 
Q 45.40625 18.265625 45.40625 27.984375 
z
M 54.390625 6.78125 
Q 54.390625 -7.171875 48.1875 -13.984375 
Q 42 -20.796875 29.203125 -20.796875 
Q 24.46875 -20.796875 20.265625 -20.09375 
Q 16.0625 -19.390625 12.109375 -17.921875 
L 12.109375 -9.1875 
Q 16.0625 -11.328125 19.921875 -12.34375 
Q 23.78125 -13.375 27.78125 -13.375 
Q 36.625 -13.375 41.015625 -8.765625 
Q 45.40625 -4.15625 45.40625 5.171875 
L 45.40625 9.625 
Q 42.625 4.78125 38.28125 2.390625 
Q 33.9375 0 27.875 0 
Q 17.828125 0 11.671875 7.65625 
Q 5.515625 15.328125 5.515625 27.984375 
Q 5.515625 40.671875 11.671875 48.328125 
Q 17.828125 56 27.875 56 
Q 33.9375 56 38.28125 53.609375 
Q 42.625 51.21875 45.40625 46.390625 
L 45.40625 54.6875 
L 54.390625 54.6875 
z
" id="DejaVuSans-103"/>
    </defs>
    <g transform="translate(181.680937 35.472)scale(0.12 -0.12)">
     <use xlink:href="#DejaVuSans-70"/>
     <use x="57.441406" xlink:href="#DejaVuSans-117"/>
     <use x="120.820312" xlink:href="#DejaVuSans-110"/>
     <use x="184.199219" xlink:href="#DejaVuSans-99"/>
     <use x="239.179688" xlink:href="#DejaVuSans-116"/>
     <use x="278.388672" xlink:href="#DejaVuSans-105"/>
     <use x="306.171875" xlink:href="#DejaVuSans-111"/>
     <use x="367.353516" xlink:href="#DejaVuSans-110"/>
     <use x="430.732422" xlink:href="#DejaVuSans-70"/>
     <use x="488.142578" xlink:href="#DejaVuSans-105"/>
     <use x="515.925781" xlink:href="#DejaVuSans-116"/>
     <use x="555.134766" xlink:href="#DejaVuSans-116"/>
     <use x="594.34375" xlink:href="#DejaVuSans-105"/>
     <use x="622.126953" xlink:href="#DejaVuSans-110"/>
     <use x="685.505859" xlink:href="#DejaVuSans-103"/>
     <use x="748.982422" xlink:href="#DejaVuSans-32"/>
     <use x="780.769531" xlink:href="#DejaVuSans-52"/>
     <use x="844.392578" xlink:href="#DejaVuSans-54"/>
    </g>
   </g>
   <g id="legend_1">
    <g id="patch_7">
     <path d="M 299.83875 78.82825 
L 407.72 78.82825 
Q 409.72 78.82825 409.72 76.82825 
L 409.72 48.472 
Q 409.72 46.472 407.72 46.472 
L 299.83875 46.472 
Q 297.83875 46.472 297.83875 48.472 
L 297.83875 76.82825 
Q 297.83875 78.82825 299.83875 78.82825 
z
" style="fill:#ffffff;opacity:0.8;stroke:#cccccc;stroke-linejoin:miter;"/>
    </g>
    <g id="line2d_14"/>
    <g id="line2d_15">
     <g>
      <use style="fill:#ff0000;stroke:#ff0000;" x="311.83875" xlink:href="#me5ec48e935" y="54.570437"/>
     </g>
    </g>
    <g id="text_15">
     <!-- measured data -->
     <defs>
      <path d="M 52 44.1875 
Q 55.375 50.25 60.0625 53.125 
Q 64.75 56 71.09375 56 
Q 79.640625 56 84.28125 50.015625 
Q 88.921875 44.046875 88.921875 33.015625 
L 88.921875 0 
L 79.890625 0 
L 79.890625 32.71875 
Q 79.890625 40.578125 77.09375 44.375 
Q 74.3125 48.1875 68.609375 48.1875 
Q 61.625 48.1875 57.5625 43.546875 
Q 53.515625 38.921875 53.515625 30.90625 
L 53.515625 0 
L 44.484375 0 
L 44.484375 32.71875 
Q 44.484375 40.625 41.703125 44.40625 
Q 38.921875 48.1875 33.109375 48.1875 
Q 26.21875 48.1875 22.15625 43.53125 
Q 18.109375 38.875 18.109375 30.90625 
L 18.109375 0 
L 9.078125 0 
L 9.078125 54.6875 
L 18.109375 54.6875 
L 18.109375 46.1875 
Q 21.1875 51.21875 25.484375 53.609375 
Q 29.78125 56 35.6875 56 
Q 41.65625 56 45.828125 52.96875 
Q 50 49.953125 52 44.1875 
z
" id="DejaVuSans-109"/>
      <path d="M 41.109375 46.296875 
Q 39.59375 47.171875 37.8125 47.578125 
Q 36.03125 48 33.890625 48 
Q 26.265625 48 22.1875 43.046875 
Q 18.109375 38.09375 18.109375 28.8125 
L 18.109375 0 
L 9.078125 0 
L 9.078125 54.6875 
L 18.109375 54.6875 
L 18.109375 46.1875 
Q 20.953125 51.171875 25.484375 53.578125 
Q 30.03125 56 36.53125 56 
Q 37.453125 56 38.578125 55.875 
Q 39.703125 55.765625 41.0625 55.515625 
z
" id="DejaVuSans-114"/>
      <path d="M 45.40625 46.390625 
L 45.40625 75.984375 
L 54.390625 75.984375 
L 54.390625 0 
L 45.40625 0 
L 45.40625 8.203125 
Q 42.578125 3.328125 38.25 0.953125 
Q 33.9375 -1.421875 27.875 -1.421875 
Q 17.96875 -1.421875 11.734375 6.484375 
Q 5.515625 14.40625 5.515625 27.296875 
Q 5.515625 40.1875 11.734375 48.09375 
Q 17.96875 56 27.875 56 
Q 33.9375 56 38.25 53.625 
Q 42.578125 51.265625 45.40625 46.390625 
z
M 14.796875 27.296875 
Q 14.796875 17.390625 18.875 11.75 
Q 22.953125 6.109375 30.078125 6.109375 
Q 37.203125 6.109375 41.296875 11.75 
Q 45.40625 17.390625 45.40625 27.296875 
Q 45.40625 37.203125 41.296875 42.84375 
Q 37.203125 48.484375 30.078125 48.484375 
Q 22.953125 48.484375 18.875 42.84375 
Q 14.796875 37.203125 14.796875 27.296875 
z
" id="DejaVuSans-100"/>
     </defs>
     <g transform="translate(329.83875 58.070437)scale(0.1 -0.1)">
      <use xlink:href="#DejaVuSans-109"/>
      <use x="97.412109" xlink:href="#DejaVuSans-101"/>
      <use x="158.935547" xlink:href="#DejaVuSans-97"/>
      <use x="220.214844" xlink:href="#DejaVuSans-115"/>
      <use x="272.314453" xlink:href="#DejaVuSans-117"/>
      <use x="335.693359" xlink:href="#DejaVuSans-114"/>
      <use x="376.775391" xlink:href="#DejaVuSans-101"/>
      <use x="438.298828" xlink:href="#DejaVuSans-100"/>
      <use x="501.775391" xlink:href="#DejaVuSans-32"/>
      <use x="533.5625" xlink:href="#DejaVuSans-100"/>
      <use x="597.039062" xlink:href="#DejaVuSans-97"/>
      <use x="658.318359" xlink:href="#DejaVuSans-116"/>
      <use x="697.527344" xlink:href="#DejaVuSans-97"/>
     </g>
    </g>
    <g id="line2d_16">
     <path d="M 301.83875 69.248562 
L 321.83875 69.248562 
" style="fill:none;stroke:#008000;stroke-linecap:square;stroke-width:1.5;"/>
    </g>
    <g id="line2d_17"/>
    <g id="text_16">
     <!-- linear data -->
     <g transform="translate(329.83875 72.748562)scale(0.1 -0.1)">
      <use xlink:href="#DejaVuSans-108"/>
      <use x="27.783203" xlink:href="#DejaVuSans-105"/>
      <use x="55.566406" xlink:href="#DejaVuSans-110"/>
      <use x="118.945312" xlink:href="#DejaVuSans-101"/>
      <use x="180.46875" xlink:href="#DejaVuSans-97"/>
      <use x="241.748047" xlink:href="#DejaVuSans-114"/>
      <use x="282.861328" xlink:href="#DejaVuSans-32"/>
      <use x="314.648438" xlink:href="#DejaVuSans-100"/>
      <use x="378.125" xlink:href="#DejaVuSans-97"/>
      <use x="439.404297" xlink:href="#DejaVuSans-116"/>
      <use x="478.613281" xlink:href="#DejaVuSans-97"/>
     </g>
    </g>
   </g>
  </g>
 </g>
 <defs>
  <clipPath id="p5b620aa4d5">
   <rect height="266.112" width="357.12" x="57.6" y="41.472"/>
  </clipPath>
 </defs>
</svg>
