<?xml version="1.0" encoding="utf-8" standalone="no"?>
<!DOCTYPE svg PUBLIC "-//W3C//DTD SVG 1.1//EN"
  "http://www.w3.org/Graphics/SVG/1.1/DTD/svg11.dtd">
<!-- Created with matplotlib (https://matplotlib.org/) -->
<svg height="345.6pt" version="1.1" viewBox="0 0 460.8 345.6" width="460.8pt" xmlns="http://www.w3.org/2000/svg" xmlns:xlink="http://www.w3.org/1999/xlink">
 <defs>
  <style type="text/css">
*{stroke-linecap:butt;stroke-linejoin:round;}
  </style>
 </defs>
 <g id="figure_1">
  <g id="patch_1">
   <path d="M 0 345.6 
L 460.8 345.6 
L 460.8 0 
L 0 0 
z
" style="fill:#ffffff;"/>
  </g>
  <g id="axes_1">
   <g id="patch_2">
    <path d="M 57.6 307.584 
L 414.72 307.584 
L 414.72 41.472 
L 57.6 41.472 
z
" style="fill:#ffffff;"/>
   </g>
   <g id="matplotlib.axis_1">
    <g id="xtick_1">
     <g id="line2d_1">
      <defs>
       <path d="M 0 0 
L 0 3.5 
" id="m56a3d71585" style="stroke:#000000;stroke-width:0.8;"/>
      </defs>
      <g>
       <use style="stroke:#000000;stroke-width:0.8;" x="119.176993" xlink:href="#m56a3d71585" y="307.584"/>
      </g>
     </g>
     <g id="text_1">
      <!-- 20 -->
      <defs>
       <path d="M 19.1875 8.296875 
L 53.609375 8.296875 
L 53.609375 0 
L 7.328125 0 
L 7.328125 8.296875 
Q 12.9375 14.109375 22.625 23.890625 
Q 32.328125 33.6875 34.8125 36.53125 
Q 39.546875 41.84375 41.421875 45.53125 
Q 43.3125 49.21875 43.3125 52.78125 
Q 43.3125 58.59375 39.234375 62.25 
Q 35.15625 65.921875 28.609375 65.921875 
Q 23.96875 65.921875 18.8125 64.3125 
Q 13.671875 62.703125 7.8125 59.421875 
L 7.8125 69.390625 
Q 13.765625 71.78125 18.9375 73 
Q 24.125 74.21875 28.421875 74.21875 
Q 39.75 74.21875 46.484375 68.546875 
Q 53.21875 62.890625 53.21875 53.421875 
Q 53.21875 48.921875 51.53125 44.890625 
Q 49.859375 40.875 45.40625 35.40625 
Q 44.1875 33.984375 37.640625 27.21875 
Q 31.109375 20.453125 19.1875 8.296875 
z
" id="DejaVuSans-50"/>
       <path d="M 31.78125 66.40625 
Q 24.171875 66.40625 20.328125 58.90625 
Q 16.5 51.421875 16.5 36.375 
Q 16.5 21.390625 20.328125 13.890625 
Q 24.171875 6.390625 31.78125 6.390625 
Q 39.453125 6.390625 43.28125 13.890625 
Q 47.125 21.390625 47.125 36.375 
Q 47.125 51.421875 43.28125 58.90625 
Q 39.453125 66.40625 31.78125 66.40625 
z
M 31.78125 74.21875 
Q 44.046875 74.21875 50.515625 64.515625 
Q 56.984375 54.828125 56.984375 36.375 
Q 56.984375 17.96875 50.515625 8.265625 
Q 44.046875 -1.421875 31.78125 -1.421875 
Q 19.53125 -1.421875 13.0625 8.265625 
Q 6.59375 17.96875 6.59375 36.375 
Q 6.59375 54.828125 13.0625 64.515625 
Q 19.53125 74.21875 31.78125 74.21875 
z
" id="DejaVuSans-48"/>
      </defs>
      <g transform="translate(112.814493 322.182437)scale(0.1 -0.1)">
       <use xlink:href="#DejaVuSans-50"/>
       <use x="63.623047" xlink:href="#DejaVuSans-48"/>
      </g>
     </g>
    </g>
    <g id="xtick_2">
     <g id="line2d_2">
      <g>
       <use style="stroke:#000000;stroke-width:0.8;" x="181.286012" xlink:href="#m56a3d71585" y="307.584"/>
      </g>
     </g>
     <g id="text_2">
      <!-- 40 -->
      <defs>
       <path d="M 37.796875 64.3125 
L 12.890625 25.390625 
L 37.796875 25.390625 
z
M 35.203125 72.90625 
L 47.609375 72.90625 
L 47.609375 25.390625 
L 58.015625 25.390625 
L 58.015625 17.1875 
L 47.609375 17.1875 
L 47.609375 0 
L 37.796875 0 
L 37.796875 17.1875 
L 4.890625 17.1875 
L 4.890625 26.703125 
z
" id="DejaVuSans-52"/>
      </defs>
      <g transform="translate(174.923512 322.182437)scale(0.1 -0.1)">
       <use xlink:href="#DejaVuSans-52"/>
       <use x="63.623047" xlink:href="#DejaVuSans-48"/>
      </g>
     </g>
    </g>
    <g id="xtick_3">
     <g id="line2d_3">
      <g>
       <use style="stroke:#000000;stroke-width:0.8;" x="243.39503" xlink:href="#m56a3d71585" y="307.584"/>
      </g>
     </g>
     <g id="text_3">
      <!-- 60 -->
      <defs>
       <path d="M 33.015625 40.375 
Q 26.375 40.375 22.484375 35.828125 
Q 18.609375 31.296875 18.609375 23.390625 
Q 18.609375 15.53125 22.484375 10.953125 
Q 26.375 6.390625 33.015625 6.390625 
Q 39.65625 6.390625 43.53125 10.953125 
Q 47.40625 15.53125 47.40625 23.390625 
Q 47.40625 31.296875 43.53125 35.828125 
Q 39.65625 40.375 33.015625 40.375 
z
M 52.59375 71.296875 
L 52.59375 62.3125 
Q 48.875 64.0625 45.09375 64.984375 
Q 41.3125 65.921875 37.59375 65.921875 
Q 27.828125 65.921875 22.671875 59.328125 
Q 17.53125 52.734375 16.796875 39.40625 
Q 19.671875 43.65625 24.015625 45.921875 
Q 28.375 48.1875 33.59375 48.1875 
Q 44.578125 48.1875 50.953125 41.515625 
Q 57.328125 34.859375 57.328125 23.390625 
Q 57.328125 12.15625 50.6875 5.359375 
Q 44.046875 -1.421875 33.015625 -1.421875 
Q 20.359375 -1.421875 13.671875 8.265625 
Q 6.984375 17.96875 6.984375 36.375 
Q 6.984375 53.65625 15.1875 63.9375 
Q 23.390625 74.21875 37.203125 74.21875 
Q 40.921875 74.21875 44.703125 73.484375 
Q 48.484375 72.75 52.59375 71.296875 
z
" id="DejaVuSans-54"/>
      </defs>
      <g transform="translate(237.03253 322.182437)scale(0.1 -0.1)">
       <use xlink:href="#DejaVuSans-54"/>
       <use x="63.623047" xlink:href="#DejaVuSans-48"/>
      </g>
     </g>
    </g>
    <g id="xtick_4">
     <g id="line2d_4">
      <g>
       <use style="stroke:#000000;stroke-width:0.8;" x="305.504049" xlink:href="#m56a3d71585" y="307.584"/>
      </g>
     </g>
     <g id="text_4">
      <!-- 80 -->
      <defs>
       <path d="M 31.78125 34.625 
Q 24.75 34.625 20.71875 30.859375 
Q 16.703125 27.09375 16.703125 20.515625 
Q 16.703125 13.921875 20.71875 10.15625 
Q 24.75 6.390625 31.78125 6.390625 
Q 38.8125 6.390625 42.859375 10.171875 
Q 46.921875 13.96875 46.921875 20.515625 
Q 46.921875 27.09375 42.890625 30.859375 
Q 38.875 34.625 31.78125 34.625 
z
M 21.921875 38.8125 
Q 15.578125 40.375 12.03125 44.71875 
Q 8.5 49.078125 8.5 55.328125 
Q 8.5 64.0625 14.71875 69.140625 
Q 20.953125 74.21875 31.78125 74.21875 
Q 42.671875 74.21875 48.875 69.140625 
Q 55.078125 64.0625 55.078125 55.328125 
Q 55.078125 49.078125 51.53125 44.71875 
Q 48 40.375 41.703125 38.8125 
Q 48.828125 37.15625 52.796875 32.3125 
Q 56.78125 27.484375 56.78125 20.515625 
Q 56.78125 9.90625 50.3125 4.234375 
Q 43.84375 -1.421875 31.78125 -1.421875 
Q 19.734375 -1.421875 13.25 4.234375 
Q 6.78125 9.90625 6.78125 20.515625 
Q 6.78125 27.484375 10.78125 32.3125 
Q 14.796875 37.15625 21.921875 38.8125 
z
M 18.3125 54.390625 
Q 18.3125 48.734375 21.84375 45.5625 
Q 25.390625 42.390625 31.78125 42.390625 
Q 38.140625 42.390625 41.71875 45.5625 
Q 45.3125 48.734375 45.3125 54.390625 
Q 45.3125 60.0625 41.71875 63.234375 
Q 38.140625 66.40625 31.78125 66.40625 
Q 25.390625 66.40625 21.84375 63.234375 
Q 18.3125 60.0625 18.3125 54.390625 
z
" id="DejaVuSans-56"/>
      </defs>
      <g transform="translate(299.141549 322.182437)scale(0.1 -0.1)">
       <use xlink:href="#DejaVuSans-56"/>
       <use x="63.623047" xlink:href="#DejaVuSans-48"/>
      </g>
     </g>
    </g>
    <g id="xtick_5">
     <g id="line2d_5">
      <g>
       <use style="stroke:#000000;stroke-width:0.8;" x="367.613068" xlink:href="#m56a3d71585" y="307.584"/>
      </g>
     </g>
     <g id="text_5">
      <!-- 100 -->
      <defs>
       <path d="M 12.40625 8.296875 
L 28.515625 8.296875 
L 28.515625 63.921875 
L 10.984375 60.40625 
L 10.984375 69.390625 
L 28.421875 72.90625 
L 38.28125 72.90625 
L 38.28125 8.296875 
L 54.390625 8.296875 
L 54.390625 0 
L 12.40625 0 
z
" id="DejaVuSans-49"/>
      </defs>
      <g transform="translate(358.069318 322.182437)scale(0.1 -0.1)">
       <use xlink:href="#DejaVuSans-49"/>
       <use x="63.623047" xlink:href="#DejaVuSans-48"/>
       <use x="127.246094" xlink:href="#DejaVuSans-48"/>
      </g>
     </g>
    </g>
    <g id="text_6">
     <!-- x values -->
     <defs>
      <path d="M 54.890625 54.6875 
L 35.109375 28.078125 
L 55.90625 0 
L 45.3125 0 
L 29.390625 21.484375 
L 13.484375 0 
L 2.875 0 
L 24.125 28.609375 
L 4.6875 54.6875 
L 15.28125 54.6875 
L 29.78125 35.203125 
L 44.28125 54.6875 
z
" id="DejaVuSans-120"/>
      <path id="DejaVuSans-32"/>
      <path d="M 2.984375 54.6875 
L 12.5 54.6875 
L 29.59375 8.796875 
L 46.6875 54.6875 
L 56.203125 54.6875 
L 35.6875 0 
L 23.484375 0 
z
" id="DejaVuSans-118"/>
      <path d="M 34.28125 27.484375 
Q 23.390625 27.484375 19.1875 25 
Q 14.984375 22.515625 14.984375 16.5 
Q 14.984375 11.71875 18.140625 8.90625 
Q 21.296875 6.109375 26.703125 6.109375 
Q 34.1875 6.109375 38.703125 11.40625 
Q 43.21875 16.703125 43.21875 25.484375 
L 43.21875 27.484375 
z
M 52.203125 31.203125 
L 52.203125 0 
L 43.21875 0 
L 43.21875 8.296875 
Q 40.140625 3.328125 35.546875 0.953125 
Q 30.953125 -1.421875 24.3125 -1.421875 
Q 15.921875 -1.421875 10.953125 3.296875 
Q 6 8.015625 6 15.921875 
Q 6 25.140625 12.171875 29.828125 
Q 18.359375 34.515625 30.609375 34.515625 
L 43.21875 34.515625 
L 43.21875 35.40625 
Q 43.21875 41.609375 39.140625 45 
Q 35.0625 48.390625 27.6875 48.390625 
Q 23 48.390625 18.546875 47.265625 
Q 14.109375 46.140625 10.015625 43.890625 
L 10.015625 52.203125 
Q 14.9375 54.109375 19.578125 55.046875 
Q 24.21875 56 28.609375 56 
Q 40.484375 56 46.34375 49.84375 
Q 52.203125 43.703125 52.203125 31.203125 
z
" id="DejaVuSans-97"/>
      <path d="M 9.421875 75.984375 
L 18.40625 75.984375 
L 18.40625 0 
L 9.421875 0 
z
" id="DejaVuSans-108"/>
      <path d="M 8.5 21.578125 
L 8.5 54.6875 
L 17.484375 54.6875 
L 17.484375 21.921875 
Q 17.484375 14.15625 20.5 10.265625 
Q 23.53125 6.390625 29.59375 6.390625 
Q 36.859375 6.390625 41.078125 11.03125 
Q 45.3125 15.671875 45.3125 23.6875 
L 45.3125 54.6875 
L 54.296875 54.6875 
L 54.296875 0 
L 45.3125 0 
L 45.3125 8.40625 
Q 42.046875 3.421875 37.71875 1 
Q 33.40625 -1.421875 27.6875 -1.421875 
Q 18.265625 -1.421875 13.375 4.4375 
Q 8.5 10.296875 8.5 21.578125 
z
M 31.109375 56 
z
" id="DejaVuSans-117"/>
      <path d="M 56.203125 29.59375 
L 56.203125 25.203125 
L 14.890625 25.203125 
Q 15.484375 15.921875 20.484375 11.0625 
Q 25.484375 6.203125 34.421875 6.203125 
Q 39.59375 6.203125 44.453125 7.46875 
Q 49.3125 8.734375 54.109375 11.28125 
L 54.109375 2.78125 
Q 49.265625 0.734375 44.1875 -0.34375 
Q 39.109375 -1.421875 33.890625 -1.421875 
Q 20.796875 -1.421875 13.15625 6.1875 
Q 5.515625 13.8125 5.515625 26.8125 
Q 5.515625 40.234375 12.765625 48.109375 
Q 20.015625 56 32.328125 56 
Q 43.359375 56 49.78125 48.890625 
Q 56.203125 41.796875 56.203125 29.59375 
z
M 47.21875 32.234375 
Q 47.125 39.59375 43.09375 43.984375 
Q 39.0625 48.390625 32.421875 48.390625 
Q 24.90625 48.390625 20.390625 44.140625 
Q 15.875 39.890625 15.1875 32.171875 
z
" id="DejaVuSans-101"/>
      <path d="M 44.28125 53.078125 
L 44.28125 44.578125 
Q 40.484375 46.53125 36.375 47.5 
Q 32.28125 48.484375 27.875 48.484375 
Q 21.1875 48.484375 17.84375 46.4375 
Q 14.5 44.390625 14.5 40.28125 
Q 14.5 37.15625 16.890625 35.375 
Q 19.28125 33.59375 26.515625 31.984375 
L 29.59375 31.296875 
Q 39.15625 29.25 43.1875 25.515625 
Q 47.21875 21.78125 47.21875 15.09375 
Q 47.21875 7.46875 41.1875 3.015625 
Q 35.15625 -1.421875 24.609375 -1.421875 
Q 20.21875 -1.421875 15.453125 -0.5625 
Q 10.6875 0.296875 5.421875 2 
L 5.421875 11.28125 
Q 10.40625 8.6875 15.234375 7.390625 
Q 20.0625 6.109375 24.8125 6.109375 
Q 31.15625 6.109375 34.5625 8.28125 
Q 37.984375 10.453125 37.984375 14.40625 
Q 37.984375 18.0625 35.515625 20.015625 
Q 33.0625 21.96875 24.703125 23.78125 
L 21.578125 24.515625 
Q 13.234375 26.265625 9.515625 29.90625 
Q 5.8125 33.546875 5.8125 39.890625 
Q 5.8125 47.609375 11.28125 51.796875 
Q 16.75 56 26.8125 56 
Q 31.78125 56 36.171875 55.265625 
Q 40.578125 54.546875 44.28125 53.078125 
z
" id="DejaVuSans-115"/>
     </defs>
     <g transform="translate(215.349063 335.860562)scale(0.1 -0.1)">
      <use xlink:href="#DejaVuSans-120"/>
      <use x="59.179688" xlink:href="#DejaVuSans-32"/>
      <use x="90.966797" xlink:href="#DejaVuSans-118"/>
      <use x="150.146484" xlink:href="#DejaVuSans-97"/>
      <use x="211.425781" xlink:href="#DejaVuSans-108"/>
      <use x="239.208984" xlink:href="#DejaVuSans-117"/>
      <use x="302.587891" xlink:href="#DejaVuSans-101"/>
      <use x="364.111328" xlink:href="#DejaVuSans-115"/>
     </g>
    </g>
   </g>
   <g id="matplotlib.axis_2">
    <g id="ytick_1">
     <g id="line2d_6">
      <defs>
       <path d="M 0 0 
L -3.5 0 
" id="m58f4659abc" style="stroke:#000000;stroke-width:0.8;"/>
      </defs>
      <g>
       <use style="stroke:#000000;stroke-width:0.8;" x="57.6" xlink:href="#m58f4659abc" y="295.263747"/>
      </g>
     </g>
     <g id="text_7">
      <!-- 0 -->
      <g transform="translate(44.2375 299.062965)scale(0.1 -0.1)">
       <use xlink:href="#DejaVuSans-48"/>
      </g>
     </g>
    </g>
    <g id="ytick_2">
     <g id="line2d_7">
      <g>
       <use style="stroke:#000000;stroke-width:0.8;" x="57.6" xlink:href="#m58f4659abc" y="260.985483"/>
      </g>
     </g>
     <g id="text_8">
      <!-- 1000 -->
      <g transform="translate(25.15 264.784702)scale(0.1 -0.1)">
       <use xlink:href="#DejaVuSans-49"/>
       <use x="63.623047" xlink:href="#DejaVuSans-48"/>
       <use x="127.246094" xlink:href="#DejaVuSans-48"/>
       <use x="190.869141" xlink:href="#DejaVuSans-48"/>
      </g>
     </g>
    </g>
    <g id="ytick_3">
     <g id="line2d_8">
      <g>
       <use style="stroke:#000000;stroke-width:0.8;" x="57.6" xlink:href="#m58f4659abc" y="226.70722"/>
      </g>
     </g>
     <g id="text_9">
      <!-- 2000 -->
      <g transform="translate(25.15 230.506439)scale(0.1 -0.1)">
       <use xlink:href="#DejaVuSans-50"/>
       <use x="63.623047" xlink:href="#DejaVuSans-48"/>
       <use x="127.246094" xlink:href="#DejaVuSans-48"/>
       <use x="190.869141" xlink:href="#DejaVuSans-48"/>
      </g>
     </g>
    </g>
    <g id="ytick_4">
     <g id="line2d_9">
      <g>
       <use style="stroke:#000000;stroke-width:0.8;" x="57.6" xlink:href="#m58f4659abc" y="192.428957"/>
      </g>
     </g>
     <g id="text_10">
      <!-- 3000 -->
      <defs>
       <path d="M 40.578125 39.3125 
Q 47.65625 37.796875 51.625 33 
Q 55.609375 28.21875 55.609375 21.1875 
Q 55.609375 10.40625 48.1875 4.484375 
Q 40.765625 -1.421875 27.09375 -1.421875 
Q 22.515625 -1.421875 17.65625 -0.515625 
Q 12.796875 0.390625 7.625 2.203125 
L 7.625 11.71875 
Q 11.71875 9.328125 16.59375 8.109375 
Q 21.484375 6.890625 26.8125 6.890625 
Q 36.078125 6.890625 40.9375 10.546875 
Q 45.796875 14.203125 45.796875 21.1875 
Q 45.796875 27.640625 41.28125 31.265625 
Q 36.765625 34.90625 28.71875 34.90625 
L 20.21875 34.90625 
L 20.21875 43.015625 
L 29.109375 43.015625 
Q 36.375 43.015625 40.234375 45.921875 
Q 44.09375 48.828125 44.09375 54.296875 
Q 44.09375 59.90625 40.109375 62.90625 
Q 36.140625 65.921875 28.71875 65.921875 
Q 24.65625 65.921875 20.015625 65.03125 
Q 15.375 64.15625 9.8125 62.3125 
L 9.8125 71.09375 
Q 15.4375 72.65625 20.34375 73.4375 
Q 25.25 74.21875 29.59375 74.21875 
Q 40.828125 74.21875 47.359375 69.109375 
Q 53.90625 64.015625 53.90625 55.328125 
Q 53.90625 49.265625 50.4375 45.09375 
Q 46.96875 40.921875 40.578125 39.3125 
z
" id="DejaVuSans-51"/>
      </defs>
      <g transform="translate(25.15 196.228176)scale(0.1 -0.1)">
       <use xlink:href="#DejaVuSans-51"/>
       <use x="63.623047" xlink:href="#DejaVuSans-48"/>
       <use x="127.246094" xlink:href="#DejaVuSans-48"/>
       <use x="190.869141" xlink:href="#DejaVuSans-48"/>
      </g>
     </g>
    </g>
    <g id="ytick_5">
     <g id="line2d_10">
      <g>
       <use style="stroke:#000000;stroke-width:0.8;" x="57.6" xlink:href="#m58f4659abc" y="158.150694"/>
      </g>
     </g>
     <g id="text_11">
      <!-- 4000 -->
      <g transform="translate(25.15 161.949913)scale(0.1 -0.1)">
       <use xlink:href="#DejaVuSans-52"/>
       <use x="63.623047" xlink:href="#DejaVuSans-48"/>
       <use x="127.246094" xlink:href="#DejaVuSans-48"/>
       <use x="190.869141" xlink:href="#DejaVuSans-48"/>
      </g>
     </g>
    </g>
    <g id="ytick_6">
     <g id="line2d_11">
      <g>
       <use style="stroke:#000000;stroke-width:0.8;" x="57.6" xlink:href="#m58f4659abc" y="123.872431"/>
      </g>
     </g>
     <g id="text_12">
      <!-- 5000 -->
      <defs>
       <path d="M 10.796875 72.90625 
L 49.515625 72.90625 
L 49.515625 64.59375 
L 19.828125 64.59375 
L 19.828125 46.734375 
Q 21.96875 47.46875 24.109375 47.828125 
Q 26.265625 48.1875 28.421875 48.1875 
Q 40.625 48.1875 47.75 41.5 
Q 54.890625 34.8125 54.890625 23.390625 
Q 54.890625 11.625 47.5625 5.09375 
Q 40.234375 -1.421875 26.90625 -1.421875 
Q 22.3125 -1.421875 17.546875 -0.640625 
Q 12.796875 0.140625 7.71875 1.703125 
L 7.71875 11.625 
Q 12.109375 9.234375 16.796875 8.0625 
Q 21.484375 6.890625 26.703125 6.890625 
Q 35.15625 6.890625 40.078125 11.328125 
Q 45.015625 15.765625 45.015625 23.390625 
Q 45.015625 31 40.078125 35.4375 
Q 35.15625 39.890625 26.703125 39.890625 
Q 22.75 39.890625 18.8125 39.015625 
Q 14.890625 38.140625 10.796875 36.28125 
z
" id="DejaVuSans-53"/>
      </defs>
      <g transform="translate(25.15 127.671649)scale(0.1 -0.1)">
       <use xlink:href="#DejaVuSans-53"/>
       <use x="63.623047" xlink:href="#DejaVuSans-48"/>
       <use x="127.246094" xlink:href="#DejaVuSans-48"/>
       <use x="190.869141" xlink:href="#DejaVuSans-48"/>
      </g>
     </g>
    </g>
    <g id="ytick_7">
     <g id="line2d_12">
      <g>
       <use style="stroke:#000000;stroke-width:0.8;" x="57.6" xlink:href="#m58f4659abc" y="89.594167"/>
      </g>
     </g>
     <g id="text_13">
      <!-- 6000 -->
      <g transform="translate(25.15 93.393386)scale(0.1 -0.1)">
       <use xlink:href="#DejaVuSans-54"/>
       <use x="63.623047" xlink:href="#DejaVuSans-48"/>
       <use x="127.246094" xlink:href="#DejaVuSans-48"/>
       <use x="190.869141" xlink:href="#DejaVuSans-48"/>
      </g>
     </g>
    </g>
    <g id="ytick_8">
     <g id="line2d_13">
      <g>
       <use style="stroke:#000000;stroke-width:0.8;" x="57.6" xlink:href="#m58f4659abc" y="55.315904"/>
      </g>
     </g>
     <g id="text_14">
      <!-- 7000 -->
      <defs>
       <path d="M 8.203125 72.90625 
L 55.078125 72.90625 
L 55.078125 68.703125 
L 28.609375 0 
L 18.3125 0 
L 43.21875 64.59375 
L 8.203125 64.59375 
z
" id="DejaVuSans-55"/>
      </defs>
      <g transform="translate(25.15 59.115123)scale(0.1 -0.1)">
       <use xlink:href="#DejaVuSans-55"/>
       <use x="63.623047" xlink:href="#DejaVuSans-48"/>
       <use x="127.246094" xlink:href="#DejaVuSans-48"/>
       <use x="190.869141" xlink:href="#DejaVuSans-48"/>
      </g>
     </g>
    </g>
    <g id="text_15">
     <!-- y values -->
     <defs>
      <path d="M 32.171875 -5.078125 
Q 28.375 -14.84375 24.75 -17.8125 
Q 21.140625 -20.796875 15.09375 -20.796875 
L 7.90625 -20.796875 
L 7.90625 -13.28125 
L 13.1875 -13.28125 
Q 16.890625 -13.28125 18.9375 -11.515625 
Q 21 -9.765625 23.484375 -3.21875 
L 25.09375 0.875 
L 2.984375 54.6875 
L 12.5 54.6875 
L 29.59375 11.921875 
L 46.6875 54.6875 
L 56.203125 54.6875 
z
" id="DejaVuSans-121"/>
     </defs>
     <g transform="translate(19.070312 195.338937)rotate(-90)scale(0.1 -0.1)">
      <use xlink:href="#DejaVuSans-121"/>
      <use x="59.179688" xlink:href="#DejaVuSans-32"/>
      <use x="90.966797" xlink:href="#DejaVuSans-118"/>
      <use x="150.146484" xlink:href="#DejaVuSans-97"/>
      <use x="211.425781" xlink:href="#DejaVuSans-108"/>
      <use x="239.208984" xlink:href="#DejaVuSans-117"/>
      <use x="302.587891" xlink:href="#DejaVuSans-101"/>
      <use x="364.111328" xlink:href="#DejaVuSans-115"/>
     </g>
    </g>
   </g>
   <g id="line2d_14">
    <defs>
     <path d="M 0 1 
C 0.265203 1 0.51958 0.894634 0.707107 0.707107 
C 0.894634 0.51958 1 0.265203 1 0 
C 1 -0.265203 0.894634 -0.51958 0.707107 -0.707107 
C 0.51958 -0.894634 0.265203 -1 0 -1 
C -0.265203 -1 -0.51958 -0.894634 -0.707107 -0.707107 
C -0.894634 -0.51958 -1 -0.265203 -1 0 
C -1 0.265203 -0.894634 0.51958 -0.707107 0.707107 
C -0.51958 0.894634 -0.265203 1 0 1 
z
" id="m058743db64" style="stroke:#ff0000;"/>
    </defs>
    <g clip-path="url(#p596de10f0a)">
     <use style="fill:#ff0000;stroke:#ff0000;" x="73.832727" xlink:href="#m058743db64" y="220.026532"/>
     <use style="fill:#ff0000;stroke:#ff0000;" x="75.464157" xlink:href="#m058743db64" y="203.512404"/>
     <use style="fill:#ff0000;stroke:#ff0000;" x="77.095587" xlink:href="#m058743db64" y="229.204875"/>
     <use style="fill:#ff0000;stroke:#ff0000;" x="78.727017" xlink:href="#m058743db64" y="204.708101"/>
     <use style="fill:#ff0000;stroke:#ff0000;" x="80.358447" xlink:href="#m058743db64" y="220.548506"/>
     <use style="fill:#ff0000;stroke:#ff0000;" x="81.989877" xlink:href="#m058743db64" y="224.966627"/>
     <use style="fill:#ff0000;stroke:#ff0000;" x="83.621307" xlink:href="#m058743db64" y="215.685586"/>
     <use style="fill:#ff0000;stroke:#ff0000;" x="85.252736" xlink:href="#m058743db64" y="216.842817"/>
     <use style="fill:#ff0000;stroke:#ff0000;" x="86.884166" xlink:href="#m058743db64" y="215.064704"/>
     <use style="fill:#ff0000;stroke:#ff0000;" x="88.515596" xlink:href="#m058743db64" y="226.124915"/>
     <use style="fill:#ff0000;stroke:#ff0000;" x="90.147026" xlink:href="#m058743db64" y="244.16624"/>
     <use style="fill:#ff0000;stroke:#ff0000;" x="91.778456" xlink:href="#m058743db64" y="222.814395"/>
     <use style="fill:#ff0000;stroke:#ff0000;" x="93.409886" xlink:href="#m058743db64" y="229.215168"/>
     <use style="fill:#ff0000;stroke:#ff0000;" x="95.041316" xlink:href="#m058743db64" y="224.968721"/>
     <use style="fill:#ff0000;stroke:#ff0000;" x="96.672746" xlink:href="#m058743db64" y="233.554061"/>
     <use style="fill:#ff0000;stroke:#ff0000;" x="98.304175" xlink:href="#m058743db64" y="247.171213"/>
     <use style="fill:#ff0000;stroke:#ff0000;" x="99.935605" xlink:href="#m058743db64" y="248.647965"/>
     <use style="fill:#ff0000;stroke:#ff0000;" x="101.567035" xlink:href="#m058743db64" y="253.440916"/>
     <use style="fill:#ff0000;stroke:#ff0000;" x="103.198465" xlink:href="#m058743db64" y="251.984939"/>
     <use style="fill:#ff0000;stroke:#ff0000;" x="104.829895" xlink:href="#m058743db64" y="240.931066"/>
     <use style="fill:#ff0000;stroke:#ff0000;" x="106.461325" xlink:href="#m058743db64" y="257.091123"/>
     <use style="fill:#ff0000;stroke:#ff0000;" x="108.092755" xlink:href="#m058743db64" y="249.51966"/>
     <use style="fill:#ff0000;stroke:#ff0000;" x="109.724185" xlink:href="#m058743db64" y="255.60621"/>
     <use style="fill:#ff0000;stroke:#ff0000;" x="111.355614" xlink:href="#m058743db64" y="258.059001"/>
     <use style="fill:#ff0000;stroke:#ff0000;" x="112.987044" xlink:href="#m058743db64" y="254.678601"/>
     <use style="fill:#ff0000;stroke:#ff0000;" x="114.618474" xlink:href="#m058743db64" y="253.579185"/>
     <use style="fill:#ff0000;stroke:#ff0000;" x="116.249904" xlink:href="#m058743db64" y="261.107938"/>
     <use style="fill:#ff0000;stroke:#ff0000;" x="117.881334" xlink:href="#m058743db64" y="261.082488"/>
     <use style="fill:#ff0000;stroke:#ff0000;" x="119.512764" xlink:href="#m058743db64" y="260.662848"/>
     <use style="fill:#ff0000;stroke:#ff0000;" x="121.144194" xlink:href="#m058743db64" y="255.384465"/>
     <use style="fill:#ff0000;stroke:#ff0000;" x="122.775624" xlink:href="#m058743db64" y="258.869651"/>
     <use style="fill:#ff0000;stroke:#ff0000;" x="124.407053" xlink:href="#m058743db64" y="261.005954"/>
     <use style="fill:#ff0000;stroke:#ff0000;" x="126.038483" xlink:href="#m058743db64" y="269.324988"/>
     <use style="fill:#ff0000;stroke:#ff0000;" x="127.669913" xlink:href="#m058743db64" y="269.335585"/>
     <use style="fill:#ff0000;stroke:#ff0000;" x="129.301343" xlink:href="#m058743db64" y="268.551234"/>
     <use style="fill:#ff0000;stroke:#ff0000;" x="130.932773" xlink:href="#m058743db64" y="273.08811"/>
     <use style="fill:#ff0000;stroke:#ff0000;" x="132.564203" xlink:href="#m058743db64" y="268.989707"/>
     <use style="fill:#ff0000;stroke:#ff0000;" x="134.195633" xlink:href="#m058743db64" y="274.491994"/>
     <use style="fill:#ff0000;stroke:#ff0000;" x="135.827063" xlink:href="#m058743db64" y="273.203738"/>
     <use style="fill:#ff0000;stroke:#ff0000;" x="137.458492" xlink:href="#m058743db64" y="272.560569"/>
     <use style="fill:#ff0000;stroke:#ff0000;" x="139.089922" xlink:href="#m058743db64" y="274.26541"/>
     <use style="fill:#ff0000;stroke:#ff0000;" x="140.721352" xlink:href="#m058743db64" y="278.541298"/>
     <use style="fill:#ff0000;stroke:#ff0000;" x="142.352782" xlink:href="#m058743db64" y="278.004451"/>
     <use style="fill:#ff0000;stroke:#ff0000;" x="143.984212" xlink:href="#m058743db64" y="277.468166"/>
     <use style="fill:#ff0000;stroke:#ff0000;" x="145.615642" xlink:href="#m058743db64" y="279.114674"/>
     <use style="fill:#ff0000;stroke:#ff0000;" x="147.247072" xlink:href="#m058743db64" y="279.791819"/>
     <use style="fill:#ff0000;stroke:#ff0000;" x="148.878502" xlink:href="#m058743db64" y="279.930566"/>
     <use style="fill:#ff0000;stroke:#ff0000;" x="150.509931" xlink:href="#m058743db64" y="280.628439"/>
     <use style="fill:#ff0000;stroke:#ff0000;" x="152.141361" xlink:href="#m058743db64" y="285.57537"/>
     <use style="fill:#ff0000;stroke:#ff0000;" x="153.772791" xlink:href="#m058743db64" y="284.142239"/>
     <use style="fill:#ff0000;stroke:#ff0000;" x="155.404221" xlink:href="#m058743db64" y="282.01278"/>
     <use style="fill:#ff0000;stroke:#ff0000;" x="157.035651" xlink:href="#m058743db64" y="283.359495"/>
     <use style="fill:#ff0000;stroke:#ff0000;" x="158.667081" xlink:href="#m058743db64" y="283.658838"/>
     <use style="fill:#ff0000;stroke:#ff0000;" x="160.298511" xlink:href="#m058743db64" y="286.169083"/>
     <use style="fill:#ff0000;stroke:#ff0000;" x="161.929941" xlink:href="#m058743db64" y="286.968564"/>
     <use style="fill:#ff0000;stroke:#ff0000;" x="163.56137" xlink:href="#m058743db64" y="288.65871"/>
     <use style="fill:#ff0000;stroke:#ff0000;" x="165.1928" xlink:href="#m058743db64" y="287.700066"/>
     <use style="fill:#ff0000;stroke:#ff0000;" x="166.82423" xlink:href="#m058743db64" y="289.604754"/>
     <use style="fill:#ff0000;stroke:#ff0000;" x="168.45566" xlink:href="#m058743db64" y="290.0668"/>
     <use style="fill:#ff0000;stroke:#ff0000;" x="170.08709" xlink:href="#m058743db64" y="289.908594"/>
     <use style="fill:#ff0000;stroke:#ff0000;" x="171.71852" xlink:href="#m058743db64" y="290.870032"/>
     <use style="fill:#ff0000;stroke:#ff0000;" x="173.34995" xlink:href="#m058743db64" y="290.434888"/>
     <use style="fill:#ff0000;stroke:#ff0000;" x="174.98138" xlink:href="#m058743db64" y="291.268958"/>
     <use style="fill:#ff0000;stroke:#ff0000;" x="176.61281" xlink:href="#m058743db64" y="291.720678"/>
     <use style="fill:#ff0000;stroke:#ff0000;" x="178.244239" xlink:href="#m058743db64" y="291.445751"/>
     <use style="fill:#ff0000;stroke:#ff0000;" x="179.875669" xlink:href="#m058743db64" y="293.189316"/>
     <use style="fill:#ff0000;stroke:#ff0000;" x="181.507099" xlink:href="#m058743db64" y="292.930189"/>
     <use style="fill:#ff0000;stroke:#ff0000;" x="183.138529" xlink:href="#m058743db64" y="293.75746"/>
     <use style="fill:#ff0000;stroke:#ff0000;" x="184.769959" xlink:href="#m058743db64" y="293.12404"/>
     <use style="fill:#ff0000;stroke:#ff0000;" x="186.401389" xlink:href="#m058743db64" y="293.752654"/>
     <use style="fill:#ff0000;stroke:#ff0000;" x="188.032819" xlink:href="#m058743db64" y="293.565582"/>
     <use style="fill:#ff0000;stroke:#ff0000;" x="189.664249" xlink:href="#m058743db64" y="295.360659"/>
     <use style="fill:#ff0000;stroke:#ff0000;" x="191.295678" xlink:href="#m058743db64" y="294.486692"/>
     <use style="fill:#ff0000;stroke:#ff0000;" x="192.927108" xlink:href="#m058743db64" y="293.806336"/>
     <use style="fill:#ff0000;stroke:#ff0000;" x="194.558538" xlink:href="#m058743db64" y="295.183242"/>
     <use style="fill:#ff0000;stroke:#ff0000;" x="196.189968" xlink:href="#m058743db64" y="293.998358"/>
     <use style="fill:#ff0000;stroke:#ff0000;" x="197.821398" xlink:href="#m058743db64" y="294.309433"/>
     <use style="fill:#ff0000;stroke:#ff0000;" x="199.452828" xlink:href="#m058743db64" y="294.959435"/>
     <use style="fill:#ff0000;stroke:#ff0000;" x="201.084258" xlink:href="#m058743db64" y="295.488"/>
     <use style="fill:#ff0000;stroke:#ff0000;" x="202.715688" xlink:href="#m058743db64" y="295.250719"/>
     <use style="fill:#ff0000;stroke:#ff0000;" x="204.347117" xlink:href="#m058743db64" y="295.447873"/>
     <use style="fill:#ff0000;stroke:#ff0000;" x="205.978547" xlink:href="#m058743db64" y="294.161874"/>
     <use style="fill:#ff0000;stroke:#ff0000;" x="207.609977" xlink:href="#m058743db64" y="294.782566"/>
     <use style="fill:#ff0000;stroke:#ff0000;" x="209.241407" xlink:href="#m058743db64" y="294.95709"/>
     <use style="fill:#ff0000;stroke:#ff0000;" x="210.872837" xlink:href="#m058743db64" y="294.185624"/>
     <use style="fill:#ff0000;stroke:#ff0000;" x="212.504267" xlink:href="#m058743db64" y="294.736525"/>
     <use style="fill:#ff0000;stroke:#ff0000;" x="214.135697" xlink:href="#m058743db64" y="294.543087"/>
     <use style="fill:#ff0000;stroke:#ff0000;" x="215.767127" xlink:href="#m058743db64" y="293.956922"/>
     <use style="fill:#ff0000;stroke:#ff0000;" x="217.398556" xlink:href="#m058743db64" y="293.607307"/>
     <use style="fill:#ff0000;stroke:#ff0000;" x="219.029986" xlink:href="#m058743db64" y="292.212523"/>
     <use style="fill:#ff0000;stroke:#ff0000;" x="220.661416" xlink:href="#m058743db64" y="293.524297"/>
     <use style="fill:#ff0000;stroke:#ff0000;" x="222.292846" xlink:href="#m058743db64" y="291.974306"/>
     <use style="fill:#ff0000;stroke:#ff0000;" x="223.924276" xlink:href="#m058743db64" y="291.681895"/>
     <use style="fill:#ff0000;stroke:#ff0000;" x="225.555706" xlink:href="#m058743db64" y="291.323509"/>
     <use style="fill:#ff0000;stroke:#ff0000;" x="227.187136" xlink:href="#m058743db64" y="290.409175"/>
     <use style="fill:#ff0000;stroke:#ff0000;" x="228.818566" xlink:href="#m058743db64" y="291.404809"/>
     <use style="fill:#ff0000;stroke:#ff0000;" x="230.449995" xlink:href="#m058743db64" y="288.776682"/>
     <use style="fill:#ff0000;stroke:#ff0000;" x="232.081425" xlink:href="#m058743db64" y="288.084924"/>
     <use style="fill:#ff0000;stroke:#ff0000;" x="233.712855" xlink:href="#m058743db64" y="288.162042"/>
     <use style="fill:#ff0000;stroke:#ff0000;" x="235.344285" xlink:href="#m058743db64" y="289.739605"/>
     <use style="fill:#ff0000;stroke:#ff0000;" x="236.975715" xlink:href="#m058743db64" y="288.511819"/>
     <use style="fill:#ff0000;stroke:#ff0000;" x="238.607145" xlink:href="#m058743db64" y="287.097203"/>
     <use style="fill:#ff0000;stroke:#ff0000;" x="240.238575" xlink:href="#m058743db64" y="286.56395"/>
     <use style="fill:#ff0000;stroke:#ff0000;" x="241.870005" xlink:href="#m058743db64" y="285.929829"/>
     <use style="fill:#ff0000;stroke:#ff0000;" x="243.501434" xlink:href="#m058743db64" y="282.905599"/>
     <use style="fill:#ff0000;stroke:#ff0000;" x="245.132864" xlink:href="#m058743db64" y="286.361008"/>
     <use style="fill:#ff0000;stroke:#ff0000;" x="246.764294" xlink:href="#m058743db64" y="282.326327"/>
     <use style="fill:#ff0000;stroke:#ff0000;" x="248.395724" xlink:href="#m058743db64" y="285.328929"/>
     <use style="fill:#ff0000;stroke:#ff0000;" x="250.027154" xlink:href="#m058743db64" y="278.381816"/>
     <use style="fill:#ff0000;stroke:#ff0000;" x="251.658584" xlink:href="#m058743db64" y="277.655245"/>
     <use style="fill:#ff0000;stroke:#ff0000;" x="253.290014" xlink:href="#m058743db64" y="282.124434"/>
     <use style="fill:#ff0000;stroke:#ff0000;" x="254.921444" xlink:href="#m058743db64" y="278.924199"/>
     <use style="fill:#ff0000;stroke:#ff0000;" x="256.552873" xlink:href="#m058743db64" y="280.900367"/>
     <use style="fill:#ff0000;stroke:#ff0000;" x="258.184303" xlink:href="#m058743db64" y="274.383168"/>
     <use style="fill:#ff0000;stroke:#ff0000;" x="259.815733" xlink:href="#m058743db64" y="272.347964"/>
     <use style="fill:#ff0000;stroke:#ff0000;" x="261.447163" xlink:href="#m058743db64" y="274.010563"/>
     <use style="fill:#ff0000;stroke:#ff0000;" x="263.078593" xlink:href="#m058743db64" y="274.759816"/>
     <use style="fill:#ff0000;stroke:#ff0000;" x="264.710023" xlink:href="#m058743db64" y="269.73565"/>
     <use style="fill:#ff0000;stroke:#ff0000;" x="266.341453" xlink:href="#m058743db64" y="273.669493"/>
     <use style="fill:#ff0000;stroke:#ff0000;" x="267.972883" xlink:href="#m058743db64" y="266.809256"/>
     <use style="fill:#ff0000;stroke:#ff0000;" x="269.604312" xlink:href="#m058743db64" y="268.012599"/>
     <use style="fill:#ff0000;stroke:#ff0000;" x="271.235742" xlink:href="#m058743db64" y="272.432263"/>
     <use style="fill:#ff0000;stroke:#ff0000;" x="272.867172" xlink:href="#m058743db64" y="268.564664"/>
     <use style="fill:#ff0000;stroke:#ff0000;" x="274.498602" xlink:href="#m058743db64" y="263.129132"/>
     <use style="fill:#ff0000;stroke:#ff0000;" x="276.130032" xlink:href="#m058743db64" y="266.352101"/>
     <use style="fill:#ff0000;stroke:#ff0000;" x="277.761462" xlink:href="#m058743db64" y="259.142465"/>
     <use style="fill:#ff0000;stroke:#ff0000;" x="279.392892" xlink:href="#m058743db64" y="264.223789"/>
     <use style="fill:#ff0000;stroke:#ff0000;" x="281.024322" xlink:href="#m058743db64" y="256.971725"/>
     <use style="fill:#ff0000;stroke:#ff0000;" x="282.655751" xlink:href="#m058743db64" y="261.853406"/>
     <use style="fill:#ff0000;stroke:#ff0000;" x="284.287181" xlink:href="#m058743db64" y="255.453287"/>
     <use style="fill:#ff0000;stroke:#ff0000;" x="285.918611" xlink:href="#m058743db64" y="252.889666"/>
     <use style="fill:#ff0000;stroke:#ff0000;" x="287.550041" xlink:href="#m058743db64" y="259.34723"/>
     <use style="fill:#ff0000;stroke:#ff0000;" x="289.181471" xlink:href="#m058743db64" y="253.447147"/>
     <use style="fill:#ff0000;stroke:#ff0000;" x="290.812901" xlink:href="#m058743db64" y="256.558852"/>
     <use style="fill:#ff0000;stroke:#ff0000;" x="292.444331" xlink:href="#m058743db64" y="250.210647"/>
     <use style="fill:#ff0000;stroke:#ff0000;" x="294.075761" xlink:href="#m058743db64" y="247.018128"/>
     <use style="fill:#ff0000;stroke:#ff0000;" x="295.70719" xlink:href="#m058743db64" y="250.712809"/>
     <use style="fill:#ff0000;stroke:#ff0000;" x="297.33862" xlink:href="#m058743db64" y="238.721432"/>
     <use style="fill:#ff0000;stroke:#ff0000;" x="298.97005" xlink:href="#m058743db64" y="236.665146"/>
     <use style="fill:#ff0000;stroke:#ff0000;" x="300.60148" xlink:href="#m058743db64" y="247.07569"/>
     <use style="fill:#ff0000;stroke:#ff0000;" x="302.23291" xlink:href="#m058743db64" y="236.459567"/>
     <use style="fill:#ff0000;stroke:#ff0000;" x="303.86434" xlink:href="#m058743db64" y="239.69687"/>
     <use style="fill:#ff0000;stroke:#ff0000;" x="305.49577" xlink:href="#m058743db64" y="244.034297"/>
     <use style="fill:#ff0000;stroke:#ff0000;" x="307.1272" xlink:href="#m058743db64" y="222.421451"/>
     <use style="fill:#ff0000;stroke:#ff0000;" x="308.75863" xlink:href="#m058743db64" y="225.989465"/>
     <use style="fill:#ff0000;stroke:#ff0000;" x="310.390059" xlink:href="#m058743db64" y="237.765672"/>
     <use style="fill:#ff0000;stroke:#ff0000;" x="312.021489" xlink:href="#m058743db64" y="236.611943"/>
     <use style="fill:#ff0000;stroke:#ff0000;" x="313.652919" xlink:href="#m058743db64" y="229.334404"/>
     <use style="fill:#ff0000;stroke:#ff0000;" x="315.284349" xlink:href="#m058743db64" y="222.317669"/>
     <use style="fill:#ff0000;stroke:#ff0000;" x="316.915779" xlink:href="#m058743db64" y="232.104519"/>
     <use style="fill:#ff0000;stroke:#ff0000;" x="318.547209" xlink:href="#m058743db64" y="214.785233"/>
     <use style="fill:#ff0000;stroke:#ff0000;" x="320.178639" xlink:href="#m058743db64" y="207.893327"/>
     <use style="fill:#ff0000;stroke:#ff0000;" x="321.810069" xlink:href="#m058743db64" y="221.790873"/>
     <use style="fill:#ff0000;stroke:#ff0000;" x="323.441498" xlink:href="#m058743db64" y="199.128447"/>
     <use style="fill:#ff0000;stroke:#ff0000;" x="325.072928" xlink:href="#m058743db64" y="211.662011"/>
     <use style="fill:#ff0000;stroke:#ff0000;" x="326.704358" xlink:href="#m058743db64" y="204.976201"/>
     <use style="fill:#ff0000;stroke:#ff0000;" x="328.335788" xlink:href="#m058743db64" y="200.922984"/>
     <use style="fill:#ff0000;stroke:#ff0000;" x="329.967218" xlink:href="#m058743db64" y="208.234238"/>
     <use style="fill:#ff0000;stroke:#ff0000;" x="331.598648" xlink:href="#m058743db64" y="205.142211"/>
     <use style="fill:#ff0000;stroke:#ff0000;" x="333.230078" xlink:href="#m058743db64" y="218.782888"/>
     <use style="fill:#ff0000;stroke:#ff0000;" x="334.861508" xlink:href="#m058743db64" y="187.370253"/>
     <use style="fill:#ff0000;stroke:#ff0000;" x="336.492937" xlink:href="#m058743db64" y="192.337038"/>
     <use style="fill:#ff0000;stroke:#ff0000;" x="338.124367" xlink:href="#m058743db64" y="184.799619"/>
     <use style="fill:#ff0000;stroke:#ff0000;" x="339.755797" xlink:href="#m058743db64" y="170.290017"/>
     <use style="fill:#ff0000;stroke:#ff0000;" x="341.387227" xlink:href="#m058743db64" y="198.36118"/>
     <use style="fill:#ff0000;stroke:#ff0000;" x="343.018657" xlink:href="#m058743db64" y="172.811079"/>
     <use style="fill:#ff0000;stroke:#ff0000;" x="344.650087" xlink:href="#m058743db64" y="184.892322"/>
     <use style="fill:#ff0000;stroke:#ff0000;" x="346.281517" xlink:href="#m058743db64" y="172.641033"/>
     <use style="fill:#ff0000;stroke:#ff0000;" x="347.912947" xlink:href="#m058743db64" y="163.977613"/>
     <use style="fill:#ff0000;stroke:#ff0000;" x="349.544376" xlink:href="#m058743db64" y="152.911423"/>
     <use style="fill:#ff0000;stroke:#ff0000;" x="351.175806" xlink:href="#m058743db64" y="180.728936"/>
     <use style="fill:#ff0000;stroke:#ff0000;" x="352.807236" xlink:href="#m058743db64" y="154.685692"/>
     <use style="fill:#ff0000;stroke:#ff0000;" x="354.438666" xlink:href="#m058743db64" y="153.356689"/>
     <use style="fill:#ff0000;stroke:#ff0000;" x="356.070096" xlink:href="#m058743db64" y="168.984495"/>
     <use style="fill:#ff0000;stroke:#ff0000;" x="357.701526" xlink:href="#m058743db64" y="149.010357"/>
     <use style="fill:#ff0000;stroke:#ff0000;" x="359.332956" xlink:href="#m058743db64" y="139.399147"/>
     <use style="fill:#ff0000;stroke:#ff0000;" x="360.964386" xlink:href="#m058743db64" y="180.589163"/>
     <use style="fill:#ff0000;stroke:#ff0000;" x="362.595815" xlink:href="#m058743db64" y="163.466768"/>
     <use style="fill:#ff0000;stroke:#ff0000;" x="364.227245" xlink:href="#m058743db64" y="158.58513"/>
     <use style="fill:#ff0000;stroke:#ff0000;" x="365.858675" xlink:href="#m058743db64" y="130.332483"/>
     <use style="fill:#ff0000;stroke:#ff0000;" x="367.490105" xlink:href="#m058743db64" y="155.129242"/>
     <use style="fill:#ff0000;stroke:#ff0000;" x="369.121535" xlink:href="#m058743db64" y="121.278627"/>
     <use style="fill:#ff0000;stroke:#ff0000;" x="370.752965" xlink:href="#m058743db64" y="120.914207"/>
     <use style="fill:#ff0000;stroke:#ff0000;" x="372.384395" xlink:href="#m058743db64" y="136.237741"/>
     <use style="fill:#ff0000;stroke:#ff0000;" x="374.015825" xlink:href="#m058743db64" y="141.991917"/>
     <use style="fill:#ff0000;stroke:#ff0000;" x="375.647254" xlink:href="#m058743db64" y="148.847818"/>
     <use style="fill:#ff0000;stroke:#ff0000;" x="377.278684" xlink:href="#m058743db64" y="155.965734"/>
     <use style="fill:#ff0000;stroke:#ff0000;" x="378.910114" xlink:href="#m058743db64" y="154.814264"/>
     <use style="fill:#ff0000;stroke:#ff0000;" x="380.541544" xlink:href="#m058743db64" y="114.892539"/>
     <use style="fill:#ff0000;stroke:#ff0000;" x="382.172974" xlink:href="#m058743db64" y="151.432551"/>
     <use style="fill:#ff0000;stroke:#ff0000;" x="383.804404" xlink:href="#m058743db64" y="140.16353"/>
     <use style="fill:#ff0000;stroke:#ff0000;" x="385.435834" xlink:href="#m058743db64" y="131.797774"/>
     <use style="fill:#ff0000;stroke:#ff0000;" x="387.067264" xlink:href="#m058743db64" y="140.183364"/>
     <use style="fill:#ff0000;stroke:#ff0000;" x="388.698693" xlink:href="#m058743db64" y="132.705274"/>
     <use style="fill:#ff0000;stroke:#ff0000;" x="390.330123" xlink:href="#m058743db64" y="131.74782"/>
     <use style="fill:#ff0000;stroke:#ff0000;" x="391.961553" xlink:href="#m058743db64" y="134.379928"/>
     <use style="fill:#ff0000;stroke:#ff0000;" x="393.592983" xlink:href="#m058743db64" y="70.060828"/>
     <use style="fill:#ff0000;stroke:#ff0000;" x="395.224413" xlink:href="#m058743db64" y="109.568665"/>
     <use style="fill:#ff0000;stroke:#ff0000;" x="396.855843" xlink:href="#m058743db64" y="53.568"/>
     <use style="fill:#ff0000;stroke:#ff0000;" x="398.487273" xlink:href="#m058743db64" y="106.765767"/>
    </g>
   </g>
   <g id="line2d_15">
    <path clip-path="url(#p596de10f0a)" d="M 73.832727 212.386781 
L 80.358447 220.575688 
L 86.884166 228.328857 
L 93.409886 235.646288 
L 99.935605 242.527981 
L 104.829895 247.403298 
L 109.724185 252.033513 
L 114.618474 256.418625 
L 119.512764 260.558634 
L 124.407053 264.45354 
L 129.301343 268.103345 
L 134.195633 271.508046 
L 139.089922 274.667645 
L 143.984212 277.582141 
L 148.878502 280.251535 
L 153.772791 282.675826 
L 158.667081 284.855015 
L 163.56137 286.789101 
L 168.45566 288.478085 
L 173.34995 289.921966 
L 178.244239 291.120744 
L 183.138529 292.07442 
L 188.032819 292.782993 
L 192.927108 293.246464 
L 197.821398 293.464832 
L 202.715688 293.438098 
L 207.609977 293.166261 
L 212.504267 292.649321 
L 217.398556 291.887279 
L 222.292846 290.880135 
L 227.187136 289.627887 
L 232.081425 288.130538 
L 236.975715 286.388085 
L 241.870005 284.40053 
L 246.764294 282.167873 
L 251.658584 279.690113 
L 256.552873 276.96725 
L 261.447163 273.999285 
L 266.341453 270.786217 
L 271.235742 267.328047 
L 276.130032 263.624774 
L 281.024322 259.676398 
L 285.918611 255.48292 
L 290.812901 251.04434 
L 295.70719 246.360656 
L 300.60148 241.431871 
L 305.49577 236.257982 
L 312.021489 228.978194 
L 318.547209 221.262668 
L 325.072928 213.111403 
L 331.598648 204.524401 
L 338.124367 195.501661 
L 344.650087 186.043184 
L 351.175806 176.148968 
L 357.701526 165.819014 
L 364.227245 155.053322 
L 370.752965 143.851893 
L 377.278684 132.214726 
L 383.804404 120.14182 
L 390.330123 107.633177 
L 396.855843 94.688796 
L 398.487273 91.384617 
L 398.487273 91.384617 
" style="fill:none;stroke:#008000;stroke-linecap:square;stroke-width:1.5;"/>
   </g>
   <g id="patch_3">
    <path d="M 57.6 307.584 
L 57.6 41.472 
" style="fill:none;stroke:#000000;stroke-linecap:square;stroke-linejoin:miter;stroke-width:0.8;"/>
   </g>
   <g id="patch_4">
    <path d="M 414.72 307.584 
L 414.72 41.472 
" style="fill:none;stroke:#000000;stroke-linecap:square;stroke-linejoin:miter;stroke-width:0.8;"/>
   </g>
   <g id="patch_5">
    <path d="M 57.6 307.584 
L 414.72 307.584 
" style="fill:none;stroke:#000000;stroke-linecap:square;stroke-linejoin:miter;stroke-width:0.8;"/>
   </g>
   <g id="patch_6">
    <path d="M 57.6 41.472 
L 414.72 41.472 
" style="fill:none;stroke:#000000;stroke-linecap:square;stroke-linejoin:miter;stroke-width:0.8;"/>
   </g>
   <g id="text_16">
    <!-- FunctionFitting 01 -->
    <defs>
     <path d="M 9.8125 72.90625 
L 51.703125 72.90625 
L 51.703125 64.59375 
L 19.671875 64.59375 
L 19.671875 43.109375 
L 48.578125 43.109375 
L 48.578125 34.8125 
L 19.671875 34.8125 
L 19.671875 0 
L 9.8125 0 
z
" id="DejaVuSans-70"/>
     <path d="M 54.890625 33.015625 
L 54.890625 0 
L 45.90625 0 
L 45.90625 32.71875 
Q 45.90625 40.484375 42.875 44.328125 
Q 39.84375 48.1875 33.796875 48.1875 
Q 26.515625 48.1875 22.3125 43.546875 
Q 18.109375 38.921875 18.109375 30.90625 
L 18.109375 0 
L 9.078125 0 
L 9.078125 54.6875 
L 18.109375 54.6875 
L 18.109375 46.1875 
Q 21.34375 51.125 25.703125 53.5625 
Q 30.078125 56 35.796875 56 
Q 45.21875 56 50.046875 50.171875 
Q 54.890625 44.34375 54.890625 33.015625 
z
" id="DejaVuSans-110"/>
     <path d="M 48.78125 52.59375 
L 48.78125 44.1875 
Q 44.96875 46.296875 41.140625 47.34375 
Q 37.3125 48.390625 33.40625 48.390625 
Q 24.65625 48.390625 19.8125 42.84375 
Q 14.984375 37.3125 14.984375 27.296875 
Q 14.984375 17.28125 19.8125 11.734375 
Q 24.65625 6.203125 33.40625 6.203125 
Q 37.3125 6.203125 41.140625 7.25 
Q 44.96875 8.296875 48.78125 10.40625 
L 48.78125 2.09375 
Q 45.015625 0.34375 40.984375 -0.53125 
Q 36.96875 -1.421875 32.421875 -1.421875 
Q 20.0625 -1.421875 12.78125 6.34375 
Q 5.515625 14.109375 5.515625 27.296875 
Q 5.515625 40.671875 12.859375 48.328125 
Q 20.21875 56 33.015625 56 
Q 37.15625 56 41.109375 55.140625 
Q 45.0625 54.296875 48.78125 52.59375 
z
" id="DejaVuSans-99"/>
     <path d="M 18.3125 70.21875 
L 18.3125 54.6875 
L 36.8125 54.6875 
L 36.8125 47.703125 
L 18.3125 47.703125 
L 18.3125 18.015625 
Q 18.3125 11.328125 20.140625 9.421875 
Q 21.96875 7.515625 27.59375 7.515625 
L 36.8125 7.515625 
L 36.8125 0 
L 27.59375 0 
Q 17.1875 0 13.234375 3.875 
Q 9.28125 7.765625 9.28125 18.015625 
L 9.28125 47.703125 
L 2.6875 47.703125 
L 2.6875 54.6875 
L 9.28125 54.6875 
L 9.28125 70.21875 
z
" id="DejaVuSans-116"/>
     <path d="M 9.421875 54.6875 
L 18.40625 54.6875 
L 18.40625 0 
L 9.421875 0 
z
M 9.421875 75.984375 
L 18.40625 75.984375 
L 18.40625 64.59375 
L 9.421875 64.59375 
z
" id="DejaVuSans-105"/>
     <path d="M 30.609375 48.390625 
Q 23.390625 48.390625 19.1875 42.75 
Q 14.984375 37.109375 14.984375 27.296875 
Q 14.984375 17.484375 19.15625 11.84375 
Q 23.34375 6.203125 30.609375 6.203125 
Q 37.796875 6.203125 41.984375 11.859375 
Q 46.1875 17.53125 46.1875 27.296875 
Q 46.1875 37.015625 41.984375 42.703125 
Q 37.796875 48.390625 30.609375 48.390625 
z
M 30.609375 56 
Q 42.328125 56 49.015625 48.375 
Q 55.71875 40.765625 55.71875 27.296875 
Q 55.71875 13.875 49.015625 6.21875 
Q 42.328125 -1.421875 30.609375 -1.421875 
Q 18.84375 -1.421875 12.171875 6.21875 
Q 5.515625 13.875 5.515625 27.296875 
Q 5.515625 40.765625 12.171875 48.375 
Q 18.84375 56 30.609375 56 
z
" id="DejaVuSans-111"/>
     <path d="M 45.40625 27.984375 
Q 45.40625 37.75 41.375 43.109375 
Q 37.359375 48.484375 30.078125 48.484375 
Q 22.859375 48.484375 18.828125 43.109375 
Q 14.796875 37.75 14.796875 27.984375 
Q 14.796875 18.265625 18.828125 12.890625 
Q 22.859375 7.515625 30.078125 7.515625 
Q 37.359375 7.515625 41.375 12.890625 
Q 45.40625 18.265625 45.40625 27.984375 
z
M 54.390625 6.78125 
Q 54.390625 -7.171875 48.1875 -13.984375 
Q 42 -20.796875 29.203125 -20.796875 
Q 24.46875 -20.796875 20.265625 -20.09375 
Q 16.0625 -19.390625 12.109375 -17.921875 
L 12.109375 -9.1875 
Q 16.0625 -11.328125 19.921875 -12.34375 
Q 23.78125 -13.375 27.78125 -13.375 
Q 36.625 -13.375 41.015625 -8.765625 
Q 45.40625 -4.15625 45.40625 5.171875 
L 45.40625 9.625 
Q 42.625 4.78125 38.28125 2.390625 
Q 33.9375 0 27.875 0 
Q 17.828125 0 11.671875 7.65625 
Q 5.515625 15.328125 5.515625 27.984375 
Q 5.515625 40.671875 11.671875 48.328125 
Q 17.828125 56 27.875 56 
Q 33.9375 56 38.28125 53.609375 
Q 42.625 51.21875 45.40625 46.390625 
L 45.40625 54.6875 
L 54.390625 54.6875 
z
" id="DejaVuSans-103"/>
    </defs>
    <g transform="translate(181.680937 35.472)scale(0.12 -0.12)">
     <use xlink:href="#DejaVuSans-70"/>
     <use x="57.441406" xlink:href="#DejaVuSans-117"/>
     <use x="120.820312" xlink:href="#DejaVuSans-110"/>
     <use x="184.199219" xlink:href="#DejaVuSans-99"/>
     <use x="239.179688" xlink:href="#DejaVuSans-116"/>
     <use x="278.388672" xlink:href="#DejaVuSans-105"/>
     <use x="306.171875" xlink:href="#DejaVuSans-111"/>
     <use x="367.353516" xlink:href="#DejaVuSans-110"/>
     <use x="430.732422" xlink:href="#DejaVuSans-70"/>
     <use x="488.142578" xlink:href="#DejaVuSans-105"/>
     <use x="515.925781" xlink:href="#DejaVuSans-116"/>
     <use x="555.134766" xlink:href="#DejaVuSans-116"/>
     <use x="594.34375" xlink:href="#DejaVuSans-105"/>
     <use x="622.126953" xlink:href="#DejaVuSans-110"/>
     <use x="685.505859" xlink:href="#DejaVuSans-103"/>
     <use x="748.982422" xlink:href="#DejaVuSans-32"/>
     <use x="780.769531" xlink:href="#DejaVuSans-48"/>
     <use x="844.392578" xlink:href="#DejaVuSans-49"/>
    </g>
   </g>
   <g id="legend_1">
    <g id="patch_7">
     <path d="M 64.6 78.82825 
L 172.48125 78.82825 
Q 174.48125 78.82825 174.48125 76.82825 
L 174.48125 48.472 
Q 174.48125 46.472 172.48125 46.472 
L 64.6 46.472 
Q 62.6 46.472 62.6 48.472 
L 62.6 76.82825 
Q 62.6 78.82825 64.6 78.82825 
z
" style="fill:#ffffff;opacity:0.8;stroke:#cccccc;stroke-linejoin:miter;"/>
    </g>
    <g id="line2d_16"/>
    <g id="line2d_17">
     <g>
      <use style="fill:#ff0000;stroke:#ff0000;" x="76.6" xlink:href="#m058743db64" y="54.570437"/>
     </g>
    </g>
    <g id="text_17">
     <!-- measured data -->
     <defs>
      <path d="M 52 44.1875 
Q 55.375 50.25 60.0625 53.125 
Q 64.75 56 71.09375 56 
Q 79.640625 56 84.28125 50.015625 
Q 88.921875 44.046875 88.921875 33.015625 
L 88.921875 0 
L 79.890625 0 
L 79.890625 32.71875 
Q 79.890625 40.578125 77.09375 44.375 
Q 74.3125 48.1875 68.609375 48.1875 
Q 61.625 48.1875 57.5625 43.546875 
Q 53.515625 38.921875 53.515625 30.90625 
L 53.515625 0 
L 44.484375 0 
L 44.484375 32.71875 
Q 44.484375 40.625 41.703125 44.40625 
Q 38.921875 48.1875 33.109375 48.1875 
Q 26.21875 48.1875 22.15625 43.53125 
Q 18.109375 38.875 18.109375 30.90625 
L 18.109375 0 
L 9.078125 0 
L 9.078125 54.6875 
L 18.109375 54.6875 
L 18.109375 46.1875 
Q 21.1875 51.21875 25.484375 53.609375 
Q 29.78125 56 35.6875 56 
Q 41.65625 56 45.828125 52.96875 
Q 50 49.953125 52 44.1875 
z
" id="DejaVuSans-109"/>
      <path d="M 41.109375 46.296875 
Q 39.59375 47.171875 37.8125 47.578125 
Q 36.03125 48 33.890625 48 
Q 26.265625 48 22.1875 43.046875 
Q 18.109375 38.09375 18.109375 28.8125 
L 18.109375 0 
L 9.078125 0 
L 9.078125 54.6875 
L 18.109375 54.6875 
L 18.109375 46.1875 
Q 20.953125 51.171875 25.484375 53.578125 
Q 30.03125 56 36.53125 56 
Q 37.453125 56 38.578125 55.875 
Q 39.703125 55.765625 41.0625 55.515625 
z
" id="DejaVuSans-114"/>
      <path d="M 45.40625 46.390625 
L 45.40625 75.984375 
L 54.390625 75.984375 
L 54.390625 0 
L 45.40625 0 
L 45.40625 8.203125 
Q 42.578125 3.328125 38.25 0.953125 
Q 33.9375 -1.421875 27.875 -1.421875 
Q 17.96875 -1.421875 11.734375 6.484375 
Q 5.515625 14.40625 5.515625 27.296875 
Q 5.515625 40.1875 11.734375 48.09375 
Q 17.96875 56 27.875 56 
Q 33.9375 56 38.25 53.625 
Q 42.578125 51.265625 45.40625 46.390625 
z
M 14.796875 27.296875 
Q 14.796875 17.390625 18.875 11.75 
Q 22.953125 6.109375 30.078125 6.109375 
Q 37.203125 6.109375 41.296875 11.75 
Q 45.40625 17.390625 45.40625 27.296875 
Q 45.40625 37.203125 41.296875 42.84375 
Q 37.203125 48.484375 30.078125 48.484375 
Q 22.953125 48.484375 18.875 42.84375 
Q 14.796875 37.203125 14.796875 27.296875 
z
" id="DejaVuSans-100"/>
     </defs>
     <g transform="translate(94.6 58.070437)scale(0.1 -0.1)">
      <use xlink:href="#DejaVuSans-109"/>
      <use x="97.412109" xlink:href="#DejaVuSans-101"/>
      <use x="158.935547" xlink:href="#DejaVuSans-97"/>
      <use x="220.214844" xlink:href="#DejaVuSans-115"/>
      <use x="272.314453" xlink:href="#DejaVuSans-117"/>
      <use x="335.693359" xlink:href="#DejaVuSans-114"/>
      <use x="376.775391" xlink:href="#DejaVuSans-101"/>
      <use x="438.298828" xlink:href="#DejaVuSans-100"/>
      <use x="501.775391" xlink:href="#DejaVuSans-32"/>
      <use x="533.5625" xlink:href="#DejaVuSans-100"/>
      <use x="597.039062" xlink:href="#DejaVuSans-97"/>
      <use x="658.318359" xlink:href="#DejaVuSans-116"/>
      <use x="697.527344" xlink:href="#DejaVuSans-97"/>
     </g>
    </g>
    <g id="line2d_18">
     <path d="M 66.6 69.248562 
L 86.6 69.248562 
" style="fill:none;stroke:#008000;stroke-linecap:square;stroke-width:1.5;"/>
    </g>
    <g id="line2d_19"/>
    <g id="text_18">
     <!-- linear data -->
     <g transform="translate(94.6 72.748562)scale(0.1 -0.1)">
      <use xlink:href="#DejaVuSans-108"/>
      <use x="27.783203" xlink:href="#DejaVuSans-105"/>
      <use x="55.566406" xlink:href="#DejaVuSans-110"/>
      <use x="118.945312" xlink:href="#DejaVuSans-101"/>
      <use x="180.46875" xlink:href="#DejaVuSans-97"/>
      <use x="241.748047" xlink:href="#DejaVuSans-114"/>
      <use x="282.861328" xlink:href="#DejaVuSans-32"/>
      <use x="314.648438" xlink:href="#DejaVuSans-100"/>
      <use x="378.125" xlink:href="#DejaVuSans-97"/>
      <use x="439.404297" xlink:href="#DejaVuSans-116"/>
      <use x="478.613281" xlink:href="#DejaVuSans-97"/>
     </g>
    </g>
   </g>
  </g>
 </g>
 <defs>
  <clipPath id="p596de10f0a">
   <rect height="266.112" width="357.12" x="57.6" y="41.472"/>
  </clipPath>
 </defs>
</svg>
