<?xml version="1.0" encoding="utf-8" standalone="no"?>
<!DOCTYPE svg PUBLIC "-//W3C//DTD SVG 1.1//EN"
  "http://www.w3.org/Graphics/SVG/1.1/DTD/svg11.dtd">
<!-- Created with matplotlib (https://matplotlib.org/) -->
<svg height="345.6pt" version="1.1" viewBox="0 0 460.8 345.6" width="460.8pt" xmlns="http://www.w3.org/2000/svg" xmlns:xlink="http://www.w3.org/1999/xlink">
 <defs>
  <style type="text/css">
*{stroke-linecap:butt;stroke-linejoin:round;}
  </style>
 </defs>
 <g id="figure_1">
  <g id="patch_1">
   <path d="M 0 345.6 
L 460.8 345.6 
L 460.8 0 
L 0 0 
z
" style="fill:#ffffff;"/>
  </g>
  <g id="axes_1">
   <g id="patch_2">
    <path d="M 57.6 307.584 
L 414.72 307.584 
L 414.72 41.472 
L 57.6 41.472 
z
" style="fill:#ffffff;"/>
   </g>
   <g id="matplotlib.axis_1">
    <g id="xtick_1">
     <g id="line2d_1">
      <defs>
       <path d="M 0 0 
L 0 3.5 
" id="m3ca7db2608" style="stroke:#000000;stroke-width:0.8;"/>
      </defs>
      <g>
       <use style="stroke:#000000;stroke-width:0.8;" x="105.80299" xlink:href="#m3ca7db2608" y="307.584"/>
      </g>
     </g>
     <g id="text_1">
      <!-- 20 -->
      <defs>
       <path d="M 19.1875 8.296875 
L 53.609375 8.296875 
L 53.609375 0 
L 7.328125 0 
L 7.328125 8.296875 
Q 12.9375 14.109375 22.625 23.890625 
Q 32.328125 33.6875 34.8125 36.53125 
Q 39.546875 41.84375 41.421875 45.53125 
Q 43.3125 49.21875 43.3125 52.78125 
Q 43.3125 58.59375 39.234375 62.25 
Q 35.15625 65.921875 28.609375 65.921875 
Q 23.96875 65.921875 18.8125 64.3125 
Q 13.671875 62.703125 7.8125 59.421875 
L 7.8125 69.390625 
Q 13.765625 71.78125 18.9375 73 
Q 24.125 74.21875 28.421875 74.21875 
Q 39.75 74.21875 46.484375 68.546875 
Q 53.21875 62.890625 53.21875 53.421875 
Q 53.21875 48.921875 51.53125 44.890625 
Q 49.859375 40.875 45.40625 35.40625 
Q 44.1875 33.984375 37.640625 27.21875 
Q 31.109375 20.453125 19.1875 8.296875 
z
" id="DejaVuSans-50"/>
       <path d="M 31.78125 66.40625 
Q 24.171875 66.40625 20.328125 58.90625 
Q 16.5 51.421875 16.5 36.375 
Q 16.5 21.390625 20.328125 13.890625 
Q 24.171875 6.390625 31.78125 6.390625 
Q 39.453125 6.390625 43.28125 13.890625 
Q 47.125 21.390625 47.125 36.375 
Q 47.125 51.421875 43.28125 58.90625 
Q 39.453125 66.40625 31.78125 66.40625 
z
M 31.78125 74.21875 
Q 44.046875 74.21875 50.515625 64.515625 
Q 56.984375 54.828125 56.984375 36.375 
Q 56.984375 17.96875 50.515625 8.265625 
Q 44.046875 -1.421875 31.78125 -1.421875 
Q 19.53125 -1.421875 13.0625 8.265625 
Q 6.59375 17.96875 6.59375 36.375 
Q 6.59375 54.828125 13.0625 64.515625 
Q 19.53125 74.21875 31.78125 74.21875 
z
" id="DejaVuSans-48"/>
      </defs>
      <g transform="translate(99.44049 322.182437)scale(0.1 -0.1)">
       <use xlink:href="#DejaVuSans-50"/>
       <use x="63.623047" xlink:href="#DejaVuSans-48"/>
      </g>
     </g>
    </g>
    <g id="xtick_2">
     <g id="line2d_2">
      <g>
       <use style="stroke:#000000;stroke-width:0.8;" x="167.71144" xlink:href="#m3ca7db2608" y="307.584"/>
      </g>
     </g>
     <g id="text_2">
      <!-- 40 -->
      <defs>
       <path d="M 37.796875 64.3125 
L 12.890625 25.390625 
L 37.796875 25.390625 
z
M 35.203125 72.90625 
L 47.609375 72.90625 
L 47.609375 25.390625 
L 58.015625 25.390625 
L 58.015625 17.1875 
L 47.609375 17.1875 
L 47.609375 0 
L 37.796875 0 
L 37.796875 17.1875 
L 4.890625 17.1875 
L 4.890625 26.703125 
z
" id="DejaVuSans-52"/>
      </defs>
      <g transform="translate(161.34894 322.182437)scale(0.1 -0.1)">
       <use xlink:href="#DejaVuSans-52"/>
       <use x="63.623047" xlink:href="#DejaVuSans-48"/>
      </g>
     </g>
    </g>
    <g id="xtick_3">
     <g id="line2d_3">
      <g>
       <use style="stroke:#000000;stroke-width:0.8;" x="229.61989" xlink:href="#m3ca7db2608" y="307.584"/>
      </g>
     </g>
     <g id="text_3">
      <!-- 60 -->
      <defs>
       <path d="M 33.015625 40.375 
Q 26.375 40.375 22.484375 35.828125 
Q 18.609375 31.296875 18.609375 23.390625 
Q 18.609375 15.53125 22.484375 10.953125 
Q 26.375 6.390625 33.015625 6.390625 
Q 39.65625 6.390625 43.53125 10.953125 
Q 47.40625 15.53125 47.40625 23.390625 
Q 47.40625 31.296875 43.53125 35.828125 
Q 39.65625 40.375 33.015625 40.375 
z
M 52.59375 71.296875 
L 52.59375 62.3125 
Q 48.875 64.0625 45.09375 64.984375 
Q 41.3125 65.921875 37.59375 65.921875 
Q 27.828125 65.921875 22.671875 59.328125 
Q 17.53125 52.734375 16.796875 39.40625 
Q 19.671875 43.65625 24.015625 45.921875 
Q 28.375 48.1875 33.59375 48.1875 
Q 44.578125 48.1875 50.953125 41.515625 
Q 57.328125 34.859375 57.328125 23.390625 
Q 57.328125 12.15625 50.6875 5.359375 
Q 44.046875 -1.421875 33.015625 -1.421875 
Q 20.359375 -1.421875 13.671875 8.265625 
Q 6.984375 17.96875 6.984375 36.375 
Q 6.984375 53.65625 15.1875 63.9375 
Q 23.390625 74.21875 37.203125 74.21875 
Q 40.921875 74.21875 44.703125 73.484375 
Q 48.484375 72.75 52.59375 71.296875 
z
" id="DejaVuSans-54"/>
      </defs>
      <g transform="translate(223.25739 322.182437)scale(0.1 -0.1)">
       <use xlink:href="#DejaVuSans-54"/>
       <use x="63.623047" xlink:href="#DejaVuSans-48"/>
      </g>
     </g>
    </g>
    <g id="xtick_4">
     <g id="line2d_4">
      <g>
       <use style="stroke:#000000;stroke-width:0.8;" x="291.52834" xlink:href="#m3ca7db2608" y="307.584"/>
      </g>
     </g>
     <g id="text_4">
      <!-- 80 -->
      <defs>
       <path d="M 31.78125 34.625 
Q 24.75 34.625 20.71875 30.859375 
Q 16.703125 27.09375 16.703125 20.515625 
Q 16.703125 13.921875 20.71875 10.15625 
Q 24.75 6.390625 31.78125 6.390625 
Q 38.8125 6.390625 42.859375 10.171875 
Q 46.921875 13.96875 46.921875 20.515625 
Q 46.921875 27.09375 42.890625 30.859375 
Q 38.875 34.625 31.78125 34.625 
z
M 21.921875 38.8125 
Q 15.578125 40.375 12.03125 44.71875 
Q 8.5 49.078125 8.5 55.328125 
Q 8.5 64.0625 14.71875 69.140625 
Q 20.953125 74.21875 31.78125 74.21875 
Q 42.671875 74.21875 48.875 69.140625 
Q 55.078125 64.0625 55.078125 55.328125 
Q 55.078125 49.078125 51.53125 44.71875 
Q 48 40.375 41.703125 38.8125 
Q 48.828125 37.15625 52.796875 32.3125 
Q 56.78125 27.484375 56.78125 20.515625 
Q 56.78125 9.90625 50.3125 4.234375 
Q 43.84375 -1.421875 31.78125 -1.421875 
Q 19.734375 -1.421875 13.25 4.234375 
Q 6.78125 9.90625 6.78125 20.515625 
Q 6.78125 27.484375 10.78125 32.3125 
Q 14.796875 37.15625 21.921875 38.8125 
z
M 18.3125 54.390625 
Q 18.3125 48.734375 21.84375 45.5625 
Q 25.390625 42.390625 31.78125 42.390625 
Q 38.140625 42.390625 41.71875 45.5625 
Q 45.3125 48.734375 45.3125 54.390625 
Q 45.3125 60.0625 41.71875 63.234375 
Q 38.140625 66.40625 31.78125 66.40625 
Q 25.390625 66.40625 21.84375 63.234375 
Q 18.3125 60.0625 18.3125 54.390625 
z
" id="DejaVuSans-56"/>
      </defs>
      <g transform="translate(285.16584 322.182437)scale(0.1 -0.1)">
       <use xlink:href="#DejaVuSans-56"/>
       <use x="63.623047" xlink:href="#DejaVuSans-48"/>
      </g>
     </g>
    </g>
    <g id="xtick_5">
     <g id="line2d_5">
      <g>
       <use style="stroke:#000000;stroke-width:0.8;" x="353.43679" xlink:href="#m3ca7db2608" y="307.584"/>
      </g>
     </g>
     <g id="text_5">
      <!-- 100 -->
      <defs>
       <path d="M 12.40625 8.296875 
L 28.515625 8.296875 
L 28.515625 63.921875 
L 10.984375 60.40625 
L 10.984375 69.390625 
L 28.421875 72.90625 
L 38.28125 72.90625 
L 38.28125 8.296875 
L 54.390625 8.296875 
L 54.390625 0 
L 12.40625 0 
z
" id="DejaVuSans-49"/>
      </defs>
      <g transform="translate(343.89304 322.182437)scale(0.1 -0.1)">
       <use xlink:href="#DejaVuSans-49"/>
       <use x="63.623047" xlink:href="#DejaVuSans-48"/>
       <use x="127.246094" xlink:href="#DejaVuSans-48"/>
      </g>
     </g>
    </g>
    <g id="text_6">
     <!-- x values -->
     <defs>
      <path d="M 54.890625 54.6875 
L 35.109375 28.078125 
L 55.90625 0 
L 45.3125 0 
L 29.390625 21.484375 
L 13.484375 0 
L 2.875 0 
L 24.125 28.609375 
L 4.6875 54.6875 
L 15.28125 54.6875 
L 29.78125 35.203125 
L 44.28125 54.6875 
z
" id="DejaVuSans-120"/>
      <path id="DejaVuSans-32"/>
      <path d="M 2.984375 54.6875 
L 12.5 54.6875 
L 29.59375 8.796875 
L 46.6875 54.6875 
L 56.203125 54.6875 
L 35.6875 0 
L 23.484375 0 
z
" id="DejaVuSans-118"/>
      <path d="M 34.28125 27.484375 
Q 23.390625 27.484375 19.1875 25 
Q 14.984375 22.515625 14.984375 16.5 
Q 14.984375 11.71875 18.140625 8.90625 
Q 21.296875 6.109375 26.703125 6.109375 
Q 34.1875 6.109375 38.703125 11.40625 
Q 43.21875 16.703125 43.21875 25.484375 
L 43.21875 27.484375 
z
M 52.203125 31.203125 
L 52.203125 0 
L 43.21875 0 
L 43.21875 8.296875 
Q 40.140625 3.328125 35.546875 0.953125 
Q 30.953125 -1.421875 24.3125 -1.421875 
Q 15.921875 -1.421875 10.953125 3.296875 
Q 6 8.015625 6 15.921875 
Q 6 25.140625 12.171875 29.828125 
Q 18.359375 34.515625 30.609375 34.515625 
L 43.21875 34.515625 
L 43.21875 35.40625 
Q 43.21875 41.609375 39.140625 45 
Q 35.0625 48.390625 27.6875 48.390625 
Q 23 48.390625 18.546875 47.265625 
Q 14.109375 46.140625 10.015625 43.890625 
L 10.015625 52.203125 
Q 14.9375 54.109375 19.578125 55.046875 
Q 24.21875 56 28.609375 56 
Q 40.484375 56 46.34375 49.84375 
Q 52.203125 43.703125 52.203125 31.203125 
z
" id="DejaVuSans-97"/>
      <path d="M 9.421875 75.984375 
L 18.40625 75.984375 
L 18.40625 0 
L 9.421875 0 
z
" id="DejaVuSans-108"/>
      <path d="M 8.5 21.578125 
L 8.5 54.6875 
L 17.484375 54.6875 
L 17.484375 21.921875 
Q 17.484375 14.15625 20.5 10.265625 
Q 23.53125 6.390625 29.59375 6.390625 
Q 36.859375 6.390625 41.078125 11.03125 
Q 45.3125 15.671875 45.3125 23.6875 
L 45.3125 54.6875 
L 54.296875 54.6875 
L 54.296875 0 
L 45.3125 0 
L 45.3125 8.40625 
Q 42.046875 3.421875 37.71875 1 
Q 33.40625 -1.421875 27.6875 -1.421875 
Q 18.265625 -1.421875 13.375 4.4375 
Q 8.5 10.296875 8.5 21.578125 
z
M 31.109375 56 
z
" id="DejaVuSans-117"/>
      <path d="M 56.203125 29.59375 
L 56.203125 25.203125 
L 14.890625 25.203125 
Q 15.484375 15.921875 20.484375 11.0625 
Q 25.484375 6.203125 34.421875 6.203125 
Q 39.59375 6.203125 44.453125 7.46875 
Q 49.3125 8.734375 54.109375 11.28125 
L 54.109375 2.78125 
Q 49.265625 0.734375 44.1875 -0.34375 
Q 39.109375 -1.421875 33.890625 -1.421875 
Q 20.796875 -1.421875 13.15625 6.1875 
Q 5.515625 13.8125 5.515625 26.8125 
Q 5.515625 40.234375 12.765625 48.109375 
Q 20.015625 56 32.328125 56 
Q 43.359375 56 49.78125 48.890625 
Q 56.203125 41.796875 56.203125 29.59375 
z
M 47.21875 32.234375 
Q 47.125 39.59375 43.09375 43.984375 
Q 39.0625 48.390625 32.421875 48.390625 
Q 24.90625 48.390625 20.390625 44.140625 
Q 15.875 39.890625 15.1875 32.171875 
z
" id="DejaVuSans-101"/>
      <path d="M 44.28125 53.078125 
L 44.28125 44.578125 
Q 40.484375 46.53125 36.375 47.5 
Q 32.28125 48.484375 27.875 48.484375 
Q 21.1875 48.484375 17.84375 46.4375 
Q 14.5 44.390625 14.5 40.28125 
Q 14.5 37.15625 16.890625 35.375 
Q 19.28125 33.59375 26.515625 31.984375 
L 29.59375 31.296875 
Q 39.15625 29.25 43.1875 25.515625 
Q 47.21875 21.78125 47.21875 15.09375 
Q 47.21875 7.46875 41.1875 3.015625 
Q 35.15625 -1.421875 24.609375 -1.421875 
Q 20.21875 -1.421875 15.453125 -0.5625 
Q 10.6875 0.296875 5.421875 2 
L 5.421875 11.28125 
Q 10.40625 8.6875 15.234375 7.390625 
Q 20.0625 6.109375 24.8125 6.109375 
Q 31.15625 6.109375 34.5625 8.28125 
Q 37.984375 10.453125 37.984375 14.40625 
Q 37.984375 18.0625 35.515625 20.015625 
Q 33.0625 21.96875 24.703125 23.78125 
L 21.578125 24.515625 
Q 13.234375 26.265625 9.515625 29.90625 
Q 5.8125 33.546875 5.8125 39.890625 
Q 5.8125 47.609375 11.28125 51.796875 
Q 16.75 56 26.8125 56 
Q 31.78125 56 36.171875 55.265625 
Q 40.578125 54.546875 44.28125 53.078125 
z
" id="DejaVuSans-115"/>
     </defs>
     <g transform="translate(215.349063 335.860562)scale(0.1 -0.1)">
      <use xlink:href="#DejaVuSans-120"/>
      <use x="59.179688" xlink:href="#DejaVuSans-32"/>
      <use x="90.966797" xlink:href="#DejaVuSans-118"/>
      <use x="150.146484" xlink:href="#DejaVuSans-97"/>
      <use x="211.425781" xlink:href="#DejaVuSans-108"/>
      <use x="239.208984" xlink:href="#DejaVuSans-117"/>
      <use x="302.587891" xlink:href="#DejaVuSans-101"/>
      <use x="364.111328" xlink:href="#DejaVuSans-115"/>
     </g>
    </g>
   </g>
   <g id="matplotlib.axis_2">
    <g id="ytick_1">
     <g id="line2d_6">
      <defs>
       <path d="M 0 0 
L -3.5 0 
" id="m1cb94d26d3" style="stroke:#000000;stroke-width:0.8;"/>
      </defs>
      <g>
       <use style="stroke:#000000;stroke-width:0.8;" x="57.6" xlink:href="#m1cb94d26d3" y="294.601499"/>
      </g>
     </g>
     <g id="text_7">
      <!-- 0 -->
      <g transform="translate(44.2375 298.400718)scale(0.1 -0.1)">
       <use xlink:href="#DejaVuSans-48"/>
      </g>
     </g>
    </g>
    <g id="ytick_2">
     <g id="line2d_7">
      <g>
       <use style="stroke:#000000;stroke-width:0.8;" x="57.6" xlink:href="#m1cb94d26d3" y="253.205175"/>
      </g>
     </g>
     <g id="text_8">
      <!-- 500 -->
      <defs>
       <path d="M 10.796875 72.90625 
L 49.515625 72.90625 
L 49.515625 64.59375 
L 19.828125 64.59375 
L 19.828125 46.734375 
Q 21.96875 47.46875 24.109375 47.828125 
Q 26.265625 48.1875 28.421875 48.1875 
Q 40.625 48.1875 47.75 41.5 
Q 54.890625 34.8125 54.890625 23.390625 
Q 54.890625 11.625 47.5625 5.09375 
Q 40.234375 -1.421875 26.90625 -1.421875 
Q 22.3125 -1.421875 17.546875 -0.640625 
Q 12.796875 0.140625 7.71875 1.703125 
L 7.71875 11.625 
Q 12.109375 9.234375 16.796875 8.0625 
Q 21.484375 6.890625 26.703125 6.890625 
Q 35.15625 6.890625 40.078125 11.328125 
Q 45.015625 15.765625 45.015625 23.390625 
Q 45.015625 31 40.078125 35.4375 
Q 35.15625 39.890625 26.703125 39.890625 
Q 22.75 39.890625 18.8125 39.015625 
Q 14.890625 38.140625 10.796875 36.28125 
z
" id="DejaVuSans-53"/>
      </defs>
      <g transform="translate(31.5125 257.004394)scale(0.1 -0.1)">
       <use xlink:href="#DejaVuSans-53"/>
       <use x="63.623047" xlink:href="#DejaVuSans-48"/>
       <use x="127.246094" xlink:href="#DejaVuSans-48"/>
      </g>
     </g>
    </g>
    <g id="ytick_3">
     <g id="line2d_8">
      <g>
       <use style="stroke:#000000;stroke-width:0.8;" x="57.6" xlink:href="#m1cb94d26d3" y="211.808852"/>
      </g>
     </g>
     <g id="text_9">
      <!-- 1000 -->
      <g transform="translate(25.15 215.60807)scale(0.1 -0.1)">
       <use xlink:href="#DejaVuSans-49"/>
       <use x="63.623047" xlink:href="#DejaVuSans-48"/>
       <use x="127.246094" xlink:href="#DejaVuSans-48"/>
       <use x="190.869141" xlink:href="#DejaVuSans-48"/>
      </g>
     </g>
    </g>
    <g id="ytick_4">
     <g id="line2d_9">
      <g>
       <use style="stroke:#000000;stroke-width:0.8;" x="57.6" xlink:href="#m1cb94d26d3" y="170.412528"/>
      </g>
     </g>
     <g id="text_10">
      <!-- 1500 -->
      <g transform="translate(25.15 174.211747)scale(0.1 -0.1)">
       <use xlink:href="#DejaVuSans-49"/>
       <use x="63.623047" xlink:href="#DejaVuSans-53"/>
       <use x="127.246094" xlink:href="#DejaVuSans-48"/>
       <use x="190.869141" xlink:href="#DejaVuSans-48"/>
      </g>
     </g>
    </g>
    <g id="ytick_5">
     <g id="line2d_10">
      <g>
       <use style="stroke:#000000;stroke-width:0.8;" x="57.6" xlink:href="#m1cb94d26d3" y="129.016204"/>
      </g>
     </g>
     <g id="text_11">
      <!-- 2000 -->
      <g transform="translate(25.15 132.815423)scale(0.1 -0.1)">
       <use xlink:href="#DejaVuSans-50"/>
       <use x="63.623047" xlink:href="#DejaVuSans-48"/>
       <use x="127.246094" xlink:href="#DejaVuSans-48"/>
       <use x="190.869141" xlink:href="#DejaVuSans-48"/>
      </g>
     </g>
    </g>
    <g id="ytick_6">
     <g id="line2d_11">
      <g>
       <use style="stroke:#000000;stroke-width:0.8;" x="57.6" xlink:href="#m1cb94d26d3" y="87.61988"/>
      </g>
     </g>
     <g id="text_12">
      <!-- 2500 -->
      <g transform="translate(25.15 91.419099)scale(0.1 -0.1)">
       <use xlink:href="#DejaVuSans-50"/>
       <use x="63.623047" xlink:href="#DejaVuSans-53"/>
       <use x="127.246094" xlink:href="#DejaVuSans-48"/>
       <use x="190.869141" xlink:href="#DejaVuSans-48"/>
      </g>
     </g>
    </g>
    <g id="ytick_7">
     <g id="line2d_12">
      <g>
       <use style="stroke:#000000;stroke-width:0.8;" x="57.6" xlink:href="#m1cb94d26d3" y="46.223557"/>
      </g>
     </g>
     <g id="text_13">
      <!-- 3000 -->
      <defs>
       <path d="M 40.578125 39.3125 
Q 47.65625 37.796875 51.625 33 
Q 55.609375 28.21875 55.609375 21.1875 
Q 55.609375 10.40625 48.1875 4.484375 
Q 40.765625 -1.421875 27.09375 -1.421875 
Q 22.515625 -1.421875 17.65625 -0.515625 
Q 12.796875 0.390625 7.625 2.203125 
L 7.625 11.71875 
Q 11.71875 9.328125 16.59375 8.109375 
Q 21.484375 6.890625 26.8125 6.890625 
Q 36.078125 6.890625 40.9375 10.546875 
Q 45.796875 14.203125 45.796875 21.1875 
Q 45.796875 27.640625 41.28125 31.265625 
Q 36.765625 34.90625 28.71875 34.90625 
L 20.21875 34.90625 
L 20.21875 43.015625 
L 29.109375 43.015625 
Q 36.375 43.015625 40.234375 45.921875 
Q 44.09375 48.828125 44.09375 54.296875 
Q 44.09375 59.90625 40.109375 62.90625 
Q 36.140625 65.921875 28.71875 65.921875 
Q 24.65625 65.921875 20.015625 65.03125 
Q 15.375 64.15625 9.8125 62.3125 
L 9.8125 71.09375 
Q 15.4375 72.65625 20.34375 73.4375 
Q 25.25 74.21875 29.59375 74.21875 
Q 40.828125 74.21875 47.359375 69.109375 
Q 53.90625 64.015625 53.90625 55.328125 
Q 53.90625 49.265625 50.4375 45.09375 
Q 46.96875 40.921875 40.578125 39.3125 
z
" id="DejaVuSans-51"/>
      </defs>
      <g transform="translate(25.15 50.022775)scale(0.1 -0.1)">
       <use xlink:href="#DejaVuSans-51"/>
       <use x="63.623047" xlink:href="#DejaVuSans-48"/>
       <use x="127.246094" xlink:href="#DejaVuSans-48"/>
       <use x="190.869141" xlink:href="#DejaVuSans-48"/>
      </g>
     </g>
    </g>
    <g id="text_14">
     <!-- y values -->
     <defs>
      <path d="M 32.171875 -5.078125 
Q 28.375 -14.84375 24.75 -17.8125 
Q 21.140625 -20.796875 15.09375 -20.796875 
L 7.90625 -20.796875 
L 7.90625 -13.28125 
L 13.1875 -13.28125 
Q 16.890625 -13.28125 18.9375 -11.515625 
Q 21 -9.765625 23.484375 -3.21875 
L 25.09375 0.875 
L 2.984375 54.6875 
L 12.5 54.6875 
L 29.59375 11.921875 
L 46.6875 54.6875 
L 56.203125 54.6875 
z
" id="DejaVuSans-121"/>
     </defs>
     <g transform="translate(19.070312 195.338937)rotate(-90)scale(0.1 -0.1)">
      <use xlink:href="#DejaVuSans-121"/>
      <use x="59.179688" xlink:href="#DejaVuSans-32"/>
      <use x="90.966797" xlink:href="#DejaVuSans-118"/>
      <use x="150.146484" xlink:href="#DejaVuSans-97"/>
      <use x="211.425781" xlink:href="#DejaVuSans-108"/>
      <use x="239.208984" xlink:href="#DejaVuSans-117"/>
      <use x="302.587891" xlink:href="#DejaVuSans-101"/>
      <use x="364.111328" xlink:href="#DejaVuSans-115"/>
     </g>
    </g>
   </g>
   <g id="line2d_13">
    <defs>
     <path d="M 0 1 
C 0.265203 1 0.51958 0.894634 0.707107 0.707107 
C 0.894634 0.51958 1 0.265203 1 0 
C 1 -0.265203 0.894634 -0.51958 0.707107 -0.707107 
C 0.51958 -0.894634 0.265203 -1 0 -1 
C -0.265203 -1 -0.51958 -0.894634 -0.707107 -0.707107 
C -0.894634 -0.51958 -1 -0.265203 -1 0 
C -1 0.265203 -0.894634 0.51958 -0.707107 0.707107 
C -0.51958 0.894634 -0.265203 1 0 1 
z
" id="m1656b385bf" style="stroke:#ff0000;"/>
    </defs>
    <g clip-path="url(#pf70800e783)">
     <use style="fill:#ff0000;stroke:#ff0000;" x="73.832727" xlink:href="#m1656b385bf" y="220.596654"/>
     <use style="fill:#ff0000;stroke:#ff0000;" x="75.126172" xlink:href="#m1656b385bf" y="214.456876"/>
     <use style="fill:#ff0000;stroke:#ff0000;" x="76.419616" xlink:href="#m1656b385bf" y="210.921617"/>
     <use style="fill:#ff0000;stroke:#ff0000;" x="77.71306" xlink:href="#m1656b385bf" y="209.441301"/>
     <use style="fill:#ff0000;stroke:#ff0000;" x="79.006505" xlink:href="#m1656b385bf" y="224.930004"/>
     <use style="fill:#ff0000;stroke:#ff0000;" x="80.299949" xlink:href="#m1656b385bf" y="226.665352"/>
     <use style="fill:#ff0000;stroke:#ff0000;" x="81.593394" xlink:href="#m1656b385bf" y="235.636167"/>
     <use style="fill:#ff0000;stroke:#ff0000;" x="82.886838" xlink:href="#m1656b385bf" y="219.994946"/>
     <use style="fill:#ff0000;stroke:#ff0000;" x="84.180283" xlink:href="#m1656b385bf" y="220.608004"/>
     <use style="fill:#ff0000;stroke:#ff0000;" x="85.473727" xlink:href="#m1656b385bf" y="231.060167"/>
     <use style="fill:#ff0000;stroke:#ff0000;" x="86.767171" xlink:href="#m1656b385bf" y="224.113918"/>
     <use style="fill:#ff0000;stroke:#ff0000;" x="88.060616" xlink:href="#m1656b385bf" y="233.683901"/>
     <use style="fill:#ff0000;stroke:#ff0000;" x="89.35406" xlink:href="#m1656b385bf" y="224.390663"/>
     <use style="fill:#ff0000;stroke:#ff0000;" x="90.647505" xlink:href="#m1656b385bf" y="244.175313"/>
     <use style="fill:#ff0000;stroke:#ff0000;" x="91.940949" xlink:href="#m1656b385bf" y="236.509681"/>
     <use style="fill:#ff0000;stroke:#ff0000;" x="93.234393" xlink:href="#m1656b385bf" y="248.222668"/>
     <use style="fill:#ff0000;stroke:#ff0000;" x="94.527838" xlink:href="#m1656b385bf" y="229.907194"/>
     <use style="fill:#ff0000;stroke:#ff0000;" x="95.821282" xlink:href="#m1656b385bf" y="251.661769"/>
     <use style="fill:#ff0000;stroke:#ff0000;" x="97.114727" xlink:href="#m1656b385bf" y="240.744253"/>
     <use style="fill:#ff0000;stroke:#ff0000;" x="98.408171" xlink:href="#m1656b385bf" y="240.196334"/>
     <use style="fill:#ff0000;stroke:#ff0000;" x="99.701615" xlink:href="#m1656b385bf" y="244.94577"/>
     <use style="fill:#ff0000;stroke:#ff0000;" x="100.99506" xlink:href="#m1656b385bf" y="242.506888"/>
     <use style="fill:#ff0000;stroke:#ff0000;" x="102.288504" xlink:href="#m1656b385bf" y="255.959573"/>
     <use style="fill:#ff0000;stroke:#ff0000;" x="103.581949" xlink:href="#m1656b385bf" y="253.159788"/>
     <use style="fill:#ff0000;stroke:#ff0000;" x="104.875393" xlink:href="#m1656b385bf" y="242.983099"/>
     <use style="fill:#ff0000;stroke:#ff0000;" x="106.168837" xlink:href="#m1656b385bf" y="243.287532"/>
     <use style="fill:#ff0000;stroke:#ff0000;" x="107.462282" xlink:href="#m1656b385bf" y="246.412001"/>
     <use style="fill:#ff0000;stroke:#ff0000;" x="108.755726" xlink:href="#m1656b385bf" y="252.968684"/>
     <use style="fill:#ff0000;stroke:#ff0000;" x="110.049171" xlink:href="#m1656b385bf" y="263.712551"/>
     <use style="fill:#ff0000;stroke:#ff0000;" x="111.342615" xlink:href="#m1656b385bf" y="258.434893"/>
     <use style="fill:#ff0000;stroke:#ff0000;" x="112.636059" xlink:href="#m1656b385bf" y="254.858867"/>
     <use style="fill:#ff0000;stroke:#ff0000;" x="113.929504" xlink:href="#m1656b385bf" y="253.917843"/>
     <use style="fill:#ff0000;stroke:#ff0000;" x="115.222948" xlink:href="#m1656b385bf" y="264.273869"/>
     <use style="fill:#ff0000;stroke:#ff0000;" x="116.516393" xlink:href="#m1656b385bf" y="261.19682"/>
     <use style="fill:#ff0000;stroke:#ff0000;" x="117.809837" xlink:href="#m1656b385bf" y="269.514259"/>
     <use style="fill:#ff0000;stroke:#ff0000;" x="119.103281" xlink:href="#m1656b385bf" y="261.648211"/>
     <use style="fill:#ff0000;stroke:#ff0000;" x="120.396726" xlink:href="#m1656b385bf" y="268.148835"/>
     <use style="fill:#ff0000;stroke:#ff0000;" x="121.69017" xlink:href="#m1656b385bf" y="269.180032"/>
     <use style="fill:#ff0000;stroke:#ff0000;" x="122.983615" xlink:href="#m1656b385bf" y="262.30715"/>
     <use style="fill:#ff0000;stroke:#ff0000;" x="124.277059" xlink:href="#m1656b385bf" y="269.483736"/>
     <use style="fill:#ff0000;stroke:#ff0000;" x="125.570503" xlink:href="#m1656b385bf" y="273.749076"/>
     <use style="fill:#ff0000;stroke:#ff0000;" x="126.863948" xlink:href="#m1656b385bf" y="272.574847"/>
     <use style="fill:#ff0000;stroke:#ff0000;" x="128.157392" xlink:href="#m1656b385bf" y="271.034309"/>
     <use style="fill:#ff0000;stroke:#ff0000;" x="129.450837" xlink:href="#m1656b385bf" y="273.251595"/>
     <use style="fill:#ff0000;stroke:#ff0000;" x="130.744281" xlink:href="#m1656b385bf" y="276.113817"/>
     <use style="fill:#ff0000;stroke:#ff0000;" x="132.037725" xlink:href="#m1656b385bf" y="275.170986"/>
     <use style="fill:#ff0000;stroke:#ff0000;" x="133.33117" xlink:href="#m1656b385bf" y="271.145663"/>
     <use style="fill:#ff0000;stroke:#ff0000;" x="134.624614" xlink:href="#m1656b385bf" y="277.295126"/>
     <use style="fill:#ff0000;stroke:#ff0000;" x="135.918059" xlink:href="#m1656b385bf" y="271.759078"/>
     <use style="fill:#ff0000;stroke:#ff0000;" x="137.211503" xlink:href="#m1656b385bf" y="272.161045"/>
     <use style="fill:#ff0000;stroke:#ff0000;" x="138.504947" xlink:href="#m1656b385bf" y="278.540416"/>
     <use style="fill:#ff0000;stroke:#ff0000;" x="139.798392" xlink:href="#m1656b385bf" y="280.599603"/>
     <use style="fill:#ff0000;stroke:#ff0000;" x="141.091836" xlink:href="#m1656b385bf" y="282.367759"/>
     <use style="fill:#ff0000;stroke:#ff0000;" x="142.385281" xlink:href="#m1656b385bf" y="278.672504"/>
     <use style="fill:#ff0000;stroke:#ff0000;" x="143.678725" xlink:href="#m1656b385bf" y="281.322019"/>
     <use style="fill:#ff0000;stroke:#ff0000;" x="144.97217" xlink:href="#m1656b385bf" y="282.407125"/>
     <use style="fill:#ff0000;stroke:#ff0000;" x="146.265614" xlink:href="#m1656b385bf" y="278.740807"/>
     <use style="fill:#ff0000;stroke:#ff0000;" x="147.559058" xlink:href="#m1656b385bf" y="279.048194"/>
     <use style="fill:#ff0000;stroke:#ff0000;" x="148.852503" xlink:href="#m1656b385bf" y="279.840842"/>
     <use style="fill:#ff0000;stroke:#ff0000;" x="150.145947" xlink:href="#m1656b385bf" y="283.105276"/>
     <use style="fill:#ff0000;stroke:#ff0000;" x="151.439392" xlink:href="#m1656b385bf" y="284.895909"/>
     <use style="fill:#ff0000;stroke:#ff0000;" x="152.732836" xlink:href="#m1656b385bf" y="283.983816"/>
     <use style="fill:#ff0000;stroke:#ff0000;" x="154.02628" xlink:href="#m1656b385bf" y="287.653024"/>
     <use style="fill:#ff0000;stroke:#ff0000;" x="155.319725" xlink:href="#m1656b385bf" y="286.066564"/>
     <use style="fill:#ff0000;stroke:#ff0000;" x="156.613169" xlink:href="#m1656b385bf" y="286.884557"/>
     <use style="fill:#ff0000;stroke:#ff0000;" x="157.906614" xlink:href="#m1656b385bf" y="284.941006"/>
     <use style="fill:#ff0000;stroke:#ff0000;" x="159.200058" xlink:href="#m1656b385bf" y="288.092135"/>
     <use style="fill:#ff0000;stroke:#ff0000;" x="160.493502" xlink:href="#m1656b385bf" y="286.482192"/>
     <use style="fill:#ff0000;stroke:#ff0000;" x="161.786947" xlink:href="#m1656b385bf" y="288.205474"/>
     <use style="fill:#ff0000;stroke:#ff0000;" x="163.080391" xlink:href="#m1656b385bf" y="288.903128"/>
     <use style="fill:#ff0000;stroke:#ff0000;" x="164.373836" xlink:href="#m1656b385bf" y="290.446694"/>
     <use style="fill:#ff0000;stroke:#ff0000;" x="165.66728" xlink:href="#m1656b385bf" y="291.924747"/>
     <use style="fill:#ff0000;stroke:#ff0000;" x="166.960724" xlink:href="#m1656b385bf" y="287.577175"/>
     <use style="fill:#ff0000;stroke:#ff0000;" x="168.254169" xlink:href="#m1656b385bf" y="290.631841"/>
     <use style="fill:#ff0000;stroke:#ff0000;" x="169.547613" xlink:href="#m1656b385bf" y="288.206383"/>
     <use style="fill:#ff0000;stroke:#ff0000;" x="170.841058" xlink:href="#m1656b385bf" y="290.632593"/>
     <use style="fill:#ff0000;stroke:#ff0000;" x="172.134502" xlink:href="#m1656b385bf" y="292.630191"/>
     <use style="fill:#ff0000;stroke:#ff0000;" x="173.427946" xlink:href="#m1656b385bf" y="291.790912"/>
     <use style="fill:#ff0000;stroke:#ff0000;" x="174.721391" xlink:href="#m1656b385bf" y="290.595918"/>
     <use style="fill:#ff0000;stroke:#ff0000;" x="176.014835" xlink:href="#m1656b385bf" y="291.769497"/>
     <use style="fill:#ff0000;stroke:#ff0000;" x="177.30828" xlink:href="#m1656b385bf" y="293.615767"/>
     <use style="fill:#ff0000;stroke:#ff0000;" x="178.601724" xlink:href="#m1656b385bf" y="292.520023"/>
     <use style="fill:#ff0000;stroke:#ff0000;" x="179.895168" xlink:href="#m1656b385bf" y="292.435193"/>
     <use style="fill:#ff0000;stroke:#ff0000;" x="181.188613" xlink:href="#m1656b385bf" y="291.770421"/>
     <use style="fill:#ff0000;stroke:#ff0000;" x="182.482057" xlink:href="#m1656b385bf" y="293.002732"/>
     <use style="fill:#ff0000;stroke:#ff0000;" x="183.775502" xlink:href="#m1656b385bf" y="295.090161"/>
     <use style="fill:#ff0000;stroke:#ff0000;" x="185.068946" xlink:href="#m1656b385bf" y="292.561604"/>
     <use style="fill:#ff0000;stroke:#ff0000;" x="186.36239" xlink:href="#m1656b385bf" y="294.742287"/>
     <use style="fill:#ff0000;stroke:#ff0000;" x="187.655835" xlink:href="#m1656b385bf" y="292.733981"/>
     <use style="fill:#ff0000;stroke:#ff0000;" x="188.949279" xlink:href="#m1656b385bf" y="292.917037"/>
     <use style="fill:#ff0000;stroke:#ff0000;" x="190.242724" xlink:href="#m1656b385bf" y="291.792591"/>
     <use style="fill:#ff0000;stroke:#ff0000;" x="191.536168" xlink:href="#m1656b385bf" y="292.184368"/>
     <use style="fill:#ff0000;stroke:#ff0000;" x="192.829612" xlink:href="#m1656b385bf" y="291.921804"/>
     <use style="fill:#ff0000;stroke:#ff0000;" x="194.123057" xlink:href="#m1656b385bf" y="294.244694"/>
     <use style="fill:#ff0000;stroke:#ff0000;" x="195.416501" xlink:href="#m1656b385bf" y="295.272789"/>
     <use style="fill:#ff0000;stroke:#ff0000;" x="196.709946" xlink:href="#m1656b385bf" y="291.912448"/>
     <use style="fill:#ff0000;stroke:#ff0000;" x="198.00339" xlink:href="#m1656b385bf" y="294.444786"/>
     <use style="fill:#ff0000;stroke:#ff0000;" x="199.296834" xlink:href="#m1656b385bf" y="292.959303"/>
     <use style="fill:#ff0000;stroke:#ff0000;" x="200.590279" xlink:href="#m1656b385bf" y="295.488"/>
     <use style="fill:#ff0000;stroke:#ff0000;" x="201.883723" xlink:href="#m1656b385bf" y="294.099223"/>
     <use style="fill:#ff0000;stroke:#ff0000;" x="203.177168" xlink:href="#m1656b385bf" y="293.76262"/>
     <use style="fill:#ff0000;stroke:#ff0000;" x="204.470612" xlink:href="#m1656b385bf" y="292.678666"/>
     <use style="fill:#ff0000;stroke:#ff0000;" x="205.764057" xlink:href="#m1656b385bf" y="293.062"/>
     <use style="fill:#ff0000;stroke:#ff0000;" x="207.057501" xlink:href="#m1656b385bf" y="294.7317"/>
     <use style="fill:#ff0000;stroke:#ff0000;" x="208.350945" xlink:href="#m1656b385bf" y="294.721684"/>
     <use style="fill:#ff0000;stroke:#ff0000;" x="209.64439" xlink:href="#m1656b385bf" y="292.282126"/>
     <use style="fill:#ff0000;stroke:#ff0000;" x="210.937834" xlink:href="#m1656b385bf" y="290.876964"/>
     <use style="fill:#ff0000;stroke:#ff0000;" x="212.231279" xlink:href="#m1656b385bf" y="292.882791"/>
     <use style="fill:#ff0000;stroke:#ff0000;" x="213.524723" xlink:href="#m1656b385bf" y="293.430484"/>
     <use style="fill:#ff0000;stroke:#ff0000;" x="214.818167" xlink:href="#m1656b385bf" y="290.029543"/>
     <use style="fill:#ff0000;stroke:#ff0000;" x="216.111612" xlink:href="#m1656b385bf" y="289.995612"/>
     <use style="fill:#ff0000;stroke:#ff0000;" x="217.405056" xlink:href="#m1656b385bf" y="293.810239"/>
     <use style="fill:#ff0000;stroke:#ff0000;" x="218.698501" xlink:href="#m1656b385bf" y="290.648231"/>
     <use style="fill:#ff0000;stroke:#ff0000;" x="219.991945" xlink:href="#m1656b385bf" y="288.752969"/>
     <use style="fill:#ff0000;stroke:#ff0000;" x="221.285389" xlink:href="#m1656b385bf" y="288.434952"/>
     <use style="fill:#ff0000;stroke:#ff0000;" x="222.578834" xlink:href="#m1656b385bf" y="289.189716"/>
     <use style="fill:#ff0000;stroke:#ff0000;" x="223.872278" xlink:href="#m1656b385bf" y="291.322956"/>
     <use style="fill:#ff0000;stroke:#ff0000;" x="225.165723" xlink:href="#m1656b385bf" y="289.518646"/>
     <use style="fill:#ff0000;stroke:#ff0000;" x="226.459167" xlink:href="#m1656b385bf" y="290.421174"/>
     <use style="fill:#ff0000;stroke:#ff0000;" x="227.752611" xlink:href="#m1656b385bf" y="289.477771"/>
     <use style="fill:#ff0000;stroke:#ff0000;" x="229.046056" xlink:href="#m1656b385bf" y="287.696349"/>
     <use style="fill:#ff0000;stroke:#ff0000;" x="230.3395" xlink:href="#m1656b385bf" y="287.341839"/>
     <use style="fill:#ff0000;stroke:#ff0000;" x="231.632945" xlink:href="#m1656b385bf" y="285.856268"/>
     <use style="fill:#ff0000;stroke:#ff0000;" x="232.926389" xlink:href="#m1656b385bf" y="284.93346"/>
     <use style="fill:#ff0000;stroke:#ff0000;" x="234.219833" xlink:href="#m1656b385bf" y="285.490563"/>
     <use style="fill:#ff0000;stroke:#ff0000;" x="235.513278" xlink:href="#m1656b385bf" y="283.828092"/>
     <use style="fill:#ff0000;stroke:#ff0000;" x="236.806722" xlink:href="#m1656b385bf" y="284.349314"/>
     <use style="fill:#ff0000;stroke:#ff0000;" x="238.100167" xlink:href="#m1656b385bf" y="284.791557"/>
     <use style="fill:#ff0000;stroke:#ff0000;" x="239.393611" xlink:href="#m1656b385bf" y="282.404638"/>
     <use style="fill:#ff0000;stroke:#ff0000;" x="240.687055" xlink:href="#m1656b385bf" y="282.19158"/>
     <use style="fill:#ff0000;stroke:#ff0000;" x="241.9805" xlink:href="#m1656b385bf" y="283.73082"/>
     <use style="fill:#ff0000;stroke:#ff0000;" x="243.273944" xlink:href="#m1656b385bf" y="279.444883"/>
     <use style="fill:#ff0000;stroke:#ff0000;" x="244.567389" xlink:href="#m1656b385bf" y="281.20923"/>
     <use style="fill:#ff0000;stroke:#ff0000;" x="245.860833" xlink:href="#m1656b385bf" y="277.732532"/>
     <use style="fill:#ff0000;stroke:#ff0000;" x="247.154277" xlink:href="#m1656b385bf" y="281.393308"/>
     <use style="fill:#ff0000;stroke:#ff0000;" x="248.447722" xlink:href="#m1656b385bf" y="278.527305"/>
     <use style="fill:#ff0000;stroke:#ff0000;" x="249.741166" xlink:href="#m1656b385bf" y="280.662234"/>
     <use style="fill:#ff0000;stroke:#ff0000;" x="251.034611" xlink:href="#m1656b385bf" y="274.095763"/>
     <use style="fill:#ff0000;stroke:#ff0000;" x="252.328055" xlink:href="#m1656b385bf" y="281.952895"/>
     <use style="fill:#ff0000;stroke:#ff0000;" x="253.621499" xlink:href="#m1656b385bf" y="276.578204"/>
     <use style="fill:#ff0000;stroke:#ff0000;" x="254.914944" xlink:href="#m1656b385bf" y="278.931696"/>
     <use style="fill:#ff0000;stroke:#ff0000;" x="256.208388" xlink:href="#m1656b385bf" y="274.641163"/>
     <use style="fill:#ff0000;stroke:#ff0000;" x="257.501833" xlink:href="#m1656b385bf" y="271.25475"/>
     <use style="fill:#ff0000;stroke:#ff0000;" x="258.795277" xlink:href="#m1656b385bf" y="275.874643"/>
     <use style="fill:#ff0000;stroke:#ff0000;" x="260.088721" xlink:href="#m1656b385bf" y="274.758397"/>
     <use style="fill:#ff0000;stroke:#ff0000;" x="261.382166" xlink:href="#m1656b385bf" y="270.36234"/>
     <use style="fill:#ff0000;stroke:#ff0000;" x="262.67561" xlink:href="#m1656b385bf" y="269.389893"/>
     <use style="fill:#ff0000;stroke:#ff0000;" x="263.969055" xlink:href="#m1656b385bf" y="266.260286"/>
     <use style="fill:#ff0000;stroke:#ff0000;" x="265.262499" xlink:href="#m1656b385bf" y="269.087552"/>
     <use style="fill:#ff0000;stroke:#ff0000;" x="266.555943" xlink:href="#m1656b385bf" y="270.774258"/>
     <use style="fill:#ff0000;stroke:#ff0000;" x="267.849388" xlink:href="#m1656b385bf" y="271.368403"/>
     <use style="fill:#ff0000;stroke:#ff0000;" x="269.142832" xlink:href="#m1656b385bf" y="272.353561"/>
     <use style="fill:#ff0000;stroke:#ff0000;" x="270.436277" xlink:href="#m1656b385bf" y="262.358264"/>
     <use style="fill:#ff0000;stroke:#ff0000;" x="271.729721" xlink:href="#m1656b385bf" y="260.606746"/>
     <use style="fill:#ff0000;stroke:#ff0000;" x="273.023166" xlink:href="#m1656b385bf" y="262.038671"/>
     <use style="fill:#ff0000;stroke:#ff0000;" x="274.31661" xlink:href="#m1656b385bf" y="256.719375"/>
     <use style="fill:#ff0000;stroke:#ff0000;" x="275.610054" xlink:href="#m1656b385bf" y="260.269214"/>
     <use style="fill:#ff0000;stroke:#ff0000;" x="276.903499" xlink:href="#m1656b385bf" y="263.969338"/>
     <use style="fill:#ff0000;stroke:#ff0000;" x="278.196943" xlink:href="#m1656b385bf" y="259.485737"/>
     <use style="fill:#ff0000;stroke:#ff0000;" x="279.490388" xlink:href="#m1656b385bf" y="257.776274"/>
     <use style="fill:#ff0000;stroke:#ff0000;" x="280.783832" xlink:href="#m1656b385bf" y="260.849352"/>
     <use style="fill:#ff0000;stroke:#ff0000;" x="282.077276" xlink:href="#m1656b385bf" y="251.619096"/>
     <use style="fill:#ff0000;stroke:#ff0000;" x="283.370721" xlink:href="#m1656b385bf" y="255.014364"/>
     <use style="fill:#ff0000;stroke:#ff0000;" x="284.664165" xlink:href="#m1656b385bf" y="258.077555"/>
     <use style="fill:#ff0000;stroke:#ff0000;" x="285.95761" xlink:href="#m1656b385bf" y="260.737612"/>
     <use style="fill:#ff0000;stroke:#ff0000;" x="287.251054" xlink:href="#m1656b385bf" y="258.195288"/>
     <use style="fill:#ff0000;stroke:#ff0000;" x="288.544498" xlink:href="#m1656b385bf" y="251.505736"/>
     <use style="fill:#ff0000;stroke:#ff0000;" x="289.837943" xlink:href="#m1656b385bf" y="240.047975"/>
     <use style="fill:#ff0000;stroke:#ff0000;" x="291.131387" xlink:href="#m1656b385bf" y="237.691418"/>
     <use style="fill:#ff0000;stroke:#ff0000;" x="292.424832" xlink:href="#m1656b385bf" y="243.851879"/>
     <use style="fill:#ff0000;stroke:#ff0000;" x="293.718276" xlink:href="#m1656b385bf" y="244.884619"/>
     <use style="fill:#ff0000;stroke:#ff0000;" x="295.01172" xlink:href="#m1656b385bf" y="243.052316"/>
     <use style="fill:#ff0000;stroke:#ff0000;" x="296.305165" xlink:href="#m1656b385bf" y="250.775037"/>
     <use style="fill:#ff0000;stroke:#ff0000;" x="297.598609" xlink:href="#m1656b385bf" y="246.229078"/>
     <use style="fill:#ff0000;stroke:#ff0000;" x="298.892054" xlink:href="#m1656b385bf" y="248.437947"/>
     <use style="fill:#ff0000;stroke:#ff0000;" x="300.185498" xlink:href="#m1656b385bf" y="244.136277"/>
     <use style="fill:#ff0000;stroke:#ff0000;" x="301.478942" xlink:href="#m1656b385bf" y="226.003845"/>
     <use style="fill:#ff0000;stroke:#ff0000;" x="302.772387" xlink:href="#m1656b385bf" y="237.28042"/>
     <use style="fill:#ff0000;stroke:#ff0000;" x="304.065831" xlink:href="#m1656b385bf" y="238.499773"/>
     <use style="fill:#ff0000;stroke:#ff0000;" x="305.359276" xlink:href="#m1656b385bf" y="229.310777"/>
     <use style="fill:#ff0000;stroke:#ff0000;" x="306.65272" xlink:href="#m1656b385bf" y="223.247416"/>
     <use style="fill:#ff0000;stroke:#ff0000;" x="307.946164" xlink:href="#m1656b385bf" y="234.192904"/>
     <use style="fill:#ff0000;stroke:#ff0000;" x="309.239609" xlink:href="#m1656b385bf" y="232.116297"/>
     <use style="fill:#ff0000;stroke:#ff0000;" x="310.533053" xlink:href="#m1656b385bf" y="229.559264"/>
     <use style="fill:#ff0000;stroke:#ff0000;" x="311.826498" xlink:href="#m1656b385bf" y="226.095611"/>
     <use style="fill:#ff0000;stroke:#ff0000;" x="313.119942" xlink:href="#m1656b385bf" y="219.205583"/>
     <use style="fill:#ff0000;stroke:#ff0000;" x="314.413386" xlink:href="#m1656b385bf" y="215.765317"/>
     <use style="fill:#ff0000;stroke:#ff0000;" x="315.706831" xlink:href="#m1656b385bf" y="228.175267"/>
     <use style="fill:#ff0000;stroke:#ff0000;" x="317.000275" xlink:href="#m1656b385bf" y="211.264643"/>
     <use style="fill:#ff0000;stroke:#ff0000;" x="318.29372" xlink:href="#m1656b385bf" y="205.031777"/>
     <use style="fill:#ff0000;stroke:#ff0000;" x="319.587164" xlink:href="#m1656b385bf" y="222.069894"/>
     <use style="fill:#ff0000;stroke:#ff0000;" x="320.880608" xlink:href="#m1656b385bf" y="205.057369"/>
     <use style="fill:#ff0000;stroke:#ff0000;" x="322.174053" xlink:href="#m1656b385bf" y="222.785572"/>
     <use style="fill:#ff0000;stroke:#ff0000;" x="323.467497" xlink:href="#m1656b385bf" y="209.326561"/>
     <use style="fill:#ff0000;stroke:#ff0000;" x="324.760942" xlink:href="#m1656b385bf" y="195.093708"/>
     <use style="fill:#ff0000;stroke:#ff0000;" x="326.054386" xlink:href="#m1656b385bf" y="188.374878"/>
     <use style="fill:#ff0000;stroke:#ff0000;" x="327.34783" xlink:href="#m1656b385bf" y="200.980709"/>
     <use style="fill:#ff0000;stroke:#ff0000;" x="328.641275" xlink:href="#m1656b385bf" y="213.47911"/>
     <use style="fill:#ff0000;stroke:#ff0000;" x="329.934719" xlink:href="#m1656b385bf" y="208.702306"/>
     <use style="fill:#ff0000;stroke:#ff0000;" x="331.228164" xlink:href="#m1656b385bf" y="217.24607"/>
     <use style="fill:#ff0000;stroke:#ff0000;" x="332.521608" xlink:href="#m1656b385bf" y="198.848338"/>
     <use style="fill:#ff0000;stroke:#ff0000;" x="333.815053" xlink:href="#m1656b385bf" y="212.173608"/>
     <use style="fill:#ff0000;stroke:#ff0000;" x="335.108497" xlink:href="#m1656b385bf" y="192.282301"/>
     <use style="fill:#ff0000;stroke:#ff0000;" x="336.401941" xlink:href="#m1656b385bf" y="205.71932"/>
     <use style="fill:#ff0000;stroke:#ff0000;" x="337.695386" xlink:href="#m1656b385bf" y="181.662596"/>
     <use style="fill:#ff0000;stroke:#ff0000;" x="338.98883" xlink:href="#m1656b385bf" y="181.920565"/>
     <use style="fill:#ff0000;stroke:#ff0000;" x="340.282275" xlink:href="#m1656b385bf" y="199.92251"/>
     <use style="fill:#ff0000;stroke:#ff0000;" x="341.575719" xlink:href="#m1656b385bf" y="184.674746"/>
     <use style="fill:#ff0000;stroke:#ff0000;" x="342.869163" xlink:href="#m1656b385bf" y="196.82378"/>
     <use style="fill:#ff0000;stroke:#ff0000;" x="344.162608" xlink:href="#m1656b385bf" y="179.927676"/>
     <use style="fill:#ff0000;stroke:#ff0000;" x="345.456052" xlink:href="#m1656b385bf" y="182.094488"/>
     <use style="fill:#ff0000;stroke:#ff0000;" x="346.749497" xlink:href="#m1656b385bf" y="156.287863"/>
     <use style="fill:#ff0000;stroke:#ff0000;" x="348.042941" xlink:href="#m1656b385bf" y="178.854702"/>
     <use style="fill:#ff0000;stroke:#ff0000;" x="349.336385" xlink:href="#m1656b385bf" y="169.004091"/>
     <use style="fill:#ff0000;stroke:#ff0000;" x="350.62983" xlink:href="#m1656b385bf" y="176.00177"/>
     <use style="fill:#ff0000;stroke:#ff0000;" x="351.923274" xlink:href="#m1656b385bf" y="167.109553"/>
     <use style="fill:#ff0000;stroke:#ff0000;" x="353.216719" xlink:href="#m1656b385bf" y="178.316878"/>
     <use style="fill:#ff0000;stroke:#ff0000;" x="354.510163" xlink:href="#m1656b385bf" y="178.753646"/>
     <use style="fill:#ff0000;stroke:#ff0000;" x="355.803607" xlink:href="#m1656b385bf" y="142.269039"/>
     <use style="fill:#ff0000;stroke:#ff0000;" x="357.097052" xlink:href="#m1656b385bf" y="172.992838"/>
     <use style="fill:#ff0000;stroke:#ff0000;" x="358.390496" xlink:href="#m1656b385bf" y="141.866897"/>
     <use style="fill:#ff0000;stroke:#ff0000;" x="359.683941" xlink:href="#m1656b385bf" y="161.364858"/>
     <use style="fill:#ff0000;stroke:#ff0000;" x="360.977385" xlink:href="#m1656b385bf" y="146.146374"/>
     <use style="fill:#ff0000;stroke:#ff0000;" x="362.270829" xlink:href="#m1656b385bf" y="173.768267"/>
     <use style="fill:#ff0000;stroke:#ff0000;" x="363.564274" xlink:href="#m1656b385bf" y="140.45457"/>
     <use style="fill:#ff0000;stroke:#ff0000;" x="364.857718" xlink:href="#m1656b385bf" y="120.957603"/>
     <use style="fill:#ff0000;stroke:#ff0000;" x="366.151163" xlink:href="#m1656b385bf" y="163.360303"/>
     <use style="fill:#ff0000;stroke:#ff0000;" x="367.444607" xlink:href="#m1656b385bf" y="161.065995"/>
     <use style="fill:#ff0000;stroke:#ff0000;" x="368.738051" xlink:href="#m1656b385bf" y="139.869291"/>
     <use style="fill:#ff0000;stroke:#ff0000;" x="370.031496" xlink:href="#m1656b385bf" y="152.263573"/>
     <use style="fill:#ff0000;stroke:#ff0000;" x="371.32494" xlink:href="#m1656b385bf" y="151.601982"/>
     <use style="fill:#ff0000;stroke:#ff0000;" x="372.618385" xlink:href="#m1656b385bf" y="119.36455"/>
     <use style="fill:#ff0000;stroke:#ff0000;" x="373.911829" xlink:href="#m1656b385bf" y="117.036114"/>
     <use style="fill:#ff0000;stroke:#ff0000;" x="375.205273" xlink:href="#m1656b385bf" y="121.006414"/>
     <use style="fill:#ff0000;stroke:#ff0000;" x="376.498718" xlink:href="#m1656b385bf" y="130.869241"/>
     <use style="fill:#ff0000;stroke:#ff0000;" x="377.792162" xlink:href="#m1656b385bf" y="146.779368"/>
     <use style="fill:#ff0000;stroke:#ff0000;" x="379.085607" xlink:href="#m1656b385bf" y="125.470958"/>
     <use style="fill:#ff0000;stroke:#ff0000;" x="380.379051" xlink:href="#m1656b385bf" y="136.838941"/>
     <use style="fill:#ff0000;stroke:#ff0000;" x="381.672495" xlink:href="#m1656b385bf" y="97.296619"/>
     <use style="fill:#ff0000;stroke:#ff0000;" x="382.96594" xlink:href="#m1656b385bf" y="143.136209"/>
     <use style="fill:#ff0000;stroke:#ff0000;" x="384.259384" xlink:href="#m1656b385bf" y="144.830254"/>
     <use style="fill:#ff0000;stroke:#ff0000;" x="385.552829" xlink:href="#m1656b385bf" y="137.033275"/>
     <use style="fill:#ff0000;stroke:#ff0000;" x="386.846273" xlink:href="#m1656b385bf" y="93.817491"/>
     <use style="fill:#ff0000;stroke:#ff0000;" x="388.139717" xlink:href="#m1656b385bf" y="86.104155"/>
     <use style="fill:#ff0000;stroke:#ff0000;" x="389.433162" xlink:href="#m1656b385bf" y="87.981091"/>
     <use style="fill:#ff0000;stroke:#ff0000;" x="390.726606" xlink:href="#m1656b385bf" y="80.815481"/>
     <use style="fill:#ff0000;stroke:#ff0000;" x="392.020051" xlink:href="#m1656b385bf" y="128.605757"/>
     <use style="fill:#ff0000;stroke:#ff0000;" x="393.313495" xlink:href="#m1656b385bf" y="53.568"/>
     <use style="fill:#ff0000;stroke:#ff0000;" x="394.60694" xlink:href="#m1656b385bf" y="68.44225"/>
     <use style="fill:#ff0000;stroke:#ff0000;" x="395.900384" xlink:href="#m1656b385bf" y="56.315955"/>
     <use style="fill:#ff0000;stroke:#ff0000;" x="397.193828" xlink:href="#m1656b385bf" y="71.11691"/>
     <use style="fill:#ff0000;stroke:#ff0000;" x="398.487273" xlink:href="#m1656b385bf" y="105.712967"/>
    </g>
   </g>
   <g id="line2d_14">
    <path clip-path="url(#pf70800e783)" d="M 73.832727 215.609886 
L 80.299949 223.648561 
L 86.767171 231.252993 
L 91.940949 237.023885 
L 97.114727 242.516861 
L 102.288504 247.731921 
L 107.462282 252.669067 
L 112.636059 257.328297 
L 117.809837 261.709612 
L 122.983615 265.813012 
L 128.157392 269.638496 
L 133.33117 273.186066 
L 138.504947 276.45572 
L 143.678725 279.447459 
L 148.852503 282.161282 
L 154.02628 284.59719 
L 159.200058 286.755183 
L 164.373836 288.635261 
L 169.547613 290.237424 
L 174.721391 291.561671 
L 179.895168 292.608003 
L 185.068946 293.37642 
L 190.242724 293.866922 
L 195.416501 294.079508 
L 200.590279 294.01418 
L 205.764057 293.670935 
L 210.937834 293.049776 
L 216.111612 292.150702 
L 221.285389 290.973712 
L 226.459167 289.518807 
L 231.632945 287.785986 
L 236.806722 285.775251 
L 241.9805 283.4866 
L 247.154277 280.920034 
L 252.328055 278.075553 
L 257.501833 274.953156 
L 262.67561 271.552845 
L 267.849388 267.874618 
L 273.023166 263.918476 
L 278.196943 259.684418 
L 283.370721 255.172445 
L 288.544498 250.382558 
L 293.718276 245.314754 
L 298.892054 239.969036 
L 304.065831 234.345402 
L 309.239609 228.443853 
L 314.413386 222.264389 
L 320.880608 214.149241 
L 327.34783 205.59985 
L 333.815053 196.616216 
L 340.282275 187.19834 
L 346.749497 177.346221 
L 353.216719 167.05986 
L 359.683941 156.339256 
L 366.151163 145.18441 
L 372.618385 133.595321 
L 379.085607 121.571989 
L 385.552829 109.114415 
L 392.020051 96.222599 
L 398.487273 82.896539 
L 398.487273 82.896539 
" style="fill:none;stroke:#008000;stroke-linecap:square;stroke-width:1.5;"/>
   </g>
   <g id="patch_3">
    <path d="M 57.6 307.584 
L 57.6 41.472 
" style="fill:none;stroke:#000000;stroke-linecap:square;stroke-linejoin:miter;stroke-width:0.8;"/>
   </g>
   <g id="patch_4">
    <path d="M 414.72 307.584 
L 414.72 41.472 
" style="fill:none;stroke:#000000;stroke-linecap:square;stroke-linejoin:miter;stroke-width:0.8;"/>
   </g>
   <g id="patch_5">
    <path d="M 57.6 307.584 
L 414.72 307.584 
" style="fill:none;stroke:#000000;stroke-linecap:square;stroke-linejoin:miter;stroke-width:0.8;"/>
   </g>
   <g id="patch_6">
    <path d="M 57.6 41.472 
L 414.72 41.472 
" style="fill:none;stroke:#000000;stroke-linecap:square;stroke-linejoin:miter;stroke-width:0.8;"/>
   </g>
   <g id="text_15">
    <!-- FunctionFitting 04 -->
    <defs>
     <path d="M 9.8125 72.90625 
L 51.703125 72.90625 
L 51.703125 64.59375 
L 19.671875 64.59375 
L 19.671875 43.109375 
L 48.578125 43.109375 
L 48.578125 34.8125 
L 19.671875 34.8125 
L 19.671875 0 
L 9.8125 0 
z
" id="DejaVuSans-70"/>
     <path d="M 54.890625 33.015625 
L 54.890625 0 
L 45.90625 0 
L 45.90625 32.71875 
Q 45.90625 40.484375 42.875 44.328125 
Q 39.84375 48.1875 33.796875 48.1875 
Q 26.515625 48.1875 22.3125 43.546875 
Q 18.109375 38.921875 18.109375 30.90625 
L 18.109375 0 
L 9.078125 0 
L 9.078125 54.6875 
L 18.109375 54.6875 
L 18.109375 46.1875 
Q 21.34375 51.125 25.703125 53.5625 
Q 30.078125 56 35.796875 56 
Q 45.21875 56 50.046875 50.171875 
Q 54.890625 44.34375 54.890625 33.015625 
z
" id="DejaVuSans-110"/>
     <path d="M 48.78125 52.59375 
L 48.78125 44.1875 
Q 44.96875 46.296875 41.140625 47.34375 
Q 37.3125 48.390625 33.40625 48.390625 
Q 24.65625 48.390625 19.8125 42.84375 
Q 14.984375 37.3125 14.984375 27.296875 
Q 14.984375 17.28125 19.8125 11.734375 
Q 24.65625 6.203125 33.40625 6.203125 
Q 37.3125 6.203125 41.140625 7.25 
Q 44.96875 8.296875 48.78125 10.40625 
L 48.78125 2.09375 
Q 45.015625 0.34375 40.984375 -0.53125 
Q 36.96875 -1.421875 32.421875 -1.421875 
Q 20.0625 -1.421875 12.78125 6.34375 
Q 5.515625 14.109375 5.515625 27.296875 
Q 5.515625 40.671875 12.859375 48.328125 
Q 20.21875 56 33.015625 56 
Q 37.15625 56 41.109375 55.140625 
Q 45.0625 54.296875 48.78125 52.59375 
z
" id="DejaVuSans-99"/>
     <path d="M 18.3125 70.21875 
L 18.3125 54.6875 
L 36.8125 54.6875 
L 36.8125 47.703125 
L 18.3125 47.703125 
L 18.3125 18.015625 
Q 18.3125 11.328125 20.140625 9.421875 
Q 21.96875 7.515625 27.59375 7.515625 
L 36.8125 7.515625 
L 36.8125 0 
L 27.59375 0 
Q 17.1875 0 13.234375 3.875 
Q 9.28125 7.765625 9.28125 18.015625 
L 9.28125 47.703125 
L 2.6875 47.703125 
L 2.6875 54.6875 
L 9.28125 54.6875 
L 9.28125 70.21875 
z
" id="DejaVuSans-116"/>
     <path d="M 9.421875 54.6875 
L 18.40625 54.6875 
L 18.40625 0 
L 9.421875 0 
z
M 9.421875 75.984375 
L 18.40625 75.984375 
L 18.40625 64.59375 
L 9.421875 64.59375 
z
" id="DejaVuSans-105"/>
     <path d="M 30.609375 48.390625 
Q 23.390625 48.390625 19.1875 42.75 
Q 14.984375 37.109375 14.984375 27.296875 
Q 14.984375 17.484375 19.15625 11.84375 
Q 23.34375 6.203125 30.609375 6.203125 
Q 37.796875 6.203125 41.984375 11.859375 
Q 46.1875 17.53125 46.1875 27.296875 
Q 46.1875 37.015625 41.984375 42.703125 
Q 37.796875 48.390625 30.609375 48.390625 
z
M 30.609375 56 
Q 42.328125 56 49.015625 48.375 
Q 55.71875 40.765625 55.71875 27.296875 
Q 55.71875 13.875 49.015625 6.21875 
Q 42.328125 -1.421875 30.609375 -1.421875 
Q 18.84375 -1.421875 12.171875 6.21875 
Q 5.515625 13.875 5.515625 27.296875 
Q 5.515625 40.765625 12.171875 48.375 
Q 18.84375 56 30.609375 56 
z
" id="DejaVuSans-111"/>
     <path d="M 45.40625 27.984375 
Q 45.40625 37.75 41.375 43.109375 
Q 37.359375 48.484375 30.078125 48.484375 
Q 22.859375 48.484375 18.828125 43.109375 
Q 14.796875 37.75 14.796875 27.984375 
Q 14.796875 18.265625 18.828125 12.890625 
Q 22.859375 7.515625 30.078125 7.515625 
Q 37.359375 7.515625 41.375 12.890625 
Q 45.40625 18.265625 45.40625 27.984375 
z
M 54.390625 6.78125 
Q 54.390625 -7.171875 48.1875 -13.984375 
Q 42 -20.796875 29.203125 -20.796875 
Q 24.46875 -20.796875 20.265625 -20.09375 
Q 16.0625 -19.390625 12.109375 -17.921875 
L 12.109375 -9.1875 
Q 16.0625 -11.328125 19.921875 -12.34375 
Q 23.78125 -13.375 27.78125 -13.375 
Q 36.625 -13.375 41.015625 -8.765625 
Q 45.40625 -4.15625 45.40625 5.171875 
L 45.40625 9.625 
Q 42.625 4.78125 38.28125 2.390625 
Q 33.9375 0 27.875 0 
Q 17.828125 0 11.671875 7.65625 
Q 5.515625 15.328125 5.515625 27.984375 
Q 5.515625 40.671875 11.671875 48.328125 
Q 17.828125 56 27.875 56 
Q 33.9375 56 38.28125 53.609375 
Q 42.625 51.21875 45.40625 46.390625 
L 45.40625 54.6875 
L 54.390625 54.6875 
z
" id="DejaVuSans-103"/>
    </defs>
    <g transform="translate(181.680937 35.472)scale(0.12 -0.12)">
     <use xlink:href="#DejaVuSans-70"/>
     <use x="57.441406" xlink:href="#DejaVuSans-117"/>
     <use x="120.820312" xlink:href="#DejaVuSans-110"/>
     <use x="184.199219" xlink:href="#DejaVuSans-99"/>
     <use x="239.179688" xlink:href="#DejaVuSans-116"/>
     <use x="278.388672" xlink:href="#DejaVuSans-105"/>
     <use x="306.171875" xlink:href="#DejaVuSans-111"/>
     <use x="367.353516" xlink:href="#DejaVuSans-110"/>
     <use x="430.732422" xlink:href="#DejaVuSans-70"/>
     <use x="488.142578" xlink:href="#DejaVuSans-105"/>
     <use x="515.925781" xlink:href="#DejaVuSans-116"/>
     <use x="555.134766" xlink:href="#DejaVuSans-116"/>
     <use x="594.34375" xlink:href="#DejaVuSans-105"/>
     <use x="622.126953" xlink:href="#DejaVuSans-110"/>
     <use x="685.505859" xlink:href="#DejaVuSans-103"/>
     <use x="748.982422" xlink:href="#DejaVuSans-32"/>
     <use x="780.769531" xlink:href="#DejaVuSans-48"/>
     <use x="844.392578" xlink:href="#DejaVuSans-52"/>
    </g>
   </g>
   <g id="legend_1">
    <g id="patch_7">
     <path d="M 64.6 78.82825 
L 172.48125 78.82825 
Q 174.48125 78.82825 174.48125 76.82825 
L 174.48125 48.472 
Q 174.48125 46.472 172.48125 46.472 
L 64.6 46.472 
Q 62.6 46.472 62.6 48.472 
L 62.6 76.82825 
Q 62.6 78.82825 64.6 78.82825 
z
" style="fill:#ffffff;opacity:0.8;stroke:#cccccc;stroke-linejoin:miter;"/>
    </g>
    <g id="line2d_15"/>
    <g id="line2d_16">
     <g>
      <use style="fill:#ff0000;stroke:#ff0000;" x="76.6" xlink:href="#m1656b385bf" y="54.570437"/>
     </g>
    </g>
    <g id="text_16">
     <!-- measured data -->
     <defs>
      <path d="M 52 44.1875 
Q 55.375 50.25 60.0625 53.125 
Q 64.75 56 71.09375 56 
Q 79.640625 56 84.28125 50.015625 
Q 88.921875 44.046875 88.921875 33.015625 
L 88.921875 0 
L 79.890625 0 
L 79.890625 32.71875 
Q 79.890625 40.578125 77.09375 44.375 
Q 74.3125 48.1875 68.609375 48.1875 
Q 61.625 48.1875 57.5625 43.546875 
Q 53.515625 38.921875 53.515625 30.90625 
L 53.515625 0 
L 44.484375 0 
L 44.484375 32.71875 
Q 44.484375 40.625 41.703125 44.40625 
Q 38.921875 48.1875 33.109375 48.1875 
Q 26.21875 48.1875 22.15625 43.53125 
Q 18.109375 38.875 18.109375 30.90625 
L 18.109375 0 
L 9.078125 0 
L 9.078125 54.6875 
L 18.109375 54.6875 
L 18.109375 46.1875 
Q 21.1875 51.21875 25.484375 53.609375 
Q 29.78125 56 35.6875 56 
Q 41.65625 56 45.828125 52.96875 
Q 50 49.953125 52 44.1875 
z
" id="DejaVuSans-109"/>
      <path d="M 41.109375 46.296875 
Q 39.59375 47.171875 37.8125 47.578125 
Q 36.03125 48 33.890625 48 
Q 26.265625 48 22.1875 43.046875 
Q 18.109375 38.09375 18.109375 28.8125 
L 18.109375 0 
L 9.078125 0 
L 9.078125 54.6875 
L 18.109375 54.6875 
L 18.109375 46.1875 
Q 20.953125 51.171875 25.484375 53.578125 
Q 30.03125 56 36.53125 56 
Q 37.453125 56 38.578125 55.875 
Q 39.703125 55.765625 41.0625 55.515625 
z
" id="DejaVuSans-114"/>
      <path d="M 45.40625 46.390625 
L 45.40625 75.984375 
L 54.390625 75.984375 
L 54.390625 0 
L 45.40625 0 
L 45.40625 8.203125 
Q 42.578125 3.328125 38.25 0.953125 
Q 33.9375 -1.421875 27.875 -1.421875 
Q 17.96875 -1.421875 11.734375 6.484375 
Q 5.515625 14.40625 5.515625 27.296875 
Q 5.515625 40.1875 11.734375 48.09375 
Q 17.96875 56 27.875 56 
Q 33.9375 56 38.25 53.625 
Q 42.578125 51.265625 45.40625 46.390625 
z
M 14.796875 27.296875 
Q 14.796875 17.390625 18.875 11.75 
Q 22.953125 6.109375 30.078125 6.109375 
Q 37.203125 6.109375 41.296875 11.75 
Q 45.40625 17.390625 45.40625 27.296875 
Q 45.40625 37.203125 41.296875 42.84375 
Q 37.203125 48.484375 30.078125 48.484375 
Q 22.953125 48.484375 18.875 42.84375 
Q 14.796875 37.203125 14.796875 27.296875 
z
" id="DejaVuSans-100"/>
     </defs>
     <g transform="translate(94.6 58.070437)scale(0.1 -0.1)">
      <use xlink:href="#DejaVuSans-109"/>
      <use x="97.412109" xlink:href="#DejaVuSans-101"/>
      <use x="158.935547" xlink:href="#DejaVuSans-97"/>
      <use x="220.214844" xlink:href="#DejaVuSans-115"/>
      <use x="272.314453" xlink:href="#DejaVuSans-117"/>
      <use x="335.693359" xlink:href="#DejaVuSans-114"/>
      <use x="376.775391" xlink:href="#DejaVuSans-101"/>
      <use x="438.298828" xlink:href="#DejaVuSans-100"/>
      <use x="501.775391" xlink:href="#DejaVuSans-32"/>
      <use x="533.5625" xlink:href="#DejaVuSans-100"/>
      <use x="597.039062" xlink:href="#DejaVuSans-97"/>
      <use x="658.318359" xlink:href="#DejaVuSans-116"/>
      <use x="697.527344" xlink:href="#DejaVuSans-97"/>
     </g>
    </g>
    <g id="line2d_17">
     <path d="M 66.6 69.248562 
L 86.6 69.248562 
" style="fill:none;stroke:#008000;stroke-linecap:square;stroke-width:1.5;"/>
    </g>
    <g id="line2d_18"/>
    <g id="text_17">
     <!-- linear data -->
     <g transform="translate(94.6 72.748562)scale(0.1 -0.1)">
      <use xlink:href="#DejaVuSans-108"/>
      <use x="27.783203" xlink:href="#DejaVuSans-105"/>
      <use x="55.566406" xlink:href="#DejaVuSans-110"/>
      <use x="118.945312" xlink:href="#DejaVuSans-101"/>
      <use x="180.46875" xlink:href="#DejaVuSans-97"/>
      <use x="241.748047" xlink:href="#DejaVuSans-114"/>
      <use x="282.861328" xlink:href="#DejaVuSans-32"/>
      <use x="314.648438" xlink:href="#DejaVuSans-100"/>
      <use x="378.125" xlink:href="#DejaVuSans-97"/>
      <use x="439.404297" xlink:href="#DejaVuSans-116"/>
      <use x="478.613281" xlink:href="#DejaVuSans-97"/>
     </g>
    </g>
   </g>
  </g>
 </g>
 <defs>
  <clipPath id="pf70800e783">
   <rect height="266.112" width="357.12" x="57.6" y="41.472"/>
  </clipPath>
 </defs>
</svg>
