<?xml version="1.0" encoding="utf-8" standalone="no"?>
<!DOCTYPE svg PUBLIC "-//W3C//DTD SVG 1.1//EN"
  "http://www.w3.org/Graphics/SVG/1.1/DTD/svg11.dtd">
<!-- Created with matplotlib (https://matplotlib.org/) -->
<svg height="345.6pt" version="1.1" viewBox="0 0 460.8 345.6" width="460.8pt" xmlns="http://www.w3.org/2000/svg" xmlns:xlink="http://www.w3.org/1999/xlink">
 <defs>
  <style type="text/css">
*{stroke-linecap:butt;stroke-linejoin:round;}
  </style>
 </defs>
 <g id="figure_1">
  <g id="patch_1">
   <path d="M 0 345.6 
L 460.8 345.6 
L 460.8 0 
L 0 0 
z
" style="fill:#ffffff;"/>
  </g>
  <g id="axes_1">
   <g id="patch_2">
    <path d="M 57.6 307.584 
L 414.72 307.584 
L 414.72 41.472 
L 57.6 41.472 
z
" style="fill:#ffffff;"/>
   </g>
   <g id="matplotlib.axis_1">
    <g id="xtick_1">
     <g id="line2d_1">
      <defs>
       <path d="M 0 0 
L 0 3.5 
" id="m19d3292154" style="stroke:#000000;stroke-width:0.8;"/>
      </defs>
      <g>
       <use style="stroke:#000000;stroke-width:0.8;" x="67.717242" xlink:href="#m19d3292154" y="307.584"/>
      </g>
     </g>
     <g id="text_1">
      <!-- 0 -->
      <defs>
       <path d="M 31.78125 66.40625 
Q 24.171875 66.40625 20.328125 58.90625 
Q 16.5 51.421875 16.5 36.375 
Q 16.5 21.390625 20.328125 13.890625 
Q 24.171875 6.390625 31.78125 6.390625 
Q 39.453125 6.390625 43.28125 13.890625 
Q 47.125 21.390625 47.125 36.375 
Q 47.125 51.421875 43.28125 58.90625 
Q 39.453125 66.40625 31.78125 66.40625 
z
M 31.78125 74.21875 
Q 44.046875 74.21875 50.515625 64.515625 
Q 56.984375 54.828125 56.984375 36.375 
Q 56.984375 17.96875 50.515625 8.265625 
Q 44.046875 -1.421875 31.78125 -1.421875 
Q 19.53125 -1.421875 13.0625 8.265625 
Q 6.59375 17.96875 6.59375 36.375 
Q 6.59375 54.828125 13.0625 64.515625 
Q 19.53125 74.21875 31.78125 74.21875 
z
" id="DejaVuSans-48"/>
      </defs>
      <g transform="translate(64.535992 322.182437)scale(0.1 -0.1)">
       <use xlink:href="#DejaVuSans-48"/>
      </g>
     </g>
    </g>
    <g id="xtick_2">
     <g id="line2d_2">
      <g>
       <use style="stroke:#000000;stroke-width:0.8;" x="128.432288" xlink:href="#m19d3292154" y="307.584"/>
      </g>
     </g>
     <g id="text_2">
      <!-- 20 -->
      <defs>
       <path d="M 19.1875 8.296875 
L 53.609375 8.296875 
L 53.609375 0 
L 7.328125 0 
L 7.328125 8.296875 
Q 12.9375 14.109375 22.625 23.890625 
Q 32.328125 33.6875 34.8125 36.53125 
Q 39.546875 41.84375 41.421875 45.53125 
Q 43.3125 49.21875 43.3125 52.78125 
Q 43.3125 58.59375 39.234375 62.25 
Q 35.15625 65.921875 28.609375 65.921875 
Q 23.96875 65.921875 18.8125 64.3125 
Q 13.671875 62.703125 7.8125 59.421875 
L 7.8125 69.390625 
Q 13.765625 71.78125 18.9375 73 
Q 24.125 74.21875 28.421875 74.21875 
Q 39.75 74.21875 46.484375 68.546875 
Q 53.21875 62.890625 53.21875 53.421875 
Q 53.21875 48.921875 51.53125 44.890625 
Q 49.859375 40.875 45.40625 35.40625 
Q 44.1875 33.984375 37.640625 27.21875 
Q 31.109375 20.453125 19.1875 8.296875 
z
" id="DejaVuSans-50"/>
      </defs>
      <g transform="translate(122.069788 322.182437)scale(0.1 -0.1)">
       <use xlink:href="#DejaVuSans-50"/>
       <use x="63.623047" xlink:href="#DejaVuSans-48"/>
      </g>
     </g>
    </g>
    <g id="xtick_3">
     <g id="line2d_3">
      <g>
       <use style="stroke:#000000;stroke-width:0.8;" x="189.147335" xlink:href="#m19d3292154" y="307.584"/>
      </g>
     </g>
     <g id="text_3">
      <!-- 40 -->
      <defs>
       <path d="M 37.796875 64.3125 
L 12.890625 25.390625 
L 37.796875 25.390625 
z
M 35.203125 72.90625 
L 47.609375 72.90625 
L 47.609375 25.390625 
L 58.015625 25.390625 
L 58.015625 17.1875 
L 47.609375 17.1875 
L 47.609375 0 
L 37.796875 0 
L 37.796875 17.1875 
L 4.890625 17.1875 
L 4.890625 26.703125 
z
" id="DejaVuSans-52"/>
      </defs>
      <g transform="translate(182.784835 322.182437)scale(0.1 -0.1)">
       <use xlink:href="#DejaVuSans-52"/>
       <use x="63.623047" xlink:href="#DejaVuSans-48"/>
      </g>
     </g>
    </g>
    <g id="xtick_4">
     <g id="line2d_4">
      <g>
       <use style="stroke:#000000;stroke-width:0.8;" x="249.862381" xlink:href="#m19d3292154" y="307.584"/>
      </g>
     </g>
     <g id="text_4">
      <!-- 60 -->
      <defs>
       <path d="M 33.015625 40.375 
Q 26.375 40.375 22.484375 35.828125 
Q 18.609375 31.296875 18.609375 23.390625 
Q 18.609375 15.53125 22.484375 10.953125 
Q 26.375 6.390625 33.015625 6.390625 
Q 39.65625 6.390625 43.53125 10.953125 
Q 47.40625 15.53125 47.40625 23.390625 
Q 47.40625 31.296875 43.53125 35.828125 
Q 39.65625 40.375 33.015625 40.375 
z
M 52.59375 71.296875 
L 52.59375 62.3125 
Q 48.875 64.0625 45.09375 64.984375 
Q 41.3125 65.921875 37.59375 65.921875 
Q 27.828125 65.921875 22.671875 59.328125 
Q 17.53125 52.734375 16.796875 39.40625 
Q 19.671875 43.65625 24.015625 45.921875 
Q 28.375 48.1875 33.59375 48.1875 
Q 44.578125 48.1875 50.953125 41.515625 
Q 57.328125 34.859375 57.328125 23.390625 
Q 57.328125 12.15625 50.6875 5.359375 
Q 44.046875 -1.421875 33.015625 -1.421875 
Q 20.359375 -1.421875 13.671875 8.265625 
Q 6.984375 17.96875 6.984375 36.375 
Q 6.984375 53.65625 15.1875 63.9375 
Q 23.390625 74.21875 37.203125 74.21875 
Q 40.921875 74.21875 44.703125 73.484375 
Q 48.484375 72.75 52.59375 71.296875 
z
" id="DejaVuSans-54"/>
      </defs>
      <g transform="translate(243.499881 322.182437)scale(0.1 -0.1)">
       <use xlink:href="#DejaVuSans-54"/>
       <use x="63.623047" xlink:href="#DejaVuSans-48"/>
      </g>
     </g>
    </g>
    <g id="xtick_5">
     <g id="line2d_5">
      <g>
       <use style="stroke:#000000;stroke-width:0.8;" x="310.577428" xlink:href="#m19d3292154" y="307.584"/>
      </g>
     </g>
     <g id="text_5">
      <!-- 80 -->
      <defs>
       <path d="M 31.78125 34.625 
Q 24.75 34.625 20.71875 30.859375 
Q 16.703125 27.09375 16.703125 20.515625 
Q 16.703125 13.921875 20.71875 10.15625 
Q 24.75 6.390625 31.78125 6.390625 
Q 38.8125 6.390625 42.859375 10.171875 
Q 46.921875 13.96875 46.921875 20.515625 
Q 46.921875 27.09375 42.890625 30.859375 
Q 38.875 34.625 31.78125 34.625 
z
M 21.921875 38.8125 
Q 15.578125 40.375 12.03125 44.71875 
Q 8.5 49.078125 8.5 55.328125 
Q 8.5 64.0625 14.71875 69.140625 
Q 20.953125 74.21875 31.78125 74.21875 
Q 42.671875 74.21875 48.875 69.140625 
Q 55.078125 64.0625 55.078125 55.328125 
Q 55.078125 49.078125 51.53125 44.71875 
Q 48 40.375 41.703125 38.8125 
Q 48.828125 37.15625 52.796875 32.3125 
Q 56.78125 27.484375 56.78125 20.515625 
Q 56.78125 9.90625 50.3125 4.234375 
Q 43.84375 -1.421875 31.78125 -1.421875 
Q 19.734375 -1.421875 13.25 4.234375 
Q 6.78125 9.90625 6.78125 20.515625 
Q 6.78125 27.484375 10.78125 32.3125 
Q 14.796875 37.15625 21.921875 38.8125 
z
M 18.3125 54.390625 
Q 18.3125 48.734375 21.84375 45.5625 
Q 25.390625 42.390625 31.78125 42.390625 
Q 38.140625 42.390625 41.71875 45.5625 
Q 45.3125 48.734375 45.3125 54.390625 
Q 45.3125 60.0625 41.71875 63.234375 
Q 38.140625 66.40625 31.78125 66.40625 
Q 25.390625 66.40625 21.84375 63.234375 
Q 18.3125 60.0625 18.3125 54.390625 
z
" id="DejaVuSans-56"/>
      </defs>
      <g transform="translate(304.214928 322.182437)scale(0.1 -0.1)">
       <use xlink:href="#DejaVuSans-56"/>
       <use x="63.623047" xlink:href="#DejaVuSans-48"/>
      </g>
     </g>
    </g>
    <g id="xtick_6">
     <g id="line2d_6">
      <g>
       <use style="stroke:#000000;stroke-width:0.8;" x="371.292474" xlink:href="#m19d3292154" y="307.584"/>
      </g>
     </g>
     <g id="text_6">
      <!-- 100 -->
      <defs>
       <path d="M 12.40625 8.296875 
L 28.515625 8.296875 
L 28.515625 63.921875 
L 10.984375 60.40625 
L 10.984375 69.390625 
L 28.421875 72.90625 
L 38.28125 72.90625 
L 38.28125 8.296875 
L 54.390625 8.296875 
L 54.390625 0 
L 12.40625 0 
z
" id="DejaVuSans-49"/>
      </defs>
      <g transform="translate(361.748724 322.182437)scale(0.1 -0.1)">
       <use xlink:href="#DejaVuSans-49"/>
       <use x="63.623047" xlink:href="#DejaVuSans-48"/>
       <use x="127.246094" xlink:href="#DejaVuSans-48"/>
      </g>
     </g>
    </g>
    <g id="text_7">
     <!-- x values -->
     <defs>
      <path d="M 54.890625 54.6875 
L 35.109375 28.078125 
L 55.90625 0 
L 45.3125 0 
L 29.390625 21.484375 
L 13.484375 0 
L 2.875 0 
L 24.125 28.609375 
L 4.6875 54.6875 
L 15.28125 54.6875 
L 29.78125 35.203125 
L 44.28125 54.6875 
z
" id="DejaVuSans-120"/>
      <path id="DejaVuSans-32"/>
      <path d="M 2.984375 54.6875 
L 12.5 54.6875 
L 29.59375 8.796875 
L 46.6875 54.6875 
L 56.203125 54.6875 
L 35.6875 0 
L 23.484375 0 
z
" id="DejaVuSans-118"/>
      <path d="M 34.28125 27.484375 
Q 23.390625 27.484375 19.1875 25 
Q 14.984375 22.515625 14.984375 16.5 
Q 14.984375 11.71875 18.140625 8.90625 
Q 21.296875 6.109375 26.703125 6.109375 
Q 34.1875 6.109375 38.703125 11.40625 
Q 43.21875 16.703125 43.21875 25.484375 
L 43.21875 27.484375 
z
M 52.203125 31.203125 
L 52.203125 0 
L 43.21875 0 
L 43.21875 8.296875 
Q 40.140625 3.328125 35.546875 0.953125 
Q 30.953125 -1.421875 24.3125 -1.421875 
Q 15.921875 -1.421875 10.953125 3.296875 
Q 6 8.015625 6 15.921875 
Q 6 25.140625 12.171875 29.828125 
Q 18.359375 34.515625 30.609375 34.515625 
L 43.21875 34.515625 
L 43.21875 35.40625 
Q 43.21875 41.609375 39.140625 45 
Q 35.0625 48.390625 27.6875 48.390625 
Q 23 48.390625 18.546875 47.265625 
Q 14.109375 46.140625 10.015625 43.890625 
L 10.015625 52.203125 
Q 14.9375 54.109375 19.578125 55.046875 
Q 24.21875 56 28.609375 56 
Q 40.484375 56 46.34375 49.84375 
Q 52.203125 43.703125 52.203125 31.203125 
z
" id="DejaVuSans-97"/>
      <path d="M 9.421875 75.984375 
L 18.40625 75.984375 
L 18.40625 0 
L 9.421875 0 
z
" id="DejaVuSans-108"/>
      <path d="M 8.5 21.578125 
L 8.5 54.6875 
L 17.484375 54.6875 
L 17.484375 21.921875 
Q 17.484375 14.15625 20.5 10.265625 
Q 23.53125 6.390625 29.59375 6.390625 
Q 36.859375 6.390625 41.078125 11.03125 
Q 45.3125 15.671875 45.3125 23.6875 
L 45.3125 54.6875 
L 54.296875 54.6875 
L 54.296875 0 
L 45.3125 0 
L 45.3125 8.40625 
Q 42.046875 3.421875 37.71875 1 
Q 33.40625 -1.421875 27.6875 -1.421875 
Q 18.265625 -1.421875 13.375 4.4375 
Q 8.5 10.296875 8.5 21.578125 
z
M 31.109375 56 
z
" id="DejaVuSans-117"/>
      <path d="M 56.203125 29.59375 
L 56.203125 25.203125 
L 14.890625 25.203125 
Q 15.484375 15.921875 20.484375 11.0625 
Q 25.484375 6.203125 34.421875 6.203125 
Q 39.59375 6.203125 44.453125 7.46875 
Q 49.3125 8.734375 54.109375 11.28125 
L 54.109375 2.78125 
Q 49.265625 0.734375 44.1875 -0.34375 
Q 39.109375 -1.421875 33.890625 -1.421875 
Q 20.796875 -1.421875 13.15625 6.1875 
Q 5.515625 13.8125 5.515625 26.8125 
Q 5.515625 40.234375 12.765625 48.109375 
Q 20.015625 56 32.328125 56 
Q 43.359375 56 49.78125 48.890625 
Q 56.203125 41.796875 56.203125 29.59375 
z
M 47.21875 32.234375 
Q 47.125 39.59375 43.09375 43.984375 
Q 39.0625 48.390625 32.421875 48.390625 
Q 24.90625 48.390625 20.390625 44.140625 
Q 15.875 39.890625 15.1875 32.171875 
z
" id="DejaVuSans-101"/>
      <path d="M 44.28125 53.078125 
L 44.28125 44.578125 
Q 40.484375 46.53125 36.375 47.5 
Q 32.28125 48.484375 27.875 48.484375 
Q 21.1875 48.484375 17.84375 46.4375 
Q 14.5 44.390625 14.5 40.28125 
Q 14.5 37.15625 16.890625 35.375 
Q 19.28125 33.59375 26.515625 31.984375 
L 29.59375 31.296875 
Q 39.15625 29.25 43.1875 25.515625 
Q 47.21875 21.78125 47.21875 15.09375 
Q 47.21875 7.46875 41.1875 3.015625 
Q 35.15625 -1.421875 24.609375 -1.421875 
Q 20.21875 -1.421875 15.453125 -0.5625 
Q 10.6875 0.296875 5.421875 2 
L 5.421875 11.28125 
Q 10.40625 8.6875 15.234375 7.390625 
Q 20.0625 6.109375 24.8125 6.109375 
Q 31.15625 6.109375 34.5625 8.28125 
Q 37.984375 10.453125 37.984375 14.40625 
Q 37.984375 18.0625 35.515625 20.015625 
Q 33.0625 21.96875 24.703125 23.78125 
L 21.578125 24.515625 
Q 13.234375 26.265625 9.515625 29.90625 
Q 5.8125 33.546875 5.8125 39.890625 
Q 5.8125 47.609375 11.28125 51.796875 
Q 16.75 56 26.8125 56 
Q 31.78125 56 36.171875 55.265625 
Q 40.578125 54.546875 44.28125 53.078125 
z
" id="DejaVuSans-115"/>
     </defs>
     <g transform="translate(215.349063 335.860562)scale(0.1 -0.1)">
      <use xlink:href="#DejaVuSans-120"/>
      <use x="59.179688" xlink:href="#DejaVuSans-32"/>
      <use x="90.966797" xlink:href="#DejaVuSans-118"/>
      <use x="150.146484" xlink:href="#DejaVuSans-97"/>
      <use x="211.425781" xlink:href="#DejaVuSans-108"/>
      <use x="239.208984" xlink:href="#DejaVuSans-117"/>
      <use x="302.587891" xlink:href="#DejaVuSans-101"/>
      <use x="364.111328" xlink:href="#DejaVuSans-115"/>
     </g>
    </g>
   </g>
   <g id="matplotlib.axis_2">
    <g id="ytick_1">
     <g id="line2d_7">
      <defs>
       <path d="M 0 0 
L -3.5 0 
" id="md81870d3d0" style="stroke:#000000;stroke-width:0.8;"/>
      </defs>
      <g>
       <use style="stroke:#000000;stroke-width:0.8;" x="57.6" xlink:href="#md81870d3d0" y="293.554913"/>
      </g>
     </g>
     <g id="text_8">
      <!-- 0 -->
      <g transform="translate(44.2375 297.354131)scale(0.1 -0.1)">
       <use xlink:href="#DejaVuSans-48"/>
      </g>
     </g>
    </g>
    <g id="ytick_2">
     <g id="line2d_8">
      <g>
       <use style="stroke:#000000;stroke-width:0.8;" x="57.6" xlink:href="#md81870d3d0" y="262.235816"/>
      </g>
     </g>
     <g id="text_9">
      <!-- 250 -->
      <defs>
       <path d="M 10.796875 72.90625 
L 49.515625 72.90625 
L 49.515625 64.59375 
L 19.828125 64.59375 
L 19.828125 46.734375 
Q 21.96875 47.46875 24.109375 47.828125 
Q 26.265625 48.1875 28.421875 48.1875 
Q 40.625 48.1875 47.75 41.5 
Q 54.890625 34.8125 54.890625 23.390625 
Q 54.890625 11.625 47.5625 5.09375 
Q 40.234375 -1.421875 26.90625 -1.421875 
Q 22.3125 -1.421875 17.546875 -0.640625 
Q 12.796875 0.140625 7.71875 1.703125 
L 7.71875 11.625 
Q 12.109375 9.234375 16.796875 8.0625 
Q 21.484375 6.890625 26.703125 6.890625 
Q 35.15625 6.890625 40.078125 11.328125 
Q 45.015625 15.765625 45.015625 23.390625 
Q 45.015625 31 40.078125 35.4375 
Q 35.15625 39.890625 26.703125 39.890625 
Q 22.75 39.890625 18.8125 39.015625 
Q 14.890625 38.140625 10.796875 36.28125 
z
" id="DejaVuSans-53"/>
      </defs>
      <g transform="translate(31.5125 266.035034)scale(0.1 -0.1)">
       <use xlink:href="#DejaVuSans-50"/>
       <use x="63.623047" xlink:href="#DejaVuSans-53"/>
       <use x="127.246094" xlink:href="#DejaVuSans-48"/>
      </g>
     </g>
    </g>
    <g id="ytick_3">
     <g id="line2d_9">
      <g>
       <use style="stroke:#000000;stroke-width:0.8;" x="57.6" xlink:href="#md81870d3d0" y="230.916718"/>
      </g>
     </g>
     <g id="text_10">
      <!-- 500 -->
      <g transform="translate(31.5125 234.715937)scale(0.1 -0.1)">
       <use xlink:href="#DejaVuSans-53"/>
       <use x="63.623047" xlink:href="#DejaVuSans-48"/>
       <use x="127.246094" xlink:href="#DejaVuSans-48"/>
      </g>
     </g>
    </g>
    <g id="ytick_4">
     <g id="line2d_10">
      <g>
       <use style="stroke:#000000;stroke-width:0.8;" x="57.6" xlink:href="#md81870d3d0" y="199.597621"/>
      </g>
     </g>
     <g id="text_11">
      <!-- 750 -->
      <defs>
       <path d="M 8.203125 72.90625 
L 55.078125 72.90625 
L 55.078125 68.703125 
L 28.609375 0 
L 18.3125 0 
L 43.21875 64.59375 
L 8.203125 64.59375 
z
" id="DejaVuSans-55"/>
      </defs>
      <g transform="translate(31.5125 203.39684)scale(0.1 -0.1)">
       <use xlink:href="#DejaVuSans-55"/>
       <use x="63.623047" xlink:href="#DejaVuSans-53"/>
       <use x="127.246094" xlink:href="#DejaVuSans-48"/>
      </g>
     </g>
    </g>
    <g id="ytick_5">
     <g id="line2d_11">
      <g>
       <use style="stroke:#000000;stroke-width:0.8;" x="57.6" xlink:href="#md81870d3d0" y="168.278524"/>
      </g>
     </g>
     <g id="text_12">
      <!-- 1000 -->
      <g transform="translate(25.15 172.077743)scale(0.1 -0.1)">
       <use xlink:href="#DejaVuSans-49"/>
       <use x="63.623047" xlink:href="#DejaVuSans-48"/>
       <use x="127.246094" xlink:href="#DejaVuSans-48"/>
       <use x="190.869141" xlink:href="#DejaVuSans-48"/>
      </g>
     </g>
    </g>
    <g id="ytick_6">
     <g id="line2d_12">
      <g>
       <use style="stroke:#000000;stroke-width:0.8;" x="57.6" xlink:href="#md81870d3d0" y="136.959427"/>
      </g>
     </g>
     <g id="text_13">
      <!-- 1250 -->
      <g transform="translate(25.15 140.758646)scale(0.1 -0.1)">
       <use xlink:href="#DejaVuSans-49"/>
       <use x="63.623047" xlink:href="#DejaVuSans-50"/>
       <use x="127.246094" xlink:href="#DejaVuSans-53"/>
       <use x="190.869141" xlink:href="#DejaVuSans-48"/>
      </g>
     </g>
    </g>
    <g id="ytick_7">
     <g id="line2d_13">
      <g>
       <use style="stroke:#000000;stroke-width:0.8;" x="57.6" xlink:href="#md81870d3d0" y="105.64033"/>
      </g>
     </g>
     <g id="text_14">
      <!-- 1500 -->
      <g transform="translate(25.15 109.439548)scale(0.1 -0.1)">
       <use xlink:href="#DejaVuSans-49"/>
       <use x="63.623047" xlink:href="#DejaVuSans-53"/>
       <use x="127.246094" xlink:href="#DejaVuSans-48"/>
       <use x="190.869141" xlink:href="#DejaVuSans-48"/>
      </g>
     </g>
    </g>
    <g id="ytick_8">
     <g id="line2d_14">
      <g>
       <use style="stroke:#000000;stroke-width:0.8;" x="57.6" xlink:href="#md81870d3d0" y="74.321232"/>
      </g>
     </g>
     <g id="text_15">
      <!-- 1750 -->
      <g transform="translate(25.15 78.120451)scale(0.1 -0.1)">
       <use xlink:href="#DejaVuSans-49"/>
       <use x="63.623047" xlink:href="#DejaVuSans-55"/>
       <use x="127.246094" xlink:href="#DejaVuSans-53"/>
       <use x="190.869141" xlink:href="#DejaVuSans-48"/>
      </g>
     </g>
    </g>
    <g id="ytick_9">
     <g id="line2d_15">
      <g>
       <use style="stroke:#000000;stroke-width:0.8;" x="57.6" xlink:href="#md81870d3d0" y="43.002135"/>
      </g>
     </g>
     <g id="text_16">
      <!-- 2000 -->
      <g transform="translate(25.15 46.801354)scale(0.1 -0.1)">
       <use xlink:href="#DejaVuSans-50"/>
       <use x="63.623047" xlink:href="#DejaVuSans-48"/>
       <use x="127.246094" xlink:href="#DejaVuSans-48"/>
       <use x="190.869141" xlink:href="#DejaVuSans-48"/>
      </g>
     </g>
    </g>
    <g id="text_17">
     <!-- y values -->
     <defs>
      <path d="M 32.171875 -5.078125 
Q 28.375 -14.84375 24.75 -17.8125 
Q 21.140625 -20.796875 15.09375 -20.796875 
L 7.90625 -20.796875 
L 7.90625 -13.28125 
L 13.1875 -13.28125 
Q 16.890625 -13.28125 18.9375 -11.515625 
Q 21 -9.765625 23.484375 -3.21875 
L 25.09375 0.875 
L 2.984375 54.6875 
L 12.5 54.6875 
L 29.59375 11.921875 
L 46.6875 54.6875 
L 56.203125 54.6875 
z
" id="DejaVuSans-121"/>
     </defs>
     <g transform="translate(19.070312 195.338937)rotate(-90)scale(0.1 -0.1)">
      <use xlink:href="#DejaVuSans-121"/>
      <use x="59.179688" xlink:href="#DejaVuSans-32"/>
      <use x="90.966797" xlink:href="#DejaVuSans-118"/>
      <use x="150.146484" xlink:href="#DejaVuSans-97"/>
      <use x="211.425781" xlink:href="#DejaVuSans-108"/>
      <use x="239.208984" xlink:href="#DejaVuSans-117"/>
      <use x="302.587891" xlink:href="#DejaVuSans-101"/>
      <use x="364.111328" xlink:href="#DejaVuSans-115"/>
     </g>
    </g>
   </g>
   <g id="line2d_16">
    <defs>
     <path d="M 0 1 
C 0.265203 1 0.51958 0.894634 0.707107 0.707107 
C 0.894634 0.51958 1 0.265203 1 0 
C 1 -0.265203 0.894634 -0.51958 0.707107 -0.707107 
C 0.51958 -0.894634 0.265203 -1 0 -1 
C -0.265203 -1 -0.51958 -0.894634 -0.707107 -0.707107 
C -0.894634 -0.51958 -1 -0.265203 -1 0 
C -1 0.265203 -0.894634 0.51958 -0.707107 0.707107 
C -0.51958 0.894634 -0.265203 1 0 1 
z
" id="m65a62c4288" style="stroke:#ff0000;"/>
    </defs>
    <g clip-path="url(#pce28358ad2)">
     <use style="fill:#ff0000;stroke:#ff0000;" x="73.832727" xlink:href="#m65a62c4288" y="121.65154"/>
     <use style="fill:#ff0000;stroke:#ff0000;" x="75.226094" xlink:href="#m65a62c4288" y="135.922204"/>
     <use style="fill:#ff0000;stroke:#ff0000;" x="76.619462" xlink:href="#m65a62c4288" y="148.826137"/>
     <use style="fill:#ff0000;stroke:#ff0000;" x="78.012829" xlink:href="#m65a62c4288" y="144.486412"/>
     <use style="fill:#ff0000;stroke:#ff0000;" x="79.406196" xlink:href="#m65a62c4288" y="152.293899"/>
     <use style="fill:#ff0000;stroke:#ff0000;" x="80.799563" xlink:href="#m65a62c4288" y="170.754503"/>
     <use style="fill:#ff0000;stroke:#ff0000;" x="82.19293" xlink:href="#m65a62c4288" y="180.828052"/>
     <use style="fill:#ff0000;stroke:#ff0000;" x="83.586297" xlink:href="#m65a62c4288" y="149.320716"/>
     <use style="fill:#ff0000;stroke:#ff0000;" x="84.979664" xlink:href="#m65a62c4288" y="190.433424"/>
     <use style="fill:#ff0000;stroke:#ff0000;" x="86.373032" xlink:href="#m65a62c4288" y="189.690588"/>
     <use style="fill:#ff0000;stroke:#ff0000;" x="87.766399" xlink:href="#m65a62c4288" y="170.400561"/>
     <use style="fill:#ff0000;stroke:#ff0000;" x="89.159766" xlink:href="#m65a62c4288" y="201.546588"/>
     <use style="fill:#ff0000;stroke:#ff0000;" x="90.553133" xlink:href="#m65a62c4288" y="165.478136"/>
     <use style="fill:#ff0000;stroke:#ff0000;" x="91.9465" xlink:href="#m65a62c4288" y="171.83097"/>
     <use style="fill:#ff0000;stroke:#ff0000;" x="93.339867" xlink:href="#m65a62c4288" y="168.587591"/>
     <use style="fill:#ff0000;stroke:#ff0000;" x="94.733234" xlink:href="#m65a62c4288" y="174.578122"/>
     <use style="fill:#ff0000;stroke:#ff0000;" x="96.126602" xlink:href="#m65a62c4288" y="189.999877"/>
     <use style="fill:#ff0000;stroke:#ff0000;" x="97.519969" xlink:href="#m65a62c4288" y="184.731755"/>
     <use style="fill:#ff0000;stroke:#ff0000;" x="98.913336" xlink:href="#m65a62c4288" y="181.402905"/>
     <use style="fill:#ff0000;stroke:#ff0000;" x="100.306703" xlink:href="#m65a62c4288" y="186.75913"/>
     <use style="fill:#ff0000;stroke:#ff0000;" x="101.70007" xlink:href="#m65a62c4288" y="208.534621"/>
     <use style="fill:#ff0000;stroke:#ff0000;" x="103.093437" xlink:href="#m65a62c4288" y="200.156753"/>
     <use style="fill:#ff0000;stroke:#ff0000;" x="104.486805" xlink:href="#m65a62c4288" y="188.054893"/>
     <use style="fill:#ff0000;stroke:#ff0000;" x="105.880172" xlink:href="#m65a62c4288" y="219.945178"/>
     <use style="fill:#ff0000;stroke:#ff0000;" x="107.273539" xlink:href="#m65a62c4288" y="224.711752"/>
     <use style="fill:#ff0000;stroke:#ff0000;" x="108.666906" xlink:href="#m65a62c4288" y="206.62313"/>
     <use style="fill:#ff0000;stroke:#ff0000;" x="110.060273" xlink:href="#m65a62c4288" y="205.827193"/>
     <use style="fill:#ff0000;stroke:#ff0000;" x="111.45364" xlink:href="#m65a62c4288" y="209.89326"/>
     <use style="fill:#ff0000;stroke:#ff0000;" x="112.847007" xlink:href="#m65a62c4288" y="230.505381"/>
     <use style="fill:#ff0000;stroke:#ff0000;" x="114.240375" xlink:href="#m65a62c4288" y="221.564469"/>
     <use style="fill:#ff0000;stroke:#ff0000;" x="115.633742" xlink:href="#m65a62c4288" y="229.414014"/>
     <use style="fill:#ff0000;stroke:#ff0000;" x="117.027109" xlink:href="#m65a62c4288" y="220.975322"/>
     <use style="fill:#ff0000;stroke:#ff0000;" x="118.420476" xlink:href="#m65a62c4288" y="225.761361"/>
     <use style="fill:#ff0000;stroke:#ff0000;" x="119.813843" xlink:href="#m65a62c4288" y="231.096377"/>
     <use style="fill:#ff0000;stroke:#ff0000;" x="121.20721" xlink:href="#m65a62c4288" y="238.54411"/>
     <use style="fill:#ff0000;stroke:#ff0000;" x="122.600577" xlink:href="#m65a62c4288" y="222.04535"/>
     <use style="fill:#ff0000;stroke:#ff0000;" x="123.993945" xlink:href="#m65a62c4288" y="220.584769"/>
     <use style="fill:#ff0000;stroke:#ff0000;" x="125.387312" xlink:href="#m65a62c4288" y="242.674109"/>
     <use style="fill:#ff0000;stroke:#ff0000;" x="126.780679" xlink:href="#m65a62c4288" y="233.149554"/>
     <use style="fill:#ff0000;stroke:#ff0000;" x="128.174046" xlink:href="#m65a62c4288" y="240.10834"/>
     <use style="fill:#ff0000;stroke:#ff0000;" x="129.567413" xlink:href="#m65a62c4288" y="247.052973"/>
     <use style="fill:#ff0000;stroke:#ff0000;" x="130.96078" xlink:href="#m65a62c4288" y="245.293589"/>
     <use style="fill:#ff0000;stroke:#ff0000;" x="132.354147" xlink:href="#m65a62c4288" y="242.867245"/>
     <use style="fill:#ff0000;stroke:#ff0000;" x="133.747515" xlink:href="#m65a62c4288" y="235.83908"/>
     <use style="fill:#ff0000;stroke:#ff0000;" x="135.140882" xlink:href="#m65a62c4288" y="234.6627"/>
     <use style="fill:#ff0000;stroke:#ff0000;" x="136.534249" xlink:href="#m65a62c4288" y="250.26945"/>
     <use style="fill:#ff0000;stroke:#ff0000;" x="137.927616" xlink:href="#m65a62c4288" y="242.886012"/>
     <use style="fill:#ff0000;stroke:#ff0000;" x="139.320983" xlink:href="#m65a62c4288" y="253.612381"/>
     <use style="fill:#ff0000;stroke:#ff0000;" x="140.71435" xlink:href="#m65a62c4288" y="246.365473"/>
     <use style="fill:#ff0000;stroke:#ff0000;" x="142.107718" xlink:href="#m65a62c4288" y="255.497021"/>
     <use style="fill:#ff0000;stroke:#ff0000;" x="143.501085" xlink:href="#m65a62c4288" y="252.13933"/>
     <use style="fill:#ff0000;stroke:#ff0000;" x="144.894452" xlink:href="#m65a62c4288" y="257.292681"/>
     <use style="fill:#ff0000;stroke:#ff0000;" x="146.287819" xlink:href="#m65a62c4288" y="259.819891"/>
     <use style="fill:#ff0000;stroke:#ff0000;" x="147.681186" xlink:href="#m65a62c4288" y="261.964281"/>
     <use style="fill:#ff0000;stroke:#ff0000;" x="149.074553" xlink:href="#m65a62c4288" y="254.157974"/>
     <use style="fill:#ff0000;stroke:#ff0000;" x="150.46792" xlink:href="#m65a62c4288" y="266.116623"/>
     <use style="fill:#ff0000;stroke:#ff0000;" x="151.861288" xlink:href="#m65a62c4288" y="265.914291"/>
     <use style="fill:#ff0000;stroke:#ff0000;" x="153.254655" xlink:href="#m65a62c4288" y="258.415537"/>
     <use style="fill:#ff0000;stroke:#ff0000;" x="154.648022" xlink:href="#m65a62c4288" y="265.535617"/>
     <use style="fill:#ff0000;stroke:#ff0000;" x="156.041389" xlink:href="#m65a62c4288" y="262.238268"/>
     <use style="fill:#ff0000;stroke:#ff0000;" x="157.434756" xlink:href="#m65a62c4288" y="264.492059"/>
     <use style="fill:#ff0000;stroke:#ff0000;" x="158.828123" xlink:href="#m65a62c4288" y="267.943302"/>
     <use style="fill:#ff0000;stroke:#ff0000;" x="160.22149" xlink:href="#m65a62c4288" y="266.55568"/>
     <use style="fill:#ff0000;stroke:#ff0000;" x="161.614858" xlink:href="#m65a62c4288" y="266.302772"/>
     <use style="fill:#ff0000;stroke:#ff0000;" x="163.008225" xlink:href="#m65a62c4288" y="272.638159"/>
     <use style="fill:#ff0000;stroke:#ff0000;" x="164.401592" xlink:href="#m65a62c4288" y="276.75151"/>
     <use style="fill:#ff0000;stroke:#ff0000;" x="165.794959" xlink:href="#m65a62c4288" y="271.874141"/>
     <use style="fill:#ff0000;stroke:#ff0000;" x="167.188326" xlink:href="#m65a62c4288" y="272.246795"/>
     <use style="fill:#ff0000;stroke:#ff0000;" x="168.581693" xlink:href="#m65a62c4288" y="270.651825"/>
     <use style="fill:#ff0000;stroke:#ff0000;" x="169.97506" xlink:href="#m65a62c4288" y="276.718669"/>
     <use style="fill:#ff0000;stroke:#ff0000;" x="171.368428" xlink:href="#m65a62c4288" y="274.960879"/>
     <use style="fill:#ff0000;stroke:#ff0000;" x="172.761795" xlink:href="#m65a62c4288" y="278.663266"/>
     <use style="fill:#ff0000;stroke:#ff0000;" x="174.155162" xlink:href="#m65a62c4288" y="274.84941"/>
     <use style="fill:#ff0000;stroke:#ff0000;" x="175.548529" xlink:href="#m65a62c4288" y="280.301612"/>
     <use style="fill:#ff0000;stroke:#ff0000;" x="176.941896" xlink:href="#m65a62c4288" y="277.272072"/>
     <use style="fill:#ff0000;stroke:#ff0000;" x="178.335263" xlink:href="#m65a62c4288" y="279.756051"/>
     <use style="fill:#ff0000;stroke:#ff0000;" x="179.728631" xlink:href="#m65a62c4288" y="283.367905"/>
     <use style="fill:#ff0000;stroke:#ff0000;" x="181.121998" xlink:href="#m65a62c4288" y="284.34595"/>
     <use style="fill:#ff0000;stroke:#ff0000;" x="182.515365" xlink:href="#m65a62c4288" y="284.447311"/>
     <use style="fill:#ff0000;stroke:#ff0000;" x="183.908732" xlink:href="#m65a62c4288" y="284.925364"/>
     <use style="fill:#ff0000;stroke:#ff0000;" x="185.302099" xlink:href="#m65a62c4288" y="280.265155"/>
     <use style="fill:#ff0000;stroke:#ff0000;" x="186.695466" xlink:href="#m65a62c4288" y="286.039817"/>
     <use style="fill:#ff0000;stroke:#ff0000;" x="188.088833" xlink:href="#m65a62c4288" y="287.734058"/>
     <use style="fill:#ff0000;stroke:#ff0000;" x="189.482201" xlink:href="#m65a62c4288" y="287.886661"/>
     <use style="fill:#ff0000;stroke:#ff0000;" x="190.875568" xlink:href="#m65a62c4288" y="287.904786"/>
     <use style="fill:#ff0000;stroke:#ff0000;" x="192.268935" xlink:href="#m65a62c4288" y="288.743667"/>
     <use style="fill:#ff0000;stroke:#ff0000;" x="193.662302" xlink:href="#m65a62c4288" y="285.329434"/>
     <use style="fill:#ff0000;stroke:#ff0000;" x="195.055669" xlink:href="#m65a62c4288" y="289.061557"/>
     <use style="fill:#ff0000;stroke:#ff0000;" x="196.449036" xlink:href="#m65a62c4288" y="289.838923"/>
     <use style="fill:#ff0000;stroke:#ff0000;" x="197.842403" xlink:href="#m65a62c4288" y="291.029404"/>
     <use style="fill:#ff0000;stroke:#ff0000;" x="199.235771" xlink:href="#m65a62c4288" y="290.775974"/>
     <use style="fill:#ff0000;stroke:#ff0000;" x="200.629138" xlink:href="#m65a62c4288" y="289.984284"/>
     <use style="fill:#ff0000;stroke:#ff0000;" x="202.022505" xlink:href="#m65a62c4288" y="289.441793"/>
     <use style="fill:#ff0000;stroke:#ff0000;" x="203.415872" xlink:href="#m65a62c4288" y="290.415061"/>
     <use style="fill:#ff0000;stroke:#ff0000;" x="204.809239" xlink:href="#m65a62c4288" y="289.075215"/>
     <use style="fill:#ff0000;stroke:#ff0000;" x="206.202606" xlink:href="#m65a62c4288" y="289.130558"/>
     <use style="fill:#ff0000;stroke:#ff0000;" x="207.595973" xlink:href="#m65a62c4288" y="294.354446"/>
     <use style="fill:#ff0000;stroke:#ff0000;" x="208.989341" xlink:href="#m65a62c4288" y="290.70981"/>
     <use style="fill:#ff0000;stroke:#ff0000;" x="210.382708" xlink:href="#m65a62c4288" y="293.321229"/>
     <use style="fill:#ff0000;stroke:#ff0000;" x="211.776075" xlink:href="#m65a62c4288" y="292.098552"/>
     <use style="fill:#ff0000;stroke:#ff0000;" x="213.169442" xlink:href="#m65a62c4288" y="291.454329"/>
     <use style="fill:#ff0000;stroke:#ff0000;" x="214.562809" xlink:href="#m65a62c4288" y="289.927327"/>
     <use style="fill:#ff0000;stroke:#ff0000;" x="215.956176" xlink:href="#m65a62c4288" y="291.350656"/>
     <use style="fill:#ff0000;stroke:#ff0000;" x="217.349544" xlink:href="#m65a62c4288" y="295.488"/>
     <use style="fill:#ff0000;stroke:#ff0000;" x="218.742911" xlink:href="#m65a62c4288" y="292.372983"/>
     <use style="fill:#ff0000;stroke:#ff0000;" x="220.136278" xlink:href="#m65a62c4288" y="291.997898"/>
     <use style="fill:#ff0000;stroke:#ff0000;" x="221.529645" xlink:href="#m65a62c4288" y="294.064318"/>
     <use style="fill:#ff0000;stroke:#ff0000;" x="222.923012" xlink:href="#m65a62c4288" y="289.760524"/>
     <use style="fill:#ff0000;stroke:#ff0000;" x="224.316379" xlink:href="#m65a62c4288" y="293.771921"/>
     <use style="fill:#ff0000;stroke:#ff0000;" x="225.709746" xlink:href="#m65a62c4288" y="292.406934"/>
     <use style="fill:#ff0000;stroke:#ff0000;" x="227.103114" xlink:href="#m65a62c4288" y="294.763017"/>
     <use style="fill:#ff0000;stroke:#ff0000;" x="228.496481" xlink:href="#m65a62c4288" y="291.777313"/>
     <use style="fill:#ff0000;stroke:#ff0000;" x="229.889848" xlink:href="#m65a62c4288" y="289.709204"/>
     <use style="fill:#ff0000;stroke:#ff0000;" x="231.283215" xlink:href="#m65a62c4288" y="291.021968"/>
     <use style="fill:#ff0000;stroke:#ff0000;" x="232.676582" xlink:href="#m65a62c4288" y="289.469793"/>
     <use style="fill:#ff0000;stroke:#ff0000;" x="234.069949" xlink:href="#m65a62c4288" y="289.378721"/>
     <use style="fill:#ff0000;stroke:#ff0000;" x="235.463316" xlink:href="#m65a62c4288" y="289.211198"/>
     <use style="fill:#ff0000;stroke:#ff0000;" x="236.856684" xlink:href="#m65a62c4288" y="289.806216"/>
     <use style="fill:#ff0000;stroke:#ff0000;" x="238.250051" xlink:href="#m65a62c4288" y="291.032783"/>
     <use style="fill:#ff0000;stroke:#ff0000;" x="239.643418" xlink:href="#m65a62c4288" y="288.768016"/>
     <use style="fill:#ff0000;stroke:#ff0000;" x="241.036785" xlink:href="#m65a62c4288" y="288.390112"/>
     <use style="fill:#ff0000;stroke:#ff0000;" x="242.430152" xlink:href="#m65a62c4288" y="286.947486"/>
     <use style="fill:#ff0000;stroke:#ff0000;" x="243.823519" xlink:href="#m65a62c4288" y="290.857716"/>
     <use style="fill:#ff0000;stroke:#ff0000;" x="245.216886" xlink:href="#m65a62c4288" y="285.825576"/>
     <use style="fill:#ff0000;stroke:#ff0000;" x="246.610254" xlink:href="#m65a62c4288" y="285.216018"/>
     <use style="fill:#ff0000;stroke:#ff0000;" x="248.003621" xlink:href="#m65a62c4288" y="288.76708"/>
     <use style="fill:#ff0000;stroke:#ff0000;" x="249.396988" xlink:href="#m65a62c4288" y="288.240671"/>
     <use style="fill:#ff0000;stroke:#ff0000;" x="250.790355" xlink:href="#m65a62c4288" y="286.527522"/>
     <use style="fill:#ff0000;stroke:#ff0000;" x="252.183722" xlink:href="#m65a62c4288" y="287.053788"/>
     <use style="fill:#ff0000;stroke:#ff0000;" x="253.577089" xlink:href="#m65a62c4288" y="282.955584"/>
     <use style="fill:#ff0000;stroke:#ff0000;" x="254.970456" xlink:href="#m65a62c4288" y="284.100098"/>
     <use style="fill:#ff0000;stroke:#ff0000;" x="256.363824" xlink:href="#m65a62c4288" y="283.060874"/>
     <use style="fill:#ff0000;stroke:#ff0000;" x="257.757191" xlink:href="#m65a62c4288" y="283.247239"/>
     <use style="fill:#ff0000;stroke:#ff0000;" x="259.150558" xlink:href="#m65a62c4288" y="282.579284"/>
     <use style="fill:#ff0000;stroke:#ff0000;" x="260.543925" xlink:href="#m65a62c4288" y="279.59979"/>
     <use style="fill:#ff0000;stroke:#ff0000;" x="261.937292" xlink:href="#m65a62c4288" y="275.960261"/>
     <use style="fill:#ff0000;stroke:#ff0000;" x="263.330659" xlink:href="#m65a62c4288" y="280.561523"/>
     <use style="fill:#ff0000;stroke:#ff0000;" x="264.724027" xlink:href="#m65a62c4288" y="278.016835"/>
     <use style="fill:#ff0000;stroke:#ff0000;" x="266.117394" xlink:href="#m65a62c4288" y="276.628132"/>
     <use style="fill:#ff0000;stroke:#ff0000;" x="267.510761" xlink:href="#m65a62c4288" y="276.822601"/>
     <use style="fill:#ff0000;stroke:#ff0000;" x="268.904128" xlink:href="#m65a62c4288" y="278.298554"/>
     <use style="fill:#ff0000;stroke:#ff0000;" x="270.297495" xlink:href="#m65a62c4288" y="276.391487"/>
     <use style="fill:#ff0000;stroke:#ff0000;" x="271.690862" xlink:href="#m65a62c4288" y="272.302738"/>
     <use style="fill:#ff0000;stroke:#ff0000;" x="273.084229" xlink:href="#m65a62c4288" y="271.820005"/>
     <use style="fill:#ff0000;stroke:#ff0000;" x="274.477597" xlink:href="#m65a62c4288" y="271.521763"/>
     <use style="fill:#ff0000;stroke:#ff0000;" x="275.870964" xlink:href="#m65a62c4288" y="277.237191"/>
     <use style="fill:#ff0000;stroke:#ff0000;" x="277.264331" xlink:href="#m65a62c4288" y="269.625892"/>
     <use style="fill:#ff0000;stroke:#ff0000;" x="278.657698" xlink:href="#m65a62c4288" y="270.28262"/>
     <use style="fill:#ff0000;stroke:#ff0000;" x="280.051065" xlink:href="#m65a62c4288" y="268.728293"/>
     <use style="fill:#ff0000;stroke:#ff0000;" x="281.444432" xlink:href="#m65a62c4288" y="258.945796"/>
     <use style="fill:#ff0000;stroke:#ff0000;" x="282.837799" xlink:href="#m65a62c4288" y="263.910144"/>
     <use style="fill:#ff0000;stroke:#ff0000;" x="284.231167" xlink:href="#m65a62c4288" y="265.286239"/>
     <use style="fill:#ff0000;stroke:#ff0000;" x="285.624534" xlink:href="#m65a62c4288" y="260.239293"/>
     <use style="fill:#ff0000;stroke:#ff0000;" x="287.017901" xlink:href="#m65a62c4288" y="259.097119"/>
     <use style="fill:#ff0000;stroke:#ff0000;" x="288.411268" xlink:href="#m65a62c4288" y="262.334836"/>
     <use style="fill:#ff0000;stroke:#ff0000;" x="289.804635" xlink:href="#m65a62c4288" y="256.455277"/>
     <use style="fill:#ff0000;stroke:#ff0000;" x="291.198002" xlink:href="#m65a62c4288" y="253.284066"/>
     <use style="fill:#ff0000;stroke:#ff0000;" x="292.591369" xlink:href="#m65a62c4288" y="251.165073"/>
     <use style="fill:#ff0000;stroke:#ff0000;" x="293.984737" xlink:href="#m65a62c4288" y="257.344666"/>
     <use style="fill:#ff0000;stroke:#ff0000;" x="295.378104" xlink:href="#m65a62c4288" y="258.08327"/>
     <use style="fill:#ff0000;stroke:#ff0000;" x="296.771471" xlink:href="#m65a62c4288" y="255.118615"/>
     <use style="fill:#ff0000;stroke:#ff0000;" x="298.164838" xlink:href="#m65a62c4288" y="241.015516"/>
     <use style="fill:#ff0000;stroke:#ff0000;" x="299.558205" xlink:href="#m65a62c4288" y="256.467974"/>
     <use style="fill:#ff0000;stroke:#ff0000;" x="300.951572" xlink:href="#m65a62c4288" y="246.118327"/>
     <use style="fill:#ff0000;stroke:#ff0000;" x="302.34494" xlink:href="#m65a62c4288" y="238.970253"/>
     <use style="fill:#ff0000;stroke:#ff0000;" x="303.738307" xlink:href="#m65a62c4288" y="246.515893"/>
     <use style="fill:#ff0000;stroke:#ff0000;" x="305.131674" xlink:href="#m65a62c4288" y="242.410723"/>
     <use style="fill:#ff0000;stroke:#ff0000;" x="306.525041" xlink:href="#m65a62c4288" y="249.869327"/>
     <use style="fill:#ff0000;stroke:#ff0000;" x="307.918408" xlink:href="#m65a62c4288" y="246.032856"/>
     <use style="fill:#ff0000;stroke:#ff0000;" x="309.311775" xlink:href="#m65a62c4288" y="229.704785"/>
     <use style="fill:#ff0000;stroke:#ff0000;" x="310.705142" xlink:href="#m65a62c4288" y="237.329329"/>
     <use style="fill:#ff0000;stroke:#ff0000;" x="312.09851" xlink:href="#m65a62c4288" y="234.521994"/>
     <use style="fill:#ff0000;stroke:#ff0000;" x="313.491877" xlink:href="#m65a62c4288" y="229.007862"/>
     <use style="fill:#ff0000;stroke:#ff0000;" x="314.885244" xlink:href="#m65a62c4288" y="216.503151"/>
     <use style="fill:#ff0000;stroke:#ff0000;" x="316.278611" xlink:href="#m65a62c4288" y="220.291938"/>
     <use style="fill:#ff0000;stroke:#ff0000;" x="317.671978" xlink:href="#m65a62c4288" y="230.075582"/>
     <use style="fill:#ff0000;stroke:#ff0000;" x="319.065345" xlink:href="#m65a62c4288" y="215.554176"/>
     <use style="fill:#ff0000;stroke:#ff0000;" x="320.458712" xlink:href="#m65a62c4288" y="208.621299"/>
     <use style="fill:#ff0000;stroke:#ff0000;" x="321.85208" xlink:href="#m65a62c4288" y="233.142991"/>
     <use style="fill:#ff0000;stroke:#ff0000;" x="323.245447" xlink:href="#m65a62c4288" y="231.560925"/>
     <use style="fill:#ff0000;stroke:#ff0000;" x="324.638814" xlink:href="#m65a62c4288" y="228.597005"/>
     <use style="fill:#ff0000;stroke:#ff0000;" x="326.032181" xlink:href="#m65a62c4288" y="214.60442"/>
     <use style="fill:#ff0000;stroke:#ff0000;" x="327.425548" xlink:href="#m65a62c4288" y="203.09116"/>
     <use style="fill:#ff0000;stroke:#ff0000;" x="328.818915" xlink:href="#m65a62c4288" y="224.343954"/>
     <use style="fill:#ff0000;stroke:#ff0000;" x="330.212282" xlink:href="#m65a62c4288" y="213.037108"/>
     <use style="fill:#ff0000;stroke:#ff0000;" x="331.60565" xlink:href="#m65a62c4288" y="192.329942"/>
     <use style="fill:#ff0000;stroke:#ff0000;" x="332.999017" xlink:href="#m65a62c4288" y="212.085951"/>
     <use style="fill:#ff0000;stroke:#ff0000;" x="334.392384" xlink:href="#m65a62c4288" y="204.093628"/>
     <use style="fill:#ff0000;stroke:#ff0000;" x="335.785751" xlink:href="#m65a62c4288" y="188.711822"/>
     <use style="fill:#ff0000;stroke:#ff0000;" x="337.179118" xlink:href="#m65a62c4288" y="178.35223"/>
     <use style="fill:#ff0000;stroke:#ff0000;" x="338.572485" xlink:href="#m65a62c4288" y="200.441473"/>
     <use style="fill:#ff0000;stroke:#ff0000;" x="339.965853" xlink:href="#m65a62c4288" y="175.886089"/>
     <use style="fill:#ff0000;stroke:#ff0000;" x="341.35922" xlink:href="#m65a62c4288" y="209.277195"/>
     <use style="fill:#ff0000;stroke:#ff0000;" x="342.752587" xlink:href="#m65a62c4288" y="185.04788"/>
     <use style="fill:#ff0000;stroke:#ff0000;" x="344.145954" xlink:href="#m65a62c4288" y="201.498754"/>
     <use style="fill:#ff0000;stroke:#ff0000;" x="345.539321" xlink:href="#m65a62c4288" y="164.102174"/>
     <use style="fill:#ff0000;stroke:#ff0000;" x="346.932688" xlink:href="#m65a62c4288" y="176.028039"/>
     <use style="fill:#ff0000;stroke:#ff0000;" x="348.326055" xlink:href="#m65a62c4288" y="181.978202"/>
     <use style="fill:#ff0000;stroke:#ff0000;" x="349.719423" xlink:href="#m65a62c4288" y="185.357575"/>
     <use style="fill:#ff0000;stroke:#ff0000;" x="351.11279" xlink:href="#m65a62c4288" y="178.925078"/>
     <use style="fill:#ff0000;stroke:#ff0000;" x="352.506157" xlink:href="#m65a62c4288" y="188.211595"/>
     <use style="fill:#ff0000;stroke:#ff0000;" x="353.899524" xlink:href="#m65a62c4288" y="165.169516"/>
     <use style="fill:#ff0000;stroke:#ff0000;" x="355.292891" xlink:href="#m65a62c4288" y="142.729398"/>
     <use style="fill:#ff0000;stroke:#ff0000;" x="356.686258" xlink:href="#m65a62c4288" y="182.583583"/>
     <use style="fill:#ff0000;stroke:#ff0000;" x="358.079625" xlink:href="#m65a62c4288" y="157.546881"/>
     <use style="fill:#ff0000;stroke:#ff0000;" x="359.472993" xlink:href="#m65a62c4288" y="177.541156"/>
     <use style="fill:#ff0000;stroke:#ff0000;" x="360.86636" xlink:href="#m65a62c4288" y="178.558536"/>
     <use style="fill:#ff0000;stroke:#ff0000;" x="362.259727" xlink:href="#m65a62c4288" y="167.930914"/>
     <use style="fill:#ff0000;stroke:#ff0000;" x="363.653094" xlink:href="#m65a62c4288" y="130.400148"/>
     <use style="fill:#ff0000;stroke:#ff0000;" x="365.046461" xlink:href="#m65a62c4288" y="167.751195"/>
     <use style="fill:#ff0000;stroke:#ff0000;" x="366.439828" xlink:href="#m65a62c4288" y="119.238398"/>
     <use style="fill:#ff0000;stroke:#ff0000;" x="367.833195" xlink:href="#m65a62c4288" y="124.276922"/>
     <use style="fill:#ff0000;stroke:#ff0000;" x="369.226563" xlink:href="#m65a62c4288" y="137.59996"/>
     <use style="fill:#ff0000;stroke:#ff0000;" x="370.61993" xlink:href="#m65a62c4288" y="151.03587"/>
     <use style="fill:#ff0000;stroke:#ff0000;" x="372.013297" xlink:href="#m65a62c4288" y="147.91481"/>
     <use style="fill:#ff0000;stroke:#ff0000;" x="373.406664" xlink:href="#m65a62c4288" y="140.315255"/>
     <use style="fill:#ff0000;stroke:#ff0000;" x="374.800031" xlink:href="#m65a62c4288" y="100.389248"/>
     <use style="fill:#ff0000;stroke:#ff0000;" x="376.193398" xlink:href="#m65a62c4288" y="142.527663"/>
     <use style="fill:#ff0000;stroke:#ff0000;" x="377.586766" xlink:href="#m65a62c4288" y="146.614674"/>
     <use style="fill:#ff0000;stroke:#ff0000;" x="378.980133" xlink:href="#m65a62c4288" y="142.63542"/>
     <use style="fill:#ff0000;stroke:#ff0000;" x="380.3735" xlink:href="#m65a62c4288" y="89.413751"/>
     <use style="fill:#ff0000;stroke:#ff0000;" x="381.766867" xlink:href="#m65a62c4288" y="103.74843"/>
     <use style="fill:#ff0000;stroke:#ff0000;" x="383.160234" xlink:href="#m65a62c4288" y="145.42206"/>
     <use style="fill:#ff0000;stroke:#ff0000;" x="384.553601" xlink:href="#m65a62c4288" y="90.603166"/>
     <use style="fill:#ff0000;stroke:#ff0000;" x="385.946968" xlink:href="#m65a62c4288" y="127.910991"/>
     <use style="fill:#ff0000;stroke:#ff0000;" x="387.340336" xlink:href="#m65a62c4288" y="122.158246"/>
     <use style="fill:#ff0000;stroke:#ff0000;" x="388.733703" xlink:href="#m65a62c4288" y="110.429608"/>
     <use style="fill:#ff0000;stroke:#ff0000;" x="390.12707" xlink:href="#m65a62c4288" y="131.030475"/>
     <use style="fill:#ff0000;stroke:#ff0000;" x="391.520437" xlink:href="#m65a62c4288" y="81.61609"/>
     <use style="fill:#ff0000;stroke:#ff0000;" x="392.913804" xlink:href="#m65a62c4288" y="98.441951"/>
     <use style="fill:#ff0000;stroke:#ff0000;" x="394.307171" xlink:href="#m65a62c4288" y="53.568"/>
     <use style="fill:#ff0000;stroke:#ff0000;" x="395.700538" xlink:href="#m65a62c4288" y="84.65423"/>
     <use style="fill:#ff0000;stroke:#ff0000;" x="397.093906" xlink:href="#m65a62c4288" y="118.947278"/>
     <use style="fill:#ff0000;stroke:#ff0000;" x="398.487273" xlink:href="#m65a62c4288" y="103.728195"/>
    </g>
   </g>
   <g id="line2d_17">
    <path clip-path="url(#pce28358ad2)" d="M 73.832727 149.245773 
L 79.406196 159.885755 
L 84.979664 170.112542 
L 90.553133 179.926133 
L 96.126602 189.326527 
L 101.70007 198.313726 
L 107.273539 206.887729 
L 112.847007 215.048536 
L 118.420476 222.796148 
L 123.993945 230.130563 
L 129.567413 237.051782 
L 135.140882 243.559806 
L 140.71435 249.654633 
L 146.287819 255.336265 
L 151.861288 260.6047 
L 156.041389 264.284867 
L 160.22149 267.732612 
L 164.401592 270.947933 
L 168.581693 273.930832 
L 172.761795 276.681308 
L 176.941896 279.199361 
L 181.121998 281.484992 
L 185.302099 283.5382 
L 189.482201 285.358986 
L 193.662302 286.947348 
L 197.842403 288.303288 
L 202.022505 289.426805 
L 206.202606 290.3179 
L 210.382708 290.976572 
L 214.562809 291.402821 
L 218.742911 291.596647 
L 222.923012 291.558051 
L 227.103114 291.287032 
L 231.283215 290.78359 
L 235.463316 290.047726 
L 239.643418 289.079439 
L 243.823519 287.878729 
L 248.003621 286.445596 
L 252.183722 284.780041 
L 256.363824 282.882063 
L 260.543925 280.751663 
L 264.724027 278.388839 
L 268.904128 275.793593 
L 273.084229 272.965924 
L 277.264331 269.905833 
L 281.444432 266.613319 
L 285.624534 263.088382 
L 289.804635 259.331023 
L 293.984737 255.34124 
L 299.558205 249.659984 
L 305.131674 243.565532 
L 310.705142 237.057884 
L 316.278611 230.137041 
L 321.85208 222.803001 
L 327.425548 215.055765 
L 332.999017 206.895334 
L 338.572485 198.321706 
L 344.145954 189.334883 
L 349.719423 179.934863 
L 355.292891 170.121648 
L 360.86636 159.895237 
L 366.439828 149.25563 
L 372.013297 138.202827 
L 377.586766 126.736828 
L 384.553601 111.823273 
L 391.520437 96.264099 
L 398.487273 80.059306 
L 398.487273 80.059306 
" style="fill:none;stroke:#008000;stroke-linecap:square;stroke-width:1.5;"/>
   </g>
   <g id="patch_3">
    <path d="M 57.6 307.584 
L 57.6 41.472 
" style="fill:none;stroke:#000000;stroke-linecap:square;stroke-linejoin:miter;stroke-width:0.8;"/>
   </g>
   <g id="patch_4">
    <path d="M 414.72 307.584 
L 414.72 41.472 
" style="fill:none;stroke:#000000;stroke-linecap:square;stroke-linejoin:miter;stroke-width:0.8;"/>
   </g>
   <g id="patch_5">
    <path d="M 57.6 307.584 
L 414.72 307.584 
" style="fill:none;stroke:#000000;stroke-linecap:square;stroke-linejoin:miter;stroke-width:0.8;"/>
   </g>
   <g id="patch_6">
    <path d="M 57.6 41.472 
L 414.72 41.472 
" style="fill:none;stroke:#000000;stroke-linecap:square;stroke-linejoin:miter;stroke-width:0.8;"/>
   </g>
   <g id="text_18">
    <!-- FunctionFitting 05 -->
    <defs>
     <path d="M 9.8125 72.90625 
L 51.703125 72.90625 
L 51.703125 64.59375 
L 19.671875 64.59375 
L 19.671875 43.109375 
L 48.578125 43.109375 
L 48.578125 34.8125 
L 19.671875 34.8125 
L 19.671875 0 
L 9.8125 0 
z
" id="DejaVuSans-70"/>
     <path d="M 54.890625 33.015625 
L 54.890625 0 
L 45.90625 0 
L 45.90625 32.71875 
Q 45.90625 40.484375 42.875 44.328125 
Q 39.84375 48.1875 33.796875 48.1875 
Q 26.515625 48.1875 22.3125 43.546875 
Q 18.109375 38.921875 18.109375 30.90625 
L 18.109375 0 
L 9.078125 0 
L 9.078125 54.6875 
L 18.109375 54.6875 
L 18.109375 46.1875 
Q 21.34375 51.125 25.703125 53.5625 
Q 30.078125 56 35.796875 56 
Q 45.21875 56 50.046875 50.171875 
Q 54.890625 44.34375 54.890625 33.015625 
z
" id="DejaVuSans-110"/>
     <path d="M 48.78125 52.59375 
L 48.78125 44.1875 
Q 44.96875 46.296875 41.140625 47.34375 
Q 37.3125 48.390625 33.40625 48.390625 
Q 24.65625 48.390625 19.8125 42.84375 
Q 14.984375 37.3125 14.984375 27.296875 
Q 14.984375 17.28125 19.8125 11.734375 
Q 24.65625 6.203125 33.40625 6.203125 
Q 37.3125 6.203125 41.140625 7.25 
Q 44.96875 8.296875 48.78125 10.40625 
L 48.78125 2.09375 
Q 45.015625 0.34375 40.984375 -0.53125 
Q 36.96875 -1.421875 32.421875 -1.421875 
Q 20.0625 -1.421875 12.78125 6.34375 
Q 5.515625 14.109375 5.515625 27.296875 
Q 5.515625 40.671875 12.859375 48.328125 
Q 20.21875 56 33.015625 56 
Q 37.15625 56 41.109375 55.140625 
Q 45.0625 54.296875 48.78125 52.59375 
z
" id="DejaVuSans-99"/>
     <path d="M 18.3125 70.21875 
L 18.3125 54.6875 
L 36.8125 54.6875 
L 36.8125 47.703125 
L 18.3125 47.703125 
L 18.3125 18.015625 
Q 18.3125 11.328125 20.140625 9.421875 
Q 21.96875 7.515625 27.59375 7.515625 
L 36.8125 7.515625 
L 36.8125 0 
L 27.59375 0 
Q 17.1875 0 13.234375 3.875 
Q 9.28125 7.765625 9.28125 18.015625 
L 9.28125 47.703125 
L 2.6875 47.703125 
L 2.6875 54.6875 
L 9.28125 54.6875 
L 9.28125 70.21875 
z
" id="DejaVuSans-116"/>
     <path d="M 9.421875 54.6875 
L 18.40625 54.6875 
L 18.40625 0 
L 9.421875 0 
z
M 9.421875 75.984375 
L 18.40625 75.984375 
L 18.40625 64.59375 
L 9.421875 64.59375 
z
" id="DejaVuSans-105"/>
     <path d="M 30.609375 48.390625 
Q 23.390625 48.390625 19.1875 42.75 
Q 14.984375 37.109375 14.984375 27.296875 
Q 14.984375 17.484375 19.15625 11.84375 
Q 23.34375 6.203125 30.609375 6.203125 
Q 37.796875 6.203125 41.984375 11.859375 
Q 46.1875 17.53125 46.1875 27.296875 
Q 46.1875 37.015625 41.984375 42.703125 
Q 37.796875 48.390625 30.609375 48.390625 
z
M 30.609375 56 
Q 42.328125 56 49.015625 48.375 
Q 55.71875 40.765625 55.71875 27.296875 
Q 55.71875 13.875 49.015625 6.21875 
Q 42.328125 -1.421875 30.609375 -1.421875 
Q 18.84375 -1.421875 12.171875 6.21875 
Q 5.515625 13.875 5.515625 27.296875 
Q 5.515625 40.765625 12.171875 48.375 
Q 18.84375 56 30.609375 56 
z
" id="DejaVuSans-111"/>
     <path d="M 45.40625 27.984375 
Q 45.40625 37.75 41.375 43.109375 
Q 37.359375 48.484375 30.078125 48.484375 
Q 22.859375 48.484375 18.828125 43.109375 
Q 14.796875 37.75 14.796875 27.984375 
Q 14.796875 18.265625 18.828125 12.890625 
Q 22.859375 7.515625 30.078125 7.515625 
Q 37.359375 7.515625 41.375 12.890625 
Q 45.40625 18.265625 45.40625 27.984375 
z
M 54.390625 6.78125 
Q 54.390625 -7.171875 48.1875 -13.984375 
Q 42 -20.796875 29.203125 -20.796875 
Q 24.46875 -20.796875 20.265625 -20.09375 
Q 16.0625 -19.390625 12.109375 -17.921875 
L 12.109375 -9.1875 
Q 16.0625 -11.328125 19.921875 -12.34375 
Q 23.78125 -13.375 27.78125 -13.375 
Q 36.625 -13.375 41.015625 -8.765625 
Q 45.40625 -4.15625 45.40625 5.171875 
L 45.40625 9.625 
Q 42.625 4.78125 38.28125 2.390625 
Q 33.9375 0 27.875 0 
Q 17.828125 0 11.671875 7.65625 
Q 5.515625 15.328125 5.515625 27.984375 
Q 5.515625 40.671875 11.671875 48.328125 
Q 17.828125 56 27.875 56 
Q 33.9375 56 38.28125 53.609375 
Q 42.625 51.21875 45.40625 46.390625 
L 45.40625 54.6875 
L 54.390625 54.6875 
z
" id="DejaVuSans-103"/>
    </defs>
    <g transform="translate(181.680937 35.472)scale(0.12 -0.12)">
     <use xlink:href="#DejaVuSans-70"/>
     <use x="57.441406" xlink:href="#DejaVuSans-117"/>
     <use x="120.820312" xlink:href="#DejaVuSans-110"/>
     <use x="184.199219" xlink:href="#DejaVuSans-99"/>
     <use x="239.179688" xlink:href="#DejaVuSans-116"/>
     <use x="278.388672" xlink:href="#DejaVuSans-105"/>
     <use x="306.171875" xlink:href="#DejaVuSans-111"/>
     <use x="367.353516" xlink:href="#DejaVuSans-110"/>
     <use x="430.732422" xlink:href="#DejaVuSans-70"/>
     <use x="488.142578" xlink:href="#DejaVuSans-105"/>
     <use x="515.925781" xlink:href="#DejaVuSans-116"/>
     <use x="555.134766" xlink:href="#DejaVuSans-116"/>
     <use x="594.34375" xlink:href="#DejaVuSans-105"/>
     <use x="622.126953" xlink:href="#DejaVuSans-110"/>
     <use x="685.505859" xlink:href="#DejaVuSans-103"/>
     <use x="748.982422" xlink:href="#DejaVuSans-32"/>
     <use x="780.769531" xlink:href="#DejaVuSans-48"/>
     <use x="844.392578" xlink:href="#DejaVuSans-53"/>
    </g>
   </g>
   <g id="legend_1">
    <g id="patch_7">
     <path d="M 64.6 78.82825 
L 172.48125 78.82825 
Q 174.48125 78.82825 174.48125 76.82825 
L 174.48125 48.472 
Q 174.48125 46.472 172.48125 46.472 
L 64.6 46.472 
Q 62.6 46.472 62.6 48.472 
L 62.6 76.82825 
Q 62.6 78.82825 64.6 78.82825 
z
" style="fill:#ffffff;opacity:0.8;stroke:#cccccc;stroke-linejoin:miter;"/>
    </g>
    <g id="line2d_18"/>
    <g id="line2d_19">
     <g>
      <use style="fill:#ff0000;stroke:#ff0000;" x="76.6" xlink:href="#m65a62c4288" y="54.570437"/>
     </g>
    </g>
    <g id="text_19">
     <!-- measured data -->
     <defs>
      <path d="M 52 44.1875 
Q 55.375 50.25 60.0625 53.125 
Q 64.75 56 71.09375 56 
Q 79.640625 56 84.28125 50.015625 
Q 88.921875 44.046875 88.921875 33.015625 
L 88.921875 0 
L 79.890625 0 
L 79.890625 32.71875 
Q 79.890625 40.578125 77.09375 44.375 
Q 74.3125 48.1875 68.609375 48.1875 
Q 61.625 48.1875 57.5625 43.546875 
Q 53.515625 38.921875 53.515625 30.90625 
L 53.515625 0 
L 44.484375 0 
L 44.484375 32.71875 
Q 44.484375 40.625 41.703125 44.40625 
Q 38.921875 48.1875 33.109375 48.1875 
Q 26.21875 48.1875 22.15625 43.53125 
Q 18.109375 38.875 18.109375 30.90625 
L 18.109375 0 
L 9.078125 0 
L 9.078125 54.6875 
L 18.109375 54.6875 
L 18.109375 46.1875 
Q 21.1875 51.21875 25.484375 53.609375 
Q 29.78125 56 35.6875 56 
Q 41.65625 56 45.828125 52.96875 
Q 50 49.953125 52 44.1875 
z
" id="DejaVuSans-109"/>
      <path d="M 41.109375 46.296875 
Q 39.59375 47.171875 37.8125 47.578125 
Q 36.03125 48 33.890625 48 
Q 26.265625 48 22.1875 43.046875 
Q 18.109375 38.09375 18.109375 28.8125 
L 18.109375 0 
L 9.078125 0 
L 9.078125 54.6875 
L 18.109375 54.6875 
L 18.109375 46.1875 
Q 20.953125 51.171875 25.484375 53.578125 
Q 30.03125 56 36.53125 56 
Q 37.453125 56 38.578125 55.875 
Q 39.703125 55.765625 41.0625 55.515625 
z
" id="DejaVuSans-114"/>
      <path d="M 45.40625 46.390625 
L 45.40625 75.984375 
L 54.390625 75.984375 
L 54.390625 0 
L 45.40625 0 
L 45.40625 8.203125 
Q 42.578125 3.328125 38.25 0.953125 
Q 33.9375 -1.421875 27.875 -1.421875 
Q 17.96875 -1.421875 11.734375 6.484375 
Q 5.515625 14.40625 5.515625 27.296875 
Q 5.515625 40.1875 11.734375 48.09375 
Q 17.96875 56 27.875 56 
Q 33.9375 56 38.25 53.625 
Q 42.578125 51.265625 45.40625 46.390625 
z
M 14.796875 27.296875 
Q 14.796875 17.390625 18.875 11.75 
Q 22.953125 6.109375 30.078125 6.109375 
Q 37.203125 6.109375 41.296875 11.75 
Q 45.40625 17.390625 45.40625 27.296875 
Q 45.40625 37.203125 41.296875 42.84375 
Q 37.203125 48.484375 30.078125 48.484375 
Q 22.953125 48.484375 18.875 42.84375 
Q 14.796875 37.203125 14.796875 27.296875 
z
" id="DejaVuSans-100"/>
     </defs>
     <g transform="translate(94.6 58.070437)scale(0.1 -0.1)">
      <use xlink:href="#DejaVuSans-109"/>
      <use x="97.412109" xlink:href="#DejaVuSans-101"/>
      <use x="158.935547" xlink:href="#DejaVuSans-97"/>
      <use x="220.214844" xlink:href="#DejaVuSans-115"/>
      <use x="272.314453" xlink:href="#DejaVuSans-117"/>
      <use x="335.693359" xlink:href="#DejaVuSans-114"/>
      <use x="376.775391" xlink:href="#DejaVuSans-101"/>
      <use x="438.298828" xlink:href="#DejaVuSans-100"/>
      <use x="501.775391" xlink:href="#DejaVuSans-32"/>
      <use x="533.5625" xlink:href="#DejaVuSans-100"/>
      <use x="597.039062" xlink:href="#DejaVuSans-97"/>
      <use x="658.318359" xlink:href="#DejaVuSans-116"/>
      <use x="697.527344" xlink:href="#DejaVuSans-97"/>
     </g>
    </g>
    <g id="line2d_20">
     <path d="M 66.6 69.248562 
L 86.6 69.248562 
" style="fill:none;stroke:#008000;stroke-linecap:square;stroke-width:1.5;"/>
    </g>
    <g id="line2d_21"/>
    <g id="text_20">
     <!-- linear data -->
     <g transform="translate(94.6 72.748562)scale(0.1 -0.1)">
      <use xlink:href="#DejaVuSans-108"/>
      <use x="27.783203" xlink:href="#DejaVuSans-105"/>
      <use x="55.566406" xlink:href="#DejaVuSans-110"/>
      <use x="118.945312" xlink:href="#DejaVuSans-101"/>
      <use x="180.46875" xlink:href="#DejaVuSans-97"/>
      <use x="241.748047" xlink:href="#DejaVuSans-114"/>
      <use x="282.861328" xlink:href="#DejaVuSans-32"/>
      <use x="314.648438" xlink:href="#DejaVuSans-100"/>
      <use x="378.125" xlink:href="#DejaVuSans-97"/>
      <use x="439.404297" xlink:href="#DejaVuSans-116"/>
      <use x="478.613281" xlink:href="#DejaVuSans-97"/>
     </g>
    </g>
   </g>
  </g>
 </g>
 <defs>
  <clipPath id="pce28358ad2">
   <rect height="266.112" width="357.12" x="57.6" y="41.472"/>
  </clipPath>
 </defs>
</svg>
