<?xml version="1.0" encoding="utf-8" standalone="no"?>
<!DOCTYPE svg PUBLIC "-//W3C//DTD SVG 1.1//EN"
  "http://www.w3.org/Graphics/SVG/1.1/DTD/svg11.dtd">
<!-- Created with matplotlib (https://matplotlib.org/) -->
<svg height="345.6pt" version="1.1" viewBox="0 0 460.8 345.6" width="460.8pt" xmlns="http://www.w3.org/2000/svg" xmlns:xlink="http://www.w3.org/1999/xlink">
 <defs>
  <style type="text/css">
*{stroke-linecap:butt;stroke-linejoin:round;}
  </style>
 </defs>
 <g id="figure_1">
  <g id="patch_1">
   <path d="M 0 345.6 
L 460.8 345.6 
L 460.8 0 
L 0 0 
z
" style="fill:#ffffff;"/>
  </g>
  <g id="axes_1">
   <g id="patch_2">
    <path d="M 57.6 307.584 
L 414.72 307.584 
L 414.72 41.472 
L 57.6 41.472 
z
" style="fill:#ffffff;"/>
   </g>
   <g id="matplotlib.axis_1">
    <g id="xtick_1">
     <g id="line2d_1">
      <defs>
       <path d="M 0 0 
L 0 3.5 
" id="mb1f62114c6" style="stroke:#000000;stroke-width:0.8;"/>
      </defs>
      <g>
       <use style="stroke:#000000;stroke-width:0.8;" x="97.016669" xlink:href="#mb1f62114c6" y="307.584"/>
      </g>
     </g>
     <g id="text_1">
      <!-- 10 -->
      <defs>
       <path d="M 12.40625 8.296875 
L 28.515625 8.296875 
L 28.515625 63.921875 
L 10.984375 60.40625 
L 10.984375 69.390625 
L 28.421875 72.90625 
L 38.28125 72.90625 
L 38.28125 8.296875 
L 54.390625 8.296875 
L 54.390625 0 
L 12.40625 0 
z
" id="DejaVuSans-49"/>
       <path d="M 31.78125 66.40625 
Q 24.171875 66.40625 20.328125 58.90625 
Q 16.5 51.421875 16.5 36.375 
Q 16.5 21.390625 20.328125 13.890625 
Q 24.171875 6.390625 31.78125 6.390625 
Q 39.453125 6.390625 43.28125 13.890625 
Q 47.125 21.390625 47.125 36.375 
Q 47.125 51.421875 43.28125 58.90625 
Q 39.453125 66.40625 31.78125 66.40625 
z
M 31.78125 74.21875 
Q 44.046875 74.21875 50.515625 64.515625 
Q 56.984375 54.828125 56.984375 36.375 
Q 56.984375 17.96875 50.515625 8.265625 
Q 44.046875 -1.421875 31.78125 -1.421875 
Q 19.53125 -1.421875 13.0625 8.265625 
Q 6.59375 17.96875 6.59375 36.375 
Q 6.59375 54.828125 13.0625 64.515625 
Q 19.53125 74.21875 31.78125 74.21875 
z
" id="DejaVuSans-48"/>
      </defs>
      <g transform="translate(90.654169 322.182437)scale(0.1 -0.1)">
       <use xlink:href="#DejaVuSans-49"/>
       <use x="63.623047" xlink:href="#DejaVuSans-48"/>
      </g>
     </g>
    </g>
    <g id="xtick_2">
     <g id="line2d_2">
      <g>
       <use style="stroke:#000000;stroke-width:0.8;" x="138.981399" xlink:href="#mb1f62114c6" y="307.584"/>
      </g>
     </g>
     <g id="text_2">
      <!-- 20 -->
      <defs>
       <path d="M 19.1875 8.296875 
L 53.609375 8.296875 
L 53.609375 0 
L 7.328125 0 
L 7.328125 8.296875 
Q 12.9375 14.109375 22.625 23.890625 
Q 32.328125 33.6875 34.8125 36.53125 
Q 39.546875 41.84375 41.421875 45.53125 
Q 43.3125 49.21875 43.3125 52.78125 
Q 43.3125 58.59375 39.234375 62.25 
Q 35.15625 65.921875 28.609375 65.921875 
Q 23.96875 65.921875 18.8125 64.3125 
Q 13.671875 62.703125 7.8125 59.421875 
L 7.8125 69.390625 
Q 13.765625 71.78125 18.9375 73 
Q 24.125 74.21875 28.421875 74.21875 
Q 39.75 74.21875 46.484375 68.546875 
Q 53.21875 62.890625 53.21875 53.421875 
Q 53.21875 48.921875 51.53125 44.890625 
Q 49.859375 40.875 45.40625 35.40625 
Q 44.1875 33.984375 37.640625 27.21875 
Q 31.109375 20.453125 19.1875 8.296875 
z
" id="DejaVuSans-50"/>
      </defs>
      <g transform="translate(132.618899 322.182437)scale(0.1 -0.1)">
       <use xlink:href="#DejaVuSans-50"/>
       <use x="63.623047" xlink:href="#DejaVuSans-48"/>
      </g>
     </g>
    </g>
    <g id="xtick_3">
     <g id="line2d_3">
      <g>
       <use style="stroke:#000000;stroke-width:0.8;" x="180.946129" xlink:href="#mb1f62114c6" y="307.584"/>
      </g>
     </g>
     <g id="text_3">
      <!-- 30 -->
      <defs>
       <path d="M 40.578125 39.3125 
Q 47.65625 37.796875 51.625 33 
Q 55.609375 28.21875 55.609375 21.1875 
Q 55.609375 10.40625 48.1875 4.484375 
Q 40.765625 -1.421875 27.09375 -1.421875 
Q 22.515625 -1.421875 17.65625 -0.515625 
Q 12.796875 0.390625 7.625 2.203125 
L 7.625 11.71875 
Q 11.71875 9.328125 16.59375 8.109375 
Q 21.484375 6.890625 26.8125 6.890625 
Q 36.078125 6.890625 40.9375 10.546875 
Q 45.796875 14.203125 45.796875 21.1875 
Q 45.796875 27.640625 41.28125 31.265625 
Q 36.765625 34.90625 28.71875 34.90625 
L 20.21875 34.90625 
L 20.21875 43.015625 
L 29.109375 43.015625 
Q 36.375 43.015625 40.234375 45.921875 
Q 44.09375 48.828125 44.09375 54.296875 
Q 44.09375 59.90625 40.109375 62.90625 
Q 36.140625 65.921875 28.71875 65.921875 
Q 24.65625 65.921875 20.015625 65.03125 
Q 15.375 64.15625 9.8125 62.3125 
L 9.8125 71.09375 
Q 15.4375 72.65625 20.34375 73.4375 
Q 25.25 74.21875 29.59375 74.21875 
Q 40.828125 74.21875 47.359375 69.109375 
Q 53.90625 64.015625 53.90625 55.328125 
Q 53.90625 49.265625 50.4375 45.09375 
Q 46.96875 40.921875 40.578125 39.3125 
z
" id="DejaVuSans-51"/>
      </defs>
      <g transform="translate(174.583629 322.182437)scale(0.1 -0.1)">
       <use xlink:href="#DejaVuSans-51"/>
       <use x="63.623047" xlink:href="#DejaVuSans-48"/>
      </g>
     </g>
    </g>
    <g id="xtick_4">
     <g id="line2d_4">
      <g>
       <use style="stroke:#000000;stroke-width:0.8;" x="222.910859" xlink:href="#mb1f62114c6" y="307.584"/>
      </g>
     </g>
     <g id="text_4">
      <!-- 40 -->
      <defs>
       <path d="M 37.796875 64.3125 
L 12.890625 25.390625 
L 37.796875 25.390625 
z
M 35.203125 72.90625 
L 47.609375 72.90625 
L 47.609375 25.390625 
L 58.015625 25.390625 
L 58.015625 17.1875 
L 47.609375 17.1875 
L 47.609375 0 
L 37.796875 0 
L 37.796875 17.1875 
L 4.890625 17.1875 
L 4.890625 26.703125 
z
" id="DejaVuSans-52"/>
      </defs>
      <g transform="translate(216.548359 322.182437)scale(0.1 -0.1)">
       <use xlink:href="#DejaVuSans-52"/>
       <use x="63.623047" xlink:href="#DejaVuSans-48"/>
      </g>
     </g>
    </g>
    <g id="xtick_5">
     <g id="line2d_5">
      <g>
       <use style="stroke:#000000;stroke-width:0.8;" x="264.875589" xlink:href="#mb1f62114c6" y="307.584"/>
      </g>
     </g>
     <g id="text_5">
      <!-- 50 -->
      <defs>
       <path d="M 10.796875 72.90625 
L 49.515625 72.90625 
L 49.515625 64.59375 
L 19.828125 64.59375 
L 19.828125 46.734375 
Q 21.96875 47.46875 24.109375 47.828125 
Q 26.265625 48.1875 28.421875 48.1875 
Q 40.625 48.1875 47.75 41.5 
Q 54.890625 34.8125 54.890625 23.390625 
Q 54.890625 11.625 47.5625 5.09375 
Q 40.234375 -1.421875 26.90625 -1.421875 
Q 22.3125 -1.421875 17.546875 -0.640625 
Q 12.796875 0.140625 7.71875 1.703125 
L 7.71875 11.625 
Q 12.109375 9.234375 16.796875 8.0625 
Q 21.484375 6.890625 26.703125 6.890625 
Q 35.15625 6.890625 40.078125 11.328125 
Q 45.015625 15.765625 45.015625 23.390625 
Q 45.015625 31 40.078125 35.4375 
Q 35.15625 39.890625 26.703125 39.890625 
Q 22.75 39.890625 18.8125 39.015625 
Q 14.890625 38.140625 10.796875 36.28125 
z
" id="DejaVuSans-53"/>
      </defs>
      <g transform="translate(258.513089 322.182437)scale(0.1 -0.1)">
       <use xlink:href="#DejaVuSans-53"/>
       <use x="63.623047" xlink:href="#DejaVuSans-48"/>
      </g>
     </g>
    </g>
    <g id="xtick_6">
     <g id="line2d_6">
      <g>
       <use style="stroke:#000000;stroke-width:0.8;" x="306.840319" xlink:href="#mb1f62114c6" y="307.584"/>
      </g>
     </g>
     <g id="text_6">
      <!-- 60 -->
      <defs>
       <path d="M 33.015625 40.375 
Q 26.375 40.375 22.484375 35.828125 
Q 18.609375 31.296875 18.609375 23.390625 
Q 18.609375 15.53125 22.484375 10.953125 
Q 26.375 6.390625 33.015625 6.390625 
Q 39.65625 6.390625 43.53125 10.953125 
Q 47.40625 15.53125 47.40625 23.390625 
Q 47.40625 31.296875 43.53125 35.828125 
Q 39.65625 40.375 33.015625 40.375 
z
M 52.59375 71.296875 
L 52.59375 62.3125 
Q 48.875 64.0625 45.09375 64.984375 
Q 41.3125 65.921875 37.59375 65.921875 
Q 27.828125 65.921875 22.671875 59.328125 
Q 17.53125 52.734375 16.796875 39.40625 
Q 19.671875 43.65625 24.015625 45.921875 
Q 28.375 48.1875 33.59375 48.1875 
Q 44.578125 48.1875 50.953125 41.515625 
Q 57.328125 34.859375 57.328125 23.390625 
Q 57.328125 12.15625 50.6875 5.359375 
Q 44.046875 -1.421875 33.015625 -1.421875 
Q 20.359375 -1.421875 13.671875 8.265625 
Q 6.984375 17.96875 6.984375 36.375 
Q 6.984375 53.65625 15.1875 63.9375 
Q 23.390625 74.21875 37.203125 74.21875 
Q 40.921875 74.21875 44.703125 73.484375 
Q 48.484375 72.75 52.59375 71.296875 
z
" id="DejaVuSans-54"/>
      </defs>
      <g transform="translate(300.477819 322.182437)scale(0.1 -0.1)">
       <use xlink:href="#DejaVuSans-54"/>
       <use x="63.623047" xlink:href="#DejaVuSans-48"/>
      </g>
     </g>
    </g>
    <g id="xtick_7">
     <g id="line2d_7">
      <g>
       <use style="stroke:#000000;stroke-width:0.8;" x="348.805049" xlink:href="#mb1f62114c6" y="307.584"/>
      </g>
     </g>
     <g id="text_7">
      <!-- 70 -->
      <defs>
       <path d="M 8.203125 72.90625 
L 55.078125 72.90625 
L 55.078125 68.703125 
L 28.609375 0 
L 18.3125 0 
L 43.21875 64.59375 
L 8.203125 64.59375 
z
" id="DejaVuSans-55"/>
      </defs>
      <g transform="translate(342.442549 322.182437)scale(0.1 -0.1)">
       <use xlink:href="#DejaVuSans-55"/>
       <use x="63.623047" xlink:href="#DejaVuSans-48"/>
      </g>
     </g>
    </g>
    <g id="xtick_8">
     <g id="line2d_8">
      <g>
       <use style="stroke:#000000;stroke-width:0.8;" x="390.769779" xlink:href="#mb1f62114c6" y="307.584"/>
      </g>
     </g>
     <g id="text_8">
      <!-- 80 -->
      <defs>
       <path d="M 31.78125 34.625 
Q 24.75 34.625 20.71875 30.859375 
Q 16.703125 27.09375 16.703125 20.515625 
Q 16.703125 13.921875 20.71875 10.15625 
Q 24.75 6.390625 31.78125 6.390625 
Q 38.8125 6.390625 42.859375 10.171875 
Q 46.921875 13.96875 46.921875 20.515625 
Q 46.921875 27.09375 42.890625 30.859375 
Q 38.875 34.625 31.78125 34.625 
z
M 21.921875 38.8125 
Q 15.578125 40.375 12.03125 44.71875 
Q 8.5 49.078125 8.5 55.328125 
Q 8.5 64.0625 14.71875 69.140625 
Q 20.953125 74.21875 31.78125 74.21875 
Q 42.671875 74.21875 48.875 69.140625 
Q 55.078125 64.0625 55.078125 55.328125 
Q 55.078125 49.078125 51.53125 44.71875 
Q 48 40.375 41.703125 38.8125 
Q 48.828125 37.15625 52.796875 32.3125 
Q 56.78125 27.484375 56.78125 20.515625 
Q 56.78125 9.90625 50.3125 4.234375 
Q 43.84375 -1.421875 31.78125 -1.421875 
Q 19.734375 -1.421875 13.25 4.234375 
Q 6.78125 9.90625 6.78125 20.515625 
Q 6.78125 27.484375 10.78125 32.3125 
Q 14.796875 37.15625 21.921875 38.8125 
z
M 18.3125 54.390625 
Q 18.3125 48.734375 21.84375 45.5625 
Q 25.390625 42.390625 31.78125 42.390625 
Q 38.140625 42.390625 41.71875 45.5625 
Q 45.3125 48.734375 45.3125 54.390625 
Q 45.3125 60.0625 41.71875 63.234375 
Q 38.140625 66.40625 31.78125 66.40625 
Q 25.390625 66.40625 21.84375 63.234375 
Q 18.3125 60.0625 18.3125 54.390625 
z
" id="DejaVuSans-56"/>
      </defs>
      <g transform="translate(384.407279 322.182437)scale(0.1 -0.1)">
       <use xlink:href="#DejaVuSans-56"/>
       <use x="63.623047" xlink:href="#DejaVuSans-48"/>
      </g>
     </g>
    </g>
    <g id="text_9">
     <!-- x values -->
     <defs>
      <path d="M 54.890625 54.6875 
L 35.109375 28.078125 
L 55.90625 0 
L 45.3125 0 
L 29.390625 21.484375 
L 13.484375 0 
L 2.875 0 
L 24.125 28.609375 
L 4.6875 54.6875 
L 15.28125 54.6875 
L 29.78125 35.203125 
L 44.28125 54.6875 
z
" id="DejaVuSans-120"/>
      <path id="DejaVuSans-32"/>
      <path d="M 2.984375 54.6875 
L 12.5 54.6875 
L 29.59375 8.796875 
L 46.6875 54.6875 
L 56.203125 54.6875 
L 35.6875 0 
L 23.484375 0 
z
" id="DejaVuSans-118"/>
      <path d="M 34.28125 27.484375 
Q 23.390625 27.484375 19.1875 25 
Q 14.984375 22.515625 14.984375 16.5 
Q 14.984375 11.71875 18.140625 8.90625 
Q 21.296875 6.109375 26.703125 6.109375 
Q 34.1875 6.109375 38.703125 11.40625 
Q 43.21875 16.703125 43.21875 25.484375 
L 43.21875 27.484375 
z
M 52.203125 31.203125 
L 52.203125 0 
L 43.21875 0 
L 43.21875 8.296875 
Q 40.140625 3.328125 35.546875 0.953125 
Q 30.953125 -1.421875 24.3125 -1.421875 
Q 15.921875 -1.421875 10.953125 3.296875 
Q 6 8.015625 6 15.921875 
Q 6 25.140625 12.171875 29.828125 
Q 18.359375 34.515625 30.609375 34.515625 
L 43.21875 34.515625 
L 43.21875 35.40625 
Q 43.21875 41.609375 39.140625 45 
Q 35.0625 48.390625 27.6875 48.390625 
Q 23 48.390625 18.546875 47.265625 
Q 14.109375 46.140625 10.015625 43.890625 
L 10.015625 52.203125 
Q 14.9375 54.109375 19.578125 55.046875 
Q 24.21875 56 28.609375 56 
Q 40.484375 56 46.34375 49.84375 
Q 52.203125 43.703125 52.203125 31.203125 
z
" id="DejaVuSans-97"/>
      <path d="M 9.421875 75.984375 
L 18.40625 75.984375 
L 18.40625 0 
L 9.421875 0 
z
" id="DejaVuSans-108"/>
      <path d="M 8.5 21.578125 
L 8.5 54.6875 
L 17.484375 54.6875 
L 17.484375 21.921875 
Q 17.484375 14.15625 20.5 10.265625 
Q 23.53125 6.390625 29.59375 6.390625 
Q 36.859375 6.390625 41.078125 11.03125 
Q 45.3125 15.671875 45.3125 23.6875 
L 45.3125 54.6875 
L 54.296875 54.6875 
L 54.296875 0 
L 45.3125 0 
L 45.3125 8.40625 
Q 42.046875 3.421875 37.71875 1 
Q 33.40625 -1.421875 27.6875 -1.421875 
Q 18.265625 -1.421875 13.375 4.4375 
Q 8.5 10.296875 8.5 21.578125 
z
M 31.109375 56 
z
" id="DejaVuSans-117"/>
      <path d="M 56.203125 29.59375 
L 56.203125 25.203125 
L 14.890625 25.203125 
Q 15.484375 15.921875 20.484375 11.0625 
Q 25.484375 6.203125 34.421875 6.203125 
Q 39.59375 6.203125 44.453125 7.46875 
Q 49.3125 8.734375 54.109375 11.28125 
L 54.109375 2.78125 
Q 49.265625 0.734375 44.1875 -0.34375 
Q 39.109375 -1.421875 33.890625 -1.421875 
Q 20.796875 -1.421875 13.15625 6.1875 
Q 5.515625 13.8125 5.515625 26.8125 
Q 5.515625 40.234375 12.765625 48.109375 
Q 20.015625 56 32.328125 56 
Q 43.359375 56 49.78125 48.890625 
Q 56.203125 41.796875 56.203125 29.59375 
z
M 47.21875 32.234375 
Q 47.125 39.59375 43.09375 43.984375 
Q 39.0625 48.390625 32.421875 48.390625 
Q 24.90625 48.390625 20.390625 44.140625 
Q 15.875 39.890625 15.1875 32.171875 
z
" id="DejaVuSans-101"/>
      <path d="M 44.28125 53.078125 
L 44.28125 44.578125 
Q 40.484375 46.53125 36.375 47.5 
Q 32.28125 48.484375 27.875 48.484375 
Q 21.1875 48.484375 17.84375 46.4375 
Q 14.5 44.390625 14.5 40.28125 
Q 14.5 37.15625 16.890625 35.375 
Q 19.28125 33.59375 26.515625 31.984375 
L 29.59375 31.296875 
Q 39.15625 29.25 43.1875 25.515625 
Q 47.21875 21.78125 47.21875 15.09375 
Q 47.21875 7.46875 41.1875 3.015625 
Q 35.15625 -1.421875 24.609375 -1.421875 
Q 20.21875 -1.421875 15.453125 -0.5625 
Q 10.6875 0.296875 5.421875 2 
L 5.421875 11.28125 
Q 10.40625 8.6875 15.234375 7.390625 
Q 20.0625 6.109375 24.8125 6.109375 
Q 31.15625 6.109375 34.5625 8.28125 
Q 37.984375 10.453125 37.984375 14.40625 
Q 37.984375 18.0625 35.515625 20.015625 
Q 33.0625 21.96875 24.703125 23.78125 
L 21.578125 24.515625 
Q 13.234375 26.265625 9.515625 29.90625 
Q 5.8125 33.546875 5.8125 39.890625 
Q 5.8125 47.609375 11.28125 51.796875 
Q 16.75 56 26.8125 56 
Q 31.78125 56 36.171875 55.265625 
Q 40.578125 54.546875 44.28125 53.078125 
z
" id="DejaVuSans-115"/>
     </defs>
     <g transform="translate(215.349063 335.860562)scale(0.1 -0.1)">
      <use xlink:href="#DejaVuSans-120"/>
      <use x="59.179688" xlink:href="#DejaVuSans-32"/>
      <use x="90.966797" xlink:href="#DejaVuSans-118"/>
      <use x="150.146484" xlink:href="#DejaVuSans-97"/>
      <use x="211.425781" xlink:href="#DejaVuSans-108"/>
      <use x="239.208984" xlink:href="#DejaVuSans-117"/>
      <use x="302.587891" xlink:href="#DejaVuSans-101"/>
      <use x="364.111328" xlink:href="#DejaVuSans-115"/>
     </g>
    </g>
   </g>
   <g id="matplotlib.axis_2">
    <g id="ytick_1">
     <g id="line2d_9">
      <defs>
       <path d="M 0 0 
L -3.5 0 
" id="mb4201ab57b" style="stroke:#000000;stroke-width:0.8;"/>
      </defs>
      <g>
       <use style="stroke:#000000;stroke-width:0.8;" x="57.6" xlink:href="#mb4201ab57b" y="293.623654"/>
      </g>
     </g>
     <g id="text_10">
      <!-- 0 -->
      <g transform="translate(44.2375 297.422873)scale(0.1 -0.1)">
       <use xlink:href="#DejaVuSans-48"/>
      </g>
     </g>
    </g>
    <g id="ytick_2">
     <g id="line2d_10">
      <g>
       <use style="stroke:#000000;stroke-width:0.8;" x="57.6" xlink:href="#mb4201ab57b" y="263.544153"/>
      </g>
     </g>
     <g id="text_11">
      <!-- 100 -->
      <g transform="translate(31.5125 267.343371)scale(0.1 -0.1)">
       <use xlink:href="#DejaVuSans-49"/>
       <use x="63.623047" xlink:href="#DejaVuSans-48"/>
       <use x="127.246094" xlink:href="#DejaVuSans-48"/>
      </g>
     </g>
    </g>
    <g id="ytick_3">
     <g id="line2d_11">
      <g>
       <use style="stroke:#000000;stroke-width:0.8;" x="57.6" xlink:href="#mb4201ab57b" y="233.464651"/>
      </g>
     </g>
     <g id="text_12">
      <!-- 200 -->
      <g transform="translate(31.5125 237.263869)scale(0.1 -0.1)">
       <use xlink:href="#DejaVuSans-50"/>
       <use x="63.623047" xlink:href="#DejaVuSans-48"/>
       <use x="127.246094" xlink:href="#DejaVuSans-48"/>
      </g>
     </g>
    </g>
    <g id="ytick_4">
     <g id="line2d_12">
      <g>
       <use style="stroke:#000000;stroke-width:0.8;" x="57.6" xlink:href="#mb4201ab57b" y="203.385149"/>
      </g>
     </g>
     <g id="text_13">
      <!-- 300 -->
      <g transform="translate(31.5125 207.184368)scale(0.1 -0.1)">
       <use xlink:href="#DejaVuSans-51"/>
       <use x="63.623047" xlink:href="#DejaVuSans-48"/>
       <use x="127.246094" xlink:href="#DejaVuSans-48"/>
      </g>
     </g>
    </g>
    <g id="ytick_5">
     <g id="line2d_13">
      <g>
       <use style="stroke:#000000;stroke-width:0.8;" x="57.6" xlink:href="#mb4201ab57b" y="173.305647"/>
      </g>
     </g>
     <g id="text_14">
      <!-- 400 -->
      <g transform="translate(31.5125 177.104866)scale(0.1 -0.1)">
       <use xlink:href="#DejaVuSans-52"/>
       <use x="63.623047" xlink:href="#DejaVuSans-48"/>
       <use x="127.246094" xlink:href="#DejaVuSans-48"/>
      </g>
     </g>
    </g>
    <g id="ytick_6">
     <g id="line2d_14">
      <g>
       <use style="stroke:#000000;stroke-width:0.8;" x="57.6" xlink:href="#mb4201ab57b" y="143.226145"/>
      </g>
     </g>
     <g id="text_15">
      <!-- 500 -->
      <g transform="translate(31.5125 147.025364)scale(0.1 -0.1)">
       <use xlink:href="#DejaVuSans-53"/>
       <use x="63.623047" xlink:href="#DejaVuSans-48"/>
       <use x="127.246094" xlink:href="#DejaVuSans-48"/>
      </g>
     </g>
    </g>
    <g id="ytick_7">
     <g id="line2d_15">
      <g>
       <use style="stroke:#000000;stroke-width:0.8;" x="57.6" xlink:href="#mb4201ab57b" y="113.146643"/>
      </g>
     </g>
     <g id="text_16">
      <!-- 600 -->
      <g transform="translate(31.5125 116.945862)scale(0.1 -0.1)">
       <use xlink:href="#DejaVuSans-54"/>
       <use x="63.623047" xlink:href="#DejaVuSans-48"/>
       <use x="127.246094" xlink:href="#DejaVuSans-48"/>
      </g>
     </g>
    </g>
    <g id="ytick_8">
     <g id="line2d_16">
      <g>
       <use style="stroke:#000000;stroke-width:0.8;" x="57.6" xlink:href="#mb4201ab57b" y="83.067141"/>
      </g>
     </g>
     <g id="text_17">
      <!-- 700 -->
      <g transform="translate(31.5125 86.86636)scale(0.1 -0.1)">
       <use xlink:href="#DejaVuSans-55"/>
       <use x="63.623047" xlink:href="#DejaVuSans-48"/>
       <use x="127.246094" xlink:href="#DejaVuSans-48"/>
      </g>
     </g>
    </g>
    <g id="ytick_9">
     <g id="line2d_17">
      <g>
       <use style="stroke:#000000;stroke-width:0.8;" x="57.6" xlink:href="#mb4201ab57b" y="52.987639"/>
      </g>
     </g>
     <g id="text_18">
      <!-- 800 -->
      <g transform="translate(31.5125 56.786858)scale(0.1 -0.1)">
       <use xlink:href="#DejaVuSans-56"/>
       <use x="63.623047" xlink:href="#DejaVuSans-48"/>
       <use x="127.246094" xlink:href="#DejaVuSans-48"/>
      </g>
     </g>
    </g>
    <g id="text_19">
     <!-- y values -->
     <defs>
      <path d="M 32.171875 -5.078125 
Q 28.375 -14.84375 24.75 -17.8125 
Q 21.140625 -20.796875 15.09375 -20.796875 
L 7.90625 -20.796875 
L 7.90625 -13.28125 
L 13.1875 -13.28125 
Q 16.890625 -13.28125 18.9375 -11.515625 
Q 21 -9.765625 23.484375 -3.21875 
L 25.09375 0.875 
L 2.984375 54.6875 
L 12.5 54.6875 
L 29.59375 11.921875 
L 46.6875 54.6875 
L 56.203125 54.6875 
z
" id="DejaVuSans-121"/>
     </defs>
     <g transform="translate(25.432812 195.338937)rotate(-90)scale(0.1 -0.1)">
      <use xlink:href="#DejaVuSans-121"/>
      <use x="59.179688" xlink:href="#DejaVuSans-32"/>
      <use x="90.966797" xlink:href="#DejaVuSans-118"/>
      <use x="150.146484" xlink:href="#DejaVuSans-97"/>
      <use x="211.425781" xlink:href="#DejaVuSans-108"/>
      <use x="239.208984" xlink:href="#DejaVuSans-117"/>
      <use x="302.587891" xlink:href="#DejaVuSans-101"/>
      <use x="364.111328" xlink:href="#DejaVuSans-115"/>
     </g>
    </g>
   </g>
   <g id="line2d_18">
    <defs>
     <path d="M 0 1 
C 0.265203 1 0.51958 0.894634 0.707107 0.707107 
C 0.894634 0.51958 1 0.265203 1 0 
C 1 -0.265203 0.894634 -0.51958 0.707107 -0.707107 
C 0.51958 -0.894634 0.265203 -1 0 -1 
C -0.265203 -1 -0.51958 -0.894634 -0.707107 -0.707107 
C -0.894634 -0.51958 -1 -0.265203 -1 0 
C -1 0.265203 -0.894634 0.51958 -0.707107 0.707107 
C -0.51958 0.894634 -0.265203 1 0 1 
z
" id="md85cf02fe4" style="stroke:#ff0000;"/>
    </defs>
    <g clip-path="url(#p12ef9da0cf)">
     <use style="fill:#ff0000;stroke:#ff0000;" x="73.832727" xlink:href="#md85cf02fe4" y="69.241731"/>
     <use style="fill:#ff0000;stroke:#ff0000;" x="74.929533" xlink:href="#md85cf02fe4" y="53.568"/>
     <use style="fill:#ff0000;stroke:#ff0000;" x="76.026339" xlink:href="#md85cf02fe4" y="56.645138"/>
     <use style="fill:#ff0000;stroke:#ff0000;" x="77.123145" xlink:href="#md85cf02fe4" y="53.587263"/>
     <use style="fill:#ff0000;stroke:#ff0000;" x="78.219951" xlink:href="#md85cf02fe4" y="75.649257"/>
     <use style="fill:#ff0000;stroke:#ff0000;" x="79.316757" xlink:href="#md85cf02fe4" y="101.194131"/>
     <use style="fill:#ff0000;stroke:#ff0000;" x="80.413563" xlink:href="#md85cf02fe4" y="120.972237"/>
     <use style="fill:#ff0000;stroke:#ff0000;" x="81.510369" xlink:href="#md85cf02fe4" y="75.42463"/>
     <use style="fill:#ff0000;stroke:#ff0000;" x="82.607174" xlink:href="#md85cf02fe4" y="95.53981"/>
     <use style="fill:#ff0000;stroke:#ff0000;" x="83.70398" xlink:href="#md85cf02fe4" y="106.914877"/>
     <use style="fill:#ff0000;stroke:#ff0000;" x="84.800786" xlink:href="#md85cf02fe4" y="113.792592"/>
     <use style="fill:#ff0000;stroke:#ff0000;" x="85.897592" xlink:href="#md85cf02fe4" y="124.643491"/>
     <use style="fill:#ff0000;stroke:#ff0000;" x="86.994398" xlink:href="#md85cf02fe4" y="109.059036"/>
     <use style="fill:#ff0000;stroke:#ff0000;" x="88.091204" xlink:href="#md85cf02fe4" y="95.783197"/>
     <use style="fill:#ff0000;stroke:#ff0000;" x="89.18801" xlink:href="#md85cf02fe4" y="75.814677"/>
     <use style="fill:#ff0000;stroke:#ff0000;" x="90.284816" xlink:href="#md85cf02fe4" y="93.495109"/>
     <use style="fill:#ff0000;stroke:#ff0000;" x="91.381622" xlink:href="#md85cf02fe4" y="142.389484"/>
     <use style="fill:#ff0000;stroke:#ff0000;" x="92.478428" xlink:href="#md85cf02fe4" y="147.702164"/>
     <use style="fill:#ff0000;stroke:#ff0000;" x="93.575233" xlink:href="#md85cf02fe4" y="145.386341"/>
     <use style="fill:#ff0000;stroke:#ff0000;" x="94.672039" xlink:href="#md85cf02fe4" y="83.680085"/>
     <use style="fill:#ff0000;stroke:#ff0000;" x="95.768845" xlink:href="#md85cf02fe4" y="105.358746"/>
     <use style="fill:#ff0000;stroke:#ff0000;" x="96.865651" xlink:href="#md85cf02fe4" y="120.498176"/>
     <use style="fill:#ff0000;stroke:#ff0000;" x="97.962457" xlink:href="#md85cf02fe4" y="131.991651"/>
     <use style="fill:#ff0000;stroke:#ff0000;" x="99.059263" xlink:href="#md85cf02fe4" y="131.437821"/>
     <use style="fill:#ff0000;stroke:#ff0000;" x="100.156069" xlink:href="#md85cf02fe4" y="139.204638"/>
     <use style="fill:#ff0000;stroke:#ff0000;" x="101.252875" xlink:href="#md85cf02fe4" y="111.267507"/>
     <use style="fill:#ff0000;stroke:#ff0000;" x="102.349681" xlink:href="#md85cf02fe4" y="132.456916"/>
     <use style="fill:#ff0000;stroke:#ff0000;" x="103.446486" xlink:href="#md85cf02fe4" y="123.103672"/>
     <use style="fill:#ff0000;stroke:#ff0000;" x="104.543292" xlink:href="#md85cf02fe4" y="156.648103"/>
     <use style="fill:#ff0000;stroke:#ff0000;" x="105.640098" xlink:href="#md85cf02fe4" y="127.229323"/>
     <use style="fill:#ff0000;stroke:#ff0000;" x="106.736904" xlink:href="#md85cf02fe4" y="115.336666"/>
     <use style="fill:#ff0000;stroke:#ff0000;" x="107.83371" xlink:href="#md85cf02fe4" y="143.66909"/>
     <use style="fill:#ff0000;stroke:#ff0000;" x="108.930516" xlink:href="#md85cf02fe4" y="139.702152"/>
     <use style="fill:#ff0000;stroke:#ff0000;" x="110.027322" xlink:href="#md85cf02fe4" y="133.38793"/>
     <use style="fill:#ff0000;stroke:#ff0000;" x="111.124128" xlink:href="#md85cf02fe4" y="135.602138"/>
     <use style="fill:#ff0000;stroke:#ff0000;" x="112.220934" xlink:href="#md85cf02fe4" y="139.485906"/>
     <use style="fill:#ff0000;stroke:#ff0000;" x="113.31774" xlink:href="#md85cf02fe4" y="137.20273"/>
     <use style="fill:#ff0000;stroke:#ff0000;" x="114.414545" xlink:href="#md85cf02fe4" y="133.525846"/>
     <use style="fill:#ff0000;stroke:#ff0000;" x="115.511351" xlink:href="#md85cf02fe4" y="173.139881"/>
     <use style="fill:#ff0000;stroke:#ff0000;" x="116.608157" xlink:href="#md85cf02fe4" y="174.450366"/>
     <use style="fill:#ff0000;stroke:#ff0000;" x="117.704963" xlink:href="#md85cf02fe4" y="192.834541"/>
     <use style="fill:#ff0000;stroke:#ff0000;" x="118.801769" xlink:href="#md85cf02fe4" y="161.444173"/>
     <use style="fill:#ff0000;stroke:#ff0000;" x="119.898575" xlink:href="#md85cf02fe4" y="160.668855"/>
     <use style="fill:#ff0000;stroke:#ff0000;" x="120.995381" xlink:href="#md85cf02fe4" y="170.701244"/>
     <use style="fill:#ff0000;stroke:#ff0000;" x="122.092187" xlink:href="#md85cf02fe4" y="147.163696"/>
     <use style="fill:#ff0000;stroke:#ff0000;" x="123.188993" xlink:href="#md85cf02fe4" y="170.315203"/>
     <use style="fill:#ff0000;stroke:#ff0000;" x="124.285799" xlink:href="#md85cf02fe4" y="141.791463"/>
     <use style="fill:#ff0000;stroke:#ff0000;" x="125.382604" xlink:href="#md85cf02fe4" y="183.959162"/>
     <use style="fill:#ff0000;stroke:#ff0000;" x="126.47941" xlink:href="#md85cf02fe4" y="151.47129"/>
     <use style="fill:#ff0000;stroke:#ff0000;" x="127.576216" xlink:href="#md85cf02fe4" y="175.987621"/>
     <use style="fill:#ff0000;stroke:#ff0000;" x="128.673022" xlink:href="#md85cf02fe4" y="160.207337"/>
     <use style="fill:#ff0000;stroke:#ff0000;" x="129.769828" xlink:href="#md85cf02fe4" y="176.590682"/>
     <use style="fill:#ff0000;stroke:#ff0000;" x="130.866634" xlink:href="#md85cf02fe4" y="170.433512"/>
     <use style="fill:#ff0000;stroke:#ff0000;" x="131.96344" xlink:href="#md85cf02fe4" y="152.577295"/>
     <use style="fill:#ff0000;stroke:#ff0000;" x="133.060246" xlink:href="#md85cf02fe4" y="201.274774"/>
     <use style="fill:#ff0000;stroke:#ff0000;" x="134.157052" xlink:href="#md85cf02fe4" y="169.952895"/>
     <use style="fill:#ff0000;stroke:#ff0000;" x="135.253857" xlink:href="#md85cf02fe4" y="164.789096"/>
     <use style="fill:#ff0000;stroke:#ff0000;" x="136.350663" xlink:href="#md85cf02fe4" y="163.219234"/>
     <use style="fill:#ff0000;stroke:#ff0000;" x="137.447469" xlink:href="#md85cf02fe4" y="172.962174"/>
     <use style="fill:#ff0000;stroke:#ff0000;" x="138.544275" xlink:href="#md85cf02fe4" y="171.523259"/>
     <use style="fill:#ff0000;stroke:#ff0000;" x="139.641081" xlink:href="#md85cf02fe4" y="197.496687"/>
     <use style="fill:#ff0000;stroke:#ff0000;" x="140.737887" xlink:href="#md85cf02fe4" y="200.575421"/>
     <use style="fill:#ff0000;stroke:#ff0000;" x="141.834693" xlink:href="#md85cf02fe4" y="201.343296"/>
     <use style="fill:#ff0000;stroke:#ff0000;" x="142.931499" xlink:href="#md85cf02fe4" y="185.743449"/>
     <use style="fill:#ff0000;stroke:#ff0000;" x="144.028305" xlink:href="#md85cf02fe4" y="179.778275"/>
     <use style="fill:#ff0000;stroke:#ff0000;" x="145.125111" xlink:href="#md85cf02fe4" y="208.081635"/>
     <use style="fill:#ff0000;stroke:#ff0000;" x="146.221916" xlink:href="#md85cf02fe4" y="215.523447"/>
     <use style="fill:#ff0000;stroke:#ff0000;" x="147.318722" xlink:href="#md85cf02fe4" y="192.785556"/>
     <use style="fill:#ff0000;stroke:#ff0000;" x="148.415528" xlink:href="#md85cf02fe4" y="206.981425"/>
     <use style="fill:#ff0000;stroke:#ff0000;" x="149.512334" xlink:href="#md85cf02fe4" y="195.666968"/>
     <use style="fill:#ff0000;stroke:#ff0000;" x="150.60914" xlink:href="#md85cf02fe4" y="215.143494"/>
     <use style="fill:#ff0000;stroke:#ff0000;" x="151.705946" xlink:href="#md85cf02fe4" y="192.120463"/>
     <use style="fill:#ff0000;stroke:#ff0000;" x="152.802752" xlink:href="#md85cf02fe4" y="225.155536"/>
     <use style="fill:#ff0000;stroke:#ff0000;" x="153.899558" xlink:href="#md85cf02fe4" y="203.428362"/>
     <use style="fill:#ff0000;stroke:#ff0000;" x="154.996364" xlink:href="#md85cf02fe4" y="198.395301"/>
     <use style="fill:#ff0000;stroke:#ff0000;" x="156.09317" xlink:href="#md85cf02fe4" y="218.119998"/>
     <use style="fill:#ff0000;stroke:#ff0000;" x="157.189975" xlink:href="#md85cf02fe4" y="210.846996"/>
     <use style="fill:#ff0000;stroke:#ff0000;" x="158.286781" xlink:href="#md85cf02fe4" y="215.379444"/>
     <use style="fill:#ff0000;stroke:#ff0000;" x="159.383587" xlink:href="#md85cf02fe4" y="210.169269"/>
     <use style="fill:#ff0000;stroke:#ff0000;" x="160.480393" xlink:href="#md85cf02fe4" y="212.270075"/>
     <use style="fill:#ff0000;stroke:#ff0000;" x="161.577199" xlink:href="#md85cf02fe4" y="211.186074"/>
     <use style="fill:#ff0000;stroke:#ff0000;" x="162.674005" xlink:href="#md85cf02fe4" y="225.42937"/>
     <use style="fill:#ff0000;stroke:#ff0000;" x="163.770811" xlink:href="#md85cf02fe4" y="240.62091"/>
     <use style="fill:#ff0000;stroke:#ff0000;" x="164.867617" xlink:href="#md85cf02fe4" y="213.621338"/>
     <use style="fill:#ff0000;stroke:#ff0000;" x="165.964423" xlink:href="#md85cf02fe4" y="217.569238"/>
     <use style="fill:#ff0000;stroke:#ff0000;" x="167.061229" xlink:href="#md85cf02fe4" y="230.775372"/>
     <use style="fill:#ff0000;stroke:#ff0000;" x="168.158034" xlink:href="#md85cf02fe4" y="222.79331"/>
     <use style="fill:#ff0000;stroke:#ff0000;" x="169.25484" xlink:href="#md85cf02fe4" y="238.19568"/>
     <use style="fill:#ff0000;stroke:#ff0000;" x="170.351646" xlink:href="#md85cf02fe4" y="224.553403"/>
     <use style="fill:#ff0000;stroke:#ff0000;" x="171.448452" xlink:href="#md85cf02fe4" y="231.893162"/>
     <use style="fill:#ff0000;stroke:#ff0000;" x="172.545258" xlink:href="#md85cf02fe4" y="231.129975"/>
     <use style="fill:#ff0000;stroke:#ff0000;" x="173.642064" xlink:href="#md85cf02fe4" y="230.915196"/>
     <use style="fill:#ff0000;stroke:#ff0000;" x="174.73887" xlink:href="#md85cf02fe4" y="242.63353"/>
     <use style="fill:#ff0000;stroke:#ff0000;" x="175.835676" xlink:href="#md85cf02fe4" y="216.796629"/>
     <use style="fill:#ff0000;stroke:#ff0000;" x="176.932482" xlink:href="#md85cf02fe4" y="225.635234"/>
     <use style="fill:#ff0000;stroke:#ff0000;" x="178.029287" xlink:href="#md85cf02fe4" y="231.487815"/>
     <use style="fill:#ff0000;stroke:#ff0000;" x="179.126093" xlink:href="#md85cf02fe4" y="231.819573"/>
     <use style="fill:#ff0000;stroke:#ff0000;" x="180.222899" xlink:href="#md85cf02fe4" y="237.799572"/>
     <use style="fill:#ff0000;stroke:#ff0000;" x="181.319705" xlink:href="#md85cf02fe4" y="247.527222"/>
     <use style="fill:#ff0000;stroke:#ff0000;" x="182.416511" xlink:href="#md85cf02fe4" y="227.813365"/>
     <use style="fill:#ff0000;stroke:#ff0000;" x="183.513317" xlink:href="#md85cf02fe4" y="230.007181"/>
     <use style="fill:#ff0000;stroke:#ff0000;" x="184.610123" xlink:href="#md85cf02fe4" y="233.788723"/>
     <use style="fill:#ff0000;stroke:#ff0000;" x="185.706929" xlink:href="#md85cf02fe4" y="241.099711"/>
     <use style="fill:#ff0000;stroke:#ff0000;" x="186.803735" xlink:href="#md85cf02fe4" y="235.874837"/>
     <use style="fill:#ff0000;stroke:#ff0000;" x="187.900541" xlink:href="#md85cf02fe4" y="242.539153"/>
     <use style="fill:#ff0000;stroke:#ff0000;" x="188.997346" xlink:href="#md85cf02fe4" y="246.409765"/>
     <use style="fill:#ff0000;stroke:#ff0000;" x="190.094152" xlink:href="#md85cf02fe4" y="241.511833"/>
     <use style="fill:#ff0000;stroke:#ff0000;" x="191.190958" xlink:href="#md85cf02fe4" y="247.138682"/>
     <use style="fill:#ff0000;stroke:#ff0000;" x="192.287764" xlink:href="#md85cf02fe4" y="250.697207"/>
     <use style="fill:#ff0000;stroke:#ff0000;" x="193.38457" xlink:href="#md85cf02fe4" y="237.996967"/>
     <use style="fill:#ff0000;stroke:#ff0000;" x="194.481376" xlink:href="#md85cf02fe4" y="249.881908"/>
     <use style="fill:#ff0000;stroke:#ff0000;" x="195.578182" xlink:href="#md85cf02fe4" y="245.039126"/>
     <use style="fill:#ff0000;stroke:#ff0000;" x="196.674988" xlink:href="#md85cf02fe4" y="248.429017"/>
     <use style="fill:#ff0000;stroke:#ff0000;" x="197.771794" xlink:href="#md85cf02fe4" y="246.658983"/>
     <use style="fill:#ff0000;stroke:#ff0000;" x="198.8686" xlink:href="#md85cf02fe4" y="259.842854"/>
     <use style="fill:#ff0000;stroke:#ff0000;" x="199.965405" xlink:href="#md85cf02fe4" y="245.22997"/>
     <use style="fill:#ff0000;stroke:#ff0000;" x="201.062211" xlink:href="#md85cf02fe4" y="245.125243"/>
     <use style="fill:#ff0000;stroke:#ff0000;" x="202.159017" xlink:href="#md85cf02fe4" y="251.979929"/>
     <use style="fill:#ff0000;stroke:#ff0000;" x="203.255823" xlink:href="#md85cf02fe4" y="271.157439"/>
     <use style="fill:#ff0000;stroke:#ff0000;" x="204.352629" xlink:href="#md85cf02fe4" y="263.807806"/>
     <use style="fill:#ff0000;stroke:#ff0000;" x="205.449435" xlink:href="#md85cf02fe4" y="259.572139"/>
     <use style="fill:#ff0000;stroke:#ff0000;" x="206.546241" xlink:href="#md85cf02fe4" y="267.168265"/>
     <use style="fill:#ff0000;stroke:#ff0000;" x="207.643047" xlink:href="#md85cf02fe4" y="259.311125"/>
     <use style="fill:#ff0000;stroke:#ff0000;" x="208.739853" xlink:href="#md85cf02fe4" y="259.70178"/>
     <use style="fill:#ff0000;stroke:#ff0000;" x="209.836658" xlink:href="#md85cf02fe4" y="264.692444"/>
     <use style="fill:#ff0000;stroke:#ff0000;" x="210.933464" xlink:href="#md85cf02fe4" y="262.077522"/>
     <use style="fill:#ff0000;stroke:#ff0000;" x="212.03027" xlink:href="#md85cf02fe4" y="259.311325"/>
     <use style="fill:#ff0000;stroke:#ff0000;" x="213.127076" xlink:href="#md85cf02fe4" y="271.908271"/>
     <use style="fill:#ff0000;stroke:#ff0000;" x="214.223882" xlink:href="#md85cf02fe4" y="262.691772"/>
     <use style="fill:#ff0000;stroke:#ff0000;" x="215.320688" xlink:href="#md85cf02fe4" y="271.704725"/>
     <use style="fill:#ff0000;stroke:#ff0000;" x="216.417494" xlink:href="#md85cf02fe4" y="269.465918"/>
     <use style="fill:#ff0000;stroke:#ff0000;" x="217.5143" xlink:href="#md85cf02fe4" y="265.353906"/>
     <use style="fill:#ff0000;stroke:#ff0000;" x="218.611106" xlink:href="#md85cf02fe4" y="271.581461"/>
     <use style="fill:#ff0000;stroke:#ff0000;" x="219.707912" xlink:href="#md85cf02fe4" y="261.273106"/>
     <use style="fill:#ff0000;stroke:#ff0000;" x="220.804717" xlink:href="#md85cf02fe4" y="265.39622"/>
     <use style="fill:#ff0000;stroke:#ff0000;" x="221.901523" xlink:href="#md85cf02fe4" y="265.463079"/>
     <use style="fill:#ff0000;stroke:#ff0000;" x="222.998329" xlink:href="#md85cf02fe4" y="268.398303"/>
     <use style="fill:#ff0000;stroke:#ff0000;" x="224.095135" xlink:href="#md85cf02fe4" y="282.417341"/>
     <use style="fill:#ff0000;stroke:#ff0000;" x="225.191941" xlink:href="#md85cf02fe4" y="263.27174"/>
     <use style="fill:#ff0000;stroke:#ff0000;" x="226.288747" xlink:href="#md85cf02fe4" y="276.588373"/>
     <use style="fill:#ff0000;stroke:#ff0000;" x="227.385553" xlink:href="#md85cf02fe4" y="279.430336"/>
     <use style="fill:#ff0000;stroke:#ff0000;" x="228.482359" xlink:href="#md85cf02fe4" y="280.270215"/>
     <use style="fill:#ff0000;stroke:#ff0000;" x="229.579165" xlink:href="#md85cf02fe4" y="266.129006"/>
     <use style="fill:#ff0000;stroke:#ff0000;" x="230.675971" xlink:href="#md85cf02fe4" y="279.224997"/>
     <use style="fill:#ff0000;stroke:#ff0000;" x="231.772776" xlink:href="#md85cf02fe4" y="282.605161"/>
     <use style="fill:#ff0000;stroke:#ff0000;" x="232.869582" xlink:href="#md85cf02fe4" y="280.96"/>
     <use style="fill:#ff0000;stroke:#ff0000;" x="233.966388" xlink:href="#md85cf02fe4" y="270.435175"/>
     <use style="fill:#ff0000;stroke:#ff0000;" x="235.063194" xlink:href="#md85cf02fe4" y="282.265919"/>
     <use style="fill:#ff0000;stroke:#ff0000;" x="236.16" xlink:href="#md85cf02fe4" y="273.068242"/>
     <use style="fill:#ff0000;stroke:#ff0000;" x="237.256806" xlink:href="#md85cf02fe4" y="271.120803"/>
     <use style="fill:#ff0000;stroke:#ff0000;" x="238.353612" xlink:href="#md85cf02fe4" y="275.827859"/>
     <use style="fill:#ff0000;stroke:#ff0000;" x="239.450418" xlink:href="#md85cf02fe4" y="282.429429"/>
     <use style="fill:#ff0000;stroke:#ff0000;" x="240.547224" xlink:href="#md85cf02fe4" y="276.574571"/>
     <use style="fill:#ff0000;stroke:#ff0000;" x="241.644029" xlink:href="#md85cf02fe4" y="281.919746"/>
     <use style="fill:#ff0000;stroke:#ff0000;" x="242.740835" xlink:href="#md85cf02fe4" y="285.344221"/>
     <use style="fill:#ff0000;stroke:#ff0000;" x="243.837641" xlink:href="#md85cf02fe4" y="283.775876"/>
     <use style="fill:#ff0000;stroke:#ff0000;" x="244.934447" xlink:href="#md85cf02fe4" y="281.783632"/>
     <use style="fill:#ff0000;stroke:#ff0000;" x="246.031253" xlink:href="#md85cf02fe4" y="280.446863"/>
     <use style="fill:#ff0000;stroke:#ff0000;" x="247.128059" xlink:href="#md85cf02fe4" y="280.676176"/>
     <use style="fill:#ff0000;stroke:#ff0000;" x="248.224865" xlink:href="#md85cf02fe4" y="291.106301"/>
     <use style="fill:#ff0000;stroke:#ff0000;" x="249.321671" xlink:href="#md85cf02fe4" y="283.748331"/>
     <use style="fill:#ff0000;stroke:#ff0000;" x="250.418477" xlink:href="#md85cf02fe4" y="278.184495"/>
     <use style="fill:#ff0000;stroke:#ff0000;" x="251.515283" xlink:href="#md85cf02fe4" y="280.853865"/>
     <use style="fill:#ff0000;stroke:#ff0000;" x="252.612088" xlink:href="#md85cf02fe4" y="284.202036"/>
     <use style="fill:#ff0000;stroke:#ff0000;" x="253.708894" xlink:href="#md85cf02fe4" y="281.057856"/>
     <use style="fill:#ff0000;stroke:#ff0000;" x="254.8057" xlink:href="#md85cf02fe4" y="290.000628"/>
     <use style="fill:#ff0000;stroke:#ff0000;" x="255.902506" xlink:href="#md85cf02fe4" y="278.503501"/>
     <use style="fill:#ff0000;stroke:#ff0000;" x="256.999312" xlink:href="#md85cf02fe4" y="280.450914"/>
     <use style="fill:#ff0000;stroke:#ff0000;" x="258.096118" xlink:href="#md85cf02fe4" y="291.515726"/>
     <use style="fill:#ff0000;stroke:#ff0000;" x="259.192924" xlink:href="#md85cf02fe4" y="285.565192"/>
     <use style="fill:#ff0000;stroke:#ff0000;" x="260.28973" xlink:href="#md85cf02fe4" y="281.124324"/>
     <use style="fill:#ff0000;stroke:#ff0000;" x="261.386536" xlink:href="#md85cf02fe4" y="288.010758"/>
     <use style="fill:#ff0000;stroke:#ff0000;" x="262.483342" xlink:href="#md85cf02fe4" y="282.301894"/>
     <use style="fill:#ff0000;stroke:#ff0000;" x="263.580147" xlink:href="#md85cf02fe4" y="281.614106"/>
     <use style="fill:#ff0000;stroke:#ff0000;" x="264.676953" xlink:href="#md85cf02fe4" y="282.890699"/>
     <use style="fill:#ff0000;stroke:#ff0000;" x="265.773759" xlink:href="#md85cf02fe4" y="285.405249"/>
     <use style="fill:#ff0000;stroke:#ff0000;" x="266.870565" xlink:href="#md85cf02fe4" y="294.190731"/>
     <use style="fill:#ff0000;stroke:#ff0000;" x="267.967371" xlink:href="#md85cf02fe4" y="281.684986"/>
     <use style="fill:#ff0000;stroke:#ff0000;" x="269.064177" xlink:href="#md85cf02fe4" y="282.88502"/>
     <use style="fill:#ff0000;stroke:#ff0000;" x="270.160983" xlink:href="#md85cf02fe4" y="283.089207"/>
     <use style="fill:#ff0000;stroke:#ff0000;" x="271.257789" xlink:href="#md85cf02fe4" y="291.925419"/>
     <use style="fill:#ff0000;stroke:#ff0000;" x="272.354595" xlink:href="#md85cf02fe4" y="294.961517"/>
     <use style="fill:#ff0000;stroke:#ff0000;" x="273.4514" xlink:href="#md85cf02fe4" y="289.68566"/>
     <use style="fill:#ff0000;stroke:#ff0000;" x="274.548206" xlink:href="#md85cf02fe4" y="293.171567"/>
     <use style="fill:#ff0000;stroke:#ff0000;" x="275.645012" xlink:href="#md85cf02fe4" y="282.833818"/>
     <use style="fill:#ff0000;stroke:#ff0000;" x="276.741818" xlink:href="#md85cf02fe4" y="286.632599"/>
     <use style="fill:#ff0000;stroke:#ff0000;" x="277.838624" xlink:href="#md85cf02fe4" y="283.719178"/>
     <use style="fill:#ff0000;stroke:#ff0000;" x="278.93543" xlink:href="#md85cf02fe4" y="284.323522"/>
     <use style="fill:#ff0000;stroke:#ff0000;" x="280.032236" xlink:href="#md85cf02fe4" y="283.69676"/>
     <use style="fill:#ff0000;stroke:#ff0000;" x="281.129042" xlink:href="#md85cf02fe4" y="285.856196"/>
     <use style="fill:#ff0000;stroke:#ff0000;" x="282.225848" xlink:href="#md85cf02fe4" y="283.996753"/>
     <use style="fill:#ff0000;stroke:#ff0000;" x="283.322654" xlink:href="#md85cf02fe4" y="292.458568"/>
     <use style="fill:#ff0000;stroke:#ff0000;" x="284.419459" xlink:href="#md85cf02fe4" y="284.510942"/>
     <use style="fill:#ff0000;stroke:#ff0000;" x="285.516265" xlink:href="#md85cf02fe4" y="295.488"/>
     <use style="fill:#ff0000;stroke:#ff0000;" x="286.613071" xlink:href="#md85cf02fe4" y="289.468042"/>
     <use style="fill:#ff0000;stroke:#ff0000;" x="287.709877" xlink:href="#md85cf02fe4" y="284.556824"/>
     <use style="fill:#ff0000;stroke:#ff0000;" x="288.806683" xlink:href="#md85cf02fe4" y="291.965661"/>
     <use style="fill:#ff0000;stroke:#ff0000;" x="289.903489" xlink:href="#md85cf02fe4" y="293.109749"/>
     <use style="fill:#ff0000;stroke:#ff0000;" x="291.000295" xlink:href="#md85cf02fe4" y="290.146788"/>
     <use style="fill:#ff0000;stroke:#ff0000;" x="292.097101" xlink:href="#md85cf02fe4" y="284.434291"/>
     <use style="fill:#ff0000;stroke:#ff0000;" x="293.193907" xlink:href="#md85cf02fe4" y="292.663605"/>
     <use style="fill:#ff0000;stroke:#ff0000;" x="294.290713" xlink:href="#md85cf02fe4" y="291.760112"/>
     <use style="fill:#ff0000;stroke:#ff0000;" x="295.387518" xlink:href="#md85cf02fe4" y="287.597726"/>
     <use style="fill:#ff0000;stroke:#ff0000;" x="296.484324" xlink:href="#md85cf02fe4" y="295.241773"/>
     <use style="fill:#ff0000;stroke:#ff0000;" x="297.58113" xlink:href="#md85cf02fe4" y="283.968245"/>
     <use style="fill:#ff0000;stroke:#ff0000;" x="298.677936" xlink:href="#md85cf02fe4" y="292.694162"/>
     <use style="fill:#ff0000;stroke:#ff0000;" x="299.774742" xlink:href="#md85cf02fe4" y="287.204889"/>
     <use style="fill:#ff0000;stroke:#ff0000;" x="300.871548" xlink:href="#md85cf02fe4" y="289.387294"/>
     <use style="fill:#ff0000;stroke:#ff0000;" x="301.968354" xlink:href="#md85cf02fe4" y="291.365135"/>
     <use style="fill:#ff0000;stroke:#ff0000;" x="303.06516" xlink:href="#md85cf02fe4" y="282.000182"/>
     <use style="fill:#ff0000;stroke:#ff0000;" x="304.161966" xlink:href="#md85cf02fe4" y="294.57978"/>
     <use style="fill:#ff0000;stroke:#ff0000;" x="305.258771" xlink:href="#md85cf02fe4" y="292.707447"/>
     <use style="fill:#ff0000;stroke:#ff0000;" x="306.355577" xlink:href="#md85cf02fe4" y="280.423093"/>
     <use style="fill:#ff0000;stroke:#ff0000;" x="307.452383" xlink:href="#md85cf02fe4" y="292.33521"/>
     <use style="fill:#ff0000;stroke:#ff0000;" x="308.549189" xlink:href="#md85cf02fe4" y="282.302835"/>
     <use style="fill:#ff0000;stroke:#ff0000;" x="309.645995" xlink:href="#md85cf02fe4" y="285.899339"/>
     <use style="fill:#ff0000;stroke:#ff0000;" x="310.742801" xlink:href="#md85cf02fe4" y="281.682513"/>
     <use style="fill:#ff0000;stroke:#ff0000;" x="311.839607" xlink:href="#md85cf02fe4" y="284.234382"/>
     <use style="fill:#ff0000;stroke:#ff0000;" x="312.936413" xlink:href="#md85cf02fe4" y="283.903131"/>
     <use style="fill:#ff0000;stroke:#ff0000;" x="314.033219" xlink:href="#md85cf02fe4" y="285.927707"/>
     <use style="fill:#ff0000;stroke:#ff0000;" x="315.130025" xlink:href="#md85cf02fe4" y="283.830193"/>
     <use style="fill:#ff0000;stroke:#ff0000;" x="316.22683" xlink:href="#md85cf02fe4" y="285.415312"/>
     <use style="fill:#ff0000;stroke:#ff0000;" x="317.323636" xlink:href="#md85cf02fe4" y="282.244866"/>
     <use style="fill:#ff0000;stroke:#ff0000;" x="318.420442" xlink:href="#md85cf02fe4" y="278.850387"/>
     <use style="fill:#ff0000;stroke:#ff0000;" x="319.517248" xlink:href="#md85cf02fe4" y="279.267107"/>
     <use style="fill:#ff0000;stroke:#ff0000;" x="320.614054" xlink:href="#md85cf02fe4" y="283.855212"/>
     <use style="fill:#ff0000;stroke:#ff0000;" x="321.71086" xlink:href="#md85cf02fe4" y="292.224357"/>
     <use style="fill:#ff0000;stroke:#ff0000;" x="322.807666" xlink:href="#md85cf02fe4" y="277.237556"/>
     <use style="fill:#ff0000;stroke:#ff0000;" x="323.904472" xlink:href="#md85cf02fe4" y="281.72008"/>
     <use style="fill:#ff0000;stroke:#ff0000;" x="325.001278" xlink:href="#md85cf02fe4" y="284.894164"/>
     <use style="fill:#ff0000;stroke:#ff0000;" x="326.098084" xlink:href="#md85cf02fe4" y="281.26116"/>
     <use style="fill:#ff0000;stroke:#ff0000;" x="327.194889" xlink:href="#md85cf02fe4" y="284.276502"/>
     <use style="fill:#ff0000;stroke:#ff0000;" x="328.291695" xlink:href="#md85cf02fe4" y="289.179465"/>
     <use style="fill:#ff0000;stroke:#ff0000;" x="329.388501" xlink:href="#md85cf02fe4" y="274.641212"/>
     <use style="fill:#ff0000;stroke:#ff0000;" x="330.485307" xlink:href="#md85cf02fe4" y="276.169502"/>
     <use style="fill:#ff0000;stroke:#ff0000;" x="331.582113" xlink:href="#md85cf02fe4" y="286.557417"/>
     <use style="fill:#ff0000;stroke:#ff0000;" x="332.678919" xlink:href="#md85cf02fe4" y="272.448819"/>
     <use style="fill:#ff0000;stroke:#ff0000;" x="333.775725" xlink:href="#md85cf02fe4" y="273.135487"/>
     <use style="fill:#ff0000;stroke:#ff0000;" x="334.872531" xlink:href="#md85cf02fe4" y="284.087682"/>
     <use style="fill:#ff0000;stroke:#ff0000;" x="335.969337" xlink:href="#md85cf02fe4" y="281.826026"/>
     <use style="fill:#ff0000;stroke:#ff0000;" x="337.066143" xlink:href="#md85cf02fe4" y="271.074376"/>
     <use style="fill:#ff0000;stroke:#ff0000;" x="338.162948" xlink:href="#md85cf02fe4" y="284.5371"/>
     <use style="fill:#ff0000;stroke:#ff0000;" x="339.259754" xlink:href="#md85cf02fe4" y="278.343398"/>
     <use style="fill:#ff0000;stroke:#ff0000;" x="340.35656" xlink:href="#md85cf02fe4" y="284.290306"/>
     <use style="fill:#ff0000;stroke:#ff0000;" x="341.453366" xlink:href="#md85cf02fe4" y="266.081334"/>
     <use style="fill:#ff0000;stroke:#ff0000;" x="342.550172" xlink:href="#md85cf02fe4" y="278.836104"/>
     <use style="fill:#ff0000;stroke:#ff0000;" x="343.646978" xlink:href="#md85cf02fe4" y="275.785577"/>
     <use style="fill:#ff0000;stroke:#ff0000;" x="344.743784" xlink:href="#md85cf02fe4" y="277.284642"/>
     <use style="fill:#ff0000;stroke:#ff0000;" x="345.84059" xlink:href="#md85cf02fe4" y="265.302357"/>
     <use style="fill:#ff0000;stroke:#ff0000;" x="346.937396" xlink:href="#md85cf02fe4" y="281.99961"/>
     <use style="fill:#ff0000;stroke:#ff0000;" x="348.034201" xlink:href="#md85cf02fe4" y="274.995386"/>
     <use style="fill:#ff0000;stroke:#ff0000;" x="349.131007" xlink:href="#md85cf02fe4" y="271.323622"/>
     <use style="fill:#ff0000;stroke:#ff0000;" x="350.227813" xlink:href="#md85cf02fe4" y="274.563098"/>
     <use style="fill:#ff0000;stroke:#ff0000;" x="351.324619" xlink:href="#md85cf02fe4" y="272.283209"/>
     <use style="fill:#ff0000;stroke:#ff0000;" x="352.421425" xlink:href="#md85cf02fe4" y="264.059419"/>
     <use style="fill:#ff0000;stroke:#ff0000;" x="353.518231" xlink:href="#md85cf02fe4" y="273.09667"/>
     <use style="fill:#ff0000;stroke:#ff0000;" x="354.615037" xlink:href="#md85cf02fe4" y="270.414617"/>
     <use style="fill:#ff0000;stroke:#ff0000;" x="355.711843" xlink:href="#md85cf02fe4" y="268.040113"/>
     <use style="fill:#ff0000;stroke:#ff0000;" x="356.808649" xlink:href="#md85cf02fe4" y="261.656824"/>
     <use style="fill:#ff0000;stroke:#ff0000;" x="357.905455" xlink:href="#md85cf02fe4" y="268.997676"/>
     <use style="fill:#ff0000;stroke:#ff0000;" x="359.00226" xlink:href="#md85cf02fe4" y="266.467799"/>
     <use style="fill:#ff0000;stroke:#ff0000;" x="360.099066" xlink:href="#md85cf02fe4" y="262.482314"/>
     <use style="fill:#ff0000;stroke:#ff0000;" x="361.195872" xlink:href="#md85cf02fe4" y="261.118196"/>
     <use style="fill:#ff0000;stroke:#ff0000;" x="362.292678" xlink:href="#md85cf02fe4" y="269.298385"/>
     <use style="fill:#ff0000;stroke:#ff0000;" x="363.389484" xlink:href="#md85cf02fe4" y="263.802102"/>
     <use style="fill:#ff0000;stroke:#ff0000;" x="364.48629" xlink:href="#md85cf02fe4" y="257.727529"/>
     <use style="fill:#ff0000;stroke:#ff0000;" x="365.583096" xlink:href="#md85cf02fe4" y="264.306241"/>
     <use style="fill:#ff0000;stroke:#ff0000;" x="366.679902" xlink:href="#md85cf02fe4" y="250.448329"/>
     <use style="fill:#ff0000;stroke:#ff0000;" x="367.776708" xlink:href="#md85cf02fe4" y="268.958873"/>
     <use style="fill:#ff0000;stroke:#ff0000;" x="368.873514" xlink:href="#md85cf02fe4" y="260.641005"/>
     <use style="fill:#ff0000;stroke:#ff0000;" x="369.970319" xlink:href="#md85cf02fe4" y="248.627481"/>
     <use style="fill:#ff0000;stroke:#ff0000;" x="371.067125" xlink:href="#md85cf02fe4" y="245.048954"/>
     <use style="fill:#ff0000;stroke:#ff0000;" x="372.163931" xlink:href="#md85cf02fe4" y="254.237248"/>
     <use style="fill:#ff0000;stroke:#ff0000;" x="373.260737" xlink:href="#md85cf02fe4" y="255.798316"/>
     <use style="fill:#ff0000;stroke:#ff0000;" x="374.357543" xlink:href="#md85cf02fe4" y="262.230011"/>
     <use style="fill:#ff0000;stroke:#ff0000;" x="375.454349" xlink:href="#md85cf02fe4" y="244.477629"/>
     <use style="fill:#ff0000;stroke:#ff0000;" x="376.551155" xlink:href="#md85cf02fe4" y="260.857909"/>
     <use style="fill:#ff0000;stroke:#ff0000;" x="377.647961" xlink:href="#md85cf02fe4" y="253.810939"/>
     <use style="fill:#ff0000;stroke:#ff0000;" x="378.744767" xlink:href="#md85cf02fe4" y="252.535513"/>
     <use style="fill:#ff0000;stroke:#ff0000;" x="379.841572" xlink:href="#md85cf02fe4" y="248.286297"/>
     <use style="fill:#ff0000;stroke:#ff0000;" x="380.938378" xlink:href="#md85cf02fe4" y="256.36528"/>
     <use style="fill:#ff0000;stroke:#ff0000;" x="382.035184" xlink:href="#md85cf02fe4" y="245.314374"/>
     <use style="fill:#ff0000;stroke:#ff0000;" x="383.13199" xlink:href="#md85cf02fe4" y="243.067488"/>
     <use style="fill:#ff0000;stroke:#ff0000;" x="384.228796" xlink:href="#md85cf02fe4" y="246.133736"/>
     <use style="fill:#ff0000;stroke:#ff0000;" x="385.325602" xlink:href="#md85cf02fe4" y="243.117685"/>
     <use style="fill:#ff0000;stroke:#ff0000;" x="386.422408" xlink:href="#md85cf02fe4" y="245.917849"/>
     <use style="fill:#ff0000;stroke:#ff0000;" x="387.519214" xlink:href="#md85cf02fe4" y="251.822676"/>
     <use style="fill:#ff0000;stroke:#ff0000;" x="388.61602" xlink:href="#md85cf02fe4" y="243.286933"/>
     <use style="fill:#ff0000;stroke:#ff0000;" x="389.712826" xlink:href="#md85cf02fe4" y="246.198752"/>
     <use style="fill:#ff0000;stroke:#ff0000;" x="390.809631" xlink:href="#md85cf02fe4" y="231.649338"/>
     <use style="fill:#ff0000;stroke:#ff0000;" x="391.906437" xlink:href="#md85cf02fe4" y="230.830254"/>
     <use style="fill:#ff0000;stroke:#ff0000;" x="393.003243" xlink:href="#md85cf02fe4" y="227.59962"/>
     <use style="fill:#ff0000;stroke:#ff0000;" x="394.100049" xlink:href="#md85cf02fe4" y="233.221542"/>
     <use style="fill:#ff0000;stroke:#ff0000;" x="395.196855" xlink:href="#md85cf02fe4" y="252.117489"/>
     <use style="fill:#ff0000;stroke:#ff0000;" x="396.293661" xlink:href="#md85cf02fe4" y="223.273957"/>
     <use style="fill:#ff0000;stroke:#ff0000;" x="397.390467" xlink:href="#md85cf02fe4" y="232.798173"/>
     <use style="fill:#ff0000;stroke:#ff0000;" x="398.487273" xlink:href="#md85cf02fe4" y="247.890555"/>
    </g>
   </g>
   <g id="line2d_19">
    <path clip-path="url(#p12ef9da0cf)" d="M 73.832727 76.599668 
L 81.510369 91.628319 
L 89.18801 106.106755 
L 95.768845 118.078918 
L 102.349681 129.646841 
L 108.930516 140.810524 
L 115.511351 151.569968 
L 122.092187 161.925173 
L 128.673022 171.876138 
L 135.253857 181.422864 
L 141.834693 190.56535 
L 148.415528 199.303597 
L 154.996364 207.637604 
L 161.577199 215.567372 
L 168.158034 223.092901 
L 173.642064 229.055381 
L 179.126093 234.737139 
L 184.610123 240.138175 
L 190.094152 245.25849 
L 195.578182 250.098082 
L 201.062211 254.656953 
L 206.546241 258.935102 
L 212.03027 262.932529 
L 217.5143 266.649234 
L 222.998329 270.085218 
L 228.482359 273.240479 
L 233.966388 276.115019 
L 239.450418 278.708837 
L 244.934447 281.021933 
L 250.418477 283.054307 
L 255.902506 284.80596 
L 261.386536 286.27689 
L 266.870565 287.467099 
L 272.354595 288.376586 
L 276.741818 288.902056 
L 281.129042 289.247864 
L 285.516265 289.41401 
L 289.903489 289.400494 
L 294.290713 289.207316 
L 298.677936 288.834476 
L 303.06516 288.281974 
L 308.549189 287.338697 
L 314.033219 286.114698 
L 319.517248 284.609978 
L 325.001278 282.824535 
L 330.485307 280.758371 
L 335.969337 278.411485 
L 341.453366 275.783877 
L 346.937396 272.875547 
L 352.421425 269.686495 
L 357.905455 266.216722 
L 363.389484 262.466227 
L 368.873514 258.43501 
L 374.357543 254.123071 
L 379.841572 249.53041 
L 385.325602 244.657027 
L 390.809631 239.502923 
L 396.293661 234.068097 
L 398.487273 231.815564 
L 398.487273 231.815564 
" style="fill:none;stroke:#008000;stroke-linecap:square;stroke-width:1.5;"/>
   </g>
   <g id="patch_3">
    <path d="M 57.6 307.584 
L 57.6 41.472 
" style="fill:none;stroke:#000000;stroke-linecap:square;stroke-linejoin:miter;stroke-width:0.8;"/>
   </g>
   <g id="patch_4">
    <path d="M 414.72 307.584 
L 414.72 41.472 
" style="fill:none;stroke:#000000;stroke-linecap:square;stroke-linejoin:miter;stroke-width:0.8;"/>
   </g>
   <g id="patch_5">
    <path d="M 57.6 307.584 
L 414.72 307.584 
" style="fill:none;stroke:#000000;stroke-linecap:square;stroke-linejoin:miter;stroke-width:0.8;"/>
   </g>
   <g id="patch_6">
    <path d="M 57.6 41.472 
L 414.72 41.472 
" style="fill:none;stroke:#000000;stroke-linecap:square;stroke-linejoin:miter;stroke-width:0.8;"/>
   </g>
   <g id="text_20">
    <!-- FunctionFitting 10 -->
    <defs>
     <path d="M 9.8125 72.90625 
L 51.703125 72.90625 
L 51.703125 64.59375 
L 19.671875 64.59375 
L 19.671875 43.109375 
L 48.578125 43.109375 
L 48.578125 34.8125 
L 19.671875 34.8125 
L 19.671875 0 
L 9.8125 0 
z
" id="DejaVuSans-70"/>
     <path d="M 54.890625 33.015625 
L 54.890625 0 
L 45.90625 0 
L 45.90625 32.71875 
Q 45.90625 40.484375 42.875 44.328125 
Q 39.84375 48.1875 33.796875 48.1875 
Q 26.515625 48.1875 22.3125 43.546875 
Q 18.109375 38.921875 18.109375 30.90625 
L 18.109375 0 
L 9.078125 0 
L 9.078125 54.6875 
L 18.109375 54.6875 
L 18.109375 46.1875 
Q 21.34375 51.125 25.703125 53.5625 
Q 30.078125 56 35.796875 56 
Q 45.21875 56 50.046875 50.171875 
Q 54.890625 44.34375 54.890625 33.015625 
z
" id="DejaVuSans-110"/>
     <path d="M 48.78125 52.59375 
L 48.78125 44.1875 
Q 44.96875 46.296875 41.140625 47.34375 
Q 37.3125 48.390625 33.40625 48.390625 
Q 24.65625 48.390625 19.8125 42.84375 
Q 14.984375 37.3125 14.984375 27.296875 
Q 14.984375 17.28125 19.8125 11.734375 
Q 24.65625 6.203125 33.40625 6.203125 
Q 37.3125 6.203125 41.140625 7.25 
Q 44.96875 8.296875 48.78125 10.40625 
L 48.78125 2.09375 
Q 45.015625 0.34375 40.984375 -0.53125 
Q 36.96875 -1.421875 32.421875 -1.421875 
Q 20.0625 -1.421875 12.78125 6.34375 
Q 5.515625 14.109375 5.515625 27.296875 
Q 5.515625 40.671875 12.859375 48.328125 
Q 20.21875 56 33.015625 56 
Q 37.15625 56 41.109375 55.140625 
Q 45.0625 54.296875 48.78125 52.59375 
z
" id="DejaVuSans-99"/>
     <path d="M 18.3125 70.21875 
L 18.3125 54.6875 
L 36.8125 54.6875 
L 36.8125 47.703125 
L 18.3125 47.703125 
L 18.3125 18.015625 
Q 18.3125 11.328125 20.140625 9.421875 
Q 21.96875 7.515625 27.59375 7.515625 
L 36.8125 7.515625 
L 36.8125 0 
L 27.59375 0 
Q 17.1875 0 13.234375 3.875 
Q 9.28125 7.765625 9.28125 18.015625 
L 9.28125 47.703125 
L 2.6875 47.703125 
L 2.6875 54.6875 
L 9.28125 54.6875 
L 9.28125 70.21875 
z
" id="DejaVuSans-116"/>
     <path d="M 9.421875 54.6875 
L 18.40625 54.6875 
L 18.40625 0 
L 9.421875 0 
z
M 9.421875 75.984375 
L 18.40625 75.984375 
L 18.40625 64.59375 
L 9.421875 64.59375 
z
" id="DejaVuSans-105"/>
     <path d="M 30.609375 48.390625 
Q 23.390625 48.390625 19.1875 42.75 
Q 14.984375 37.109375 14.984375 27.296875 
Q 14.984375 17.484375 19.15625 11.84375 
Q 23.34375 6.203125 30.609375 6.203125 
Q 37.796875 6.203125 41.984375 11.859375 
Q 46.1875 17.53125 46.1875 27.296875 
Q 46.1875 37.015625 41.984375 42.703125 
Q 37.796875 48.390625 30.609375 48.390625 
z
M 30.609375 56 
Q 42.328125 56 49.015625 48.375 
Q 55.71875 40.765625 55.71875 27.296875 
Q 55.71875 13.875 49.015625 6.21875 
Q 42.328125 -1.421875 30.609375 -1.421875 
Q 18.84375 -1.421875 12.171875 6.21875 
Q 5.515625 13.875 5.515625 27.296875 
Q 5.515625 40.765625 12.171875 48.375 
Q 18.84375 56 30.609375 56 
z
" id="DejaVuSans-111"/>
     <path d="M 45.40625 27.984375 
Q 45.40625 37.75 41.375 43.109375 
Q 37.359375 48.484375 30.078125 48.484375 
Q 22.859375 48.484375 18.828125 43.109375 
Q 14.796875 37.75 14.796875 27.984375 
Q 14.796875 18.265625 18.828125 12.890625 
Q 22.859375 7.515625 30.078125 7.515625 
Q 37.359375 7.515625 41.375 12.890625 
Q 45.40625 18.265625 45.40625 27.984375 
z
M 54.390625 6.78125 
Q 54.390625 -7.171875 48.1875 -13.984375 
Q 42 -20.796875 29.203125 -20.796875 
Q 24.46875 -20.796875 20.265625 -20.09375 
Q 16.0625 -19.390625 12.109375 -17.921875 
L 12.109375 -9.1875 
Q 16.0625 -11.328125 19.921875 -12.34375 
Q 23.78125 -13.375 27.78125 -13.375 
Q 36.625 -13.375 41.015625 -8.765625 
Q 45.40625 -4.15625 45.40625 5.171875 
L 45.40625 9.625 
Q 42.625 4.78125 38.28125 2.390625 
Q 33.9375 0 27.875 0 
Q 17.828125 0 11.671875 7.65625 
Q 5.515625 15.328125 5.515625 27.984375 
Q 5.515625 40.671875 11.671875 48.328125 
Q 17.828125 56 27.875 56 
Q 33.9375 56 38.28125 53.609375 
Q 42.625 51.21875 45.40625 46.390625 
L 45.40625 54.6875 
L 54.390625 54.6875 
z
" id="DejaVuSans-103"/>
    </defs>
    <g transform="translate(181.680937 35.472)scale(0.12 -0.12)">
     <use xlink:href="#DejaVuSans-70"/>
     <use x="57.441406" xlink:href="#DejaVuSans-117"/>
     <use x="120.820312" xlink:href="#DejaVuSans-110"/>
     <use x="184.199219" xlink:href="#DejaVuSans-99"/>
     <use x="239.179688" xlink:href="#DejaVuSans-116"/>
     <use x="278.388672" xlink:href="#DejaVuSans-105"/>
     <use x="306.171875" xlink:href="#DejaVuSans-111"/>
     <use x="367.353516" xlink:href="#DejaVuSans-110"/>
     <use x="430.732422" xlink:href="#DejaVuSans-70"/>
     <use x="488.142578" xlink:href="#DejaVuSans-105"/>
     <use x="515.925781" xlink:href="#DejaVuSans-116"/>
     <use x="555.134766" xlink:href="#DejaVuSans-116"/>
     <use x="594.34375" xlink:href="#DejaVuSans-105"/>
     <use x="622.126953" xlink:href="#DejaVuSans-110"/>
     <use x="685.505859" xlink:href="#DejaVuSans-103"/>
     <use x="748.982422" xlink:href="#DejaVuSans-32"/>
     <use x="780.769531" xlink:href="#DejaVuSans-49"/>
     <use x="844.392578" xlink:href="#DejaVuSans-48"/>
    </g>
   </g>
   <g id="legend_1">
    <g id="patch_7">
     <path d="M 299.83875 78.82825 
L 407.72 78.82825 
Q 409.72 78.82825 409.72 76.82825 
L 409.72 48.472 
Q 409.72 46.472 407.72 46.472 
L 299.83875 46.472 
Q 297.83875 46.472 297.83875 48.472 
L 297.83875 76.82825 
Q 297.83875 78.82825 299.83875 78.82825 
z
" style="fill:#ffffff;opacity:0.8;stroke:#cccccc;stroke-linejoin:miter;"/>
    </g>
    <g id="line2d_20"/>
    <g id="line2d_21">
     <g>
      <use style="fill:#ff0000;stroke:#ff0000;" x="311.83875" xlink:href="#md85cf02fe4" y="54.570437"/>
     </g>
    </g>
    <g id="text_21">
     <!-- measured data -->
     <defs>
      <path d="M 52 44.1875 
Q 55.375 50.25 60.0625 53.125 
Q 64.75 56 71.09375 56 
Q 79.640625 56 84.28125 50.015625 
Q 88.921875 44.046875 88.921875 33.015625 
L 88.921875 0 
L 79.890625 0 
L 79.890625 32.71875 
Q 79.890625 40.578125 77.09375 44.375 
Q 74.3125 48.1875 68.609375 48.1875 
Q 61.625 48.1875 57.5625 43.546875 
Q 53.515625 38.921875 53.515625 30.90625 
L 53.515625 0 
L 44.484375 0 
L 44.484375 32.71875 
Q 44.484375 40.625 41.703125 44.40625 
Q 38.921875 48.1875 33.109375 48.1875 
Q 26.21875 48.1875 22.15625 43.53125 
Q 18.109375 38.875 18.109375 30.90625 
L 18.109375 0 
L 9.078125 0 
L 9.078125 54.6875 
L 18.109375 54.6875 
L 18.109375 46.1875 
Q 21.1875 51.21875 25.484375 53.609375 
Q 29.78125 56 35.6875 56 
Q 41.65625 56 45.828125 52.96875 
Q 50 49.953125 52 44.1875 
z
" id="DejaVuSans-109"/>
      <path d="M 41.109375 46.296875 
Q 39.59375 47.171875 37.8125 47.578125 
Q 36.03125 48 33.890625 48 
Q 26.265625 48 22.1875 43.046875 
Q 18.109375 38.09375 18.109375 28.8125 
L 18.109375 0 
L 9.078125 0 
L 9.078125 54.6875 
L 18.109375 54.6875 
L 18.109375 46.1875 
Q 20.953125 51.171875 25.484375 53.578125 
Q 30.03125 56 36.53125 56 
Q 37.453125 56 38.578125 55.875 
Q 39.703125 55.765625 41.0625 55.515625 
z
" id="DejaVuSans-114"/>
      <path d="M 45.40625 46.390625 
L 45.40625 75.984375 
L 54.390625 75.984375 
L 54.390625 0 
L 45.40625 0 
L 45.40625 8.203125 
Q 42.578125 3.328125 38.25 0.953125 
Q 33.9375 -1.421875 27.875 -1.421875 
Q 17.96875 -1.421875 11.734375 6.484375 
Q 5.515625 14.40625 5.515625 27.296875 
Q 5.515625 40.1875 11.734375 48.09375 
Q 17.96875 56 27.875 56 
Q 33.9375 56 38.25 53.625 
Q 42.578125 51.265625 45.40625 46.390625 
z
M 14.796875 27.296875 
Q 14.796875 17.390625 18.875 11.75 
Q 22.953125 6.109375 30.078125 6.109375 
Q 37.203125 6.109375 41.296875 11.75 
Q 45.40625 17.390625 45.40625 27.296875 
Q 45.40625 37.203125 41.296875 42.84375 
Q 37.203125 48.484375 30.078125 48.484375 
Q 22.953125 48.484375 18.875 42.84375 
Q 14.796875 37.203125 14.796875 27.296875 
z
" id="DejaVuSans-100"/>
     </defs>
     <g transform="translate(329.83875 58.070437)scale(0.1 -0.1)">
      <use xlink:href="#DejaVuSans-109"/>
      <use x="97.412109" xlink:href="#DejaVuSans-101"/>
      <use x="158.935547" xlink:href="#DejaVuSans-97"/>
      <use x="220.214844" xlink:href="#DejaVuSans-115"/>
      <use x="272.314453" xlink:href="#DejaVuSans-117"/>
      <use x="335.693359" xlink:href="#DejaVuSans-114"/>
      <use x="376.775391" xlink:href="#DejaVuSans-101"/>
      <use x="438.298828" xlink:href="#DejaVuSans-100"/>
      <use x="501.775391" xlink:href="#DejaVuSans-32"/>
      <use x="533.5625" xlink:href="#DejaVuSans-100"/>
      <use x="597.039062" xlink:href="#DejaVuSans-97"/>
      <use x="658.318359" xlink:href="#DejaVuSans-116"/>
      <use x="697.527344" xlink:href="#DejaVuSans-97"/>
     </g>
    </g>
    <g id="line2d_22">
     <path d="M 301.83875 69.248562 
L 321.83875 69.248562 
" style="fill:none;stroke:#008000;stroke-linecap:square;stroke-width:1.5;"/>
    </g>
    <g id="line2d_23"/>
    <g id="text_22">
     <!-- linear data -->
     <g transform="translate(329.83875 72.748562)scale(0.1 -0.1)">
      <use xlink:href="#DejaVuSans-108"/>
      <use x="27.783203" xlink:href="#DejaVuSans-105"/>
      <use x="55.566406" xlink:href="#DejaVuSans-110"/>
      <use x="118.945312" xlink:href="#DejaVuSans-101"/>
      <use x="180.46875" xlink:href="#DejaVuSans-97"/>
      <use x="241.748047" xlink:href="#DejaVuSans-114"/>
      <use x="282.861328" xlink:href="#DejaVuSans-32"/>
      <use x="314.648438" xlink:href="#DejaVuSans-100"/>
      <use x="378.125" xlink:href="#DejaVuSans-97"/>
      <use x="439.404297" xlink:href="#DejaVuSans-116"/>
      <use x="478.613281" xlink:href="#DejaVuSans-97"/>
     </g>
    </g>
   </g>
  </g>
 </g>
 <defs>
  <clipPath id="p12ef9da0cf">
   <rect height="266.112" width="357.12" x="57.6" y="41.472"/>
  </clipPath>
 </defs>
</svg>
