<?xml version="1.0" encoding="utf-8" standalone="no"?>
<!DOCTYPE svg PUBLIC "-//W3C//DTD SVG 1.1//EN"
  "http://www.w3.org/Graphics/SVG/1.1/DTD/svg11.dtd">
<!-- Created with matplotlib (https://matplotlib.org/) -->
<svg height="345.6pt" version="1.1" viewBox="0 0 460.8 345.6" width="460.8pt" xmlns="http://www.w3.org/2000/svg" xmlns:xlink="http://www.w3.org/1999/xlink">
 <defs>
  <style type="text/css">
*{stroke-linecap:butt;stroke-linejoin:round;}
  </style>
 </defs>
 <g id="figure_1">
  <g id="patch_1">
   <path d="M 0 345.6 
L 460.8 345.6 
L 460.8 0 
L 0 0 
z
" style="fill:#ffffff;"/>
  </g>
  <g id="axes_1">
   <g id="patch_2">
    <path d="M 57.6 307.584 
L 414.72 307.584 
L 414.72 41.472 
L 57.6 41.472 
z
" style="fill:#ffffff;"/>
   </g>
   <g id="matplotlib.axis_1">
    <g id="xtick_1">
     <g id="line2d_1">
      <defs>
       <path d="M 0 0 
L 0 3.5 
" id="mc46eafd4fa" style="stroke:#000000;stroke-width:0.8;"/>
      </defs>
      <g>
       <use style="stroke:#000000;stroke-width:0.8;" x="91.166173" xlink:href="#mc46eafd4fa" y="307.584"/>
      </g>
     </g>
     <g id="text_1">
      <!-- 10 -->
      <defs>
       <path d="M 12.40625 8.296875 
L 28.515625 8.296875 
L 28.515625 63.921875 
L 10.984375 60.40625 
L 10.984375 69.390625 
L 28.421875 72.90625 
L 38.28125 72.90625 
L 38.28125 8.296875 
L 54.390625 8.296875 
L 54.390625 0 
L 12.40625 0 
z
" id="DejaVuSans-49"/>
       <path d="M 31.78125 66.40625 
Q 24.171875 66.40625 20.328125 58.90625 
Q 16.5 51.421875 16.5 36.375 
Q 16.5 21.390625 20.328125 13.890625 
Q 24.171875 6.390625 31.78125 6.390625 
Q 39.453125 6.390625 43.28125 13.890625 
Q 47.125 21.390625 47.125 36.375 
Q 47.125 51.421875 43.28125 58.90625 
Q 39.453125 66.40625 31.78125 66.40625 
z
M 31.78125 74.21875 
Q 44.046875 74.21875 50.515625 64.515625 
Q 56.984375 54.828125 56.984375 36.375 
Q 56.984375 17.96875 50.515625 8.265625 
Q 44.046875 -1.421875 31.78125 -1.421875 
Q 19.53125 -1.421875 13.0625 8.265625 
Q 6.59375 17.96875 6.59375 36.375 
Q 6.59375 54.828125 13.0625 64.515625 
Q 19.53125 74.21875 31.78125 74.21875 
z
" id="DejaVuSans-48"/>
      </defs>
      <g transform="translate(84.803673 322.182437)scale(0.1 -0.1)">
       <use xlink:href="#DejaVuSans-49"/>
       <use x="63.623047" xlink:href="#DejaVuSans-48"/>
      </g>
     </g>
    </g>
    <g id="xtick_2">
     <g id="line2d_2">
      <g>
       <use style="stroke:#000000;stroke-width:0.8;" x="132.70805" xlink:href="#mc46eafd4fa" y="307.584"/>
      </g>
     </g>
     <g id="text_2">
      <!-- 20 -->
      <defs>
       <path d="M 19.1875 8.296875 
L 53.609375 8.296875 
L 53.609375 0 
L 7.328125 0 
L 7.328125 8.296875 
Q 12.9375 14.109375 22.625 23.890625 
Q 32.328125 33.6875 34.8125 36.53125 
Q 39.546875 41.84375 41.421875 45.53125 
Q 43.3125 49.21875 43.3125 52.78125 
Q 43.3125 58.59375 39.234375 62.25 
Q 35.15625 65.921875 28.609375 65.921875 
Q 23.96875 65.921875 18.8125 64.3125 
Q 13.671875 62.703125 7.8125 59.421875 
L 7.8125 69.390625 
Q 13.765625 71.78125 18.9375 73 
Q 24.125 74.21875 28.421875 74.21875 
Q 39.75 74.21875 46.484375 68.546875 
Q 53.21875 62.890625 53.21875 53.421875 
Q 53.21875 48.921875 51.53125 44.890625 
Q 49.859375 40.875 45.40625 35.40625 
Q 44.1875 33.984375 37.640625 27.21875 
Q 31.109375 20.453125 19.1875 8.296875 
z
" id="DejaVuSans-50"/>
      </defs>
      <g transform="translate(126.34555 322.182437)scale(0.1 -0.1)">
       <use xlink:href="#DejaVuSans-50"/>
       <use x="63.623047" xlink:href="#DejaVuSans-48"/>
      </g>
     </g>
    </g>
    <g id="xtick_3">
     <g id="line2d_3">
      <g>
       <use style="stroke:#000000;stroke-width:0.8;" x="174.249928" xlink:href="#mc46eafd4fa" y="307.584"/>
      </g>
     </g>
     <g id="text_3">
      <!-- 30 -->
      <defs>
       <path d="M 40.578125 39.3125 
Q 47.65625 37.796875 51.625 33 
Q 55.609375 28.21875 55.609375 21.1875 
Q 55.609375 10.40625 48.1875 4.484375 
Q 40.765625 -1.421875 27.09375 -1.421875 
Q 22.515625 -1.421875 17.65625 -0.515625 
Q 12.796875 0.390625 7.625 2.203125 
L 7.625 11.71875 
Q 11.71875 9.328125 16.59375 8.109375 
Q 21.484375 6.890625 26.8125 6.890625 
Q 36.078125 6.890625 40.9375 10.546875 
Q 45.796875 14.203125 45.796875 21.1875 
Q 45.796875 27.640625 41.28125 31.265625 
Q 36.765625 34.90625 28.71875 34.90625 
L 20.21875 34.90625 
L 20.21875 43.015625 
L 29.109375 43.015625 
Q 36.375 43.015625 40.234375 45.921875 
Q 44.09375 48.828125 44.09375 54.296875 
Q 44.09375 59.90625 40.109375 62.90625 
Q 36.140625 65.921875 28.71875 65.921875 
Q 24.65625 65.921875 20.015625 65.03125 
Q 15.375 64.15625 9.8125 62.3125 
L 9.8125 71.09375 
Q 15.4375 72.65625 20.34375 73.4375 
Q 25.25 74.21875 29.59375 74.21875 
Q 40.828125 74.21875 47.359375 69.109375 
Q 53.90625 64.015625 53.90625 55.328125 
Q 53.90625 49.265625 50.4375 45.09375 
Q 46.96875 40.921875 40.578125 39.3125 
z
" id="DejaVuSans-51"/>
      </defs>
      <g transform="translate(167.887428 322.182437)scale(0.1 -0.1)">
       <use xlink:href="#DejaVuSans-51"/>
       <use x="63.623047" xlink:href="#DejaVuSans-48"/>
      </g>
     </g>
    </g>
    <g id="xtick_4">
     <g id="line2d_4">
      <g>
       <use style="stroke:#000000;stroke-width:0.8;" x="215.791805" xlink:href="#mc46eafd4fa" y="307.584"/>
      </g>
     </g>
     <g id="text_4">
      <!-- 40 -->
      <defs>
       <path d="M 37.796875 64.3125 
L 12.890625 25.390625 
L 37.796875 25.390625 
z
M 35.203125 72.90625 
L 47.609375 72.90625 
L 47.609375 25.390625 
L 58.015625 25.390625 
L 58.015625 17.1875 
L 47.609375 17.1875 
L 47.609375 0 
L 37.796875 0 
L 37.796875 17.1875 
L 4.890625 17.1875 
L 4.890625 26.703125 
z
" id="DejaVuSans-52"/>
      </defs>
      <g transform="translate(209.429305 322.182437)scale(0.1 -0.1)">
       <use xlink:href="#DejaVuSans-52"/>
       <use x="63.623047" xlink:href="#DejaVuSans-48"/>
      </g>
     </g>
    </g>
    <g id="xtick_5">
     <g id="line2d_5">
      <g>
       <use style="stroke:#000000;stroke-width:0.8;" x="257.333683" xlink:href="#mc46eafd4fa" y="307.584"/>
      </g>
     </g>
     <g id="text_5">
      <!-- 50 -->
      <defs>
       <path d="M 10.796875 72.90625 
L 49.515625 72.90625 
L 49.515625 64.59375 
L 19.828125 64.59375 
L 19.828125 46.734375 
Q 21.96875 47.46875 24.109375 47.828125 
Q 26.265625 48.1875 28.421875 48.1875 
Q 40.625 48.1875 47.75 41.5 
Q 54.890625 34.8125 54.890625 23.390625 
Q 54.890625 11.625 47.5625 5.09375 
Q 40.234375 -1.421875 26.90625 -1.421875 
Q 22.3125 -1.421875 17.546875 -0.640625 
Q 12.796875 0.140625 7.71875 1.703125 
L 7.71875 11.625 
Q 12.109375 9.234375 16.796875 8.0625 
Q 21.484375 6.890625 26.703125 6.890625 
Q 35.15625 6.890625 40.078125 11.328125 
Q 45.015625 15.765625 45.015625 23.390625 
Q 45.015625 31 40.078125 35.4375 
Q 35.15625 39.890625 26.703125 39.890625 
Q 22.75 39.890625 18.8125 39.015625 
Q 14.890625 38.140625 10.796875 36.28125 
z
" id="DejaVuSans-53"/>
      </defs>
      <g transform="translate(250.971183 322.182437)scale(0.1 -0.1)">
       <use xlink:href="#DejaVuSans-53"/>
       <use x="63.623047" xlink:href="#DejaVuSans-48"/>
      </g>
     </g>
    </g>
    <g id="xtick_6">
     <g id="line2d_6">
      <g>
       <use style="stroke:#000000;stroke-width:0.8;" x="298.87556" xlink:href="#mc46eafd4fa" y="307.584"/>
      </g>
     </g>
     <g id="text_6">
      <!-- 60 -->
      <defs>
       <path d="M 33.015625 40.375 
Q 26.375 40.375 22.484375 35.828125 
Q 18.609375 31.296875 18.609375 23.390625 
Q 18.609375 15.53125 22.484375 10.953125 
Q 26.375 6.390625 33.015625 6.390625 
Q 39.65625 6.390625 43.53125 10.953125 
Q 47.40625 15.53125 47.40625 23.390625 
Q 47.40625 31.296875 43.53125 35.828125 
Q 39.65625 40.375 33.015625 40.375 
z
M 52.59375 71.296875 
L 52.59375 62.3125 
Q 48.875 64.0625 45.09375 64.984375 
Q 41.3125 65.921875 37.59375 65.921875 
Q 27.828125 65.921875 22.671875 59.328125 
Q 17.53125 52.734375 16.796875 39.40625 
Q 19.671875 43.65625 24.015625 45.921875 
Q 28.375 48.1875 33.59375 48.1875 
Q 44.578125 48.1875 50.953125 41.515625 
Q 57.328125 34.859375 57.328125 23.390625 
Q 57.328125 12.15625 50.6875 5.359375 
Q 44.046875 -1.421875 33.015625 -1.421875 
Q 20.359375 -1.421875 13.671875 8.265625 
Q 6.984375 17.96875 6.984375 36.375 
Q 6.984375 53.65625 15.1875 63.9375 
Q 23.390625 74.21875 37.203125 74.21875 
Q 40.921875 74.21875 44.703125 73.484375 
Q 48.484375 72.75 52.59375 71.296875 
z
" id="DejaVuSans-54"/>
      </defs>
      <g transform="translate(292.51306 322.182437)scale(0.1 -0.1)">
       <use xlink:href="#DejaVuSans-54"/>
       <use x="63.623047" xlink:href="#DejaVuSans-48"/>
      </g>
     </g>
    </g>
    <g id="xtick_7">
     <g id="line2d_7">
      <g>
       <use style="stroke:#000000;stroke-width:0.8;" x="340.417437" xlink:href="#mc46eafd4fa" y="307.584"/>
      </g>
     </g>
     <g id="text_7">
      <!-- 70 -->
      <defs>
       <path d="M 8.203125 72.90625 
L 55.078125 72.90625 
L 55.078125 68.703125 
L 28.609375 0 
L 18.3125 0 
L 43.21875 64.59375 
L 8.203125 64.59375 
z
" id="DejaVuSans-55"/>
      </defs>
      <g transform="translate(334.054937 322.182437)scale(0.1 -0.1)">
       <use xlink:href="#DejaVuSans-55"/>
       <use x="63.623047" xlink:href="#DejaVuSans-48"/>
      </g>
     </g>
    </g>
    <g id="xtick_8">
     <g id="line2d_8">
      <g>
       <use style="stroke:#000000;stroke-width:0.8;" x="381.959315" xlink:href="#mc46eafd4fa" y="307.584"/>
      </g>
     </g>
     <g id="text_8">
      <!-- 80 -->
      <defs>
       <path d="M 31.78125 34.625 
Q 24.75 34.625 20.71875 30.859375 
Q 16.703125 27.09375 16.703125 20.515625 
Q 16.703125 13.921875 20.71875 10.15625 
Q 24.75 6.390625 31.78125 6.390625 
Q 38.8125 6.390625 42.859375 10.171875 
Q 46.921875 13.96875 46.921875 20.515625 
Q 46.921875 27.09375 42.890625 30.859375 
Q 38.875 34.625 31.78125 34.625 
z
M 21.921875 38.8125 
Q 15.578125 40.375 12.03125 44.71875 
Q 8.5 49.078125 8.5 55.328125 
Q 8.5 64.0625 14.71875 69.140625 
Q 20.953125 74.21875 31.78125 74.21875 
Q 42.671875 74.21875 48.875 69.140625 
Q 55.078125 64.0625 55.078125 55.328125 
Q 55.078125 49.078125 51.53125 44.71875 
Q 48 40.375 41.703125 38.8125 
Q 48.828125 37.15625 52.796875 32.3125 
Q 56.78125 27.484375 56.78125 20.515625 
Q 56.78125 9.90625 50.3125 4.234375 
Q 43.84375 -1.421875 31.78125 -1.421875 
Q 19.734375 -1.421875 13.25 4.234375 
Q 6.78125 9.90625 6.78125 20.515625 
Q 6.78125 27.484375 10.78125 32.3125 
Q 14.796875 37.15625 21.921875 38.8125 
z
M 18.3125 54.390625 
Q 18.3125 48.734375 21.84375 45.5625 
Q 25.390625 42.390625 31.78125 42.390625 
Q 38.140625 42.390625 41.71875 45.5625 
Q 45.3125 48.734375 45.3125 54.390625 
Q 45.3125 60.0625 41.71875 63.234375 
Q 38.140625 66.40625 31.78125 66.40625 
Q 25.390625 66.40625 21.84375 63.234375 
Q 18.3125 60.0625 18.3125 54.390625 
z
" id="DejaVuSans-56"/>
      </defs>
      <g transform="translate(375.596815 322.182437)scale(0.1 -0.1)">
       <use xlink:href="#DejaVuSans-56"/>
       <use x="63.623047" xlink:href="#DejaVuSans-48"/>
      </g>
     </g>
    </g>
    <g id="text_9">
     <!-- x values -->
     <defs>
      <path d="M 54.890625 54.6875 
L 35.109375 28.078125 
L 55.90625 0 
L 45.3125 0 
L 29.390625 21.484375 
L 13.484375 0 
L 2.875 0 
L 24.125 28.609375 
L 4.6875 54.6875 
L 15.28125 54.6875 
L 29.78125 35.203125 
L 44.28125 54.6875 
z
" id="DejaVuSans-120"/>
      <path id="DejaVuSans-32"/>
      <path d="M 2.984375 54.6875 
L 12.5 54.6875 
L 29.59375 8.796875 
L 46.6875 54.6875 
L 56.203125 54.6875 
L 35.6875 0 
L 23.484375 0 
z
" id="DejaVuSans-118"/>
      <path d="M 34.28125 27.484375 
Q 23.390625 27.484375 19.1875 25 
Q 14.984375 22.515625 14.984375 16.5 
Q 14.984375 11.71875 18.140625 8.90625 
Q 21.296875 6.109375 26.703125 6.109375 
Q 34.1875 6.109375 38.703125 11.40625 
Q 43.21875 16.703125 43.21875 25.484375 
L 43.21875 27.484375 
z
M 52.203125 31.203125 
L 52.203125 0 
L 43.21875 0 
L 43.21875 8.296875 
Q 40.140625 3.328125 35.546875 0.953125 
Q 30.953125 -1.421875 24.3125 -1.421875 
Q 15.921875 -1.421875 10.953125 3.296875 
Q 6 8.015625 6 15.921875 
Q 6 25.140625 12.171875 29.828125 
Q 18.359375 34.515625 30.609375 34.515625 
L 43.21875 34.515625 
L 43.21875 35.40625 
Q 43.21875 41.609375 39.140625 45 
Q 35.0625 48.390625 27.6875 48.390625 
Q 23 48.390625 18.546875 47.265625 
Q 14.109375 46.140625 10.015625 43.890625 
L 10.015625 52.203125 
Q 14.9375 54.109375 19.578125 55.046875 
Q 24.21875 56 28.609375 56 
Q 40.484375 56 46.34375 49.84375 
Q 52.203125 43.703125 52.203125 31.203125 
z
" id="DejaVuSans-97"/>
      <path d="M 9.421875 75.984375 
L 18.40625 75.984375 
L 18.40625 0 
L 9.421875 0 
z
" id="DejaVuSans-108"/>
      <path d="M 8.5 21.578125 
L 8.5 54.6875 
L 17.484375 54.6875 
L 17.484375 21.921875 
Q 17.484375 14.15625 20.5 10.265625 
Q 23.53125 6.390625 29.59375 6.390625 
Q 36.859375 6.390625 41.078125 11.03125 
Q 45.3125 15.671875 45.3125 23.6875 
L 45.3125 54.6875 
L 54.296875 54.6875 
L 54.296875 0 
L 45.3125 0 
L 45.3125 8.40625 
Q 42.046875 3.421875 37.71875 1 
Q 33.40625 -1.421875 27.6875 -1.421875 
Q 18.265625 -1.421875 13.375 4.4375 
Q 8.5 10.296875 8.5 21.578125 
z
M 31.109375 56 
z
" id="DejaVuSans-117"/>
      <path d="M 56.203125 29.59375 
L 56.203125 25.203125 
L 14.890625 25.203125 
Q 15.484375 15.921875 20.484375 11.0625 
Q 25.484375 6.203125 34.421875 6.203125 
Q 39.59375 6.203125 44.453125 7.46875 
Q 49.3125 8.734375 54.109375 11.28125 
L 54.109375 2.78125 
Q 49.265625 0.734375 44.1875 -0.34375 
Q 39.109375 -1.421875 33.890625 -1.421875 
Q 20.796875 -1.421875 13.15625 6.1875 
Q 5.515625 13.8125 5.515625 26.8125 
Q 5.515625 40.234375 12.765625 48.109375 
Q 20.015625 56 32.328125 56 
Q 43.359375 56 49.78125 48.890625 
Q 56.203125 41.796875 56.203125 29.59375 
z
M 47.21875 32.234375 
Q 47.125 39.59375 43.09375 43.984375 
Q 39.0625 48.390625 32.421875 48.390625 
Q 24.90625 48.390625 20.390625 44.140625 
Q 15.875 39.890625 15.1875 32.171875 
z
" id="DejaVuSans-101"/>
      <path d="M 44.28125 53.078125 
L 44.28125 44.578125 
Q 40.484375 46.53125 36.375 47.5 
Q 32.28125 48.484375 27.875 48.484375 
Q 21.1875 48.484375 17.84375 46.4375 
Q 14.5 44.390625 14.5 40.28125 
Q 14.5 37.15625 16.890625 35.375 
Q 19.28125 33.59375 26.515625 31.984375 
L 29.59375 31.296875 
Q 39.15625 29.25 43.1875 25.515625 
Q 47.21875 21.78125 47.21875 15.09375 
Q 47.21875 7.46875 41.1875 3.015625 
Q 35.15625 -1.421875 24.609375 -1.421875 
Q 20.21875 -1.421875 15.453125 -0.5625 
Q 10.6875 0.296875 5.421875 2 
L 5.421875 11.28125 
Q 10.40625 8.6875 15.234375 7.390625 
Q 20.0625 6.109375 24.8125 6.109375 
Q 31.15625 6.109375 34.5625 8.28125 
Q 37.984375 10.453125 37.984375 14.40625 
Q 37.984375 18.0625 35.515625 20.015625 
Q 33.0625 21.96875 24.703125 23.78125 
L 21.578125 24.515625 
Q 13.234375 26.265625 9.515625 29.90625 
Q 5.8125 33.546875 5.8125 39.890625 
Q 5.8125 47.609375 11.28125 51.796875 
Q 16.75 56 26.8125 56 
Q 31.78125 56 36.171875 55.265625 
Q 40.578125 54.546875 44.28125 53.078125 
z
" id="DejaVuSans-115"/>
     </defs>
     <g transform="translate(215.349063 335.860562)scale(0.1 -0.1)">
      <use xlink:href="#DejaVuSans-120"/>
      <use x="59.179688" xlink:href="#DejaVuSans-32"/>
      <use x="90.966797" xlink:href="#DejaVuSans-118"/>
      <use x="150.146484" xlink:href="#DejaVuSans-97"/>
      <use x="211.425781" xlink:href="#DejaVuSans-108"/>
      <use x="239.208984" xlink:href="#DejaVuSans-117"/>
      <use x="302.587891" xlink:href="#DejaVuSans-101"/>
      <use x="364.111328" xlink:href="#DejaVuSans-115"/>
     </g>
    </g>
   </g>
   <g id="matplotlib.axis_2">
    <g id="ytick_1">
     <g id="line2d_9">
      <defs>
       <path d="M 0 0 
L -3.5 0 
" id="m1d5602e08e" style="stroke:#000000;stroke-width:0.8;"/>
      </defs>
      <g>
       <use style="stroke:#000000;stroke-width:0.8;" x="57.6" xlink:href="#m1d5602e08e" y="290.149287"/>
      </g>
     </g>
     <g id="text_10">
      <!-- 0 -->
      <g transform="translate(44.2375 293.948505)scale(0.1 -0.1)">
       <use xlink:href="#DejaVuSans-48"/>
      </g>
     </g>
    </g>
    <g id="ytick_2">
     <g id="line2d_10">
      <g>
       <use style="stroke:#000000;stroke-width:0.8;" x="57.6" xlink:href="#m1d5602e08e" y="255.718079"/>
      </g>
     </g>
     <g id="text_11">
      <!-- 100 -->
      <g transform="translate(31.5125 259.517298)scale(0.1 -0.1)">
       <use xlink:href="#DejaVuSans-49"/>
       <use x="63.623047" xlink:href="#DejaVuSans-48"/>
       <use x="127.246094" xlink:href="#DejaVuSans-48"/>
      </g>
     </g>
    </g>
    <g id="ytick_3">
     <g id="line2d_11">
      <g>
       <use style="stroke:#000000;stroke-width:0.8;" x="57.6" xlink:href="#m1d5602e08e" y="221.286872"/>
      </g>
     </g>
     <g id="text_12">
      <!-- 200 -->
      <g transform="translate(31.5125 225.086091)scale(0.1 -0.1)">
       <use xlink:href="#DejaVuSans-50"/>
       <use x="63.623047" xlink:href="#DejaVuSans-48"/>
       <use x="127.246094" xlink:href="#DejaVuSans-48"/>
      </g>
     </g>
    </g>
    <g id="ytick_4">
     <g id="line2d_12">
      <g>
       <use style="stroke:#000000;stroke-width:0.8;" x="57.6" xlink:href="#m1d5602e08e" y="186.855665"/>
      </g>
     </g>
     <g id="text_13">
      <!-- 300 -->
      <g transform="translate(31.5125 190.654884)scale(0.1 -0.1)">
       <use xlink:href="#DejaVuSans-51"/>
       <use x="63.623047" xlink:href="#DejaVuSans-48"/>
       <use x="127.246094" xlink:href="#DejaVuSans-48"/>
      </g>
     </g>
    </g>
    <g id="ytick_5">
     <g id="line2d_13">
      <g>
       <use style="stroke:#000000;stroke-width:0.8;" x="57.6" xlink:href="#m1d5602e08e" y="152.424458"/>
      </g>
     </g>
     <g id="text_14">
      <!-- 400 -->
      <g transform="translate(31.5125 156.223676)scale(0.1 -0.1)">
       <use xlink:href="#DejaVuSans-52"/>
       <use x="63.623047" xlink:href="#DejaVuSans-48"/>
       <use x="127.246094" xlink:href="#DejaVuSans-48"/>
      </g>
     </g>
    </g>
    <g id="ytick_6">
     <g id="line2d_14">
      <g>
       <use style="stroke:#000000;stroke-width:0.8;" x="57.6" xlink:href="#m1d5602e08e" y="117.99325"/>
      </g>
     </g>
     <g id="text_15">
      <!-- 500 -->
      <g transform="translate(31.5125 121.792469)scale(0.1 -0.1)">
       <use xlink:href="#DejaVuSans-53"/>
       <use x="63.623047" xlink:href="#DejaVuSans-48"/>
       <use x="127.246094" xlink:href="#DejaVuSans-48"/>
      </g>
     </g>
    </g>
    <g id="ytick_7">
     <g id="line2d_15">
      <g>
       <use style="stroke:#000000;stroke-width:0.8;" x="57.6" xlink:href="#m1d5602e08e" y="83.562043"/>
      </g>
     </g>
     <g id="text_16">
      <!-- 600 -->
      <g transform="translate(31.5125 87.361262)scale(0.1 -0.1)">
       <use xlink:href="#DejaVuSans-54"/>
       <use x="63.623047" xlink:href="#DejaVuSans-48"/>
       <use x="127.246094" xlink:href="#DejaVuSans-48"/>
      </g>
     </g>
    </g>
    <g id="ytick_8">
     <g id="line2d_16">
      <g>
       <use style="stroke:#000000;stroke-width:0.8;" x="57.6" xlink:href="#m1d5602e08e" y="49.130836"/>
      </g>
     </g>
     <g id="text_17">
      <!-- 700 -->
      <g transform="translate(31.5125 52.930054)scale(0.1 -0.1)">
       <use xlink:href="#DejaVuSans-55"/>
       <use x="63.623047" xlink:href="#DejaVuSans-48"/>
       <use x="127.246094" xlink:href="#DejaVuSans-48"/>
      </g>
     </g>
    </g>
    <g id="text_18">
     <!-- y values -->
     <defs>
      <path d="M 32.171875 -5.078125 
Q 28.375 -14.84375 24.75 -17.8125 
Q 21.140625 -20.796875 15.09375 -20.796875 
L 7.90625 -20.796875 
L 7.90625 -13.28125 
L 13.1875 -13.28125 
Q 16.890625 -13.28125 18.9375 -11.515625 
Q 21 -9.765625 23.484375 -3.21875 
L 25.09375 0.875 
L 2.984375 54.6875 
L 12.5 54.6875 
L 29.59375 11.921875 
L 46.6875 54.6875 
L 56.203125 54.6875 
z
" id="DejaVuSans-121"/>
     </defs>
     <g transform="translate(25.432812 195.338937)rotate(-90)scale(0.1 -0.1)">
      <use xlink:href="#DejaVuSans-121"/>
      <use x="59.179688" xlink:href="#DejaVuSans-32"/>
      <use x="90.966797" xlink:href="#DejaVuSans-118"/>
      <use x="150.146484" xlink:href="#DejaVuSans-97"/>
      <use x="211.425781" xlink:href="#DejaVuSans-108"/>
      <use x="239.208984" xlink:href="#DejaVuSans-117"/>
      <use x="302.587891" xlink:href="#DejaVuSans-101"/>
      <use x="364.111328" xlink:href="#DejaVuSans-115"/>
     </g>
    </g>
   </g>
   <g id="line2d_17">
    <defs>
     <path d="M 0 1 
C 0.265203 1 0.51958 0.894634 0.707107 0.707107 
C 0.894634 0.51958 1 0.265203 1 0 
C 1 -0.265203 0.894634 -0.51958 0.707107 -0.707107 
C 0.51958 -0.894634 0.265203 -1 0 -1 
C -0.265203 -1 -0.51958 -0.894634 -0.707107 -0.707107 
C -0.894634 -0.51958 -1 -0.265203 -1 0 
C -1 0.265203 -0.894634 0.51958 -0.707107 0.707107 
C -0.51958 0.894634 -0.265203 1 0 1 
z
" id="m78e598f549" style="stroke:#ff0000;"/>
    </defs>
    <g clip-path="url(#p10929f4f14)">
     <use style="fill:#ff0000;stroke:#ff0000;" x="73.832727" xlink:href="#m78e598f549" y="57.767992"/>
     <use style="fill:#ff0000;stroke:#ff0000;" x="75.191114" xlink:href="#m78e598f549" y="79.293628"/>
     <use style="fill:#ff0000;stroke:#ff0000;" x="76.549502" xlink:href="#m78e598f549" y="53.568"/>
     <use style="fill:#ff0000;stroke:#ff0000;" x="77.907889" xlink:href="#m78e598f549" y="79.661345"/>
     <use style="fill:#ff0000;stroke:#ff0000;" x="79.266276" xlink:href="#m78e598f549" y="111.724602"/>
     <use style="fill:#ff0000;stroke:#ff0000;" x="80.624663" xlink:href="#m78e598f549" y="56.761691"/>
     <use style="fill:#ff0000;stroke:#ff0000;" x="81.983051" xlink:href="#m78e598f549" y="67.869282"/>
     <use style="fill:#ff0000;stroke:#ff0000;" x="83.341438" xlink:href="#m78e598f549" y="89.038993"/>
     <use style="fill:#ff0000;stroke:#ff0000;" x="84.699825" xlink:href="#m78e598f549" y="136.449911"/>
     <use style="fill:#ff0000;stroke:#ff0000;" x="86.058212" xlink:href="#m78e598f549" y="115.469143"/>
     <use style="fill:#ff0000;stroke:#ff0000;" x="87.416599" xlink:href="#m78e598f549" y="77.709039"/>
     <use style="fill:#ff0000;stroke:#ff0000;" x="88.774987" xlink:href="#m78e598f549" y="84.351221"/>
     <use style="fill:#ff0000;stroke:#ff0000;" x="90.133374" xlink:href="#m78e598f549" y="95.736615"/>
     <use style="fill:#ff0000;stroke:#ff0000;" x="91.491761" xlink:href="#m78e598f549" y="138.945455"/>
     <use style="fill:#ff0000;stroke:#ff0000;" x="92.850148" xlink:href="#m78e598f549" y="94.885008"/>
     <use style="fill:#ff0000;stroke:#ff0000;" x="94.208536" xlink:href="#m78e598f549" y="98.862077"/>
     <use style="fill:#ff0000;stroke:#ff0000;" x="95.566923" xlink:href="#m78e598f549" y="134.460275"/>
     <use style="fill:#ff0000;stroke:#ff0000;" x="96.92531" xlink:href="#m78e598f549" y="146.100882"/>
     <use style="fill:#ff0000;stroke:#ff0000;" x="98.283697" xlink:href="#m78e598f549" y="128.825737"/>
     <use style="fill:#ff0000;stroke:#ff0000;" x="99.642084" xlink:href="#m78e598f549" y="88.430898"/>
     <use style="fill:#ff0000;stroke:#ff0000;" x="101.000472" xlink:href="#m78e598f549" y="127.934872"/>
     <use style="fill:#ff0000;stroke:#ff0000;" x="102.358859" xlink:href="#m78e598f549" y="116.381414"/>
     <use style="fill:#ff0000;stroke:#ff0000;" x="103.717246" xlink:href="#m78e598f549" y="158.847084"/>
     <use style="fill:#ff0000;stroke:#ff0000;" x="105.075633" xlink:href="#m78e598f549" y="141.969743"/>
     <use style="fill:#ff0000;stroke:#ff0000;" x="106.434021" xlink:href="#m78e598f549" y="157.059547"/>
     <use style="fill:#ff0000;stroke:#ff0000;" x="107.792408" xlink:href="#m78e598f549" y="127.232693"/>
     <use style="fill:#ff0000;stroke:#ff0000;" x="109.150795" xlink:href="#m78e598f549" y="146.661847"/>
     <use style="fill:#ff0000;stroke:#ff0000;" x="110.509182" xlink:href="#m78e598f549" y="169.249824"/>
     <use style="fill:#ff0000;stroke:#ff0000;" x="111.867569" xlink:href="#m78e598f549" y="148.631371"/>
     <use style="fill:#ff0000;stroke:#ff0000;" x="113.225957" xlink:href="#m78e598f549" y="173.52105"/>
     <use style="fill:#ff0000;stroke:#ff0000;" x="114.584344" xlink:href="#m78e598f549" y="173.560161"/>
     <use style="fill:#ff0000;stroke:#ff0000;" x="115.942731" xlink:href="#m78e598f549" y="141.539756"/>
     <use style="fill:#ff0000;stroke:#ff0000;" x="117.301118" xlink:href="#m78e598f549" y="143.454747"/>
     <use style="fill:#ff0000;stroke:#ff0000;" x="118.659506" xlink:href="#m78e598f549" y="187.945492"/>
     <use style="fill:#ff0000;stroke:#ff0000;" x="120.017893" xlink:href="#m78e598f549" y="176.074486"/>
     <use style="fill:#ff0000;stroke:#ff0000;" x="121.37628" xlink:href="#m78e598f549" y="153.209513"/>
     <use style="fill:#ff0000;stroke:#ff0000;" x="122.734667" xlink:href="#m78e598f549" y="173.111384"/>
     <use style="fill:#ff0000;stroke:#ff0000;" x="124.093054" xlink:href="#m78e598f549" y="151.136333"/>
     <use style="fill:#ff0000;stroke:#ff0000;" x="125.451442" xlink:href="#m78e598f549" y="174.152423"/>
     <use style="fill:#ff0000;stroke:#ff0000;" x="126.809829" xlink:href="#m78e598f549" y="159.885891"/>
     <use style="fill:#ff0000;stroke:#ff0000;" x="128.168216" xlink:href="#m78e598f549" y="185.632307"/>
     <use style="fill:#ff0000;stroke:#ff0000;" x="129.526603" xlink:href="#m78e598f549" y="182.136361"/>
     <use style="fill:#ff0000;stroke:#ff0000;" x="130.88499" xlink:href="#m78e598f549" y="196.540142"/>
     <use style="fill:#ff0000;stroke:#ff0000;" x="132.243378" xlink:href="#m78e598f549" y="166.807501"/>
     <use style="fill:#ff0000;stroke:#ff0000;" x="133.601765" xlink:href="#m78e598f549" y="178.730577"/>
     <use style="fill:#ff0000;stroke:#ff0000;" x="134.960152" xlink:href="#m78e598f549" y="162.141267"/>
     <use style="fill:#ff0000;stroke:#ff0000;" x="136.318539" xlink:href="#m78e598f549" y="164.656093"/>
     <use style="fill:#ff0000;stroke:#ff0000;" x="137.676927" xlink:href="#m78e598f549" y="184.382989"/>
     <use style="fill:#ff0000;stroke:#ff0000;" x="139.035314" xlink:href="#m78e598f549" y="212.218488"/>
     <use style="fill:#ff0000;stroke:#ff0000;" x="140.393701" xlink:href="#m78e598f549" y="175.272018"/>
     <use style="fill:#ff0000;stroke:#ff0000;" x="141.752088" xlink:href="#m78e598f549" y="194.062648"/>
     <use style="fill:#ff0000;stroke:#ff0000;" x="143.110475" xlink:href="#m78e598f549" y="216.13912"/>
     <use style="fill:#ff0000;stroke:#ff0000;" x="144.468863" xlink:href="#m78e598f549" y="190.743237"/>
     <use style="fill:#ff0000;stroke:#ff0000;" x="145.82725" xlink:href="#m78e598f549" y="183.182461"/>
     <use style="fill:#ff0000;stroke:#ff0000;" x="147.185637" xlink:href="#m78e598f549" y="190.835691"/>
     <use style="fill:#ff0000;stroke:#ff0000;" x="148.544024" xlink:href="#m78e598f549" y="214.579152"/>
     <use style="fill:#ff0000;stroke:#ff0000;" x="149.902412" xlink:href="#m78e598f549" y="208.49915"/>
     <use style="fill:#ff0000;stroke:#ff0000;" x="151.260799" xlink:href="#m78e598f549" y="195.856167"/>
     <use style="fill:#ff0000;stroke:#ff0000;" x="152.619186" xlink:href="#m78e598f549" y="198.985757"/>
     <use style="fill:#ff0000;stroke:#ff0000;" x="153.977573" xlink:href="#m78e598f549" y="203.4919"/>
     <use style="fill:#ff0000;stroke:#ff0000;" x="155.33596" xlink:href="#m78e598f549" y="197.106465"/>
     <use style="fill:#ff0000;stroke:#ff0000;" x="156.694348" xlink:href="#m78e598f549" y="199.168361"/>
     <use style="fill:#ff0000;stroke:#ff0000;" x="158.052735" xlink:href="#m78e598f549" y="225.690467"/>
     <use style="fill:#ff0000;stroke:#ff0000;" x="159.411122" xlink:href="#m78e598f549" y="211.506246"/>
     <use style="fill:#ff0000;stroke:#ff0000;" x="160.769509" xlink:href="#m78e598f549" y="206.763553"/>
     <use style="fill:#ff0000;stroke:#ff0000;" x="162.127897" xlink:href="#m78e598f549" y="209.18118"/>
     <use style="fill:#ff0000;stroke:#ff0000;" x="163.486284" xlink:href="#m78e598f549" y="216.605581"/>
     <use style="fill:#ff0000;stroke:#ff0000;" x="164.844671" xlink:href="#m78e598f549" y="216.952633"/>
     <use style="fill:#ff0000;stroke:#ff0000;" x="166.203058" xlink:href="#m78e598f549" y="221.850143"/>
     <use style="fill:#ff0000;stroke:#ff0000;" x="167.561445" xlink:href="#m78e598f549" y="211.699898"/>
     <use style="fill:#ff0000;stroke:#ff0000;" x="168.919833" xlink:href="#m78e598f549" y="225.522996"/>
     <use style="fill:#ff0000;stroke:#ff0000;" x="170.27822" xlink:href="#m78e598f549" y="219.33517"/>
     <use style="fill:#ff0000;stroke:#ff0000;" x="171.636607" xlink:href="#m78e598f549" y="211.909803"/>
     <use style="fill:#ff0000;stroke:#ff0000;" x="172.994994" xlink:href="#m78e598f549" y="226.657787"/>
     <use style="fill:#ff0000;stroke:#ff0000;" x="174.353382" xlink:href="#m78e598f549" y="227.044523"/>
     <use style="fill:#ff0000;stroke:#ff0000;" x="175.711769" xlink:href="#m78e598f549" y="235.616382"/>
     <use style="fill:#ff0000;stroke:#ff0000;" x="177.070156" xlink:href="#m78e598f549" y="220.606364"/>
     <use style="fill:#ff0000;stroke:#ff0000;" x="178.428543" xlink:href="#m78e598f549" y="239.440416"/>
     <use style="fill:#ff0000;stroke:#ff0000;" x="179.78693" xlink:href="#m78e598f549" y="237.388927"/>
     <use style="fill:#ff0000;stroke:#ff0000;" x="181.145318" xlink:href="#m78e598f549" y="228.122289"/>
     <use style="fill:#ff0000;stroke:#ff0000;" x="182.503705" xlink:href="#m78e598f549" y="232.10392"/>
     <use style="fill:#ff0000;stroke:#ff0000;" x="183.862092" xlink:href="#m78e598f549" y="236.368035"/>
     <use style="fill:#ff0000;stroke:#ff0000;" x="185.220479" xlink:href="#m78e598f549" y="242.633856"/>
     <use style="fill:#ff0000;stroke:#ff0000;" x="186.578866" xlink:href="#m78e598f549" y="247.966196"/>
     <use style="fill:#ff0000;stroke:#ff0000;" x="187.937254" xlink:href="#m78e598f549" y="225.64203"/>
     <use style="fill:#ff0000;stroke:#ff0000;" x="189.295641" xlink:href="#m78e598f549" y="236.637005"/>
     <use style="fill:#ff0000;stroke:#ff0000;" x="190.654028" xlink:href="#m78e598f549" y="237.53452"/>
     <use style="fill:#ff0000;stroke:#ff0000;" x="192.012415" xlink:href="#m78e598f549" y="241.373518"/>
     <use style="fill:#ff0000;stroke:#ff0000;" x="193.370803" xlink:href="#m78e598f549" y="252.460369"/>
     <use style="fill:#ff0000;stroke:#ff0000;" x="194.72919" xlink:href="#m78e598f549" y="246.758292"/>
     <use style="fill:#ff0000;stroke:#ff0000;" x="196.087577" xlink:href="#m78e598f549" y="247.657444"/>
     <use style="fill:#ff0000;stroke:#ff0000;" x="197.445964" xlink:href="#m78e598f549" y="257.758342"/>
     <use style="fill:#ff0000;stroke:#ff0000;" x="198.804351" xlink:href="#m78e598f549" y="240.83834"/>
     <use style="fill:#ff0000;stroke:#ff0000;" x="200.162739" xlink:href="#m78e598f549" y="264.246362"/>
     <use style="fill:#ff0000;stroke:#ff0000;" x="201.521126" xlink:href="#m78e598f549" y="252.168278"/>
     <use style="fill:#ff0000;stroke:#ff0000;" x="202.879513" xlink:href="#m78e598f549" y="241.747727"/>
     <use style="fill:#ff0000;stroke:#ff0000;" x="204.2379" xlink:href="#m78e598f549" y="258.580903"/>
     <use style="fill:#ff0000;stroke:#ff0000;" x="205.596288" xlink:href="#m78e598f549" y="246.249"/>
     <use style="fill:#ff0000;stroke:#ff0000;" x="206.954675" xlink:href="#m78e598f549" y="250.164526"/>
     <use style="fill:#ff0000;stroke:#ff0000;" x="208.313062" xlink:href="#m78e598f549" y="253.844007"/>
     <use style="fill:#ff0000;stroke:#ff0000;" x="209.671449" xlink:href="#m78e598f549" y="260.776496"/>
     <use style="fill:#ff0000;stroke:#ff0000;" x="211.029836" xlink:href="#m78e598f549" y="258.716299"/>
     <use style="fill:#ff0000;stroke:#ff0000;" x="212.388224" xlink:href="#m78e598f549" y="265.669356"/>
     <use style="fill:#ff0000;stroke:#ff0000;" x="213.746611" xlink:href="#m78e598f549" y="261.860155"/>
     <use style="fill:#ff0000;stroke:#ff0000;" x="215.104998" xlink:href="#m78e598f549" y="255.5515"/>
     <use style="fill:#ff0000;stroke:#ff0000;" x="216.463385" xlink:href="#m78e598f549" y="253.224568"/>
     <use style="fill:#ff0000;stroke:#ff0000;" x="217.821773" xlink:href="#m78e598f549" y="269.76013"/>
     <use style="fill:#ff0000;stroke:#ff0000;" x="219.18016" xlink:href="#m78e598f549" y="270.267636"/>
     <use style="fill:#ff0000;stroke:#ff0000;" x="220.538547" xlink:href="#m78e598f549" y="254.016321"/>
     <use style="fill:#ff0000;stroke:#ff0000;" x="221.896934" xlink:href="#m78e598f549" y="263.253046"/>
     <use style="fill:#ff0000;stroke:#ff0000;" x="223.255321" xlink:href="#m78e598f549" y="275.228438"/>
     <use style="fill:#ff0000;stroke:#ff0000;" x="224.613709" xlink:href="#m78e598f549" y="259.954174"/>
     <use style="fill:#ff0000;stroke:#ff0000;" x="225.972096" xlink:href="#m78e598f549" y="267.108823"/>
     <use style="fill:#ff0000;stroke:#ff0000;" x="227.330483" xlink:href="#m78e598f549" y="276.026553"/>
     <use style="fill:#ff0000;stroke:#ff0000;" x="228.68887" xlink:href="#m78e598f549" y="273.234974"/>
     <use style="fill:#ff0000;stroke:#ff0000;" x="230.047258" xlink:href="#m78e598f549" y="275.719483"/>
     <use style="fill:#ff0000;stroke:#ff0000;" x="231.405645" xlink:href="#m78e598f549" y="280.433592"/>
     <use style="fill:#ff0000;stroke:#ff0000;" x="232.764032" xlink:href="#m78e598f549" y="275.663884"/>
     <use style="fill:#ff0000;stroke:#ff0000;" x="234.122419" xlink:href="#m78e598f549" y="278.989517"/>
     <use style="fill:#ff0000;stroke:#ff0000;" x="235.480806" xlink:href="#m78e598f549" y="269.622715"/>
     <use style="fill:#ff0000;stroke:#ff0000;" x="236.839194" xlink:href="#m78e598f549" y="272.336534"/>
     <use style="fill:#ff0000;stroke:#ff0000;" x="238.197581" xlink:href="#m78e598f549" y="273.431346"/>
     <use style="fill:#ff0000;stroke:#ff0000;" x="239.555968" xlink:href="#m78e598f549" y="279.763917"/>
     <use style="fill:#ff0000;stroke:#ff0000;" x="240.914355" xlink:href="#m78e598f549" y="281.093728"/>
     <use style="fill:#ff0000;stroke:#ff0000;" x="242.272742" xlink:href="#m78e598f549" y="283.512195"/>
     <use style="fill:#ff0000;stroke:#ff0000;" x="243.63113" xlink:href="#m78e598f549" y="280.054015"/>
     <use style="fill:#ff0000;stroke:#ff0000;" x="244.989517" xlink:href="#m78e598f549" y="275.446785"/>
     <use style="fill:#ff0000;stroke:#ff0000;" x="246.347904" xlink:href="#m78e598f549" y="277.226749"/>
     <use style="fill:#ff0000;stroke:#ff0000;" x="247.706291" xlink:href="#m78e598f549" y="283.392063"/>
     <use style="fill:#ff0000;stroke:#ff0000;" x="249.064679" xlink:href="#m78e598f549" y="285.156562"/>
     <use style="fill:#ff0000;stroke:#ff0000;" x="250.423066" xlink:href="#m78e598f549" y="275.109732"/>
     <use style="fill:#ff0000;stroke:#ff0000;" x="251.781453" xlink:href="#m78e598f549" y="289.839837"/>
     <use style="fill:#ff0000;stroke:#ff0000;" x="253.13984" xlink:href="#m78e598f549" y="276.546591"/>
     <use style="fill:#ff0000;stroke:#ff0000;" x="254.498227" xlink:href="#m78e598f549" y="283.931591"/>
     <use style="fill:#ff0000;stroke:#ff0000;" x="255.856615" xlink:href="#m78e598f549" y="290.321858"/>
     <use style="fill:#ff0000;stroke:#ff0000;" x="257.215002" xlink:href="#m78e598f549" y="276.127694"/>
     <use style="fill:#ff0000;stroke:#ff0000;" x="258.573389" xlink:href="#m78e598f549" y="288.658512"/>
     <use style="fill:#ff0000;stroke:#ff0000;" x="259.931776" xlink:href="#m78e598f549" y="278.089609"/>
     <use style="fill:#ff0000;stroke:#ff0000;" x="261.290164" xlink:href="#m78e598f549" y="288.798984"/>
     <use style="fill:#ff0000;stroke:#ff0000;" x="262.648551" xlink:href="#m78e598f549" y="284.857187"/>
     <use style="fill:#ff0000;stroke:#ff0000;" x="264.006938" xlink:href="#m78e598f549" y="291.260042"/>
     <use style="fill:#ff0000;stroke:#ff0000;" x="265.365325" xlink:href="#m78e598f549" y="284.851578"/>
     <use style="fill:#ff0000;stroke:#ff0000;" x="266.723712" xlink:href="#m78e598f549" y="276.173498"/>
     <use style="fill:#ff0000;stroke:#ff0000;" x="268.0821" xlink:href="#m78e598f549" y="289.679484"/>
     <use style="fill:#ff0000;stroke:#ff0000;" x="269.440487" xlink:href="#m78e598f549" y="285.927544"/>
     <use style="fill:#ff0000;stroke:#ff0000;" x="270.798874" xlink:href="#m78e598f549" y="287.480077"/>
     <use style="fill:#ff0000;stroke:#ff0000;" x="272.157261" xlink:href="#m78e598f549" y="282.460703"/>
     <use style="fill:#ff0000;stroke:#ff0000;" x="273.515649" xlink:href="#m78e598f549" y="287.513246"/>
     <use style="fill:#ff0000;stroke:#ff0000;" x="274.874036" xlink:href="#m78e598f549" y="282.509856"/>
     <use style="fill:#ff0000;stroke:#ff0000;" x="276.232423" xlink:href="#m78e598f549" y="284.015541"/>
     <use style="fill:#ff0000;stroke:#ff0000;" x="277.59081" xlink:href="#m78e598f549" y="294.498906"/>
     <use style="fill:#ff0000;stroke:#ff0000;" x="278.949197" xlink:href="#m78e598f549" y="295.488"/>
     <use style="fill:#ff0000;stroke:#ff0000;" x="280.307585" xlink:href="#m78e598f549" y="287.855695"/>
     <use style="fill:#ff0000;stroke:#ff0000;" x="281.665972" xlink:href="#m78e598f549" y="282.262448"/>
     <use style="fill:#ff0000;stroke:#ff0000;" x="283.024359" xlink:href="#m78e598f549" y="280.622321"/>
     <use style="fill:#ff0000;stroke:#ff0000;" x="284.382746" xlink:href="#m78e598f549" y="287.559334"/>
     <use style="fill:#ff0000;stroke:#ff0000;" x="285.741134" xlink:href="#m78e598f549" y="286.984534"/>
     <use style="fill:#ff0000;stroke:#ff0000;" x="287.099521" xlink:href="#m78e598f549" y="291.355114"/>
     <use style="fill:#ff0000;stroke:#ff0000;" x="288.457908" xlink:href="#m78e598f549" y="279.415208"/>
     <use style="fill:#ff0000;stroke:#ff0000;" x="289.816295" xlink:href="#m78e598f549" y="278.747015"/>
     <use style="fill:#ff0000;stroke:#ff0000;" x="291.174682" xlink:href="#m78e598f549" y="290.654077"/>
     <use style="fill:#ff0000;stroke:#ff0000;" x="292.53307" xlink:href="#m78e598f549" y="284.355667"/>
     <use style="fill:#ff0000;stroke:#ff0000;" x="293.891457" xlink:href="#m78e598f549" y="286.707216"/>
     <use style="fill:#ff0000;stroke:#ff0000;" x="295.249844" xlink:href="#m78e598f549" y="286.009512"/>
     <use style="fill:#ff0000;stroke:#ff0000;" x="296.608231" xlink:href="#m78e598f549" y="293.257812"/>
     <use style="fill:#ff0000;stroke:#ff0000;" x="297.966618" xlink:href="#m78e598f549" y="293.521664"/>
     <use style="fill:#ff0000;stroke:#ff0000;" x="299.325006" xlink:href="#m78e598f549" y="290.320522"/>
     <use style="fill:#ff0000;stroke:#ff0000;" x="300.683393" xlink:href="#m78e598f549" y="288.895407"/>
     <use style="fill:#ff0000;stroke:#ff0000;" x="302.04178" xlink:href="#m78e598f549" y="277.432365"/>
     <use style="fill:#ff0000;stroke:#ff0000;" x="303.400167" xlink:href="#m78e598f549" y="292.149015"/>
     <use style="fill:#ff0000;stroke:#ff0000;" x="304.758555" xlink:href="#m78e598f549" y="280.532911"/>
     <use style="fill:#ff0000;stroke:#ff0000;" x="306.116942" xlink:href="#m78e598f549" y="277.204998"/>
     <use style="fill:#ff0000;stroke:#ff0000;" x="307.475329" xlink:href="#m78e598f549" y="292.635262"/>
     <use style="fill:#ff0000;stroke:#ff0000;" x="308.833716" xlink:href="#m78e598f549" y="285.196653"/>
     <use style="fill:#ff0000;stroke:#ff0000;" x="310.192103" xlink:href="#m78e598f549" y="276.201615"/>
     <use style="fill:#ff0000;stroke:#ff0000;" x="311.550491" xlink:href="#m78e598f549" y="291.638722"/>
     <use style="fill:#ff0000;stroke:#ff0000;" x="312.908878" xlink:href="#m78e598f549" y="276.285449"/>
     <use style="fill:#ff0000;stroke:#ff0000;" x="314.267265" xlink:href="#m78e598f549" y="282.902238"/>
     <use style="fill:#ff0000;stroke:#ff0000;" x="315.625652" xlink:href="#m78e598f549" y="287.726432"/>
     <use style="fill:#ff0000;stroke:#ff0000;" x="316.98404" xlink:href="#m78e598f549" y="283.988648"/>
     <use style="fill:#ff0000;stroke:#ff0000;" x="318.342427" xlink:href="#m78e598f549" y="283.625883"/>
     <use style="fill:#ff0000;stroke:#ff0000;" x="319.700814" xlink:href="#m78e598f549" y="281.951781"/>
     <use style="fill:#ff0000;stroke:#ff0000;" x="321.059201" xlink:href="#m78e598f549" y="284.113414"/>
     <use style="fill:#ff0000;stroke:#ff0000;" x="322.417588" xlink:href="#m78e598f549" y="276.086501"/>
     <use style="fill:#ff0000;stroke:#ff0000;" x="323.775976" xlink:href="#m78e598f549" y="281.990002"/>
     <use style="fill:#ff0000;stroke:#ff0000;" x="325.134363" xlink:href="#m78e598f549" y="287.604374"/>
     <use style="fill:#ff0000;stroke:#ff0000;" x="326.49275" xlink:href="#m78e598f549" y="284.381093"/>
     <use style="fill:#ff0000;stroke:#ff0000;" x="327.851137" xlink:href="#m78e598f549" y="281.527251"/>
     <use style="fill:#ff0000;stroke:#ff0000;" x="329.209525" xlink:href="#m78e598f549" y="272.134529"/>
     <use style="fill:#ff0000;stroke:#ff0000;" x="330.567912" xlink:href="#m78e598f549" y="287.662867"/>
     <use style="fill:#ff0000;stroke:#ff0000;" x="331.926299" xlink:href="#m78e598f549" y="279.075648"/>
     <use style="fill:#ff0000;stroke:#ff0000;" x="333.284686" xlink:href="#m78e598f549" y="283.352895"/>
     <use style="fill:#ff0000;stroke:#ff0000;" x="334.643073" xlink:href="#m78e598f549" y="278.673743"/>
     <use style="fill:#ff0000;stroke:#ff0000;" x="336.001461" xlink:href="#m78e598f549" y="283.689513"/>
     <use style="fill:#ff0000;stroke:#ff0000;" x="337.359848" xlink:href="#m78e598f549" y="281.753062"/>
     <use style="fill:#ff0000;stroke:#ff0000;" x="338.718235" xlink:href="#m78e598f549" y="268.68051"/>
     <use style="fill:#ff0000;stroke:#ff0000;" x="340.076622" xlink:href="#m78e598f549" y="273.877844"/>
     <use style="fill:#ff0000;stroke:#ff0000;" x="341.43501" xlink:href="#m78e598f549" y="269.441457"/>
     <use style="fill:#ff0000;stroke:#ff0000;" x="342.793397" xlink:href="#m78e598f549" y="269.799352"/>
     <use style="fill:#ff0000;stroke:#ff0000;" x="344.151784" xlink:href="#m78e598f549" y="263.229908"/>
     <use style="fill:#ff0000;stroke:#ff0000;" x="345.510171" xlink:href="#m78e598f549" y="273.592503"/>
     <use style="fill:#ff0000;stroke:#ff0000;" x="346.868558" xlink:href="#m78e598f549" y="273.616191"/>
     <use style="fill:#ff0000;stroke:#ff0000;" x="348.226946" xlink:href="#m78e598f549" y="265.751022"/>
     <use style="fill:#ff0000;stroke:#ff0000;" x="349.585333" xlink:href="#m78e598f549" y="264.3246"/>
     <use style="fill:#ff0000;stroke:#ff0000;" x="350.94372" xlink:href="#m78e598f549" y="264.124883"/>
     <use style="fill:#ff0000;stroke:#ff0000;" x="352.302107" xlink:href="#m78e598f549" y="265.257334"/>
     <use style="fill:#ff0000;stroke:#ff0000;" x="353.660494" xlink:href="#m78e598f549" y="258.329319"/>
     <use style="fill:#ff0000;stroke:#ff0000;" x="355.018882" xlink:href="#m78e598f549" y="269.286977"/>
     <use style="fill:#ff0000;stroke:#ff0000;" x="356.377269" xlink:href="#m78e598f549" y="258.20954"/>
     <use style="fill:#ff0000;stroke:#ff0000;" x="357.735656" xlink:href="#m78e598f549" y="262.342638"/>
     <use style="fill:#ff0000;stroke:#ff0000;" x="359.094043" xlink:href="#m78e598f549" y="262.220601"/>
     <use style="fill:#ff0000;stroke:#ff0000;" x="360.452431" xlink:href="#m78e598f549" y="262.050512"/>
     <use style="fill:#ff0000;stroke:#ff0000;" x="361.810818" xlink:href="#m78e598f549" y="262.898983"/>
     <use style="fill:#ff0000;stroke:#ff0000;" x="363.169205" xlink:href="#m78e598f549" y="264.370438"/>
     <use style="fill:#ff0000;stroke:#ff0000;" x="364.527592" xlink:href="#m78e598f549" y="254.806973"/>
     <use style="fill:#ff0000;stroke:#ff0000;" x="365.885979" xlink:href="#m78e598f549" y="265.374377"/>
     <use style="fill:#ff0000;stroke:#ff0000;" x="367.244367" xlink:href="#m78e598f549" y="248.980523"/>
     <use style="fill:#ff0000;stroke:#ff0000;" x="368.602754" xlink:href="#m78e598f549" y="248.266257"/>
     <use style="fill:#ff0000;stroke:#ff0000;" x="369.961141" xlink:href="#m78e598f549" y="249.770563"/>
     <use style="fill:#ff0000;stroke:#ff0000;" x="371.319528" xlink:href="#m78e598f549" y="249.777367"/>
     <use style="fill:#ff0000;stroke:#ff0000;" x="372.677916" xlink:href="#m78e598f549" y="266.464504"/>
     <use style="fill:#ff0000;stroke:#ff0000;" x="374.036303" xlink:href="#m78e598f549" y="254.049037"/>
     <use style="fill:#ff0000;stroke:#ff0000;" x="375.39469" xlink:href="#m78e598f549" y="245.170066"/>
     <use style="fill:#ff0000;stroke:#ff0000;" x="376.753077" xlink:href="#m78e598f549" y="252.51994"/>
     <use style="fill:#ff0000;stroke:#ff0000;" x="378.111464" xlink:href="#m78e598f549" y="256.175584"/>
     <use style="fill:#ff0000;stroke:#ff0000;" x="379.469852" xlink:href="#m78e598f549" y="240.054753"/>
     <use style="fill:#ff0000;stroke:#ff0000;" x="380.828239" xlink:href="#m78e598f549" y="232.142571"/>
     <use style="fill:#ff0000;stroke:#ff0000;" x="382.186626" xlink:href="#m78e598f549" y="245.982773"/>
     <use style="fill:#ff0000;stroke:#ff0000;" x="383.545013" xlink:href="#m78e598f549" y="232.719235"/>
     <use style="fill:#ff0000;stroke:#ff0000;" x="384.903401" xlink:href="#m78e598f549" y="255.879411"/>
     <use style="fill:#ff0000;stroke:#ff0000;" x="386.261788" xlink:href="#m78e598f549" y="238.242817"/>
     <use style="fill:#ff0000;stroke:#ff0000;" x="387.620175" xlink:href="#m78e598f549" y="233.731433"/>
     <use style="fill:#ff0000;stroke:#ff0000;" x="388.978562" xlink:href="#m78e598f549" y="239.351911"/>
     <use style="fill:#ff0000;stroke:#ff0000;" x="390.336949" xlink:href="#m78e598f549" y="229.334787"/>
     <use style="fill:#ff0000;stroke:#ff0000;" x="391.695337" xlink:href="#m78e598f549" y="247.524195"/>
     <use style="fill:#ff0000;stroke:#ff0000;" x="393.053724" xlink:href="#m78e598f549" y="221.14584"/>
     <use style="fill:#ff0000;stroke:#ff0000;" x="394.412111" xlink:href="#m78e598f549" y="223.33092"/>
     <use style="fill:#ff0000;stroke:#ff0000;" x="395.770498" xlink:href="#m78e598f549" y="231.687542"/>
     <use style="fill:#ff0000;stroke:#ff0000;" x="397.128886" xlink:href="#m78e598f549" y="213.926717"/>
     <use style="fill:#ff0000;stroke:#ff0000;" x="398.487273" xlink:href="#m78e598f549" y="227.588328"/>
    </g>
   </g>
   <g id="line2d_18">
    <path clip-path="url(#p10929f4f14)" d="M 73.832727 76.382045 
L 80.624663 89.6753 
L 87.416599 102.535125 
L 94.208536 114.961521 
L 101.000472 126.954488 
L 107.792408 138.514025 
L 114.584344 149.640133 
L 121.37628 160.332812 
L 128.168216 170.592062 
L 134.960152 180.417883 
L 141.752088 189.810274 
L 148.544024 198.769236 
L 155.33596 207.294768 
L 162.127897 215.386872 
L 167.561445 221.548485 
L 172.994994 227.432704 
L 178.428543 233.039528 
L 183.862092 238.368958 
L 189.295641 243.420992 
L 194.72919 248.195632 
L 200.162739 252.692878 
L 205.596288 256.912728 
L 211.029836 260.855184 
L 216.463385 264.520245 
L 221.896934 267.907911 
L 227.330483 271.018183 
L 232.764032 273.851059 
L 238.197581 276.406542 
L 243.63113 278.684629 
L 249.064679 280.685322 
L 254.498227 282.408619 
L 259.931776 283.854523 
L 265.365325 285.023031 
L 270.798874 285.914145 
L 276.232423 286.527864 
L 281.665972 286.864188 
L 287.099521 286.923117 
L 292.53307 286.704652 
L 297.966618 286.208792 
L 303.400167 285.435538 
L 308.833716 284.384888 
L 314.267265 283.056844 
L 319.700814 281.451405 
L 325.134363 279.568572 
L 330.567912 277.408343 
L 336.001461 274.97072 
L 341.43501 272.255702 
L 346.868558 269.26329 
L 352.302107 265.993483 
L 357.735656 262.446281 
L 363.169205 258.621684 
L 368.602754 254.519692 
L 374.036303 250.140306 
L 379.469852 245.483525 
L 384.903401 240.54935 
L 390.336949 235.337779 
L 395.770498 229.848814 
L 398.487273 227.000308 
L 398.487273 227.000308 
" style="fill:none;stroke:#008000;stroke-linecap:square;stroke-width:1.5;"/>
   </g>
   <g id="patch_3">
    <path d="M 57.6 307.584 
L 57.6 41.472 
" style="fill:none;stroke:#000000;stroke-linecap:square;stroke-linejoin:miter;stroke-width:0.8;"/>
   </g>
   <g id="patch_4">
    <path d="M 414.72 307.584 
L 414.72 41.472 
" style="fill:none;stroke:#000000;stroke-linecap:square;stroke-linejoin:miter;stroke-width:0.8;"/>
   </g>
   <g id="patch_5">
    <path d="M 57.6 307.584 
L 414.72 307.584 
" style="fill:none;stroke:#000000;stroke-linecap:square;stroke-linejoin:miter;stroke-width:0.8;"/>
   </g>
   <g id="patch_6">
    <path d="M 57.6 41.472 
L 414.72 41.472 
" style="fill:none;stroke:#000000;stroke-linecap:square;stroke-linejoin:miter;stroke-width:0.8;"/>
   </g>
   <g id="text_19">
    <!-- FunctionFitting 12 -->
    <defs>
     <path d="M 9.8125 72.90625 
L 51.703125 72.90625 
L 51.703125 64.59375 
L 19.671875 64.59375 
L 19.671875 43.109375 
L 48.578125 43.109375 
L 48.578125 34.8125 
L 19.671875 34.8125 
L 19.671875 0 
L 9.8125 0 
z
" id="DejaVuSans-70"/>
     <path d="M 54.890625 33.015625 
L 54.890625 0 
L 45.90625 0 
L 45.90625 32.71875 
Q 45.90625 40.484375 42.875 44.328125 
Q 39.84375 48.1875 33.796875 48.1875 
Q 26.515625 48.1875 22.3125 43.546875 
Q 18.109375 38.921875 18.109375 30.90625 
L 18.109375 0 
L 9.078125 0 
L 9.078125 54.6875 
L 18.109375 54.6875 
L 18.109375 46.1875 
Q 21.34375 51.125 25.703125 53.5625 
Q 30.078125 56 35.796875 56 
Q 45.21875 56 50.046875 50.171875 
Q 54.890625 44.34375 54.890625 33.015625 
z
" id="DejaVuSans-110"/>
     <path d="M 48.78125 52.59375 
L 48.78125 44.1875 
Q 44.96875 46.296875 41.140625 47.34375 
Q 37.3125 48.390625 33.40625 48.390625 
Q 24.65625 48.390625 19.8125 42.84375 
Q 14.984375 37.3125 14.984375 27.296875 
Q 14.984375 17.28125 19.8125 11.734375 
Q 24.65625 6.203125 33.40625 6.203125 
Q 37.3125 6.203125 41.140625 7.25 
Q 44.96875 8.296875 48.78125 10.40625 
L 48.78125 2.09375 
Q 45.015625 0.34375 40.984375 -0.53125 
Q 36.96875 -1.421875 32.421875 -1.421875 
Q 20.0625 -1.421875 12.78125 6.34375 
Q 5.515625 14.109375 5.515625 27.296875 
Q 5.515625 40.671875 12.859375 48.328125 
Q 20.21875 56 33.015625 56 
Q 37.15625 56 41.109375 55.140625 
Q 45.0625 54.296875 48.78125 52.59375 
z
" id="DejaVuSans-99"/>
     <path d="M 18.3125 70.21875 
L 18.3125 54.6875 
L 36.8125 54.6875 
L 36.8125 47.703125 
L 18.3125 47.703125 
L 18.3125 18.015625 
Q 18.3125 11.328125 20.140625 9.421875 
Q 21.96875 7.515625 27.59375 7.515625 
L 36.8125 7.515625 
L 36.8125 0 
L 27.59375 0 
Q 17.1875 0 13.234375 3.875 
Q 9.28125 7.765625 9.28125 18.015625 
L 9.28125 47.703125 
L 2.6875 47.703125 
L 2.6875 54.6875 
L 9.28125 54.6875 
L 9.28125 70.21875 
z
" id="DejaVuSans-116"/>
     <path d="M 9.421875 54.6875 
L 18.40625 54.6875 
L 18.40625 0 
L 9.421875 0 
z
M 9.421875 75.984375 
L 18.40625 75.984375 
L 18.40625 64.59375 
L 9.421875 64.59375 
z
" id="DejaVuSans-105"/>
     <path d="M 30.609375 48.390625 
Q 23.390625 48.390625 19.1875 42.75 
Q 14.984375 37.109375 14.984375 27.296875 
Q 14.984375 17.484375 19.15625 11.84375 
Q 23.34375 6.203125 30.609375 6.203125 
Q 37.796875 6.203125 41.984375 11.859375 
Q 46.1875 17.53125 46.1875 27.296875 
Q 46.1875 37.015625 41.984375 42.703125 
Q 37.796875 48.390625 30.609375 48.390625 
z
M 30.609375 56 
Q 42.328125 56 49.015625 48.375 
Q 55.71875 40.765625 55.71875 27.296875 
Q 55.71875 13.875 49.015625 6.21875 
Q 42.328125 -1.421875 30.609375 -1.421875 
Q 18.84375 -1.421875 12.171875 6.21875 
Q 5.515625 13.875 5.515625 27.296875 
Q 5.515625 40.765625 12.171875 48.375 
Q 18.84375 56 30.609375 56 
z
" id="DejaVuSans-111"/>
     <path d="M 45.40625 27.984375 
Q 45.40625 37.75 41.375 43.109375 
Q 37.359375 48.484375 30.078125 48.484375 
Q 22.859375 48.484375 18.828125 43.109375 
Q 14.796875 37.75 14.796875 27.984375 
Q 14.796875 18.265625 18.828125 12.890625 
Q 22.859375 7.515625 30.078125 7.515625 
Q 37.359375 7.515625 41.375 12.890625 
Q 45.40625 18.265625 45.40625 27.984375 
z
M 54.390625 6.78125 
Q 54.390625 -7.171875 48.1875 -13.984375 
Q 42 -20.796875 29.203125 -20.796875 
Q 24.46875 -20.796875 20.265625 -20.09375 
Q 16.0625 -19.390625 12.109375 -17.921875 
L 12.109375 -9.1875 
Q 16.0625 -11.328125 19.921875 -12.34375 
Q 23.78125 -13.375 27.78125 -13.375 
Q 36.625 -13.375 41.015625 -8.765625 
Q 45.40625 -4.15625 45.40625 5.171875 
L 45.40625 9.625 
Q 42.625 4.78125 38.28125 2.390625 
Q 33.9375 0 27.875 0 
Q 17.828125 0 11.671875 7.65625 
Q 5.515625 15.328125 5.515625 27.984375 
Q 5.515625 40.671875 11.671875 48.328125 
Q 17.828125 56 27.875 56 
Q 33.9375 56 38.28125 53.609375 
Q 42.625 51.21875 45.40625 46.390625 
L 45.40625 54.6875 
L 54.390625 54.6875 
z
" id="DejaVuSans-103"/>
    </defs>
    <g transform="translate(181.680937 35.472)scale(0.12 -0.12)">
     <use xlink:href="#DejaVuSans-70"/>
     <use x="57.441406" xlink:href="#DejaVuSans-117"/>
     <use x="120.820312" xlink:href="#DejaVuSans-110"/>
     <use x="184.199219" xlink:href="#DejaVuSans-99"/>
     <use x="239.179688" xlink:href="#DejaVuSans-116"/>
     <use x="278.388672" xlink:href="#DejaVuSans-105"/>
     <use x="306.171875" xlink:href="#DejaVuSans-111"/>
     <use x="367.353516" xlink:href="#DejaVuSans-110"/>
     <use x="430.732422" xlink:href="#DejaVuSans-70"/>
     <use x="488.142578" xlink:href="#DejaVuSans-105"/>
     <use x="515.925781" xlink:href="#DejaVuSans-116"/>
     <use x="555.134766" xlink:href="#DejaVuSans-116"/>
     <use x="594.34375" xlink:href="#DejaVuSans-105"/>
     <use x="622.126953" xlink:href="#DejaVuSans-110"/>
     <use x="685.505859" xlink:href="#DejaVuSans-103"/>
     <use x="748.982422" xlink:href="#DejaVuSans-32"/>
     <use x="780.769531" xlink:href="#DejaVuSans-49"/>
     <use x="844.392578" xlink:href="#DejaVuSans-50"/>
    </g>
   </g>
   <g id="legend_1">
    <g id="patch_7">
     <path d="M 299.83875 78.82825 
L 407.72 78.82825 
Q 409.72 78.82825 409.72 76.82825 
L 409.72 48.472 
Q 409.72 46.472 407.72 46.472 
L 299.83875 46.472 
Q 297.83875 46.472 297.83875 48.472 
L 297.83875 76.82825 
Q 297.83875 78.82825 299.83875 78.82825 
z
" style="fill:#ffffff;opacity:0.8;stroke:#cccccc;stroke-linejoin:miter;"/>
    </g>
    <g id="line2d_19"/>
    <g id="line2d_20">
     <g>
      <use style="fill:#ff0000;stroke:#ff0000;" x="311.83875" xlink:href="#m78e598f549" y="54.570437"/>
     </g>
    </g>
    <g id="text_20">
     <!-- measured data -->
     <defs>
      <path d="M 52 44.1875 
Q 55.375 50.25 60.0625 53.125 
Q 64.75 56 71.09375 56 
Q 79.640625 56 84.28125 50.015625 
Q 88.921875 44.046875 88.921875 33.015625 
L 88.921875 0 
L 79.890625 0 
L 79.890625 32.71875 
Q 79.890625 40.578125 77.09375 44.375 
Q 74.3125 48.1875 68.609375 48.1875 
Q 61.625 48.1875 57.5625 43.546875 
Q 53.515625 38.921875 53.515625 30.90625 
L 53.515625 0 
L 44.484375 0 
L 44.484375 32.71875 
Q 44.484375 40.625 41.703125 44.40625 
Q 38.921875 48.1875 33.109375 48.1875 
Q 26.21875 48.1875 22.15625 43.53125 
Q 18.109375 38.875 18.109375 30.90625 
L 18.109375 0 
L 9.078125 0 
L 9.078125 54.6875 
L 18.109375 54.6875 
L 18.109375 46.1875 
Q 21.1875 51.21875 25.484375 53.609375 
Q 29.78125 56 35.6875 56 
Q 41.65625 56 45.828125 52.96875 
Q 50 49.953125 52 44.1875 
z
" id="DejaVuSans-109"/>
      <path d="M 41.109375 46.296875 
Q 39.59375 47.171875 37.8125 47.578125 
Q 36.03125 48 33.890625 48 
Q 26.265625 48 22.1875 43.046875 
Q 18.109375 38.09375 18.109375 28.8125 
L 18.109375 0 
L 9.078125 0 
L 9.078125 54.6875 
L 18.109375 54.6875 
L 18.109375 46.1875 
Q 20.953125 51.171875 25.484375 53.578125 
Q 30.03125 56 36.53125 56 
Q 37.453125 56 38.578125 55.875 
Q 39.703125 55.765625 41.0625 55.515625 
z
" id="DejaVuSans-114"/>
      <path d="M 45.40625 46.390625 
L 45.40625 75.984375 
L 54.390625 75.984375 
L 54.390625 0 
L 45.40625 0 
L 45.40625 8.203125 
Q 42.578125 3.328125 38.25 0.953125 
Q 33.9375 -1.421875 27.875 -1.421875 
Q 17.96875 -1.421875 11.734375 6.484375 
Q 5.515625 14.40625 5.515625 27.296875 
Q 5.515625 40.1875 11.734375 48.09375 
Q 17.96875 56 27.875 56 
Q 33.9375 56 38.25 53.625 
Q 42.578125 51.265625 45.40625 46.390625 
z
M 14.796875 27.296875 
Q 14.796875 17.390625 18.875 11.75 
Q 22.953125 6.109375 30.078125 6.109375 
Q 37.203125 6.109375 41.296875 11.75 
Q 45.40625 17.390625 45.40625 27.296875 
Q 45.40625 37.203125 41.296875 42.84375 
Q 37.203125 48.484375 30.078125 48.484375 
Q 22.953125 48.484375 18.875 42.84375 
Q 14.796875 37.203125 14.796875 27.296875 
z
" id="DejaVuSans-100"/>
     </defs>
     <g transform="translate(329.83875 58.070437)scale(0.1 -0.1)">
      <use xlink:href="#DejaVuSans-109"/>
      <use x="97.412109" xlink:href="#DejaVuSans-101"/>
      <use x="158.935547" xlink:href="#DejaVuSans-97"/>
      <use x="220.214844" xlink:href="#DejaVuSans-115"/>
      <use x="272.314453" xlink:href="#DejaVuSans-117"/>
      <use x="335.693359" xlink:href="#DejaVuSans-114"/>
      <use x="376.775391" xlink:href="#DejaVuSans-101"/>
      <use x="438.298828" xlink:href="#DejaVuSans-100"/>
      <use x="501.775391" xlink:href="#DejaVuSans-32"/>
      <use x="533.5625" xlink:href="#DejaVuSans-100"/>
      <use x="597.039062" xlink:href="#DejaVuSans-97"/>
      <use x="658.318359" xlink:href="#DejaVuSans-116"/>
      <use x="697.527344" xlink:href="#DejaVuSans-97"/>
     </g>
    </g>
    <g id="line2d_21">
     <path d="M 301.83875 69.248562 
L 321.83875 69.248562 
" style="fill:none;stroke:#008000;stroke-linecap:square;stroke-width:1.5;"/>
    </g>
    <g id="line2d_22"/>
    <g id="text_21">
     <!-- linear data -->
     <g transform="translate(329.83875 72.748562)scale(0.1 -0.1)">
      <use xlink:href="#DejaVuSans-108"/>
      <use x="27.783203" xlink:href="#DejaVuSans-105"/>
      <use x="55.566406" xlink:href="#DejaVuSans-110"/>
      <use x="118.945312" xlink:href="#DejaVuSans-101"/>
      <use x="180.46875" xlink:href="#DejaVuSans-97"/>
      <use x="241.748047" xlink:href="#DejaVuSans-114"/>
      <use x="282.861328" xlink:href="#DejaVuSans-32"/>
      <use x="314.648438" xlink:href="#DejaVuSans-100"/>
      <use x="378.125" xlink:href="#DejaVuSans-97"/>
      <use x="439.404297" xlink:href="#DejaVuSans-116"/>
      <use x="478.613281" xlink:href="#DejaVuSans-97"/>
     </g>
    </g>
   </g>
  </g>
 </g>
 <defs>
  <clipPath id="p10929f4f14">
   <rect height="266.112" width="357.12" x="57.6" y="41.472"/>
  </clipPath>
 </defs>
</svg>
