<?xml version="1.0" encoding="utf-8" standalone="no"?>
<!DOCTYPE svg PUBLIC "-//W3C//DTD SVG 1.1//EN"
  "http://www.w3.org/Graphics/SVG/1.1/DTD/svg11.dtd">
<!-- Created with matplotlib (https://matplotlib.org/) -->
<svg height="345.6pt" version="1.1" viewBox="0 0 460.8 345.6" width="460.8pt" xmlns="http://www.w3.org/2000/svg" xmlns:xlink="http://www.w3.org/1999/xlink">
 <defs>
  <style type="text/css">
*{stroke-linecap:butt;stroke-linejoin:round;}
  </style>
 </defs>
 <g id="figure_1">
  <g id="patch_1">
   <path d="M 0 345.6 
L 460.8 345.6 
L 460.8 0 
L 0 0 
z
" style="fill:#ffffff;"/>
  </g>
  <g id="axes_1">
   <g id="patch_2">
    <path d="M 57.6 307.584 
L 414.72 307.584 
L 414.72 41.472 
L 57.6 41.472 
z
" style="fill:#ffffff;"/>
   </g>
   <g id="matplotlib.axis_1">
    <g id="xtick_1">
     <g id="line2d_1">
      <defs>
       <path d="M 0 0 
L 0 3.5 
" id="m8631841ef7" style="stroke:#000000;stroke-width:0.8;"/>
      </defs>
      <g>
       <use style="stroke:#000000;stroke-width:0.8;" x="106.448133" xlink:href="#m8631841ef7" y="307.584"/>
      </g>
     </g>
     <g id="text_1">
      <!-- 20 -->
      <defs>
       <path d="M 19.1875 8.296875 
L 53.609375 8.296875 
L 53.609375 0 
L 7.328125 0 
L 7.328125 8.296875 
Q 12.9375 14.109375 22.625 23.890625 
Q 32.328125 33.6875 34.8125 36.53125 
Q 39.546875 41.84375 41.421875 45.53125 
Q 43.3125 49.21875 43.3125 52.78125 
Q 43.3125 58.59375 39.234375 62.25 
Q 35.15625 65.921875 28.609375 65.921875 
Q 23.96875 65.921875 18.8125 64.3125 
Q 13.671875 62.703125 7.8125 59.421875 
L 7.8125 69.390625 
Q 13.765625 71.78125 18.9375 73 
Q 24.125 74.21875 28.421875 74.21875 
Q 39.75 74.21875 46.484375 68.546875 
Q 53.21875 62.890625 53.21875 53.421875 
Q 53.21875 48.921875 51.53125 44.890625 
Q 49.859375 40.875 45.40625 35.40625 
Q 44.1875 33.984375 37.640625 27.21875 
Q 31.109375 20.453125 19.1875 8.296875 
z
" id="DejaVuSans-50"/>
       <path d="M 31.78125 66.40625 
Q 24.171875 66.40625 20.328125 58.90625 
Q 16.5 51.421875 16.5 36.375 
Q 16.5 21.390625 20.328125 13.890625 
Q 24.171875 6.390625 31.78125 6.390625 
Q 39.453125 6.390625 43.28125 13.890625 
Q 47.125 21.390625 47.125 36.375 
Q 47.125 51.421875 43.28125 58.90625 
Q 39.453125 66.40625 31.78125 66.40625 
z
M 31.78125 74.21875 
Q 44.046875 74.21875 50.515625 64.515625 
Q 56.984375 54.828125 56.984375 36.375 
Q 56.984375 17.96875 50.515625 8.265625 
Q 44.046875 -1.421875 31.78125 -1.421875 
Q 19.53125 -1.421875 13.0625 8.265625 
Q 6.59375 17.96875 6.59375 36.375 
Q 6.59375 54.828125 13.0625 64.515625 
Q 19.53125 74.21875 31.78125 74.21875 
z
" id="DejaVuSans-48"/>
      </defs>
      <g transform="translate(100.085633 322.182437)scale(0.1 -0.1)">
       <use xlink:href="#DejaVuSans-50"/>
       <use x="63.623047" xlink:href="#DejaVuSans-48"/>
      </g>
     </g>
    </g>
    <g id="xtick_2">
     <g id="line2d_2">
      <g>
       <use style="stroke:#000000;stroke-width:0.8;" x="167.157056" xlink:href="#m8631841ef7" y="307.584"/>
      </g>
     </g>
     <g id="text_2">
      <!-- 40 -->
      <defs>
       <path d="M 37.796875 64.3125 
L 12.890625 25.390625 
L 37.796875 25.390625 
z
M 35.203125 72.90625 
L 47.609375 72.90625 
L 47.609375 25.390625 
L 58.015625 25.390625 
L 58.015625 17.1875 
L 47.609375 17.1875 
L 47.609375 0 
L 37.796875 0 
L 37.796875 17.1875 
L 4.890625 17.1875 
L 4.890625 26.703125 
z
" id="DejaVuSans-52"/>
      </defs>
      <g transform="translate(160.794556 322.182437)scale(0.1 -0.1)">
       <use xlink:href="#DejaVuSans-52"/>
       <use x="63.623047" xlink:href="#DejaVuSans-48"/>
      </g>
     </g>
    </g>
    <g id="xtick_3">
     <g id="line2d_3">
      <g>
       <use style="stroke:#000000;stroke-width:0.8;" x="227.865979" xlink:href="#m8631841ef7" y="307.584"/>
      </g>
     </g>
     <g id="text_3">
      <!-- 60 -->
      <defs>
       <path d="M 33.015625 40.375 
Q 26.375 40.375 22.484375 35.828125 
Q 18.609375 31.296875 18.609375 23.390625 
Q 18.609375 15.53125 22.484375 10.953125 
Q 26.375 6.390625 33.015625 6.390625 
Q 39.65625 6.390625 43.53125 10.953125 
Q 47.40625 15.53125 47.40625 23.390625 
Q 47.40625 31.296875 43.53125 35.828125 
Q 39.65625 40.375 33.015625 40.375 
z
M 52.59375 71.296875 
L 52.59375 62.3125 
Q 48.875 64.0625 45.09375 64.984375 
Q 41.3125 65.921875 37.59375 65.921875 
Q 27.828125 65.921875 22.671875 59.328125 
Q 17.53125 52.734375 16.796875 39.40625 
Q 19.671875 43.65625 24.015625 45.921875 
Q 28.375 48.1875 33.59375 48.1875 
Q 44.578125 48.1875 50.953125 41.515625 
Q 57.328125 34.859375 57.328125 23.390625 
Q 57.328125 12.15625 50.6875 5.359375 
Q 44.046875 -1.421875 33.015625 -1.421875 
Q 20.359375 -1.421875 13.671875 8.265625 
Q 6.984375 17.96875 6.984375 36.375 
Q 6.984375 53.65625 15.1875 63.9375 
Q 23.390625 74.21875 37.203125 74.21875 
Q 40.921875 74.21875 44.703125 73.484375 
Q 48.484375 72.75 52.59375 71.296875 
z
" id="DejaVuSans-54"/>
      </defs>
      <g transform="translate(221.503479 322.182437)scale(0.1 -0.1)">
       <use xlink:href="#DejaVuSans-54"/>
       <use x="63.623047" xlink:href="#DejaVuSans-48"/>
      </g>
     </g>
    </g>
    <g id="xtick_4">
     <g id="line2d_4">
      <g>
       <use style="stroke:#000000;stroke-width:0.8;" x="288.574902" xlink:href="#m8631841ef7" y="307.584"/>
      </g>
     </g>
     <g id="text_4">
      <!-- 80 -->
      <defs>
       <path d="M 31.78125 34.625 
Q 24.75 34.625 20.71875 30.859375 
Q 16.703125 27.09375 16.703125 20.515625 
Q 16.703125 13.921875 20.71875 10.15625 
Q 24.75 6.390625 31.78125 6.390625 
Q 38.8125 6.390625 42.859375 10.171875 
Q 46.921875 13.96875 46.921875 20.515625 
Q 46.921875 27.09375 42.890625 30.859375 
Q 38.875 34.625 31.78125 34.625 
z
M 21.921875 38.8125 
Q 15.578125 40.375 12.03125 44.71875 
Q 8.5 49.078125 8.5 55.328125 
Q 8.5 64.0625 14.71875 69.140625 
Q 20.953125 74.21875 31.78125 74.21875 
Q 42.671875 74.21875 48.875 69.140625 
Q 55.078125 64.0625 55.078125 55.328125 
Q 55.078125 49.078125 51.53125 44.71875 
Q 48 40.375 41.703125 38.8125 
Q 48.828125 37.15625 52.796875 32.3125 
Q 56.78125 27.484375 56.78125 20.515625 
Q 56.78125 9.90625 50.3125 4.234375 
Q 43.84375 -1.421875 31.78125 -1.421875 
Q 19.734375 -1.421875 13.25 4.234375 
Q 6.78125 9.90625 6.78125 20.515625 
Q 6.78125 27.484375 10.78125 32.3125 
Q 14.796875 37.15625 21.921875 38.8125 
z
M 18.3125 54.390625 
Q 18.3125 48.734375 21.84375 45.5625 
Q 25.390625 42.390625 31.78125 42.390625 
Q 38.140625 42.390625 41.71875 45.5625 
Q 45.3125 48.734375 45.3125 54.390625 
Q 45.3125 60.0625 41.71875 63.234375 
Q 38.140625 66.40625 31.78125 66.40625 
Q 25.390625 66.40625 21.84375 63.234375 
Q 18.3125 60.0625 18.3125 54.390625 
z
" id="DejaVuSans-56"/>
      </defs>
      <g transform="translate(282.212402 322.182437)scale(0.1 -0.1)">
       <use xlink:href="#DejaVuSans-56"/>
       <use x="63.623047" xlink:href="#DejaVuSans-48"/>
      </g>
     </g>
    </g>
    <g id="xtick_5">
     <g id="line2d_5">
      <g>
       <use style="stroke:#000000;stroke-width:0.8;" x="349.283825" xlink:href="#m8631841ef7" y="307.584"/>
      </g>
     </g>
     <g id="text_5">
      <!-- 100 -->
      <defs>
       <path d="M 12.40625 8.296875 
L 28.515625 8.296875 
L 28.515625 63.921875 
L 10.984375 60.40625 
L 10.984375 69.390625 
L 28.421875 72.90625 
L 38.28125 72.90625 
L 38.28125 8.296875 
L 54.390625 8.296875 
L 54.390625 0 
L 12.40625 0 
z
" id="DejaVuSans-49"/>
      </defs>
      <g transform="translate(339.740075 322.182437)scale(0.1 -0.1)">
       <use xlink:href="#DejaVuSans-49"/>
       <use x="63.623047" xlink:href="#DejaVuSans-48"/>
       <use x="127.246094" xlink:href="#DejaVuSans-48"/>
      </g>
     </g>
    </g>
    <g id="xtick_6">
     <g id="line2d_6">
      <g>
       <use style="stroke:#000000;stroke-width:0.8;" x="409.992748" xlink:href="#m8631841ef7" y="307.584"/>
      </g>
     </g>
     <g id="text_6">
      <!-- 120 -->
      <g transform="translate(400.448998 322.182437)scale(0.1 -0.1)">
       <use xlink:href="#DejaVuSans-49"/>
       <use x="63.623047" xlink:href="#DejaVuSans-50"/>
       <use x="127.246094" xlink:href="#DejaVuSans-48"/>
      </g>
     </g>
    </g>
    <g id="text_7">
     <!-- x values -->
     <defs>
      <path d="M 54.890625 54.6875 
L 35.109375 28.078125 
L 55.90625 0 
L 45.3125 0 
L 29.390625 21.484375 
L 13.484375 0 
L 2.875 0 
L 24.125 28.609375 
L 4.6875 54.6875 
L 15.28125 54.6875 
L 29.78125 35.203125 
L 44.28125 54.6875 
z
" id="DejaVuSans-120"/>
      <path id="DejaVuSans-32"/>
      <path d="M 2.984375 54.6875 
L 12.5 54.6875 
L 29.59375 8.796875 
L 46.6875 54.6875 
L 56.203125 54.6875 
L 35.6875 0 
L 23.484375 0 
z
" id="DejaVuSans-118"/>
      <path d="M 34.28125 27.484375 
Q 23.390625 27.484375 19.1875 25 
Q 14.984375 22.515625 14.984375 16.5 
Q 14.984375 11.71875 18.140625 8.90625 
Q 21.296875 6.109375 26.703125 6.109375 
Q 34.1875 6.109375 38.703125 11.40625 
Q 43.21875 16.703125 43.21875 25.484375 
L 43.21875 27.484375 
z
M 52.203125 31.203125 
L 52.203125 0 
L 43.21875 0 
L 43.21875 8.296875 
Q 40.140625 3.328125 35.546875 0.953125 
Q 30.953125 -1.421875 24.3125 -1.421875 
Q 15.921875 -1.421875 10.953125 3.296875 
Q 6 8.015625 6 15.921875 
Q 6 25.140625 12.171875 29.828125 
Q 18.359375 34.515625 30.609375 34.515625 
L 43.21875 34.515625 
L 43.21875 35.40625 
Q 43.21875 41.609375 39.140625 45 
Q 35.0625 48.390625 27.6875 48.390625 
Q 23 48.390625 18.546875 47.265625 
Q 14.109375 46.140625 10.015625 43.890625 
L 10.015625 52.203125 
Q 14.9375 54.109375 19.578125 55.046875 
Q 24.21875 56 28.609375 56 
Q 40.484375 56 46.34375 49.84375 
Q 52.203125 43.703125 52.203125 31.203125 
z
" id="DejaVuSans-97"/>
      <path d="M 9.421875 75.984375 
L 18.40625 75.984375 
L 18.40625 0 
L 9.421875 0 
z
" id="DejaVuSans-108"/>
      <path d="M 8.5 21.578125 
L 8.5 54.6875 
L 17.484375 54.6875 
L 17.484375 21.921875 
Q 17.484375 14.15625 20.5 10.265625 
Q 23.53125 6.390625 29.59375 6.390625 
Q 36.859375 6.390625 41.078125 11.03125 
Q 45.3125 15.671875 45.3125 23.6875 
L 45.3125 54.6875 
L 54.296875 54.6875 
L 54.296875 0 
L 45.3125 0 
L 45.3125 8.40625 
Q 42.046875 3.421875 37.71875 1 
Q 33.40625 -1.421875 27.6875 -1.421875 
Q 18.265625 -1.421875 13.375 4.4375 
Q 8.5 10.296875 8.5 21.578125 
z
M 31.109375 56 
z
" id="DejaVuSans-117"/>
      <path d="M 56.203125 29.59375 
L 56.203125 25.203125 
L 14.890625 25.203125 
Q 15.484375 15.921875 20.484375 11.0625 
Q 25.484375 6.203125 34.421875 6.203125 
Q 39.59375 6.203125 44.453125 7.46875 
Q 49.3125 8.734375 54.109375 11.28125 
L 54.109375 2.78125 
Q 49.265625 0.734375 44.1875 -0.34375 
Q 39.109375 -1.421875 33.890625 -1.421875 
Q 20.796875 -1.421875 13.15625 6.1875 
Q 5.515625 13.8125 5.515625 26.8125 
Q 5.515625 40.234375 12.765625 48.109375 
Q 20.015625 56 32.328125 56 
Q 43.359375 56 49.78125 48.890625 
Q 56.203125 41.796875 56.203125 29.59375 
z
M 47.21875 32.234375 
Q 47.125 39.59375 43.09375 43.984375 
Q 39.0625 48.390625 32.421875 48.390625 
Q 24.90625 48.390625 20.390625 44.140625 
Q 15.875 39.890625 15.1875 32.171875 
z
" id="DejaVuSans-101"/>
      <path d="M 44.28125 53.078125 
L 44.28125 44.578125 
Q 40.484375 46.53125 36.375 47.5 
Q 32.28125 48.484375 27.875 48.484375 
Q 21.1875 48.484375 17.84375 46.4375 
Q 14.5 44.390625 14.5 40.28125 
Q 14.5 37.15625 16.890625 35.375 
Q 19.28125 33.59375 26.515625 31.984375 
L 29.59375 31.296875 
Q 39.15625 29.25 43.1875 25.515625 
Q 47.21875 21.78125 47.21875 15.09375 
Q 47.21875 7.46875 41.1875 3.015625 
Q 35.15625 -1.421875 24.609375 -1.421875 
Q 20.21875 -1.421875 15.453125 -0.5625 
Q 10.6875 0.296875 5.421875 2 
L 5.421875 11.28125 
Q 10.40625 8.6875 15.234375 7.390625 
Q 20.0625 6.109375 24.8125 6.109375 
Q 31.15625 6.109375 34.5625 8.28125 
Q 37.984375 10.453125 37.984375 14.40625 
Q 37.984375 18.0625 35.515625 20.015625 
Q 33.0625 21.96875 24.703125 23.78125 
L 21.578125 24.515625 
Q 13.234375 26.265625 9.515625 29.90625 
Q 5.8125 33.546875 5.8125 39.890625 
Q 5.8125 47.609375 11.28125 51.796875 
Q 16.75 56 26.8125 56 
Q 31.78125 56 36.171875 55.265625 
Q 40.578125 54.546875 44.28125 53.078125 
z
" id="DejaVuSans-115"/>
     </defs>
     <g transform="translate(215.349063 335.860562)scale(0.1 -0.1)">
      <use xlink:href="#DejaVuSans-120"/>
      <use x="59.179688" xlink:href="#DejaVuSans-32"/>
      <use x="90.966797" xlink:href="#DejaVuSans-118"/>
      <use x="150.146484" xlink:href="#DejaVuSans-97"/>
      <use x="211.425781" xlink:href="#DejaVuSans-108"/>
      <use x="239.208984" xlink:href="#DejaVuSans-117"/>
      <use x="302.587891" xlink:href="#DejaVuSans-101"/>
      <use x="364.111328" xlink:href="#DejaVuSans-115"/>
     </g>
    </g>
   </g>
   <g id="matplotlib.axis_2">
    <g id="ytick_1">
     <g id="line2d_7">
      <defs>
       <path d="M 0 0 
L -3.5 0 
" id="mc2c0cacbb4" style="stroke:#000000;stroke-width:0.8;"/>
      </defs>
      <g>
       <use style="stroke:#000000;stroke-width:0.8;" x="57.6" xlink:href="#mc2c0cacbb4" y="291.1774"/>
      </g>
     </g>
     <g id="text_8">
      <!-- 0 -->
      <g transform="translate(44.2375 294.976618)scale(0.1 -0.1)">
       <use xlink:href="#DejaVuSans-48"/>
      </g>
     </g>
    </g>
    <g id="ytick_2">
     <g id="line2d_8">
      <g>
       <use style="stroke:#000000;stroke-width:0.8;" x="57.6" xlink:href="#mc2c0cacbb4" y="260.770353"/>
      </g>
     </g>
     <g id="text_9">
      <!-- 100 -->
      <g transform="translate(31.5125 264.569572)scale(0.1 -0.1)">
       <use xlink:href="#DejaVuSans-49"/>
       <use x="63.623047" xlink:href="#DejaVuSans-48"/>
       <use x="127.246094" xlink:href="#DejaVuSans-48"/>
      </g>
     </g>
    </g>
    <g id="ytick_3">
     <g id="line2d_9">
      <g>
       <use style="stroke:#000000;stroke-width:0.8;" x="57.6" xlink:href="#mc2c0cacbb4" y="230.363306"/>
      </g>
     </g>
     <g id="text_10">
      <!-- 200 -->
      <g transform="translate(31.5125 234.162525)scale(0.1 -0.1)">
       <use xlink:href="#DejaVuSans-50"/>
       <use x="63.623047" xlink:href="#DejaVuSans-48"/>
       <use x="127.246094" xlink:href="#DejaVuSans-48"/>
      </g>
     </g>
    </g>
    <g id="ytick_4">
     <g id="line2d_10">
      <g>
       <use style="stroke:#000000;stroke-width:0.8;" x="57.6" xlink:href="#mc2c0cacbb4" y="199.956259"/>
      </g>
     </g>
     <g id="text_11">
      <!-- 300 -->
      <defs>
       <path d="M 40.578125 39.3125 
Q 47.65625 37.796875 51.625 33 
Q 55.609375 28.21875 55.609375 21.1875 
Q 55.609375 10.40625 48.1875 4.484375 
Q 40.765625 -1.421875 27.09375 -1.421875 
Q 22.515625 -1.421875 17.65625 -0.515625 
Q 12.796875 0.390625 7.625 2.203125 
L 7.625 11.71875 
Q 11.71875 9.328125 16.59375 8.109375 
Q 21.484375 6.890625 26.8125 6.890625 
Q 36.078125 6.890625 40.9375 10.546875 
Q 45.796875 14.203125 45.796875 21.1875 
Q 45.796875 27.640625 41.28125 31.265625 
Q 36.765625 34.90625 28.71875 34.90625 
L 20.21875 34.90625 
L 20.21875 43.015625 
L 29.109375 43.015625 
Q 36.375 43.015625 40.234375 45.921875 
Q 44.09375 48.828125 44.09375 54.296875 
Q 44.09375 59.90625 40.109375 62.90625 
Q 36.140625 65.921875 28.71875 65.921875 
Q 24.65625 65.921875 20.015625 65.03125 
Q 15.375 64.15625 9.8125 62.3125 
L 9.8125 71.09375 
Q 15.4375 72.65625 20.34375 73.4375 
Q 25.25 74.21875 29.59375 74.21875 
Q 40.828125 74.21875 47.359375 69.109375 
Q 53.90625 64.015625 53.90625 55.328125 
Q 53.90625 49.265625 50.4375 45.09375 
Q 46.96875 40.921875 40.578125 39.3125 
z
" id="DejaVuSans-51"/>
      </defs>
      <g transform="translate(31.5125 203.755478)scale(0.1 -0.1)">
       <use xlink:href="#DejaVuSans-51"/>
       <use x="63.623047" xlink:href="#DejaVuSans-48"/>
       <use x="127.246094" xlink:href="#DejaVuSans-48"/>
      </g>
     </g>
    </g>
    <g id="ytick_5">
     <g id="line2d_11">
      <g>
       <use style="stroke:#000000;stroke-width:0.8;" x="57.6" xlink:href="#mc2c0cacbb4" y="169.549213"/>
      </g>
     </g>
     <g id="text_12">
      <!-- 400 -->
      <g transform="translate(31.5125 173.348432)scale(0.1 -0.1)">
       <use xlink:href="#DejaVuSans-52"/>
       <use x="63.623047" xlink:href="#DejaVuSans-48"/>
       <use x="127.246094" xlink:href="#DejaVuSans-48"/>
      </g>
     </g>
    </g>
    <g id="ytick_6">
     <g id="line2d_12">
      <g>
       <use style="stroke:#000000;stroke-width:0.8;" x="57.6" xlink:href="#mc2c0cacbb4" y="139.142166"/>
      </g>
     </g>
     <g id="text_13">
      <!-- 500 -->
      <defs>
       <path d="M 10.796875 72.90625 
L 49.515625 72.90625 
L 49.515625 64.59375 
L 19.828125 64.59375 
L 19.828125 46.734375 
Q 21.96875 47.46875 24.109375 47.828125 
Q 26.265625 48.1875 28.421875 48.1875 
Q 40.625 48.1875 47.75 41.5 
Q 54.890625 34.8125 54.890625 23.390625 
Q 54.890625 11.625 47.5625 5.09375 
Q 40.234375 -1.421875 26.90625 -1.421875 
Q 22.3125 -1.421875 17.546875 -0.640625 
Q 12.796875 0.140625 7.71875 1.703125 
L 7.71875 11.625 
Q 12.109375 9.234375 16.796875 8.0625 
Q 21.484375 6.890625 26.703125 6.890625 
Q 35.15625 6.890625 40.078125 11.328125 
Q 45.015625 15.765625 45.015625 23.390625 
Q 45.015625 31 40.078125 35.4375 
Q 35.15625 39.890625 26.703125 39.890625 
Q 22.75 39.890625 18.8125 39.015625 
Q 14.890625 38.140625 10.796875 36.28125 
z
" id="DejaVuSans-53"/>
      </defs>
      <g transform="translate(31.5125 142.941385)scale(0.1 -0.1)">
       <use xlink:href="#DejaVuSans-53"/>
       <use x="63.623047" xlink:href="#DejaVuSans-48"/>
       <use x="127.246094" xlink:href="#DejaVuSans-48"/>
      </g>
     </g>
    </g>
    <g id="ytick_7">
     <g id="line2d_13">
      <g>
       <use style="stroke:#000000;stroke-width:0.8;" x="57.6" xlink:href="#mc2c0cacbb4" y="108.735119"/>
      </g>
     </g>
     <g id="text_14">
      <!-- 600 -->
      <g transform="translate(31.5125 112.534338)scale(0.1 -0.1)">
       <use xlink:href="#DejaVuSans-54"/>
       <use x="63.623047" xlink:href="#DejaVuSans-48"/>
       <use x="127.246094" xlink:href="#DejaVuSans-48"/>
      </g>
     </g>
    </g>
    <g id="ytick_8">
     <g id="line2d_14">
      <g>
       <use style="stroke:#000000;stroke-width:0.8;" x="57.6" xlink:href="#mc2c0cacbb4" y="78.328073"/>
      </g>
     </g>
     <g id="text_15">
      <!-- 700 -->
      <defs>
       <path d="M 8.203125 72.90625 
L 55.078125 72.90625 
L 55.078125 68.703125 
L 28.609375 0 
L 18.3125 0 
L 43.21875 64.59375 
L 8.203125 64.59375 
z
" id="DejaVuSans-55"/>
      </defs>
      <g transform="translate(31.5125 82.127291)scale(0.1 -0.1)">
       <use xlink:href="#DejaVuSans-55"/>
       <use x="63.623047" xlink:href="#DejaVuSans-48"/>
       <use x="127.246094" xlink:href="#DejaVuSans-48"/>
      </g>
     </g>
    </g>
    <g id="ytick_9">
     <g id="line2d_15">
      <g>
       <use style="stroke:#000000;stroke-width:0.8;" x="57.6" xlink:href="#mc2c0cacbb4" y="47.921026"/>
      </g>
     </g>
     <g id="text_16">
      <!-- 800 -->
      <g transform="translate(31.5125 51.720245)scale(0.1 -0.1)">
       <use xlink:href="#DejaVuSans-56"/>
       <use x="63.623047" xlink:href="#DejaVuSans-48"/>
       <use x="127.246094" xlink:href="#DejaVuSans-48"/>
      </g>
     </g>
    </g>
    <g id="text_17">
     <!-- y values -->
     <defs>
      <path d="M 32.171875 -5.078125 
Q 28.375 -14.84375 24.75 -17.8125 
Q 21.140625 -20.796875 15.09375 -20.796875 
L 7.90625 -20.796875 
L 7.90625 -13.28125 
L 13.1875 -13.28125 
Q 16.890625 -13.28125 18.9375 -11.515625 
Q 21 -9.765625 23.484375 -3.21875 
L 25.09375 0.875 
L 2.984375 54.6875 
L 12.5 54.6875 
L 29.59375 11.921875 
L 46.6875 54.6875 
L 56.203125 54.6875 
z
" id="DejaVuSans-121"/>
     </defs>
     <g transform="translate(25.432812 195.338937)rotate(-90)scale(0.1 -0.1)">
      <use xlink:href="#DejaVuSans-121"/>
      <use x="59.179688" xlink:href="#DejaVuSans-32"/>
      <use x="90.966797" xlink:href="#DejaVuSans-118"/>
      <use x="150.146484" xlink:href="#DejaVuSans-97"/>
      <use x="211.425781" xlink:href="#DejaVuSans-108"/>
      <use x="239.208984" xlink:href="#DejaVuSans-117"/>
      <use x="302.587891" xlink:href="#DejaVuSans-101"/>
      <use x="364.111328" xlink:href="#DejaVuSans-115"/>
     </g>
    </g>
   </g>
   <g id="line2d_16">
    <defs>
     <path d="M 0 1 
C 0.265203 1 0.51958 0.894634 0.707107 0.707107 
C 0.894634 0.51958 1 0.265203 1 0 
C 1 -0.265203 0.894634 -0.51958 0.707107 -0.707107 
C 0.51958 -0.894634 0.265203 -1 0 -1 
C -0.265203 -1 -0.51958 -0.894634 -0.707107 -0.707107 
C -0.894634 -0.51958 -1 -0.265203 -1 0 
C -1 0.265203 -0.894634 0.51958 -0.707107 0.707107 
C -0.51958 0.894634 -0.265203 1 0 1 
z
" id="m320db864d7" style="stroke:#ff0000;"/>
    </defs>
    <g clip-path="url(#pa46816fc31)">
     <use style="fill:#ff0000;stroke:#ff0000;" x="73.832727" xlink:href="#m320db864d7" y="133.099911"/>
     <use style="fill:#ff0000;stroke:#ff0000;" x="75.295135" xlink:href="#m320db864d7" y="128.272915"/>
     <use style="fill:#ff0000;stroke:#ff0000;" x="76.757543" xlink:href="#m320db864d7" y="111.055063"/>
     <use style="fill:#ff0000;stroke:#ff0000;" x="78.219951" xlink:href="#m320db864d7" y="161.074701"/>
     <use style="fill:#ff0000;stroke:#ff0000;" x="79.682359" xlink:href="#m320db864d7" y="124.559637"/>
     <use style="fill:#ff0000;stroke:#ff0000;" x="81.144767" xlink:href="#m320db864d7" y="152.937302"/>
     <use style="fill:#ff0000;stroke:#ff0000;" x="82.607174" xlink:href="#m320db864d7" y="164.585129"/>
     <use style="fill:#ff0000;stroke:#ff0000;" x="84.069582" xlink:href="#m320db864d7" y="145.540421"/>
     <use style="fill:#ff0000;stroke:#ff0000;" x="85.53199" xlink:href="#m320db864d7" y="157.044042"/>
     <use style="fill:#ff0000;stroke:#ff0000;" x="86.994398" xlink:href="#m320db864d7" y="163.297757"/>
     <use style="fill:#ff0000;stroke:#ff0000;" x="88.456806" xlink:href="#m320db864d7" y="160.704412"/>
     <use style="fill:#ff0000;stroke:#ff0000;" x="89.919214" xlink:href="#m320db864d7" y="162.577094"/>
     <use style="fill:#ff0000;stroke:#ff0000;" x="91.381622" xlink:href="#m320db864d7" y="163.21749"/>
     <use style="fill:#ff0000;stroke:#ff0000;" x="92.844029" xlink:href="#m320db864d7" y="150.151592"/>
     <use style="fill:#ff0000;stroke:#ff0000;" x="94.306437" xlink:href="#m320db864d7" y="176.656683"/>
     <use style="fill:#ff0000;stroke:#ff0000;" x="95.768845" xlink:href="#m320db864d7" y="202.47019"/>
     <use style="fill:#ff0000;stroke:#ff0000;" x="97.231253" xlink:href="#m320db864d7" y="169.645512"/>
     <use style="fill:#ff0000;stroke:#ff0000;" x="98.693661" xlink:href="#m320db864d7" y="177.886171"/>
     <use style="fill:#ff0000;stroke:#ff0000;" x="100.156069" xlink:href="#m320db864d7" y="166.113321"/>
     <use style="fill:#ff0000;stroke:#ff0000;" x="101.618477" xlink:href="#m320db864d7" y="189.527928"/>
     <use style="fill:#ff0000;stroke:#ff0000;" x="103.080885" xlink:href="#m320db864d7" y="205.226017"/>
     <use style="fill:#ff0000;stroke:#ff0000;" x="104.543292" xlink:href="#m320db864d7" y="194.843646"/>
     <use style="fill:#ff0000;stroke:#ff0000;" x="106.0057" xlink:href="#m320db864d7" y="192.058771"/>
     <use style="fill:#ff0000;stroke:#ff0000;" x="107.468108" xlink:href="#m320db864d7" y="176.823344"/>
     <use style="fill:#ff0000;stroke:#ff0000;" x="108.930516" xlink:href="#m320db864d7" y="192.341195"/>
     <use style="fill:#ff0000;stroke:#ff0000;" x="110.392924" xlink:href="#m320db864d7" y="221.911451"/>
     <use style="fill:#ff0000;stroke:#ff0000;" x="111.855332" xlink:href="#m320db864d7" y="213.064477"/>
     <use style="fill:#ff0000;stroke:#ff0000;" x="113.31774" xlink:href="#m320db864d7" y="201.471864"/>
     <use style="fill:#ff0000;stroke:#ff0000;" x="114.780147" xlink:href="#m320db864d7" y="206.288499"/>
     <use style="fill:#ff0000;stroke:#ff0000;" x="116.242555" xlink:href="#m320db864d7" y="205.960525"/>
     <use style="fill:#ff0000;stroke:#ff0000;" x="117.704963" xlink:href="#m320db864d7" y="204.641021"/>
     <use style="fill:#ff0000;stroke:#ff0000;" x="119.167371" xlink:href="#m320db864d7" y="220.098893"/>
     <use style="fill:#ff0000;stroke:#ff0000;" x="120.629779" xlink:href="#m320db864d7" y="209.911431"/>
     <use style="fill:#ff0000;stroke:#ff0000;" x="122.092187" xlink:href="#m320db864d7" y="207.171571"/>
     <use style="fill:#ff0000;stroke:#ff0000;" x="123.554595" xlink:href="#m320db864d7" y="208.656815"/>
     <use style="fill:#ff0000;stroke:#ff0000;" x="125.017002" xlink:href="#m320db864d7" y="242.472112"/>
     <use style="fill:#ff0000;stroke:#ff0000;" x="126.47941" xlink:href="#m320db864d7" y="220.714589"/>
     <use style="fill:#ff0000;stroke:#ff0000;" x="127.941818" xlink:href="#m320db864d7" y="233.720958"/>
     <use style="fill:#ff0000;stroke:#ff0000;" x="129.404226" xlink:href="#m320db864d7" y="231.480709"/>
     <use style="fill:#ff0000;stroke:#ff0000;" x="130.866634" xlink:href="#m320db864d7" y="244.440214"/>
     <use style="fill:#ff0000;stroke:#ff0000;" x="132.329042" xlink:href="#m320db864d7" y="216.723236"/>
     <use style="fill:#ff0000;stroke:#ff0000;" x="133.79145" xlink:href="#m320db864d7" y="236.882168"/>
     <use style="fill:#ff0000;stroke:#ff0000;" x="135.253857" xlink:href="#m320db864d7" y="237.120329"/>
     <use style="fill:#ff0000;stroke:#ff0000;" x="136.716265" xlink:href="#m320db864d7" y="247.596192"/>
     <use style="fill:#ff0000;stroke:#ff0000;" x="138.178673" xlink:href="#m320db864d7" y="242.550041"/>
     <use style="fill:#ff0000;stroke:#ff0000;" x="139.641081" xlink:href="#m320db864d7" y="247.134035"/>
     <use style="fill:#ff0000;stroke:#ff0000;" x="141.103489" xlink:href="#m320db864d7" y="242.987766"/>
     <use style="fill:#ff0000;stroke:#ff0000;" x="142.565897" xlink:href="#m320db864d7" y="249.209706"/>
     <use style="fill:#ff0000;stroke:#ff0000;" x="144.028305" xlink:href="#m320db864d7" y="239.607634"/>
     <use style="fill:#ff0000;stroke:#ff0000;" x="145.490713" xlink:href="#m320db864d7" y="240.864354"/>
     <use style="fill:#ff0000;stroke:#ff0000;" x="146.95312" xlink:href="#m320db864d7" y="248.964849"/>
     <use style="fill:#ff0000;stroke:#ff0000;" x="148.415528" xlink:href="#m320db864d7" y="252.134284"/>
     <use style="fill:#ff0000;stroke:#ff0000;" x="149.877936" xlink:href="#m320db864d7" y="261.074862"/>
     <use style="fill:#ff0000;stroke:#ff0000;" x="151.340344" xlink:href="#m320db864d7" y="252.895379"/>
     <use style="fill:#ff0000;stroke:#ff0000;" x="152.802752" xlink:href="#m320db864d7" y="256.19025"/>
     <use style="fill:#ff0000;stroke:#ff0000;" x="154.26516" xlink:href="#m320db864d7" y="266.039114"/>
     <use style="fill:#ff0000;stroke:#ff0000;" x="155.727568" xlink:href="#m320db864d7" y="258.383885"/>
     <use style="fill:#ff0000;stroke:#ff0000;" x="157.189975" xlink:href="#m320db864d7" y="263.823611"/>
     <use style="fill:#ff0000;stroke:#ff0000;" x="158.652383" xlink:href="#m320db864d7" y="265.935241"/>
     <use style="fill:#ff0000;stroke:#ff0000;" x="160.114791" xlink:href="#m320db864d7" y="266.8963"/>
     <use style="fill:#ff0000;stroke:#ff0000;" x="161.577199" xlink:href="#m320db864d7" y="265.119028"/>
     <use style="fill:#ff0000;stroke:#ff0000;" x="163.039607" xlink:href="#m320db864d7" y="259.593013"/>
     <use style="fill:#ff0000;stroke:#ff0000;" x="164.502015" xlink:href="#m320db864d7" y="273.51643"/>
     <use style="fill:#ff0000;stroke:#ff0000;" x="165.964423" xlink:href="#m320db864d7" y="259.894798"/>
     <use style="fill:#ff0000;stroke:#ff0000;" x="167.42683" xlink:href="#m320db864d7" y="267.294137"/>
     <use style="fill:#ff0000;stroke:#ff0000;" x="168.889238" xlink:href="#m320db864d7" y="276.887189"/>
     <use style="fill:#ff0000;stroke:#ff0000;" x="170.351646" xlink:href="#m320db864d7" y="268.003739"/>
     <use style="fill:#ff0000;stroke:#ff0000;" x="171.814054" xlink:href="#m320db864d7" y="278.545735"/>
     <use style="fill:#ff0000;stroke:#ff0000;" x="173.276462" xlink:href="#m320db864d7" y="273.715454"/>
     <use style="fill:#ff0000;stroke:#ff0000;" x="174.73887" xlink:href="#m320db864d7" y="272.042422"/>
     <use style="fill:#ff0000;stroke:#ff0000;" x="176.201278" xlink:href="#m320db864d7" y="267.14932"/>
     <use style="fill:#ff0000;stroke:#ff0000;" x="177.663686" xlink:href="#m320db864d7" y="264.527787"/>
     <use style="fill:#ff0000;stroke:#ff0000;" x="179.126093" xlink:href="#m320db864d7" y="276.189588"/>
     <use style="fill:#ff0000;stroke:#ff0000;" x="180.588501" xlink:href="#m320db864d7" y="271.816397"/>
     <use style="fill:#ff0000;stroke:#ff0000;" x="182.050909" xlink:href="#m320db864d7" y="271.32773"/>
     <use style="fill:#ff0000;stroke:#ff0000;" x="183.513317" xlink:href="#m320db864d7" y="278.644292"/>
     <use style="fill:#ff0000;stroke:#ff0000;" x="184.975725" xlink:href="#m320db864d7" y="276.658349"/>
     <use style="fill:#ff0000;stroke:#ff0000;" x="186.438133" xlink:href="#m320db864d7" y="279.912908"/>
     <use style="fill:#ff0000;stroke:#ff0000;" x="187.900541" xlink:href="#m320db864d7" y="277.987653"/>
     <use style="fill:#ff0000;stroke:#ff0000;" x="189.362948" xlink:href="#m320db864d7" y="282.277988"/>
     <use style="fill:#ff0000;stroke:#ff0000;" x="190.825356" xlink:href="#m320db864d7" y="280.280348"/>
     <use style="fill:#ff0000;stroke:#ff0000;" x="192.287764" xlink:href="#m320db864d7" y="278.18311"/>
     <use style="fill:#ff0000;stroke:#ff0000;" x="193.750172" xlink:href="#m320db864d7" y="277.389974"/>
     <use style="fill:#ff0000;stroke:#ff0000;" x="195.21258" xlink:href="#m320db864d7" y="281.08226"/>
     <use style="fill:#ff0000;stroke:#ff0000;" x="196.674988" xlink:href="#m320db864d7" y="284.424574"/>
     <use style="fill:#ff0000;stroke:#ff0000;" x="198.137396" xlink:href="#m320db864d7" y="277.255975"/>
     <use style="fill:#ff0000;stroke:#ff0000;" x="199.599803" xlink:href="#m320db864d7" y="276.394952"/>
     <use style="fill:#ff0000;stroke:#ff0000;" x="201.062211" xlink:href="#m320db864d7" y="284.659515"/>
     <use style="fill:#ff0000;stroke:#ff0000;" x="202.524619" xlink:href="#m320db864d7" y="289.619247"/>
     <use style="fill:#ff0000;stroke:#ff0000;" x="203.987027" xlink:href="#m320db864d7" y="285.455797"/>
     <use style="fill:#ff0000;stroke:#ff0000;" x="205.449435" xlink:href="#m320db864d7" y="292.129307"/>
     <use style="fill:#ff0000;stroke:#ff0000;" x="206.911843" xlink:href="#m320db864d7" y="284.254727"/>
     <use style="fill:#ff0000;stroke:#ff0000;" x="208.374251" xlink:href="#m320db864d7" y="285.621945"/>
     <use style="fill:#ff0000;stroke:#ff0000;" x="209.836658" xlink:href="#m320db864d7" y="290.231454"/>
     <use style="fill:#ff0000;stroke:#ff0000;" x="211.299066" xlink:href="#m320db864d7" y="287.954723"/>
     <use style="fill:#ff0000;stroke:#ff0000;" x="212.761474" xlink:href="#m320db864d7" y="292.054801"/>
     <use style="fill:#ff0000;stroke:#ff0000;" x="214.223882" xlink:href="#m320db864d7" y="284.102691"/>
     <use style="fill:#ff0000;stroke:#ff0000;" x="215.68629" xlink:href="#m320db864d7" y="293.417112"/>
     <use style="fill:#ff0000;stroke:#ff0000;" x="217.148698" xlink:href="#m320db864d7" y="285.234655"/>
     <use style="fill:#ff0000;stroke:#ff0000;" x="218.611106" xlink:href="#m320db864d7" y="290.833285"/>
     <use style="fill:#ff0000;stroke:#ff0000;" x="220.073514" xlink:href="#m320db864d7" y="295.328853"/>
     <use style="fill:#ff0000;stroke:#ff0000;" x="221.535921" xlink:href="#m320db864d7" y="295.488"/>
     <use style="fill:#ff0000;stroke:#ff0000;" x="222.998329" xlink:href="#m320db864d7" y="293.936552"/>
     <use style="fill:#ff0000;stroke:#ff0000;" x="224.460737" xlink:href="#m320db864d7" y="283.684342"/>
     <use style="fill:#ff0000;stroke:#ff0000;" x="225.923145" xlink:href="#m320db864d7" y="294.14744"/>
     <use style="fill:#ff0000;stroke:#ff0000;" x="227.385553" xlink:href="#m320db864d7" y="285.105643"/>
     <use style="fill:#ff0000;stroke:#ff0000;" x="228.847961" xlink:href="#m320db864d7" y="289.395815"/>
     <use style="fill:#ff0000;stroke:#ff0000;" x="230.310369" xlink:href="#m320db864d7" y="288.630506"/>
     <use style="fill:#ff0000;stroke:#ff0000;" x="231.772776" xlink:href="#m320db864d7" y="289.975105"/>
     <use style="fill:#ff0000;stroke:#ff0000;" x="233.235184" xlink:href="#m320db864d7" y="284.720203"/>
     <use style="fill:#ff0000;stroke:#ff0000;" x="234.697592" xlink:href="#m320db864d7" y="290.53631"/>
     <use style="fill:#ff0000;stroke:#ff0000;" x="236.16" xlink:href="#m320db864d7" y="288.765918"/>
     <use style="fill:#ff0000;stroke:#ff0000;" x="237.622408" xlink:href="#m320db864d7" y="283.012721"/>
     <use style="fill:#ff0000;stroke:#ff0000;" x="239.084816" xlink:href="#m320db864d7" y="280.376578"/>
     <use style="fill:#ff0000;stroke:#ff0000;" x="240.547224" xlink:href="#m320db864d7" y="279.163515"/>
     <use style="fill:#ff0000;stroke:#ff0000;" x="242.009631" xlink:href="#m320db864d7" y="286.997497"/>
     <use style="fill:#ff0000;stroke:#ff0000;" x="243.472039" xlink:href="#m320db864d7" y="289.600036"/>
     <use style="fill:#ff0000;stroke:#ff0000;" x="244.934447" xlink:href="#m320db864d7" y="285.220688"/>
     <use style="fill:#ff0000;stroke:#ff0000;" x="246.396855" xlink:href="#m320db864d7" y="288.155926"/>
     <use style="fill:#ff0000;stroke:#ff0000;" x="247.859263" xlink:href="#m320db864d7" y="275.889958"/>
     <use style="fill:#ff0000;stroke:#ff0000;" x="249.321671" xlink:href="#m320db864d7" y="280.606981"/>
     <use style="fill:#ff0000;stroke:#ff0000;" x="250.784079" xlink:href="#m320db864d7" y="288.391427"/>
     <use style="fill:#ff0000;stroke:#ff0000;" x="252.246486" xlink:href="#m320db864d7" y="279.399198"/>
     <use style="fill:#ff0000;stroke:#ff0000;" x="253.708894" xlink:href="#m320db864d7" y="275.536454"/>
     <use style="fill:#ff0000;stroke:#ff0000;" x="255.171302" xlink:href="#m320db864d7" y="277.375645"/>
     <use style="fill:#ff0000;stroke:#ff0000;" x="256.63371" xlink:href="#m320db864d7" y="280.24353"/>
     <use style="fill:#ff0000;stroke:#ff0000;" x="258.096118" xlink:href="#m320db864d7" y="281.751677"/>
     <use style="fill:#ff0000;stroke:#ff0000;" x="259.558526" xlink:href="#m320db864d7" y="283.666781"/>
     <use style="fill:#ff0000;stroke:#ff0000;" x="261.020934" xlink:href="#m320db864d7" y="277.582973"/>
     <use style="fill:#ff0000;stroke:#ff0000;" x="262.483342" xlink:href="#m320db864d7" y="281.247505"/>
     <use style="fill:#ff0000;stroke:#ff0000;" x="263.945749" xlink:href="#m320db864d7" y="282.911747"/>
     <use style="fill:#ff0000;stroke:#ff0000;" x="265.408157" xlink:href="#m320db864d7" y="270.949874"/>
     <use style="fill:#ff0000;stroke:#ff0000;" x="266.870565" xlink:href="#m320db864d7" y="271.140934"/>
     <use style="fill:#ff0000;stroke:#ff0000;" x="268.332973" xlink:href="#m320db864d7" y="274.563081"/>
     <use style="fill:#ff0000;stroke:#ff0000;" x="269.795381" xlink:href="#m320db864d7" y="277.115093"/>
     <use style="fill:#ff0000;stroke:#ff0000;" x="271.257789" xlink:href="#m320db864d7" y="279.796829"/>
     <use style="fill:#ff0000;stroke:#ff0000;" x="272.720197" xlink:href="#m320db864d7" y="265.714046"/>
     <use style="fill:#ff0000;stroke:#ff0000;" x="274.182604" xlink:href="#m320db864d7" y="263.657221"/>
     <use style="fill:#ff0000;stroke:#ff0000;" x="275.645012" xlink:href="#m320db864d7" y="272.212526"/>
     <use style="fill:#ff0000;stroke:#ff0000;" x="277.10742" xlink:href="#m320db864d7" y="272.416571"/>
     <use style="fill:#ff0000;stroke:#ff0000;" x="278.569828" xlink:href="#m320db864d7" y="257.736087"/>
     <use style="fill:#ff0000;stroke:#ff0000;" x="280.032236" xlink:href="#m320db864d7" y="274.545939"/>
     <use style="fill:#ff0000;stroke:#ff0000;" x="281.494644" xlink:href="#m320db864d7" y="267.380619"/>
     <use style="fill:#ff0000;stroke:#ff0000;" x="282.957052" xlink:href="#m320db864d7" y="259.598956"/>
     <use style="fill:#ff0000;stroke:#ff0000;" x="284.419459" xlink:href="#m320db864d7" y="267.984645"/>
     <use style="fill:#ff0000;stroke:#ff0000;" x="285.881867" xlink:href="#m320db864d7" y="261.279047"/>
     <use style="fill:#ff0000;stroke:#ff0000;" x="287.344275" xlink:href="#m320db864d7" y="262.369246"/>
     <use style="fill:#ff0000;stroke:#ff0000;" x="288.806683" xlink:href="#m320db864d7" y="264.750916"/>
     <use style="fill:#ff0000;stroke:#ff0000;" x="290.269091" xlink:href="#m320db864d7" y="255.95308"/>
     <use style="fill:#ff0000;stroke:#ff0000;" x="291.731499" xlink:href="#m320db864d7" y="260.35332"/>
     <use style="fill:#ff0000;stroke:#ff0000;" x="293.193907" xlink:href="#m320db864d7" y="250.247321"/>
     <use style="fill:#ff0000;stroke:#ff0000;" x="294.656314" xlink:href="#m320db864d7" y="254.465894"/>
     <use style="fill:#ff0000;stroke:#ff0000;" x="296.118722" xlink:href="#m320db864d7" y="243.874925"/>
     <use style="fill:#ff0000;stroke:#ff0000;" x="297.58113" xlink:href="#m320db864d7" y="248.928209"/>
     <use style="fill:#ff0000;stroke:#ff0000;" x="299.043538" xlink:href="#m320db864d7" y="256.679485"/>
     <use style="fill:#ff0000;stroke:#ff0000;" x="300.505946" xlink:href="#m320db864d7" y="246.806319"/>
     <use style="fill:#ff0000;stroke:#ff0000;" x="301.968354" xlink:href="#m320db864d7" y="243.462099"/>
     <use style="fill:#ff0000;stroke:#ff0000;" x="303.430762" xlink:href="#m320db864d7" y="245.595056"/>
     <use style="fill:#ff0000;stroke:#ff0000;" x="304.89317" xlink:href="#m320db864d7" y="233.686512"/>
     <use style="fill:#ff0000;stroke:#ff0000;" x="306.355577" xlink:href="#m320db864d7" y="224.166057"/>
     <use style="fill:#ff0000;stroke:#ff0000;" x="307.817985" xlink:href="#m320db864d7" y="237.283619"/>
     <use style="fill:#ff0000;stroke:#ff0000;" x="309.280393" xlink:href="#m320db864d7" y="219.957872"/>
     <use style="fill:#ff0000;stroke:#ff0000;" x="310.742801" xlink:href="#m320db864d7" y="226.170963"/>
     <use style="fill:#ff0000;stroke:#ff0000;" x="312.205209" xlink:href="#m320db864d7" y="232.779872"/>
     <use style="fill:#ff0000;stroke:#ff0000;" x="313.667617" xlink:href="#m320db864d7" y="226.743623"/>
     <use style="fill:#ff0000;stroke:#ff0000;" x="315.130025" xlink:href="#m320db864d7" y="237.975817"/>
     <use style="fill:#ff0000;stroke:#ff0000;" x="316.592432" xlink:href="#m320db864d7" y="228.299424"/>
     <use style="fill:#ff0000;stroke:#ff0000;" x="318.05484" xlink:href="#m320db864d7" y="220.006677"/>
     <use style="fill:#ff0000;stroke:#ff0000;" x="319.517248" xlink:href="#m320db864d7" y="213.071523"/>
     <use style="fill:#ff0000;stroke:#ff0000;" x="320.979656" xlink:href="#m320db864d7" y="231.574197"/>
     <use style="fill:#ff0000;stroke:#ff0000;" x="322.442064" xlink:href="#m320db864d7" y="214.618445"/>
     <use style="fill:#ff0000;stroke:#ff0000;" x="323.904472" xlink:href="#m320db864d7" y="217.704267"/>
     <use style="fill:#ff0000;stroke:#ff0000;" x="325.36688" xlink:href="#m320db864d7" y="197.744765"/>
     <use style="fill:#ff0000;stroke:#ff0000;" x="326.829287" xlink:href="#m320db864d7" y="199.942648"/>
     <use style="fill:#ff0000;stroke:#ff0000;" x="328.291695" xlink:href="#m320db864d7" y="208.067894"/>
     <use style="fill:#ff0000;stroke:#ff0000;" x="329.754103" xlink:href="#m320db864d7" y="210.075801"/>
     <use style="fill:#ff0000;stroke:#ff0000;" x="331.216511" xlink:href="#m320db864d7" y="209.154514"/>
     <use style="fill:#ff0000;stroke:#ff0000;" x="332.678919" xlink:href="#m320db864d7" y="204.428517"/>
     <use style="fill:#ff0000;stroke:#ff0000;" x="334.141327" xlink:href="#m320db864d7" y="185.456742"/>
     <use style="fill:#ff0000;stroke:#ff0000;" x="335.603735" xlink:href="#m320db864d7" y="216.747785"/>
     <use style="fill:#ff0000;stroke:#ff0000;" x="337.066143" xlink:href="#m320db864d7" y="193.011882"/>
     <use style="fill:#ff0000;stroke:#ff0000;" x="338.52855" xlink:href="#m320db864d7" y="197.363578"/>
     <use style="fill:#ff0000;stroke:#ff0000;" x="339.990958" xlink:href="#m320db864d7" y="171.02559"/>
     <use style="fill:#ff0000;stroke:#ff0000;" x="341.453366" xlink:href="#m320db864d7" y="204.000739"/>
     <use style="fill:#ff0000;stroke:#ff0000;" x="342.915774" xlink:href="#m320db864d7" y="175.84045"/>
     <use style="fill:#ff0000;stroke:#ff0000;" x="344.378182" xlink:href="#m320db864d7" y="165.60449"/>
     <use style="fill:#ff0000;stroke:#ff0000;" x="345.84059" xlink:href="#m320db864d7" y="200.284688"/>
     <use style="fill:#ff0000;stroke:#ff0000;" x="347.302998" xlink:href="#m320db864d7" y="187.702614"/>
     <use style="fill:#ff0000;stroke:#ff0000;" x="348.765405" xlink:href="#m320db864d7" y="157.177327"/>
     <use style="fill:#ff0000;stroke:#ff0000;" x="350.227813" xlink:href="#m320db864d7" y="172.616971"/>
     <use style="fill:#ff0000;stroke:#ff0000;" x="351.690221" xlink:href="#m320db864d7" y="159.015642"/>
     <use style="fill:#ff0000;stroke:#ff0000;" x="353.152629" xlink:href="#m320db864d7" y="163.06369"/>
     <use style="fill:#ff0000;stroke:#ff0000;" x="354.615037" xlink:href="#m320db864d7" y="174.964799"/>
     <use style="fill:#ff0000;stroke:#ff0000;" x="356.077445" xlink:href="#m320db864d7" y="179.034859"/>
     <use style="fill:#ff0000;stroke:#ff0000;" x="357.539853" xlink:href="#m320db864d7" y="165.921372"/>
     <use style="fill:#ff0000;stroke:#ff0000;" x="359.00226" xlink:href="#m320db864d7" y="174.891865"/>
     <use style="fill:#ff0000;stroke:#ff0000;" x="360.464668" xlink:href="#m320db864d7" y="175.336721"/>
     <use style="fill:#ff0000;stroke:#ff0000;" x="361.927076" xlink:href="#m320db864d7" y="157.839056"/>
     <use style="fill:#ff0000;stroke:#ff0000;" x="363.389484" xlink:href="#m320db864d7" y="152.691883"/>
     <use style="fill:#ff0000;stroke:#ff0000;" x="364.851892" xlink:href="#m320db864d7" y="133.349694"/>
     <use style="fill:#ff0000;stroke:#ff0000;" x="366.3143" xlink:href="#m320db864d7" y="166.519355"/>
     <use style="fill:#ff0000;stroke:#ff0000;" x="367.776708" xlink:href="#m320db864d7" y="144.138708"/>
     <use style="fill:#ff0000;stroke:#ff0000;" x="369.239115" xlink:href="#m320db864d7" y="159.551135"/>
     <use style="fill:#ff0000;stroke:#ff0000;" x="370.701523" xlink:href="#m320db864d7" y="122.129733"/>
     <use style="fill:#ff0000;stroke:#ff0000;" x="372.163931" xlink:href="#m320db864d7" y="102.185175"/>
     <use style="fill:#ff0000;stroke:#ff0000;" x="373.626339" xlink:href="#m320db864d7" y="94.54155"/>
     <use style="fill:#ff0000;stroke:#ff0000;" x="375.088747" xlink:href="#m320db864d7" y="105.658039"/>
     <use style="fill:#ff0000;stroke:#ff0000;" x="376.551155" xlink:href="#m320db864d7" y="98.838388"/>
     <use style="fill:#ff0000;stroke:#ff0000;" x="378.013563" xlink:href="#m320db864d7" y="105.356833"/>
     <use style="fill:#ff0000;stroke:#ff0000;" x="379.475971" xlink:href="#m320db864d7" y="97.11541"/>
     <use style="fill:#ff0000;stroke:#ff0000;" x="380.938378" xlink:href="#m320db864d7" y="95.590356"/>
     <use style="fill:#ff0000;stroke:#ff0000;" x="382.400786" xlink:href="#m320db864d7" y="128.411044"/>
     <use style="fill:#ff0000;stroke:#ff0000;" x="383.863194" xlink:href="#m320db864d7" y="109.254185"/>
     <use style="fill:#ff0000;stroke:#ff0000;" x="385.325602" xlink:href="#m320db864d7" y="69.676981"/>
     <use style="fill:#ff0000;stroke:#ff0000;" x="386.78801" xlink:href="#m320db864d7" y="125.911123"/>
     <use style="fill:#ff0000;stroke:#ff0000;" x="388.250418" xlink:href="#m320db864d7" y="111.667916"/>
     <use style="fill:#ff0000;stroke:#ff0000;" x="389.712826" xlink:href="#m320db864d7" y="126.213313"/>
     <use style="fill:#ff0000;stroke:#ff0000;" x="391.175233" xlink:href="#m320db864d7" y="92.209934"/>
     <use style="fill:#ff0000;stroke:#ff0000;" x="392.637641" xlink:href="#m320db864d7" y="61.918469"/>
     <use style="fill:#ff0000;stroke:#ff0000;" x="394.100049" xlink:href="#m320db864d7" y="100.958481"/>
     <use style="fill:#ff0000;stroke:#ff0000;" x="395.562457" xlink:href="#m320db864d7" y="70.531876"/>
     <use style="fill:#ff0000;stroke:#ff0000;" x="397.024865" xlink:href="#m320db864d7" y="53.568"/>
     <use style="fill:#ff0000;stroke:#ff0000;" x="398.487273" xlink:href="#m320db864d7" y="70.402937"/>
    </g>
   </g>
   <g id="line2d_17">
    <path clip-path="url(#pa46816fc31)" d="M 73.832727 132.482982 
L 79.682359 144.58046 
L 85.53199 156.19156 
L 91.381622 167.316282 
L 97.231253 177.954626 
L 103.080885 188.106592 
L 108.930516 197.772179 
L 114.780147 206.951388 
L 120.629779 215.644219 
L 126.47941 223.850672 
L 132.329042 231.570747 
L 136.716265 237.041618 
L 141.103489 242.2389 
L 145.490713 247.162595 
L 149.877936 251.812702 
L 154.26516 256.189222 
L 158.652383 260.292154 
L 163.039607 264.121498 
L 167.42683 267.677254 
L 171.814054 270.959423 
L 176.201278 273.968004 
L 180.588501 276.702997 
L 184.975725 279.164402 
L 189.362948 281.35222 
L 193.750172 283.26645 
L 198.137396 284.907092 
L 202.524619 286.274147 
L 206.911843 287.367613 
L 211.299066 288.187492 
L 215.68629 288.733784 
L 220.073514 289.006487 
L 224.460737 289.005603 
L 228.847961 288.731132 
L 233.235184 288.183072 
L 237.622408 287.361425 
L 242.009631 286.26619 
L 246.396855 284.897367 
L 250.784079 283.254957 
L 255.171302 281.338958 
L 259.558526 279.149373 
L 263.945749 276.686199 
L 268.332973 273.949438 
L 272.720197 270.939089 
L 277.10742 267.655152 
L 281.494644 264.097627 
L 285.881867 260.266515 
L 290.269091 256.161815 
L 294.656314 251.783527 
L 299.043538 247.131652 
L 303.430762 242.206189 
L 307.817985 237.007138 
L 312.205209 231.534499 
L 316.592432 225.788273 
L 322.442064 217.701057 
L 328.291695 209.127463 
L 334.141327 200.067491 
L 339.990958 190.52114 
L 345.84059 180.488411 
L 351.690221 169.969305 
L 357.539853 158.963819 
L 363.389484 147.471956 
L 369.239115 135.493715 
L 375.088747 123.029095 
L 380.938378 110.078098 
L 386.78801 96.640722 
L 392.637641 82.716968 
L 398.487273 68.306835 
L 398.487273 68.306835 
" style="fill:none;stroke:#008000;stroke-linecap:square;stroke-width:1.5;"/>
   </g>
   <g id="patch_3">
    <path d="M 57.6 307.584 
L 57.6 41.472 
" style="fill:none;stroke:#000000;stroke-linecap:square;stroke-linejoin:miter;stroke-width:0.8;"/>
   </g>
   <g id="patch_4">
    <path d="M 414.72 307.584 
L 414.72 41.472 
" style="fill:none;stroke:#000000;stroke-linecap:square;stroke-linejoin:miter;stroke-width:0.8;"/>
   </g>
   <g id="patch_5">
    <path d="M 57.6 307.584 
L 414.72 307.584 
" style="fill:none;stroke:#000000;stroke-linecap:square;stroke-linejoin:miter;stroke-width:0.8;"/>
   </g>
   <g id="patch_6">
    <path d="M 57.6 41.472 
L 414.72 41.472 
" style="fill:none;stroke:#000000;stroke-linecap:square;stroke-linejoin:miter;stroke-width:0.8;"/>
   </g>
   <g id="text_18">
    <!-- FunctionFitting 13 -->
    <defs>
     <path d="M 9.8125 72.90625 
L 51.703125 72.90625 
L 51.703125 64.59375 
L 19.671875 64.59375 
L 19.671875 43.109375 
L 48.578125 43.109375 
L 48.578125 34.8125 
L 19.671875 34.8125 
L 19.671875 0 
L 9.8125 0 
z
" id="DejaVuSans-70"/>
     <path d="M 54.890625 33.015625 
L 54.890625 0 
L 45.90625 0 
L 45.90625 32.71875 
Q 45.90625 40.484375 42.875 44.328125 
Q 39.84375 48.1875 33.796875 48.1875 
Q 26.515625 48.1875 22.3125 43.546875 
Q 18.109375 38.921875 18.109375 30.90625 
L 18.109375 0 
L 9.078125 0 
L 9.078125 54.6875 
L 18.109375 54.6875 
L 18.109375 46.1875 
Q 21.34375 51.125 25.703125 53.5625 
Q 30.078125 56 35.796875 56 
Q 45.21875 56 50.046875 50.171875 
Q 54.890625 44.34375 54.890625 33.015625 
z
" id="DejaVuSans-110"/>
     <path d="M 48.78125 52.59375 
L 48.78125 44.1875 
Q 44.96875 46.296875 41.140625 47.34375 
Q 37.3125 48.390625 33.40625 48.390625 
Q 24.65625 48.390625 19.8125 42.84375 
Q 14.984375 37.3125 14.984375 27.296875 
Q 14.984375 17.28125 19.8125 11.734375 
Q 24.65625 6.203125 33.40625 6.203125 
Q 37.3125 6.203125 41.140625 7.25 
Q 44.96875 8.296875 48.78125 10.40625 
L 48.78125 2.09375 
Q 45.015625 0.34375 40.984375 -0.53125 
Q 36.96875 -1.421875 32.421875 -1.421875 
Q 20.0625 -1.421875 12.78125 6.34375 
Q 5.515625 14.109375 5.515625 27.296875 
Q 5.515625 40.671875 12.859375 48.328125 
Q 20.21875 56 33.015625 56 
Q 37.15625 56 41.109375 55.140625 
Q 45.0625 54.296875 48.78125 52.59375 
z
" id="DejaVuSans-99"/>
     <path d="M 18.3125 70.21875 
L 18.3125 54.6875 
L 36.8125 54.6875 
L 36.8125 47.703125 
L 18.3125 47.703125 
L 18.3125 18.015625 
Q 18.3125 11.328125 20.140625 9.421875 
Q 21.96875 7.515625 27.59375 7.515625 
L 36.8125 7.515625 
L 36.8125 0 
L 27.59375 0 
Q 17.1875 0 13.234375 3.875 
Q 9.28125 7.765625 9.28125 18.015625 
L 9.28125 47.703125 
L 2.6875 47.703125 
L 2.6875 54.6875 
L 9.28125 54.6875 
L 9.28125 70.21875 
z
" id="DejaVuSans-116"/>
     <path d="M 9.421875 54.6875 
L 18.40625 54.6875 
L 18.40625 0 
L 9.421875 0 
z
M 9.421875 75.984375 
L 18.40625 75.984375 
L 18.40625 64.59375 
L 9.421875 64.59375 
z
" id="DejaVuSans-105"/>
     <path d="M 30.609375 48.390625 
Q 23.390625 48.390625 19.1875 42.75 
Q 14.984375 37.109375 14.984375 27.296875 
Q 14.984375 17.484375 19.15625 11.84375 
Q 23.34375 6.203125 30.609375 6.203125 
Q 37.796875 6.203125 41.984375 11.859375 
Q 46.1875 17.53125 46.1875 27.296875 
Q 46.1875 37.015625 41.984375 42.703125 
Q 37.796875 48.390625 30.609375 48.390625 
z
M 30.609375 56 
Q 42.328125 56 49.015625 48.375 
Q 55.71875 40.765625 55.71875 27.296875 
Q 55.71875 13.875 49.015625 6.21875 
Q 42.328125 -1.421875 30.609375 -1.421875 
Q 18.84375 -1.421875 12.171875 6.21875 
Q 5.515625 13.875 5.515625 27.296875 
Q 5.515625 40.765625 12.171875 48.375 
Q 18.84375 56 30.609375 56 
z
" id="DejaVuSans-111"/>
     <path d="M 45.40625 27.984375 
Q 45.40625 37.75 41.375 43.109375 
Q 37.359375 48.484375 30.078125 48.484375 
Q 22.859375 48.484375 18.828125 43.109375 
Q 14.796875 37.75 14.796875 27.984375 
Q 14.796875 18.265625 18.828125 12.890625 
Q 22.859375 7.515625 30.078125 7.515625 
Q 37.359375 7.515625 41.375 12.890625 
Q 45.40625 18.265625 45.40625 27.984375 
z
M 54.390625 6.78125 
Q 54.390625 -7.171875 48.1875 -13.984375 
Q 42 -20.796875 29.203125 -20.796875 
Q 24.46875 -20.796875 20.265625 -20.09375 
Q 16.0625 -19.390625 12.109375 -17.921875 
L 12.109375 -9.1875 
Q 16.0625 -11.328125 19.921875 -12.34375 
Q 23.78125 -13.375 27.78125 -13.375 
Q 36.625 -13.375 41.015625 -8.765625 
Q 45.40625 -4.15625 45.40625 5.171875 
L 45.40625 9.625 
Q 42.625 4.78125 38.28125 2.390625 
Q 33.9375 0 27.875 0 
Q 17.828125 0 11.671875 7.65625 
Q 5.515625 15.328125 5.515625 27.984375 
Q 5.515625 40.671875 11.671875 48.328125 
Q 17.828125 56 27.875 56 
Q 33.9375 56 38.28125 53.609375 
Q 42.625 51.21875 45.40625 46.390625 
L 45.40625 54.6875 
L 54.390625 54.6875 
z
" id="DejaVuSans-103"/>
    </defs>
    <g transform="translate(181.680937 35.472)scale(0.12 -0.12)">
     <use xlink:href="#DejaVuSans-70"/>
     <use x="57.441406" xlink:href="#DejaVuSans-117"/>
     <use x="120.820312" xlink:href="#DejaVuSans-110"/>
     <use x="184.199219" xlink:href="#DejaVuSans-99"/>
     <use x="239.179688" xlink:href="#DejaVuSans-116"/>
     <use x="278.388672" xlink:href="#DejaVuSans-105"/>
     <use x="306.171875" xlink:href="#DejaVuSans-111"/>
     <use x="367.353516" xlink:href="#DejaVuSans-110"/>
     <use x="430.732422" xlink:href="#DejaVuSans-70"/>
     <use x="488.142578" xlink:href="#DejaVuSans-105"/>
     <use x="515.925781" xlink:href="#DejaVuSans-116"/>
     <use x="555.134766" xlink:href="#DejaVuSans-116"/>
     <use x="594.34375" xlink:href="#DejaVuSans-105"/>
     <use x="622.126953" xlink:href="#DejaVuSans-110"/>
     <use x="685.505859" xlink:href="#DejaVuSans-103"/>
     <use x="748.982422" xlink:href="#DejaVuSans-32"/>
     <use x="780.769531" xlink:href="#DejaVuSans-49"/>
     <use x="844.392578" xlink:href="#DejaVuSans-51"/>
    </g>
   </g>
   <g id="legend_1">
    <g id="patch_7">
     <path d="M 64.6 78.82825 
L 172.48125 78.82825 
Q 174.48125 78.82825 174.48125 76.82825 
L 174.48125 48.472 
Q 174.48125 46.472 172.48125 46.472 
L 64.6 46.472 
Q 62.6 46.472 62.6 48.472 
L 62.6 76.82825 
Q 62.6 78.82825 64.6 78.82825 
z
" style="fill:#ffffff;opacity:0.8;stroke:#cccccc;stroke-linejoin:miter;"/>
    </g>
    <g id="line2d_18"/>
    <g id="line2d_19">
     <g>
      <use style="fill:#ff0000;stroke:#ff0000;" x="76.6" xlink:href="#m320db864d7" y="54.570437"/>
     </g>
    </g>
    <g id="text_19">
     <!-- measured data -->
     <defs>
      <path d="M 52 44.1875 
Q 55.375 50.25 60.0625 53.125 
Q 64.75 56 71.09375 56 
Q 79.640625 56 84.28125 50.015625 
Q 88.921875 44.046875 88.921875 33.015625 
L 88.921875 0 
L 79.890625 0 
L 79.890625 32.71875 
Q 79.890625 40.578125 77.09375 44.375 
Q 74.3125 48.1875 68.609375 48.1875 
Q 61.625 48.1875 57.5625 43.546875 
Q 53.515625 38.921875 53.515625 30.90625 
L 53.515625 0 
L 44.484375 0 
L 44.484375 32.71875 
Q 44.484375 40.625 41.703125 44.40625 
Q 38.921875 48.1875 33.109375 48.1875 
Q 26.21875 48.1875 22.15625 43.53125 
Q 18.109375 38.875 18.109375 30.90625 
L 18.109375 0 
L 9.078125 0 
L 9.078125 54.6875 
L 18.109375 54.6875 
L 18.109375 46.1875 
Q 21.1875 51.21875 25.484375 53.609375 
Q 29.78125 56 35.6875 56 
Q 41.65625 56 45.828125 52.96875 
Q 50 49.953125 52 44.1875 
z
" id="DejaVuSans-109"/>
      <path d="M 41.109375 46.296875 
Q 39.59375 47.171875 37.8125 47.578125 
Q 36.03125 48 33.890625 48 
Q 26.265625 48 22.1875 43.046875 
Q 18.109375 38.09375 18.109375 28.8125 
L 18.109375 0 
L 9.078125 0 
L 9.078125 54.6875 
L 18.109375 54.6875 
L 18.109375 46.1875 
Q 20.953125 51.171875 25.484375 53.578125 
Q 30.03125 56 36.53125 56 
Q 37.453125 56 38.578125 55.875 
Q 39.703125 55.765625 41.0625 55.515625 
z
" id="DejaVuSans-114"/>
      <path d="M 45.40625 46.390625 
L 45.40625 75.984375 
L 54.390625 75.984375 
L 54.390625 0 
L 45.40625 0 
L 45.40625 8.203125 
Q 42.578125 3.328125 38.25 0.953125 
Q 33.9375 -1.421875 27.875 -1.421875 
Q 17.96875 -1.421875 11.734375 6.484375 
Q 5.515625 14.40625 5.515625 27.296875 
Q 5.515625 40.1875 11.734375 48.09375 
Q 17.96875 56 27.875 56 
Q 33.9375 56 38.25 53.625 
Q 42.578125 51.265625 45.40625 46.390625 
z
M 14.796875 27.296875 
Q 14.796875 17.390625 18.875 11.75 
Q 22.953125 6.109375 30.078125 6.109375 
Q 37.203125 6.109375 41.296875 11.75 
Q 45.40625 17.390625 45.40625 27.296875 
Q 45.40625 37.203125 41.296875 42.84375 
Q 37.203125 48.484375 30.078125 48.484375 
Q 22.953125 48.484375 18.875 42.84375 
Q 14.796875 37.203125 14.796875 27.296875 
z
" id="DejaVuSans-100"/>
     </defs>
     <g transform="translate(94.6 58.070437)scale(0.1 -0.1)">
      <use xlink:href="#DejaVuSans-109"/>
      <use x="97.412109" xlink:href="#DejaVuSans-101"/>
      <use x="158.935547" xlink:href="#DejaVuSans-97"/>
      <use x="220.214844" xlink:href="#DejaVuSans-115"/>
      <use x="272.314453" xlink:href="#DejaVuSans-117"/>
      <use x="335.693359" xlink:href="#DejaVuSans-114"/>
      <use x="376.775391" xlink:href="#DejaVuSans-101"/>
      <use x="438.298828" xlink:href="#DejaVuSans-100"/>
      <use x="501.775391" xlink:href="#DejaVuSans-32"/>
      <use x="533.5625" xlink:href="#DejaVuSans-100"/>
      <use x="597.039062" xlink:href="#DejaVuSans-97"/>
      <use x="658.318359" xlink:href="#DejaVuSans-116"/>
      <use x="697.527344" xlink:href="#DejaVuSans-97"/>
     </g>
    </g>
    <g id="line2d_20">
     <path d="M 66.6 69.248562 
L 86.6 69.248562 
" style="fill:none;stroke:#008000;stroke-linecap:square;stroke-width:1.5;"/>
    </g>
    <g id="line2d_21"/>
    <g id="text_20">
     <!-- linear data -->
     <g transform="translate(94.6 72.748562)scale(0.1 -0.1)">
      <use xlink:href="#DejaVuSans-108"/>
      <use x="27.783203" xlink:href="#DejaVuSans-105"/>
      <use x="55.566406" xlink:href="#DejaVuSans-110"/>
      <use x="118.945312" xlink:href="#DejaVuSans-101"/>
      <use x="180.46875" xlink:href="#DejaVuSans-97"/>
      <use x="241.748047" xlink:href="#DejaVuSans-114"/>
      <use x="282.861328" xlink:href="#DejaVuSans-32"/>
      <use x="314.648438" xlink:href="#DejaVuSans-100"/>
      <use x="378.125" xlink:href="#DejaVuSans-97"/>
      <use x="439.404297" xlink:href="#DejaVuSans-116"/>
      <use x="478.613281" xlink:href="#DejaVuSans-97"/>
     </g>
    </g>
   </g>
  </g>
 </g>
 <defs>
  <clipPath id="pa46816fc31">
   <rect height="266.112" width="357.12" x="57.6" y="41.472"/>
  </clipPath>
 </defs>
</svg>
