<?xml version="1.0" encoding="utf-8" standalone="no"?>
<!DOCTYPE svg PUBLIC "-//W3C//DTD SVG 1.1//EN"
  "http://www.w3.org/Graphics/SVG/1.1/DTD/svg11.dtd">
<!-- Created with matplotlib (https://matplotlib.org/) -->
<svg height="345.6pt" version="1.1" viewBox="0 0 460.8 345.6" width="460.8pt" xmlns="http://www.w3.org/2000/svg" xmlns:xlink="http://www.w3.org/1999/xlink">
 <defs>
  <style type="text/css">
*{stroke-linecap:butt;stroke-linejoin:round;}
  </style>
 </defs>
 <g id="figure_1">
  <g id="patch_1">
   <path d="M 0 345.6 
L 460.8 345.6 
L 460.8 0 
L 0 0 
z
" style="fill:#ffffff;"/>
  </g>
  <g id="axes_1">
   <g id="patch_2">
    <path d="M 57.6 307.584 
L 414.72 307.584 
L 414.72 41.472 
L 57.6 41.472 
z
" style="fill:#ffffff;"/>
   </g>
   <g id="matplotlib.axis_1">
    <g id="xtick_1">
     <g id="line2d_1">
      <defs>
       <path d="M 0 0 
L 0 3.5 
" id="m8c737d44d8" style="stroke:#000000;stroke-width:0.8;"/>
      </defs>
      <g>
       <use style="stroke:#000000;stroke-width:0.8;" x="68.545218" xlink:href="#m8c737d44d8" y="307.584"/>
      </g>
     </g>
     <g id="text_1">
      <!-- 0 -->
      <defs>
       <path d="M 31.78125 66.40625 
Q 24.171875 66.40625 20.328125 58.90625 
Q 16.5 51.421875 16.5 36.375 
Q 16.5 21.390625 20.328125 13.890625 
Q 24.171875 6.390625 31.78125 6.390625 
Q 39.453125 6.390625 43.28125 13.890625 
Q 47.125 21.390625 47.125 36.375 
Q 47.125 51.421875 43.28125 58.90625 
Q 39.453125 66.40625 31.78125 66.40625 
z
M 31.78125 74.21875 
Q 44.046875 74.21875 50.515625 64.515625 
Q 56.984375 54.828125 56.984375 36.375 
Q 56.984375 17.96875 50.515625 8.265625 
Q 44.046875 -1.421875 31.78125 -1.421875 
Q 19.53125 -1.421875 13.0625 8.265625 
Q 6.59375 17.96875 6.59375 36.375 
Q 6.59375 54.828125 13.0625 64.515625 
Q 19.53125 74.21875 31.78125 74.21875 
z
" id="DejaVuSans-48"/>
      </defs>
      <g transform="translate(65.363968 322.182437)scale(0.1 -0.1)">
       <use xlink:href="#DejaVuSans-48"/>
      </g>
     </g>
    </g>
    <g id="xtick_2">
     <g id="line2d_2">
      <g>
       <use style="stroke:#000000;stroke-width:0.8;" x="138.040064" xlink:href="#m8c737d44d8" y="307.584"/>
      </g>
     </g>
     <g id="text_2">
      <!-- 20 -->
      <defs>
       <path d="M 19.1875 8.296875 
L 53.609375 8.296875 
L 53.609375 0 
L 7.328125 0 
L 7.328125 8.296875 
Q 12.9375 14.109375 22.625 23.890625 
Q 32.328125 33.6875 34.8125 36.53125 
Q 39.546875 41.84375 41.421875 45.53125 
Q 43.3125 49.21875 43.3125 52.78125 
Q 43.3125 58.59375 39.234375 62.25 
Q 35.15625 65.921875 28.609375 65.921875 
Q 23.96875 65.921875 18.8125 64.3125 
Q 13.671875 62.703125 7.8125 59.421875 
L 7.8125 69.390625 
Q 13.765625 71.78125 18.9375 73 
Q 24.125 74.21875 28.421875 74.21875 
Q 39.75 74.21875 46.484375 68.546875 
Q 53.21875 62.890625 53.21875 53.421875 
Q 53.21875 48.921875 51.53125 44.890625 
Q 49.859375 40.875 45.40625 35.40625 
Q 44.1875 33.984375 37.640625 27.21875 
Q 31.109375 20.453125 19.1875 8.296875 
z
" id="DejaVuSans-50"/>
      </defs>
      <g transform="translate(131.677564 322.182437)scale(0.1 -0.1)">
       <use xlink:href="#DejaVuSans-50"/>
       <use x="63.623047" xlink:href="#DejaVuSans-48"/>
      </g>
     </g>
    </g>
    <g id="xtick_3">
     <g id="line2d_3">
      <g>
       <use style="stroke:#000000;stroke-width:0.8;" x="207.53491" xlink:href="#m8c737d44d8" y="307.584"/>
      </g>
     </g>
     <g id="text_3">
      <!-- 40 -->
      <defs>
       <path d="M 37.796875 64.3125 
L 12.890625 25.390625 
L 37.796875 25.390625 
z
M 35.203125 72.90625 
L 47.609375 72.90625 
L 47.609375 25.390625 
L 58.015625 25.390625 
L 58.015625 17.1875 
L 47.609375 17.1875 
L 47.609375 0 
L 37.796875 0 
L 37.796875 17.1875 
L 4.890625 17.1875 
L 4.890625 26.703125 
z
" id="DejaVuSans-52"/>
      </defs>
      <g transform="translate(201.17241 322.182437)scale(0.1 -0.1)">
       <use xlink:href="#DejaVuSans-52"/>
       <use x="63.623047" xlink:href="#DejaVuSans-48"/>
      </g>
     </g>
    </g>
    <g id="xtick_4">
     <g id="line2d_4">
      <g>
       <use style="stroke:#000000;stroke-width:0.8;" x="277.029756" xlink:href="#m8c737d44d8" y="307.584"/>
      </g>
     </g>
     <g id="text_4">
      <!-- 60 -->
      <defs>
       <path d="M 33.015625 40.375 
Q 26.375 40.375 22.484375 35.828125 
Q 18.609375 31.296875 18.609375 23.390625 
Q 18.609375 15.53125 22.484375 10.953125 
Q 26.375 6.390625 33.015625 6.390625 
Q 39.65625 6.390625 43.53125 10.953125 
Q 47.40625 15.53125 47.40625 23.390625 
Q 47.40625 31.296875 43.53125 35.828125 
Q 39.65625 40.375 33.015625 40.375 
z
M 52.59375 71.296875 
L 52.59375 62.3125 
Q 48.875 64.0625 45.09375 64.984375 
Q 41.3125 65.921875 37.59375 65.921875 
Q 27.828125 65.921875 22.671875 59.328125 
Q 17.53125 52.734375 16.796875 39.40625 
Q 19.671875 43.65625 24.015625 45.921875 
Q 28.375 48.1875 33.59375 48.1875 
Q 44.578125 48.1875 50.953125 41.515625 
Q 57.328125 34.859375 57.328125 23.390625 
Q 57.328125 12.15625 50.6875 5.359375 
Q 44.046875 -1.421875 33.015625 -1.421875 
Q 20.359375 -1.421875 13.671875 8.265625 
Q 6.984375 17.96875 6.984375 36.375 
Q 6.984375 53.65625 15.1875 63.9375 
Q 23.390625 74.21875 37.203125 74.21875 
Q 40.921875 74.21875 44.703125 73.484375 
Q 48.484375 72.75 52.59375 71.296875 
z
" id="DejaVuSans-54"/>
      </defs>
      <g transform="translate(270.667256 322.182437)scale(0.1 -0.1)">
       <use xlink:href="#DejaVuSans-54"/>
       <use x="63.623047" xlink:href="#DejaVuSans-48"/>
      </g>
     </g>
    </g>
    <g id="xtick_5">
     <g id="line2d_5">
      <g>
       <use style="stroke:#000000;stroke-width:0.8;" x="346.524602" xlink:href="#m8c737d44d8" y="307.584"/>
      </g>
     </g>
     <g id="text_5">
      <!-- 80 -->
      <defs>
       <path d="M 31.78125 34.625 
Q 24.75 34.625 20.71875 30.859375 
Q 16.703125 27.09375 16.703125 20.515625 
Q 16.703125 13.921875 20.71875 10.15625 
Q 24.75 6.390625 31.78125 6.390625 
Q 38.8125 6.390625 42.859375 10.171875 
Q 46.921875 13.96875 46.921875 20.515625 
Q 46.921875 27.09375 42.890625 30.859375 
Q 38.875 34.625 31.78125 34.625 
z
M 21.921875 38.8125 
Q 15.578125 40.375 12.03125 44.71875 
Q 8.5 49.078125 8.5 55.328125 
Q 8.5 64.0625 14.71875 69.140625 
Q 20.953125 74.21875 31.78125 74.21875 
Q 42.671875 74.21875 48.875 69.140625 
Q 55.078125 64.0625 55.078125 55.328125 
Q 55.078125 49.078125 51.53125 44.71875 
Q 48 40.375 41.703125 38.8125 
Q 48.828125 37.15625 52.796875 32.3125 
Q 56.78125 27.484375 56.78125 20.515625 
Q 56.78125 9.90625 50.3125 4.234375 
Q 43.84375 -1.421875 31.78125 -1.421875 
Q 19.734375 -1.421875 13.25 4.234375 
Q 6.78125 9.90625 6.78125 20.515625 
Q 6.78125 27.484375 10.78125 32.3125 
Q 14.796875 37.15625 21.921875 38.8125 
z
M 18.3125 54.390625 
Q 18.3125 48.734375 21.84375 45.5625 
Q 25.390625 42.390625 31.78125 42.390625 
Q 38.140625 42.390625 41.71875 45.5625 
Q 45.3125 48.734375 45.3125 54.390625 
Q 45.3125 60.0625 41.71875 63.234375 
Q 38.140625 66.40625 31.78125 66.40625 
Q 25.390625 66.40625 21.84375 63.234375 
Q 18.3125 60.0625 18.3125 54.390625 
z
" id="DejaVuSans-56"/>
      </defs>
      <g transform="translate(340.162102 322.182437)scale(0.1 -0.1)">
       <use xlink:href="#DejaVuSans-56"/>
       <use x="63.623047" xlink:href="#DejaVuSans-48"/>
      </g>
     </g>
    </g>
    <g id="text_6">
     <!-- x values -->
     <defs>
      <path d="M 54.890625 54.6875 
L 35.109375 28.078125 
L 55.90625 0 
L 45.3125 0 
L 29.390625 21.484375 
L 13.484375 0 
L 2.875 0 
L 24.125 28.609375 
L 4.6875 54.6875 
L 15.28125 54.6875 
L 29.78125 35.203125 
L 44.28125 54.6875 
z
" id="DejaVuSans-120"/>
      <path id="DejaVuSans-32"/>
      <path d="M 2.984375 54.6875 
L 12.5 54.6875 
L 29.59375 8.796875 
L 46.6875 54.6875 
L 56.203125 54.6875 
L 35.6875 0 
L 23.484375 0 
z
" id="DejaVuSans-118"/>
      <path d="M 34.28125 27.484375 
Q 23.390625 27.484375 19.1875 25 
Q 14.984375 22.515625 14.984375 16.5 
Q 14.984375 11.71875 18.140625 8.90625 
Q 21.296875 6.109375 26.703125 6.109375 
Q 34.1875 6.109375 38.703125 11.40625 
Q 43.21875 16.703125 43.21875 25.484375 
L 43.21875 27.484375 
z
M 52.203125 31.203125 
L 52.203125 0 
L 43.21875 0 
L 43.21875 8.296875 
Q 40.140625 3.328125 35.546875 0.953125 
Q 30.953125 -1.421875 24.3125 -1.421875 
Q 15.921875 -1.421875 10.953125 3.296875 
Q 6 8.015625 6 15.921875 
Q 6 25.140625 12.171875 29.828125 
Q 18.359375 34.515625 30.609375 34.515625 
L 43.21875 34.515625 
L 43.21875 35.40625 
Q 43.21875 41.609375 39.140625 45 
Q 35.0625 48.390625 27.6875 48.390625 
Q 23 48.390625 18.546875 47.265625 
Q 14.109375 46.140625 10.015625 43.890625 
L 10.015625 52.203125 
Q 14.9375 54.109375 19.578125 55.046875 
Q 24.21875 56 28.609375 56 
Q 40.484375 56 46.34375 49.84375 
Q 52.203125 43.703125 52.203125 31.203125 
z
" id="DejaVuSans-97"/>
      <path d="M 9.421875 75.984375 
L 18.40625 75.984375 
L 18.40625 0 
L 9.421875 0 
z
" id="DejaVuSans-108"/>
      <path d="M 8.5 21.578125 
L 8.5 54.6875 
L 17.484375 54.6875 
L 17.484375 21.921875 
Q 17.484375 14.15625 20.5 10.265625 
Q 23.53125 6.390625 29.59375 6.390625 
Q 36.859375 6.390625 41.078125 11.03125 
Q 45.3125 15.671875 45.3125 23.6875 
L 45.3125 54.6875 
L 54.296875 54.6875 
L 54.296875 0 
L 45.3125 0 
L 45.3125 8.40625 
Q 42.046875 3.421875 37.71875 1 
Q 33.40625 -1.421875 27.6875 -1.421875 
Q 18.265625 -1.421875 13.375 4.4375 
Q 8.5 10.296875 8.5 21.578125 
z
M 31.109375 56 
z
" id="DejaVuSans-117"/>
      <path d="M 56.203125 29.59375 
L 56.203125 25.203125 
L 14.890625 25.203125 
Q 15.484375 15.921875 20.484375 11.0625 
Q 25.484375 6.203125 34.421875 6.203125 
Q 39.59375 6.203125 44.453125 7.46875 
Q 49.3125 8.734375 54.109375 11.28125 
L 54.109375 2.78125 
Q 49.265625 0.734375 44.1875 -0.34375 
Q 39.109375 -1.421875 33.890625 -1.421875 
Q 20.796875 -1.421875 13.15625 6.1875 
Q 5.515625 13.8125 5.515625 26.8125 
Q 5.515625 40.234375 12.765625 48.109375 
Q 20.015625 56 32.328125 56 
Q 43.359375 56 49.78125 48.890625 
Q 56.203125 41.796875 56.203125 29.59375 
z
M 47.21875 32.234375 
Q 47.125 39.59375 43.09375 43.984375 
Q 39.0625 48.390625 32.421875 48.390625 
Q 24.90625 48.390625 20.390625 44.140625 
Q 15.875 39.890625 15.1875 32.171875 
z
" id="DejaVuSans-101"/>
      <path d="M 44.28125 53.078125 
L 44.28125 44.578125 
Q 40.484375 46.53125 36.375 47.5 
Q 32.28125 48.484375 27.875 48.484375 
Q 21.1875 48.484375 17.84375 46.4375 
Q 14.5 44.390625 14.5 40.28125 
Q 14.5 37.15625 16.890625 35.375 
Q 19.28125 33.59375 26.515625 31.984375 
L 29.59375 31.296875 
Q 39.15625 29.25 43.1875 25.515625 
Q 47.21875 21.78125 47.21875 15.09375 
Q 47.21875 7.46875 41.1875 3.015625 
Q 35.15625 -1.421875 24.609375 -1.421875 
Q 20.21875 -1.421875 15.453125 -0.5625 
Q 10.6875 0.296875 5.421875 2 
L 5.421875 11.28125 
Q 10.40625 8.6875 15.234375 7.390625 
Q 20.0625 6.109375 24.8125 6.109375 
Q 31.15625 6.109375 34.5625 8.28125 
Q 37.984375 10.453125 37.984375 14.40625 
Q 37.984375 18.0625 35.515625 20.015625 
Q 33.0625 21.96875 24.703125 23.78125 
L 21.578125 24.515625 
Q 13.234375 26.265625 9.515625 29.90625 
Q 5.8125 33.546875 5.8125 39.890625 
Q 5.8125 47.609375 11.28125 51.796875 
Q 16.75 56 26.8125 56 
Q 31.78125 56 36.171875 55.265625 
Q 40.578125 54.546875 44.28125 53.078125 
z
" id="DejaVuSans-115"/>
     </defs>
     <g transform="translate(215.349063 335.860562)scale(0.1 -0.1)">
      <use xlink:href="#DejaVuSans-120"/>
      <use x="59.179688" xlink:href="#DejaVuSans-32"/>
      <use x="90.966797" xlink:href="#DejaVuSans-118"/>
      <use x="150.146484" xlink:href="#DejaVuSans-97"/>
      <use x="211.425781" xlink:href="#DejaVuSans-108"/>
      <use x="239.208984" xlink:href="#DejaVuSans-117"/>
      <use x="302.587891" xlink:href="#DejaVuSans-101"/>
      <use x="364.111328" xlink:href="#DejaVuSans-115"/>
     </g>
    </g>
   </g>
   <g id="matplotlib.axis_2">
    <g id="ytick_1">
     <g id="line2d_6">
      <defs>
       <path d="M 0 0 
L -3.5 0 
" id="mec41418114" style="stroke:#000000;stroke-width:0.8;"/>
      </defs>
      <g>
       <use style="stroke:#000000;stroke-width:0.8;" x="57.6" xlink:href="#mec41418114" y="291.521804"/>
      </g>
     </g>
     <g id="text_7">
      <!-- 0 -->
      <g transform="translate(44.2375 295.321023)scale(0.1 -0.1)">
       <use xlink:href="#DejaVuSans-48"/>
      </g>
     </g>
    </g>
    <g id="ytick_2">
     <g id="line2d_7">
      <g>
       <use style="stroke:#000000;stroke-width:0.8;" x="57.6" xlink:href="#mec41418114" y="257.081716"/>
      </g>
     </g>
     <g id="text_8">
      <!-- 100 -->
      <defs>
       <path d="M 12.40625 8.296875 
L 28.515625 8.296875 
L 28.515625 63.921875 
L 10.984375 60.40625 
L 10.984375 69.390625 
L 28.421875 72.90625 
L 38.28125 72.90625 
L 38.28125 8.296875 
L 54.390625 8.296875 
L 54.390625 0 
L 12.40625 0 
z
" id="DejaVuSans-49"/>
      </defs>
      <g transform="translate(31.5125 260.880935)scale(0.1 -0.1)">
       <use xlink:href="#DejaVuSans-49"/>
       <use x="63.623047" xlink:href="#DejaVuSans-48"/>
       <use x="127.246094" xlink:href="#DejaVuSans-48"/>
      </g>
     </g>
    </g>
    <g id="ytick_3">
     <g id="line2d_8">
      <g>
       <use style="stroke:#000000;stroke-width:0.8;" x="57.6" xlink:href="#mec41418114" y="222.641629"/>
      </g>
     </g>
     <g id="text_9">
      <!-- 200 -->
      <g transform="translate(31.5125 226.440847)scale(0.1 -0.1)">
       <use xlink:href="#DejaVuSans-50"/>
       <use x="63.623047" xlink:href="#DejaVuSans-48"/>
       <use x="127.246094" xlink:href="#DejaVuSans-48"/>
      </g>
     </g>
    </g>
    <g id="ytick_4">
     <g id="line2d_9">
      <g>
       <use style="stroke:#000000;stroke-width:0.8;" x="57.6" xlink:href="#mec41418114" y="188.201541"/>
      </g>
     </g>
     <g id="text_10">
      <!-- 300 -->
      <defs>
       <path d="M 40.578125 39.3125 
Q 47.65625 37.796875 51.625 33 
Q 55.609375 28.21875 55.609375 21.1875 
Q 55.609375 10.40625 48.1875 4.484375 
Q 40.765625 -1.421875 27.09375 -1.421875 
Q 22.515625 -1.421875 17.65625 -0.515625 
Q 12.796875 0.390625 7.625 2.203125 
L 7.625 11.71875 
Q 11.71875 9.328125 16.59375 8.109375 
Q 21.484375 6.890625 26.8125 6.890625 
Q 36.078125 6.890625 40.9375 10.546875 
Q 45.796875 14.203125 45.796875 21.1875 
Q 45.796875 27.640625 41.28125 31.265625 
Q 36.765625 34.90625 28.71875 34.90625 
L 20.21875 34.90625 
L 20.21875 43.015625 
L 29.109375 43.015625 
Q 36.375 43.015625 40.234375 45.921875 
Q 44.09375 48.828125 44.09375 54.296875 
Q 44.09375 59.90625 40.109375 62.90625 
Q 36.140625 65.921875 28.71875 65.921875 
Q 24.65625 65.921875 20.015625 65.03125 
Q 15.375 64.15625 9.8125 62.3125 
L 9.8125 71.09375 
Q 15.4375 72.65625 20.34375 73.4375 
Q 25.25 74.21875 29.59375 74.21875 
Q 40.828125 74.21875 47.359375 69.109375 
Q 53.90625 64.015625 53.90625 55.328125 
Q 53.90625 49.265625 50.4375 45.09375 
Q 46.96875 40.921875 40.578125 39.3125 
z
" id="DejaVuSans-51"/>
      </defs>
      <g transform="translate(31.5125 192.00076)scale(0.1 -0.1)">
       <use xlink:href="#DejaVuSans-51"/>
       <use x="63.623047" xlink:href="#DejaVuSans-48"/>
       <use x="127.246094" xlink:href="#DejaVuSans-48"/>
      </g>
     </g>
    </g>
    <g id="ytick_5">
     <g id="line2d_10">
      <g>
       <use style="stroke:#000000;stroke-width:0.8;" x="57.6" xlink:href="#mec41418114" y="153.761453"/>
      </g>
     </g>
     <g id="text_11">
      <!-- 400 -->
      <g transform="translate(31.5125 157.560672)scale(0.1 -0.1)">
       <use xlink:href="#DejaVuSans-52"/>
       <use x="63.623047" xlink:href="#DejaVuSans-48"/>
       <use x="127.246094" xlink:href="#DejaVuSans-48"/>
      </g>
     </g>
    </g>
    <g id="ytick_6">
     <g id="line2d_11">
      <g>
       <use style="stroke:#000000;stroke-width:0.8;" x="57.6" xlink:href="#mec41418114" y="119.321366"/>
      </g>
     </g>
     <g id="text_12">
      <!-- 500 -->
      <defs>
       <path d="M 10.796875 72.90625 
L 49.515625 72.90625 
L 49.515625 64.59375 
L 19.828125 64.59375 
L 19.828125 46.734375 
Q 21.96875 47.46875 24.109375 47.828125 
Q 26.265625 48.1875 28.421875 48.1875 
Q 40.625 48.1875 47.75 41.5 
Q 54.890625 34.8125 54.890625 23.390625 
Q 54.890625 11.625 47.5625 5.09375 
Q 40.234375 -1.421875 26.90625 -1.421875 
Q 22.3125 -1.421875 17.546875 -0.640625 
Q 12.796875 0.140625 7.71875 1.703125 
L 7.71875 11.625 
Q 12.109375 9.234375 16.796875 8.0625 
Q 21.484375 6.890625 26.703125 6.890625 
Q 35.15625 6.890625 40.078125 11.328125 
Q 45.015625 15.765625 45.015625 23.390625 
Q 45.015625 31 40.078125 35.4375 
Q 35.15625 39.890625 26.703125 39.890625 
Q 22.75 39.890625 18.8125 39.015625 
Q 14.890625 38.140625 10.796875 36.28125 
z
" id="DejaVuSans-53"/>
      </defs>
      <g transform="translate(31.5125 123.120585)scale(0.1 -0.1)">
       <use xlink:href="#DejaVuSans-53"/>
       <use x="63.623047" xlink:href="#DejaVuSans-48"/>
       <use x="127.246094" xlink:href="#DejaVuSans-48"/>
      </g>
     </g>
    </g>
    <g id="ytick_7">
     <g id="line2d_12">
      <g>
       <use style="stroke:#000000;stroke-width:0.8;" x="57.6" xlink:href="#mec41418114" y="84.881278"/>
      </g>
     </g>
     <g id="text_13">
      <!-- 600 -->
      <g transform="translate(31.5125 88.680497)scale(0.1 -0.1)">
       <use xlink:href="#DejaVuSans-54"/>
       <use x="63.623047" xlink:href="#DejaVuSans-48"/>
       <use x="127.246094" xlink:href="#DejaVuSans-48"/>
      </g>
     </g>
    </g>
    <g id="ytick_8">
     <g id="line2d_13">
      <g>
       <use style="stroke:#000000;stroke-width:0.8;" x="57.6" xlink:href="#mec41418114" y="50.441191"/>
      </g>
     </g>
     <g id="text_14">
      <!-- 700 -->
      <defs>
       <path d="M 8.203125 72.90625 
L 55.078125 72.90625 
L 55.078125 68.703125 
L 28.609375 0 
L 18.3125 0 
L 43.21875 64.59375 
L 8.203125 64.59375 
z
" id="DejaVuSans-55"/>
      </defs>
      <g transform="translate(31.5125 54.240409)scale(0.1 -0.1)">
       <use xlink:href="#DejaVuSans-55"/>
       <use x="63.623047" xlink:href="#DejaVuSans-48"/>
       <use x="127.246094" xlink:href="#DejaVuSans-48"/>
      </g>
     </g>
    </g>
    <g id="text_15">
     <!-- y values -->
     <defs>
      <path d="M 32.171875 -5.078125 
Q 28.375 -14.84375 24.75 -17.8125 
Q 21.140625 -20.796875 15.09375 -20.796875 
L 7.90625 -20.796875 
L 7.90625 -13.28125 
L 13.1875 -13.28125 
Q 16.890625 -13.28125 18.9375 -11.515625 
Q 21 -9.765625 23.484375 -3.21875 
L 25.09375 0.875 
L 2.984375 54.6875 
L 12.5 54.6875 
L 29.59375 11.921875 
L 46.6875 54.6875 
L 56.203125 54.6875 
z
" id="DejaVuSans-121"/>
     </defs>
     <g transform="translate(25.432812 195.338937)rotate(-90)scale(0.1 -0.1)">
      <use xlink:href="#DejaVuSans-121"/>
      <use x="59.179688" xlink:href="#DejaVuSans-32"/>
      <use x="90.966797" xlink:href="#DejaVuSans-118"/>
      <use x="150.146484" xlink:href="#DejaVuSans-97"/>
      <use x="211.425781" xlink:href="#DejaVuSans-108"/>
      <use x="239.208984" xlink:href="#DejaVuSans-117"/>
      <use x="302.587891" xlink:href="#DejaVuSans-101"/>
      <use x="364.111328" xlink:href="#DejaVuSans-115"/>
     </g>
    </g>
   </g>
   <g id="line2d_14">
    <defs>
     <path d="M 0 1 
C 0.265203 1 0.51958 0.894634 0.707107 0.707107 
C 0.894634 0.51958 1 0.265203 1 0 
C 1 -0.265203 0.894634 -0.51958 0.707107 -0.707107 
C 0.51958 -0.894634 0.265203 -1 0 -1 
C -0.265203 -1 -0.51958 -0.894634 -0.707107 -0.707107 
C -0.894634 -0.51958 -1 -0.265203 -1 0 
C -1 0.265203 -0.894634 0.51958 -0.707107 0.707107 
C -0.51958 0.894634 -0.265203 1 0 1 
z
" id="m88b79c11b1" style="stroke:#ff0000;"/>
    </defs>
    <g clip-path="url(#p708fde0151)">
     <use style="fill:#ff0000;stroke:#ff0000;" x="73.832727" xlink:href="#m88b79c11b1" y="67.624027"/>
     <use style="fill:#ff0000;stroke:#ff0000;" x="75.067155" xlink:href="#m88b79c11b1" y="107.934682"/>
     <use style="fill:#ff0000;stroke:#ff0000;" x="76.301583" xlink:href="#m88b79c11b1" y="81.356302"/>
     <use style="fill:#ff0000;stroke:#ff0000;" x="77.536011" xlink:href="#m88b79c11b1" y="53.568"/>
     <use style="fill:#ff0000;stroke:#ff0000;" x="78.770439" xlink:href="#m88b79c11b1" y="99.759436"/>
     <use style="fill:#ff0000;stroke:#ff0000;" x="80.004867" xlink:href="#m88b79c11b1" y="89.961877"/>
     <use style="fill:#ff0000;stroke:#ff0000;" x="81.239295" xlink:href="#m88b79c11b1" y="101.793518"/>
     <use style="fill:#ff0000;stroke:#ff0000;" x="82.473723" xlink:href="#m88b79c11b1" y="111.448348"/>
     <use style="fill:#ff0000;stroke:#ff0000;" x="83.708151" xlink:href="#m88b79c11b1" y="94.632465"/>
     <use style="fill:#ff0000;stroke:#ff0000;" x="84.942579" xlink:href="#m88b79c11b1" y="119.181855"/>
     <use style="fill:#ff0000;stroke:#ff0000;" x="86.177007" xlink:href="#m88b79c11b1" y="94.554993"/>
     <use style="fill:#ff0000;stroke:#ff0000;" x="87.411434" xlink:href="#m88b79c11b1" y="87.20978"/>
     <use style="fill:#ff0000;stroke:#ff0000;" x="88.645862" xlink:href="#m88b79c11b1" y="118.938372"/>
     <use style="fill:#ff0000;stroke:#ff0000;" x="89.88029" xlink:href="#m88b79c11b1" y="107.694785"/>
     <use style="fill:#ff0000;stroke:#ff0000;" x="91.114718" xlink:href="#m88b79c11b1" y="73.852201"/>
     <use style="fill:#ff0000;stroke:#ff0000;" x="92.349146" xlink:href="#m88b79c11b1" y="108.822979"/>
     <use style="fill:#ff0000;stroke:#ff0000;" x="93.583574" xlink:href="#m88b79c11b1" y="106.474513"/>
     <use style="fill:#ff0000;stroke:#ff0000;" x="94.818002" xlink:href="#m88b79c11b1" y="115.341748"/>
     <use style="fill:#ff0000;stroke:#ff0000;" x="96.05243" xlink:href="#m88b79c11b1" y="103.293666"/>
     <use style="fill:#ff0000;stroke:#ff0000;" x="97.286858" xlink:href="#m88b79c11b1" y="120.048225"/>
     <use style="fill:#ff0000;stroke:#ff0000;" x="98.521286" xlink:href="#m88b79c11b1" y="130.829678"/>
     <use style="fill:#ff0000;stroke:#ff0000;" x="99.755714" xlink:href="#m88b79c11b1" y="137.139928"/>
     <use style="fill:#ff0000;stroke:#ff0000;" x="100.990142" xlink:href="#m88b79c11b1" y="104.180648"/>
     <use style="fill:#ff0000;stroke:#ff0000;" x="102.22457" xlink:href="#m88b79c11b1" y="106.509254"/>
     <use style="fill:#ff0000;stroke:#ff0000;" x="103.458998" xlink:href="#m88b79c11b1" y="100.545478"/>
     <use style="fill:#ff0000;stroke:#ff0000;" x="104.693426" xlink:href="#m88b79c11b1" y="121.001226"/>
     <use style="fill:#ff0000;stroke:#ff0000;" x="105.927853" xlink:href="#m88b79c11b1" y="133.283372"/>
     <use style="fill:#ff0000;stroke:#ff0000;" x="107.162281" xlink:href="#m88b79c11b1" y="130.953945"/>
     <use style="fill:#ff0000;stroke:#ff0000;" x="108.396709" xlink:href="#m88b79c11b1" y="132.195131"/>
     <use style="fill:#ff0000;stroke:#ff0000;" x="109.631137" xlink:href="#m88b79c11b1" y="121.965261"/>
     <use style="fill:#ff0000;stroke:#ff0000;" x="110.865565" xlink:href="#m88b79c11b1" y="127.343195"/>
     <use style="fill:#ff0000;stroke:#ff0000;" x="112.099993" xlink:href="#m88b79c11b1" y="112.776846"/>
     <use style="fill:#ff0000;stroke:#ff0000;" x="113.334421" xlink:href="#m88b79c11b1" y="134.272496"/>
     <use style="fill:#ff0000;stroke:#ff0000;" x="114.568849" xlink:href="#m88b79c11b1" y="170.757766"/>
     <use style="fill:#ff0000;stroke:#ff0000;" x="115.803277" xlink:href="#m88b79c11b1" y="170.744671"/>
     <use style="fill:#ff0000;stroke:#ff0000;" x="117.037705" xlink:href="#m88b79c11b1" y="151.346045"/>
     <use style="fill:#ff0000;stroke:#ff0000;" x="118.272133" xlink:href="#m88b79c11b1" y="173.630045"/>
     <use style="fill:#ff0000;stroke:#ff0000;" x="119.506561" xlink:href="#m88b79c11b1" y="133.24543"/>
     <use style="fill:#ff0000;stroke:#ff0000;" x="120.740989" xlink:href="#m88b79c11b1" y="128.740401"/>
     <use style="fill:#ff0000;stroke:#ff0000;" x="121.975417" xlink:href="#m88b79c11b1" y="161.390542"/>
     <use style="fill:#ff0000;stroke:#ff0000;" x="123.209844" xlink:href="#m88b79c11b1" y="148.319386"/>
     <use style="fill:#ff0000;stroke:#ff0000;" x="124.444272" xlink:href="#m88b79c11b1" y="156.1114"/>
     <use style="fill:#ff0000;stroke:#ff0000;" x="125.6787" xlink:href="#m88b79c11b1" y="194.902797"/>
     <use style="fill:#ff0000;stroke:#ff0000;" x="126.913128" xlink:href="#m88b79c11b1" y="178.704304"/>
     <use style="fill:#ff0000;stroke:#ff0000;" x="128.147556" xlink:href="#m88b79c11b1" y="172.300664"/>
     <use style="fill:#ff0000;stroke:#ff0000;" x="129.381984" xlink:href="#m88b79c11b1" y="172.779079"/>
     <use style="fill:#ff0000;stroke:#ff0000;" x="130.616412" xlink:href="#m88b79c11b1" y="180.232461"/>
     <use style="fill:#ff0000;stroke:#ff0000;" x="131.85084" xlink:href="#m88b79c11b1" y="154.519638"/>
     <use style="fill:#ff0000;stroke:#ff0000;" x="133.085268" xlink:href="#m88b79c11b1" y="162.072503"/>
     <use style="fill:#ff0000;stroke:#ff0000;" x="134.319696" xlink:href="#m88b79c11b1" y="165.307571"/>
     <use style="fill:#ff0000;stroke:#ff0000;" x="135.554124" xlink:href="#m88b79c11b1" y="195.313612"/>
     <use style="fill:#ff0000;stroke:#ff0000;" x="136.788552" xlink:href="#m88b79c11b1" y="168.391833"/>
     <use style="fill:#ff0000;stroke:#ff0000;" x="138.02298" xlink:href="#m88b79c11b1" y="192.71563"/>
     <use style="fill:#ff0000;stroke:#ff0000;" x="139.257408" xlink:href="#m88b79c11b1" y="185.961168"/>
     <use style="fill:#ff0000;stroke:#ff0000;" x="140.491835" xlink:href="#m88b79c11b1" y="161.099186"/>
     <use style="fill:#ff0000;stroke:#ff0000;" x="141.726263" xlink:href="#m88b79c11b1" y="202.396454"/>
     <use style="fill:#ff0000;stroke:#ff0000;" x="142.960691" xlink:href="#m88b79c11b1" y="182.593251"/>
     <use style="fill:#ff0000;stroke:#ff0000;" x="144.195119" xlink:href="#m88b79c11b1" y="171.865551"/>
     <use style="fill:#ff0000;stroke:#ff0000;" x="145.429547" xlink:href="#m88b79c11b1" y="179.354933"/>
     <use style="fill:#ff0000;stroke:#ff0000;" x="146.663975" xlink:href="#m88b79c11b1" y="209.469673"/>
     <use style="fill:#ff0000;stroke:#ff0000;" x="147.898403" xlink:href="#m88b79c11b1" y="183.975651"/>
     <use style="fill:#ff0000;stroke:#ff0000;" x="149.132831" xlink:href="#m88b79c11b1" y="203.045451"/>
     <use style="fill:#ff0000;stroke:#ff0000;" x="150.367259" xlink:href="#m88b79c11b1" y="216.44192"/>
     <use style="fill:#ff0000;stroke:#ff0000;" x="151.601687" xlink:href="#m88b79c11b1" y="207.634805"/>
     <use style="fill:#ff0000;stroke:#ff0000;" x="152.836115" xlink:href="#m88b79c11b1" y="208.569658"/>
     <use style="fill:#ff0000;stroke:#ff0000;" x="154.070543" xlink:href="#m88b79c11b1" y="211.085264"/>
     <use style="fill:#ff0000;stroke:#ff0000;" x="155.304971" xlink:href="#m88b79c11b1" y="217.288809"/>
     <use style="fill:#ff0000;stroke:#ff0000;" x="156.539399" xlink:href="#m88b79c11b1" y="192.448731"/>
     <use style="fill:#ff0000;stroke:#ff0000;" x="157.773826" xlink:href="#m88b79c11b1" y="196.259418"/>
     <use style="fill:#ff0000;stroke:#ff0000;" x="159.008254" xlink:href="#m88b79c11b1" y="210.450605"/>
     <use style="fill:#ff0000;stroke:#ff0000;" x="160.242682" xlink:href="#m88b79c11b1" y="215.513369"/>
     <use style="fill:#ff0000;stroke:#ff0000;" x="161.47711" xlink:href="#m88b79c11b1" y="222.959886"/>
     <use style="fill:#ff0000;stroke:#ff0000;" x="162.711538" xlink:href="#m88b79c11b1" y="199.631073"/>
     <use style="fill:#ff0000;stroke:#ff0000;" x="163.945966" xlink:href="#m88b79c11b1" y="221.300623"/>
     <use style="fill:#ff0000;stroke:#ff0000;" x="165.180394" xlink:href="#m88b79c11b1" y="216.316361"/>
     <use style="fill:#ff0000;stroke:#ff0000;" x="166.414822" xlink:href="#m88b79c11b1" y="231.228382"/>
     <use style="fill:#ff0000;stroke:#ff0000;" x="167.64925" xlink:href="#m88b79c11b1" y="213.724769"/>
     <use style="fill:#ff0000;stroke:#ff0000;" x="168.883678" xlink:href="#m88b79c11b1" y="221.909626"/>
     <use style="fill:#ff0000;stroke:#ff0000;" x="170.118106" xlink:href="#m88b79c11b1" y="214.704277"/>
     <use style="fill:#ff0000;stroke:#ff0000;" x="171.352534" xlink:href="#m88b79c11b1" y="230.947155"/>
     <use style="fill:#ff0000;stroke:#ff0000;" x="172.586962" xlink:href="#m88b79c11b1" y="243.060505"/>
     <use style="fill:#ff0000;stroke:#ff0000;" x="173.82139" xlink:href="#m88b79c11b1" y="247.920979"/>
     <use style="fill:#ff0000;stroke:#ff0000;" x="175.055817" xlink:href="#m88b79c11b1" y="216.472315"/>
     <use style="fill:#ff0000;stroke:#ff0000;" x="176.290245" xlink:href="#m88b79c11b1" y="232.170552"/>
     <use style="fill:#ff0000;stroke:#ff0000;" x="177.524673" xlink:href="#m88b79c11b1" y="230.618935"/>
     <use style="fill:#ff0000;stroke:#ff0000;" x="178.759101" xlink:href="#m88b79c11b1" y="229.897765"/>
     <use style="fill:#ff0000;stroke:#ff0000;" x="179.993529" xlink:href="#m88b79c11b1" y="248.942316"/>
     <use style="fill:#ff0000;stroke:#ff0000;" x="181.227957" xlink:href="#m88b79c11b1" y="234.725908"/>
     <use style="fill:#ff0000;stroke:#ff0000;" x="182.462385" xlink:href="#m88b79c11b1" y="234.354608"/>
     <use style="fill:#ff0000;stroke:#ff0000;" x="183.696813" xlink:href="#m88b79c11b1" y="232.991816"/>
     <use style="fill:#ff0000;stroke:#ff0000;" x="184.931241" xlink:href="#m88b79c11b1" y="251.785743"/>
     <use style="fill:#ff0000;stroke:#ff0000;" x="186.165669" xlink:href="#m88b79c11b1" y="244.471493"/>
     <use style="fill:#ff0000;stroke:#ff0000;" x="187.400097" xlink:href="#m88b79c11b1" y="252.330092"/>
     <use style="fill:#ff0000;stroke:#ff0000;" x="188.634525" xlink:href="#m88b79c11b1" y="242.386701"/>
     <use style="fill:#ff0000;stroke:#ff0000;" x="189.868953" xlink:href="#m88b79c11b1" y="254.490416"/>
     <use style="fill:#ff0000;stroke:#ff0000;" x="191.103381" xlink:href="#m88b79c11b1" y="240.466578"/>
     <use style="fill:#ff0000;stroke:#ff0000;" x="192.337809" xlink:href="#m88b79c11b1" y="257.796234"/>
     <use style="fill:#ff0000;stroke:#ff0000;" x="193.572236" xlink:href="#m88b79c11b1" y="242.621245"/>
     <use style="fill:#ff0000;stroke:#ff0000;" x="194.806664" xlink:href="#m88b79c11b1" y="249.660018"/>
     <use style="fill:#ff0000;stroke:#ff0000;" x="196.041092" xlink:href="#m88b79c11b1" y="259.125177"/>
     <use style="fill:#ff0000;stroke:#ff0000;" x="197.27552" xlink:href="#m88b79c11b1" y="246.909924"/>
     <use style="fill:#ff0000;stroke:#ff0000;" x="198.509948" xlink:href="#m88b79c11b1" y="251.849165"/>
     <use style="fill:#ff0000;stroke:#ff0000;" x="199.744376" xlink:href="#m88b79c11b1" y="264.91231"/>
     <use style="fill:#ff0000;stroke:#ff0000;" x="200.978804" xlink:href="#m88b79c11b1" y="260.544184"/>
     <use style="fill:#ff0000;stroke:#ff0000;" x="202.213232" xlink:href="#m88b79c11b1" y="252.060105"/>
     <use style="fill:#ff0000;stroke:#ff0000;" x="203.44766" xlink:href="#m88b79c11b1" y="256.099765"/>
     <use style="fill:#ff0000;stroke:#ff0000;" x="204.682088" xlink:href="#m88b79c11b1" y="258.962477"/>
     <use style="fill:#ff0000;stroke:#ff0000;" x="205.916516" xlink:href="#m88b79c11b1" y="266.795313"/>
     <use style="fill:#ff0000;stroke:#ff0000;" x="207.150944" xlink:href="#m88b79c11b1" y="266.002493"/>
     <use style="fill:#ff0000;stroke:#ff0000;" x="208.385372" xlink:href="#m88b79c11b1" y="257.598022"/>
     <use style="fill:#ff0000;stroke:#ff0000;" x="209.6198" xlink:href="#m88b79c11b1" y="273.349082"/>
     <use style="fill:#ff0000;stroke:#ff0000;" x="210.854227" xlink:href="#m88b79c11b1" y="258.796349"/>
     <use style="fill:#ff0000;stroke:#ff0000;" x="212.088655" xlink:href="#m88b79c11b1" y="272.987157"/>
     <use style="fill:#ff0000;stroke:#ff0000;" x="213.323083" xlink:href="#m88b79c11b1" y="264.475025"/>
     <use style="fill:#ff0000;stroke:#ff0000;" x="214.557511" xlink:href="#m88b79c11b1" y="270.142036"/>
     <use style="fill:#ff0000;stroke:#ff0000;" x="215.791939" xlink:href="#m88b79c11b1" y="270.669316"/>
     <use style="fill:#ff0000;stroke:#ff0000;" x="217.026367" xlink:href="#m88b79c11b1" y="267.825605"/>
     <use style="fill:#ff0000;stroke:#ff0000;" x="218.260795" xlink:href="#m88b79c11b1" y="279.056123"/>
     <use style="fill:#ff0000;stroke:#ff0000;" x="219.495223" xlink:href="#m88b79c11b1" y="280.323283"/>
     <use style="fill:#ff0000;stroke:#ff0000;" x="220.729651" xlink:href="#m88b79c11b1" y="270.932134"/>
     <use style="fill:#ff0000;stroke:#ff0000;" x="221.964079" xlink:href="#m88b79c11b1" y="278.804282"/>
     <use style="fill:#ff0000;stroke:#ff0000;" x="223.198507" xlink:href="#m88b79c11b1" y="281.464777"/>
     <use style="fill:#ff0000;stroke:#ff0000;" x="224.432935" xlink:href="#m88b79c11b1" y="275.396626"/>
     <use style="fill:#ff0000;stroke:#ff0000;" x="225.667363" xlink:href="#m88b79c11b1" y="262.152848"/>
     <use style="fill:#ff0000;stroke:#ff0000;" x="226.901791" xlink:href="#m88b79c11b1" y="274.492712"/>
     <use style="fill:#ff0000;stroke:#ff0000;" x="228.136218" xlink:href="#m88b79c11b1" y="283.25391"/>
     <use style="fill:#ff0000;stroke:#ff0000;" x="229.370646" xlink:href="#m88b79c11b1" y="269.301417"/>
     <use style="fill:#ff0000;stroke:#ff0000;" x="230.605074" xlink:href="#m88b79c11b1" y="269.258822"/>
     <use style="fill:#ff0000;stroke:#ff0000;" x="231.839502" xlink:href="#m88b79c11b1" y="274.303189"/>
     <use style="fill:#ff0000;stroke:#ff0000;" x="233.07393" xlink:href="#m88b79c11b1" y="284.374802"/>
     <use style="fill:#ff0000;stroke:#ff0000;" x="234.308358" xlink:href="#m88b79c11b1" y="286.290991"/>
     <use style="fill:#ff0000;stroke:#ff0000;" x="235.542786" xlink:href="#m88b79c11b1" y="289.611017"/>
     <use style="fill:#ff0000;stroke:#ff0000;" x="236.777214" xlink:href="#m88b79c11b1" y="283.021389"/>
     <use style="fill:#ff0000;stroke:#ff0000;" x="238.011642" xlink:href="#m88b79c11b1" y="279.452179"/>
     <use style="fill:#ff0000;stroke:#ff0000;" x="239.24607" xlink:href="#m88b79c11b1" y="273.579996"/>
     <use style="fill:#ff0000;stroke:#ff0000;" x="240.480498" xlink:href="#m88b79c11b1" y="289.139585"/>
     <use style="fill:#ff0000;stroke:#ff0000;" x="241.714926" xlink:href="#m88b79c11b1" y="281.634793"/>
     <use style="fill:#ff0000;stroke:#ff0000;" x="242.949354" xlink:href="#m88b79c11b1" y="280.03849"/>
     <use style="fill:#ff0000;stroke:#ff0000;" x="244.183782" xlink:href="#m88b79c11b1" y="285.970837"/>
     <use style="fill:#ff0000;stroke:#ff0000;" x="245.418209" xlink:href="#m88b79c11b1" y="277.510048"/>
     <use style="fill:#ff0000;stroke:#ff0000;" x="246.652637" xlink:href="#m88b79c11b1" y="278.210682"/>
     <use style="fill:#ff0000;stroke:#ff0000;" x="247.887065" xlink:href="#m88b79c11b1" y="283.379885"/>
     <use style="fill:#ff0000;stroke:#ff0000;" x="249.121493" xlink:href="#m88b79c11b1" y="283.711663"/>
     <use style="fill:#ff0000;stroke:#ff0000;" x="250.355921" xlink:href="#m88b79c11b1" y="285.522791"/>
     <use style="fill:#ff0000;stroke:#ff0000;" x="251.590349" xlink:href="#m88b79c11b1" y="283.641276"/>
     <use style="fill:#ff0000;stroke:#ff0000;" x="252.824777" xlink:href="#m88b79c11b1" y="278.341381"/>
     <use style="fill:#ff0000;stroke:#ff0000;" x="254.059205" xlink:href="#m88b79c11b1" y="284.457991"/>
     <use style="fill:#ff0000;stroke:#ff0000;" x="255.293633" xlink:href="#m88b79c11b1" y="286.740334"/>
     <use style="fill:#ff0000;stroke:#ff0000;" x="256.528061" xlink:href="#m88b79c11b1" y="294.534289"/>
     <use style="fill:#ff0000;stroke:#ff0000;" x="257.762489" xlink:href="#m88b79c11b1" y="290.16934"/>
     <use style="fill:#ff0000;stroke:#ff0000;" x="258.996917" xlink:href="#m88b79c11b1" y="285.650707"/>
     <use style="fill:#ff0000;stroke:#ff0000;" x="260.231345" xlink:href="#m88b79c11b1" y="285.893479"/>
     <use style="fill:#ff0000;stroke:#ff0000;" x="261.465773" xlink:href="#m88b79c11b1" y="278.30084"/>
     <use style="fill:#ff0000;stroke:#ff0000;" x="262.7002" xlink:href="#m88b79c11b1" y="285.482597"/>
     <use style="fill:#ff0000;stroke:#ff0000;" x="263.934628" xlink:href="#m88b79c11b1" y="287.033976"/>
     <use style="fill:#ff0000;stroke:#ff0000;" x="265.169056" xlink:href="#m88b79c11b1" y="295.488"/>
     <use style="fill:#ff0000;stroke:#ff0000;" x="266.403484" xlink:href="#m88b79c11b1" y="293.339709"/>
     <use style="fill:#ff0000;stroke:#ff0000;" x="267.637912" xlink:href="#m88b79c11b1" y="293.172071"/>
     <use style="fill:#ff0000;stroke:#ff0000;" x="268.87234" xlink:href="#m88b79c11b1" y="283.61077"/>
     <use style="fill:#ff0000;stroke:#ff0000;" x="270.106768" xlink:href="#m88b79c11b1" y="288.337758"/>
     <use style="fill:#ff0000;stroke:#ff0000;" x="271.341196" xlink:href="#m88b79c11b1" y="286.605933"/>
     <use style="fill:#ff0000;stroke:#ff0000;" x="272.575624" xlink:href="#m88b79c11b1" y="291.731403"/>
     <use style="fill:#ff0000;stroke:#ff0000;" x="273.810052" xlink:href="#m88b79c11b1" y="286.140828"/>
     <use style="fill:#ff0000;stroke:#ff0000;" x="275.04448" xlink:href="#m88b79c11b1" y="282.923774"/>
     <use style="fill:#ff0000;stroke:#ff0000;" x="276.278908" xlink:href="#m88b79c11b1" y="291.662743"/>
     <use style="fill:#ff0000;stroke:#ff0000;" x="277.513336" xlink:href="#m88b79c11b1" y="290.751949"/>
     <use style="fill:#ff0000;stroke:#ff0000;" x="278.747764" xlink:href="#m88b79c11b1" y="290.178267"/>
     <use style="fill:#ff0000;stroke:#ff0000;" x="279.982191" xlink:href="#m88b79c11b1" y="280.59661"/>
     <use style="fill:#ff0000;stroke:#ff0000;" x="281.216619" xlink:href="#m88b79c11b1" y="289.092572"/>
     <use style="fill:#ff0000;stroke:#ff0000;" x="282.451047" xlink:href="#m88b79c11b1" y="284.181328"/>
     <use style="fill:#ff0000;stroke:#ff0000;" x="283.685475" xlink:href="#m88b79c11b1" y="295.257286"/>
     <use style="fill:#ff0000;stroke:#ff0000;" x="284.919903" xlink:href="#m88b79c11b1" y="286.792505"/>
     <use style="fill:#ff0000;stroke:#ff0000;" x="286.154331" xlink:href="#m88b79c11b1" y="294.058337"/>
     <use style="fill:#ff0000;stroke:#ff0000;" x="287.388759" xlink:href="#m88b79c11b1" y="291.070482"/>
     <use style="fill:#ff0000;stroke:#ff0000;" x="288.623187" xlink:href="#m88b79c11b1" y="284.354589"/>
     <use style="fill:#ff0000;stroke:#ff0000;" x="289.857615" xlink:href="#m88b79c11b1" y="279.693111"/>
     <use style="fill:#ff0000;stroke:#ff0000;" x="291.092043" xlink:href="#m88b79c11b1" y="277.814624"/>
     <use style="fill:#ff0000;stroke:#ff0000;" x="292.326471" xlink:href="#m88b79c11b1" y="293.624986"/>
     <use style="fill:#ff0000;stroke:#ff0000;" x="293.560899" xlink:href="#m88b79c11b1" y="283.981237"/>
     <use style="fill:#ff0000;stroke:#ff0000;" x="294.795327" xlink:href="#m88b79c11b1" y="283.319311"/>
     <use style="fill:#ff0000;stroke:#ff0000;" x="296.029755" xlink:href="#m88b79c11b1" y="278.192914"/>
     <use style="fill:#ff0000;stroke:#ff0000;" x="297.264183" xlink:href="#m88b79c11b1" y="291.560065"/>
     <use style="fill:#ff0000;stroke:#ff0000;" x="298.49861" xlink:href="#m88b79c11b1" y="283.968548"/>
     <use style="fill:#ff0000;stroke:#ff0000;" x="299.733038" xlink:href="#m88b79c11b1" y="283.787058"/>
     <use style="fill:#ff0000;stroke:#ff0000;" x="300.967466" xlink:href="#m88b79c11b1" y="276.737073"/>
     <use style="fill:#ff0000;stroke:#ff0000;" x="302.201894" xlink:href="#m88b79c11b1" y="285.76164"/>
     <use style="fill:#ff0000;stroke:#ff0000;" x="303.436322" xlink:href="#m88b79c11b1" y="279.988484"/>
     <use style="fill:#ff0000;stroke:#ff0000;" x="304.67075" xlink:href="#m88b79c11b1" y="278.909145"/>
     <use style="fill:#ff0000;stroke:#ff0000;" x="305.905178" xlink:href="#m88b79c11b1" y="285.989905"/>
     <use style="fill:#ff0000;stroke:#ff0000;" x="307.139606" xlink:href="#m88b79c11b1" y="287.913804"/>
     <use style="fill:#ff0000;stroke:#ff0000;" x="308.374034" xlink:href="#m88b79c11b1" y="284.941948"/>
     <use style="fill:#ff0000;stroke:#ff0000;" x="309.608462" xlink:href="#m88b79c11b1" y="284.207948"/>
     <use style="fill:#ff0000;stroke:#ff0000;" x="310.84289" xlink:href="#m88b79c11b1" y="274.129116"/>
     <use style="fill:#ff0000;stroke:#ff0000;" x="312.077318" xlink:href="#m88b79c11b1" y="284.892569"/>
     <use style="fill:#ff0000;stroke:#ff0000;" x="313.311746" xlink:href="#m88b79c11b1" y="281.283342"/>
     <use style="fill:#ff0000;stroke:#ff0000;" x="314.546174" xlink:href="#m88b79c11b1" y="277.606342"/>
     <use style="fill:#ff0000;stroke:#ff0000;" x="315.780601" xlink:href="#m88b79c11b1" y="279.8785"/>
     <use style="fill:#ff0000;stroke:#ff0000;" x="317.015029" xlink:href="#m88b79c11b1" y="270.772948"/>
     <use style="fill:#ff0000;stroke:#ff0000;" x="318.249457" xlink:href="#m88b79c11b1" y="273.038623"/>
     <use style="fill:#ff0000;stroke:#ff0000;" x="319.483885" xlink:href="#m88b79c11b1" y="278.860886"/>
     <use style="fill:#ff0000;stroke:#ff0000;" x="320.718313" xlink:href="#m88b79c11b1" y="277.222158"/>
     <use style="fill:#ff0000;stroke:#ff0000;" x="321.952741" xlink:href="#m88b79c11b1" y="271.652496"/>
     <use style="fill:#ff0000;stroke:#ff0000;" x="323.187169" xlink:href="#m88b79c11b1" y="269.554295"/>
     <use style="fill:#ff0000;stroke:#ff0000;" x="324.421597" xlink:href="#m88b79c11b1" y="280.865294"/>
     <use style="fill:#ff0000;stroke:#ff0000;" x="325.656025" xlink:href="#m88b79c11b1" y="274.981581"/>
     <use style="fill:#ff0000;stroke:#ff0000;" x="326.890453" xlink:href="#m88b79c11b1" y="279.004063"/>
     <use style="fill:#ff0000;stroke:#ff0000;" x="328.124881" xlink:href="#m88b79c11b1" y="277.734276"/>
     <use style="fill:#ff0000;stroke:#ff0000;" x="329.359309" xlink:href="#m88b79c11b1" y="267.000277"/>
     <use style="fill:#ff0000;stroke:#ff0000;" x="330.593737" xlink:href="#m88b79c11b1" y="269.333512"/>
     <use style="fill:#ff0000;stroke:#ff0000;" x="331.828165" xlink:href="#m88b79c11b1" y="270.608692"/>
     <use style="fill:#ff0000;stroke:#ff0000;" x="333.062592" xlink:href="#m88b79c11b1" y="266.526828"/>
     <use style="fill:#ff0000;stroke:#ff0000;" x="334.29702" xlink:href="#m88b79c11b1" y="270.583416"/>
     <use style="fill:#ff0000;stroke:#ff0000;" x="335.531448" xlink:href="#m88b79c11b1" y="271.909488"/>
     <use style="fill:#ff0000;stroke:#ff0000;" x="336.765876" xlink:href="#m88b79c11b1" y="263.744573"/>
     <use style="fill:#ff0000;stroke:#ff0000;" x="338.000304" xlink:href="#m88b79c11b1" y="264.552913"/>
     <use style="fill:#ff0000;stroke:#ff0000;" x="339.234732" xlink:href="#m88b79c11b1" y="263.978243"/>
     <use style="fill:#ff0000;stroke:#ff0000;" x="340.46916" xlink:href="#m88b79c11b1" y="262.074353"/>
     <use style="fill:#ff0000;stroke:#ff0000;" x="341.703588" xlink:href="#m88b79c11b1" y="272.133904"/>
     <use style="fill:#ff0000;stroke:#ff0000;" x="342.938016" xlink:href="#m88b79c11b1" y="274.992643"/>
     <use style="fill:#ff0000;stroke:#ff0000;" x="344.172444" xlink:href="#m88b79c11b1" y="259.814847"/>
     <use style="fill:#ff0000;stroke:#ff0000;" x="345.406872" xlink:href="#m88b79c11b1" y="267.77479"/>
     <use style="fill:#ff0000;stroke:#ff0000;" x="346.6413" xlink:href="#m88b79c11b1" y="256.02766"/>
     <use style="fill:#ff0000;stroke:#ff0000;" x="347.875728" xlink:href="#m88b79c11b1" y="270.147139"/>
     <use style="fill:#ff0000;stroke:#ff0000;" x="349.110156" xlink:href="#m88b79c11b1" y="257.664729"/>
     <use style="fill:#ff0000;stroke:#ff0000;" x="350.344583" xlink:href="#m88b79c11b1" y="259.433164"/>
     <use style="fill:#ff0000;stroke:#ff0000;" x="351.579011" xlink:href="#m88b79c11b1" y="259.999153"/>
     <use style="fill:#ff0000;stroke:#ff0000;" x="352.813439" xlink:href="#m88b79c11b1" y="267.158811"/>
     <use style="fill:#ff0000;stroke:#ff0000;" x="354.047867" xlink:href="#m88b79c11b1" y="265.36179"/>
     <use style="fill:#ff0000;stroke:#ff0000;" x="355.282295" xlink:href="#m88b79c11b1" y="250.012896"/>
     <use style="fill:#ff0000;stroke:#ff0000;" x="356.516723" xlink:href="#m88b79c11b1" y="258.666484"/>
     <use style="fill:#ff0000;stroke:#ff0000;" x="357.751151" xlink:href="#m88b79c11b1" y="257.963732"/>
     <use style="fill:#ff0000;stroke:#ff0000;" x="358.985579" xlink:href="#m88b79c11b1" y="250.471988"/>
     <use style="fill:#ff0000;stroke:#ff0000;" x="360.220007" xlink:href="#m88b79c11b1" y="245.922234"/>
     <use style="fill:#ff0000;stroke:#ff0000;" x="361.454435" xlink:href="#m88b79c11b1" y="249.403661"/>
     <use style="fill:#ff0000;stroke:#ff0000;" x="362.688863" xlink:href="#m88b79c11b1" y="246.891103"/>
     <use style="fill:#ff0000;stroke:#ff0000;" x="363.923291" xlink:href="#m88b79c11b1" y="259.924654"/>
     <use style="fill:#ff0000;stroke:#ff0000;" x="365.157719" xlink:href="#m88b79c11b1" y="243.841725"/>
     <use style="fill:#ff0000;stroke:#ff0000;" x="366.392147" xlink:href="#m88b79c11b1" y="235.17763"/>
     <use style="fill:#ff0000;stroke:#ff0000;" x="367.626574" xlink:href="#m88b79c11b1" y="255.698953"/>
     <use style="fill:#ff0000;stroke:#ff0000;" x="368.861002" xlink:href="#m88b79c11b1" y="235.914965"/>
     <use style="fill:#ff0000;stroke:#ff0000;" x="370.09543" xlink:href="#m88b79c11b1" y="237.322077"/>
     <use style="fill:#ff0000;stroke:#ff0000;" x="371.329858" xlink:href="#m88b79c11b1" y="241.27732"/>
     <use style="fill:#ff0000;stroke:#ff0000;" x="372.564286" xlink:href="#m88b79c11b1" y="234.260578"/>
     <use style="fill:#ff0000;stroke:#ff0000;" x="373.798714" xlink:href="#m88b79c11b1" y="248.009582"/>
     <use style="fill:#ff0000;stroke:#ff0000;" x="375.033142" xlink:href="#m88b79c11b1" y="233.52"/>
     <use style="fill:#ff0000;stroke:#ff0000;" x="376.26757" xlink:href="#m88b79c11b1" y="238.648092"/>
     <use style="fill:#ff0000;stroke:#ff0000;" x="377.501998" xlink:href="#m88b79c11b1" y="238.222265"/>
     <use style="fill:#ff0000;stroke:#ff0000;" x="378.736426" xlink:href="#m88b79c11b1" y="240.927644"/>
     <use style="fill:#ff0000;stroke:#ff0000;" x="379.970854" xlink:href="#m88b79c11b1" y="240.413581"/>
     <use style="fill:#ff0000;stroke:#ff0000;" x="381.205282" xlink:href="#m88b79c11b1" y="230.943001"/>
     <use style="fill:#ff0000;stroke:#ff0000;" x="382.43971" xlink:href="#m88b79c11b1" y="234.112442"/>
     <use style="fill:#ff0000;stroke:#ff0000;" x="383.674138" xlink:href="#m88b79c11b1" y="238.299253"/>
     <use style="fill:#ff0000;stroke:#ff0000;" x="384.908566" xlink:href="#m88b79c11b1" y="225.729718"/>
     <use style="fill:#ff0000;stroke:#ff0000;" x="386.142993" xlink:href="#m88b79c11b1" y="210.627688"/>
     <use style="fill:#ff0000;stroke:#ff0000;" x="387.377421" xlink:href="#m88b79c11b1" y="223.305483"/>
     <use style="fill:#ff0000;stroke:#ff0000;" x="388.611849" xlink:href="#m88b79c11b1" y="236.319983"/>
     <use style="fill:#ff0000;stroke:#ff0000;" x="389.846277" xlink:href="#m88b79c11b1" y="230.835405"/>
     <use style="fill:#ff0000;stroke:#ff0000;" x="391.080705" xlink:href="#m88b79c11b1" y="202.633862"/>
     <use style="fill:#ff0000;stroke:#ff0000;" x="392.315133" xlink:href="#m88b79c11b1" y="224.573217"/>
     <use style="fill:#ff0000;stroke:#ff0000;" x="393.549561" xlink:href="#m88b79c11b1" y="206.605671"/>
     <use style="fill:#ff0000;stroke:#ff0000;" x="394.783989" xlink:href="#m88b79c11b1" y="235.514556"/>
     <use style="fill:#ff0000;stroke:#ff0000;" x="396.018417" xlink:href="#m88b79c11b1" y="226.12473"/>
     <use style="fill:#ff0000;stroke:#ff0000;" x="397.252845" xlink:href="#m88b79c11b1" y="210.783324"/>
     <use style="fill:#ff0000;stroke:#ff0000;" x="398.487273" xlink:href="#m88b79c11b1" y="213.499097"/>
    </g>
   </g>
   <g id="line2d_15">
    <path clip-path="url(#p708fde0151)" d="M 73.832727 69.103684 
L 81.239295 84.614088 
L 88.645862 99.552916 
L 96.05243 113.920169 
L 102.22457 125.45626 
L 108.396709 136.595422 
L 114.568849 147.337658 
L 120.740989 157.682965 
L 126.913128 167.631345 
L 133.085268 177.182798 
L 139.257408 186.337323 
L 145.429547 195.09492 
L 151.601687 203.45559 
L 157.773826 211.419332 
L 163.945966 218.986146 
L 170.118106 226.156033 
L 176.290245 232.928993 
L 182.462385 239.305025 
L 187.400097 244.120062 
L 192.337809 248.681066 
L 197.27552 252.988037 
L 202.213232 257.040973 
L 207.150944 260.839876 
L 212.088655 264.384746 
L 217.026367 267.675582 
L 221.964079 270.712384 
L 226.901791 273.495152 
L 231.839502 276.023887 
L 236.777214 278.298588 
L 241.714926 280.319255 
L 246.652637 282.085889 
L 251.590349 283.598489 
L 256.528061 284.857056 
L 261.465773 285.861589 
L 266.403484 286.612088 
L 271.341196 287.108554 
L 276.278908 287.350986 
L 281.216619 287.339384 
L 286.154331 287.073749 
L 291.092043 286.55408 
L 296.029755 285.780377 
L 300.967466 284.752641 
L 305.905178 283.470871 
L 310.84289 281.935067 
L 315.780601 280.14523 
L 320.718313 278.101359 
L 325.656025 275.803454 
L 330.593737 273.251516 
L 335.531448 270.445544 
L 340.46916 267.385539 
L 345.406872 264.0715 
L 350.344583 260.503427 
L 355.282295 256.68132 
L 360.220007 252.60518 
L 365.157719 248.275006 
L 370.09543 243.690799 
L 375.033142 238.852558 
L 379.970854 233.760283 
L 386.142993 227.037705 
L 392.315133 219.918199 
L 398.487273 212.401766 
L 398.487273 212.401766 
" style="fill:none;stroke:#008000;stroke-linecap:square;stroke-width:1.5;"/>
   </g>
   <g id="patch_3">
    <path d="M 57.6 307.584 
L 57.6 41.472 
" style="fill:none;stroke:#000000;stroke-linecap:square;stroke-linejoin:miter;stroke-width:0.8;"/>
   </g>
   <g id="patch_4">
    <path d="M 414.72 307.584 
L 414.72 41.472 
" style="fill:none;stroke:#000000;stroke-linecap:square;stroke-linejoin:miter;stroke-width:0.8;"/>
   </g>
   <g id="patch_5">
    <path d="M 57.6 307.584 
L 414.72 307.584 
" style="fill:none;stroke:#000000;stroke-linecap:square;stroke-linejoin:miter;stroke-width:0.8;"/>
   </g>
   <g id="patch_6">
    <path d="M 57.6 41.472 
L 414.72 41.472 
" style="fill:none;stroke:#000000;stroke-linecap:square;stroke-linejoin:miter;stroke-width:0.8;"/>
   </g>
   <g id="text_16">
    <!-- FunctionFitting 15 -->
    <defs>
     <path d="M 9.8125 72.90625 
L 51.703125 72.90625 
L 51.703125 64.59375 
L 19.671875 64.59375 
L 19.671875 43.109375 
L 48.578125 43.109375 
L 48.578125 34.8125 
L 19.671875 34.8125 
L 19.671875 0 
L 9.8125 0 
z
" id="DejaVuSans-70"/>
     <path d="M 54.890625 33.015625 
L 54.890625 0 
L 45.90625 0 
L 45.90625 32.71875 
Q 45.90625 40.484375 42.875 44.328125 
Q 39.84375 48.1875 33.796875 48.1875 
Q 26.515625 48.1875 22.3125 43.546875 
Q 18.109375 38.921875 18.109375 30.90625 
L 18.109375 0 
L 9.078125 0 
L 9.078125 54.6875 
L 18.109375 54.6875 
L 18.109375 46.1875 
Q 21.34375 51.125 25.703125 53.5625 
Q 30.078125 56 35.796875 56 
Q 45.21875 56 50.046875 50.171875 
Q 54.890625 44.34375 54.890625 33.015625 
z
" id="DejaVuSans-110"/>
     <path d="M 48.78125 52.59375 
L 48.78125 44.1875 
Q 44.96875 46.296875 41.140625 47.34375 
Q 37.3125 48.390625 33.40625 48.390625 
Q 24.65625 48.390625 19.8125 42.84375 
Q 14.984375 37.3125 14.984375 27.296875 
Q 14.984375 17.28125 19.8125 11.734375 
Q 24.65625 6.203125 33.40625 6.203125 
Q 37.3125 6.203125 41.140625 7.25 
Q 44.96875 8.296875 48.78125 10.40625 
L 48.78125 2.09375 
Q 45.015625 0.34375 40.984375 -0.53125 
Q 36.96875 -1.421875 32.421875 -1.421875 
Q 20.0625 -1.421875 12.78125 6.34375 
Q 5.515625 14.109375 5.515625 27.296875 
Q 5.515625 40.671875 12.859375 48.328125 
Q 20.21875 56 33.015625 56 
Q 37.15625 56 41.109375 55.140625 
Q 45.0625 54.296875 48.78125 52.59375 
z
" id="DejaVuSans-99"/>
     <path d="M 18.3125 70.21875 
L 18.3125 54.6875 
L 36.8125 54.6875 
L 36.8125 47.703125 
L 18.3125 47.703125 
L 18.3125 18.015625 
Q 18.3125 11.328125 20.140625 9.421875 
Q 21.96875 7.515625 27.59375 7.515625 
L 36.8125 7.515625 
L 36.8125 0 
L 27.59375 0 
Q 17.1875 0 13.234375 3.875 
Q 9.28125 7.765625 9.28125 18.015625 
L 9.28125 47.703125 
L 2.6875 47.703125 
L 2.6875 54.6875 
L 9.28125 54.6875 
L 9.28125 70.21875 
z
" id="DejaVuSans-116"/>
     <path d="M 9.421875 54.6875 
L 18.40625 54.6875 
L 18.40625 0 
L 9.421875 0 
z
M 9.421875 75.984375 
L 18.40625 75.984375 
L 18.40625 64.59375 
L 9.421875 64.59375 
z
" id="DejaVuSans-105"/>
     <path d="M 30.609375 48.390625 
Q 23.390625 48.390625 19.1875 42.75 
Q 14.984375 37.109375 14.984375 27.296875 
Q 14.984375 17.484375 19.15625 11.84375 
Q 23.34375 6.203125 30.609375 6.203125 
Q 37.796875 6.203125 41.984375 11.859375 
Q 46.1875 17.53125 46.1875 27.296875 
Q 46.1875 37.015625 41.984375 42.703125 
Q 37.796875 48.390625 30.609375 48.390625 
z
M 30.609375 56 
Q 42.328125 56 49.015625 48.375 
Q 55.71875 40.765625 55.71875 27.296875 
Q 55.71875 13.875 49.015625 6.21875 
Q 42.328125 -1.421875 30.609375 -1.421875 
Q 18.84375 -1.421875 12.171875 6.21875 
Q 5.515625 13.875 5.515625 27.296875 
Q 5.515625 40.765625 12.171875 48.375 
Q 18.84375 56 30.609375 56 
z
" id="DejaVuSans-111"/>
     <path d="M 45.40625 27.984375 
Q 45.40625 37.75 41.375 43.109375 
Q 37.359375 48.484375 30.078125 48.484375 
Q 22.859375 48.484375 18.828125 43.109375 
Q 14.796875 37.75 14.796875 27.984375 
Q 14.796875 18.265625 18.828125 12.890625 
Q 22.859375 7.515625 30.078125 7.515625 
Q 37.359375 7.515625 41.375 12.890625 
Q 45.40625 18.265625 45.40625 27.984375 
z
M 54.390625 6.78125 
Q 54.390625 -7.171875 48.1875 -13.984375 
Q 42 -20.796875 29.203125 -20.796875 
Q 24.46875 -20.796875 20.265625 -20.09375 
Q 16.0625 -19.390625 12.109375 -17.921875 
L 12.109375 -9.1875 
Q 16.0625 -11.328125 19.921875 -12.34375 
Q 23.78125 -13.375 27.78125 -13.375 
Q 36.625 -13.375 41.015625 -8.765625 
Q 45.40625 -4.15625 45.40625 5.171875 
L 45.40625 9.625 
Q 42.625 4.78125 38.28125 2.390625 
Q 33.9375 0 27.875 0 
Q 17.828125 0 11.671875 7.65625 
Q 5.515625 15.328125 5.515625 27.984375 
Q 5.515625 40.671875 11.671875 48.328125 
Q 17.828125 56 27.875 56 
Q 33.9375 56 38.28125 53.609375 
Q 42.625 51.21875 45.40625 46.390625 
L 45.40625 54.6875 
L 54.390625 54.6875 
z
" id="DejaVuSans-103"/>
    </defs>
    <g transform="translate(181.680937 35.472)scale(0.12 -0.12)">
     <use xlink:href="#DejaVuSans-70"/>
     <use x="57.441406" xlink:href="#DejaVuSans-117"/>
     <use x="120.820312" xlink:href="#DejaVuSans-110"/>
     <use x="184.199219" xlink:href="#DejaVuSans-99"/>
     <use x="239.179688" xlink:href="#DejaVuSans-116"/>
     <use x="278.388672" xlink:href="#DejaVuSans-105"/>
     <use x="306.171875" xlink:href="#DejaVuSans-111"/>
     <use x="367.353516" xlink:href="#DejaVuSans-110"/>
     <use x="430.732422" xlink:href="#DejaVuSans-70"/>
     <use x="488.142578" xlink:href="#DejaVuSans-105"/>
     <use x="515.925781" xlink:href="#DejaVuSans-116"/>
     <use x="555.134766" xlink:href="#DejaVuSans-116"/>
     <use x="594.34375" xlink:href="#DejaVuSans-105"/>
     <use x="622.126953" xlink:href="#DejaVuSans-110"/>
     <use x="685.505859" xlink:href="#DejaVuSans-103"/>
     <use x="748.982422" xlink:href="#DejaVuSans-32"/>
     <use x="780.769531" xlink:href="#DejaVuSans-49"/>
     <use x="844.392578" xlink:href="#DejaVuSans-53"/>
    </g>
   </g>
   <g id="legend_1">
    <g id="patch_7">
     <path d="M 299.83875 78.82825 
L 407.72 78.82825 
Q 409.72 78.82825 409.72 76.82825 
L 409.72 48.472 
Q 409.72 46.472 407.72 46.472 
L 299.83875 46.472 
Q 297.83875 46.472 297.83875 48.472 
L 297.83875 76.82825 
Q 297.83875 78.82825 299.83875 78.82825 
z
" style="fill:#ffffff;opacity:0.8;stroke:#cccccc;stroke-linejoin:miter;"/>
    </g>
    <g id="line2d_16"/>
    <g id="line2d_17">
     <g>
      <use style="fill:#ff0000;stroke:#ff0000;" x="311.83875" xlink:href="#m88b79c11b1" y="54.570437"/>
     </g>
    </g>
    <g id="text_17">
     <!-- measured data -->
     <defs>
      <path d="M 52 44.1875 
Q 55.375 50.25 60.0625 53.125 
Q 64.75 56 71.09375 56 
Q 79.640625 56 84.28125 50.015625 
Q 88.921875 44.046875 88.921875 33.015625 
L 88.921875 0 
L 79.890625 0 
L 79.890625 32.71875 
Q 79.890625 40.578125 77.09375 44.375 
Q 74.3125 48.1875 68.609375 48.1875 
Q 61.625 48.1875 57.5625 43.546875 
Q 53.515625 38.921875 53.515625 30.90625 
L 53.515625 0 
L 44.484375 0 
L 44.484375 32.71875 
Q 44.484375 40.625 41.703125 44.40625 
Q 38.921875 48.1875 33.109375 48.1875 
Q 26.21875 48.1875 22.15625 43.53125 
Q 18.109375 38.875 18.109375 30.90625 
L 18.109375 0 
L 9.078125 0 
L 9.078125 54.6875 
L 18.109375 54.6875 
L 18.109375 46.1875 
Q 21.1875 51.21875 25.484375 53.609375 
Q 29.78125 56 35.6875 56 
Q 41.65625 56 45.828125 52.96875 
Q 50 49.953125 52 44.1875 
z
" id="DejaVuSans-109"/>
      <path d="M 41.109375 46.296875 
Q 39.59375 47.171875 37.8125 47.578125 
Q 36.03125 48 33.890625 48 
Q 26.265625 48 22.1875 43.046875 
Q 18.109375 38.09375 18.109375 28.8125 
L 18.109375 0 
L 9.078125 0 
L 9.078125 54.6875 
L 18.109375 54.6875 
L 18.109375 46.1875 
Q 20.953125 51.171875 25.484375 53.578125 
Q 30.03125 56 36.53125 56 
Q 37.453125 56 38.578125 55.875 
Q 39.703125 55.765625 41.0625 55.515625 
z
" id="DejaVuSans-114"/>
      <path d="M 45.40625 46.390625 
L 45.40625 75.984375 
L 54.390625 75.984375 
L 54.390625 0 
L 45.40625 0 
L 45.40625 8.203125 
Q 42.578125 3.328125 38.25 0.953125 
Q 33.9375 -1.421875 27.875 -1.421875 
Q 17.96875 -1.421875 11.734375 6.484375 
Q 5.515625 14.40625 5.515625 27.296875 
Q 5.515625 40.1875 11.734375 48.09375 
Q 17.96875 56 27.875 56 
Q 33.9375 56 38.25 53.625 
Q 42.578125 51.265625 45.40625 46.390625 
z
M 14.796875 27.296875 
Q 14.796875 17.390625 18.875 11.75 
Q 22.953125 6.109375 30.078125 6.109375 
Q 37.203125 6.109375 41.296875 11.75 
Q 45.40625 17.390625 45.40625 27.296875 
Q 45.40625 37.203125 41.296875 42.84375 
Q 37.203125 48.484375 30.078125 48.484375 
Q 22.953125 48.484375 18.875 42.84375 
Q 14.796875 37.203125 14.796875 27.296875 
z
" id="DejaVuSans-100"/>
     </defs>
     <g transform="translate(329.83875 58.070437)scale(0.1 -0.1)">
      <use xlink:href="#DejaVuSans-109"/>
      <use x="97.412109" xlink:href="#DejaVuSans-101"/>
      <use x="158.935547" xlink:href="#DejaVuSans-97"/>
      <use x="220.214844" xlink:href="#DejaVuSans-115"/>
      <use x="272.314453" xlink:href="#DejaVuSans-117"/>
      <use x="335.693359" xlink:href="#DejaVuSans-114"/>
      <use x="376.775391" xlink:href="#DejaVuSans-101"/>
      <use x="438.298828" xlink:href="#DejaVuSans-100"/>
      <use x="501.775391" xlink:href="#DejaVuSans-32"/>
      <use x="533.5625" xlink:href="#DejaVuSans-100"/>
      <use x="597.039062" xlink:href="#DejaVuSans-97"/>
      <use x="658.318359" xlink:href="#DejaVuSans-116"/>
      <use x="697.527344" xlink:href="#DejaVuSans-97"/>
     </g>
    </g>
    <g id="line2d_18">
     <path d="M 301.83875 69.248562 
L 321.83875 69.248562 
" style="fill:none;stroke:#008000;stroke-linecap:square;stroke-width:1.5;"/>
    </g>
    <g id="line2d_19"/>
    <g id="text_18">
     <!-- linear data -->
     <g transform="translate(329.83875 72.748562)scale(0.1 -0.1)">
      <use xlink:href="#DejaVuSans-108"/>
      <use x="27.783203" xlink:href="#DejaVuSans-105"/>
      <use x="55.566406" xlink:href="#DejaVuSans-110"/>
      <use x="118.945312" xlink:href="#DejaVuSans-101"/>
      <use x="180.46875" xlink:href="#DejaVuSans-97"/>
      <use x="241.748047" xlink:href="#DejaVuSans-114"/>
      <use x="282.861328" xlink:href="#DejaVuSans-32"/>
      <use x="314.648438" xlink:href="#DejaVuSans-100"/>
      <use x="378.125" xlink:href="#DejaVuSans-97"/>
      <use x="439.404297" xlink:href="#DejaVuSans-116"/>
      <use x="478.613281" xlink:href="#DejaVuSans-97"/>
     </g>
    </g>
   </g>
  </g>
 </g>
 <defs>
  <clipPath id="p708fde0151">
   <rect height="266.112" width="357.12" x="57.6" y="41.472"/>
  </clipPath>
 </defs>
</svg>
