<?xml version="1.0" encoding="utf-8" standalone="no"?>
<!DOCTYPE svg PUBLIC "-//W3C//DTD SVG 1.1//EN"
  "http://www.w3.org/Graphics/SVG/1.1/DTD/svg11.dtd">
<!-- Created with matplotlib (https://matplotlib.org/) -->
<svg height="345.6pt" version="1.1" viewBox="0 0 460.8 345.6" width="460.8pt" xmlns="http://www.w3.org/2000/svg" xmlns:xlink="http://www.w3.org/1999/xlink">
 <defs>
  <style type="text/css">
*{stroke-linecap:butt;stroke-linejoin:round;}
  </style>
 </defs>
 <g id="figure_1">
  <g id="patch_1">
   <path d="M 0 345.6 
L 460.8 345.6 
L 460.8 0 
L 0 0 
z
" style="fill:#ffffff;"/>
  </g>
  <g id="axes_1">
   <g id="patch_2">
    <path d="M 57.6 307.584 
L 414.72 307.584 
L 414.72 41.472 
L 57.6 41.472 
z
" style="fill:#ffffff;"/>
   </g>
   <g id="matplotlib.axis_1">
    <g id="xtick_1">
     <g id="line2d_1">
      <defs>
       <path d="M 0 0 
L 0 3.5 
" id="me5ff15f5b8" style="stroke:#000000;stroke-width:0.8;"/>
      </defs>
      <g>
       <use style="stroke:#000000;stroke-width:0.8;" x="106.735381" xlink:href="#me5ff15f5b8" y="307.584"/>
      </g>
     </g>
     <g id="text_1">
      <!-- 20 -->
      <defs>
       <path d="M 19.1875 8.296875 
L 53.609375 8.296875 
L 53.609375 0 
L 7.328125 0 
L 7.328125 8.296875 
Q 12.9375 14.109375 22.625 23.890625 
Q 32.328125 33.6875 34.8125 36.53125 
Q 39.546875 41.84375 41.421875 45.53125 
Q 43.3125 49.21875 43.3125 52.78125 
Q 43.3125 58.59375 39.234375 62.25 
Q 35.15625 65.921875 28.609375 65.921875 
Q 23.96875 65.921875 18.8125 64.3125 
Q 13.671875 62.703125 7.8125 59.421875 
L 7.8125 69.390625 
Q 13.765625 71.78125 18.9375 73 
Q 24.125 74.21875 28.421875 74.21875 
Q 39.75 74.21875 46.484375 68.546875 
Q 53.21875 62.890625 53.21875 53.421875 
Q 53.21875 48.921875 51.53125 44.890625 
Q 49.859375 40.875 45.40625 35.40625 
Q 44.1875 33.984375 37.640625 27.21875 
Q 31.109375 20.453125 19.1875 8.296875 
z
" id="DejaVuSans-50"/>
       <path d="M 31.78125 66.40625 
Q 24.171875 66.40625 20.328125 58.90625 
Q 16.5 51.421875 16.5 36.375 
Q 16.5 21.390625 20.328125 13.890625 
Q 24.171875 6.390625 31.78125 6.390625 
Q 39.453125 6.390625 43.28125 13.890625 
Q 47.125 21.390625 47.125 36.375 
Q 47.125 51.421875 43.28125 58.90625 
Q 39.453125 66.40625 31.78125 66.40625 
z
M 31.78125 74.21875 
Q 44.046875 74.21875 50.515625 64.515625 
Q 56.984375 54.828125 56.984375 36.375 
Q 56.984375 17.96875 50.515625 8.265625 
Q 44.046875 -1.421875 31.78125 -1.421875 
Q 19.53125 -1.421875 13.0625 8.265625 
Q 6.59375 17.96875 6.59375 36.375 
Q 6.59375 54.828125 13.0625 64.515625 
Q 19.53125 74.21875 31.78125 74.21875 
z
" id="DejaVuSans-48"/>
      </defs>
      <g transform="translate(100.372881 322.182437)scale(0.1 -0.1)">
       <use xlink:href="#DejaVuSans-50"/>
       <use x="63.623047" xlink:href="#DejaVuSans-48"/>
      </g>
     </g>
    </g>
    <g id="xtick_2">
     <g id="line2d_2">
      <g>
       <use style="stroke:#000000;stroke-width:0.8;" x="170.357747" xlink:href="#me5ff15f5b8" y="307.584"/>
      </g>
     </g>
     <g id="text_2">
      <!-- 40 -->
      <defs>
       <path d="M 37.796875 64.3125 
L 12.890625 25.390625 
L 37.796875 25.390625 
z
M 35.203125 72.90625 
L 47.609375 72.90625 
L 47.609375 25.390625 
L 58.015625 25.390625 
L 58.015625 17.1875 
L 47.609375 17.1875 
L 47.609375 0 
L 37.796875 0 
L 37.796875 17.1875 
L 4.890625 17.1875 
L 4.890625 26.703125 
z
" id="DejaVuSans-52"/>
      </defs>
      <g transform="translate(163.995247 322.182437)scale(0.1 -0.1)">
       <use xlink:href="#DejaVuSans-52"/>
       <use x="63.623047" xlink:href="#DejaVuSans-48"/>
      </g>
     </g>
    </g>
    <g id="xtick_3">
     <g id="line2d_3">
      <g>
       <use style="stroke:#000000;stroke-width:0.8;" x="233.980114" xlink:href="#me5ff15f5b8" y="307.584"/>
      </g>
     </g>
     <g id="text_3">
      <!-- 60 -->
      <defs>
       <path d="M 33.015625 40.375 
Q 26.375 40.375 22.484375 35.828125 
Q 18.609375 31.296875 18.609375 23.390625 
Q 18.609375 15.53125 22.484375 10.953125 
Q 26.375 6.390625 33.015625 6.390625 
Q 39.65625 6.390625 43.53125 10.953125 
Q 47.40625 15.53125 47.40625 23.390625 
Q 47.40625 31.296875 43.53125 35.828125 
Q 39.65625 40.375 33.015625 40.375 
z
M 52.59375 71.296875 
L 52.59375 62.3125 
Q 48.875 64.0625 45.09375 64.984375 
Q 41.3125 65.921875 37.59375 65.921875 
Q 27.828125 65.921875 22.671875 59.328125 
Q 17.53125 52.734375 16.796875 39.40625 
Q 19.671875 43.65625 24.015625 45.921875 
Q 28.375 48.1875 33.59375 48.1875 
Q 44.578125 48.1875 50.953125 41.515625 
Q 57.328125 34.859375 57.328125 23.390625 
Q 57.328125 12.15625 50.6875 5.359375 
Q 44.046875 -1.421875 33.015625 -1.421875 
Q 20.359375 -1.421875 13.671875 8.265625 
Q 6.984375 17.96875 6.984375 36.375 
Q 6.984375 53.65625 15.1875 63.9375 
Q 23.390625 74.21875 37.203125 74.21875 
Q 40.921875 74.21875 44.703125 73.484375 
Q 48.484375 72.75 52.59375 71.296875 
z
" id="DejaVuSans-54"/>
      </defs>
      <g transform="translate(227.617614 322.182437)scale(0.1 -0.1)">
       <use xlink:href="#DejaVuSans-54"/>
       <use x="63.623047" xlink:href="#DejaVuSans-48"/>
      </g>
     </g>
    </g>
    <g id="xtick_4">
     <g id="line2d_4">
      <g>
       <use style="stroke:#000000;stroke-width:0.8;" x="297.60248" xlink:href="#me5ff15f5b8" y="307.584"/>
      </g>
     </g>
     <g id="text_4">
      <!-- 80 -->
      <defs>
       <path d="M 31.78125 34.625 
Q 24.75 34.625 20.71875 30.859375 
Q 16.703125 27.09375 16.703125 20.515625 
Q 16.703125 13.921875 20.71875 10.15625 
Q 24.75 6.390625 31.78125 6.390625 
Q 38.8125 6.390625 42.859375 10.171875 
Q 46.921875 13.96875 46.921875 20.515625 
Q 46.921875 27.09375 42.890625 30.859375 
Q 38.875 34.625 31.78125 34.625 
z
M 21.921875 38.8125 
Q 15.578125 40.375 12.03125 44.71875 
Q 8.5 49.078125 8.5 55.328125 
Q 8.5 64.0625 14.71875 69.140625 
Q 20.953125 74.21875 31.78125 74.21875 
Q 42.671875 74.21875 48.875 69.140625 
Q 55.078125 64.0625 55.078125 55.328125 
Q 55.078125 49.078125 51.53125 44.71875 
Q 48 40.375 41.703125 38.8125 
Q 48.828125 37.15625 52.796875 32.3125 
Q 56.78125 27.484375 56.78125 20.515625 
Q 56.78125 9.90625 50.3125 4.234375 
Q 43.84375 -1.421875 31.78125 -1.421875 
Q 19.734375 -1.421875 13.25 4.234375 
Q 6.78125 9.90625 6.78125 20.515625 
Q 6.78125 27.484375 10.78125 32.3125 
Q 14.796875 37.15625 21.921875 38.8125 
z
M 18.3125 54.390625 
Q 18.3125 48.734375 21.84375 45.5625 
Q 25.390625 42.390625 31.78125 42.390625 
Q 38.140625 42.390625 41.71875 45.5625 
Q 45.3125 48.734375 45.3125 54.390625 
Q 45.3125 60.0625 41.71875 63.234375 
Q 38.140625 66.40625 31.78125 66.40625 
Q 25.390625 66.40625 21.84375 63.234375 
Q 18.3125 60.0625 18.3125 54.390625 
z
" id="DejaVuSans-56"/>
      </defs>
      <g transform="translate(291.23998 322.182437)scale(0.1 -0.1)">
       <use xlink:href="#DejaVuSans-56"/>
       <use x="63.623047" xlink:href="#DejaVuSans-48"/>
      </g>
     </g>
    </g>
    <g id="xtick_5">
     <g id="line2d_5">
      <g>
       <use style="stroke:#000000;stroke-width:0.8;" x="361.224847" xlink:href="#me5ff15f5b8" y="307.584"/>
      </g>
     </g>
     <g id="text_5">
      <!-- 100 -->
      <defs>
       <path d="M 12.40625 8.296875 
L 28.515625 8.296875 
L 28.515625 63.921875 
L 10.984375 60.40625 
L 10.984375 69.390625 
L 28.421875 72.90625 
L 38.28125 72.90625 
L 38.28125 8.296875 
L 54.390625 8.296875 
L 54.390625 0 
L 12.40625 0 
z
" id="DejaVuSans-49"/>
      </defs>
      <g transform="translate(351.681097 322.182437)scale(0.1 -0.1)">
       <use xlink:href="#DejaVuSans-49"/>
       <use x="63.623047" xlink:href="#DejaVuSans-48"/>
       <use x="127.246094" xlink:href="#DejaVuSans-48"/>
      </g>
     </g>
    </g>
    <g id="text_6">
     <!-- x values -->
     <defs>
      <path d="M 54.890625 54.6875 
L 35.109375 28.078125 
L 55.90625 0 
L 45.3125 0 
L 29.390625 21.484375 
L 13.484375 0 
L 2.875 0 
L 24.125 28.609375 
L 4.6875 54.6875 
L 15.28125 54.6875 
L 29.78125 35.203125 
L 44.28125 54.6875 
z
" id="DejaVuSans-120"/>
      <path id="DejaVuSans-32"/>
      <path d="M 2.984375 54.6875 
L 12.5 54.6875 
L 29.59375 8.796875 
L 46.6875 54.6875 
L 56.203125 54.6875 
L 35.6875 0 
L 23.484375 0 
z
" id="DejaVuSans-118"/>
      <path d="M 34.28125 27.484375 
Q 23.390625 27.484375 19.1875 25 
Q 14.984375 22.515625 14.984375 16.5 
Q 14.984375 11.71875 18.140625 8.90625 
Q 21.296875 6.109375 26.703125 6.109375 
Q 34.1875 6.109375 38.703125 11.40625 
Q 43.21875 16.703125 43.21875 25.484375 
L 43.21875 27.484375 
z
M 52.203125 31.203125 
L 52.203125 0 
L 43.21875 0 
L 43.21875 8.296875 
Q 40.140625 3.328125 35.546875 0.953125 
Q 30.953125 -1.421875 24.3125 -1.421875 
Q 15.921875 -1.421875 10.953125 3.296875 
Q 6 8.015625 6 15.921875 
Q 6 25.140625 12.171875 29.828125 
Q 18.359375 34.515625 30.609375 34.515625 
L 43.21875 34.515625 
L 43.21875 35.40625 
Q 43.21875 41.609375 39.140625 45 
Q 35.0625 48.390625 27.6875 48.390625 
Q 23 48.390625 18.546875 47.265625 
Q 14.109375 46.140625 10.015625 43.890625 
L 10.015625 52.203125 
Q 14.9375 54.109375 19.578125 55.046875 
Q 24.21875 56 28.609375 56 
Q 40.484375 56 46.34375 49.84375 
Q 52.203125 43.703125 52.203125 31.203125 
z
" id="DejaVuSans-97"/>
      <path d="M 9.421875 75.984375 
L 18.40625 75.984375 
L 18.40625 0 
L 9.421875 0 
z
" id="DejaVuSans-108"/>
      <path d="M 8.5 21.578125 
L 8.5 54.6875 
L 17.484375 54.6875 
L 17.484375 21.921875 
Q 17.484375 14.15625 20.5 10.265625 
Q 23.53125 6.390625 29.59375 6.390625 
Q 36.859375 6.390625 41.078125 11.03125 
Q 45.3125 15.671875 45.3125 23.6875 
L 45.3125 54.6875 
L 54.296875 54.6875 
L 54.296875 0 
L 45.3125 0 
L 45.3125 8.40625 
Q 42.046875 3.421875 37.71875 1 
Q 33.40625 -1.421875 27.6875 -1.421875 
Q 18.265625 -1.421875 13.375 4.4375 
Q 8.5 10.296875 8.5 21.578125 
z
M 31.109375 56 
z
" id="DejaVuSans-117"/>
      <path d="M 56.203125 29.59375 
L 56.203125 25.203125 
L 14.890625 25.203125 
Q 15.484375 15.921875 20.484375 11.0625 
Q 25.484375 6.203125 34.421875 6.203125 
Q 39.59375 6.203125 44.453125 7.46875 
Q 49.3125 8.734375 54.109375 11.28125 
L 54.109375 2.78125 
Q 49.265625 0.734375 44.1875 -0.34375 
Q 39.109375 -1.421875 33.890625 -1.421875 
Q 20.796875 -1.421875 13.15625 6.1875 
Q 5.515625 13.8125 5.515625 26.8125 
Q 5.515625 40.234375 12.765625 48.109375 
Q 20.015625 56 32.328125 56 
Q 43.359375 56 49.78125 48.890625 
Q 56.203125 41.796875 56.203125 29.59375 
z
M 47.21875 32.234375 
Q 47.125 39.59375 43.09375 43.984375 
Q 39.0625 48.390625 32.421875 48.390625 
Q 24.90625 48.390625 20.390625 44.140625 
Q 15.875 39.890625 15.1875 32.171875 
z
" id="DejaVuSans-101"/>
      <path d="M 44.28125 53.078125 
L 44.28125 44.578125 
Q 40.484375 46.53125 36.375 47.5 
Q 32.28125 48.484375 27.875 48.484375 
Q 21.1875 48.484375 17.84375 46.4375 
Q 14.5 44.390625 14.5 40.28125 
Q 14.5 37.15625 16.890625 35.375 
Q 19.28125 33.59375 26.515625 31.984375 
L 29.59375 31.296875 
Q 39.15625 29.25 43.1875 25.515625 
Q 47.21875 21.78125 47.21875 15.09375 
Q 47.21875 7.46875 41.1875 3.015625 
Q 35.15625 -1.421875 24.609375 -1.421875 
Q 20.21875 -1.421875 15.453125 -0.5625 
Q 10.6875 0.296875 5.421875 2 
L 5.421875 11.28125 
Q 10.40625 8.6875 15.234375 7.390625 
Q 20.0625 6.109375 24.8125 6.109375 
Q 31.15625 6.109375 34.5625 8.28125 
Q 37.984375 10.453125 37.984375 14.40625 
Q 37.984375 18.0625 35.515625 20.015625 
Q 33.0625 21.96875 24.703125 23.78125 
L 21.578125 24.515625 
Q 13.234375 26.265625 9.515625 29.90625 
Q 5.8125 33.546875 5.8125 39.890625 
Q 5.8125 47.609375 11.28125 51.796875 
Q 16.75 56 26.8125 56 
Q 31.78125 56 36.171875 55.265625 
Q 40.578125 54.546875 44.28125 53.078125 
z
" id="DejaVuSans-115"/>
     </defs>
     <g transform="translate(215.349063 335.860562)scale(0.1 -0.1)">
      <use xlink:href="#DejaVuSans-120"/>
      <use x="59.179688" xlink:href="#DejaVuSans-32"/>
      <use x="90.966797" xlink:href="#DejaVuSans-118"/>
      <use x="150.146484" xlink:href="#DejaVuSans-97"/>
      <use x="211.425781" xlink:href="#DejaVuSans-108"/>
      <use x="239.208984" xlink:href="#DejaVuSans-117"/>
      <use x="302.587891" xlink:href="#DejaVuSans-101"/>
      <use x="364.111328" xlink:href="#DejaVuSans-115"/>
     </g>
    </g>
   </g>
   <g id="matplotlib.axis_2">
    <g id="ytick_1">
     <g id="line2d_6">
      <defs>
       <path d="M 0 0 
L -3.5 0 
" id="m2e636788b8" style="stroke:#000000;stroke-width:0.8;"/>
      </defs>
      <g>
       <use style="stroke:#000000;stroke-width:0.8;" x="57.6" xlink:href="#m2e636788b8" y="288.798607"/>
      </g>
     </g>
     <g id="text_7">
      <!-- 0 -->
      <g transform="translate(44.2375 292.597825)scale(0.1 -0.1)">
       <use xlink:href="#DejaVuSans-48"/>
      </g>
     </g>
    </g>
    <g id="ytick_2">
     <g id="line2d_7">
      <g>
       <use style="stroke:#000000;stroke-width:0.8;" x="57.6" xlink:href="#m2e636788b8" y="245.358447"/>
      </g>
     </g>
     <g id="text_8">
      <!-- 100 -->
      <g transform="translate(31.5125 249.157665)scale(0.1 -0.1)">
       <use xlink:href="#DejaVuSans-49"/>
       <use x="63.623047" xlink:href="#DejaVuSans-48"/>
       <use x="127.246094" xlink:href="#DejaVuSans-48"/>
      </g>
     </g>
    </g>
    <g id="ytick_3">
     <g id="line2d_8">
      <g>
       <use style="stroke:#000000;stroke-width:0.8;" x="57.6" xlink:href="#m2e636788b8" y="201.918286"/>
      </g>
     </g>
     <g id="text_9">
      <!-- 200 -->
      <g transform="translate(31.5125 205.717505)scale(0.1 -0.1)">
       <use xlink:href="#DejaVuSans-50"/>
       <use x="63.623047" xlink:href="#DejaVuSans-48"/>
       <use x="127.246094" xlink:href="#DejaVuSans-48"/>
      </g>
     </g>
    </g>
    <g id="ytick_4">
     <g id="line2d_9">
      <g>
       <use style="stroke:#000000;stroke-width:0.8;" x="57.6" xlink:href="#m2e636788b8" y="158.478126"/>
      </g>
     </g>
     <g id="text_10">
      <!-- 300 -->
      <defs>
       <path d="M 40.578125 39.3125 
Q 47.65625 37.796875 51.625 33 
Q 55.609375 28.21875 55.609375 21.1875 
Q 55.609375 10.40625 48.1875 4.484375 
Q 40.765625 -1.421875 27.09375 -1.421875 
Q 22.515625 -1.421875 17.65625 -0.515625 
Q 12.796875 0.390625 7.625 2.203125 
L 7.625 11.71875 
Q 11.71875 9.328125 16.59375 8.109375 
Q 21.484375 6.890625 26.8125 6.890625 
Q 36.078125 6.890625 40.9375 10.546875 
Q 45.796875 14.203125 45.796875 21.1875 
Q 45.796875 27.640625 41.28125 31.265625 
Q 36.765625 34.90625 28.71875 34.90625 
L 20.21875 34.90625 
L 20.21875 43.015625 
L 29.109375 43.015625 
Q 36.375 43.015625 40.234375 45.921875 
Q 44.09375 48.828125 44.09375 54.296875 
Q 44.09375 59.90625 40.109375 62.90625 
Q 36.140625 65.921875 28.71875 65.921875 
Q 24.65625 65.921875 20.015625 65.03125 
Q 15.375 64.15625 9.8125 62.3125 
L 9.8125 71.09375 
Q 15.4375 72.65625 20.34375 73.4375 
Q 25.25 74.21875 29.59375 74.21875 
Q 40.828125 74.21875 47.359375 69.109375 
Q 53.90625 64.015625 53.90625 55.328125 
Q 53.90625 49.265625 50.4375 45.09375 
Q 46.96875 40.921875 40.578125 39.3125 
z
" id="DejaVuSans-51"/>
      </defs>
      <g transform="translate(31.5125 162.277345)scale(0.1 -0.1)">
       <use xlink:href="#DejaVuSans-51"/>
       <use x="63.623047" xlink:href="#DejaVuSans-48"/>
       <use x="127.246094" xlink:href="#DejaVuSans-48"/>
      </g>
     </g>
    </g>
    <g id="ytick_5">
     <g id="line2d_10">
      <g>
       <use style="stroke:#000000;stroke-width:0.8;" x="57.6" xlink:href="#m2e636788b8" y="115.037966"/>
      </g>
     </g>
     <g id="text_11">
      <!-- 400 -->
      <g transform="translate(31.5125 118.837185)scale(0.1 -0.1)">
       <use xlink:href="#DejaVuSans-52"/>
       <use x="63.623047" xlink:href="#DejaVuSans-48"/>
       <use x="127.246094" xlink:href="#DejaVuSans-48"/>
      </g>
     </g>
    </g>
    <g id="ytick_6">
     <g id="line2d_11">
      <g>
       <use style="stroke:#000000;stroke-width:0.8;" x="57.6" xlink:href="#m2e636788b8" y="71.597806"/>
      </g>
     </g>
     <g id="text_12">
      <!-- 500 -->
      <defs>
       <path d="M 10.796875 72.90625 
L 49.515625 72.90625 
L 49.515625 64.59375 
L 19.828125 64.59375 
L 19.828125 46.734375 
Q 21.96875 47.46875 24.109375 47.828125 
Q 26.265625 48.1875 28.421875 48.1875 
Q 40.625 48.1875 47.75 41.5 
Q 54.890625 34.8125 54.890625 23.390625 
Q 54.890625 11.625 47.5625 5.09375 
Q 40.234375 -1.421875 26.90625 -1.421875 
Q 22.3125 -1.421875 17.546875 -0.640625 
Q 12.796875 0.140625 7.71875 1.703125 
L 7.71875 11.625 
Q 12.109375 9.234375 16.796875 8.0625 
Q 21.484375 6.890625 26.703125 6.890625 
Q 35.15625 6.890625 40.078125 11.328125 
Q 45.015625 15.765625 45.015625 23.390625 
Q 45.015625 31 40.078125 35.4375 
Q 35.15625 39.890625 26.703125 39.890625 
Q 22.75 39.890625 18.8125 39.015625 
Q 14.890625 38.140625 10.796875 36.28125 
z
" id="DejaVuSans-53"/>
      </defs>
      <g transform="translate(31.5125 75.397025)scale(0.1 -0.1)">
       <use xlink:href="#DejaVuSans-53"/>
       <use x="63.623047" xlink:href="#DejaVuSans-48"/>
       <use x="127.246094" xlink:href="#DejaVuSans-48"/>
      </g>
     </g>
    </g>
    <g id="text_13">
     <!-- y values -->
     <defs>
      <path d="M 32.171875 -5.078125 
Q 28.375 -14.84375 24.75 -17.8125 
Q 21.140625 -20.796875 15.09375 -20.796875 
L 7.90625 -20.796875 
L 7.90625 -13.28125 
L 13.1875 -13.28125 
Q 16.890625 -13.28125 18.9375 -11.515625 
Q 21 -9.765625 23.484375 -3.21875 
L 25.09375 0.875 
L 2.984375 54.6875 
L 12.5 54.6875 
L 29.59375 11.921875 
L 46.6875 54.6875 
L 56.203125 54.6875 
z
" id="DejaVuSans-121"/>
     </defs>
     <g transform="translate(25.432812 195.338937)rotate(-90)scale(0.1 -0.1)">
      <use xlink:href="#DejaVuSans-121"/>
      <use x="59.179688" xlink:href="#DejaVuSans-32"/>
      <use x="90.966797" xlink:href="#DejaVuSans-118"/>
      <use x="150.146484" xlink:href="#DejaVuSans-97"/>
      <use x="211.425781" xlink:href="#DejaVuSans-108"/>
      <use x="239.208984" xlink:href="#DejaVuSans-117"/>
      <use x="302.587891" xlink:href="#DejaVuSans-101"/>
      <use x="364.111328" xlink:href="#DejaVuSans-115"/>
     </g>
    </g>
   </g>
   <g id="line2d_12">
    <defs>
     <path d="M 0 1 
C 0.265203 1 0.51958 0.894634 0.707107 0.707107 
C 0.894634 0.51958 1 0.265203 1 0 
C 1 -0.265203 0.894634 -0.51958 0.707107 -0.707107 
C 0.51958 -0.894634 0.265203 -1 0 -1 
C -0.265203 -1 -0.51958 -0.894634 -0.707107 -0.707107 
C -0.894634 -0.51958 -1 -0.265203 -1 0 
C -1 0.265203 -0.894634 0.51958 -0.707107 0.707107 
C -0.51958 0.894634 -0.265203 1 0 1 
z
" id="m6b97459935" style="stroke:#ff0000;"/>
    </defs>
    <g clip-path="url(#pd536da0199)">
     <use style="fill:#ff0000;stroke:#ff0000;" x="73.832727" xlink:href="#m6b97459935" y="53.568"/>
     <use style="fill:#ff0000;stroke:#ff0000;" x="74.92584" xlink:href="#m6b97459935" y="92.484114"/>
     <use style="fill:#ff0000;stroke:#ff0000;" x="76.018953" xlink:href="#m6b97459935" y="102.615586"/>
     <use style="fill:#ff0000;stroke:#ff0000;" x="77.112066" xlink:href="#m6b97459935" y="127.494821"/>
     <use style="fill:#ff0000;stroke:#ff0000;" x="78.205179" xlink:href="#m6b97459935" y="133.795982"/>
     <use style="fill:#ff0000;stroke:#ff0000;" x="79.298292" xlink:href="#m6b97459935" y="74.844428"/>
     <use style="fill:#ff0000;stroke:#ff0000;" x="80.391405" xlink:href="#m6b97459935" y="134.876379"/>
     <use style="fill:#ff0000;stroke:#ff0000;" x="81.484518" xlink:href="#m6b97459935" y="147.720149"/>
     <use style="fill:#ff0000;stroke:#ff0000;" x="82.577631" xlink:href="#m6b97459935" y="79.005354"/>
     <use style="fill:#ff0000;stroke:#ff0000;" x="83.670744" xlink:href="#m6b97459935" y="146.294353"/>
     <use style="fill:#ff0000;stroke:#ff0000;" x="84.763857" xlink:href="#m6b97459935" y="111.250876"/>
     <use style="fill:#ff0000;stroke:#ff0000;" x="85.85697" xlink:href="#m6b97459935" y="74.672145"/>
     <use style="fill:#ff0000;stroke:#ff0000;" x="86.950083" xlink:href="#m6b97459935" y="99.133759"/>
     <use style="fill:#ff0000;stroke:#ff0000;" x="88.043196" xlink:href="#m6b97459935" y="93.234341"/>
     <use style="fill:#ff0000;stroke:#ff0000;" x="89.136309" xlink:href="#m6b97459935" y="127.85276"/>
     <use style="fill:#ff0000;stroke:#ff0000;" x="90.229421" xlink:href="#m6b97459935" y="160.101298"/>
     <use style="fill:#ff0000;stroke:#ff0000;" x="91.322534" xlink:href="#m6b97459935" y="108.663148"/>
     <use style="fill:#ff0000;stroke:#ff0000;" x="92.415647" xlink:href="#m6b97459935" y="116.096577"/>
     <use style="fill:#ff0000;stroke:#ff0000;" x="93.50876" xlink:href="#m6b97459935" y="132.622382"/>
     <use style="fill:#ff0000;stroke:#ff0000;" x="94.601873" xlink:href="#m6b97459935" y="154.54841"/>
     <use style="fill:#ff0000;stroke:#ff0000;" x="95.694986" xlink:href="#m6b97459935" y="116.545887"/>
     <use style="fill:#ff0000;stroke:#ff0000;" x="96.788099" xlink:href="#m6b97459935" y="114.156634"/>
     <use style="fill:#ff0000;stroke:#ff0000;" x="97.881212" xlink:href="#m6b97459935" y="161.286141"/>
     <use style="fill:#ff0000;stroke:#ff0000;" x="98.974325" xlink:href="#m6b97459935" y="138.015153"/>
     <use style="fill:#ff0000;stroke:#ff0000;" x="100.067438" xlink:href="#m6b97459935" y="175.147457"/>
     <use style="fill:#ff0000;stroke:#ff0000;" x="101.160551" xlink:href="#m6b97459935" y="113.257326"/>
     <use style="fill:#ff0000;stroke:#ff0000;" x="102.253664" xlink:href="#m6b97459935" y="154.367821"/>
     <use style="fill:#ff0000;stroke:#ff0000;" x="103.346777" xlink:href="#m6b97459935" y="124.683004"/>
     <use style="fill:#ff0000;stroke:#ff0000;" x="104.43989" xlink:href="#m6b97459935" y="174.959878"/>
     <use style="fill:#ff0000;stroke:#ff0000;" x="105.533003" xlink:href="#m6b97459935" y="174.681946"/>
     <use style="fill:#ff0000;stroke:#ff0000;" x="106.626116" xlink:href="#m6b97459935" y="146.31318"/>
     <use style="fill:#ff0000;stroke:#ff0000;" x="107.719229" xlink:href="#m6b97459935" y="146.892724"/>
     <use style="fill:#ff0000;stroke:#ff0000;" x="108.812342" xlink:href="#m6b97459935" y="152.465968"/>
     <use style="fill:#ff0000;stroke:#ff0000;" x="109.905455" xlink:href="#m6b97459935" y="146.156888"/>
     <use style="fill:#ff0000;stroke:#ff0000;" x="110.998567" xlink:href="#m6b97459935" y="165.276914"/>
     <use style="fill:#ff0000;stroke:#ff0000;" x="112.09168" xlink:href="#m6b97459935" y="182.736205"/>
     <use style="fill:#ff0000;stroke:#ff0000;" x="113.184793" xlink:href="#m6b97459935" y="178.087286"/>
     <use style="fill:#ff0000;stroke:#ff0000;" x="114.277906" xlink:href="#m6b97459935" y="170.148421"/>
     <use style="fill:#ff0000;stroke:#ff0000;" x="115.371019" xlink:href="#m6b97459935" y="153.098192"/>
     <use style="fill:#ff0000;stroke:#ff0000;" x="116.464132" xlink:href="#m6b97459935" y="188.579259"/>
     <use style="fill:#ff0000;stroke:#ff0000;" x="117.557245" xlink:href="#m6b97459935" y="177.450925"/>
     <use style="fill:#ff0000;stroke:#ff0000;" x="118.650358" xlink:href="#m6b97459935" y="180.25147"/>
     <use style="fill:#ff0000;stroke:#ff0000;" x="119.743471" xlink:href="#m6b97459935" y="177.708884"/>
     <use style="fill:#ff0000;stroke:#ff0000;" x="120.836584" xlink:href="#m6b97459935" y="190.645487"/>
     <use style="fill:#ff0000;stroke:#ff0000;" x="121.929697" xlink:href="#m6b97459935" y="186.303159"/>
     <use style="fill:#ff0000;stroke:#ff0000;" x="123.02281" xlink:href="#m6b97459935" y="194.549816"/>
     <use style="fill:#ff0000;stroke:#ff0000;" x="124.115923" xlink:href="#m6b97459935" y="179.694628"/>
     <use style="fill:#ff0000;stroke:#ff0000;" x="125.209036" xlink:href="#m6b97459935" y="190.981255"/>
     <use style="fill:#ff0000;stroke:#ff0000;" x="126.302149" xlink:href="#m6b97459935" y="186.216377"/>
     <use style="fill:#ff0000;stroke:#ff0000;" x="127.395262" xlink:href="#m6b97459935" y="191.821055"/>
     <use style="fill:#ff0000;stroke:#ff0000;" x="128.488375" xlink:href="#m6b97459935" y="196.041772"/>
     <use style="fill:#ff0000;stroke:#ff0000;" x="129.581488" xlink:href="#m6b97459935" y="222.884286"/>
     <use style="fill:#ff0000;stroke:#ff0000;" x="130.674601" xlink:href="#m6b97459935" y="195.263364"/>
     <use style="fill:#ff0000;stroke:#ff0000;" x="131.767713" xlink:href="#m6b97459935" y="226.279201"/>
     <use style="fill:#ff0000;stroke:#ff0000;" x="132.860826" xlink:href="#m6b97459935" y="200.629091"/>
     <use style="fill:#ff0000;stroke:#ff0000;" x="133.953939" xlink:href="#m6b97459935" y="183.59403"/>
     <use style="fill:#ff0000;stroke:#ff0000;" x="135.047052" xlink:href="#m6b97459935" y="199.368285"/>
     <use style="fill:#ff0000;stroke:#ff0000;" x="136.140165" xlink:href="#m6b97459935" y="206.959477"/>
     <use style="fill:#ff0000;stroke:#ff0000;" x="137.233278" xlink:href="#m6b97459935" y="193.908992"/>
     <use style="fill:#ff0000;stroke:#ff0000;" x="138.326391" xlink:href="#m6b97459935" y="219.911562"/>
     <use style="fill:#ff0000;stroke:#ff0000;" x="139.419504" xlink:href="#m6b97459935" y="233.079375"/>
     <use style="fill:#ff0000;stroke:#ff0000;" x="140.512617" xlink:href="#m6b97459935" y="226.473836"/>
     <use style="fill:#ff0000;stroke:#ff0000;" x="141.60573" xlink:href="#m6b97459935" y="217.501523"/>
     <use style="fill:#ff0000;stroke:#ff0000;" x="142.698843" xlink:href="#m6b97459935" y="204.524225"/>
     <use style="fill:#ff0000;stroke:#ff0000;" x="143.791956" xlink:href="#m6b97459935" y="213.429382"/>
     <use style="fill:#ff0000;stroke:#ff0000;" x="144.885069" xlink:href="#m6b97459935" y="209.083101"/>
     <use style="fill:#ff0000;stroke:#ff0000;" x="145.978182" xlink:href="#m6b97459935" y="217.858159"/>
     <use style="fill:#ff0000;stroke:#ff0000;" x="147.071295" xlink:href="#m6b97459935" y="208.691357"/>
     <use style="fill:#ff0000;stroke:#ff0000;" x="148.164408" xlink:href="#m6b97459935" y="217.49492"/>
     <use style="fill:#ff0000;stroke:#ff0000;" x="149.257521" xlink:href="#m6b97459935" y="210.988953"/>
     <use style="fill:#ff0000;stroke:#ff0000;" x="150.350634" xlink:href="#m6b97459935" y="225.05371"/>
     <use style="fill:#ff0000;stroke:#ff0000;" x="151.443747" xlink:href="#m6b97459935" y="230.145147"/>
     <use style="fill:#ff0000;stroke:#ff0000;" x="152.53686" xlink:href="#m6b97459935" y="234.806263"/>
     <use style="fill:#ff0000;stroke:#ff0000;" x="153.629972" xlink:href="#m6b97459935" y="238.755792"/>
     <use style="fill:#ff0000;stroke:#ff0000;" x="154.723085" xlink:href="#m6b97459935" y="231.386406"/>
     <use style="fill:#ff0000;stroke:#ff0000;" x="155.816198" xlink:href="#m6b97459935" y="241.09457"/>
     <use style="fill:#ff0000;stroke:#ff0000;" x="156.909311" xlink:href="#m6b97459935" y="251.093817"/>
     <use style="fill:#ff0000;stroke:#ff0000;" x="158.002424" xlink:href="#m6b97459935" y="231.496105"/>
     <use style="fill:#ff0000;stroke:#ff0000;" x="159.095537" xlink:href="#m6b97459935" y="231.841353"/>
     <use style="fill:#ff0000;stroke:#ff0000;" x="160.18865" xlink:href="#m6b97459935" y="226.419405"/>
     <use style="fill:#ff0000;stroke:#ff0000;" x="161.281763" xlink:href="#m6b97459935" y="228.05598"/>
     <use style="fill:#ff0000;stroke:#ff0000;" x="162.374876" xlink:href="#m6b97459935" y="239.147537"/>
     <use style="fill:#ff0000;stroke:#ff0000;" x="163.467989" xlink:href="#m6b97459935" y="228.834108"/>
     <use style="fill:#ff0000;stroke:#ff0000;" x="164.561102" xlink:href="#m6b97459935" y="242.853853"/>
     <use style="fill:#ff0000;stroke:#ff0000;" x="165.654215" xlink:href="#m6b97459935" y="247.584622"/>
     <use style="fill:#ff0000;stroke:#ff0000;" x="166.747328" xlink:href="#m6b97459935" y="252.253405"/>
     <use style="fill:#ff0000;stroke:#ff0000;" x="167.840441" xlink:href="#m6b97459935" y="253.731394"/>
     <use style="fill:#ff0000;stroke:#ff0000;" x="168.933554" xlink:href="#m6b97459935" y="243.650558"/>
     <use style="fill:#ff0000;stroke:#ff0000;" x="170.026667" xlink:href="#m6b97459935" y="245.952042"/>
     <use style="fill:#ff0000;stroke:#ff0000;" x="171.11978" xlink:href="#m6b97459935" y="243.142456"/>
     <use style="fill:#ff0000;stroke:#ff0000;" x="172.212893" xlink:href="#m6b97459935" y="249.890262"/>
     <use style="fill:#ff0000;stroke:#ff0000;" x="173.306006" xlink:href="#m6b97459935" y="258.694714"/>
     <use style="fill:#ff0000;stroke:#ff0000;" x="174.399118" xlink:href="#m6b97459935" y="261.909308"/>
     <use style="fill:#ff0000;stroke:#ff0000;" x="175.492231" xlink:href="#m6b97459935" y="250.351548"/>
     <use style="fill:#ff0000;stroke:#ff0000;" x="176.585344" xlink:href="#m6b97459935" y="246.637094"/>
     <use style="fill:#ff0000;stroke:#ff0000;" x="177.678457" xlink:href="#m6b97459935" y="262.275085"/>
     <use style="fill:#ff0000;stroke:#ff0000;" x="178.77157" xlink:href="#m6b97459935" y="267.575569"/>
     <use style="fill:#ff0000;stroke:#ff0000;" x="179.864683" xlink:href="#m6b97459935" y="275.404378"/>
     <use style="fill:#ff0000;stroke:#ff0000;" x="180.957796" xlink:href="#m6b97459935" y="263.061936"/>
     <use style="fill:#ff0000;stroke:#ff0000;" x="182.050909" xlink:href="#m6b97459935" y="259.474871"/>
     <use style="fill:#ff0000;stroke:#ff0000;" x="183.144022" xlink:href="#m6b97459935" y="260.543618"/>
     <use style="fill:#ff0000;stroke:#ff0000;" x="184.237135" xlink:href="#m6b97459935" y="264.056005"/>
     <use style="fill:#ff0000;stroke:#ff0000;" x="185.330248" xlink:href="#m6b97459935" y="250.083489"/>
     <use style="fill:#ff0000;stroke:#ff0000;" x="186.423361" xlink:href="#m6b97459935" y="266.04173"/>
     <use style="fill:#ff0000;stroke:#ff0000;" x="187.516474" xlink:href="#m6b97459935" y="275.099263"/>
     <use style="fill:#ff0000;stroke:#ff0000;" x="188.609587" xlink:href="#m6b97459935" y="269.83479"/>
     <use style="fill:#ff0000;stroke:#ff0000;" x="189.7027" xlink:href="#m6b97459935" y="277.73438"/>
     <use style="fill:#ff0000;stroke:#ff0000;" x="190.795813" xlink:href="#m6b97459935" y="277.607306"/>
     <use style="fill:#ff0000;stroke:#ff0000;" x="191.888926" xlink:href="#m6b97459935" y="256.732512"/>
     <use style="fill:#ff0000;stroke:#ff0000;" x="192.982039" xlink:href="#m6b97459935" y="269.754622"/>
     <use style="fill:#ff0000;stroke:#ff0000;" x="194.075152" xlink:href="#m6b97459935" y="267.624457"/>
     <use style="fill:#ff0000;stroke:#ff0000;" x="195.168264" xlink:href="#m6b97459935" y="268.589932"/>
     <use style="fill:#ff0000;stroke:#ff0000;" x="196.261377" xlink:href="#m6b97459935" y="282.901522"/>
     <use style="fill:#ff0000;stroke:#ff0000;" x="197.35449" xlink:href="#m6b97459935" y="277.601256"/>
     <use style="fill:#ff0000;stroke:#ff0000;" x="198.447603" xlink:href="#m6b97459935" y="271.564903"/>
     <use style="fill:#ff0000;stroke:#ff0000;" x="199.540716" xlink:href="#m6b97459935" y="281.16028"/>
     <use style="fill:#ff0000;stroke:#ff0000;" x="200.633829" xlink:href="#m6b97459935" y="275.975558"/>
     <use style="fill:#ff0000;stroke:#ff0000;" x="201.726942" xlink:href="#m6b97459935" y="276.344291"/>
     <use style="fill:#ff0000;stroke:#ff0000;" x="202.820055" xlink:href="#m6b97459935" y="273.080029"/>
     <use style="fill:#ff0000;stroke:#ff0000;" x="203.913168" xlink:href="#m6b97459935" y="265.791766"/>
     <use style="fill:#ff0000;stroke:#ff0000;" x="205.006281" xlink:href="#m6b97459935" y="274.321746"/>
     <use style="fill:#ff0000;stroke:#ff0000;" x="206.099394" xlink:href="#m6b97459935" y="277.11034"/>
     <use style="fill:#ff0000;stroke:#ff0000;" x="207.192507" xlink:href="#m6b97459935" y="265.601145"/>
     <use style="fill:#ff0000;stroke:#ff0000;" x="208.28562" xlink:href="#m6b97459935" y="278.178727"/>
     <use style="fill:#ff0000;stroke:#ff0000;" x="209.378733" xlink:href="#m6b97459935" y="286.626841"/>
     <use style="fill:#ff0000;stroke:#ff0000;" x="210.471846" xlink:href="#m6b97459935" y="278.821415"/>
     <use style="fill:#ff0000;stroke:#ff0000;" x="211.564959" xlink:href="#m6b97459935" y="287.190211"/>
     <use style="fill:#ff0000;stroke:#ff0000;" x="212.658072" xlink:href="#m6b97459935" y="273.184842"/>
     <use style="fill:#ff0000;stroke:#ff0000;" x="213.751185" xlink:href="#m6b97459935" y="269.138275"/>
     <use style="fill:#ff0000;stroke:#ff0000;" x="214.844298" xlink:href="#m6b97459935" y="280.349106"/>
     <use style="fill:#ff0000;stroke:#ff0000;" x="215.93741" xlink:href="#m6b97459935" y="277.888298"/>
     <use style="fill:#ff0000;stroke:#ff0000;" x="217.030523" xlink:href="#m6b97459935" y="272.290238"/>
     <use style="fill:#ff0000;stroke:#ff0000;" x="218.123636" xlink:href="#m6b97459935" y="291.652334"/>
     <use style="fill:#ff0000;stroke:#ff0000;" x="219.216749" xlink:href="#m6b97459935" y="289.014924"/>
     <use style="fill:#ff0000;stroke:#ff0000;" x="220.309862" xlink:href="#m6b97459935" y="275.913031"/>
     <use style="fill:#ff0000;stroke:#ff0000;" x="221.402975" xlink:href="#m6b97459935" y="285.778121"/>
     <use style="fill:#ff0000;stroke:#ff0000;" x="222.496088" xlink:href="#m6b97459935" y="281.79862"/>
     <use style="fill:#ff0000;stroke:#ff0000;" x="223.589201" xlink:href="#m6b97459935" y="278.349678"/>
     <use style="fill:#ff0000;stroke:#ff0000;" x="224.682314" xlink:href="#m6b97459935" y="275.541321"/>
     <use style="fill:#ff0000;stroke:#ff0000;" x="225.775427" xlink:href="#m6b97459935" y="281.309644"/>
     <use style="fill:#ff0000;stroke:#ff0000;" x="226.86854" xlink:href="#m6b97459935" y="283.407162"/>
     <use style="fill:#ff0000;stroke:#ff0000;" x="227.961653" xlink:href="#m6b97459935" y="291.12836"/>
     <use style="fill:#ff0000;stroke:#ff0000;" x="229.054766" xlink:href="#m6b97459935" y="293.481903"/>
     <use style="fill:#ff0000;stroke:#ff0000;" x="230.147879" xlink:href="#m6b97459935" y="285.060774"/>
     <use style="fill:#ff0000;stroke:#ff0000;" x="231.240992" xlink:href="#m6b97459935" y="284.163563"/>
     <use style="fill:#ff0000;stroke:#ff0000;" x="232.334105" xlink:href="#m6b97459935" y="291.633626"/>
     <use style="fill:#ff0000;stroke:#ff0000;" x="233.427218" xlink:href="#m6b97459935" y="290.64955"/>
     <use style="fill:#ff0000;stroke:#ff0000;" x="234.520331" xlink:href="#m6b97459935" y="291.296764"/>
     <use style="fill:#ff0000;stroke:#ff0000;" x="235.613444" xlink:href="#m6b97459935" y="277.793894"/>
     <use style="fill:#ff0000;stroke:#ff0000;" x="236.706556" xlink:href="#m6b97459935" y="287.208509"/>
     <use style="fill:#ff0000;stroke:#ff0000;" x="237.799669" xlink:href="#m6b97459935" y="295.488"/>
     <use style="fill:#ff0000;stroke:#ff0000;" x="238.892782" xlink:href="#m6b97459935" y="284.376745"/>
     <use style="fill:#ff0000;stroke:#ff0000;" x="239.985895" xlink:href="#m6b97459935" y="274.182947"/>
     <use style="fill:#ff0000;stroke:#ff0000;" x="241.079008" xlink:href="#m6b97459935" y="274.323345"/>
     <use style="fill:#ff0000;stroke:#ff0000;" x="242.172121" xlink:href="#m6b97459935" y="292.318685"/>
     <use style="fill:#ff0000;stroke:#ff0000;" x="243.265234" xlink:href="#m6b97459935" y="279.589506"/>
     <use style="fill:#ff0000;stroke:#ff0000;" x="244.358347" xlink:href="#m6b97459935" y="282.38951"/>
     <use style="fill:#ff0000;stroke:#ff0000;" x="245.45146" xlink:href="#m6b97459935" y="287.226767"/>
     <use style="fill:#ff0000;stroke:#ff0000;" x="246.544573" xlink:href="#m6b97459935" y="285.890294"/>
     <use style="fill:#ff0000;stroke:#ff0000;" x="247.637686" xlink:href="#m6b97459935" y="286.326942"/>
     <use style="fill:#ff0000;stroke:#ff0000;" x="248.730799" xlink:href="#m6b97459935" y="281.763064"/>
     <use style="fill:#ff0000;stroke:#ff0000;" x="249.823912" xlink:href="#m6b97459935" y="280.076141"/>
     <use style="fill:#ff0000;stroke:#ff0000;" x="250.917025" xlink:href="#m6b97459935" y="284.487757"/>
     <use style="fill:#ff0000;stroke:#ff0000;" x="252.010138" xlink:href="#m6b97459935" y="278.090594"/>
     <use style="fill:#ff0000;stroke:#ff0000;" x="253.103251" xlink:href="#m6b97459935" y="277.744763"/>
     <use style="fill:#ff0000;stroke:#ff0000;" x="254.196364" xlink:href="#m6b97459935" y="289.117851"/>
     <use style="fill:#ff0000;stroke:#ff0000;" x="255.289477" xlink:href="#m6b97459935" y="289.233545"/>
     <use style="fill:#ff0000;stroke:#ff0000;" x="256.38259" xlink:href="#m6b97459935" y="279.254715"/>
     <use style="fill:#ff0000;stroke:#ff0000;" x="257.475702" xlink:href="#m6b97459935" y="283.280961"/>
     <use style="fill:#ff0000;stroke:#ff0000;" x="258.568815" xlink:href="#m6b97459935" y="290.673498"/>
     <use style="fill:#ff0000;stroke:#ff0000;" x="259.661928" xlink:href="#m6b97459935" y="283.609086"/>
     <use style="fill:#ff0000;stroke:#ff0000;" x="260.755041" xlink:href="#m6b97459935" y="278.964404"/>
     <use style="fill:#ff0000;stroke:#ff0000;" x="261.848154" xlink:href="#m6b97459935" y="274.436469"/>
     <use style="fill:#ff0000;stroke:#ff0000;" x="262.941267" xlink:href="#m6b97459935" y="286.093249"/>
     <use style="fill:#ff0000;stroke:#ff0000;" x="264.03438" xlink:href="#m6b97459935" y="278.913539"/>
     <use style="fill:#ff0000;stroke:#ff0000;" x="265.127493" xlink:href="#m6b97459935" y="274.949158"/>
     <use style="fill:#ff0000;stroke:#ff0000;" x="266.220606" xlink:href="#m6b97459935" y="287.681506"/>
     <use style="fill:#ff0000;stroke:#ff0000;" x="267.313719" xlink:href="#m6b97459935" y="285.159898"/>
     <use style="fill:#ff0000;stroke:#ff0000;" x="268.406832" xlink:href="#m6b97459935" y="279.975082"/>
     <use style="fill:#ff0000;stroke:#ff0000;" x="269.499945" xlink:href="#m6b97459935" y="269.579108"/>
     <use style="fill:#ff0000;stroke:#ff0000;" x="270.593058" xlink:href="#m6b97459935" y="272.027819"/>
     <use style="fill:#ff0000;stroke:#ff0000;" x="271.686171" xlink:href="#m6b97459935" y="267.771832"/>
     <use style="fill:#ff0000;stroke:#ff0000;" x="272.779284" xlink:href="#m6b97459935" y="282.000616"/>
     <use style="fill:#ff0000;stroke:#ff0000;" x="273.872397" xlink:href="#m6b97459935" y="280.87122"/>
     <use style="fill:#ff0000;stroke:#ff0000;" x="274.96551" xlink:href="#m6b97459935" y="269.063542"/>
     <use style="fill:#ff0000;stroke:#ff0000;" x="276.058623" xlink:href="#m6b97459935" y="284.795485"/>
     <use style="fill:#ff0000;stroke:#ff0000;" x="277.151736" xlink:href="#m6b97459935" y="275.65976"/>
     <use style="fill:#ff0000;stroke:#ff0000;" x="278.244848" xlink:href="#m6b97459935" y="272.066002"/>
     <use style="fill:#ff0000;stroke:#ff0000;" x="279.337961" xlink:href="#m6b97459935" y="274.24834"/>
     <use style="fill:#ff0000;stroke:#ff0000;" x="280.431074" xlink:href="#m6b97459935" y="281.777367"/>
     <use style="fill:#ff0000;stroke:#ff0000;" x="281.524187" xlink:href="#m6b97459935" y="276.0305"/>
     <use style="fill:#ff0000;stroke:#ff0000;" x="282.6173" xlink:href="#m6b97459935" y="259.332274"/>
     <use style="fill:#ff0000;stroke:#ff0000;" x="283.710413" xlink:href="#m6b97459935" y="271.767941"/>
     <use style="fill:#ff0000;stroke:#ff0000;" x="284.803526" xlink:href="#m6b97459935" y="276.552764"/>
     <use style="fill:#ff0000;stroke:#ff0000;" x="285.896639" xlink:href="#m6b97459935" y="276.408269"/>
     <use style="fill:#ff0000;stroke:#ff0000;" x="286.989752" xlink:href="#m6b97459935" y="273.906032"/>
     <use style="fill:#ff0000;stroke:#ff0000;" x="288.082865" xlink:href="#m6b97459935" y="263.92454"/>
     <use style="fill:#ff0000;stroke:#ff0000;" x="289.175978" xlink:href="#m6b97459935" y="269.704435"/>
     <use style="fill:#ff0000;stroke:#ff0000;" x="290.269091" xlink:href="#m6b97459935" y="268.273076"/>
     <use style="fill:#ff0000;stroke:#ff0000;" x="291.362204" xlink:href="#m6b97459935" y="270.473293"/>
     <use style="fill:#ff0000;stroke:#ff0000;" x="292.455317" xlink:href="#m6b97459935" y="253.565323"/>
     <use style="fill:#ff0000;stroke:#ff0000;" x="293.54843" xlink:href="#m6b97459935" y="270.185135"/>
     <use style="fill:#ff0000;stroke:#ff0000;" x="294.641543" xlink:href="#m6b97459935" y="247.839121"/>
     <use style="fill:#ff0000;stroke:#ff0000;" x="295.734656" xlink:href="#m6b97459935" y="265.03473"/>
     <use style="fill:#ff0000;stroke:#ff0000;" x="296.827769" xlink:href="#m6b97459935" y="257.277681"/>
     <use style="fill:#ff0000;stroke:#ff0000;" x="297.920882" xlink:href="#m6b97459935" y="260.573975"/>
     <use style="fill:#ff0000;stroke:#ff0000;" x="299.013994" xlink:href="#m6b97459935" y="244.954935"/>
     <use style="fill:#ff0000;stroke:#ff0000;" x="300.107107" xlink:href="#m6b97459935" y="247.763813"/>
     <use style="fill:#ff0000;stroke:#ff0000;" x="301.20022" xlink:href="#m6b97459935" y="246.136829"/>
     <use style="fill:#ff0000;stroke:#ff0000;" x="302.293333" xlink:href="#m6b97459935" y="245.981659"/>
     <use style="fill:#ff0000;stroke:#ff0000;" x="303.386446" xlink:href="#m6b97459935" y="238.985353"/>
     <use style="fill:#ff0000;stroke:#ff0000;" x="304.479559" xlink:href="#m6b97459935" y="257.348691"/>
     <use style="fill:#ff0000;stroke:#ff0000;" x="305.572672" xlink:href="#m6b97459935" y="243.389869"/>
     <use style="fill:#ff0000;stroke:#ff0000;" x="306.665785" xlink:href="#m6b97459935" y="249.446594"/>
     <use style="fill:#ff0000;stroke:#ff0000;" x="307.758898" xlink:href="#m6b97459935" y="233.971474"/>
     <use style="fill:#ff0000;stroke:#ff0000;" x="308.852011" xlink:href="#m6b97459935" y="253.60859"/>
     <use style="fill:#ff0000;stroke:#ff0000;" x="309.945124" xlink:href="#m6b97459935" y="249.008578"/>
     <use style="fill:#ff0000;stroke:#ff0000;" x="311.038237" xlink:href="#m6b97459935" y="247.840183"/>
     <use style="fill:#ff0000;stroke:#ff0000;" x="312.13135" xlink:href="#m6b97459935" y="236.185665"/>
     <use style="fill:#ff0000;stroke:#ff0000;" x="313.224463" xlink:href="#m6b97459935" y="239.347885"/>
     <use style="fill:#ff0000;stroke:#ff0000;" x="314.317576" xlink:href="#m6b97459935" y="252.513618"/>
     <use style="fill:#ff0000;stroke:#ff0000;" x="315.410689" xlink:href="#m6b97459935" y="252.780334"/>
     <use style="fill:#ff0000;stroke:#ff0000;" x="316.503802" xlink:href="#m6b97459935" y="234.910683"/>
     <use style="fill:#ff0000;stroke:#ff0000;" x="317.596915" xlink:href="#m6b97459935" y="234.031858"/>
     <use style="fill:#ff0000;stroke:#ff0000;" x="318.690028" xlink:href="#m6b97459935" y="223.037096"/>
     <use style="fill:#ff0000;stroke:#ff0000;" x="319.78314" xlink:href="#m6b97459935" y="242.987916"/>
     <use style="fill:#ff0000;stroke:#ff0000;" x="320.876253" xlink:href="#m6b97459935" y="220.844143"/>
     <use style="fill:#ff0000;stroke:#ff0000;" x="321.969366" xlink:href="#m6b97459935" y="213.21082"/>
     <use style="fill:#ff0000;stroke:#ff0000;" x="323.062479" xlink:href="#m6b97459935" y="243.357268"/>
     <use style="fill:#ff0000;stroke:#ff0000;" x="324.155592" xlink:href="#m6b97459935" y="220.340279"/>
     <use style="fill:#ff0000;stroke:#ff0000;" x="325.248705" xlink:href="#m6b97459935" y="228.947266"/>
     <use style="fill:#ff0000;stroke:#ff0000;" x="326.341818" xlink:href="#m6b97459935" y="214.043792"/>
     <use style="fill:#ff0000;stroke:#ff0000;" x="327.434931" xlink:href="#m6b97459935" y="236.332221"/>
     <use style="fill:#ff0000;stroke:#ff0000;" x="328.528044" xlink:href="#m6b97459935" y="229.563394"/>
     <use style="fill:#ff0000;stroke:#ff0000;" x="329.621157" xlink:href="#m6b97459935" y="217.520489"/>
     <use style="fill:#ff0000;stroke:#ff0000;" x="330.71427" xlink:href="#m6b97459935" y="199.40328"/>
     <use style="fill:#ff0000;stroke:#ff0000;" x="331.807383" xlink:href="#m6b97459935" y="217.096157"/>
     <use style="fill:#ff0000;stroke:#ff0000;" x="332.900496" xlink:href="#m6b97459935" y="212.93214"/>
     <use style="fill:#ff0000;stroke:#ff0000;" x="333.993609" xlink:href="#m6b97459935" y="220.710175"/>
     <use style="fill:#ff0000;stroke:#ff0000;" x="335.086722" xlink:href="#m6b97459935" y="229.224103"/>
     <use style="fill:#ff0000;stroke:#ff0000;" x="336.179835" xlink:href="#m6b97459935" y="188.127828"/>
     <use style="fill:#ff0000;stroke:#ff0000;" x="337.272948" xlink:href="#m6b97459935" y="200.580653"/>
     <use style="fill:#ff0000;stroke:#ff0000;" x="338.366061" xlink:href="#m6b97459935" y="203.881692"/>
     <use style="fill:#ff0000;stroke:#ff0000;" x="339.459174" xlink:href="#m6b97459935" y="208.088112"/>
     <use style="fill:#ff0000;stroke:#ff0000;" x="340.552287" xlink:href="#m6b97459935" y="218.805693"/>
     <use style="fill:#ff0000;stroke:#ff0000;" x="341.645399" xlink:href="#m6b97459935" y="194.688585"/>
     <use style="fill:#ff0000;stroke:#ff0000;" x="342.738512" xlink:href="#m6b97459935" y="194.510149"/>
     <use style="fill:#ff0000;stroke:#ff0000;" x="343.831625" xlink:href="#m6b97459935" y="195.515719"/>
     <use style="fill:#ff0000;stroke:#ff0000;" x="344.924738" xlink:href="#m6b97459935" y="185.286752"/>
     <use style="fill:#ff0000;stroke:#ff0000;" x="346.017851" xlink:href="#m6b97459935" y="220.505296"/>
     <use style="fill:#ff0000;stroke:#ff0000;" x="347.110964" xlink:href="#m6b97459935" y="179.514047"/>
     <use style="fill:#ff0000;stroke:#ff0000;" x="348.204077" xlink:href="#m6b97459935" y="211.67272"/>
     <use style="fill:#ff0000;stroke:#ff0000;" x="349.29719" xlink:href="#m6b97459935" y="202.480108"/>
     <use style="fill:#ff0000;stroke:#ff0000;" x="350.390303" xlink:href="#m6b97459935" y="181.244222"/>
     <use style="fill:#ff0000;stroke:#ff0000;" x="351.483416" xlink:href="#m6b97459935" y="194.721217"/>
     <use style="fill:#ff0000;stroke:#ff0000;" x="352.576529" xlink:href="#m6b97459935" y="180.69964"/>
     <use style="fill:#ff0000;stroke:#ff0000;" x="353.669642" xlink:href="#m6b97459935" y="165.837926"/>
     <use style="fill:#ff0000;stroke:#ff0000;" x="354.762755" xlink:href="#m6b97459935" y="199.993226"/>
     <use style="fill:#ff0000;stroke:#ff0000;" x="355.855868" xlink:href="#m6b97459935" y="177.385937"/>
     <use style="fill:#ff0000;stroke:#ff0000;" x="356.948981" xlink:href="#m6b97459935" y="194.501379"/>
     <use style="fill:#ff0000;stroke:#ff0000;" x="358.042094" xlink:href="#m6b97459935" y="149.863555"/>
     <use style="fill:#ff0000;stroke:#ff0000;" x="359.135207" xlink:href="#m6b97459935" y="182.437477"/>
     <use style="fill:#ff0000;stroke:#ff0000;" x="360.22832" xlink:href="#m6b97459935" y="162.106212"/>
     <use style="fill:#ff0000;stroke:#ff0000;" x="361.321433" xlink:href="#m6b97459935" y="185.422053"/>
     <use style="fill:#ff0000;stroke:#ff0000;" x="362.414545" xlink:href="#m6b97459935" y="162.315718"/>
     <use style="fill:#ff0000;stroke:#ff0000;" x="363.507658" xlink:href="#m6b97459935" y="186.569"/>
     <use style="fill:#ff0000;stroke:#ff0000;" x="364.600771" xlink:href="#m6b97459935" y="153.96929"/>
     <use style="fill:#ff0000;stroke:#ff0000;" x="365.693884" xlink:href="#m6b97459935" y="165.296275"/>
     <use style="fill:#ff0000;stroke:#ff0000;" x="366.786997" xlink:href="#m6b97459935" y="137.054169"/>
     <use style="fill:#ff0000;stroke:#ff0000;" x="367.88011" xlink:href="#m6b97459935" y="157.296896"/>
     <use style="fill:#ff0000;stroke:#ff0000;" x="368.973223" xlink:href="#m6b97459935" y="130.695111"/>
     <use style="fill:#ff0000;stroke:#ff0000;" x="370.066336" xlink:href="#m6b97459935" y="125.891365"/>
     <use style="fill:#ff0000;stroke:#ff0000;" x="371.159449" xlink:href="#m6b97459935" y="131.464986"/>
     <use style="fill:#ff0000;stroke:#ff0000;" x="372.252562" xlink:href="#m6b97459935" y="159.156762"/>
     <use style="fill:#ff0000;stroke:#ff0000;" x="373.345675" xlink:href="#m6b97459935" y="125.744206"/>
     <use style="fill:#ff0000;stroke:#ff0000;" x="374.438788" xlink:href="#m6b97459935" y="141.308539"/>
     <use style="fill:#ff0000;stroke:#ff0000;" x="375.531901" xlink:href="#m6b97459935" y="136.564629"/>
     <use style="fill:#ff0000;stroke:#ff0000;" x="376.625014" xlink:href="#m6b97459935" y="145.527251"/>
     <use style="fill:#ff0000;stroke:#ff0000;" x="377.718127" xlink:href="#m6b97459935" y="129.811356"/>
     <use style="fill:#ff0000;stroke:#ff0000;" x="378.81124" xlink:href="#m6b97459935" y="131.504172"/>
     <use style="fill:#ff0000;stroke:#ff0000;" x="379.904353" xlink:href="#m6b97459935" y="156.516608"/>
     <use style="fill:#ff0000;stroke:#ff0000;" x="380.997466" xlink:href="#m6b97459935" y="125.848139"/>
     <use style="fill:#ff0000;stroke:#ff0000;" x="382.090579" xlink:href="#m6b97459935" y="120.133275"/>
     <use style="fill:#ff0000;stroke:#ff0000;" x="383.183691" xlink:href="#m6b97459935" y="117.210015"/>
     <use style="fill:#ff0000;stroke:#ff0000;" x="384.276804" xlink:href="#m6b97459935" y="144.612702"/>
     <use style="fill:#ff0000;stroke:#ff0000;" x="385.369917" xlink:href="#m6b97459935" y="104.031375"/>
     <use style="fill:#ff0000;stroke:#ff0000;" x="386.46303" xlink:href="#m6b97459935" y="131.270339"/>
     <use style="fill:#ff0000;stroke:#ff0000;" x="387.556143" xlink:href="#m6b97459935" y="96.457503"/>
     <use style="fill:#ff0000;stroke:#ff0000;" x="388.649256" xlink:href="#m6b97459935" y="117.835484"/>
     <use style="fill:#ff0000;stroke:#ff0000;" x="389.742369" xlink:href="#m6b97459935" y="132.720734"/>
     <use style="fill:#ff0000;stroke:#ff0000;" x="390.835482" xlink:href="#m6b97459935" y="126.503596"/>
     <use style="fill:#ff0000;stroke:#ff0000;" x="391.928595" xlink:href="#m6b97459935" y="108.189974"/>
     <use style="fill:#ff0000;stroke:#ff0000;" x="393.021708" xlink:href="#m6b97459935" y="57.247746"/>
     <use style="fill:#ff0000;stroke:#ff0000;" x="394.114821" xlink:href="#m6b97459935" y="67.509608"/>
     <use style="fill:#ff0000;stroke:#ff0000;" x="395.207934" xlink:href="#m6b97459935" y="108.332928"/>
     <use style="fill:#ff0000;stroke:#ff0000;" x="396.301047" xlink:href="#m6b97459935" y="73.022685"/>
     <use style="fill:#ff0000;stroke:#ff0000;" x="397.39416" xlink:href="#m6b97459935" y="58.744444"/>
     <use style="fill:#ff0000;stroke:#ff0000;" x="398.487273" xlink:href="#m6b97459935" y="71.793946"/>
    </g>
   </g>
   <g id="line2d_13">
    <path clip-path="url(#pd536da0199)" d="M 73.832727 84.67957 
L 80.391405 100.502202 
L 86.950083 115.673379 
L 93.50876 130.193102 
L 98.974325 141.795231 
L 104.43989 152.944962 
L 109.905455 163.642294 
L 115.371019 173.887227 
L 120.836584 183.67976 
L 126.302149 193.019894 
L 131.767713 201.90763 
L 137.233278 210.342966 
L 142.698843 218.325903 
L 148.164408 225.856441 
L 153.629972 232.93458 
L 158.002424 238.271364 
L 162.374876 243.318613 
L 166.747328 248.076326 
L 171.11978 252.544503 
L 175.492231 256.723146 
L 179.864683 260.612252 
L 184.237135 264.211824 
L 188.609587 267.52186 
L 192.982039 270.54236 
L 197.35449 273.273326 
L 201.726942 275.714755 
L 206.099394 277.86665 
L 210.471846 279.729009 
L 214.844298 281.301832 
L 219.216749 282.58512 
L 223.589201 283.578873 
L 227.961653 284.28309 
L 232.334105 284.697772 
L 236.706556 284.822919 
L 241.079008 284.65853 
L 245.45146 284.204605 
L 249.823912 283.461146 
L 254.196364 282.42815 
L 258.568815 281.10562 
L 262.941267 279.493554 
L 267.313719 277.591952 
L 271.686171 275.400816 
L 276.058623 272.920143 
L 280.431074 270.149936 
L 284.803526 267.090193 
L 289.175978 263.740914 
L 293.54843 260.1021 
L 297.920882 256.173751 
L 302.293333 251.955866 
L 306.665785 247.448446 
L 311.038237 242.651491 
L 315.410689 237.565 
L 319.78314 232.188973 
L 324.155592 226.523411 
L 329.621157 219.0343 
L 335.086722 211.09279 
L 340.552287 202.69888 
L 346.017851 193.852571 
L 351.483416 184.553864 
L 356.948981 174.802757 
L 362.414545 164.599251 
L 367.88011 153.943346 
L 373.345675 142.835042 
L 378.81124 131.274339 
L 384.276804 119.261237 
L 390.835482 104.248347 
L 397.39416 88.584003 
L 398.487273 85.909943 
L 398.487273 85.909943 
" style="fill:none;stroke:#008000;stroke-linecap:square;stroke-width:1.5;"/>
   </g>
   <g id="patch_3">
    <path d="M 57.6 307.584 
L 57.6 41.472 
" style="fill:none;stroke:#000000;stroke-linecap:square;stroke-linejoin:miter;stroke-width:0.8;"/>
   </g>
   <g id="patch_4">
    <path d="M 414.72 307.584 
L 414.72 41.472 
" style="fill:none;stroke:#000000;stroke-linecap:square;stroke-linejoin:miter;stroke-width:0.8;"/>
   </g>
   <g id="patch_5">
    <path d="M 57.6 307.584 
L 414.72 307.584 
" style="fill:none;stroke:#000000;stroke-linecap:square;stroke-linejoin:miter;stroke-width:0.8;"/>
   </g>
   <g id="patch_6">
    <path d="M 57.6 41.472 
L 414.72 41.472 
" style="fill:none;stroke:#000000;stroke-linecap:square;stroke-linejoin:miter;stroke-width:0.8;"/>
   </g>
   <g id="text_14">
    <!-- FunctionFitting 16 -->
    <defs>
     <path d="M 9.8125 72.90625 
L 51.703125 72.90625 
L 51.703125 64.59375 
L 19.671875 64.59375 
L 19.671875 43.109375 
L 48.578125 43.109375 
L 48.578125 34.8125 
L 19.671875 34.8125 
L 19.671875 0 
L 9.8125 0 
z
" id="DejaVuSans-70"/>
     <path d="M 54.890625 33.015625 
L 54.890625 0 
L 45.90625 0 
L 45.90625 32.71875 
Q 45.90625 40.484375 42.875 44.328125 
Q 39.84375 48.1875 33.796875 48.1875 
Q 26.515625 48.1875 22.3125 43.546875 
Q 18.109375 38.921875 18.109375 30.90625 
L 18.109375 0 
L 9.078125 0 
L 9.078125 54.6875 
L 18.109375 54.6875 
L 18.109375 46.1875 
Q 21.34375 51.125 25.703125 53.5625 
Q 30.078125 56 35.796875 56 
Q 45.21875 56 50.046875 50.171875 
Q 54.890625 44.34375 54.890625 33.015625 
z
" id="DejaVuSans-110"/>
     <path d="M 48.78125 52.59375 
L 48.78125 44.1875 
Q 44.96875 46.296875 41.140625 47.34375 
Q 37.3125 48.390625 33.40625 48.390625 
Q 24.65625 48.390625 19.8125 42.84375 
Q 14.984375 37.3125 14.984375 27.296875 
Q 14.984375 17.28125 19.8125 11.734375 
Q 24.65625 6.203125 33.40625 6.203125 
Q 37.3125 6.203125 41.140625 7.25 
Q 44.96875 8.296875 48.78125 10.40625 
L 48.78125 2.09375 
Q 45.015625 0.34375 40.984375 -0.53125 
Q 36.96875 -1.421875 32.421875 -1.421875 
Q 20.0625 -1.421875 12.78125 6.34375 
Q 5.515625 14.109375 5.515625 27.296875 
Q 5.515625 40.671875 12.859375 48.328125 
Q 20.21875 56 33.015625 56 
Q 37.15625 56 41.109375 55.140625 
Q 45.0625 54.296875 48.78125 52.59375 
z
" id="DejaVuSans-99"/>
     <path d="M 18.3125 70.21875 
L 18.3125 54.6875 
L 36.8125 54.6875 
L 36.8125 47.703125 
L 18.3125 47.703125 
L 18.3125 18.015625 
Q 18.3125 11.328125 20.140625 9.421875 
Q 21.96875 7.515625 27.59375 7.515625 
L 36.8125 7.515625 
L 36.8125 0 
L 27.59375 0 
Q 17.1875 0 13.234375 3.875 
Q 9.28125 7.765625 9.28125 18.015625 
L 9.28125 47.703125 
L 2.6875 47.703125 
L 2.6875 54.6875 
L 9.28125 54.6875 
L 9.28125 70.21875 
z
" id="DejaVuSans-116"/>
     <path d="M 9.421875 54.6875 
L 18.40625 54.6875 
L 18.40625 0 
L 9.421875 0 
z
M 9.421875 75.984375 
L 18.40625 75.984375 
L 18.40625 64.59375 
L 9.421875 64.59375 
z
" id="DejaVuSans-105"/>
     <path d="M 30.609375 48.390625 
Q 23.390625 48.390625 19.1875 42.75 
Q 14.984375 37.109375 14.984375 27.296875 
Q 14.984375 17.484375 19.15625 11.84375 
Q 23.34375 6.203125 30.609375 6.203125 
Q 37.796875 6.203125 41.984375 11.859375 
Q 46.1875 17.53125 46.1875 27.296875 
Q 46.1875 37.015625 41.984375 42.703125 
Q 37.796875 48.390625 30.609375 48.390625 
z
M 30.609375 56 
Q 42.328125 56 49.015625 48.375 
Q 55.71875 40.765625 55.71875 27.296875 
Q 55.71875 13.875 49.015625 6.21875 
Q 42.328125 -1.421875 30.609375 -1.421875 
Q 18.84375 -1.421875 12.171875 6.21875 
Q 5.515625 13.875 5.515625 27.296875 
Q 5.515625 40.765625 12.171875 48.375 
Q 18.84375 56 30.609375 56 
z
" id="DejaVuSans-111"/>
     <path d="M 45.40625 27.984375 
Q 45.40625 37.75 41.375 43.109375 
Q 37.359375 48.484375 30.078125 48.484375 
Q 22.859375 48.484375 18.828125 43.109375 
Q 14.796875 37.75 14.796875 27.984375 
Q 14.796875 18.265625 18.828125 12.890625 
Q 22.859375 7.515625 30.078125 7.515625 
Q 37.359375 7.515625 41.375 12.890625 
Q 45.40625 18.265625 45.40625 27.984375 
z
M 54.390625 6.78125 
Q 54.390625 -7.171875 48.1875 -13.984375 
Q 42 -20.796875 29.203125 -20.796875 
Q 24.46875 -20.796875 20.265625 -20.09375 
Q 16.0625 -19.390625 12.109375 -17.921875 
L 12.109375 -9.1875 
Q 16.0625 -11.328125 19.921875 -12.34375 
Q 23.78125 -13.375 27.78125 -13.375 
Q 36.625 -13.375 41.015625 -8.765625 
Q 45.40625 -4.15625 45.40625 5.171875 
L 45.40625 9.625 
Q 42.625 4.78125 38.28125 2.390625 
Q 33.9375 0 27.875 0 
Q 17.828125 0 11.671875 7.65625 
Q 5.515625 15.328125 5.515625 27.984375 
Q 5.515625 40.671875 11.671875 48.328125 
Q 17.828125 56 27.875 56 
Q 33.9375 56 38.28125 53.609375 
Q 42.625 51.21875 45.40625 46.390625 
L 45.40625 54.6875 
L 54.390625 54.6875 
z
" id="DejaVuSans-103"/>
    </defs>
    <g transform="translate(181.680937 35.472)scale(0.12 -0.12)">
     <use xlink:href="#DejaVuSans-70"/>
     <use x="57.441406" xlink:href="#DejaVuSans-117"/>
     <use x="120.820312" xlink:href="#DejaVuSans-110"/>
     <use x="184.199219" xlink:href="#DejaVuSans-99"/>
     <use x="239.179688" xlink:href="#DejaVuSans-116"/>
     <use x="278.388672" xlink:href="#DejaVuSans-105"/>
     <use x="306.171875" xlink:href="#DejaVuSans-111"/>
     <use x="367.353516" xlink:href="#DejaVuSans-110"/>
     <use x="430.732422" xlink:href="#DejaVuSans-70"/>
     <use x="488.142578" xlink:href="#DejaVuSans-105"/>
     <use x="515.925781" xlink:href="#DejaVuSans-116"/>
     <use x="555.134766" xlink:href="#DejaVuSans-116"/>
     <use x="594.34375" xlink:href="#DejaVuSans-105"/>
     <use x="622.126953" xlink:href="#DejaVuSans-110"/>
     <use x="685.505859" xlink:href="#DejaVuSans-103"/>
     <use x="748.982422" xlink:href="#DejaVuSans-32"/>
     <use x="780.769531" xlink:href="#DejaVuSans-49"/>
     <use x="844.392578" xlink:href="#DejaVuSans-54"/>
    </g>
   </g>
   <g id="legend_1">
    <g id="patch_7">
     <path d="M 64.6 302.584 
L 172.48125 302.584 
Q 174.48125 302.584 174.48125 300.584 
L 174.48125 272.22775 
Q 174.48125 270.22775 172.48125 270.22775 
L 64.6 270.22775 
Q 62.6 270.22775 62.6 272.22775 
L 62.6 300.584 
Q 62.6 302.584 64.6 302.584 
z
" style="fill:#ffffff;opacity:0.8;stroke:#cccccc;stroke-linejoin:miter;"/>
    </g>
    <g id="line2d_14"/>
    <g id="line2d_15">
     <g>
      <use style="fill:#ff0000;stroke:#ff0000;" x="76.6" xlink:href="#m6b97459935" y="278.326187"/>
     </g>
    </g>
    <g id="text_15">
     <!-- measured data -->
     <defs>
      <path d="M 52 44.1875 
Q 55.375 50.25 60.0625 53.125 
Q 64.75 56 71.09375 56 
Q 79.640625 56 84.28125 50.015625 
Q 88.921875 44.046875 88.921875 33.015625 
L 88.921875 0 
L 79.890625 0 
L 79.890625 32.71875 
Q 79.890625 40.578125 77.09375 44.375 
Q 74.3125 48.1875 68.609375 48.1875 
Q 61.625 48.1875 57.5625 43.546875 
Q 53.515625 38.921875 53.515625 30.90625 
L 53.515625 0 
L 44.484375 0 
L 44.484375 32.71875 
Q 44.484375 40.625 41.703125 44.40625 
Q 38.921875 48.1875 33.109375 48.1875 
Q 26.21875 48.1875 22.15625 43.53125 
Q 18.109375 38.875 18.109375 30.90625 
L 18.109375 0 
L 9.078125 0 
L 9.078125 54.6875 
L 18.109375 54.6875 
L 18.109375 46.1875 
Q 21.1875 51.21875 25.484375 53.609375 
Q 29.78125 56 35.6875 56 
Q 41.65625 56 45.828125 52.96875 
Q 50 49.953125 52 44.1875 
z
" id="DejaVuSans-109"/>
      <path d="M 41.109375 46.296875 
Q 39.59375 47.171875 37.8125 47.578125 
Q 36.03125 48 33.890625 48 
Q 26.265625 48 22.1875 43.046875 
Q 18.109375 38.09375 18.109375 28.8125 
L 18.109375 0 
L 9.078125 0 
L 9.078125 54.6875 
L 18.109375 54.6875 
L 18.109375 46.1875 
Q 20.953125 51.171875 25.484375 53.578125 
Q 30.03125 56 36.53125 56 
Q 37.453125 56 38.578125 55.875 
Q 39.703125 55.765625 41.0625 55.515625 
z
" id="DejaVuSans-114"/>
      <path d="M 45.40625 46.390625 
L 45.40625 75.984375 
L 54.390625 75.984375 
L 54.390625 0 
L 45.40625 0 
L 45.40625 8.203125 
Q 42.578125 3.328125 38.25 0.953125 
Q 33.9375 -1.421875 27.875 -1.421875 
Q 17.96875 -1.421875 11.734375 6.484375 
Q 5.515625 14.40625 5.515625 27.296875 
Q 5.515625 40.1875 11.734375 48.09375 
Q 17.96875 56 27.875 56 
Q 33.9375 56 38.25 53.625 
Q 42.578125 51.265625 45.40625 46.390625 
z
M 14.796875 27.296875 
Q 14.796875 17.390625 18.875 11.75 
Q 22.953125 6.109375 30.078125 6.109375 
Q 37.203125 6.109375 41.296875 11.75 
Q 45.40625 17.390625 45.40625 27.296875 
Q 45.40625 37.203125 41.296875 42.84375 
Q 37.203125 48.484375 30.078125 48.484375 
Q 22.953125 48.484375 18.875 42.84375 
Q 14.796875 37.203125 14.796875 27.296875 
z
" id="DejaVuSans-100"/>
     </defs>
     <g transform="translate(94.6 281.826187)scale(0.1 -0.1)">
      <use xlink:href="#DejaVuSans-109"/>
      <use x="97.412109" xlink:href="#DejaVuSans-101"/>
      <use x="158.935547" xlink:href="#DejaVuSans-97"/>
      <use x="220.214844" xlink:href="#DejaVuSans-115"/>
      <use x="272.314453" xlink:href="#DejaVuSans-117"/>
      <use x="335.693359" xlink:href="#DejaVuSans-114"/>
      <use x="376.775391" xlink:href="#DejaVuSans-101"/>
      <use x="438.298828" xlink:href="#DejaVuSans-100"/>
      <use x="501.775391" xlink:href="#DejaVuSans-32"/>
      <use x="533.5625" xlink:href="#DejaVuSans-100"/>
      <use x="597.039062" xlink:href="#DejaVuSans-97"/>
      <use x="658.318359" xlink:href="#DejaVuSans-116"/>
      <use x="697.527344" xlink:href="#DejaVuSans-97"/>
     </g>
    </g>
    <g id="line2d_16">
     <path d="M 66.6 293.004312 
L 86.6 293.004312 
" style="fill:none;stroke:#008000;stroke-linecap:square;stroke-width:1.5;"/>
    </g>
    <g id="line2d_17"/>
    <g id="text_16">
     <!-- linear data -->
     <g transform="translate(94.6 296.504312)scale(0.1 -0.1)">
      <use xlink:href="#DejaVuSans-108"/>
      <use x="27.783203" xlink:href="#DejaVuSans-105"/>
      <use x="55.566406" xlink:href="#DejaVuSans-110"/>
      <use x="118.945312" xlink:href="#DejaVuSans-101"/>
      <use x="180.46875" xlink:href="#DejaVuSans-97"/>
      <use x="241.748047" xlink:href="#DejaVuSans-114"/>
      <use x="282.861328" xlink:href="#DejaVuSans-32"/>
      <use x="314.648438" xlink:href="#DejaVuSans-100"/>
      <use x="378.125" xlink:href="#DejaVuSans-97"/>
      <use x="439.404297" xlink:href="#DejaVuSans-116"/>
      <use x="478.613281" xlink:href="#DejaVuSans-97"/>
     </g>
    </g>
   </g>
  </g>
 </g>
 <defs>
  <clipPath id="pd536da0199">
   <rect height="266.112" width="357.12" x="57.6" y="41.472"/>
  </clipPath>
 </defs>
</svg>
