<?xml version="1.0" encoding="utf-8" standalone="no"?>
<!DOCTYPE svg PUBLIC "-//W3C//DTD SVG 1.1//EN"
  "http://www.w3.org/Graphics/SVG/1.1/DTD/svg11.dtd">
<!-- Created with matplotlib (https://matplotlib.org/) -->
<svg height="345.6pt" version="1.1" viewBox="0 0 460.8 345.6" width="460.8pt" xmlns="http://www.w3.org/2000/svg" xmlns:xlink="http://www.w3.org/1999/xlink">
 <defs>
  <style type="text/css">
*{stroke-linecap:butt;stroke-linejoin:round;}
  </style>
 </defs>
 <g id="figure_1">
  <g id="patch_1">
   <path d="M 0 345.6 
L 460.8 345.6 
L 460.8 0 
L 0 0 
z
" style="fill:#ffffff;"/>
  </g>
  <g id="axes_1">
   <g id="patch_2">
    <path d="M 57.6 307.584 
L 414.72 307.584 
L 414.72 41.472 
L 57.6 41.472 
z
" style="fill:#ffffff;"/>
   </g>
   <g id="matplotlib.axis_1">
    <g id="xtick_1">
     <g id="line2d_1">
      <defs>
       <path d="M 0 0 
L 0 3.5 
" id="mbbf1a9c598" style="stroke:#000000;stroke-width:0.8;"/>
      </defs>
      <g>
       <use style="stroke:#000000;stroke-width:0.8;" x="125.920923" xlink:href="#mbbf1a9c598" y="307.584"/>
      </g>
     </g>
     <g id="text_1">
      <!-- 20 -->
      <defs>
       <path d="M 19.1875 8.296875 
L 53.609375 8.296875 
L 53.609375 0 
L 7.328125 0 
L 7.328125 8.296875 
Q 12.9375 14.109375 22.625 23.890625 
Q 32.328125 33.6875 34.8125 36.53125 
Q 39.546875 41.84375 41.421875 45.53125 
Q 43.3125 49.21875 43.3125 52.78125 
Q 43.3125 58.59375 39.234375 62.25 
Q 35.15625 65.921875 28.609375 65.921875 
Q 23.96875 65.921875 18.8125 64.3125 
Q 13.671875 62.703125 7.8125 59.421875 
L 7.8125 69.390625 
Q 13.765625 71.78125 18.9375 73 
Q 24.125 74.21875 28.421875 74.21875 
Q 39.75 74.21875 46.484375 68.546875 
Q 53.21875 62.890625 53.21875 53.421875 
Q 53.21875 48.921875 51.53125 44.890625 
Q 49.859375 40.875 45.40625 35.40625 
Q 44.1875 33.984375 37.640625 27.21875 
Q 31.109375 20.453125 19.1875 8.296875 
z
" id="DejaVuSans-50"/>
       <path d="M 31.78125 66.40625 
Q 24.171875 66.40625 20.328125 58.90625 
Q 16.5 51.421875 16.5 36.375 
Q 16.5 21.390625 20.328125 13.890625 
Q 24.171875 6.390625 31.78125 6.390625 
Q 39.453125 6.390625 43.28125 13.890625 
Q 47.125 21.390625 47.125 36.375 
Q 47.125 51.421875 43.28125 58.90625 
Q 39.453125 66.40625 31.78125 66.40625 
z
M 31.78125 74.21875 
Q 44.046875 74.21875 50.515625 64.515625 
Q 56.984375 54.828125 56.984375 36.375 
Q 56.984375 17.96875 50.515625 8.265625 
Q 44.046875 -1.421875 31.78125 -1.421875 
Q 19.53125 -1.421875 13.0625 8.265625 
Q 6.59375 17.96875 6.59375 36.375 
Q 6.59375 54.828125 13.0625 64.515625 
Q 19.53125 74.21875 31.78125 74.21875 
z
" id="DejaVuSans-48"/>
      </defs>
      <g transform="translate(119.558423 322.182437)scale(0.1 -0.1)">
       <use xlink:href="#DejaVuSans-50"/>
       <use x="63.623047" xlink:href="#DejaVuSans-48"/>
      </g>
     </g>
    </g>
    <g id="xtick_2">
     <g id="line2d_2">
      <g>
       <use style="stroke:#000000;stroke-width:0.8;" x="204.705934" xlink:href="#mbbf1a9c598" y="307.584"/>
      </g>
     </g>
     <g id="text_2">
      <!-- 40 -->
      <defs>
       <path d="M 37.796875 64.3125 
L 12.890625 25.390625 
L 37.796875 25.390625 
z
M 35.203125 72.90625 
L 47.609375 72.90625 
L 47.609375 25.390625 
L 58.015625 25.390625 
L 58.015625 17.1875 
L 47.609375 17.1875 
L 47.609375 0 
L 37.796875 0 
L 37.796875 17.1875 
L 4.890625 17.1875 
L 4.890625 26.703125 
z
" id="DejaVuSans-52"/>
      </defs>
      <g transform="translate(198.343434 322.182437)scale(0.1 -0.1)">
       <use xlink:href="#DejaVuSans-52"/>
       <use x="63.623047" xlink:href="#DejaVuSans-48"/>
      </g>
     </g>
    </g>
    <g id="xtick_3">
     <g id="line2d_3">
      <g>
       <use style="stroke:#000000;stroke-width:0.8;" x="283.490944" xlink:href="#mbbf1a9c598" y="307.584"/>
      </g>
     </g>
     <g id="text_3">
      <!-- 60 -->
      <defs>
       <path d="M 33.015625 40.375 
Q 26.375 40.375 22.484375 35.828125 
Q 18.609375 31.296875 18.609375 23.390625 
Q 18.609375 15.53125 22.484375 10.953125 
Q 26.375 6.390625 33.015625 6.390625 
Q 39.65625 6.390625 43.53125 10.953125 
Q 47.40625 15.53125 47.40625 23.390625 
Q 47.40625 31.296875 43.53125 35.828125 
Q 39.65625 40.375 33.015625 40.375 
z
M 52.59375 71.296875 
L 52.59375 62.3125 
Q 48.875 64.0625 45.09375 64.984375 
Q 41.3125 65.921875 37.59375 65.921875 
Q 27.828125 65.921875 22.671875 59.328125 
Q 17.53125 52.734375 16.796875 39.40625 
Q 19.671875 43.65625 24.015625 45.921875 
Q 28.375 48.1875 33.59375 48.1875 
Q 44.578125 48.1875 50.953125 41.515625 
Q 57.328125 34.859375 57.328125 23.390625 
Q 57.328125 12.15625 50.6875 5.359375 
Q 44.046875 -1.421875 33.015625 -1.421875 
Q 20.359375 -1.421875 13.671875 8.265625 
Q 6.984375 17.96875 6.984375 36.375 
Q 6.984375 53.65625 15.1875 63.9375 
Q 23.390625 74.21875 37.203125 74.21875 
Q 40.921875 74.21875 44.703125 73.484375 
Q 48.484375 72.75 52.59375 71.296875 
z
" id="DejaVuSans-54"/>
      </defs>
      <g transform="translate(277.128444 322.182437)scale(0.1 -0.1)">
       <use xlink:href="#DejaVuSans-54"/>
       <use x="63.623047" xlink:href="#DejaVuSans-48"/>
      </g>
     </g>
    </g>
    <g id="xtick_4">
     <g id="line2d_4">
      <g>
       <use style="stroke:#000000;stroke-width:0.8;" x="362.275955" xlink:href="#mbbf1a9c598" y="307.584"/>
      </g>
     </g>
     <g id="text_4">
      <!-- 80 -->
      <defs>
       <path d="M 31.78125 34.625 
Q 24.75 34.625 20.71875 30.859375 
Q 16.703125 27.09375 16.703125 20.515625 
Q 16.703125 13.921875 20.71875 10.15625 
Q 24.75 6.390625 31.78125 6.390625 
Q 38.8125 6.390625 42.859375 10.171875 
Q 46.921875 13.96875 46.921875 20.515625 
Q 46.921875 27.09375 42.890625 30.859375 
Q 38.875 34.625 31.78125 34.625 
z
M 21.921875 38.8125 
Q 15.578125 40.375 12.03125 44.71875 
Q 8.5 49.078125 8.5 55.328125 
Q 8.5 64.0625 14.71875 69.140625 
Q 20.953125 74.21875 31.78125 74.21875 
Q 42.671875 74.21875 48.875 69.140625 
Q 55.078125 64.0625 55.078125 55.328125 
Q 55.078125 49.078125 51.53125 44.71875 
Q 48 40.375 41.703125 38.8125 
Q 48.828125 37.15625 52.796875 32.3125 
Q 56.78125 27.484375 56.78125 20.515625 
Q 56.78125 9.90625 50.3125 4.234375 
Q 43.84375 -1.421875 31.78125 -1.421875 
Q 19.734375 -1.421875 13.25 4.234375 
Q 6.78125 9.90625 6.78125 20.515625 
Q 6.78125 27.484375 10.78125 32.3125 
Q 14.796875 37.15625 21.921875 38.8125 
z
M 18.3125 54.390625 
Q 18.3125 48.734375 21.84375 45.5625 
Q 25.390625 42.390625 31.78125 42.390625 
Q 38.140625 42.390625 41.71875 45.5625 
Q 45.3125 48.734375 45.3125 54.390625 
Q 45.3125 60.0625 41.71875 63.234375 
Q 38.140625 66.40625 31.78125 66.40625 
Q 25.390625 66.40625 21.84375 63.234375 
Q 18.3125 60.0625 18.3125 54.390625 
z
" id="DejaVuSans-56"/>
      </defs>
      <g transform="translate(355.913455 322.182437)scale(0.1 -0.1)">
       <use xlink:href="#DejaVuSans-56"/>
       <use x="63.623047" xlink:href="#DejaVuSans-48"/>
      </g>
     </g>
    </g>
    <g id="text_5">
     <!-- x values -->
     <defs>
      <path d="M 54.890625 54.6875 
L 35.109375 28.078125 
L 55.90625 0 
L 45.3125 0 
L 29.390625 21.484375 
L 13.484375 0 
L 2.875 0 
L 24.125 28.609375 
L 4.6875 54.6875 
L 15.28125 54.6875 
L 29.78125 35.203125 
L 44.28125 54.6875 
z
" id="DejaVuSans-120"/>
      <path id="DejaVuSans-32"/>
      <path d="M 2.984375 54.6875 
L 12.5 54.6875 
L 29.59375 8.796875 
L 46.6875 54.6875 
L 56.203125 54.6875 
L 35.6875 0 
L 23.484375 0 
z
" id="DejaVuSans-118"/>
      <path d="M 34.28125 27.484375 
Q 23.390625 27.484375 19.1875 25 
Q 14.984375 22.515625 14.984375 16.5 
Q 14.984375 11.71875 18.140625 8.90625 
Q 21.296875 6.109375 26.703125 6.109375 
Q 34.1875 6.109375 38.703125 11.40625 
Q 43.21875 16.703125 43.21875 25.484375 
L 43.21875 27.484375 
z
M 52.203125 31.203125 
L 52.203125 0 
L 43.21875 0 
L 43.21875 8.296875 
Q 40.140625 3.328125 35.546875 0.953125 
Q 30.953125 -1.421875 24.3125 -1.421875 
Q 15.921875 -1.421875 10.953125 3.296875 
Q 6 8.015625 6 15.921875 
Q 6 25.140625 12.171875 29.828125 
Q 18.359375 34.515625 30.609375 34.515625 
L 43.21875 34.515625 
L 43.21875 35.40625 
Q 43.21875 41.609375 39.140625 45 
Q 35.0625 48.390625 27.6875 48.390625 
Q 23 48.390625 18.546875 47.265625 
Q 14.109375 46.140625 10.015625 43.890625 
L 10.015625 52.203125 
Q 14.9375 54.109375 19.578125 55.046875 
Q 24.21875 56 28.609375 56 
Q 40.484375 56 46.34375 49.84375 
Q 52.203125 43.703125 52.203125 31.203125 
z
" id="DejaVuSans-97"/>
      <path d="M 9.421875 75.984375 
L 18.40625 75.984375 
L 18.40625 0 
L 9.421875 0 
z
" id="DejaVuSans-108"/>
      <path d="M 8.5 21.578125 
L 8.5 54.6875 
L 17.484375 54.6875 
L 17.484375 21.921875 
Q 17.484375 14.15625 20.5 10.265625 
Q 23.53125 6.390625 29.59375 6.390625 
Q 36.859375 6.390625 41.078125 11.03125 
Q 45.3125 15.671875 45.3125 23.6875 
L 45.3125 54.6875 
L 54.296875 54.6875 
L 54.296875 0 
L 45.3125 0 
L 45.3125 8.40625 
Q 42.046875 3.421875 37.71875 1 
Q 33.40625 -1.421875 27.6875 -1.421875 
Q 18.265625 -1.421875 13.375 4.4375 
Q 8.5 10.296875 8.5 21.578125 
z
M 31.109375 56 
z
" id="DejaVuSans-117"/>
      <path d="M 56.203125 29.59375 
L 56.203125 25.203125 
L 14.890625 25.203125 
Q 15.484375 15.921875 20.484375 11.0625 
Q 25.484375 6.203125 34.421875 6.203125 
Q 39.59375 6.203125 44.453125 7.46875 
Q 49.3125 8.734375 54.109375 11.28125 
L 54.109375 2.78125 
Q 49.265625 0.734375 44.1875 -0.34375 
Q 39.109375 -1.421875 33.890625 -1.421875 
Q 20.796875 -1.421875 13.15625 6.1875 
Q 5.515625 13.8125 5.515625 26.8125 
Q 5.515625 40.234375 12.765625 48.109375 
Q 20.015625 56 32.328125 56 
Q 43.359375 56 49.78125 48.890625 
Q 56.203125 41.796875 56.203125 29.59375 
z
M 47.21875 32.234375 
Q 47.125 39.59375 43.09375 43.984375 
Q 39.0625 48.390625 32.421875 48.390625 
Q 24.90625 48.390625 20.390625 44.140625 
Q 15.875 39.890625 15.1875 32.171875 
z
" id="DejaVuSans-101"/>
      <path d="M 44.28125 53.078125 
L 44.28125 44.578125 
Q 40.484375 46.53125 36.375 47.5 
Q 32.28125 48.484375 27.875 48.484375 
Q 21.1875 48.484375 17.84375 46.4375 
Q 14.5 44.390625 14.5 40.28125 
Q 14.5 37.15625 16.890625 35.375 
Q 19.28125 33.59375 26.515625 31.984375 
L 29.59375 31.296875 
Q 39.15625 29.25 43.1875 25.515625 
Q 47.21875 21.78125 47.21875 15.09375 
Q 47.21875 7.46875 41.1875 3.015625 
Q 35.15625 -1.421875 24.609375 -1.421875 
Q 20.21875 -1.421875 15.453125 -0.5625 
Q 10.6875 0.296875 5.421875 2 
L 5.421875 11.28125 
Q 10.40625 8.6875 15.234375 7.390625 
Q 20.0625 6.109375 24.8125 6.109375 
Q 31.15625 6.109375 34.5625 8.28125 
Q 37.984375 10.453125 37.984375 14.40625 
Q 37.984375 18.0625 35.515625 20.015625 
Q 33.0625 21.96875 24.703125 23.78125 
L 21.578125 24.515625 
Q 13.234375 26.265625 9.515625 29.90625 
Q 5.8125 33.546875 5.8125 39.890625 
Q 5.8125 47.609375 11.28125 51.796875 
Q 16.75 56 26.8125 56 
Q 31.78125 56 36.171875 55.265625 
Q 40.578125 54.546875 44.28125 53.078125 
z
" id="DejaVuSans-115"/>
     </defs>
     <g transform="translate(215.349063 335.860562)scale(0.1 -0.1)">
      <use xlink:href="#DejaVuSans-120"/>
      <use x="59.179688" xlink:href="#DejaVuSans-32"/>
      <use x="90.966797" xlink:href="#DejaVuSans-118"/>
      <use x="150.146484" xlink:href="#DejaVuSans-97"/>
      <use x="211.425781" xlink:href="#DejaVuSans-108"/>
      <use x="239.208984" xlink:href="#DejaVuSans-117"/>
      <use x="302.587891" xlink:href="#DejaVuSans-101"/>
      <use x="364.111328" xlink:href="#DejaVuSans-115"/>
     </g>
    </g>
   </g>
   <g id="matplotlib.axis_2">
    <g id="ytick_1">
     <g id="line2d_5">
      <defs>
       <path d="M 0 0 
L -3.5 0 
" id="m659f7ecd9d" style="stroke:#000000;stroke-width:0.8;"/>
      </defs>
      <g>
       <use style="stroke:#000000;stroke-width:0.8;" x="57.6" xlink:href="#m659f7ecd9d" y="290.316024"/>
      </g>
     </g>
     <g id="text_6">
      <!-- 0 -->
      <g transform="translate(44.2375 294.115243)scale(0.1 -0.1)">
       <use xlink:href="#DejaVuSans-48"/>
      </g>
     </g>
    </g>
    <g id="ytick_2">
     <g id="line2d_6">
      <g>
       <use style="stroke:#000000;stroke-width:0.8;" x="57.6" xlink:href="#m659f7ecd9d" y="251.836852"/>
      </g>
     </g>
     <g id="text_7">
      <!-- 100 -->
      <defs>
       <path d="M 12.40625 8.296875 
L 28.515625 8.296875 
L 28.515625 63.921875 
L 10.984375 60.40625 
L 10.984375 69.390625 
L 28.421875 72.90625 
L 38.28125 72.90625 
L 38.28125 8.296875 
L 54.390625 8.296875 
L 54.390625 0 
L 12.40625 0 
z
" id="DejaVuSans-49"/>
      </defs>
      <g transform="translate(31.5125 255.63607)scale(0.1 -0.1)">
       <use xlink:href="#DejaVuSans-49"/>
       <use x="63.623047" xlink:href="#DejaVuSans-48"/>
       <use x="127.246094" xlink:href="#DejaVuSans-48"/>
      </g>
     </g>
    </g>
    <g id="ytick_3">
     <g id="line2d_7">
      <g>
       <use style="stroke:#000000;stroke-width:0.8;" x="57.6" xlink:href="#m659f7ecd9d" y="213.357679"/>
      </g>
     </g>
     <g id="text_8">
      <!-- 200 -->
      <g transform="translate(31.5125 217.156898)scale(0.1 -0.1)">
       <use xlink:href="#DejaVuSans-50"/>
       <use x="63.623047" xlink:href="#DejaVuSans-48"/>
       <use x="127.246094" xlink:href="#DejaVuSans-48"/>
      </g>
     </g>
    </g>
    <g id="ytick_4">
     <g id="line2d_8">
      <g>
       <use style="stroke:#000000;stroke-width:0.8;" x="57.6" xlink:href="#m659f7ecd9d" y="174.878506"/>
      </g>
     </g>
     <g id="text_9">
      <!-- 300 -->
      <defs>
       <path d="M 40.578125 39.3125 
Q 47.65625 37.796875 51.625 33 
Q 55.609375 28.21875 55.609375 21.1875 
Q 55.609375 10.40625 48.1875 4.484375 
Q 40.765625 -1.421875 27.09375 -1.421875 
Q 22.515625 -1.421875 17.65625 -0.515625 
Q 12.796875 0.390625 7.625 2.203125 
L 7.625 11.71875 
Q 11.71875 9.328125 16.59375 8.109375 
Q 21.484375 6.890625 26.8125 6.890625 
Q 36.078125 6.890625 40.9375 10.546875 
Q 45.796875 14.203125 45.796875 21.1875 
Q 45.796875 27.640625 41.28125 31.265625 
Q 36.765625 34.90625 28.71875 34.90625 
L 20.21875 34.90625 
L 20.21875 43.015625 
L 29.109375 43.015625 
Q 36.375 43.015625 40.234375 45.921875 
Q 44.09375 48.828125 44.09375 54.296875 
Q 44.09375 59.90625 40.109375 62.90625 
Q 36.140625 65.921875 28.71875 65.921875 
Q 24.65625 65.921875 20.015625 65.03125 
Q 15.375 64.15625 9.8125 62.3125 
L 9.8125 71.09375 
Q 15.4375 72.65625 20.34375 73.4375 
Q 25.25 74.21875 29.59375 74.21875 
Q 40.828125 74.21875 47.359375 69.109375 
Q 53.90625 64.015625 53.90625 55.328125 
Q 53.90625 49.265625 50.4375 45.09375 
Q 46.96875 40.921875 40.578125 39.3125 
z
" id="DejaVuSans-51"/>
      </defs>
      <g transform="translate(31.5125 178.677725)scale(0.1 -0.1)">
       <use xlink:href="#DejaVuSans-51"/>
       <use x="63.623047" xlink:href="#DejaVuSans-48"/>
       <use x="127.246094" xlink:href="#DejaVuSans-48"/>
      </g>
     </g>
    </g>
    <g id="ytick_5">
     <g id="line2d_9">
      <g>
       <use style="stroke:#000000;stroke-width:0.8;" x="57.6" xlink:href="#m659f7ecd9d" y="136.399334"/>
      </g>
     </g>
     <g id="text_10">
      <!-- 400 -->
      <g transform="translate(31.5125 140.198552)scale(0.1 -0.1)">
       <use xlink:href="#DejaVuSans-52"/>
       <use x="63.623047" xlink:href="#DejaVuSans-48"/>
       <use x="127.246094" xlink:href="#DejaVuSans-48"/>
      </g>
     </g>
    </g>
    <g id="ytick_6">
     <g id="line2d_10">
      <g>
       <use style="stroke:#000000;stroke-width:0.8;" x="57.6" xlink:href="#m659f7ecd9d" y="97.920161"/>
      </g>
     </g>
     <g id="text_11">
      <!-- 500 -->
      <defs>
       <path d="M 10.796875 72.90625 
L 49.515625 72.90625 
L 49.515625 64.59375 
L 19.828125 64.59375 
L 19.828125 46.734375 
Q 21.96875 47.46875 24.109375 47.828125 
Q 26.265625 48.1875 28.421875 48.1875 
Q 40.625 48.1875 47.75 41.5 
Q 54.890625 34.8125 54.890625 23.390625 
Q 54.890625 11.625 47.5625 5.09375 
Q 40.234375 -1.421875 26.90625 -1.421875 
Q 22.3125 -1.421875 17.546875 -0.640625 
Q 12.796875 0.140625 7.71875 1.703125 
L 7.71875 11.625 
Q 12.109375 9.234375 16.796875 8.0625 
Q 21.484375 6.890625 26.703125 6.890625 
Q 35.15625 6.890625 40.078125 11.328125 
Q 45.015625 15.765625 45.015625 23.390625 
Q 45.015625 31 40.078125 35.4375 
Q 35.15625 39.890625 26.703125 39.890625 
Q 22.75 39.890625 18.8125 39.015625 
Q 14.890625 38.140625 10.796875 36.28125 
z
" id="DejaVuSans-53"/>
      </defs>
      <g transform="translate(31.5125 101.71938)scale(0.1 -0.1)">
       <use xlink:href="#DejaVuSans-53"/>
       <use x="63.623047" xlink:href="#DejaVuSans-48"/>
       <use x="127.246094" xlink:href="#DejaVuSans-48"/>
      </g>
     </g>
    </g>
    <g id="ytick_7">
     <g id="line2d_11">
      <g>
       <use style="stroke:#000000;stroke-width:0.8;" x="57.6" xlink:href="#m659f7ecd9d" y="59.440988"/>
      </g>
     </g>
     <g id="text_12">
      <!-- 600 -->
      <g transform="translate(31.5125 63.240207)scale(0.1 -0.1)">
       <use xlink:href="#DejaVuSans-54"/>
       <use x="63.623047" xlink:href="#DejaVuSans-48"/>
       <use x="127.246094" xlink:href="#DejaVuSans-48"/>
      </g>
     </g>
    </g>
    <g id="text_13">
     <!-- y values -->
     <defs>
      <path d="M 32.171875 -5.078125 
Q 28.375 -14.84375 24.75 -17.8125 
Q 21.140625 -20.796875 15.09375 -20.796875 
L 7.90625 -20.796875 
L 7.90625 -13.28125 
L 13.1875 -13.28125 
Q 16.890625 -13.28125 18.9375 -11.515625 
Q 21 -9.765625 23.484375 -3.21875 
L 25.09375 0.875 
L 2.984375 54.6875 
L 12.5 54.6875 
L 29.59375 11.921875 
L 46.6875 54.6875 
L 56.203125 54.6875 
z
" id="DejaVuSans-121"/>
     </defs>
     <g transform="translate(25.432812 195.338937)rotate(-90)scale(0.1 -0.1)">
      <use xlink:href="#DejaVuSans-121"/>
      <use x="59.179688" xlink:href="#DejaVuSans-32"/>
      <use x="90.966797" xlink:href="#DejaVuSans-118"/>
      <use x="150.146484" xlink:href="#DejaVuSans-97"/>
      <use x="211.425781" xlink:href="#DejaVuSans-108"/>
      <use x="239.208984" xlink:href="#DejaVuSans-117"/>
      <use x="302.587891" xlink:href="#DejaVuSans-101"/>
      <use x="364.111328" xlink:href="#DejaVuSans-115"/>
     </g>
    </g>
   </g>
   <g id="line2d_12">
    <defs>
     <path d="M 0 1 
C 0.265203 1 0.51958 0.894634 0.707107 0.707107 
C 0.894634 0.51958 1 0.265203 1 0 
C 1 -0.265203 0.894634 -0.51958 0.707107 -0.707107 
C 0.51958 -0.894634 0.265203 -1 0 -1 
C -0.265203 -1 -0.51958 -0.894634 -0.707107 -0.707107 
C -0.894634 -0.51958 -1 -0.265203 -1 0 
C -1 0.265203 -0.894634 0.51958 -0.707107 0.707107 
C -0.51958 0.894634 -0.265203 1 0 1 
z
" id="m010e4d0255" style="stroke:#ff0000;"/>
    </defs>
    <g clip-path="url(#p8ae2175b8b)">
     <use style="fill:#ff0000;stroke:#ff0000;" x="73.832727" xlink:href="#m010e4d0255" y="112.740255"/>
     <use style="fill:#ff0000;stroke:#ff0000;" x="75.282078" xlink:href="#m010e4d0255" y="96.816047"/>
     <use style="fill:#ff0000;stroke:#ff0000;" x="76.731429" xlink:href="#m010e4d0255" y="53.568"/>
     <use style="fill:#ff0000;stroke:#ff0000;" x="78.180779" xlink:href="#m010e4d0255" y="92.713791"/>
     <use style="fill:#ff0000;stroke:#ff0000;" x="79.63013" xlink:href="#m010e4d0255" y="96.996001"/>
     <use style="fill:#ff0000;stroke:#ff0000;" x="81.079481" xlink:href="#m010e4d0255" y="96.338459"/>
     <use style="fill:#ff0000;stroke:#ff0000;" x="82.528831" xlink:href="#m010e4d0255" y="110.731296"/>
     <use style="fill:#ff0000;stroke:#ff0000;" x="83.978182" xlink:href="#m010e4d0255" y="130.583501"/>
     <use style="fill:#ff0000;stroke:#ff0000;" x="85.427532" xlink:href="#m010e4d0255" y="98.197906"/>
     <use style="fill:#ff0000;stroke:#ff0000;" x="86.876883" xlink:href="#m010e4d0255" y="144.995573"/>
     <use style="fill:#ff0000;stroke:#ff0000;" x="88.326234" xlink:href="#m010e4d0255" y="129.925515"/>
     <use style="fill:#ff0000;stroke:#ff0000;" x="89.775584" xlink:href="#m010e4d0255" y="115.667117"/>
     <use style="fill:#ff0000;stroke:#ff0000;" x="91.224935" xlink:href="#m010e4d0255" y="98.723109"/>
     <use style="fill:#ff0000;stroke:#ff0000;" x="92.674286" xlink:href="#m010e4d0255" y="145.162972"/>
     <use style="fill:#ff0000;stroke:#ff0000;" x="94.123636" xlink:href="#m010e4d0255" y="133.520643"/>
     <use style="fill:#ff0000;stroke:#ff0000;" x="95.572987" xlink:href="#m010e4d0255" y="117.799093"/>
     <use style="fill:#ff0000;stroke:#ff0000;" x="97.022338" xlink:href="#m010e4d0255" y="140.723202"/>
     <use style="fill:#ff0000;stroke:#ff0000;" x="98.471688" xlink:href="#m010e4d0255" y="110.844907"/>
     <use style="fill:#ff0000;stroke:#ff0000;" x="99.921039" xlink:href="#m010e4d0255" y="148.796692"/>
     <use style="fill:#ff0000;stroke:#ff0000;" x="101.37039" xlink:href="#m010e4d0255" y="156.696108"/>
     <use style="fill:#ff0000;stroke:#ff0000;" x="102.81974" xlink:href="#m010e4d0255" y="141.550154"/>
     <use style="fill:#ff0000;stroke:#ff0000;" x="104.269091" xlink:href="#m010e4d0255" y="155.182437"/>
     <use style="fill:#ff0000;stroke:#ff0000;" x="105.718442" xlink:href="#m010e4d0255" y="129.525125"/>
     <use style="fill:#ff0000;stroke:#ff0000;" x="107.167792" xlink:href="#m010e4d0255" y="148.65343"/>
     <use style="fill:#ff0000;stroke:#ff0000;" x="108.617143" xlink:href="#m010e4d0255" y="161.319968"/>
     <use style="fill:#ff0000;stroke:#ff0000;" x="110.066494" xlink:href="#m010e4d0255" y="139.245608"/>
     <use style="fill:#ff0000;stroke:#ff0000;" x="111.515844" xlink:href="#m010e4d0255" y="169.302035"/>
     <use style="fill:#ff0000;stroke:#ff0000;" x="112.965195" xlink:href="#m010e4d0255" y="151.929985"/>
     <use style="fill:#ff0000;stroke:#ff0000;" x="114.414545" xlink:href="#m010e4d0255" y="165.195557"/>
     <use style="fill:#ff0000;stroke:#ff0000;" x="115.863896" xlink:href="#m010e4d0255" y="144.263328"/>
     <use style="fill:#ff0000;stroke:#ff0000;" x="117.313247" xlink:href="#m010e4d0255" y="145.07132"/>
     <use style="fill:#ff0000;stroke:#ff0000;" x="118.762597" xlink:href="#m010e4d0255" y="153.632716"/>
     <use style="fill:#ff0000;stroke:#ff0000;" x="120.211948" xlink:href="#m010e4d0255" y="137.161005"/>
     <use style="fill:#ff0000;stroke:#ff0000;" x="121.661299" xlink:href="#m010e4d0255" y="195.661723"/>
     <use style="fill:#ff0000;stroke:#ff0000;" x="123.110649" xlink:href="#m010e4d0255" y="182.330057"/>
     <use style="fill:#ff0000;stroke:#ff0000;" x="124.56" xlink:href="#m010e4d0255" y="164.133629"/>
     <use style="fill:#ff0000;stroke:#ff0000;" x="126.009351" xlink:href="#m010e4d0255" y="183.884043"/>
     <use style="fill:#ff0000;stroke:#ff0000;" x="127.458701" xlink:href="#m010e4d0255" y="169.871111"/>
     <use style="fill:#ff0000;stroke:#ff0000;" x="128.908052" xlink:href="#m010e4d0255" y="202.035875"/>
     <use style="fill:#ff0000;stroke:#ff0000;" x="130.357403" xlink:href="#m010e4d0255" y="192.259432"/>
     <use style="fill:#ff0000;stroke:#ff0000;" x="131.806753" xlink:href="#m010e4d0255" y="188.560634"/>
     <use style="fill:#ff0000;stroke:#ff0000;" x="133.256104" xlink:href="#m010e4d0255" y="207.417416"/>
     <use style="fill:#ff0000;stroke:#ff0000;" x="134.705455" xlink:href="#m010e4d0255" y="183.691892"/>
     <use style="fill:#ff0000;stroke:#ff0000;" x="136.154805" xlink:href="#m010e4d0255" y="176.35096"/>
     <use style="fill:#ff0000;stroke:#ff0000;" x="137.604156" xlink:href="#m010e4d0255" y="177.358039"/>
     <use style="fill:#ff0000;stroke:#ff0000;" x="139.053506" xlink:href="#m010e4d0255" y="191.293429"/>
     <use style="fill:#ff0000;stroke:#ff0000;" x="140.502857" xlink:href="#m010e4d0255" y="186.510831"/>
     <use style="fill:#ff0000;stroke:#ff0000;" x="141.952208" xlink:href="#m010e4d0255" y="191.115832"/>
     <use style="fill:#ff0000;stroke:#ff0000;" x="143.401558" xlink:href="#m010e4d0255" y="190.45665"/>
     <use style="fill:#ff0000;stroke:#ff0000;" x="144.850909" xlink:href="#m010e4d0255" y="177.697964"/>
     <use style="fill:#ff0000;stroke:#ff0000;" x="146.30026" xlink:href="#m010e4d0255" y="199.405678"/>
     <use style="fill:#ff0000;stroke:#ff0000;" x="147.74961" xlink:href="#m010e4d0255" y="213.713523"/>
     <use style="fill:#ff0000;stroke:#ff0000;" x="149.198961" xlink:href="#m010e4d0255" y="198.265049"/>
     <use style="fill:#ff0000;stroke:#ff0000;" x="150.648312" xlink:href="#m010e4d0255" y="197.279201"/>
     <use style="fill:#ff0000;stroke:#ff0000;" x="152.097662" xlink:href="#m010e4d0255" y="203.710444"/>
     <use style="fill:#ff0000;stroke:#ff0000;" x="153.547013" xlink:href="#m010e4d0255" y="201.865591"/>
     <use style="fill:#ff0000;stroke:#ff0000;" x="154.996364" xlink:href="#m010e4d0255" y="219.951378"/>
     <use style="fill:#ff0000;stroke:#ff0000;" x="156.445714" xlink:href="#m010e4d0255" y="205.18751"/>
     <use style="fill:#ff0000;stroke:#ff0000;" x="157.895065" xlink:href="#m010e4d0255" y="223.931833"/>
     <use style="fill:#ff0000;stroke:#ff0000;" x="159.344416" xlink:href="#m010e4d0255" y="217.900038"/>
     <use style="fill:#ff0000;stroke:#ff0000;" x="160.793766" xlink:href="#m010e4d0255" y="210.756842"/>
     <use style="fill:#ff0000;stroke:#ff0000;" x="162.243117" xlink:href="#m010e4d0255" y="226.007258"/>
     <use style="fill:#ff0000;stroke:#ff0000;" x="163.692468" xlink:href="#m010e4d0255" y="207.34746"/>
     <use style="fill:#ff0000;stroke:#ff0000;" x="165.141818" xlink:href="#m010e4d0255" y="216.484972"/>
     <use style="fill:#ff0000;stroke:#ff0000;" x="166.591169" xlink:href="#m010e4d0255" y="237.835653"/>
     <use style="fill:#ff0000;stroke:#ff0000;" x="168.040519" xlink:href="#m010e4d0255" y="221.989766"/>
     <use style="fill:#ff0000;stroke:#ff0000;" x="169.48987" xlink:href="#m010e4d0255" y="211.003571"/>
     <use style="fill:#ff0000;stroke:#ff0000;" x="170.939221" xlink:href="#m010e4d0255" y="237.32816"/>
     <use style="fill:#ff0000;stroke:#ff0000;" x="172.388571" xlink:href="#m010e4d0255" y="231.537494"/>
     <use style="fill:#ff0000;stroke:#ff0000;" x="173.837922" xlink:href="#m010e4d0255" y="223.63104"/>
     <use style="fill:#ff0000;stroke:#ff0000;" x="175.287273" xlink:href="#m010e4d0255" y="237.543187"/>
     <use style="fill:#ff0000;stroke:#ff0000;" x="176.736623" xlink:href="#m010e4d0255" y="223.489716"/>
     <use style="fill:#ff0000;stroke:#ff0000;" x="178.185974" xlink:href="#m010e4d0255" y="244.918255"/>
     <use style="fill:#ff0000;stroke:#ff0000;" x="179.635325" xlink:href="#m010e4d0255" y="232.566533"/>
     <use style="fill:#ff0000;stroke:#ff0000;" x="181.084675" xlink:href="#m010e4d0255" y="237.109672"/>
     <use style="fill:#ff0000;stroke:#ff0000;" x="182.534026" xlink:href="#m010e4d0255" y="237.246018"/>
     <use style="fill:#ff0000;stroke:#ff0000;" x="183.983377" xlink:href="#m010e4d0255" y="234.172469"/>
     <use style="fill:#ff0000;stroke:#ff0000;" x="185.432727" xlink:href="#m010e4d0255" y="239.768734"/>
     <use style="fill:#ff0000;stroke:#ff0000;" x="186.882078" xlink:href="#m010e4d0255" y="232.844254"/>
     <use style="fill:#ff0000;stroke:#ff0000;" x="188.331429" xlink:href="#m010e4d0255" y="241.6473"/>
     <use style="fill:#ff0000;stroke:#ff0000;" x="189.780779" xlink:href="#m010e4d0255" y="249.423853"/>
     <use style="fill:#ff0000;stroke:#ff0000;" x="191.23013" xlink:href="#m010e4d0255" y="242.913091"/>
     <use style="fill:#ff0000;stroke:#ff0000;" x="192.679481" xlink:href="#m010e4d0255" y="253.540028"/>
     <use style="fill:#ff0000;stroke:#ff0000;" x="194.128831" xlink:href="#m010e4d0255" y="255.356203"/>
     <use style="fill:#ff0000;stroke:#ff0000;" x="195.578182" xlink:href="#m010e4d0255" y="256.669884"/>
     <use style="fill:#ff0000;stroke:#ff0000;" x="197.027532" xlink:href="#m010e4d0255" y="245.186614"/>
     <use style="fill:#ff0000;stroke:#ff0000;" x="198.476883" xlink:href="#m010e4d0255" y="263.120421"/>
     <use style="fill:#ff0000;stroke:#ff0000;" x="199.926234" xlink:href="#m010e4d0255" y="255.767279"/>
     <use style="fill:#ff0000;stroke:#ff0000;" x="201.375584" xlink:href="#m010e4d0255" y="261.435512"/>
     <use style="fill:#ff0000;stroke:#ff0000;" x="202.824935" xlink:href="#m010e4d0255" y="260.534495"/>
     <use style="fill:#ff0000;stroke:#ff0000;" x="204.274286" xlink:href="#m010e4d0255" y="266.107765"/>
     <use style="fill:#ff0000;stroke:#ff0000;" x="205.723636" xlink:href="#m010e4d0255" y="255.770358"/>
     <use style="fill:#ff0000;stroke:#ff0000;" x="207.172987" xlink:href="#m010e4d0255" y="243.503923"/>
     <use style="fill:#ff0000;stroke:#ff0000;" x="208.622338" xlink:href="#m010e4d0255" y="245.305183"/>
     <use style="fill:#ff0000;stroke:#ff0000;" x="210.071688" xlink:href="#m010e4d0255" y="263.14951"/>
     <use style="fill:#ff0000;stroke:#ff0000;" x="211.521039" xlink:href="#m010e4d0255" y="264.621382"/>
     <use style="fill:#ff0000;stroke:#ff0000;" x="212.97039" xlink:href="#m010e4d0255" y="256.654974"/>
     <use style="fill:#ff0000;stroke:#ff0000;" x="214.41974" xlink:href="#m010e4d0255" y="265.643219"/>
     <use style="fill:#ff0000;stroke:#ff0000;" x="215.869091" xlink:href="#m010e4d0255" y="258.187777"/>
     <use style="fill:#ff0000;stroke:#ff0000;" x="217.318442" xlink:href="#m010e4d0255" y="259.296819"/>
     <use style="fill:#ff0000;stroke:#ff0000;" x="218.767792" xlink:href="#m010e4d0255" y="266.54351"/>
     <use style="fill:#ff0000;stroke:#ff0000;" x="220.217143" xlink:href="#m010e4d0255" y="252.929317"/>
     <use style="fill:#ff0000;stroke:#ff0000;" x="221.666494" xlink:href="#m010e4d0255" y="273.255181"/>
     <use style="fill:#ff0000;stroke:#ff0000;" x="223.115844" xlink:href="#m010e4d0255" y="270.897196"/>
     <use style="fill:#ff0000;stroke:#ff0000;" x="224.565195" xlink:href="#m010e4d0255" y="263.032159"/>
     <use style="fill:#ff0000;stroke:#ff0000;" x="226.014545" xlink:href="#m010e4d0255" y="268.374863"/>
     <use style="fill:#ff0000;stroke:#ff0000;" x="227.463896" xlink:href="#m010e4d0255" y="274.827131"/>
     <use style="fill:#ff0000;stroke:#ff0000;" x="228.913247" xlink:href="#m010e4d0255" y="275.437112"/>
     <use style="fill:#ff0000;stroke:#ff0000;" x="230.362597" xlink:href="#m010e4d0255" y="269.044721"/>
     <use style="fill:#ff0000;stroke:#ff0000;" x="231.811948" xlink:href="#m010e4d0255" y="275.349947"/>
     <use style="fill:#ff0000;stroke:#ff0000;" x="233.261299" xlink:href="#m010e4d0255" y="265.839849"/>
     <use style="fill:#ff0000;stroke:#ff0000;" x="234.710649" xlink:href="#m010e4d0255" y="278.122242"/>
     <use style="fill:#ff0000;stroke:#ff0000;" x="236.16" xlink:href="#m010e4d0255" y="266.772928"/>
     <use style="fill:#ff0000;stroke:#ff0000;" x="237.609351" xlink:href="#m010e4d0255" y="264.989078"/>
     <use style="fill:#ff0000;stroke:#ff0000;" x="239.058701" xlink:href="#m010e4d0255" y="269.810855"/>
     <use style="fill:#ff0000;stroke:#ff0000;" x="240.508052" xlink:href="#m010e4d0255" y="271.990009"/>
     <use style="fill:#ff0000;stroke:#ff0000;" x="241.957403" xlink:href="#m010e4d0255" y="283.967778"/>
     <use style="fill:#ff0000;stroke:#ff0000;" x="243.406753" xlink:href="#m010e4d0255" y="281.305048"/>
     <use style="fill:#ff0000;stroke:#ff0000;" x="244.856104" xlink:href="#m010e4d0255" y="277.918548"/>
     <use style="fill:#ff0000;stroke:#ff0000;" x="246.305455" xlink:href="#m010e4d0255" y="284.540694"/>
     <use style="fill:#ff0000;stroke:#ff0000;" x="247.754805" xlink:href="#m010e4d0255" y="283.774856"/>
     <use style="fill:#ff0000;stroke:#ff0000;" x="249.204156" xlink:href="#m010e4d0255" y="274.920308"/>
     <use style="fill:#ff0000;stroke:#ff0000;" x="250.653506" xlink:href="#m010e4d0255" y="271.794766"/>
     <use style="fill:#ff0000;stroke:#ff0000;" x="252.102857" xlink:href="#m010e4d0255" y="274.000141"/>
     <use style="fill:#ff0000;stroke:#ff0000;" x="253.552208" xlink:href="#m010e4d0255" y="272.930127"/>
     <use style="fill:#ff0000;stroke:#ff0000;" x="255.001558" xlink:href="#m010e4d0255" y="286.997782"/>
     <use style="fill:#ff0000;stroke:#ff0000;" x="256.450909" xlink:href="#m010e4d0255" y="280.938125"/>
     <use style="fill:#ff0000;stroke:#ff0000;" x="257.90026" xlink:href="#m010e4d0255" y="285.076303"/>
     <use style="fill:#ff0000;stroke:#ff0000;" x="259.34961" xlink:href="#m010e4d0255" y="291.244979"/>
     <use style="fill:#ff0000;stroke:#ff0000;" x="260.798961" xlink:href="#m010e4d0255" y="282.888843"/>
     <use style="fill:#ff0000;stroke:#ff0000;" x="262.248312" xlink:href="#m010e4d0255" y="291.355401"/>
     <use style="fill:#ff0000;stroke:#ff0000;" x="263.697662" xlink:href="#m010e4d0255" y="281.551982"/>
     <use style="fill:#ff0000;stroke:#ff0000;" x="265.147013" xlink:href="#m010e4d0255" y="276.13756"/>
     <use style="fill:#ff0000;stroke:#ff0000;" x="266.596364" xlink:href="#m010e4d0255" y="288.274946"/>
     <use style="fill:#ff0000;stroke:#ff0000;" x="268.045714" xlink:href="#m010e4d0255" y="282.782101"/>
     <use style="fill:#ff0000;stroke:#ff0000;" x="269.495065" xlink:href="#m010e4d0255" y="292.543104"/>
     <use style="fill:#ff0000;stroke:#ff0000;" x="270.944416" xlink:href="#m010e4d0255" y="290.251756"/>
     <use style="fill:#ff0000;stroke:#ff0000;" x="272.393766" xlink:href="#m010e4d0255" y="279.068543"/>
     <use style="fill:#ff0000;stroke:#ff0000;" x="273.843117" xlink:href="#m010e4d0255" y="286.516297"/>
     <use style="fill:#ff0000;stroke:#ff0000;" x="275.292468" xlink:href="#m010e4d0255" y="277.066978"/>
     <use style="fill:#ff0000;stroke:#ff0000;" x="276.741818" xlink:href="#m010e4d0255" y="280.967318"/>
     <use style="fill:#ff0000;stroke:#ff0000;" x="278.191169" xlink:href="#m010e4d0255" y="283.655116"/>
     <use style="fill:#ff0000;stroke:#ff0000;" x="279.640519" xlink:href="#m010e4d0255" y="283.801147"/>
     <use style="fill:#ff0000;stroke:#ff0000;" x="281.08987" xlink:href="#m010e4d0255" y="283.624223"/>
     <use style="fill:#ff0000;stroke:#ff0000;" x="282.539221" xlink:href="#m010e4d0255" y="276.33524"/>
     <use style="fill:#ff0000;stroke:#ff0000;" x="283.988571" xlink:href="#m010e4d0255" y="291.784461"/>
     <use style="fill:#ff0000;stroke:#ff0000;" x="285.437922" xlink:href="#m010e4d0255" y="292.026983"/>
     <use style="fill:#ff0000;stroke:#ff0000;" x="286.887273" xlink:href="#m010e4d0255" y="292.054892"/>
     <use style="fill:#ff0000;stroke:#ff0000;" x="288.336623" xlink:href="#m010e4d0255" y="284.787239"/>
     <use style="fill:#ff0000;stroke:#ff0000;" x="289.785974" xlink:href="#m010e4d0255" y="281.887359"/>
     <use style="fill:#ff0000;stroke:#ff0000;" x="291.235325" xlink:href="#m010e4d0255" y="281.264668"/>
     <use style="fill:#ff0000;stroke:#ff0000;" x="292.684675" xlink:href="#m010e4d0255" y="292.899158"/>
     <use style="fill:#ff0000;stroke:#ff0000;" x="294.134026" xlink:href="#m010e4d0255" y="280.516902"/>
     <use style="fill:#ff0000;stroke:#ff0000;" x="295.583377" xlink:href="#m010e4d0255" y="295.488"/>
     <use style="fill:#ff0000;stroke:#ff0000;" x="297.032727" xlink:href="#m010e4d0255" y="283.852816"/>
     <use style="fill:#ff0000;stroke:#ff0000;" x="298.482078" xlink:href="#m010e4d0255" y="290.873809"/>
     <use style="fill:#ff0000;stroke:#ff0000;" x="299.931429" xlink:href="#m010e4d0255" y="285.543092"/>
     <use style="fill:#ff0000;stroke:#ff0000;" x="301.380779" xlink:href="#m010e4d0255" y="288.145649"/>
     <use style="fill:#ff0000;stroke:#ff0000;" x="302.83013" xlink:href="#m010e4d0255" y="279.895208"/>
     <use style="fill:#ff0000;stroke:#ff0000;" x="304.279481" xlink:href="#m010e4d0255" y="282.289412"/>
     <use style="fill:#ff0000;stroke:#ff0000;" x="305.728831" xlink:href="#m010e4d0255" y="284.780533"/>
     <use style="fill:#ff0000;stroke:#ff0000;" x="307.178182" xlink:href="#m010e4d0255" y="281.478217"/>
     <use style="fill:#ff0000;stroke:#ff0000;" x="308.627532" xlink:href="#m010e4d0255" y="284.540207"/>
     <use style="fill:#ff0000;stroke:#ff0000;" x="310.076883" xlink:href="#m010e4d0255" y="282.927645"/>
     <use style="fill:#ff0000;stroke:#ff0000;" x="311.526234" xlink:href="#m010e4d0255" y="290.130808"/>
     <use style="fill:#ff0000;stroke:#ff0000;" x="312.975584" xlink:href="#m010e4d0255" y="290.356076"/>
     <use style="fill:#ff0000;stroke:#ff0000;" x="314.424935" xlink:href="#m010e4d0255" y="292.409082"/>
     <use style="fill:#ff0000;stroke:#ff0000;" x="315.874286" xlink:href="#m010e4d0255" y="282.377261"/>
     <use style="fill:#ff0000;stroke:#ff0000;" x="317.323636" xlink:href="#m010e4d0255" y="282.26999"/>
     <use style="fill:#ff0000;stroke:#ff0000;" x="318.772987" xlink:href="#m010e4d0255" y="281.933068"/>
     <use style="fill:#ff0000;stroke:#ff0000;" x="320.222338" xlink:href="#m010e4d0255" y="282.030045"/>
     <use style="fill:#ff0000;stroke:#ff0000;" x="321.671688" xlink:href="#m010e4d0255" y="287.39817"/>
     <use style="fill:#ff0000;stroke:#ff0000;" x="323.121039" xlink:href="#m010e4d0255" y="289.663081"/>
     <use style="fill:#ff0000;stroke:#ff0000;" x="324.57039" xlink:href="#m010e4d0255" y="274.884669"/>
     <use style="fill:#ff0000;stroke:#ff0000;" x="326.01974" xlink:href="#m010e4d0255" y="283.883468"/>
     <use style="fill:#ff0000;stroke:#ff0000;" x="327.469091" xlink:href="#m010e4d0255" y="276.49352"/>
     <use style="fill:#ff0000;stroke:#ff0000;" x="328.918442" xlink:href="#m010e4d0255" y="280.931816"/>
     <use style="fill:#ff0000;stroke:#ff0000;" x="330.367792" xlink:href="#m010e4d0255" y="287.869694"/>
     <use style="fill:#ff0000;stroke:#ff0000;" x="331.817143" xlink:href="#m010e4d0255" y="275.897196"/>
     <use style="fill:#ff0000;stroke:#ff0000;" x="333.266494" xlink:href="#m010e4d0255" y="270.023131"/>
     <use style="fill:#ff0000;stroke:#ff0000;" x="334.715844" xlink:href="#m010e4d0255" y="290.156193"/>
     <use style="fill:#ff0000;stroke:#ff0000;" x="336.165195" xlink:href="#m010e4d0255" y="287.362783"/>
     <use style="fill:#ff0000;stroke:#ff0000;" x="337.614545" xlink:href="#m010e4d0255" y="278.247404"/>
     <use style="fill:#ff0000;stroke:#ff0000;" x="339.063896" xlink:href="#m010e4d0255" y="285.964203"/>
     <use style="fill:#ff0000;stroke:#ff0000;" x="340.513247" xlink:href="#m010e4d0255" y="281.914512"/>
     <use style="fill:#ff0000;stroke:#ff0000;" x="341.962597" xlink:href="#m010e4d0255" y="265.287923"/>
     <use style="fill:#ff0000;stroke:#ff0000;" x="343.411948" xlink:href="#m010e4d0255" y="282.132458"/>
     <use style="fill:#ff0000;stroke:#ff0000;" x="344.861299" xlink:href="#m010e4d0255" y="277.130595"/>
     <use style="fill:#ff0000;stroke:#ff0000;" x="346.310649" xlink:href="#m010e4d0255" y="274.185457"/>
     <use style="fill:#ff0000;stroke:#ff0000;" x="347.76" xlink:href="#m010e4d0255" y="281.555775"/>
     <use style="fill:#ff0000;stroke:#ff0000;" x="349.209351" xlink:href="#m010e4d0255" y="273.535324"/>
     <use style="fill:#ff0000;stroke:#ff0000;" x="350.658701" xlink:href="#m010e4d0255" y="281.459146"/>
     <use style="fill:#ff0000;stroke:#ff0000;" x="352.108052" xlink:href="#m010e4d0255" y="281.860261"/>
     <use style="fill:#ff0000;stroke:#ff0000;" x="353.557403" xlink:href="#m010e4d0255" y="272.54516"/>
     <use style="fill:#ff0000;stroke:#ff0000;" x="355.006753" xlink:href="#m010e4d0255" y="277.630449"/>
     <use style="fill:#ff0000;stroke:#ff0000;" x="356.456104" xlink:href="#m010e4d0255" y="268.904667"/>
     <use style="fill:#ff0000;stroke:#ff0000;" x="357.905455" xlink:href="#m010e4d0255" y="268.362476"/>
     <use style="fill:#ff0000;stroke:#ff0000;" x="359.354805" xlink:href="#m010e4d0255" y="272.58409"/>
     <use style="fill:#ff0000;stroke:#ff0000;" x="360.804156" xlink:href="#m010e4d0255" y="271.380321"/>
     <use style="fill:#ff0000;stroke:#ff0000;" x="362.253506" xlink:href="#m010e4d0255" y="262.67203"/>
     <use style="fill:#ff0000;stroke:#ff0000;" x="363.702857" xlink:href="#m010e4d0255" y="257.639698"/>
     <use style="fill:#ff0000;stroke:#ff0000;" x="365.152208" xlink:href="#m010e4d0255" y="263.939897"/>
     <use style="fill:#ff0000;stroke:#ff0000;" x="366.601558" xlink:href="#m010e4d0255" y="269.243817"/>
     <use style="fill:#ff0000;stroke:#ff0000;" x="368.050909" xlink:href="#m010e4d0255" y="258.431858"/>
     <use style="fill:#ff0000;stroke:#ff0000;" x="369.50026" xlink:href="#m010e4d0255" y="255.9423"/>
     <use style="fill:#ff0000;stroke:#ff0000;" x="370.94961" xlink:href="#m010e4d0255" y="264.374833"/>
     <use style="fill:#ff0000;stroke:#ff0000;" x="372.398961" xlink:href="#m010e4d0255" y="264.37879"/>
     <use style="fill:#ff0000;stroke:#ff0000;" x="373.848312" xlink:href="#m010e4d0255" y="259.668382"/>
     <use style="fill:#ff0000;stroke:#ff0000;" x="375.297662" xlink:href="#m010e4d0255" y="269.902238"/>
     <use style="fill:#ff0000;stroke:#ff0000;" x="376.747013" xlink:href="#m010e4d0255" y="266.964761"/>
     <use style="fill:#ff0000;stroke:#ff0000;" x="378.196364" xlink:href="#m010e4d0255" y="260.191753"/>
     <use style="fill:#ff0000;stroke:#ff0000;" x="379.645714" xlink:href="#m010e4d0255" y="247.0111"/>
     <use style="fill:#ff0000;stroke:#ff0000;" x="381.095065" xlink:href="#m010e4d0255" y="261.640743"/>
     <use style="fill:#ff0000;stroke:#ff0000;" x="382.544416" xlink:href="#m010e4d0255" y="263.722438"/>
     <use style="fill:#ff0000;stroke:#ff0000;" x="383.993766" xlink:href="#m010e4d0255" y="245.04484"/>
     <use style="fill:#ff0000;stroke:#ff0000;" x="385.443117" xlink:href="#m010e4d0255" y="249.070548"/>
     <use style="fill:#ff0000;stroke:#ff0000;" x="386.892468" xlink:href="#m010e4d0255" y="247.572477"/>
     <use style="fill:#ff0000;stroke:#ff0000;" x="388.341818" xlink:href="#m010e4d0255" y="250.500393"/>
     <use style="fill:#ff0000;stroke:#ff0000;" x="389.791169" xlink:href="#m010e4d0255" y="249.41766"/>
     <use style="fill:#ff0000;stroke:#ff0000;" x="391.240519" xlink:href="#m010e4d0255" y="244.286747"/>
     <use style="fill:#ff0000;stroke:#ff0000;" x="392.68987" xlink:href="#m010e4d0255" y="230.689311"/>
     <use style="fill:#ff0000;stroke:#ff0000;" x="394.139221" xlink:href="#m010e4d0255" y="242.941279"/>
     <use style="fill:#ff0000;stroke:#ff0000;" x="395.588571" xlink:href="#m010e4d0255" y="249.987366"/>
     <use style="fill:#ff0000;stroke:#ff0000;" x="397.037922" xlink:href="#m010e4d0255" y="243.003484"/>
     <use style="fill:#ff0000;stroke:#ff0000;" x="398.487273" xlink:href="#m010e4d0255" y="234.836436"/>
    </g>
   </g>
   <g id="line2d_13">
    <path clip-path="url(#p8ae2175b8b)" d="M 73.832727 92.623945 
L 81.079481 105.288045 
L 88.326234 117.525598 
L 95.572987 129.336606 
L 102.81974 140.721068 
L 110.066494 151.678984 
L 117.313247 162.210355 
L 124.56 172.315179 
L 131.806753 181.993458 
L 139.053506 191.24519 
L 146.30026 200.070377 
L 153.547013 208.469018 
L 159.344416 214.880818 
L 165.141818 221.019628 
L 170.939221 226.885449 
L 176.736623 232.478281 
L 182.534026 237.798123 
L 188.331429 242.844976 
L 194.128831 247.618839 
L 199.926234 252.119714 
L 205.723636 256.347598 
L 211.521039 260.302494 
L 217.318442 263.9844 
L 223.115844 267.393317 
L 228.913247 270.529244 
L 234.710649 273.392182 
L 240.508052 275.982131 
L 246.305455 278.29909 
L 252.102857 280.34306 
L 257.90026 282.114041 
L 263.697662 283.612032 
L 269.495065 284.837034 
L 275.292468 285.789046 
L 281.08987 286.468069 
L 286.887273 286.874103 
L 292.684675 287.007148 
L 298.482078 286.867203 
L 304.279481 286.454268 
L 310.076883 285.768345 
L 315.874286 284.809432 
L 321.671688 283.577529 
L 327.469091 282.072637 
L 333.266494 280.294756 
L 339.063896 278.243886 
L 344.861299 275.920026 
L 350.658701 273.323177 
L 356.456104 270.453338 
L 362.253506 267.31051 
L 368.050909 263.894693 
L 373.848312 260.205887 
L 379.645714 256.244091 
L 385.443117 252.009305 
L 391.240519 247.50153 
L 397.037922 242.720766 
L 398.487273 241.482921 
L 398.487273 241.482921 
" style="fill:none;stroke:#008000;stroke-linecap:square;stroke-width:1.5;"/>
   </g>
   <g id="patch_3">
    <path d="M 57.6 307.584 
L 57.6 41.472 
" style="fill:none;stroke:#000000;stroke-linecap:square;stroke-linejoin:miter;stroke-width:0.8;"/>
   </g>
   <g id="patch_4">
    <path d="M 414.72 307.584 
L 414.72 41.472 
" style="fill:none;stroke:#000000;stroke-linecap:square;stroke-linejoin:miter;stroke-width:0.8;"/>
   </g>
   <g id="patch_5">
    <path d="M 57.6 307.584 
L 414.72 307.584 
" style="fill:none;stroke:#000000;stroke-linecap:square;stroke-linejoin:miter;stroke-width:0.8;"/>
   </g>
   <g id="patch_6">
    <path d="M 57.6 41.472 
L 414.72 41.472 
" style="fill:none;stroke:#000000;stroke-linecap:square;stroke-linejoin:miter;stroke-width:0.8;"/>
   </g>
   <g id="text_14">
    <!-- FunctionFitting 17 -->
    <defs>
     <path d="M 9.8125 72.90625 
L 51.703125 72.90625 
L 51.703125 64.59375 
L 19.671875 64.59375 
L 19.671875 43.109375 
L 48.578125 43.109375 
L 48.578125 34.8125 
L 19.671875 34.8125 
L 19.671875 0 
L 9.8125 0 
z
" id="DejaVuSans-70"/>
     <path d="M 54.890625 33.015625 
L 54.890625 0 
L 45.90625 0 
L 45.90625 32.71875 
Q 45.90625 40.484375 42.875 44.328125 
Q 39.84375 48.1875 33.796875 48.1875 
Q 26.515625 48.1875 22.3125 43.546875 
Q 18.109375 38.921875 18.109375 30.90625 
L 18.109375 0 
L 9.078125 0 
L 9.078125 54.6875 
L 18.109375 54.6875 
L 18.109375 46.1875 
Q 21.34375 51.125 25.703125 53.5625 
Q 30.078125 56 35.796875 56 
Q 45.21875 56 50.046875 50.171875 
Q 54.890625 44.34375 54.890625 33.015625 
z
" id="DejaVuSans-110"/>
     <path d="M 48.78125 52.59375 
L 48.78125 44.1875 
Q 44.96875 46.296875 41.140625 47.34375 
Q 37.3125 48.390625 33.40625 48.390625 
Q 24.65625 48.390625 19.8125 42.84375 
Q 14.984375 37.3125 14.984375 27.296875 
Q 14.984375 17.28125 19.8125 11.734375 
Q 24.65625 6.203125 33.40625 6.203125 
Q 37.3125 6.203125 41.140625 7.25 
Q 44.96875 8.296875 48.78125 10.40625 
L 48.78125 2.09375 
Q 45.015625 0.34375 40.984375 -0.53125 
Q 36.96875 -1.421875 32.421875 -1.421875 
Q 20.0625 -1.421875 12.78125 6.34375 
Q 5.515625 14.109375 5.515625 27.296875 
Q 5.515625 40.671875 12.859375 48.328125 
Q 20.21875 56 33.015625 56 
Q 37.15625 56 41.109375 55.140625 
Q 45.0625 54.296875 48.78125 52.59375 
z
" id="DejaVuSans-99"/>
     <path d="M 18.3125 70.21875 
L 18.3125 54.6875 
L 36.8125 54.6875 
L 36.8125 47.703125 
L 18.3125 47.703125 
L 18.3125 18.015625 
Q 18.3125 11.328125 20.140625 9.421875 
Q 21.96875 7.515625 27.59375 7.515625 
L 36.8125 7.515625 
L 36.8125 0 
L 27.59375 0 
Q 17.1875 0 13.234375 3.875 
Q 9.28125 7.765625 9.28125 18.015625 
L 9.28125 47.703125 
L 2.6875 47.703125 
L 2.6875 54.6875 
L 9.28125 54.6875 
L 9.28125 70.21875 
z
" id="DejaVuSans-116"/>
     <path d="M 9.421875 54.6875 
L 18.40625 54.6875 
L 18.40625 0 
L 9.421875 0 
z
M 9.421875 75.984375 
L 18.40625 75.984375 
L 18.40625 64.59375 
L 9.421875 64.59375 
z
" id="DejaVuSans-105"/>
     <path d="M 30.609375 48.390625 
Q 23.390625 48.390625 19.1875 42.75 
Q 14.984375 37.109375 14.984375 27.296875 
Q 14.984375 17.484375 19.15625 11.84375 
Q 23.34375 6.203125 30.609375 6.203125 
Q 37.796875 6.203125 41.984375 11.859375 
Q 46.1875 17.53125 46.1875 27.296875 
Q 46.1875 37.015625 41.984375 42.703125 
Q 37.796875 48.390625 30.609375 48.390625 
z
M 30.609375 56 
Q 42.328125 56 49.015625 48.375 
Q 55.71875 40.765625 55.71875 27.296875 
Q 55.71875 13.875 49.015625 6.21875 
Q 42.328125 -1.421875 30.609375 -1.421875 
Q 18.84375 -1.421875 12.171875 6.21875 
Q 5.515625 13.875 5.515625 27.296875 
Q 5.515625 40.765625 12.171875 48.375 
Q 18.84375 56 30.609375 56 
z
" id="DejaVuSans-111"/>
     <path d="M 45.40625 27.984375 
Q 45.40625 37.75 41.375 43.109375 
Q 37.359375 48.484375 30.078125 48.484375 
Q 22.859375 48.484375 18.828125 43.109375 
Q 14.796875 37.75 14.796875 27.984375 
Q 14.796875 18.265625 18.828125 12.890625 
Q 22.859375 7.515625 30.078125 7.515625 
Q 37.359375 7.515625 41.375 12.890625 
Q 45.40625 18.265625 45.40625 27.984375 
z
M 54.390625 6.78125 
Q 54.390625 -7.171875 48.1875 -13.984375 
Q 42 -20.796875 29.203125 -20.796875 
Q 24.46875 -20.796875 20.265625 -20.09375 
Q 16.0625 -19.390625 12.109375 -17.921875 
L 12.109375 -9.1875 
Q 16.0625 -11.328125 19.921875 -12.34375 
Q 23.78125 -13.375 27.78125 -13.375 
Q 36.625 -13.375 41.015625 -8.765625 
Q 45.40625 -4.15625 45.40625 5.171875 
L 45.40625 9.625 
Q 42.625 4.78125 38.28125 2.390625 
Q 33.9375 0 27.875 0 
Q 17.828125 0 11.671875 7.65625 
Q 5.515625 15.328125 5.515625 27.984375 
Q 5.515625 40.671875 11.671875 48.328125 
Q 17.828125 56 27.875 56 
Q 33.9375 56 38.28125 53.609375 
Q 42.625 51.21875 45.40625 46.390625 
L 45.40625 54.6875 
L 54.390625 54.6875 
z
" id="DejaVuSans-103"/>
     <path d="M 8.203125 72.90625 
L 55.078125 72.90625 
L 55.078125 68.703125 
L 28.609375 0 
L 18.3125 0 
L 43.21875 64.59375 
L 8.203125 64.59375 
z
" id="DejaVuSans-55"/>
    </defs>
    <g transform="translate(181.680937 35.472)scale(0.12 -0.12)">
     <use xlink:href="#DejaVuSans-70"/>
     <use x="57.441406" xlink:href="#DejaVuSans-117"/>
     <use x="120.820312" xlink:href="#DejaVuSans-110"/>
     <use x="184.199219" xlink:href="#DejaVuSans-99"/>
     <use x="239.179688" xlink:href="#DejaVuSans-116"/>
     <use x="278.388672" xlink:href="#DejaVuSans-105"/>
     <use x="306.171875" xlink:href="#DejaVuSans-111"/>
     <use x="367.353516" xlink:href="#DejaVuSans-110"/>
     <use x="430.732422" xlink:href="#DejaVuSans-70"/>
     <use x="488.142578" xlink:href="#DejaVuSans-105"/>
     <use x="515.925781" xlink:href="#DejaVuSans-116"/>
     <use x="555.134766" xlink:href="#DejaVuSans-116"/>
     <use x="594.34375" xlink:href="#DejaVuSans-105"/>
     <use x="622.126953" xlink:href="#DejaVuSans-110"/>
     <use x="685.505859" xlink:href="#DejaVuSans-103"/>
     <use x="748.982422" xlink:href="#DejaVuSans-32"/>
     <use x="780.769531" xlink:href="#DejaVuSans-49"/>
     <use x="844.392578" xlink:href="#DejaVuSans-55"/>
    </g>
   </g>
   <g id="legend_1">
    <g id="patch_7">
     <path d="M 299.83875 78.82825 
L 407.72 78.82825 
Q 409.72 78.82825 409.72 76.82825 
L 409.72 48.472 
Q 409.72 46.472 407.72 46.472 
L 299.83875 46.472 
Q 297.83875 46.472 297.83875 48.472 
L 297.83875 76.82825 
Q 297.83875 78.82825 299.83875 78.82825 
z
" style="fill:#ffffff;opacity:0.8;stroke:#cccccc;stroke-linejoin:miter;"/>
    </g>
    <g id="line2d_14"/>
    <g id="line2d_15">
     <g>
      <use style="fill:#ff0000;stroke:#ff0000;" x="311.83875" xlink:href="#m010e4d0255" y="54.570437"/>
     </g>
    </g>
    <g id="text_15">
     <!-- measured data -->
     <defs>
      <path d="M 52 44.1875 
Q 55.375 50.25 60.0625 53.125 
Q 64.75 56 71.09375 56 
Q 79.640625 56 84.28125 50.015625 
Q 88.921875 44.046875 88.921875 33.015625 
L 88.921875 0 
L 79.890625 0 
L 79.890625 32.71875 
Q 79.890625 40.578125 77.09375 44.375 
Q 74.3125 48.1875 68.609375 48.1875 
Q 61.625 48.1875 57.5625 43.546875 
Q 53.515625 38.921875 53.515625 30.90625 
L 53.515625 0 
L 44.484375 0 
L 44.484375 32.71875 
Q 44.484375 40.625 41.703125 44.40625 
Q 38.921875 48.1875 33.109375 48.1875 
Q 26.21875 48.1875 22.15625 43.53125 
Q 18.109375 38.875 18.109375 30.90625 
L 18.109375 0 
L 9.078125 0 
L 9.078125 54.6875 
L 18.109375 54.6875 
L 18.109375 46.1875 
Q 21.1875 51.21875 25.484375 53.609375 
Q 29.78125 56 35.6875 56 
Q 41.65625 56 45.828125 52.96875 
Q 50 49.953125 52 44.1875 
z
" id="DejaVuSans-109"/>
      <path d="M 41.109375 46.296875 
Q 39.59375 47.171875 37.8125 47.578125 
Q 36.03125 48 33.890625 48 
Q 26.265625 48 22.1875 43.046875 
Q 18.109375 38.09375 18.109375 28.8125 
L 18.109375 0 
L 9.078125 0 
L 9.078125 54.6875 
L 18.109375 54.6875 
L 18.109375 46.1875 
Q 20.953125 51.171875 25.484375 53.578125 
Q 30.03125 56 36.53125 56 
Q 37.453125 56 38.578125 55.875 
Q 39.703125 55.765625 41.0625 55.515625 
z
" id="DejaVuSans-114"/>
      <path d="M 45.40625 46.390625 
L 45.40625 75.984375 
L 54.390625 75.984375 
L 54.390625 0 
L 45.40625 0 
L 45.40625 8.203125 
Q 42.578125 3.328125 38.25 0.953125 
Q 33.9375 -1.421875 27.875 -1.421875 
Q 17.96875 -1.421875 11.734375 6.484375 
Q 5.515625 14.40625 5.515625 27.296875 
Q 5.515625 40.1875 11.734375 48.09375 
Q 17.96875 56 27.875 56 
Q 33.9375 56 38.25 53.625 
Q 42.578125 51.265625 45.40625 46.390625 
z
M 14.796875 27.296875 
Q 14.796875 17.390625 18.875 11.75 
Q 22.953125 6.109375 30.078125 6.109375 
Q 37.203125 6.109375 41.296875 11.75 
Q 45.40625 17.390625 45.40625 27.296875 
Q 45.40625 37.203125 41.296875 42.84375 
Q 37.203125 48.484375 30.078125 48.484375 
Q 22.953125 48.484375 18.875 42.84375 
Q 14.796875 37.203125 14.796875 27.296875 
z
" id="DejaVuSans-100"/>
     </defs>
     <g transform="translate(329.83875 58.070437)scale(0.1 -0.1)">
      <use xlink:href="#DejaVuSans-109"/>
      <use x="97.412109" xlink:href="#DejaVuSans-101"/>
      <use x="158.935547" xlink:href="#DejaVuSans-97"/>
      <use x="220.214844" xlink:href="#DejaVuSans-115"/>
      <use x="272.314453" xlink:href="#DejaVuSans-117"/>
      <use x="335.693359" xlink:href="#DejaVuSans-114"/>
      <use x="376.775391" xlink:href="#DejaVuSans-101"/>
      <use x="438.298828" xlink:href="#DejaVuSans-100"/>
      <use x="501.775391" xlink:href="#DejaVuSans-32"/>
      <use x="533.5625" xlink:href="#DejaVuSans-100"/>
      <use x="597.039062" xlink:href="#DejaVuSans-97"/>
      <use x="658.318359" xlink:href="#DejaVuSans-116"/>
      <use x="697.527344" xlink:href="#DejaVuSans-97"/>
     </g>
    </g>
    <g id="line2d_16">
     <path d="M 301.83875 69.248562 
L 321.83875 69.248562 
" style="fill:none;stroke:#008000;stroke-linecap:square;stroke-width:1.5;"/>
    </g>
    <g id="line2d_17"/>
    <g id="text_16">
     <!-- linear data -->
     <g transform="translate(329.83875 72.748562)scale(0.1 -0.1)">
      <use xlink:href="#DejaVuSans-108"/>
      <use x="27.783203" xlink:href="#DejaVuSans-105"/>
      <use x="55.566406" xlink:href="#DejaVuSans-110"/>
      <use x="118.945312" xlink:href="#DejaVuSans-101"/>
      <use x="180.46875" xlink:href="#DejaVuSans-97"/>
      <use x="241.748047" xlink:href="#DejaVuSans-114"/>
      <use x="282.861328" xlink:href="#DejaVuSans-32"/>
      <use x="314.648438" xlink:href="#DejaVuSans-100"/>
      <use x="378.125" xlink:href="#DejaVuSans-97"/>
      <use x="439.404297" xlink:href="#DejaVuSans-116"/>
      <use x="478.613281" xlink:href="#DejaVuSans-97"/>
     </g>
    </g>
   </g>
  </g>
 </g>
 <defs>
  <clipPath id="p8ae2175b8b">
   <rect height="266.112" width="357.12" x="57.6" y="41.472"/>
  </clipPath>
 </defs>
</svg>
