<?xml version="1.0" encoding="utf-8" standalone="no"?>
<!DOCTYPE svg PUBLIC "-//W3C//DTD SVG 1.1//EN"
  "http://www.w3.org/Graphics/SVG/1.1/DTD/svg11.dtd">
<!-- Created with matplotlib (https://matplotlib.org/) -->
<svg height="345.6pt" version="1.1" viewBox="0 0 460.8 345.6" width="460.8pt" xmlns="http://www.w3.org/2000/svg" xmlns:xlink="http://www.w3.org/1999/xlink">
 <defs>
  <style type="text/css">
*{stroke-linecap:butt;stroke-linejoin:round;}
  </style>
 </defs>
 <g id="figure_1">
  <g id="patch_1">
   <path d="M 0 345.6 
L 460.8 345.6 
L 460.8 0 
L 0 0 
z
" style="fill:#ffffff;"/>
  </g>
  <g id="axes_1">
   <g id="patch_2">
    <path d="M 57.6 307.584 
L 414.72 307.584 
L 414.72 41.472 
L 57.6 41.472 
z
" style="fill:#ffffff;"/>
   </g>
   <g id="matplotlib.axis_1">
    <g id="xtick_1">
     <g id="line2d_1">
      <defs>
       <path d="M 0 0 
L 0 3.5 
" id="m090959cede" style="stroke:#000000;stroke-width:0.8;"/>
      </defs>
      <g>
       <use style="stroke:#000000;stroke-width:0.8;" x="64.214049" xlink:href="#m090959cede" y="307.584"/>
      </g>
     </g>
     <g id="text_1">
      <!-- 0 -->
      <defs>
       <path d="M 31.78125 66.40625 
Q 24.171875 66.40625 20.328125 58.90625 
Q 16.5 51.421875 16.5 36.375 
Q 16.5 21.390625 20.328125 13.890625 
Q 24.171875 6.390625 31.78125 6.390625 
Q 39.453125 6.390625 43.28125 13.890625 
Q 47.125 21.390625 47.125 36.375 
Q 47.125 51.421875 43.28125 58.90625 
Q 39.453125 66.40625 31.78125 66.40625 
z
M 31.78125 74.21875 
Q 44.046875 74.21875 50.515625 64.515625 
Q 56.984375 54.828125 56.984375 36.375 
Q 56.984375 17.96875 50.515625 8.265625 
Q 44.046875 -1.421875 31.78125 -1.421875 
Q 19.53125 -1.421875 13.0625 8.265625 
Q 6.59375 17.96875 6.59375 36.375 
Q 6.59375 54.828125 13.0625 64.515625 
Q 19.53125 74.21875 31.78125 74.21875 
z
" id="DejaVuSans-48"/>
      </defs>
      <g transform="translate(61.032799 322.182437)scale(0.1 -0.1)">
       <use xlink:href="#DejaVuSans-48"/>
      </g>
     </g>
    </g>
    <g id="xtick_2">
     <g id="line2d_2">
      <g>
       <use style="stroke:#000000;stroke-width:0.8;" x="127.30408" xlink:href="#m090959cede" y="307.584"/>
      </g>
     </g>
     <g id="text_2">
      <!-- 20 -->
      <defs>
       <path d="M 19.1875 8.296875 
L 53.609375 8.296875 
L 53.609375 0 
L 7.328125 0 
L 7.328125 8.296875 
Q 12.9375 14.109375 22.625 23.890625 
Q 32.328125 33.6875 34.8125 36.53125 
Q 39.546875 41.84375 41.421875 45.53125 
Q 43.3125 49.21875 43.3125 52.78125 
Q 43.3125 58.59375 39.234375 62.25 
Q 35.15625 65.921875 28.609375 65.921875 
Q 23.96875 65.921875 18.8125 64.3125 
Q 13.671875 62.703125 7.8125 59.421875 
L 7.8125 69.390625 
Q 13.765625 71.78125 18.9375 73 
Q 24.125 74.21875 28.421875 74.21875 
Q 39.75 74.21875 46.484375 68.546875 
Q 53.21875 62.890625 53.21875 53.421875 
Q 53.21875 48.921875 51.53125 44.890625 
Q 49.859375 40.875 45.40625 35.40625 
Q 44.1875 33.984375 37.640625 27.21875 
Q 31.109375 20.453125 19.1875 8.296875 
z
" id="DejaVuSans-50"/>
      </defs>
      <g transform="translate(120.94158 322.182437)scale(0.1 -0.1)">
       <use xlink:href="#DejaVuSans-50"/>
       <use x="63.623047" xlink:href="#DejaVuSans-48"/>
      </g>
     </g>
    </g>
    <g id="xtick_3">
     <g id="line2d_3">
      <g>
       <use style="stroke:#000000;stroke-width:0.8;" x="190.394112" xlink:href="#m090959cede" y="307.584"/>
      </g>
     </g>
     <g id="text_3">
      <!-- 40 -->
      <defs>
       <path d="M 37.796875 64.3125 
L 12.890625 25.390625 
L 37.796875 25.390625 
z
M 35.203125 72.90625 
L 47.609375 72.90625 
L 47.609375 25.390625 
L 58.015625 25.390625 
L 58.015625 17.1875 
L 47.609375 17.1875 
L 47.609375 0 
L 37.796875 0 
L 37.796875 17.1875 
L 4.890625 17.1875 
L 4.890625 26.703125 
z
" id="DejaVuSans-52"/>
      </defs>
      <g transform="translate(184.031612 322.182437)scale(0.1 -0.1)">
       <use xlink:href="#DejaVuSans-52"/>
       <use x="63.623047" xlink:href="#DejaVuSans-48"/>
      </g>
     </g>
    </g>
    <g id="xtick_4">
     <g id="line2d_4">
      <g>
       <use style="stroke:#000000;stroke-width:0.8;" x="253.484143" xlink:href="#m090959cede" y="307.584"/>
      </g>
     </g>
     <g id="text_4">
      <!-- 60 -->
      <defs>
       <path d="M 33.015625 40.375 
Q 26.375 40.375 22.484375 35.828125 
Q 18.609375 31.296875 18.609375 23.390625 
Q 18.609375 15.53125 22.484375 10.953125 
Q 26.375 6.390625 33.015625 6.390625 
Q 39.65625 6.390625 43.53125 10.953125 
Q 47.40625 15.53125 47.40625 23.390625 
Q 47.40625 31.296875 43.53125 35.828125 
Q 39.65625 40.375 33.015625 40.375 
z
M 52.59375 71.296875 
L 52.59375 62.3125 
Q 48.875 64.0625 45.09375 64.984375 
Q 41.3125 65.921875 37.59375 65.921875 
Q 27.828125 65.921875 22.671875 59.328125 
Q 17.53125 52.734375 16.796875 39.40625 
Q 19.671875 43.65625 24.015625 45.921875 
Q 28.375 48.1875 33.59375 48.1875 
Q 44.578125 48.1875 50.953125 41.515625 
Q 57.328125 34.859375 57.328125 23.390625 
Q 57.328125 12.15625 50.6875 5.359375 
Q 44.046875 -1.421875 33.015625 -1.421875 
Q 20.359375 -1.421875 13.671875 8.265625 
Q 6.984375 17.96875 6.984375 36.375 
Q 6.984375 53.65625 15.1875 63.9375 
Q 23.390625 74.21875 37.203125 74.21875 
Q 40.921875 74.21875 44.703125 73.484375 
Q 48.484375 72.75 52.59375 71.296875 
z
" id="DejaVuSans-54"/>
      </defs>
      <g transform="translate(247.121643 322.182437)scale(0.1 -0.1)">
       <use xlink:href="#DejaVuSans-54"/>
       <use x="63.623047" xlink:href="#DejaVuSans-48"/>
      </g>
     </g>
    </g>
    <g id="xtick_5">
     <g id="line2d_5">
      <g>
       <use style="stroke:#000000;stroke-width:0.8;" x="316.574175" xlink:href="#m090959cede" y="307.584"/>
      </g>
     </g>
     <g id="text_5">
      <!-- 80 -->
      <defs>
       <path d="M 31.78125 34.625 
Q 24.75 34.625 20.71875 30.859375 
Q 16.703125 27.09375 16.703125 20.515625 
Q 16.703125 13.921875 20.71875 10.15625 
Q 24.75 6.390625 31.78125 6.390625 
Q 38.8125 6.390625 42.859375 10.171875 
Q 46.921875 13.96875 46.921875 20.515625 
Q 46.921875 27.09375 42.890625 30.859375 
Q 38.875 34.625 31.78125 34.625 
z
M 21.921875 38.8125 
Q 15.578125 40.375 12.03125 44.71875 
Q 8.5 49.078125 8.5 55.328125 
Q 8.5 64.0625 14.71875 69.140625 
Q 20.953125 74.21875 31.78125 74.21875 
Q 42.671875 74.21875 48.875 69.140625 
Q 55.078125 64.0625 55.078125 55.328125 
Q 55.078125 49.078125 51.53125 44.71875 
Q 48 40.375 41.703125 38.8125 
Q 48.828125 37.15625 52.796875 32.3125 
Q 56.78125 27.484375 56.78125 20.515625 
Q 56.78125 9.90625 50.3125 4.234375 
Q 43.84375 -1.421875 31.78125 -1.421875 
Q 19.734375 -1.421875 13.25 4.234375 
Q 6.78125 9.90625 6.78125 20.515625 
Q 6.78125 27.484375 10.78125 32.3125 
Q 14.796875 37.15625 21.921875 38.8125 
z
M 18.3125 54.390625 
Q 18.3125 48.734375 21.84375 45.5625 
Q 25.390625 42.390625 31.78125 42.390625 
Q 38.140625 42.390625 41.71875 45.5625 
Q 45.3125 48.734375 45.3125 54.390625 
Q 45.3125 60.0625 41.71875 63.234375 
Q 38.140625 66.40625 31.78125 66.40625 
Q 25.390625 66.40625 21.84375 63.234375 
Q 18.3125 60.0625 18.3125 54.390625 
z
" id="DejaVuSans-56"/>
      </defs>
      <g transform="translate(310.211675 322.182437)scale(0.1 -0.1)">
       <use xlink:href="#DejaVuSans-56"/>
       <use x="63.623047" xlink:href="#DejaVuSans-48"/>
      </g>
     </g>
    </g>
    <g id="xtick_6">
     <g id="line2d_6">
      <g>
       <use style="stroke:#000000;stroke-width:0.8;" x="379.664206" xlink:href="#m090959cede" y="307.584"/>
      </g>
     </g>
     <g id="text_6">
      <!-- 100 -->
      <defs>
       <path d="M 12.40625 8.296875 
L 28.515625 8.296875 
L 28.515625 63.921875 
L 10.984375 60.40625 
L 10.984375 69.390625 
L 28.421875 72.90625 
L 38.28125 72.90625 
L 38.28125 8.296875 
L 54.390625 8.296875 
L 54.390625 0 
L 12.40625 0 
z
" id="DejaVuSans-49"/>
      </defs>
      <g transform="translate(370.120456 322.182437)scale(0.1 -0.1)">
       <use xlink:href="#DejaVuSans-49"/>
       <use x="63.623047" xlink:href="#DejaVuSans-48"/>
       <use x="127.246094" xlink:href="#DejaVuSans-48"/>
      </g>
     </g>
    </g>
    <g id="text_7">
     <!-- x values -->
     <defs>
      <path d="M 54.890625 54.6875 
L 35.109375 28.078125 
L 55.90625 0 
L 45.3125 0 
L 29.390625 21.484375 
L 13.484375 0 
L 2.875 0 
L 24.125 28.609375 
L 4.6875 54.6875 
L 15.28125 54.6875 
L 29.78125 35.203125 
L 44.28125 54.6875 
z
" id="DejaVuSans-120"/>
      <path id="DejaVuSans-32"/>
      <path d="M 2.984375 54.6875 
L 12.5 54.6875 
L 29.59375 8.796875 
L 46.6875 54.6875 
L 56.203125 54.6875 
L 35.6875 0 
L 23.484375 0 
z
" id="DejaVuSans-118"/>
      <path d="M 34.28125 27.484375 
Q 23.390625 27.484375 19.1875 25 
Q 14.984375 22.515625 14.984375 16.5 
Q 14.984375 11.71875 18.140625 8.90625 
Q 21.296875 6.109375 26.703125 6.109375 
Q 34.1875 6.109375 38.703125 11.40625 
Q 43.21875 16.703125 43.21875 25.484375 
L 43.21875 27.484375 
z
M 52.203125 31.203125 
L 52.203125 0 
L 43.21875 0 
L 43.21875 8.296875 
Q 40.140625 3.328125 35.546875 0.953125 
Q 30.953125 -1.421875 24.3125 -1.421875 
Q 15.921875 -1.421875 10.953125 3.296875 
Q 6 8.015625 6 15.921875 
Q 6 25.140625 12.171875 29.828125 
Q 18.359375 34.515625 30.609375 34.515625 
L 43.21875 34.515625 
L 43.21875 35.40625 
Q 43.21875 41.609375 39.140625 45 
Q 35.0625 48.390625 27.6875 48.390625 
Q 23 48.390625 18.546875 47.265625 
Q 14.109375 46.140625 10.015625 43.890625 
L 10.015625 52.203125 
Q 14.9375 54.109375 19.578125 55.046875 
Q 24.21875 56 28.609375 56 
Q 40.484375 56 46.34375 49.84375 
Q 52.203125 43.703125 52.203125 31.203125 
z
" id="DejaVuSans-97"/>
      <path d="M 9.421875 75.984375 
L 18.40625 75.984375 
L 18.40625 0 
L 9.421875 0 
z
" id="DejaVuSans-108"/>
      <path d="M 8.5 21.578125 
L 8.5 54.6875 
L 17.484375 54.6875 
L 17.484375 21.921875 
Q 17.484375 14.15625 20.5 10.265625 
Q 23.53125 6.390625 29.59375 6.390625 
Q 36.859375 6.390625 41.078125 11.03125 
Q 45.3125 15.671875 45.3125 23.6875 
L 45.3125 54.6875 
L 54.296875 54.6875 
L 54.296875 0 
L 45.3125 0 
L 45.3125 8.40625 
Q 42.046875 3.421875 37.71875 1 
Q 33.40625 -1.421875 27.6875 -1.421875 
Q 18.265625 -1.421875 13.375 4.4375 
Q 8.5 10.296875 8.5 21.578125 
z
M 31.109375 56 
z
" id="DejaVuSans-117"/>
      <path d="M 56.203125 29.59375 
L 56.203125 25.203125 
L 14.890625 25.203125 
Q 15.484375 15.921875 20.484375 11.0625 
Q 25.484375 6.203125 34.421875 6.203125 
Q 39.59375 6.203125 44.453125 7.46875 
Q 49.3125 8.734375 54.109375 11.28125 
L 54.109375 2.78125 
Q 49.265625 0.734375 44.1875 -0.34375 
Q 39.109375 -1.421875 33.890625 -1.421875 
Q 20.796875 -1.421875 13.15625 6.1875 
Q 5.515625 13.8125 5.515625 26.8125 
Q 5.515625 40.234375 12.765625 48.109375 
Q 20.015625 56 32.328125 56 
Q 43.359375 56 49.78125 48.890625 
Q 56.203125 41.796875 56.203125 29.59375 
z
M 47.21875 32.234375 
Q 47.125 39.59375 43.09375 43.984375 
Q 39.0625 48.390625 32.421875 48.390625 
Q 24.90625 48.390625 20.390625 44.140625 
Q 15.875 39.890625 15.1875 32.171875 
z
" id="DejaVuSans-101"/>
      <path d="M 44.28125 53.078125 
L 44.28125 44.578125 
Q 40.484375 46.53125 36.375 47.5 
Q 32.28125 48.484375 27.875 48.484375 
Q 21.1875 48.484375 17.84375 46.4375 
Q 14.5 44.390625 14.5 40.28125 
Q 14.5 37.15625 16.890625 35.375 
Q 19.28125 33.59375 26.515625 31.984375 
L 29.59375 31.296875 
Q 39.15625 29.25 43.1875 25.515625 
Q 47.21875 21.78125 47.21875 15.09375 
Q 47.21875 7.46875 41.1875 3.015625 
Q 35.15625 -1.421875 24.609375 -1.421875 
Q 20.21875 -1.421875 15.453125 -0.5625 
Q 10.6875 0.296875 5.421875 2 
L 5.421875 11.28125 
Q 10.40625 8.6875 15.234375 7.390625 
Q 20.0625 6.109375 24.8125 6.109375 
Q 31.15625 6.109375 34.5625 8.28125 
Q 37.984375 10.453125 37.984375 14.40625 
Q 37.984375 18.0625 35.515625 20.015625 
Q 33.0625 21.96875 24.703125 23.78125 
L 21.578125 24.515625 
Q 13.234375 26.265625 9.515625 29.90625 
Q 5.8125 33.546875 5.8125 39.890625 
Q 5.8125 47.609375 11.28125 51.796875 
Q 16.75 56 26.8125 56 
Q 31.78125 56 36.171875 55.265625 
Q 40.578125 54.546875 44.28125 53.078125 
z
" id="DejaVuSans-115"/>
     </defs>
     <g transform="translate(215.349063 335.860562)scale(0.1 -0.1)">
      <use xlink:href="#DejaVuSans-120"/>
      <use x="59.179688" xlink:href="#DejaVuSans-32"/>
      <use x="90.966797" xlink:href="#DejaVuSans-118"/>
      <use x="150.146484" xlink:href="#DejaVuSans-97"/>
      <use x="211.425781" xlink:href="#DejaVuSans-108"/>
      <use x="239.208984" xlink:href="#DejaVuSans-117"/>
      <use x="302.587891" xlink:href="#DejaVuSans-101"/>
      <use x="364.111328" xlink:href="#DejaVuSans-115"/>
     </g>
    </g>
   </g>
   <g id="matplotlib.axis_2">
    <g id="ytick_1">
     <g id="line2d_7">
      <defs>
       <path d="M 0 0 
L -3.5 0 
" id="me65e35b89f" style="stroke:#000000;stroke-width:0.8;"/>
      </defs>
      <g>
       <use style="stroke:#000000;stroke-width:0.8;" x="57.6" xlink:href="#me65e35b89f" y="291.368748"/>
      </g>
     </g>
     <g id="text_8">
      <!-- 0 -->
      <g transform="translate(44.2375 295.167967)scale(0.1 -0.1)">
       <use xlink:href="#DejaVuSans-48"/>
      </g>
     </g>
    </g>
    <g id="ytick_2">
     <g id="line2d_8">
      <g>
       <use style="stroke:#000000;stroke-width:0.8;" x="57.6" xlink:href="#me65e35b89f" y="256.445523"/>
      </g>
     </g>
     <g id="text_9">
      <!-- 100 -->
      <g transform="translate(31.5125 260.244742)scale(0.1 -0.1)">
       <use xlink:href="#DejaVuSans-49"/>
       <use x="63.623047" xlink:href="#DejaVuSans-48"/>
       <use x="127.246094" xlink:href="#DejaVuSans-48"/>
      </g>
     </g>
    </g>
    <g id="ytick_3">
     <g id="line2d_9">
      <g>
       <use style="stroke:#000000;stroke-width:0.8;" x="57.6" xlink:href="#me65e35b89f" y="221.522298"/>
      </g>
     </g>
     <g id="text_10">
      <!-- 200 -->
      <g transform="translate(31.5125 225.321516)scale(0.1 -0.1)">
       <use xlink:href="#DejaVuSans-50"/>
       <use x="63.623047" xlink:href="#DejaVuSans-48"/>
       <use x="127.246094" xlink:href="#DejaVuSans-48"/>
      </g>
     </g>
    </g>
    <g id="ytick_4">
     <g id="line2d_10">
      <g>
       <use style="stroke:#000000;stroke-width:0.8;" x="57.6" xlink:href="#me65e35b89f" y="186.599073"/>
      </g>
     </g>
     <g id="text_11">
      <!-- 300 -->
      <defs>
       <path d="M 40.578125 39.3125 
Q 47.65625 37.796875 51.625 33 
Q 55.609375 28.21875 55.609375 21.1875 
Q 55.609375 10.40625 48.1875 4.484375 
Q 40.765625 -1.421875 27.09375 -1.421875 
Q 22.515625 -1.421875 17.65625 -0.515625 
Q 12.796875 0.390625 7.625 2.203125 
L 7.625 11.71875 
Q 11.71875 9.328125 16.59375 8.109375 
Q 21.484375 6.890625 26.8125 6.890625 
Q 36.078125 6.890625 40.9375 10.546875 
Q 45.796875 14.203125 45.796875 21.1875 
Q 45.796875 27.640625 41.28125 31.265625 
Q 36.765625 34.90625 28.71875 34.90625 
L 20.21875 34.90625 
L 20.21875 43.015625 
L 29.109375 43.015625 
Q 36.375 43.015625 40.234375 45.921875 
Q 44.09375 48.828125 44.09375 54.296875 
Q 44.09375 59.90625 40.109375 62.90625 
Q 36.140625 65.921875 28.71875 65.921875 
Q 24.65625 65.921875 20.015625 65.03125 
Q 15.375 64.15625 9.8125 62.3125 
L 9.8125 71.09375 
Q 15.4375 72.65625 20.34375 73.4375 
Q 25.25 74.21875 29.59375 74.21875 
Q 40.828125 74.21875 47.359375 69.109375 
Q 53.90625 64.015625 53.90625 55.328125 
Q 53.90625 49.265625 50.4375 45.09375 
Q 46.96875 40.921875 40.578125 39.3125 
z
" id="DejaVuSans-51"/>
      </defs>
      <g transform="translate(31.5125 190.398291)scale(0.1 -0.1)">
       <use xlink:href="#DejaVuSans-51"/>
       <use x="63.623047" xlink:href="#DejaVuSans-48"/>
       <use x="127.246094" xlink:href="#DejaVuSans-48"/>
      </g>
     </g>
    </g>
    <g id="ytick_5">
     <g id="line2d_11">
      <g>
       <use style="stroke:#000000;stroke-width:0.8;" x="57.6" xlink:href="#me65e35b89f" y="151.675847"/>
      </g>
     </g>
     <g id="text_12">
      <!-- 400 -->
      <g transform="translate(31.5125 155.475066)scale(0.1 -0.1)">
       <use xlink:href="#DejaVuSans-52"/>
       <use x="63.623047" xlink:href="#DejaVuSans-48"/>
       <use x="127.246094" xlink:href="#DejaVuSans-48"/>
      </g>
     </g>
    </g>
    <g id="ytick_6">
     <g id="line2d_12">
      <g>
       <use style="stroke:#000000;stroke-width:0.8;" x="57.6" xlink:href="#me65e35b89f" y="116.752622"/>
      </g>
     </g>
     <g id="text_13">
      <!-- 500 -->
      <defs>
       <path d="M 10.796875 72.90625 
L 49.515625 72.90625 
L 49.515625 64.59375 
L 19.828125 64.59375 
L 19.828125 46.734375 
Q 21.96875 47.46875 24.109375 47.828125 
Q 26.265625 48.1875 28.421875 48.1875 
Q 40.625 48.1875 47.75 41.5 
Q 54.890625 34.8125 54.890625 23.390625 
Q 54.890625 11.625 47.5625 5.09375 
Q 40.234375 -1.421875 26.90625 -1.421875 
Q 22.3125 -1.421875 17.546875 -0.640625 
Q 12.796875 0.140625 7.71875 1.703125 
L 7.71875 11.625 
Q 12.109375 9.234375 16.796875 8.0625 
Q 21.484375 6.890625 26.703125 6.890625 
Q 35.15625 6.890625 40.078125 11.328125 
Q 45.015625 15.765625 45.015625 23.390625 
Q 45.015625 31 40.078125 35.4375 
Q 35.15625 39.890625 26.703125 39.890625 
Q 22.75 39.890625 18.8125 39.015625 
Q 14.890625 38.140625 10.796875 36.28125 
z
" id="DejaVuSans-53"/>
      </defs>
      <g transform="translate(31.5125 120.551841)scale(0.1 -0.1)">
       <use xlink:href="#DejaVuSans-53"/>
       <use x="63.623047" xlink:href="#DejaVuSans-48"/>
       <use x="127.246094" xlink:href="#DejaVuSans-48"/>
      </g>
     </g>
    </g>
    <g id="ytick_7">
     <g id="line2d_13">
      <g>
       <use style="stroke:#000000;stroke-width:0.8;" x="57.6" xlink:href="#me65e35b89f" y="81.829397"/>
      </g>
     </g>
     <g id="text_14">
      <!-- 600 -->
      <g transform="translate(31.5125 85.628616)scale(0.1 -0.1)">
       <use xlink:href="#DejaVuSans-54"/>
       <use x="63.623047" xlink:href="#DejaVuSans-48"/>
       <use x="127.246094" xlink:href="#DejaVuSans-48"/>
      </g>
     </g>
    </g>
    <g id="ytick_8">
     <g id="line2d_14">
      <g>
       <use style="stroke:#000000;stroke-width:0.8;" x="57.6" xlink:href="#me65e35b89f" y="46.906172"/>
      </g>
     </g>
     <g id="text_15">
      <!-- 700 -->
      <defs>
       <path d="M 8.203125 72.90625 
L 55.078125 72.90625 
L 55.078125 68.703125 
L 28.609375 0 
L 18.3125 0 
L 43.21875 64.59375 
L 8.203125 64.59375 
z
" id="DejaVuSans-55"/>
      </defs>
      <g transform="translate(31.5125 50.705391)scale(0.1 -0.1)">
       <use xlink:href="#DejaVuSans-55"/>
       <use x="63.623047" xlink:href="#DejaVuSans-48"/>
       <use x="127.246094" xlink:href="#DejaVuSans-48"/>
      </g>
     </g>
    </g>
    <g id="text_16">
     <!-- y values -->
     <defs>
      <path d="M 32.171875 -5.078125 
Q 28.375 -14.84375 24.75 -17.8125 
Q 21.140625 -20.796875 15.09375 -20.796875 
L 7.90625 -20.796875 
L 7.90625 -13.28125 
L 13.1875 -13.28125 
Q 16.890625 -13.28125 18.9375 -11.515625 
Q 21 -9.765625 23.484375 -3.21875 
L 25.09375 0.875 
L 2.984375 54.6875 
L 12.5 54.6875 
L 29.59375 11.921875 
L 46.6875 54.6875 
L 56.203125 54.6875 
z
" id="DejaVuSans-121"/>
     </defs>
     <g transform="translate(25.432812 195.338937)rotate(-90)scale(0.1 -0.1)">
      <use xlink:href="#DejaVuSans-121"/>
      <use x="59.179688" xlink:href="#DejaVuSans-32"/>
      <use x="90.966797" xlink:href="#DejaVuSans-118"/>
      <use x="150.146484" xlink:href="#DejaVuSans-97"/>
      <use x="211.425781" xlink:href="#DejaVuSans-108"/>
      <use x="239.208984" xlink:href="#DejaVuSans-117"/>
      <use x="302.587891" xlink:href="#DejaVuSans-101"/>
      <use x="364.111328" xlink:href="#DejaVuSans-115"/>
     </g>
    </g>
   </g>
   <g id="line2d_15">
    <defs>
     <path d="M 0 1 
C 0.265203 1 0.51958 0.894634 0.707107 0.707107 
C 0.894634 0.51958 1 0.265203 1 0 
C 1 -0.265203 0.894634 -0.51958 0.707107 -0.707107 
C 0.51958 -0.894634 0.265203 -1 0 -1 
C -0.265203 -1 -0.51958 -0.894634 -0.707107 -0.707107 
C -0.894634 -0.51958 -1 -0.265203 -1 0 
C -1 0.265203 -0.894634 0.51958 -0.707107 0.707107 
C -0.51958 0.894634 -0.265203 1 0 1 
z
" id="mee14a7d2d2" style="stroke:#ff0000;"/>
    </defs>
    <g clip-path="url(#pfada50b3ef)">
     <use style="fill:#ff0000;stroke:#ff0000;" x="73.832727" xlink:href="#mee14a7d2d2" y="81.0238"/>
     <use style="fill:#ff0000;stroke:#ff0000;" x="75.095975" xlink:href="#mee14a7d2d2" y="53.568"/>
     <use style="fill:#ff0000;stroke:#ff0000;" x="76.359222" xlink:href="#mee14a7d2d2" y="138.390133"/>
     <use style="fill:#ff0000;stroke:#ff0000;" x="77.622469" xlink:href="#mee14a7d2d2" y="113.814197"/>
     <use style="fill:#ff0000;stroke:#ff0000;" x="78.885716" xlink:href="#mee14a7d2d2" y="119.075662"/>
     <use style="fill:#ff0000;stroke:#ff0000;" x="80.148964" xlink:href="#mee14a7d2d2" y="136.604359"/>
     <use style="fill:#ff0000;stroke:#ff0000;" x="81.412211" xlink:href="#mee14a7d2d2" y="126.671423"/>
     <use style="fill:#ff0000;stroke:#ff0000;" x="82.675458" xlink:href="#mee14a7d2d2" y="130.047494"/>
     <use style="fill:#ff0000;stroke:#ff0000;" x="83.938705" xlink:href="#mee14a7d2d2" y="125.444017"/>
     <use style="fill:#ff0000;stroke:#ff0000;" x="85.201953" xlink:href="#mee14a7d2d2" y="83.700589"/>
     <use style="fill:#ff0000;stroke:#ff0000;" x="86.4652" xlink:href="#mee14a7d2d2" y="111.542727"/>
     <use style="fill:#ff0000;stroke:#ff0000;" x="87.728447" xlink:href="#mee14a7d2d2" y="142.678534"/>
     <use style="fill:#ff0000;stroke:#ff0000;" x="88.991694" xlink:href="#mee14a7d2d2" y="103.368647"/>
     <use style="fill:#ff0000;stroke:#ff0000;" x="90.254942" xlink:href="#mee14a7d2d2" y="102.214943"/>
     <use style="fill:#ff0000;stroke:#ff0000;" x="91.518189" xlink:href="#mee14a7d2d2" y="112.005765"/>
     <use style="fill:#ff0000;stroke:#ff0000;" x="92.781436" xlink:href="#mee14a7d2d2" y="103.527381"/>
     <use style="fill:#ff0000;stroke:#ff0000;" x="94.044683" xlink:href="#mee14a7d2d2" y="138.142828"/>
     <use style="fill:#ff0000;stroke:#ff0000;" x="95.307931" xlink:href="#mee14a7d2d2" y="152.385683"/>
     <use style="fill:#ff0000;stroke:#ff0000;" x="96.571178" xlink:href="#mee14a7d2d2" y="129.686211"/>
     <use style="fill:#ff0000;stroke:#ff0000;" x="97.834425" xlink:href="#mee14a7d2d2" y="155.189015"/>
     <use style="fill:#ff0000;stroke:#ff0000;" x="99.097672" xlink:href="#mee14a7d2d2" y="155.134526"/>
     <use style="fill:#ff0000;stroke:#ff0000;" x="100.36092" xlink:href="#mee14a7d2d2" y="135.365717"/>
     <use style="fill:#ff0000;stroke:#ff0000;" x="101.624167" xlink:href="#mee14a7d2d2" y="161.029231"/>
     <use style="fill:#ff0000;stroke:#ff0000;" x="102.887414" xlink:href="#mee14a7d2d2" y="134.824264"/>
     <use style="fill:#ff0000;stroke:#ff0000;" x="104.150661" xlink:href="#mee14a7d2d2" y="122.241465"/>
     <use style="fill:#ff0000;stroke:#ff0000;" x="105.413909" xlink:href="#mee14a7d2d2" y="130.789977"/>
     <use style="fill:#ff0000;stroke:#ff0000;" x="106.677156" xlink:href="#mee14a7d2d2" y="153.050094"/>
     <use style="fill:#ff0000;stroke:#ff0000;" x="107.940403" xlink:href="#mee14a7d2d2" y="122.813165"/>
     <use style="fill:#ff0000;stroke:#ff0000;" x="109.203651" xlink:href="#mee14a7d2d2" y="165.084308"/>
     <use style="fill:#ff0000;stroke:#ff0000;" x="110.466898" xlink:href="#mee14a7d2d2" y="133.752242"/>
     <use style="fill:#ff0000;stroke:#ff0000;" x="111.730145" xlink:href="#mee14a7d2d2" y="173.495655"/>
     <use style="fill:#ff0000;stroke:#ff0000;" x="112.993392" xlink:href="#mee14a7d2d2" y="138.824693"/>
     <use style="fill:#ff0000;stroke:#ff0000;" x="114.25664" xlink:href="#mee14a7d2d2" y="142.307524"/>
     <use style="fill:#ff0000;stroke:#ff0000;" x="115.519887" xlink:href="#mee14a7d2d2" y="186.712466"/>
     <use style="fill:#ff0000;stroke:#ff0000;" x="116.783134" xlink:href="#mee14a7d2d2" y="159.520524"/>
     <use style="fill:#ff0000;stroke:#ff0000;" x="118.046381" xlink:href="#mee14a7d2d2" y="160.484621"/>
     <use style="fill:#ff0000;stroke:#ff0000;" x="119.309629" xlink:href="#mee14a7d2d2" y="157.973777"/>
     <use style="fill:#ff0000;stroke:#ff0000;" x="120.572876" xlink:href="#mee14a7d2d2" y="181.293572"/>
     <use style="fill:#ff0000;stroke:#ff0000;" x="121.836123" xlink:href="#mee14a7d2d2" y="171.810948"/>
     <use style="fill:#ff0000;stroke:#ff0000;" x="123.09937" xlink:href="#mee14a7d2d2" y="194.811041"/>
     <use style="fill:#ff0000;stroke:#ff0000;" x="124.362618" xlink:href="#mee14a7d2d2" y="193.793239"/>
     <use style="fill:#ff0000;stroke:#ff0000;" x="125.625865" xlink:href="#mee14a7d2d2" y="167.595915"/>
     <use style="fill:#ff0000;stroke:#ff0000;" x="126.889112" xlink:href="#mee14a7d2d2" y="205.703556"/>
     <use style="fill:#ff0000;stroke:#ff0000;" x="128.152359" xlink:href="#mee14a7d2d2" y="182.648685"/>
     <use style="fill:#ff0000;stroke:#ff0000;" x="129.415607" xlink:href="#mee14a7d2d2" y="191.792433"/>
     <use style="fill:#ff0000;stroke:#ff0000;" x="130.678854" xlink:href="#mee14a7d2d2" y="182.296911"/>
     <use style="fill:#ff0000;stroke:#ff0000;" x="131.942101" xlink:href="#mee14a7d2d2" y="203.415791"/>
     <use style="fill:#ff0000;stroke:#ff0000;" x="133.205348" xlink:href="#mee14a7d2d2" y="174.033828"/>
     <use style="fill:#ff0000;stroke:#ff0000;" x="134.468596" xlink:href="#mee14a7d2d2" y="187.659245"/>
     <use style="fill:#ff0000;stroke:#ff0000;" x="135.731843" xlink:href="#mee14a7d2d2" y="184.837685"/>
     <use style="fill:#ff0000;stroke:#ff0000;" x="136.99509" xlink:href="#mee14a7d2d2" y="186.25571"/>
     <use style="fill:#ff0000;stroke:#ff0000;" x="138.258337" xlink:href="#mee14a7d2d2" y="203.813324"/>
     <use style="fill:#ff0000;stroke:#ff0000;" x="139.521585" xlink:href="#mee14a7d2d2" y="202.10892"/>
     <use style="fill:#ff0000;stroke:#ff0000;" x="140.784832" xlink:href="#mee14a7d2d2" y="189.469474"/>
     <use style="fill:#ff0000;stroke:#ff0000;" x="142.048079" xlink:href="#mee14a7d2d2" y="190.252499"/>
     <use style="fill:#ff0000;stroke:#ff0000;" x="143.311326" xlink:href="#mee14a7d2d2" y="213.632867"/>
     <use style="fill:#ff0000;stroke:#ff0000;" x="144.574574" xlink:href="#mee14a7d2d2" y="196.796088"/>
     <use style="fill:#ff0000;stroke:#ff0000;" x="145.837821" xlink:href="#mee14a7d2d2" y="196.040569"/>
     <use style="fill:#ff0000;stroke:#ff0000;" x="147.101068" xlink:href="#mee14a7d2d2" y="227.539734"/>
     <use style="fill:#ff0000;stroke:#ff0000;" x="148.364316" xlink:href="#mee14a7d2d2" y="212.531675"/>
     <use style="fill:#ff0000;stroke:#ff0000;" x="149.627563" xlink:href="#mee14a7d2d2" y="217.246148"/>
     <use style="fill:#ff0000;stroke:#ff0000;" x="150.89081" xlink:href="#mee14a7d2d2" y="212.346197"/>
     <use style="fill:#ff0000;stroke:#ff0000;" x="152.154057" xlink:href="#mee14a7d2d2" y="231.997585"/>
     <use style="fill:#ff0000;stroke:#ff0000;" x="153.417305" xlink:href="#mee14a7d2d2" y="234.762134"/>
     <use style="fill:#ff0000;stroke:#ff0000;" x="154.680552" xlink:href="#mee14a7d2d2" y="214.67747"/>
     <use style="fill:#ff0000;stroke:#ff0000;" x="155.943799" xlink:href="#mee14a7d2d2" y="231.298722"/>
     <use style="fill:#ff0000;stroke:#ff0000;" x="157.207046" xlink:href="#mee14a7d2d2" y="239.780954"/>
     <use style="fill:#ff0000;stroke:#ff0000;" x="158.470294" xlink:href="#mee14a7d2d2" y="210.629697"/>
     <use style="fill:#ff0000;stroke:#ff0000;" x="159.733541" xlink:href="#mee14a7d2d2" y="216.598826"/>
     <use style="fill:#ff0000;stroke:#ff0000;" x="160.996788" xlink:href="#mee14a7d2d2" y="239.185776"/>
     <use style="fill:#ff0000;stroke:#ff0000;" x="162.260035" xlink:href="#mee14a7d2d2" y="219.757805"/>
     <use style="fill:#ff0000;stroke:#ff0000;" x="163.523283" xlink:href="#mee14a7d2d2" y="236.751068"/>
     <use style="fill:#ff0000;stroke:#ff0000;" x="164.78653" xlink:href="#mee14a7d2d2" y="238.946414"/>
     <use style="fill:#ff0000;stroke:#ff0000;" x="166.049777" xlink:href="#mee14a7d2d2" y="249.066545"/>
     <use style="fill:#ff0000;stroke:#ff0000;" x="167.313024" xlink:href="#mee14a7d2d2" y="236.653603"/>
     <use style="fill:#ff0000;stroke:#ff0000;" x="168.576272" xlink:href="#mee14a7d2d2" y="223.468792"/>
     <use style="fill:#ff0000;stroke:#ff0000;" x="169.839519" xlink:href="#mee14a7d2d2" y="238.438593"/>
     <use style="fill:#ff0000;stroke:#ff0000;" x="171.102766" xlink:href="#mee14a7d2d2" y="249.828326"/>
     <use style="fill:#ff0000;stroke:#ff0000;" x="172.366013" xlink:href="#mee14a7d2d2" y="237.01843"/>
     <use style="fill:#ff0000;stroke:#ff0000;" x="173.629261" xlink:href="#mee14a7d2d2" y="230.502563"/>
     <use style="fill:#ff0000;stroke:#ff0000;" x="174.892508" xlink:href="#mee14a7d2d2" y="249.895077"/>
     <use style="fill:#ff0000;stroke:#ff0000;" x="176.155755" xlink:href="#mee14a7d2d2" y="248.887141"/>
     <use style="fill:#ff0000;stroke:#ff0000;" x="177.419002" xlink:href="#mee14a7d2d2" y="232.609413"/>
     <use style="fill:#ff0000;stroke:#ff0000;" x="178.68225" xlink:href="#mee14a7d2d2" y="249.926875"/>
     <use style="fill:#ff0000;stroke:#ff0000;" x="179.945497" xlink:href="#mee14a7d2d2" y="243.703768"/>
     <use style="fill:#ff0000;stroke:#ff0000;" x="181.208744" xlink:href="#mee14a7d2d2" y="235.281068"/>
     <use style="fill:#ff0000;stroke:#ff0000;" x="182.471992" xlink:href="#mee14a7d2d2" y="249.79694"/>
     <use style="fill:#ff0000;stroke:#ff0000;" x="183.735239" xlink:href="#mee14a7d2d2" y="255.793123"/>
     <use style="fill:#ff0000;stroke:#ff0000;" x="184.998486" xlink:href="#mee14a7d2d2" y="250.360982"/>
     <use style="fill:#ff0000;stroke:#ff0000;" x="186.261733" xlink:href="#mee14a7d2d2" y="252.49103"/>
     <use style="fill:#ff0000;stroke:#ff0000;" x="187.524981" xlink:href="#mee14a7d2d2" y="256.887256"/>
     <use style="fill:#ff0000;stroke:#ff0000;" x="188.788228" xlink:href="#mee14a7d2d2" y="257.261597"/>
     <use style="fill:#ff0000;stroke:#ff0000;" x="190.051475" xlink:href="#mee14a7d2d2" y="268.306413"/>
     <use style="fill:#ff0000;stroke:#ff0000;" x="191.314722" xlink:href="#mee14a7d2d2" y="261.994046"/>
     <use style="fill:#ff0000;stroke:#ff0000;" x="192.57797" xlink:href="#mee14a7d2d2" y="261.900099"/>
     <use style="fill:#ff0000;stroke:#ff0000;" x="193.841217" xlink:href="#mee14a7d2d2" y="264.552112"/>
     <use style="fill:#ff0000;stroke:#ff0000;" x="195.104464" xlink:href="#mee14a7d2d2" y="262.047186"/>
     <use style="fill:#ff0000;stroke:#ff0000;" x="196.367711" xlink:href="#mee14a7d2d2" y="269.288957"/>
     <use style="fill:#ff0000;stroke:#ff0000;" x="197.630959" xlink:href="#mee14a7d2d2" y="254.677977"/>
     <use style="fill:#ff0000;stroke:#ff0000;" x="198.894206" xlink:href="#mee14a7d2d2" y="251.809615"/>
     <use style="fill:#ff0000;stroke:#ff0000;" x="200.157453" xlink:href="#mee14a7d2d2" y="262.116313"/>
     <use style="fill:#ff0000;stroke:#ff0000;" x="201.4207" xlink:href="#mee14a7d2d2" y="272.933483"/>
     <use style="fill:#ff0000;stroke:#ff0000;" x="202.683948" xlink:href="#mee14a7d2d2" y="265.939164"/>
     <use style="fill:#ff0000;stroke:#ff0000;" x="203.947195" xlink:href="#mee14a7d2d2" y="261.480962"/>
     <use style="fill:#ff0000;stroke:#ff0000;" x="205.210442" xlink:href="#mee14a7d2d2" y="265.016696"/>
     <use style="fill:#ff0000;stroke:#ff0000;" x="206.473689" xlink:href="#mee14a7d2d2" y="265.885407"/>
     <use style="fill:#ff0000;stroke:#ff0000;" x="207.736937" xlink:href="#mee14a7d2d2" y="281.495058"/>
     <use style="fill:#ff0000;stroke:#ff0000;" x="209.000184" xlink:href="#mee14a7d2d2" y="279.155726"/>
     <use style="fill:#ff0000;stroke:#ff0000;" x="210.263431" xlink:href="#mee14a7d2d2" y="275.062256"/>
     <use style="fill:#ff0000;stroke:#ff0000;" x="211.526678" xlink:href="#mee14a7d2d2" y="272.037452"/>
     <use style="fill:#ff0000;stroke:#ff0000;" x="212.789926" xlink:href="#mee14a7d2d2" y="269.910016"/>
     <use style="fill:#ff0000;stroke:#ff0000;" x="214.053173" xlink:href="#mee14a7d2d2" y="279.468392"/>
     <use style="fill:#ff0000;stroke:#ff0000;" x="215.31642" xlink:href="#mee14a7d2d2" y="267.813551"/>
     <use style="fill:#ff0000;stroke:#ff0000;" x="216.579667" xlink:href="#mee14a7d2d2" y="268.260872"/>
     <use style="fill:#ff0000;stroke:#ff0000;" x="217.842915" xlink:href="#mee14a7d2d2" y="285.175257"/>
     <use style="fill:#ff0000;stroke:#ff0000;" x="219.106162" xlink:href="#mee14a7d2d2" y="272.486593"/>
     <use style="fill:#ff0000;stroke:#ff0000;" x="220.369409" xlink:href="#mee14a7d2d2" y="280.86078"/>
     <use style="fill:#ff0000;stroke:#ff0000;" x="221.632657" xlink:href="#mee14a7d2d2" y="282.222273"/>
     <use style="fill:#ff0000;stroke:#ff0000;" x="222.895904" xlink:href="#mee14a7d2d2" y="272.384035"/>
     <use style="fill:#ff0000;stroke:#ff0000;" x="224.159151" xlink:href="#mee14a7d2d2" y="279.581493"/>
     <use style="fill:#ff0000;stroke:#ff0000;" x="225.422398" xlink:href="#mee14a7d2d2" y="281.580343"/>
     <use style="fill:#ff0000;stroke:#ff0000;" x="226.685646" xlink:href="#mee14a7d2d2" y="288.238638"/>
     <use style="fill:#ff0000;stroke:#ff0000;" x="227.948893" xlink:href="#mee14a7d2d2" y="281.862817"/>
     <use style="fill:#ff0000;stroke:#ff0000;" x="229.21214" xlink:href="#mee14a7d2d2" y="273.369879"/>
     <use style="fill:#ff0000;stroke:#ff0000;" x="230.475387" xlink:href="#mee14a7d2d2" y="274.739416"/>
     <use style="fill:#ff0000;stroke:#ff0000;" x="231.738635" xlink:href="#mee14a7d2d2" y="271.607585"/>
     <use style="fill:#ff0000;stroke:#ff0000;" x="233.001882" xlink:href="#mee14a7d2d2" y="289.562192"/>
     <use style="fill:#ff0000;stroke:#ff0000;" x="234.265129" xlink:href="#mee14a7d2d2" y="277.391899"/>
     <use style="fill:#ff0000;stroke:#ff0000;" x="235.528376" xlink:href="#mee14a7d2d2" y="285.539758"/>
     <use style="fill:#ff0000;stroke:#ff0000;" x="236.791624" xlink:href="#mee14a7d2d2" y="289.307138"/>
     <use style="fill:#ff0000;stroke:#ff0000;" x="238.054871" xlink:href="#mee14a7d2d2" y="288.743887"/>
     <use style="fill:#ff0000;stroke:#ff0000;" x="239.318118" xlink:href="#mee14a7d2d2" y="281.38193"/>
     <use style="fill:#ff0000;stroke:#ff0000;" x="240.581365" xlink:href="#mee14a7d2d2" y="280.930978"/>
     <use style="fill:#ff0000;stroke:#ff0000;" x="241.844613" xlink:href="#mee14a7d2d2" y="278.917899"/>
     <use style="fill:#ff0000;stroke:#ff0000;" x="243.10786" xlink:href="#mee14a7d2d2" y="291.918743"/>
     <use style="fill:#ff0000;stroke:#ff0000;" x="244.371107" xlink:href="#mee14a7d2d2" y="282.321178"/>
     <use style="fill:#ff0000;stroke:#ff0000;" x="245.634354" xlink:href="#mee14a7d2d2" y="277.696386"/>
     <use style="fill:#ff0000;stroke:#ff0000;" x="246.897602" xlink:href="#mee14a7d2d2" y="287.639023"/>
     <use style="fill:#ff0000;stroke:#ff0000;" x="248.160849" xlink:href="#mee14a7d2d2" y="292.317831"/>
     <use style="fill:#ff0000;stroke:#ff0000;" x="249.424096" xlink:href="#mee14a7d2d2" y="292.424381"/>
     <use style="fill:#ff0000;stroke:#ff0000;" x="250.687343" xlink:href="#mee14a7d2d2" y="283.241925"/>
     <use style="fill:#ff0000;stroke:#ff0000;" x="251.950591" xlink:href="#mee14a7d2d2" y="284.504575"/>
     <use style="fill:#ff0000;stroke:#ff0000;" x="253.213838" xlink:href="#mee14a7d2d2" y="284.276778"/>
     <use style="fill:#ff0000;stroke:#ff0000;" x="254.477085" xlink:href="#mee14a7d2d2" y="287.060297"/>
     <use style="fill:#ff0000;stroke:#ff0000;" x="255.740333" xlink:href="#mee14a7d2d2" y="285.280695"/>
     <use style="fill:#ff0000;stroke:#ff0000;" x="257.00358" xlink:href="#mee14a7d2d2" y="283.300241"/>
     <use style="fill:#ff0000;stroke:#ff0000;" x="258.266827" xlink:href="#mee14a7d2d2" y="284.347604"/>
     <use style="fill:#ff0000;stroke:#ff0000;" x="259.530074" xlink:href="#mee14a7d2d2" y="292.327959"/>
     <use style="fill:#ff0000;stroke:#ff0000;" x="260.793322" xlink:href="#mee14a7d2d2" y="294.244278"/>
     <use style="fill:#ff0000;stroke:#ff0000;" x="262.056569" xlink:href="#mee14a7d2d2" y="281.012699"/>
     <use style="fill:#ff0000;stroke:#ff0000;" x="263.319816" xlink:href="#mee14a7d2d2" y="292.409447"/>
     <use style="fill:#ff0000;stroke:#ff0000;" x="264.583063" xlink:href="#mee14a7d2d2" y="292.16573"/>
     <use style="fill:#ff0000;stroke:#ff0000;" x="265.846311" xlink:href="#mee14a7d2d2" y="292.783667"/>
     <use style="fill:#ff0000;stroke:#ff0000;" x="267.109558" xlink:href="#mee14a7d2d2" y="281.066075"/>
     <use style="fill:#ff0000;stroke:#ff0000;" x="268.372805" xlink:href="#mee14a7d2d2" y="295.488"/>
     <use style="fill:#ff0000;stroke:#ff0000;" x="269.636052" xlink:href="#mee14a7d2d2" y="289.590577"/>
     <use style="fill:#ff0000;stroke:#ff0000;" x="270.8993" xlink:href="#mee14a7d2d2" y="289.204018"/>
     <use style="fill:#ff0000;stroke:#ff0000;" x="272.162547" xlink:href="#mee14a7d2d2" y="289.358506"/>
     <use style="fill:#ff0000;stroke:#ff0000;" x="273.425794" xlink:href="#mee14a7d2d2" y="292.590379"/>
     <use style="fill:#ff0000;stroke:#ff0000;" x="274.689041" xlink:href="#mee14a7d2d2" y="280.318112"/>
     <use style="fill:#ff0000;stroke:#ff0000;" x="275.952289" xlink:href="#mee14a7d2d2" y="291.229446"/>
     <use style="fill:#ff0000;stroke:#ff0000;" x="277.215536" xlink:href="#mee14a7d2d2" y="294.50322"/>
     <use style="fill:#ff0000;stroke:#ff0000;" x="278.478783" xlink:href="#mee14a7d2d2" y="288.695021"/>
     <use style="fill:#ff0000;stroke:#ff0000;" x="279.74203" xlink:href="#mee14a7d2d2" y="280.564323"/>
     <use style="fill:#ff0000;stroke:#ff0000;" x="281.005278" xlink:href="#mee14a7d2d2" y="294.303066"/>
     <use style="fill:#ff0000;stroke:#ff0000;" x="282.268525" xlink:href="#mee14a7d2d2" y="293.974549"/>
     <use style="fill:#ff0000;stroke:#ff0000;" x="283.531772" xlink:href="#mee14a7d2d2" y="278.831875"/>
     <use style="fill:#ff0000;stroke:#ff0000;" x="284.795019" xlink:href="#mee14a7d2d2" y="294.76494"/>
     <use style="fill:#ff0000;stroke:#ff0000;" x="286.058267" xlink:href="#mee14a7d2d2" y="290.225516"/>
     <use style="fill:#ff0000;stroke:#ff0000;" x="287.321514" xlink:href="#mee14a7d2d2" y="283.208675"/>
     <use style="fill:#ff0000;stroke:#ff0000;" x="288.584761" xlink:href="#mee14a7d2d2" y="280.883771"/>
     <use style="fill:#ff0000;stroke:#ff0000;" x="289.848008" xlink:href="#mee14a7d2d2" y="286.488702"/>
     <use style="fill:#ff0000;stroke:#ff0000;" x="291.111256" xlink:href="#mee14a7d2d2" y="287.588689"/>
     <use style="fill:#ff0000;stroke:#ff0000;" x="292.374503" xlink:href="#mee14a7d2d2" y="277.178008"/>
     <use style="fill:#ff0000;stroke:#ff0000;" x="293.63775" xlink:href="#mee14a7d2d2" y="279.545506"/>
     <use style="fill:#ff0000;stroke:#ff0000;" x="294.900998" xlink:href="#mee14a7d2d2" y="287.121405"/>
     <use style="fill:#ff0000;stroke:#ff0000;" x="296.164245" xlink:href="#mee14a7d2d2" y="280.147781"/>
     <use style="fill:#ff0000;stroke:#ff0000;" x="297.427492" xlink:href="#mee14a7d2d2" y="286.28124"/>
     <use style="fill:#ff0000;stroke:#ff0000;" x="298.690739" xlink:href="#mee14a7d2d2" y="278.020822"/>
     <use style="fill:#ff0000;stroke:#ff0000;" x="299.953987" xlink:href="#mee14a7d2d2" y="289.309164"/>
     <use style="fill:#ff0000;stroke:#ff0000;" x="301.217234" xlink:href="#mee14a7d2d2" y="273.026798"/>
     <use style="fill:#ff0000;stroke:#ff0000;" x="302.480481" xlink:href="#mee14a7d2d2" y="278.103893"/>
     <use style="fill:#ff0000;stroke:#ff0000;" x="303.743728" xlink:href="#mee14a7d2d2" y="283.155976"/>
     <use style="fill:#ff0000;stroke:#ff0000;" x="305.006976" xlink:href="#mee14a7d2d2" y="283.835625"/>
     <use style="fill:#ff0000;stroke:#ff0000;" x="306.270223" xlink:href="#mee14a7d2d2" y="283.706416"/>
     <use style="fill:#ff0000;stroke:#ff0000;" x="307.53347" xlink:href="#mee14a7d2d2" y="277.46556"/>
     <use style="fill:#ff0000;stroke:#ff0000;" x="308.796717" xlink:href="#mee14a7d2d2" y="286.124824"/>
     <use style="fill:#ff0000;stroke:#ff0000;" x="310.059965" xlink:href="#mee14a7d2d2" y="270.681136"/>
     <use style="fill:#ff0000;stroke:#ff0000;" x="311.323212" xlink:href="#mee14a7d2d2" y="275.385924"/>
     <use style="fill:#ff0000;stroke:#ff0000;" x="312.586459" xlink:href="#mee14a7d2d2" y="284.039778"/>
     <use style="fill:#ff0000;stroke:#ff0000;" x="313.849706" xlink:href="#mee14a7d2d2" y="284.944022"/>
     <use style="fill:#ff0000;stroke:#ff0000;" x="315.112954" xlink:href="#mee14a7d2d2" y="283.030639"/>
     <use style="fill:#ff0000;stroke:#ff0000;" x="316.376201" xlink:href="#mee14a7d2d2" y="270.758341"/>
     <use style="fill:#ff0000;stroke:#ff0000;" x="317.639448" xlink:href="#mee14a7d2d2" y="268.555799"/>
     <use style="fill:#ff0000;stroke:#ff0000;" x="318.902695" xlink:href="#mee14a7d2d2" y="270.350794"/>
     <use style="fill:#ff0000;stroke:#ff0000;" x="320.165943" xlink:href="#mee14a7d2d2" y="271.286826"/>
     <use style="fill:#ff0000;stroke:#ff0000;" x="321.42919" xlink:href="#mee14a7d2d2" y="278.827919"/>
     <use style="fill:#ff0000;stroke:#ff0000;" x="322.692437" xlink:href="#mee14a7d2d2" y="264.600087"/>
     <use style="fill:#ff0000;stroke:#ff0000;" x="323.955684" xlink:href="#mee14a7d2d2" y="262.239003"/>
     <use style="fill:#ff0000;stroke:#ff0000;" x="325.218932" xlink:href="#mee14a7d2d2" y="266.650693"/>
     <use style="fill:#ff0000;stroke:#ff0000;" x="326.482179" xlink:href="#mee14a7d2d2" y="275.153842"/>
     <use style="fill:#ff0000;stroke:#ff0000;" x="327.745426" xlink:href="#mee14a7d2d2" y="272.753447"/>
     <use style="fill:#ff0000;stroke:#ff0000;" x="329.008674" xlink:href="#mee14a7d2d2" y="262.241674"/>
     <use style="fill:#ff0000;stroke:#ff0000;" x="330.271921" xlink:href="#mee14a7d2d2" y="258.970688"/>
     <use style="fill:#ff0000;stroke:#ff0000;" x="331.535168" xlink:href="#mee14a7d2d2" y="266.445297"/>
     <use style="fill:#ff0000;stroke:#ff0000;" x="332.798415" xlink:href="#mee14a7d2d2" y="265.068292"/>
     <use style="fill:#ff0000;stroke:#ff0000;" x="334.061663" xlink:href="#mee14a7d2d2" y="275.460446"/>
     <use style="fill:#ff0000;stroke:#ff0000;" x="335.32491" xlink:href="#mee14a7d2d2" y="271.012703"/>
     <use style="fill:#ff0000;stroke:#ff0000;" x="336.588157" xlink:href="#mee14a7d2d2" y="259.000309"/>
     <use style="fill:#ff0000;stroke:#ff0000;" x="337.851404" xlink:href="#mee14a7d2d2" y="263.425009"/>
     <use style="fill:#ff0000;stroke:#ff0000;" x="339.114652" xlink:href="#mee14a7d2d2" y="251.837106"/>
     <use style="fill:#ff0000;stroke:#ff0000;" x="340.377899" xlink:href="#mee14a7d2d2" y="254.174061"/>
     <use style="fill:#ff0000;stroke:#ff0000;" x="341.641146" xlink:href="#mee14a7d2d2" y="253.028798"/>
     <use style="fill:#ff0000;stroke:#ff0000;" x="342.904393" xlink:href="#mee14a7d2d2" y="251.846081"/>
     <use style="fill:#ff0000;stroke:#ff0000;" x="344.167641" xlink:href="#mee14a7d2d2" y="260.254558"/>
     <use style="fill:#ff0000;stroke:#ff0000;" x="345.430888" xlink:href="#mee14a7d2d2" y="252.050013"/>
     <use style="fill:#ff0000;stroke:#ff0000;" x="346.694135" xlink:href="#mee14a7d2d2" y="263.10262"/>
     <use style="fill:#ff0000;stroke:#ff0000;" x="347.957382" xlink:href="#mee14a7d2d2" y="249.713654"/>
     <use style="fill:#ff0000;stroke:#ff0000;" x="349.22063" xlink:href="#mee14a7d2d2" y="250.601113"/>
     <use style="fill:#ff0000;stroke:#ff0000;" x="350.483877" xlink:href="#mee14a7d2d2" y="243.577897"/>
     <use style="fill:#ff0000;stroke:#ff0000;" x="351.747124" xlink:href="#mee14a7d2d2" y="250.852389"/>
     <use style="fill:#ff0000;stroke:#ff0000;" x="353.010371" xlink:href="#mee14a7d2d2" y="256.161258"/>
     <use style="fill:#ff0000;stroke:#ff0000;" x="354.273619" xlink:href="#mee14a7d2d2" y="259.213858"/>
     <use style="fill:#ff0000;stroke:#ff0000;" x="355.536866" xlink:href="#mee14a7d2d2" y="256.069134"/>
     <use style="fill:#ff0000;stroke:#ff0000;" x="356.800113" xlink:href="#mee14a7d2d2" y="239.727073"/>
     <use style="fill:#ff0000;stroke:#ff0000;" x="358.06336" xlink:href="#mee14a7d2d2" y="241.094083"/>
     <use style="fill:#ff0000;stroke:#ff0000;" x="359.326608" xlink:href="#mee14a7d2d2" y="242.283669"/>
     <use style="fill:#ff0000;stroke:#ff0000;" x="360.589855" xlink:href="#mee14a7d2d2" y="233.351103"/>
     <use style="fill:#ff0000;stroke:#ff0000;" x="361.853102" xlink:href="#mee14a7d2d2" y="248.677826"/>
     <use style="fill:#ff0000;stroke:#ff0000;" x="363.116349" xlink:href="#mee14a7d2d2" y="239.377191"/>
     <use style="fill:#ff0000;stroke:#ff0000;" x="364.379597" xlink:href="#mee14a7d2d2" y="232.09479"/>
     <use style="fill:#ff0000;stroke:#ff0000;" x="365.642844" xlink:href="#mee14a7d2d2" y="230.816771"/>
     <use style="fill:#ff0000;stroke:#ff0000;" x="366.906091" xlink:href="#mee14a7d2d2" y="245.770223"/>
     <use style="fill:#ff0000;stroke:#ff0000;" x="368.169339" xlink:href="#mee14a7d2d2" y="250.607113"/>
     <use style="fill:#ff0000;stroke:#ff0000;" x="369.432586" xlink:href="#mee14a7d2d2" y="228.426742"/>
     <use style="fill:#ff0000;stroke:#ff0000;" x="370.695833" xlink:href="#mee14a7d2d2" y="229.772127"/>
     <use style="fill:#ff0000;stroke:#ff0000;" x="371.95908" xlink:href="#mee14a7d2d2" y="237.977101"/>
     <use style="fill:#ff0000;stroke:#ff0000;" x="373.222328" xlink:href="#mee14a7d2d2" y="233.677564"/>
     <use style="fill:#ff0000;stroke:#ff0000;" x="374.485575" xlink:href="#mee14a7d2d2" y="230.791416"/>
     <use style="fill:#ff0000;stroke:#ff0000;" x="375.748822" xlink:href="#mee14a7d2d2" y="243.929954"/>
     <use style="fill:#ff0000;stroke:#ff0000;" x="377.012069" xlink:href="#mee14a7d2d2" y="226.439289"/>
     <use style="fill:#ff0000;stroke:#ff0000;" x="378.275317" xlink:href="#mee14a7d2d2" y="227.140926"/>
     <use style="fill:#ff0000;stroke:#ff0000;" x="379.538564" xlink:href="#mee14a7d2d2" y="216.547025"/>
     <use style="fill:#ff0000;stroke:#ff0000;" x="380.801811" xlink:href="#mee14a7d2d2" y="223.923166"/>
     <use style="fill:#ff0000;stroke:#ff0000;" x="382.065058" xlink:href="#mee14a7d2d2" y="209.356074"/>
     <use style="fill:#ff0000;stroke:#ff0000;" x="383.328306" xlink:href="#mee14a7d2d2" y="230.461809"/>
     <use style="fill:#ff0000;stroke:#ff0000;" x="384.591553" xlink:href="#mee14a7d2d2" y="230.613327"/>
     <use style="fill:#ff0000;stroke:#ff0000;" x="385.8548" xlink:href="#mee14a7d2d2" y="221.793386"/>
     <use style="fill:#ff0000;stroke:#ff0000;" x="387.118047" xlink:href="#mee14a7d2d2" y="215.413584"/>
     <use style="fill:#ff0000;stroke:#ff0000;" x="388.381295" xlink:href="#mee14a7d2d2" y="191.949825"/>
     <use style="fill:#ff0000;stroke:#ff0000;" x="389.644542" xlink:href="#mee14a7d2d2" y="210.304261"/>
     <use style="fill:#ff0000;stroke:#ff0000;" x="390.907789" xlink:href="#mee14a7d2d2" y="206.880994"/>
     <use style="fill:#ff0000;stroke:#ff0000;" x="392.171036" xlink:href="#mee14a7d2d2" y="222.560051"/>
     <use style="fill:#ff0000;stroke:#ff0000;" x="393.434284" xlink:href="#mee14a7d2d2" y="196.536376"/>
     <use style="fill:#ff0000;stroke:#ff0000;" x="394.697531" xlink:href="#mee14a7d2d2" y="207.875565"/>
     <use style="fill:#ff0000;stroke:#ff0000;" x="395.960778" xlink:href="#mee14a7d2d2" y="195.060755"/>
     <use style="fill:#ff0000;stroke:#ff0000;" x="397.224025" xlink:href="#mee14a7d2d2" y="193.085945"/>
     <use style="fill:#ff0000;stroke:#ff0000;" x="398.487273" xlink:href="#mee14a7d2d2" y="201.727727"/>
    </g>
   </g>
   <g id="line2d_16">
    <path clip-path="url(#pfada50b3ef)" d="M 73.832727 90.917287 
L 81.412211 106.001694 
L 87.728447 118.113321 
L 94.044683 129.807936 
L 100.36092 141.085539 
L 106.677156 151.946131 
L 112.993392 162.389711 
L 119.309629 172.416279 
L 125.625865 182.025835 
L 131.942101 191.218379 
L 138.258337 199.993912 
L 144.574574 208.352433 
L 150.89081 216.293942 
L 157.207046 223.81844 
L 163.523283 230.925926 
L 168.576272 236.311666 
L 173.629261 241.430519 
L 178.68225 246.282484 
L 183.735239 250.867561 
L 188.788228 255.185751 
L 193.841217 259.237054 
L 198.894206 263.021469 
L 203.947195 266.538997 
L 209.000184 269.789637 
L 214.053173 272.773389 
L 219.106162 275.490254 
L 224.159151 277.940232 
L 229.21214 280.123321 
L 234.265129 282.039524 
L 239.318118 283.688839 
L 244.371107 285.071266 
L 249.424096 286.186806 
L 254.477085 287.035458 
L 259.530074 287.617223 
L 264.583063 287.932101 
L 269.636052 287.98009 
L 274.689041 287.761193 
L 279.74203 287.275407 
L 284.795019 286.522735 
L 289.848008 285.503174 
L 294.900998 284.216727 
L 299.953987 282.663391 
L 305.006976 280.843168 
L 310.059965 278.756058 
L 315.112954 276.40206 
L 320.165943 273.781175 
L 325.218932 270.893402 
L 330.271921 267.738742 
L 335.32491 264.317194 
L 340.377899 260.628758 
L 345.430888 256.673435 
L 350.483877 252.451225 
L 355.536866 247.962127 
L 360.589855 243.206141 
L 365.642844 238.183268 
L 370.695833 232.893508 
L 375.748822 227.336859 
L 382.065058 220.015739 
L 388.381295 212.277606 
L 394.697531 204.122462 
L 398.487273 199.02921 
L 398.487273 199.02921 
" style="fill:none;stroke:#008000;stroke-linecap:square;stroke-width:1.5;"/>
   </g>
   <g id="patch_3">
    <path d="M 57.6 307.584 
L 57.6 41.472 
" style="fill:none;stroke:#000000;stroke-linecap:square;stroke-linejoin:miter;stroke-width:0.8;"/>
   </g>
   <g id="patch_4">
    <path d="M 414.72 307.584 
L 414.72 41.472 
" style="fill:none;stroke:#000000;stroke-linecap:square;stroke-linejoin:miter;stroke-width:0.8;"/>
   </g>
   <g id="patch_5">
    <path d="M 57.6 307.584 
L 414.72 307.584 
" style="fill:none;stroke:#000000;stroke-linecap:square;stroke-linejoin:miter;stroke-width:0.8;"/>
   </g>
   <g id="patch_6">
    <path d="M 57.6 41.472 
L 414.72 41.472 
" style="fill:none;stroke:#000000;stroke-linecap:square;stroke-linejoin:miter;stroke-width:0.8;"/>
   </g>
   <g id="text_17">
    <!-- FunctionFitting 19 -->
    <defs>
     <path d="M 9.8125 72.90625 
L 51.703125 72.90625 
L 51.703125 64.59375 
L 19.671875 64.59375 
L 19.671875 43.109375 
L 48.578125 43.109375 
L 48.578125 34.8125 
L 19.671875 34.8125 
L 19.671875 0 
L 9.8125 0 
z
" id="DejaVuSans-70"/>
     <path d="M 54.890625 33.015625 
L 54.890625 0 
L 45.90625 0 
L 45.90625 32.71875 
Q 45.90625 40.484375 42.875 44.328125 
Q 39.84375 48.1875 33.796875 48.1875 
Q 26.515625 48.1875 22.3125 43.546875 
Q 18.109375 38.921875 18.109375 30.90625 
L 18.109375 0 
L 9.078125 0 
L 9.078125 54.6875 
L 18.109375 54.6875 
L 18.109375 46.1875 
Q 21.34375 51.125 25.703125 53.5625 
Q 30.078125 56 35.796875 56 
Q 45.21875 56 50.046875 50.171875 
Q 54.890625 44.34375 54.890625 33.015625 
z
" id="DejaVuSans-110"/>
     <path d="M 48.78125 52.59375 
L 48.78125 44.1875 
Q 44.96875 46.296875 41.140625 47.34375 
Q 37.3125 48.390625 33.40625 48.390625 
Q 24.65625 48.390625 19.8125 42.84375 
Q 14.984375 37.3125 14.984375 27.296875 
Q 14.984375 17.28125 19.8125 11.734375 
Q 24.65625 6.203125 33.40625 6.203125 
Q 37.3125 6.203125 41.140625 7.25 
Q 44.96875 8.296875 48.78125 10.40625 
L 48.78125 2.09375 
Q 45.015625 0.34375 40.984375 -0.53125 
Q 36.96875 -1.421875 32.421875 -1.421875 
Q 20.0625 -1.421875 12.78125 6.34375 
Q 5.515625 14.109375 5.515625 27.296875 
Q 5.515625 40.671875 12.859375 48.328125 
Q 20.21875 56 33.015625 56 
Q 37.15625 56 41.109375 55.140625 
Q 45.0625 54.296875 48.78125 52.59375 
z
" id="DejaVuSans-99"/>
     <path d="M 18.3125 70.21875 
L 18.3125 54.6875 
L 36.8125 54.6875 
L 36.8125 47.703125 
L 18.3125 47.703125 
L 18.3125 18.015625 
Q 18.3125 11.328125 20.140625 9.421875 
Q 21.96875 7.515625 27.59375 7.515625 
L 36.8125 7.515625 
L 36.8125 0 
L 27.59375 0 
Q 17.1875 0 13.234375 3.875 
Q 9.28125 7.765625 9.28125 18.015625 
L 9.28125 47.703125 
L 2.6875 47.703125 
L 2.6875 54.6875 
L 9.28125 54.6875 
L 9.28125 70.21875 
z
" id="DejaVuSans-116"/>
     <path d="M 9.421875 54.6875 
L 18.40625 54.6875 
L 18.40625 0 
L 9.421875 0 
z
M 9.421875 75.984375 
L 18.40625 75.984375 
L 18.40625 64.59375 
L 9.421875 64.59375 
z
" id="DejaVuSans-105"/>
     <path d="M 30.609375 48.390625 
Q 23.390625 48.390625 19.1875 42.75 
Q 14.984375 37.109375 14.984375 27.296875 
Q 14.984375 17.484375 19.15625 11.84375 
Q 23.34375 6.203125 30.609375 6.203125 
Q 37.796875 6.203125 41.984375 11.859375 
Q 46.1875 17.53125 46.1875 27.296875 
Q 46.1875 37.015625 41.984375 42.703125 
Q 37.796875 48.390625 30.609375 48.390625 
z
M 30.609375 56 
Q 42.328125 56 49.015625 48.375 
Q 55.71875 40.765625 55.71875 27.296875 
Q 55.71875 13.875 49.015625 6.21875 
Q 42.328125 -1.421875 30.609375 -1.421875 
Q 18.84375 -1.421875 12.171875 6.21875 
Q 5.515625 13.875 5.515625 27.296875 
Q 5.515625 40.765625 12.171875 48.375 
Q 18.84375 56 30.609375 56 
z
" id="DejaVuSans-111"/>
     <path d="M 45.40625 27.984375 
Q 45.40625 37.75 41.375 43.109375 
Q 37.359375 48.484375 30.078125 48.484375 
Q 22.859375 48.484375 18.828125 43.109375 
Q 14.796875 37.75 14.796875 27.984375 
Q 14.796875 18.265625 18.828125 12.890625 
Q 22.859375 7.515625 30.078125 7.515625 
Q 37.359375 7.515625 41.375 12.890625 
Q 45.40625 18.265625 45.40625 27.984375 
z
M 54.390625 6.78125 
Q 54.390625 -7.171875 48.1875 -13.984375 
Q 42 -20.796875 29.203125 -20.796875 
Q 24.46875 -20.796875 20.265625 -20.09375 
Q 16.0625 -19.390625 12.109375 -17.921875 
L 12.109375 -9.1875 
Q 16.0625 -11.328125 19.921875 -12.34375 
Q 23.78125 -13.375 27.78125 -13.375 
Q 36.625 -13.375 41.015625 -8.765625 
Q 45.40625 -4.15625 45.40625 5.171875 
L 45.40625 9.625 
Q 42.625 4.78125 38.28125 2.390625 
Q 33.9375 0 27.875 0 
Q 17.828125 0 11.671875 7.65625 
Q 5.515625 15.328125 5.515625 27.984375 
Q 5.515625 40.671875 11.671875 48.328125 
Q 17.828125 56 27.875 56 
Q 33.9375 56 38.28125 53.609375 
Q 42.625 51.21875 45.40625 46.390625 
L 45.40625 54.6875 
L 54.390625 54.6875 
z
" id="DejaVuSans-103"/>
     <path d="M 10.984375 1.515625 
L 10.984375 10.5 
Q 14.703125 8.734375 18.5 7.8125 
Q 22.3125 6.890625 25.984375 6.890625 
Q 35.75 6.890625 40.890625 13.453125 
Q 46.046875 20.015625 46.78125 33.40625 
Q 43.953125 29.203125 39.59375 26.953125 
Q 35.25 24.703125 29.984375 24.703125 
Q 19.046875 24.703125 12.671875 31.3125 
Q 6.296875 37.9375 6.296875 49.421875 
Q 6.296875 60.640625 12.9375 67.421875 
Q 19.578125 74.21875 30.609375 74.21875 
Q 43.265625 74.21875 49.921875 64.515625 
Q 56.59375 54.828125 56.59375 36.375 
Q 56.59375 19.140625 48.40625 8.859375 
Q 40.234375 -1.421875 26.421875 -1.421875 
Q 22.703125 -1.421875 18.890625 -0.6875 
Q 15.09375 0.046875 10.984375 1.515625 
z
M 30.609375 32.421875 
Q 37.25 32.421875 41.125 36.953125 
Q 45.015625 41.5 45.015625 49.421875 
Q 45.015625 57.28125 41.125 61.84375 
Q 37.25 66.40625 30.609375 66.40625 
Q 23.96875 66.40625 20.09375 61.84375 
Q 16.21875 57.28125 16.21875 49.421875 
Q 16.21875 41.5 20.09375 36.953125 
Q 23.96875 32.421875 30.609375 32.421875 
z
" id="DejaVuSans-57"/>
    </defs>
    <g transform="translate(181.680937 35.472)scale(0.12 -0.12)">
     <use xlink:href="#DejaVuSans-70"/>
     <use x="57.441406" xlink:href="#DejaVuSans-117"/>
     <use x="120.820312" xlink:href="#DejaVuSans-110"/>
     <use x="184.199219" xlink:href="#DejaVuSans-99"/>
     <use x="239.179688" xlink:href="#DejaVuSans-116"/>
     <use x="278.388672" xlink:href="#DejaVuSans-105"/>
     <use x="306.171875" xlink:href="#DejaVuSans-111"/>
     <use x="367.353516" xlink:href="#DejaVuSans-110"/>
     <use x="430.732422" xlink:href="#DejaVuSans-70"/>
     <use x="488.142578" xlink:href="#DejaVuSans-105"/>
     <use x="515.925781" xlink:href="#DejaVuSans-116"/>
     <use x="555.134766" xlink:href="#DejaVuSans-116"/>
     <use x="594.34375" xlink:href="#DejaVuSans-105"/>
     <use x="622.126953" xlink:href="#DejaVuSans-110"/>
     <use x="685.505859" xlink:href="#DejaVuSans-103"/>
     <use x="748.982422" xlink:href="#DejaVuSans-32"/>
     <use x="780.769531" xlink:href="#DejaVuSans-49"/>
     <use x="844.392578" xlink:href="#DejaVuSans-57"/>
    </g>
   </g>
   <g id="legend_1">
    <g id="patch_7">
     <path d="M 299.83875 78.82825 
L 407.72 78.82825 
Q 409.72 78.82825 409.72 76.82825 
L 409.72 48.472 
Q 409.72 46.472 407.72 46.472 
L 299.83875 46.472 
Q 297.83875 46.472 297.83875 48.472 
L 297.83875 76.82825 
Q 297.83875 78.82825 299.83875 78.82825 
z
" style="fill:#ffffff;opacity:0.8;stroke:#cccccc;stroke-linejoin:miter;"/>
    </g>
    <g id="line2d_17"/>
    <g id="line2d_18">
     <g>
      <use style="fill:#ff0000;stroke:#ff0000;" x="311.83875" xlink:href="#mee14a7d2d2" y="54.570437"/>
     </g>
    </g>
    <g id="text_18">
     <!-- measured data -->
     <defs>
      <path d="M 52 44.1875 
Q 55.375 50.25 60.0625 53.125 
Q 64.75 56 71.09375 56 
Q 79.640625 56 84.28125 50.015625 
Q 88.921875 44.046875 88.921875 33.015625 
L 88.921875 0 
L 79.890625 0 
L 79.890625 32.71875 
Q 79.890625 40.578125 77.09375 44.375 
Q 74.3125 48.1875 68.609375 48.1875 
Q 61.625 48.1875 57.5625 43.546875 
Q 53.515625 38.921875 53.515625 30.90625 
L 53.515625 0 
L 44.484375 0 
L 44.484375 32.71875 
Q 44.484375 40.625 41.703125 44.40625 
Q 38.921875 48.1875 33.109375 48.1875 
Q 26.21875 48.1875 22.15625 43.53125 
Q 18.109375 38.875 18.109375 30.90625 
L 18.109375 0 
L 9.078125 0 
L 9.078125 54.6875 
L 18.109375 54.6875 
L 18.109375 46.1875 
Q 21.1875 51.21875 25.484375 53.609375 
Q 29.78125 56 35.6875 56 
Q 41.65625 56 45.828125 52.96875 
Q 50 49.953125 52 44.1875 
z
" id="DejaVuSans-109"/>
      <path d="M 41.109375 46.296875 
Q 39.59375 47.171875 37.8125 47.578125 
Q 36.03125 48 33.890625 48 
Q 26.265625 48 22.1875 43.046875 
Q 18.109375 38.09375 18.109375 28.8125 
L 18.109375 0 
L 9.078125 0 
L 9.078125 54.6875 
L 18.109375 54.6875 
L 18.109375 46.1875 
Q 20.953125 51.171875 25.484375 53.578125 
Q 30.03125 56 36.53125 56 
Q 37.453125 56 38.578125 55.875 
Q 39.703125 55.765625 41.0625 55.515625 
z
" id="DejaVuSans-114"/>
      <path d="M 45.40625 46.390625 
L 45.40625 75.984375 
L 54.390625 75.984375 
L 54.390625 0 
L 45.40625 0 
L 45.40625 8.203125 
Q 42.578125 3.328125 38.25 0.953125 
Q 33.9375 -1.421875 27.875 -1.421875 
Q 17.96875 -1.421875 11.734375 6.484375 
Q 5.515625 14.40625 5.515625 27.296875 
Q 5.515625 40.1875 11.734375 48.09375 
Q 17.96875 56 27.875 56 
Q 33.9375 56 38.25 53.625 
Q 42.578125 51.265625 45.40625 46.390625 
z
M 14.796875 27.296875 
Q 14.796875 17.390625 18.875 11.75 
Q 22.953125 6.109375 30.078125 6.109375 
Q 37.203125 6.109375 41.296875 11.75 
Q 45.40625 17.390625 45.40625 27.296875 
Q 45.40625 37.203125 41.296875 42.84375 
Q 37.203125 48.484375 30.078125 48.484375 
Q 22.953125 48.484375 18.875 42.84375 
Q 14.796875 37.203125 14.796875 27.296875 
z
" id="DejaVuSans-100"/>
     </defs>
     <g transform="translate(329.83875 58.070437)scale(0.1 -0.1)">
      <use xlink:href="#DejaVuSans-109"/>
      <use x="97.412109" xlink:href="#DejaVuSans-101"/>
      <use x="158.935547" xlink:href="#DejaVuSans-97"/>
      <use x="220.214844" xlink:href="#DejaVuSans-115"/>
      <use x="272.314453" xlink:href="#DejaVuSans-117"/>
      <use x="335.693359" xlink:href="#DejaVuSans-114"/>
      <use x="376.775391" xlink:href="#DejaVuSans-101"/>
      <use x="438.298828" xlink:href="#DejaVuSans-100"/>
      <use x="501.775391" xlink:href="#DejaVuSans-32"/>
      <use x="533.5625" xlink:href="#DejaVuSans-100"/>
      <use x="597.039062" xlink:href="#DejaVuSans-97"/>
      <use x="658.318359" xlink:href="#DejaVuSans-116"/>
      <use x="697.527344" xlink:href="#DejaVuSans-97"/>
     </g>
    </g>
    <g id="line2d_19">
     <path d="M 301.83875 69.248562 
L 321.83875 69.248562 
" style="fill:none;stroke:#008000;stroke-linecap:square;stroke-width:1.5;"/>
    </g>
    <g id="line2d_20"/>
    <g id="text_19">
     <!-- linear data -->
     <g transform="translate(329.83875 72.748562)scale(0.1 -0.1)">
      <use xlink:href="#DejaVuSans-108"/>
      <use x="27.783203" xlink:href="#DejaVuSans-105"/>
      <use x="55.566406" xlink:href="#DejaVuSans-110"/>
      <use x="118.945312" xlink:href="#DejaVuSans-101"/>
      <use x="180.46875" xlink:href="#DejaVuSans-97"/>
      <use x="241.748047" xlink:href="#DejaVuSans-114"/>
      <use x="282.861328" xlink:href="#DejaVuSans-32"/>
      <use x="314.648438" xlink:href="#DejaVuSans-100"/>
      <use x="378.125" xlink:href="#DejaVuSans-97"/>
      <use x="439.404297" xlink:href="#DejaVuSans-116"/>
      <use x="478.613281" xlink:href="#DejaVuSans-97"/>
     </g>
    </g>
   </g>
  </g>
 </g>
 <defs>
  <clipPath id="pfada50b3ef">
   <rect height="266.112" width="357.12" x="57.6" y="41.472"/>
  </clipPath>
 </defs>
</svg>
