<?xml version="1.0" encoding="utf-8" standalone="no"?>
<!DOCTYPE svg PUBLIC "-//W3C//DTD SVG 1.1//EN"
  "http://www.w3.org/Graphics/SVG/1.1/DTD/svg11.dtd">
<!-- Created with matplotlib (https://matplotlib.org/) -->
<svg height="345.6pt" version="1.1" viewBox="0 0 460.8 345.6" width="460.8pt" xmlns="http://www.w3.org/2000/svg" xmlns:xlink="http://www.w3.org/1999/xlink">
 <defs>
  <style type="text/css">
*{stroke-linecap:butt;stroke-linejoin:round;}
  </style>
 </defs>
 <g id="figure_1">
  <g id="patch_1">
   <path d="M 0 345.6 
L 460.8 345.6 
L 460.8 0 
L 0 0 
z
" style="fill:#ffffff;"/>
  </g>
  <g id="axes_1">
   <g id="patch_2">
    <path d="M 57.6 307.584 
L 414.72 307.584 
L 414.72 41.472 
L 57.6 41.472 
z
" style="fill:#ffffff;"/>
   </g>
   <g id="matplotlib.axis_1">
    <g id="xtick_1">
     <g id="line2d_1">
      <defs>
       <path d="M 0 0 
L 0 3.5 
" id="m09a40ec838" style="stroke:#000000;stroke-width:0.8;"/>
      </defs>
      <g>
       <use style="stroke:#000000;stroke-width:0.8;" x="60.082966" xlink:href="#m09a40ec838" y="307.584"/>
      </g>
     </g>
     <g id="text_1">
      <!-- 0 -->
      <defs>
       <path d="M 31.78125 66.40625 
Q 24.171875 66.40625 20.328125 58.90625 
Q 16.5 51.421875 16.5 36.375 
Q 16.5 21.390625 20.328125 13.890625 
Q 24.171875 6.390625 31.78125 6.390625 
Q 39.453125 6.390625 43.28125 13.890625 
Q 47.125 21.390625 47.125 36.375 
Q 47.125 51.421875 43.28125 58.90625 
Q 39.453125 66.40625 31.78125 66.40625 
z
M 31.78125 74.21875 
Q 44.046875 74.21875 50.515625 64.515625 
Q 56.984375 54.828125 56.984375 36.375 
Q 56.984375 17.96875 50.515625 8.265625 
Q 44.046875 -1.421875 31.78125 -1.421875 
Q 19.53125 -1.421875 13.0625 8.265625 
Q 6.59375 17.96875 6.59375 36.375 
Q 6.59375 54.828125 13.0625 64.515625 
Q 19.53125 74.21875 31.78125 74.21875 
z
" id="DejaVuSans-48"/>
      </defs>
      <g transform="translate(56.901716 322.182437)scale(0.1 -0.1)">
       <use xlink:href="#DejaVuSans-48"/>
      </g>
     </g>
    </g>
    <g id="xtick_2">
     <g id="line2d_2">
      <g>
       <use style="stroke:#000000;stroke-width:0.8;" x="121.684069" xlink:href="#m09a40ec838" y="307.584"/>
      </g>
     </g>
     <g id="text_2">
      <!-- 20 -->
      <defs>
       <path d="M 19.1875 8.296875 
L 53.609375 8.296875 
L 53.609375 0 
L 7.328125 0 
L 7.328125 8.296875 
Q 12.9375 14.109375 22.625 23.890625 
Q 32.328125 33.6875 34.8125 36.53125 
Q 39.546875 41.84375 41.421875 45.53125 
Q 43.3125 49.21875 43.3125 52.78125 
Q 43.3125 58.59375 39.234375 62.25 
Q 35.15625 65.921875 28.609375 65.921875 
Q 23.96875 65.921875 18.8125 64.3125 
Q 13.671875 62.703125 7.8125 59.421875 
L 7.8125 69.390625 
Q 13.765625 71.78125 18.9375 73 
Q 24.125 74.21875 28.421875 74.21875 
Q 39.75 74.21875 46.484375 68.546875 
Q 53.21875 62.890625 53.21875 53.421875 
Q 53.21875 48.921875 51.53125 44.890625 
Q 49.859375 40.875 45.40625 35.40625 
Q 44.1875 33.984375 37.640625 27.21875 
Q 31.109375 20.453125 19.1875 8.296875 
z
" id="DejaVuSans-50"/>
      </defs>
      <g transform="translate(115.321569 322.182437)scale(0.1 -0.1)">
       <use xlink:href="#DejaVuSans-50"/>
       <use x="63.623047" xlink:href="#DejaVuSans-48"/>
      </g>
     </g>
    </g>
    <g id="xtick_3">
     <g id="line2d_3">
      <g>
       <use style="stroke:#000000;stroke-width:0.8;" x="183.285173" xlink:href="#m09a40ec838" y="307.584"/>
      </g>
     </g>
     <g id="text_3">
      <!-- 40 -->
      <defs>
       <path d="M 37.796875 64.3125 
L 12.890625 25.390625 
L 37.796875 25.390625 
z
M 35.203125 72.90625 
L 47.609375 72.90625 
L 47.609375 25.390625 
L 58.015625 25.390625 
L 58.015625 17.1875 
L 47.609375 17.1875 
L 47.609375 0 
L 37.796875 0 
L 37.796875 17.1875 
L 4.890625 17.1875 
L 4.890625 26.703125 
z
" id="DejaVuSans-52"/>
      </defs>
      <g transform="translate(176.922673 322.182437)scale(0.1 -0.1)">
       <use xlink:href="#DejaVuSans-52"/>
       <use x="63.623047" xlink:href="#DejaVuSans-48"/>
      </g>
     </g>
    </g>
    <g id="xtick_4">
     <g id="line2d_4">
      <g>
       <use style="stroke:#000000;stroke-width:0.8;" x="244.886276" xlink:href="#m09a40ec838" y="307.584"/>
      </g>
     </g>
     <g id="text_4">
      <!-- 60 -->
      <defs>
       <path d="M 33.015625 40.375 
Q 26.375 40.375 22.484375 35.828125 
Q 18.609375 31.296875 18.609375 23.390625 
Q 18.609375 15.53125 22.484375 10.953125 
Q 26.375 6.390625 33.015625 6.390625 
Q 39.65625 6.390625 43.53125 10.953125 
Q 47.40625 15.53125 47.40625 23.390625 
Q 47.40625 31.296875 43.53125 35.828125 
Q 39.65625 40.375 33.015625 40.375 
z
M 52.59375 71.296875 
L 52.59375 62.3125 
Q 48.875 64.0625 45.09375 64.984375 
Q 41.3125 65.921875 37.59375 65.921875 
Q 27.828125 65.921875 22.671875 59.328125 
Q 17.53125 52.734375 16.796875 39.40625 
Q 19.671875 43.65625 24.015625 45.921875 
Q 28.375 48.1875 33.59375 48.1875 
Q 44.578125 48.1875 50.953125 41.515625 
Q 57.328125 34.859375 57.328125 23.390625 
Q 57.328125 12.15625 50.6875 5.359375 
Q 44.046875 -1.421875 33.015625 -1.421875 
Q 20.359375 -1.421875 13.671875 8.265625 
Q 6.984375 17.96875 6.984375 36.375 
Q 6.984375 53.65625 15.1875 63.9375 
Q 23.390625 74.21875 37.203125 74.21875 
Q 40.921875 74.21875 44.703125 73.484375 
Q 48.484375 72.75 52.59375 71.296875 
z
" id="DejaVuSans-54"/>
      </defs>
      <g transform="translate(238.523776 322.182437)scale(0.1 -0.1)">
       <use xlink:href="#DejaVuSans-54"/>
       <use x="63.623047" xlink:href="#DejaVuSans-48"/>
      </g>
     </g>
    </g>
    <g id="xtick_5">
     <g id="line2d_5">
      <g>
       <use style="stroke:#000000;stroke-width:0.8;" x="306.487379" xlink:href="#m09a40ec838" y="307.584"/>
      </g>
     </g>
     <g id="text_5">
      <!-- 80 -->
      <defs>
       <path d="M 31.78125 34.625 
Q 24.75 34.625 20.71875 30.859375 
Q 16.703125 27.09375 16.703125 20.515625 
Q 16.703125 13.921875 20.71875 10.15625 
Q 24.75 6.390625 31.78125 6.390625 
Q 38.8125 6.390625 42.859375 10.171875 
Q 46.921875 13.96875 46.921875 20.515625 
Q 46.921875 27.09375 42.890625 30.859375 
Q 38.875 34.625 31.78125 34.625 
z
M 21.921875 38.8125 
Q 15.578125 40.375 12.03125 44.71875 
Q 8.5 49.078125 8.5 55.328125 
Q 8.5 64.0625 14.71875 69.140625 
Q 20.953125 74.21875 31.78125 74.21875 
Q 42.671875 74.21875 48.875 69.140625 
Q 55.078125 64.0625 55.078125 55.328125 
Q 55.078125 49.078125 51.53125 44.71875 
Q 48 40.375 41.703125 38.8125 
Q 48.828125 37.15625 52.796875 32.3125 
Q 56.78125 27.484375 56.78125 20.515625 
Q 56.78125 9.90625 50.3125 4.234375 
Q 43.84375 -1.421875 31.78125 -1.421875 
Q 19.734375 -1.421875 13.25 4.234375 
Q 6.78125 9.90625 6.78125 20.515625 
Q 6.78125 27.484375 10.78125 32.3125 
Q 14.796875 37.15625 21.921875 38.8125 
z
M 18.3125 54.390625 
Q 18.3125 48.734375 21.84375 45.5625 
Q 25.390625 42.390625 31.78125 42.390625 
Q 38.140625 42.390625 41.71875 45.5625 
Q 45.3125 48.734375 45.3125 54.390625 
Q 45.3125 60.0625 41.71875 63.234375 
Q 38.140625 66.40625 31.78125 66.40625 
Q 25.390625 66.40625 21.84375 63.234375 
Q 18.3125 60.0625 18.3125 54.390625 
z
" id="DejaVuSans-56"/>
      </defs>
      <g transform="translate(300.124879 322.182437)scale(0.1 -0.1)">
       <use xlink:href="#DejaVuSans-56"/>
       <use x="63.623047" xlink:href="#DejaVuSans-48"/>
      </g>
     </g>
    </g>
    <g id="xtick_6">
     <g id="line2d_6">
      <g>
       <use style="stroke:#000000;stroke-width:0.8;" x="368.088483" xlink:href="#m09a40ec838" y="307.584"/>
      </g>
     </g>
     <g id="text_6">
      <!-- 100 -->
      <defs>
       <path d="M 12.40625 8.296875 
L 28.515625 8.296875 
L 28.515625 63.921875 
L 10.984375 60.40625 
L 10.984375 69.390625 
L 28.421875 72.90625 
L 38.28125 72.90625 
L 38.28125 8.296875 
L 54.390625 8.296875 
L 54.390625 0 
L 12.40625 0 
z
" id="DejaVuSans-49"/>
      </defs>
      <g transform="translate(358.544733 322.182437)scale(0.1 -0.1)">
       <use xlink:href="#DejaVuSans-49"/>
       <use x="63.623047" xlink:href="#DejaVuSans-48"/>
       <use x="127.246094" xlink:href="#DejaVuSans-48"/>
      </g>
     </g>
    </g>
    <g id="text_7">
     <!-- x values -->
     <defs>
      <path d="M 54.890625 54.6875 
L 35.109375 28.078125 
L 55.90625 0 
L 45.3125 0 
L 29.390625 21.484375 
L 13.484375 0 
L 2.875 0 
L 24.125 28.609375 
L 4.6875 54.6875 
L 15.28125 54.6875 
L 29.78125 35.203125 
L 44.28125 54.6875 
z
" id="DejaVuSans-120"/>
      <path id="DejaVuSans-32"/>
      <path d="M 2.984375 54.6875 
L 12.5 54.6875 
L 29.59375 8.796875 
L 46.6875 54.6875 
L 56.203125 54.6875 
L 35.6875 0 
L 23.484375 0 
z
" id="DejaVuSans-118"/>
      <path d="M 34.28125 27.484375 
Q 23.390625 27.484375 19.1875 25 
Q 14.984375 22.515625 14.984375 16.5 
Q 14.984375 11.71875 18.140625 8.90625 
Q 21.296875 6.109375 26.703125 6.109375 
Q 34.1875 6.109375 38.703125 11.40625 
Q 43.21875 16.703125 43.21875 25.484375 
L 43.21875 27.484375 
z
M 52.203125 31.203125 
L 52.203125 0 
L 43.21875 0 
L 43.21875 8.296875 
Q 40.140625 3.328125 35.546875 0.953125 
Q 30.953125 -1.421875 24.3125 -1.421875 
Q 15.921875 -1.421875 10.953125 3.296875 
Q 6 8.015625 6 15.921875 
Q 6 25.140625 12.171875 29.828125 
Q 18.359375 34.515625 30.609375 34.515625 
L 43.21875 34.515625 
L 43.21875 35.40625 
Q 43.21875 41.609375 39.140625 45 
Q 35.0625 48.390625 27.6875 48.390625 
Q 23 48.390625 18.546875 47.265625 
Q 14.109375 46.140625 10.015625 43.890625 
L 10.015625 52.203125 
Q 14.9375 54.109375 19.578125 55.046875 
Q 24.21875 56 28.609375 56 
Q 40.484375 56 46.34375 49.84375 
Q 52.203125 43.703125 52.203125 31.203125 
z
" id="DejaVuSans-97"/>
      <path d="M 9.421875 75.984375 
L 18.40625 75.984375 
L 18.40625 0 
L 9.421875 0 
z
" id="DejaVuSans-108"/>
      <path d="M 8.5 21.578125 
L 8.5 54.6875 
L 17.484375 54.6875 
L 17.484375 21.921875 
Q 17.484375 14.15625 20.5 10.265625 
Q 23.53125 6.390625 29.59375 6.390625 
Q 36.859375 6.390625 41.078125 11.03125 
Q 45.3125 15.671875 45.3125 23.6875 
L 45.3125 54.6875 
L 54.296875 54.6875 
L 54.296875 0 
L 45.3125 0 
L 45.3125 8.40625 
Q 42.046875 3.421875 37.71875 1 
Q 33.40625 -1.421875 27.6875 -1.421875 
Q 18.265625 -1.421875 13.375 4.4375 
Q 8.5 10.296875 8.5 21.578125 
z
M 31.109375 56 
z
" id="DejaVuSans-117"/>
      <path d="M 56.203125 29.59375 
L 56.203125 25.203125 
L 14.890625 25.203125 
Q 15.484375 15.921875 20.484375 11.0625 
Q 25.484375 6.203125 34.421875 6.203125 
Q 39.59375 6.203125 44.453125 7.46875 
Q 49.3125 8.734375 54.109375 11.28125 
L 54.109375 2.78125 
Q 49.265625 0.734375 44.1875 -0.34375 
Q 39.109375 -1.421875 33.890625 -1.421875 
Q 20.796875 -1.421875 13.15625 6.1875 
Q 5.515625 13.8125 5.515625 26.8125 
Q 5.515625 40.234375 12.765625 48.109375 
Q 20.015625 56 32.328125 56 
Q 43.359375 56 49.78125 48.890625 
Q 56.203125 41.796875 56.203125 29.59375 
z
M 47.21875 32.234375 
Q 47.125 39.59375 43.09375 43.984375 
Q 39.0625 48.390625 32.421875 48.390625 
Q 24.90625 48.390625 20.390625 44.140625 
Q 15.875 39.890625 15.1875 32.171875 
z
" id="DejaVuSans-101"/>
      <path d="M 44.28125 53.078125 
L 44.28125 44.578125 
Q 40.484375 46.53125 36.375 47.5 
Q 32.28125 48.484375 27.875 48.484375 
Q 21.1875 48.484375 17.84375 46.4375 
Q 14.5 44.390625 14.5 40.28125 
Q 14.5 37.15625 16.890625 35.375 
Q 19.28125 33.59375 26.515625 31.984375 
L 29.59375 31.296875 
Q 39.15625 29.25 43.1875 25.515625 
Q 47.21875 21.78125 47.21875 15.09375 
Q 47.21875 7.46875 41.1875 3.015625 
Q 35.15625 -1.421875 24.609375 -1.421875 
Q 20.21875 -1.421875 15.453125 -0.5625 
Q 10.6875 0.296875 5.421875 2 
L 5.421875 11.28125 
Q 10.40625 8.6875 15.234375 7.390625 
Q 20.0625 6.109375 24.8125 6.109375 
Q 31.15625 6.109375 34.5625 8.28125 
Q 37.984375 10.453125 37.984375 14.40625 
Q 37.984375 18.0625 35.515625 20.015625 
Q 33.0625 21.96875 24.703125 23.78125 
L 21.578125 24.515625 
Q 13.234375 26.265625 9.515625 29.90625 
Q 5.8125 33.546875 5.8125 39.890625 
Q 5.8125 47.609375 11.28125 51.796875 
Q 16.75 56 26.8125 56 
Q 31.78125 56 36.171875 55.265625 
Q 40.578125 54.546875 44.28125 53.078125 
z
" id="DejaVuSans-115"/>
     </defs>
     <g transform="translate(215.349063 335.860562)scale(0.1 -0.1)">
      <use xlink:href="#DejaVuSans-120"/>
      <use x="59.179688" xlink:href="#DejaVuSans-32"/>
      <use x="90.966797" xlink:href="#DejaVuSans-118"/>
      <use x="150.146484" xlink:href="#DejaVuSans-97"/>
      <use x="211.425781" xlink:href="#DejaVuSans-108"/>
      <use x="239.208984" xlink:href="#DejaVuSans-117"/>
      <use x="302.587891" xlink:href="#DejaVuSans-101"/>
      <use x="364.111328" xlink:href="#DejaVuSans-115"/>
     </g>
    </g>
   </g>
   <g id="matplotlib.axis_2">
    <g id="ytick_1">
     <g id="line2d_7">
      <defs>
       <path d="M 0 0 
L -3.5 0 
" id="m9b5365a904" style="stroke:#000000;stroke-width:0.8;"/>
      </defs>
      <g>
       <use style="stroke:#000000;stroke-width:0.8;" x="57.6" xlink:href="#m9b5365a904" y="289.855004"/>
      </g>
     </g>
     <g id="text_8">
      <!-- 0 -->
      <g transform="translate(44.2375 293.654223)scale(0.1 -0.1)">
       <use xlink:href="#DejaVuSans-48"/>
      </g>
     </g>
    </g>
    <g id="ytick_2">
     <g id="line2d_8">
      <g>
       <use style="stroke:#000000;stroke-width:0.8;" x="57.6" xlink:href="#m9b5365a904" y="247.88452"/>
      </g>
     </g>
     <g id="text_9">
      <!-- 100 -->
      <g transform="translate(31.5125 251.683739)scale(0.1 -0.1)">
       <use xlink:href="#DejaVuSans-49"/>
       <use x="63.623047" xlink:href="#DejaVuSans-48"/>
       <use x="127.246094" xlink:href="#DejaVuSans-48"/>
      </g>
     </g>
    </g>
    <g id="ytick_3">
     <g id="line2d_9">
      <g>
       <use style="stroke:#000000;stroke-width:0.8;" x="57.6" xlink:href="#m9b5365a904" y="205.914036"/>
      </g>
     </g>
     <g id="text_10">
      <!-- 200 -->
      <g transform="translate(31.5125 209.713255)scale(0.1 -0.1)">
       <use xlink:href="#DejaVuSans-50"/>
       <use x="63.623047" xlink:href="#DejaVuSans-48"/>
       <use x="127.246094" xlink:href="#DejaVuSans-48"/>
      </g>
     </g>
    </g>
    <g id="ytick_4">
     <g id="line2d_10">
      <g>
       <use style="stroke:#000000;stroke-width:0.8;" x="57.6" xlink:href="#m9b5365a904" y="163.943552"/>
      </g>
     </g>
     <g id="text_11">
      <!-- 300 -->
      <defs>
       <path d="M 40.578125 39.3125 
Q 47.65625 37.796875 51.625 33 
Q 55.609375 28.21875 55.609375 21.1875 
Q 55.609375 10.40625 48.1875 4.484375 
Q 40.765625 -1.421875 27.09375 -1.421875 
Q 22.515625 -1.421875 17.65625 -0.515625 
Q 12.796875 0.390625 7.625 2.203125 
L 7.625 11.71875 
Q 11.71875 9.328125 16.59375 8.109375 
Q 21.484375 6.890625 26.8125 6.890625 
Q 36.078125 6.890625 40.9375 10.546875 
Q 45.796875 14.203125 45.796875 21.1875 
Q 45.796875 27.640625 41.28125 31.265625 
Q 36.765625 34.90625 28.71875 34.90625 
L 20.21875 34.90625 
L 20.21875 43.015625 
L 29.109375 43.015625 
Q 36.375 43.015625 40.234375 45.921875 
Q 44.09375 48.828125 44.09375 54.296875 
Q 44.09375 59.90625 40.109375 62.90625 
Q 36.140625 65.921875 28.71875 65.921875 
Q 24.65625 65.921875 20.015625 65.03125 
Q 15.375 64.15625 9.8125 62.3125 
L 9.8125 71.09375 
Q 15.4375 72.65625 20.34375 73.4375 
Q 25.25 74.21875 29.59375 74.21875 
Q 40.828125 74.21875 47.359375 69.109375 
Q 53.90625 64.015625 53.90625 55.328125 
Q 53.90625 49.265625 50.4375 45.09375 
Q 46.96875 40.921875 40.578125 39.3125 
z
" id="DejaVuSans-51"/>
      </defs>
      <g transform="translate(31.5125 167.742771)scale(0.1 -0.1)">
       <use xlink:href="#DejaVuSans-51"/>
       <use x="63.623047" xlink:href="#DejaVuSans-48"/>
       <use x="127.246094" xlink:href="#DejaVuSans-48"/>
      </g>
     </g>
    </g>
    <g id="ytick_5">
     <g id="line2d_11">
      <g>
       <use style="stroke:#000000;stroke-width:0.8;" x="57.6" xlink:href="#m9b5365a904" y="121.973068"/>
      </g>
     </g>
     <g id="text_12">
      <!-- 400 -->
      <g transform="translate(31.5125 125.772287)scale(0.1 -0.1)">
       <use xlink:href="#DejaVuSans-52"/>
       <use x="63.623047" xlink:href="#DejaVuSans-48"/>
       <use x="127.246094" xlink:href="#DejaVuSans-48"/>
      </g>
     </g>
    </g>
    <g id="ytick_6">
     <g id="line2d_12">
      <g>
       <use style="stroke:#000000;stroke-width:0.8;" x="57.6" xlink:href="#m9b5365a904" y="80.002584"/>
      </g>
     </g>
     <g id="text_13">
      <!-- 500 -->
      <defs>
       <path d="M 10.796875 72.90625 
L 49.515625 72.90625 
L 49.515625 64.59375 
L 19.828125 64.59375 
L 19.828125 46.734375 
Q 21.96875 47.46875 24.109375 47.828125 
Q 26.265625 48.1875 28.421875 48.1875 
Q 40.625 48.1875 47.75 41.5 
Q 54.890625 34.8125 54.890625 23.390625 
Q 54.890625 11.625 47.5625 5.09375 
Q 40.234375 -1.421875 26.90625 -1.421875 
Q 22.3125 -1.421875 17.546875 -0.640625 
Q 12.796875 0.140625 7.71875 1.703125 
L 7.71875 11.625 
Q 12.109375 9.234375 16.796875 8.0625 
Q 21.484375 6.890625 26.703125 6.890625 
Q 35.15625 6.890625 40.078125 11.328125 
Q 45.015625 15.765625 45.015625 23.390625 
Q 45.015625 31 40.078125 35.4375 
Q 35.15625 39.890625 26.703125 39.890625 
Q 22.75 39.890625 18.8125 39.015625 
Q 14.890625 38.140625 10.796875 36.28125 
z
" id="DejaVuSans-53"/>
      </defs>
      <g transform="translate(31.5125 83.801803)scale(0.1 -0.1)">
       <use xlink:href="#DejaVuSans-53"/>
       <use x="63.623047" xlink:href="#DejaVuSans-48"/>
       <use x="127.246094" xlink:href="#DejaVuSans-48"/>
      </g>
     </g>
    </g>
    <g id="text_14">
     <!-- y values -->
     <defs>
      <path d="M 32.171875 -5.078125 
Q 28.375 -14.84375 24.75 -17.8125 
Q 21.140625 -20.796875 15.09375 -20.796875 
L 7.90625 -20.796875 
L 7.90625 -13.28125 
L 13.1875 -13.28125 
Q 16.890625 -13.28125 18.9375 -11.515625 
Q 21 -9.765625 23.484375 -3.21875 
L 25.09375 0.875 
L 2.984375 54.6875 
L 12.5 54.6875 
L 29.59375 11.921875 
L 46.6875 54.6875 
L 56.203125 54.6875 
z
" id="DejaVuSans-121"/>
     </defs>
     <g transform="translate(25.432812 195.338937)rotate(-90)scale(0.1 -0.1)">
      <use xlink:href="#DejaVuSans-121"/>
      <use x="59.179688" xlink:href="#DejaVuSans-32"/>
      <use x="90.966797" xlink:href="#DejaVuSans-118"/>
      <use x="150.146484" xlink:href="#DejaVuSans-97"/>
      <use x="211.425781" xlink:href="#DejaVuSans-108"/>
      <use x="239.208984" xlink:href="#DejaVuSans-117"/>
      <use x="302.587891" xlink:href="#DejaVuSans-101"/>
      <use x="364.111328" xlink:href="#DejaVuSans-115"/>
     </g>
    </g>
   </g>
   <g id="line2d_13">
    <defs>
     <path d="M 0 1 
C 0.265203 1 0.51958 0.894634 0.707107 0.707107 
C 0.894634 0.51958 1 0.265203 1 0 
C 1 -0.265203 0.894634 -0.51958 0.707107 -0.707107 
C 0.51958 -0.894634 0.265203 -1 0 -1 
C -0.265203 -1 -0.51958 -0.894634 -0.707107 -0.707107 
C -0.894634 -0.51958 -1 -0.265203 -1 0 
C -1 0.265203 -0.894634 0.51958 -0.707107 0.707107 
C -0.51958 0.894634 -0.265203 1 0 1 
z
" id="m7993e5a915" style="stroke:#ff0000;"/>
    </defs>
    <g clip-path="url(#p5838493ccc)">
     <use style="fill:#ff0000;stroke:#ff0000;" x="73.832727" xlink:href="#m7993e5a915" y="104.762655"/>
     <use style="fill:#ff0000;stroke:#ff0000;" x="74.936994" xlink:href="#m7993e5a915" y="53.885868"/>
     <use style="fill:#ff0000;stroke:#ff0000;" x="76.041262" xlink:href="#m7993e5a915" y="94.475969"/>
     <use style="fill:#ff0000;stroke:#ff0000;" x="77.145529" xlink:href="#m7993e5a915" y="67.088962"/>
     <use style="fill:#ff0000;stroke:#ff0000;" x="78.249796" xlink:href="#m7993e5a915" y="74.599335"/>
     <use style="fill:#ff0000;stroke:#ff0000;" x="79.354063" xlink:href="#m7993e5a915" y="53.568"/>
     <use style="fill:#ff0000;stroke:#ff0000;" x="80.45833" xlink:href="#m7993e5a915" y="54.880971"/>
     <use style="fill:#ff0000;stroke:#ff0000;" x="81.562597" xlink:href="#m7993e5a915" y="72.631247"/>
     <use style="fill:#ff0000;stroke:#ff0000;" x="82.666865" xlink:href="#m7993e5a915" y="90.579539"/>
     <use style="fill:#ff0000;stroke:#ff0000;" x="83.771132" xlink:href="#m7993e5a915" y="78.403329"/>
     <use style="fill:#ff0000;stroke:#ff0000;" x="84.875399" xlink:href="#m7993e5a915" y="74.549135"/>
     <use style="fill:#ff0000;stroke:#ff0000;" x="85.979666" xlink:href="#m7993e5a915" y="82.089705"/>
     <use style="fill:#ff0000;stroke:#ff0000;" x="87.083933" xlink:href="#m7993e5a915" y="82.215616"/>
     <use style="fill:#ff0000;stroke:#ff0000;" x="88.1882" xlink:href="#m7993e5a915" y="112.89994"/>
     <use style="fill:#ff0000;stroke:#ff0000;" x="89.292468" xlink:href="#m7993e5a915" y="64.478698"/>
     <use style="fill:#ff0000;stroke:#ff0000;" x="90.396735" xlink:href="#m7993e5a915" y="96.641662"/>
     <use style="fill:#ff0000;stroke:#ff0000;" x="91.501002" xlink:href="#m7993e5a915" y="99.267191"/>
     <use style="fill:#ff0000;stroke:#ff0000;" x="92.605269" xlink:href="#m7993e5a915" y="143.351283"/>
     <use style="fill:#ff0000;stroke:#ff0000;" x="93.709536" xlink:href="#m7993e5a915" y="113.247527"/>
     <use style="fill:#ff0000;stroke:#ff0000;" x="94.813803" xlink:href="#m7993e5a915" y="116.600533"/>
     <use style="fill:#ff0000;stroke:#ff0000;" x="95.918071" xlink:href="#m7993e5a915" y="126.450389"/>
     <use style="fill:#ff0000;stroke:#ff0000;" x="97.022338" xlink:href="#m7993e5a915" y="105.768356"/>
     <use style="fill:#ff0000;stroke:#ff0000;" x="98.126605" xlink:href="#m7993e5a915" y="140.671376"/>
     <use style="fill:#ff0000;stroke:#ff0000;" x="99.230872" xlink:href="#m7993e5a915" y="99.940767"/>
     <use style="fill:#ff0000;stroke:#ff0000;" x="100.335139" xlink:href="#m7993e5a915" y="118.437583"/>
     <use style="fill:#ff0000;stroke:#ff0000;" x="101.439406" xlink:href="#m7993e5a915" y="164.350881"/>
     <use style="fill:#ff0000;stroke:#ff0000;" x="102.543673" xlink:href="#m7993e5a915" y="162.501937"/>
     <use style="fill:#ff0000;stroke:#ff0000;" x="103.647941" xlink:href="#m7993e5a915" y="151.611517"/>
     <use style="fill:#ff0000;stroke:#ff0000;" x="104.752208" xlink:href="#m7993e5a915" y="172.099895"/>
     <use style="fill:#ff0000;stroke:#ff0000;" x="105.856475" xlink:href="#m7993e5a915" y="160.546543"/>
     <use style="fill:#ff0000;stroke:#ff0000;" x="106.960742" xlink:href="#m7993e5a915" y="161.940236"/>
     <use style="fill:#ff0000;stroke:#ff0000;" x="108.065009" xlink:href="#m7993e5a915" y="112.132624"/>
     <use style="fill:#ff0000;stroke:#ff0000;" x="109.169276" xlink:href="#m7993e5a915" y="146.430765"/>
     <use style="fill:#ff0000;stroke:#ff0000;" x="110.273544" xlink:href="#m7993e5a915" y="159.306185"/>
     <use style="fill:#ff0000;stroke:#ff0000;" x="111.377811" xlink:href="#m7993e5a915" y="131.814355"/>
     <use style="fill:#ff0000;stroke:#ff0000;" x="112.482078" xlink:href="#m7993e5a915" y="154.154242"/>
     <use style="fill:#ff0000;stroke:#ff0000;" x="113.586345" xlink:href="#m7993e5a915" y="131.047595"/>
     <use style="fill:#ff0000;stroke:#ff0000;" x="114.690612" xlink:href="#m7993e5a915" y="151.000354"/>
     <use style="fill:#ff0000;stroke:#ff0000;" x="115.794879" xlink:href="#m7993e5a915" y="181.705024"/>
     <use style="fill:#ff0000;stroke:#ff0000;" x="116.899147" xlink:href="#m7993e5a915" y="127.074561"/>
     <use style="fill:#ff0000;stroke:#ff0000;" x="118.003414" xlink:href="#m7993e5a915" y="149.617809"/>
     <use style="fill:#ff0000;stroke:#ff0000;" x="119.107681" xlink:href="#m7993e5a915" y="180.30821"/>
     <use style="fill:#ff0000;stroke:#ff0000;" x="120.211948" xlink:href="#m7993e5a915" y="135.681661"/>
     <use style="fill:#ff0000;stroke:#ff0000;" x="121.316215" xlink:href="#m7993e5a915" y="168.321398"/>
     <use style="fill:#ff0000;stroke:#ff0000;" x="122.420482" xlink:href="#m7993e5a915" y="194.641171"/>
     <use style="fill:#ff0000;stroke:#ff0000;" x="123.52475" xlink:href="#m7993e5a915" y="153.322581"/>
     <use style="fill:#ff0000;stroke:#ff0000;" x="124.629017" xlink:href="#m7993e5a915" y="170.962778"/>
     <use style="fill:#ff0000;stroke:#ff0000;" x="125.733284" xlink:href="#m7993e5a915" y="153.349514"/>
     <use style="fill:#ff0000;stroke:#ff0000;" x="126.837551" xlink:href="#m7993e5a915" y="186.588842"/>
     <use style="fill:#ff0000;stroke:#ff0000;" x="127.941818" xlink:href="#m7993e5a915" y="188.828716"/>
     <use style="fill:#ff0000;stroke:#ff0000;" x="129.046085" xlink:href="#m7993e5a915" y="172.018873"/>
     <use style="fill:#ff0000;stroke:#ff0000;" x="130.150353" xlink:href="#m7993e5a915" y="186.988094"/>
     <use style="fill:#ff0000;stroke:#ff0000;" x="131.25462" xlink:href="#m7993e5a915" y="181.65274"/>
     <use style="fill:#ff0000;stroke:#ff0000;" x="132.358887" xlink:href="#m7993e5a915" y="205.260599"/>
     <use style="fill:#ff0000;stroke:#ff0000;" x="133.463154" xlink:href="#m7993e5a915" y="192.347016"/>
     <use style="fill:#ff0000;stroke:#ff0000;" x="134.567421" xlink:href="#m7993e5a915" y="201.789378"/>
     <use style="fill:#ff0000;stroke:#ff0000;" x="135.671688" xlink:href="#m7993e5a915" y="171.62562"/>
     <use style="fill:#ff0000;stroke:#ff0000;" x="136.775955" xlink:href="#m7993e5a915" y="198.069244"/>
     <use style="fill:#ff0000;stroke:#ff0000;" x="137.880223" xlink:href="#m7993e5a915" y="202.014605"/>
     <use style="fill:#ff0000;stroke:#ff0000;" x="138.98449" xlink:href="#m7993e5a915" y="196.442998"/>
     <use style="fill:#ff0000;stroke:#ff0000;" x="140.088757" xlink:href="#m7993e5a915" y="211.509607"/>
     <use style="fill:#ff0000;stroke:#ff0000;" x="141.193024" xlink:href="#m7993e5a915" y="194.405985"/>
     <use style="fill:#ff0000;stroke:#ff0000;" x="142.297291" xlink:href="#m7993e5a915" y="203.221625"/>
     <use style="fill:#ff0000;stroke:#ff0000;" x="143.401558" xlink:href="#m7993e5a915" y="195.122406"/>
     <use style="fill:#ff0000;stroke:#ff0000;" x="144.505826" xlink:href="#m7993e5a915" y="197.706045"/>
     <use style="fill:#ff0000;stroke:#ff0000;" x="145.610093" xlink:href="#m7993e5a915" y="217.850108"/>
     <use style="fill:#ff0000;stroke:#ff0000;" x="146.71436" xlink:href="#m7993e5a915" y="196.181835"/>
     <use style="fill:#ff0000;stroke:#ff0000;" x="147.818627" xlink:href="#m7993e5a915" y="224.159016"/>
     <use style="fill:#ff0000;stroke:#ff0000;" x="148.922894" xlink:href="#m7993e5a915" y="186.964564"/>
     <use style="fill:#ff0000;stroke:#ff0000;" x="150.027161" xlink:href="#m7993e5a915" y="189.587171"/>
     <use style="fill:#ff0000;stroke:#ff0000;" x="151.131429" xlink:href="#m7993e5a915" y="216.242439"/>
     <use style="fill:#ff0000;stroke:#ff0000;" x="152.235696" xlink:href="#m7993e5a915" y="227.265771"/>
     <use style="fill:#ff0000;stroke:#ff0000;" x="153.339963" xlink:href="#m7993e5a915" y="200.131684"/>
     <use style="fill:#ff0000;stroke:#ff0000;" x="154.44423" xlink:href="#m7993e5a915" y="223.375401"/>
     <use style="fill:#ff0000;stroke:#ff0000;" x="155.548497" xlink:href="#m7993e5a915" y="221.456409"/>
     <use style="fill:#ff0000;stroke:#ff0000;" x="156.652764" xlink:href="#m7993e5a915" y="209.815864"/>
     <use style="fill:#ff0000;stroke:#ff0000;" x="157.757032" xlink:href="#m7993e5a915" y="199.635666"/>
     <use style="fill:#ff0000;stroke:#ff0000;" x="158.861299" xlink:href="#m7993e5a915" y="220.628357"/>
     <use style="fill:#ff0000;stroke:#ff0000;" x="159.965566" xlink:href="#m7993e5a915" y="221.272832"/>
     <use style="fill:#ff0000;stroke:#ff0000;" x="161.069833" xlink:href="#m7993e5a915" y="230.792923"/>
     <use style="fill:#ff0000;stroke:#ff0000;" x="162.1741" xlink:href="#m7993e5a915" y="229.427339"/>
     <use style="fill:#ff0000;stroke:#ff0000;" x="163.278367" xlink:href="#m7993e5a915" y="234.262509"/>
     <use style="fill:#ff0000;stroke:#ff0000;" x="164.382635" xlink:href="#m7993e5a915" y="232.123961"/>
     <use style="fill:#ff0000;stroke:#ff0000;" x="165.486902" xlink:href="#m7993e5a915" y="233.189491"/>
     <use style="fill:#ff0000;stroke:#ff0000;" x="166.591169" xlink:href="#m7993e5a915" y="230.006775"/>
     <use style="fill:#ff0000;stroke:#ff0000;" x="167.695436" xlink:href="#m7993e5a915" y="224.10353"/>
     <use style="fill:#ff0000;stroke:#ff0000;" x="168.799703" xlink:href="#m7993e5a915" y="247.27524"/>
     <use style="fill:#ff0000;stroke:#ff0000;" x="169.90397" xlink:href="#m7993e5a915" y="221.088261"/>
     <use style="fill:#ff0000;stroke:#ff0000;" x="171.008237" xlink:href="#m7993e5a915" y="252.54053"/>
     <use style="fill:#ff0000;stroke:#ff0000;" x="172.112505" xlink:href="#m7993e5a915" y="233.575838"/>
     <use style="fill:#ff0000;stroke:#ff0000;" x="173.216772" xlink:href="#m7993e5a915" y="219.851283"/>
     <use style="fill:#ff0000;stroke:#ff0000;" x="174.321039" xlink:href="#m7993e5a915" y="246.300173"/>
     <use style="fill:#ff0000;stroke:#ff0000;" x="175.425306" xlink:href="#m7993e5a915" y="238.309903"/>
     <use style="fill:#ff0000;stroke:#ff0000;" x="176.529573" xlink:href="#m7993e5a915" y="246.09792"/>
     <use style="fill:#ff0000;stroke:#ff0000;" x="177.63384" xlink:href="#m7993e5a915" y="235.741076"/>
     <use style="fill:#ff0000;stroke:#ff0000;" x="178.738108" xlink:href="#m7993e5a915" y="234.281691"/>
     <use style="fill:#ff0000;stroke:#ff0000;" x="179.842375" xlink:href="#m7993e5a915" y="243.498411"/>
     <use style="fill:#ff0000;stroke:#ff0000;" x="180.946642" xlink:href="#m7993e5a915" y="247.930213"/>
     <use style="fill:#ff0000;stroke:#ff0000;" x="182.050909" xlink:href="#m7993e5a915" y="249.465955"/>
     <use style="fill:#ff0000;stroke:#ff0000;" x="183.155176" xlink:href="#m7993e5a915" y="243.008333"/>
     <use style="fill:#ff0000;stroke:#ff0000;" x="184.259443" xlink:href="#m7993e5a915" y="253.878566"/>
     <use style="fill:#ff0000;stroke:#ff0000;" x="185.363711" xlink:href="#m7993e5a915" y="249.269381"/>
     <use style="fill:#ff0000;stroke:#ff0000;" x="186.467978" xlink:href="#m7993e5a915" y="250.137416"/>
     <use style="fill:#ff0000;stroke:#ff0000;" x="187.572245" xlink:href="#m7993e5a915" y="246.062353"/>
     <use style="fill:#ff0000;stroke:#ff0000;" x="188.676512" xlink:href="#m7993e5a915" y="253.233861"/>
     <use style="fill:#ff0000;stroke:#ff0000;" x="189.780779" xlink:href="#m7993e5a915" y="253.098834"/>
     <use style="fill:#ff0000;stroke:#ff0000;" x="190.885046" xlink:href="#m7993e5a915" y="257.981861"/>
     <use style="fill:#ff0000;stroke:#ff0000;" x="191.989314" xlink:href="#m7993e5a915" y="246.845829"/>
     <use style="fill:#ff0000;stroke:#ff0000;" x="193.093581" xlink:href="#m7993e5a915" y="252.542992"/>
     <use style="fill:#ff0000;stroke:#ff0000;" x="194.197848" xlink:href="#m7993e5a915" y="257.721031"/>
     <use style="fill:#ff0000;stroke:#ff0000;" x="195.302115" xlink:href="#m7993e5a915" y="259.370419"/>
     <use style="fill:#ff0000;stroke:#ff0000;" x="196.406382" xlink:href="#m7993e5a915" y="265.426881"/>
     <use style="fill:#ff0000;stroke:#ff0000;" x="197.510649" xlink:href="#m7993e5a915" y="264.798719"/>
     <use style="fill:#ff0000;stroke:#ff0000;" x="198.614917" xlink:href="#m7993e5a915" y="256.898455"/>
     <use style="fill:#ff0000;stroke:#ff0000;" x="199.719184" xlink:href="#m7993e5a915" y="257.278463"/>
     <use style="fill:#ff0000;stroke:#ff0000;" x="200.823451" xlink:href="#m7993e5a915" y="268.893722"/>
     <use style="fill:#ff0000;stroke:#ff0000;" x="201.927718" xlink:href="#m7993e5a915" y="264.150806"/>
     <use style="fill:#ff0000;stroke:#ff0000;" x="203.031985" xlink:href="#m7993e5a915" y="254.431271"/>
     <use style="fill:#ff0000;stroke:#ff0000;" x="204.136252" xlink:href="#m7993e5a915" y="269.786054"/>
     <use style="fill:#ff0000;stroke:#ff0000;" x="205.240519" xlink:href="#m7993e5a915" y="261.350205"/>
     <use style="fill:#ff0000;stroke:#ff0000;" x="206.344787" xlink:href="#m7993e5a915" y="275.862655"/>
     <use style="fill:#ff0000;stroke:#ff0000;" x="207.449054" xlink:href="#m7993e5a915" y="264.186522"/>
     <use style="fill:#ff0000;stroke:#ff0000;" x="208.553321" xlink:href="#m7993e5a915" y="277.577798"/>
     <use style="fill:#ff0000;stroke:#ff0000;" x="209.657588" xlink:href="#m7993e5a915" y="274.124643"/>
     <use style="fill:#ff0000;stroke:#ff0000;" x="210.761855" xlink:href="#m7993e5a915" y="264.45383"/>
     <use style="fill:#ff0000;stroke:#ff0000;" x="211.866122" xlink:href="#m7993e5a915" y="261.762058"/>
     <use style="fill:#ff0000;stroke:#ff0000;" x="212.97039" xlink:href="#m7993e5a915" y="271.443064"/>
     <use style="fill:#ff0000;stroke:#ff0000;" x="214.074657" xlink:href="#m7993e5a915" y="265.828249"/>
     <use style="fill:#ff0000;stroke:#ff0000;" x="215.178924" xlink:href="#m7993e5a915" y="261.727204"/>
     <use style="fill:#ff0000;stroke:#ff0000;" x="216.283191" xlink:href="#m7993e5a915" y="271.598418"/>
     <use style="fill:#ff0000;stroke:#ff0000;" x="217.387458" xlink:href="#m7993e5a915" y="273.802954"/>
     <use style="fill:#ff0000;stroke:#ff0000;" x="218.491725" xlink:href="#m7993e5a915" y="262.880907"/>
     <use style="fill:#ff0000;stroke:#ff0000;" x="219.595993" xlink:href="#m7993e5a915" y="283.579275"/>
     <use style="fill:#ff0000;stroke:#ff0000;" x="220.70026" xlink:href="#m7993e5a915" y="279.111165"/>
     <use style="fill:#ff0000;stroke:#ff0000;" x="221.804527" xlink:href="#m7993e5a915" y="269.680374"/>
     <use style="fill:#ff0000;stroke:#ff0000;" x="222.908794" xlink:href="#m7993e5a915" y="282.459639"/>
     <use style="fill:#ff0000;stroke:#ff0000;" x="224.013061" xlink:href="#m7993e5a915" y="280.329101"/>
     <use style="fill:#ff0000;stroke:#ff0000;" x="225.117328" xlink:href="#m7993e5a915" y="282.54218"/>
     <use style="fill:#ff0000;stroke:#ff0000;" x="226.221596" xlink:href="#m7993e5a915" y="288.943824"/>
     <use style="fill:#ff0000;stroke:#ff0000;" x="227.325863" xlink:href="#m7993e5a915" y="275.14648"/>
     <use style="fill:#ff0000;stroke:#ff0000;" x="228.43013" xlink:href="#m7993e5a915" y="279.110311"/>
     <use style="fill:#ff0000;stroke:#ff0000;" x="229.534397" xlink:href="#m7993e5a915" y="289.451207"/>
     <use style="fill:#ff0000;stroke:#ff0000;" x="230.638664" xlink:href="#m7993e5a915" y="272.703134"/>
     <use style="fill:#ff0000;stroke:#ff0000;" x="231.742931" xlink:href="#m7993e5a915" y="276.691463"/>
     <use style="fill:#ff0000;stroke:#ff0000;" x="232.847199" xlink:href="#m7993e5a915" y="273.203871"/>
     <use style="fill:#ff0000;stroke:#ff0000;" x="233.951466" xlink:href="#m7993e5a915" y="271.383908"/>
     <use style="fill:#ff0000;stroke:#ff0000;" x="235.055733" xlink:href="#m7993e5a915" y="274.23771"/>
     <use style="fill:#ff0000;stroke:#ff0000;" x="236.16" xlink:href="#m7993e5a915" y="291.119007"/>
     <use style="fill:#ff0000;stroke:#ff0000;" x="237.264267" xlink:href="#m7993e5a915" y="276.031098"/>
     <use style="fill:#ff0000;stroke:#ff0000;" x="238.368534" xlink:href="#m7993e5a915" y="276.159249"/>
     <use style="fill:#ff0000;stroke:#ff0000;" x="239.472801" xlink:href="#m7993e5a915" y="288.502054"/>
     <use style="fill:#ff0000;stroke:#ff0000;" x="240.577069" xlink:href="#m7993e5a915" y="286.036479"/>
     <use style="fill:#ff0000;stroke:#ff0000;" x="241.681336" xlink:href="#m7993e5a915" y="275.462734"/>
     <use style="fill:#ff0000;stroke:#ff0000;" x="242.785603" xlink:href="#m7993e5a915" y="289.184421"/>
     <use style="fill:#ff0000;stroke:#ff0000;" x="243.88987" xlink:href="#m7993e5a915" y="281.770471"/>
     <use style="fill:#ff0000;stroke:#ff0000;" x="244.994137" xlink:href="#m7993e5a915" y="275.888161"/>
     <use style="fill:#ff0000;stroke:#ff0000;" x="246.098404" xlink:href="#m7993e5a915" y="276.825942"/>
     <use style="fill:#ff0000;stroke:#ff0000;" x="247.202672" xlink:href="#m7993e5a915" y="286.243745"/>
     <use style="fill:#ff0000;stroke:#ff0000;" x="248.306939" xlink:href="#m7993e5a915" y="284.063453"/>
     <use style="fill:#ff0000;stroke:#ff0000;" x="249.411206" xlink:href="#m7993e5a915" y="289.197882"/>
     <use style="fill:#ff0000;stroke:#ff0000;" x="250.515473" xlink:href="#m7993e5a915" y="280.190723"/>
     <use style="fill:#ff0000;stroke:#ff0000;" x="251.61974" xlink:href="#m7993e5a915" y="295.358149"/>
     <use style="fill:#ff0000;stroke:#ff0000;" x="252.724007" xlink:href="#m7993e5a915" y="281.87654"/>
     <use style="fill:#ff0000;stroke:#ff0000;" x="253.828275" xlink:href="#m7993e5a915" y="286.423541"/>
     <use style="fill:#ff0000;stroke:#ff0000;" x="254.932542" xlink:href="#m7993e5a915" y="280.170964"/>
     <use style="fill:#ff0000;stroke:#ff0000;" x="256.036809" xlink:href="#m7993e5a915" y="275.670179"/>
     <use style="fill:#ff0000;stroke:#ff0000;" x="257.141076" xlink:href="#m7993e5a915" y="288.726431"/>
     <use style="fill:#ff0000;stroke:#ff0000;" x="258.245343" xlink:href="#m7993e5a915" y="282.681605"/>
     <use style="fill:#ff0000;stroke:#ff0000;" x="259.34961" xlink:href="#m7993e5a915" y="295.488"/>
     <use style="fill:#ff0000;stroke:#ff0000;" x="260.453878" xlink:href="#m7993e5a915" y="283.405561"/>
     <use style="fill:#ff0000;stroke:#ff0000;" x="261.558145" xlink:href="#m7993e5a915" y="290.302428"/>
     <use style="fill:#ff0000;stroke:#ff0000;" x="262.662412" xlink:href="#m7993e5a915" y="277.308849"/>
     <use style="fill:#ff0000;stroke:#ff0000;" x="263.766679" xlink:href="#m7993e5a915" y="276.982595"/>
     <use style="fill:#ff0000;stroke:#ff0000;" x="264.870946" xlink:href="#m7993e5a915" y="278.841316"/>
     <use style="fill:#ff0000;stroke:#ff0000;" x="265.975213" xlink:href="#m7993e5a915" y="276.622848"/>
     <use style="fill:#ff0000;stroke:#ff0000;" x="267.079481" xlink:href="#m7993e5a915" y="283.784208"/>
     <use style="fill:#ff0000;stroke:#ff0000;" x="268.183748" xlink:href="#m7993e5a915" y="274.464401"/>
     <use style="fill:#ff0000;stroke:#ff0000;" x="269.288015" xlink:href="#m7993e5a915" y="292.320844"/>
     <use style="fill:#ff0000;stroke:#ff0000;" x="270.392282" xlink:href="#m7993e5a915" y="285.372942"/>
     <use style="fill:#ff0000;stroke:#ff0000;" x="271.496549" xlink:href="#m7993e5a915" y="288.654077"/>
     <use style="fill:#ff0000;stroke:#ff0000;" x="272.600816" xlink:href="#m7993e5a915" y="278.042675"/>
     <use style="fill:#ff0000;stroke:#ff0000;" x="273.705083" xlink:href="#m7993e5a915" y="286.305126"/>
     <use style="fill:#ff0000;stroke:#ff0000;" x="274.809351" xlink:href="#m7993e5a915" y="284.052858"/>
     <use style="fill:#ff0000;stroke:#ff0000;" x="275.913618" xlink:href="#m7993e5a915" y="289.103667"/>
     <use style="fill:#ff0000;stroke:#ff0000;" x="277.017885" xlink:href="#m7993e5a915" y="280.279967"/>
     <use style="fill:#ff0000;stroke:#ff0000;" x="278.122152" xlink:href="#m7993e5a915" y="276.228403"/>
     <use style="fill:#ff0000;stroke:#ff0000;" x="279.226419" xlink:href="#m7993e5a915" y="282.290958"/>
     <use style="fill:#ff0000;stroke:#ff0000;" x="280.330686" xlink:href="#m7993e5a915" y="273.580963"/>
     <use style="fill:#ff0000;stroke:#ff0000;" x="281.434954" xlink:href="#m7993e5a915" y="276.046437"/>
     <use style="fill:#ff0000;stroke:#ff0000;" x="282.539221" xlink:href="#m7993e5a915" y="291.520307"/>
     <use style="fill:#ff0000;stroke:#ff0000;" x="283.643488" xlink:href="#m7993e5a915" y="291.007381"/>
     <use style="fill:#ff0000;stroke:#ff0000;" x="284.747755" xlink:href="#m7993e5a915" y="288.841971"/>
     <use style="fill:#ff0000;stroke:#ff0000;" x="285.852022" xlink:href="#m7993e5a915" y="286.928023"/>
     <use style="fill:#ff0000;stroke:#ff0000;" x="286.956289" xlink:href="#m7993e5a915" y="273.865359"/>
     <use style="fill:#ff0000;stroke:#ff0000;" x="288.060557" xlink:href="#m7993e5a915" y="276.944809"/>
     <use style="fill:#ff0000;stroke:#ff0000;" x="289.164824" xlink:href="#m7993e5a915" y="274.296172"/>
     <use style="fill:#ff0000;stroke:#ff0000;" x="290.269091" xlink:href="#m7993e5a915" y="288.456433"/>
     <use style="fill:#ff0000;stroke:#ff0000;" x="291.373358" xlink:href="#m7993e5a915" y="288.840686"/>
     <use style="fill:#ff0000;stroke:#ff0000;" x="292.477625" xlink:href="#m7993e5a915" y="279.689289"/>
     <use style="fill:#ff0000;stroke:#ff0000;" x="293.581892" xlink:href="#m7993e5a915" y="266.865218"/>
     <use style="fill:#ff0000;stroke:#ff0000;" x="294.68616" xlink:href="#m7993e5a915" y="275.342446"/>
     <use style="fill:#ff0000;stroke:#ff0000;" x="295.790427" xlink:href="#m7993e5a915" y="282.416334"/>
     <use style="fill:#ff0000;stroke:#ff0000;" x="296.894694" xlink:href="#m7993e5a915" y="282.463236"/>
     <use style="fill:#ff0000;stroke:#ff0000;" x="297.998961" xlink:href="#m7993e5a915" y="272.424097"/>
     <use style="fill:#ff0000;stroke:#ff0000;" x="299.103228" xlink:href="#m7993e5a915" y="278.527099"/>
     <use style="fill:#ff0000;stroke:#ff0000;" x="300.207495" xlink:href="#m7993e5a915" y="267.005974"/>
     <use style="fill:#ff0000;stroke:#ff0000;" x="301.311763" xlink:href="#m7993e5a915" y="267.575927"/>
     <use style="fill:#ff0000;stroke:#ff0000;" x="302.41603" xlink:href="#m7993e5a915" y="281.453731"/>
     <use style="fill:#ff0000;stroke:#ff0000;" x="303.520297" xlink:href="#m7993e5a915" y="265.232157"/>
     <use style="fill:#ff0000;stroke:#ff0000;" x="304.624564" xlink:href="#m7993e5a915" y="285.187568"/>
     <use style="fill:#ff0000;stroke:#ff0000;" x="305.728831" xlink:href="#m7993e5a915" y="268.399933"/>
     <use style="fill:#ff0000;stroke:#ff0000;" x="306.833098" xlink:href="#m7993e5a915" y="270.118431"/>
     <use style="fill:#ff0000;stroke:#ff0000;" x="307.937365" xlink:href="#m7993e5a915" y="274.2307"/>
     <use style="fill:#ff0000;stroke:#ff0000;" x="309.041633" xlink:href="#m7993e5a915" y="276.271494"/>
     <use style="fill:#ff0000;stroke:#ff0000;" x="310.1459" xlink:href="#m7993e5a915" y="271.265679"/>
     <use style="fill:#ff0000;stroke:#ff0000;" x="311.250167" xlink:href="#m7993e5a915" y="277.202853"/>
     <use style="fill:#ff0000;stroke:#ff0000;" x="312.354434" xlink:href="#m7993e5a915" y="261.752069"/>
     <use style="fill:#ff0000;stroke:#ff0000;" x="313.458701" xlink:href="#m7993e5a915" y="274.678363"/>
     <use style="fill:#ff0000;stroke:#ff0000;" x="314.562968" xlink:href="#m7993e5a915" y="272.806244"/>
     <use style="fill:#ff0000;stroke:#ff0000;" x="315.667236" xlink:href="#m7993e5a915" y="262.437576"/>
     <use style="fill:#ff0000;stroke:#ff0000;" x="316.771503" xlink:href="#m7993e5a915" y="263.783801"/>
     <use style="fill:#ff0000;stroke:#ff0000;" x="317.87577" xlink:href="#m7993e5a915" y="260.212338"/>
     <use style="fill:#ff0000;stroke:#ff0000;" x="318.980037" xlink:href="#m7993e5a915" y="269.338754"/>
     <use style="fill:#ff0000;stroke:#ff0000;" x="320.084304" xlink:href="#m7993e5a915" y="270.559749"/>
     <use style="fill:#ff0000;stroke:#ff0000;" x="321.188571" xlink:href="#m7993e5a915" y="277.027895"/>
     <use style="fill:#ff0000;stroke:#ff0000;" x="322.292839" xlink:href="#m7993e5a915" y="258.577494"/>
     <use style="fill:#ff0000;stroke:#ff0000;" x="323.397106" xlink:href="#m7993e5a915" y="262.300037"/>
     <use style="fill:#ff0000;stroke:#ff0000;" x="324.501373" xlink:href="#m7993e5a915" y="254.146462"/>
     <use style="fill:#ff0000;stroke:#ff0000;" x="325.60564" xlink:href="#m7993e5a915" y="262.165279"/>
     <use style="fill:#ff0000;stroke:#ff0000;" x="326.709907" xlink:href="#m7993e5a915" y="250.665954"/>
     <use style="fill:#ff0000;stroke:#ff0000;" x="327.814174" xlink:href="#m7993e5a915" y="268.097572"/>
     <use style="fill:#ff0000;stroke:#ff0000;" x="328.918442" xlink:href="#m7993e5a915" y="250.518606"/>
     <use style="fill:#ff0000;stroke:#ff0000;" x="330.022709" xlink:href="#m7993e5a915" y="267.589583"/>
     <use style="fill:#ff0000;stroke:#ff0000;" x="331.126976" xlink:href="#m7993e5a915" y="243.755498"/>
     <use style="fill:#ff0000;stroke:#ff0000;" x="332.231243" xlink:href="#m7993e5a915" y="251.864151"/>
     <use style="fill:#ff0000;stroke:#ff0000;" x="333.33551" xlink:href="#m7993e5a915" y="242.065624"/>
     <use style="fill:#ff0000;stroke:#ff0000;" x="334.439777" xlink:href="#m7993e5a915" y="258.997788"/>
     <use style="fill:#ff0000;stroke:#ff0000;" x="335.544045" xlink:href="#m7993e5a915" y="260.02467"/>
     <use style="fill:#ff0000;stroke:#ff0000;" x="336.648312" xlink:href="#m7993e5a915" y="245.374108"/>
     <use style="fill:#ff0000;stroke:#ff0000;" x="337.752579" xlink:href="#m7993e5a915" y="239.620558"/>
     <use style="fill:#ff0000;stroke:#ff0000;" x="338.856846" xlink:href="#m7993e5a915" y="246.766843"/>
     <use style="fill:#ff0000;stroke:#ff0000;" x="339.961113" xlink:href="#m7993e5a915" y="243.734354"/>
     <use style="fill:#ff0000;stroke:#ff0000;" x="341.06538" xlink:href="#m7993e5a915" y="244.828509"/>
     <use style="fill:#ff0000;stroke:#ff0000;" x="342.169647" xlink:href="#m7993e5a915" y="230.061807"/>
     <use style="fill:#ff0000;stroke:#ff0000;" x="343.273915" xlink:href="#m7993e5a915" y="247.999438"/>
     <use style="fill:#ff0000;stroke:#ff0000;" x="344.378182" xlink:href="#m7993e5a915" y="243.95589"/>
     <use style="fill:#ff0000;stroke:#ff0000;" x="345.482449" xlink:href="#m7993e5a915" y="240.329039"/>
     <use style="fill:#ff0000;stroke:#ff0000;" x="346.586716" xlink:href="#m7993e5a915" y="239.175197"/>
     <use style="fill:#ff0000;stroke:#ff0000;" x="347.690983" xlink:href="#m7993e5a915" y="230.708422"/>
     <use style="fill:#ff0000;stroke:#ff0000;" x="348.79525" xlink:href="#m7993e5a915" y="256.145073"/>
     <use style="fill:#ff0000;stroke:#ff0000;" x="349.899518" xlink:href="#m7993e5a915" y="217.43559"/>
     <use style="fill:#ff0000;stroke:#ff0000;" x="351.003785" xlink:href="#m7993e5a915" y="226.00926"/>
     <use style="fill:#ff0000;stroke:#ff0000;" x="352.108052" xlink:href="#m7993e5a915" y="236.236366"/>
     <use style="fill:#ff0000;stroke:#ff0000;" x="353.212319" xlink:href="#m7993e5a915" y="230.491776"/>
     <use style="fill:#ff0000;stroke:#ff0000;" x="354.316586" xlink:href="#m7993e5a915" y="230.211591"/>
     <use style="fill:#ff0000;stroke:#ff0000;" x="355.420853" xlink:href="#m7993e5a915" y="225.191527"/>
     <use style="fill:#ff0000;stroke:#ff0000;" x="356.525121" xlink:href="#m7993e5a915" y="227.307326"/>
     <use style="fill:#ff0000;stroke:#ff0000;" x="357.629388" xlink:href="#m7993e5a915" y="226.20461"/>
     <use style="fill:#ff0000;stroke:#ff0000;" x="358.733655" xlink:href="#m7993e5a915" y="245.621685"/>
     <use style="fill:#ff0000;stroke:#ff0000;" x="359.837922" xlink:href="#m7993e5a915" y="232.725696"/>
     <use style="fill:#ff0000;stroke:#ff0000;" x="360.942189" xlink:href="#m7993e5a915" y="227.347361"/>
     <use style="fill:#ff0000;stroke:#ff0000;" x="362.046456" xlink:href="#m7993e5a915" y="217.978221"/>
     <use style="fill:#ff0000;stroke:#ff0000;" x="363.150724" xlink:href="#m7993e5a915" y="212.392871"/>
     <use style="fill:#ff0000;stroke:#ff0000;" x="364.254991" xlink:href="#m7993e5a915" y="226.31528"/>
     <use style="fill:#ff0000;stroke:#ff0000;" x="365.359258" xlink:href="#m7993e5a915" y="220.949661"/>
     <use style="fill:#ff0000;stroke:#ff0000;" x="366.463525" xlink:href="#m7993e5a915" y="221.094935"/>
     <use style="fill:#ff0000;stroke:#ff0000;" x="367.567792" xlink:href="#m7993e5a915" y="203.132535"/>
     <use style="fill:#ff0000;stroke:#ff0000;" x="368.672059" xlink:href="#m7993e5a915" y="197.083924"/>
     <use style="fill:#ff0000;stroke:#ff0000;" x="369.776327" xlink:href="#m7993e5a915" y="223.513014"/>
     <use style="fill:#ff0000;stroke:#ff0000;" x="370.880594" xlink:href="#m7993e5a915" y="214.542859"/>
     <use style="fill:#ff0000;stroke:#ff0000;" x="371.984861" xlink:href="#m7993e5a915" y="212.814204"/>
     <use style="fill:#ff0000;stroke:#ff0000;" x="373.089128" xlink:href="#m7993e5a915" y="213.178942"/>
     <use style="fill:#ff0000;stroke:#ff0000;" x="374.193395" xlink:href="#m7993e5a915" y="198.196878"/>
     <use style="fill:#ff0000;stroke:#ff0000;" x="375.297662" xlink:href="#m7993e5a915" y="193.852594"/>
     <use style="fill:#ff0000;stroke:#ff0000;" x="376.401929" xlink:href="#m7993e5a915" y="202.234924"/>
     <use style="fill:#ff0000;stroke:#ff0000;" x="377.506197" xlink:href="#m7993e5a915" y="197.418034"/>
     <use style="fill:#ff0000;stroke:#ff0000;" x="378.610464" xlink:href="#m7993e5a915" y="213.242854"/>
     <use style="fill:#ff0000;stroke:#ff0000;" x="379.714731" xlink:href="#m7993e5a915" y="173.202668"/>
     <use style="fill:#ff0000;stroke:#ff0000;" x="380.818998" xlink:href="#m7993e5a915" y="203.085207"/>
     <use style="fill:#ff0000;stroke:#ff0000;" x="381.923265" xlink:href="#m7993e5a915" y="205.638104"/>
     <use style="fill:#ff0000;stroke:#ff0000;" x="383.027532" xlink:href="#m7993e5a915" y="204.512238"/>
     <use style="fill:#ff0000;stroke:#ff0000;" x="384.1318" xlink:href="#m7993e5a915" y="178.91757"/>
     <use style="fill:#ff0000;stroke:#ff0000;" x="385.236067" xlink:href="#m7993e5a915" y="190.296238"/>
     <use style="fill:#ff0000;stroke:#ff0000;" x="386.340334" xlink:href="#m7993e5a915" y="185.221705"/>
     <use style="fill:#ff0000;stroke:#ff0000;" x="387.444601" xlink:href="#m7993e5a915" y="193.574411"/>
     <use style="fill:#ff0000;stroke:#ff0000;" x="388.548868" xlink:href="#m7993e5a915" y="192.438845"/>
     <use style="fill:#ff0000;stroke:#ff0000;" x="389.653135" xlink:href="#m7993e5a915" y="186.721911"/>
     <use style="fill:#ff0000;stroke:#ff0000;" x="390.757403" xlink:href="#m7993e5a915" y="167.24255"/>
     <use style="fill:#ff0000;stroke:#ff0000;" x="391.86167" xlink:href="#m7993e5a915" y="178.993515"/>
     <use style="fill:#ff0000;stroke:#ff0000;" x="392.965937" xlink:href="#m7993e5a915" y="189.535047"/>
     <use style="fill:#ff0000;stroke:#ff0000;" x="394.070204" xlink:href="#m7993e5a915" y="166.114341"/>
     <use style="fill:#ff0000;stroke:#ff0000;" x="395.174471" xlink:href="#m7993e5a915" y="160.20031"/>
     <use style="fill:#ff0000;stroke:#ff0000;" x="396.278738" xlink:href="#m7993e5a915" y="158.92937"/>
     <use style="fill:#ff0000;stroke:#ff0000;" x="397.383006" xlink:href="#m7993e5a915" y="193.150389"/>
     <use style="fill:#ff0000;stroke:#ff0000;" x="398.487273" xlink:href="#m7993e5a915" y="177.074971"/>
    </g>
   </g>
   <g id="line2d_14">
    <path clip-path="url(#p5838493ccc)" d="M 73.832727 69.237794 
L 80.45833 84.264273 
L 87.083933 98.748649 
L 93.709536 112.690923 
L 100.335139 126.091095 
L 106.960742 138.949164 
L 113.586345 151.265131 
L 120.211948 163.038996 
L 125.733284 172.436444 
L 131.25462 181.457433 
L 136.775955 190.101961 
L 142.297291 198.37003 
L 147.818627 206.261638 
L 153.339963 213.776787 
L 158.861299 220.915476 
L 164.382635 227.677705 
L 169.90397 234.063474 
L 175.425306 240.072783 
L 180.946642 245.705633 
L 186.467978 250.962022 
L 190.885046 254.896082 
L 195.302115 258.589209 
L 199.719184 262.0414 
L 204.136252 265.252658 
L 208.553321 268.222981 
L 212.97039 270.95237 
L 217.387458 273.440824 
L 221.804527 275.688344 
L 226.221596 277.69493 
L 230.638664 279.460581 
L 235.055733 280.985298 
L 239.472801 282.269081 
L 243.88987 283.31193 
L 248.306939 284.113844 
L 252.724007 284.674824 
L 257.141076 284.994869 
L 261.558145 285.07398 
L 265.975213 284.912157 
L 270.392282 284.5094 
L 274.809351 283.865708 
L 279.226419 282.981081 
L 283.643488 281.855521 
L 288.060557 280.489026 
L 292.477625 278.881597 
L 296.894694 277.033233 
L 301.311763 274.943936 
L 305.728831 272.613703 
L 310.1459 270.042537 
L 314.562968 267.230436 
L 318.980037 264.177401 
L 323.397106 260.883431 
L 327.814174 257.348528 
L 332.231243 253.572689 
L 336.648312 249.555917 
L 342.169647 244.196137 
L 347.690983 238.459898 
L 353.212319 232.347199 
L 358.733655 225.85804 
L 364.254991 218.992421 
L 369.776327 211.750342 
L 375.297662 204.131803 
L 380.818998 196.136804 
L 386.340334 187.765345 
L 391.86167 179.017427 
L 397.383006 169.893048 
L 398.487273 168.022998 
L 398.487273 168.022998 
" style="fill:none;stroke:#008000;stroke-linecap:square;stroke-width:1.5;"/>
   </g>
   <g id="patch_3">
    <path d="M 57.6 307.584 
L 57.6 41.472 
" style="fill:none;stroke:#000000;stroke-linecap:square;stroke-linejoin:miter;stroke-width:0.8;"/>
   </g>
   <g id="patch_4">
    <path d="M 414.72 307.584 
L 414.72 41.472 
" style="fill:none;stroke:#000000;stroke-linecap:square;stroke-linejoin:miter;stroke-width:0.8;"/>
   </g>
   <g id="patch_5">
    <path d="M 57.6 307.584 
L 414.72 307.584 
" style="fill:none;stroke:#000000;stroke-linecap:square;stroke-linejoin:miter;stroke-width:0.8;"/>
   </g>
   <g id="patch_6">
    <path d="M 57.6 41.472 
L 414.72 41.472 
" style="fill:none;stroke:#000000;stroke-linecap:square;stroke-linejoin:miter;stroke-width:0.8;"/>
   </g>
   <g id="text_15">
    <!-- FunctionFitting 20 -->
    <defs>
     <path d="M 9.8125 72.90625 
L 51.703125 72.90625 
L 51.703125 64.59375 
L 19.671875 64.59375 
L 19.671875 43.109375 
L 48.578125 43.109375 
L 48.578125 34.8125 
L 19.671875 34.8125 
L 19.671875 0 
L 9.8125 0 
z
" id="DejaVuSans-70"/>
     <path d="M 54.890625 33.015625 
L 54.890625 0 
L 45.90625 0 
L 45.90625 32.71875 
Q 45.90625 40.484375 42.875 44.328125 
Q 39.84375 48.1875 33.796875 48.1875 
Q 26.515625 48.1875 22.3125 43.546875 
Q 18.109375 38.921875 18.109375 30.90625 
L 18.109375 0 
L 9.078125 0 
L 9.078125 54.6875 
L 18.109375 54.6875 
L 18.109375 46.1875 
Q 21.34375 51.125 25.703125 53.5625 
Q 30.078125 56 35.796875 56 
Q 45.21875 56 50.046875 50.171875 
Q 54.890625 44.34375 54.890625 33.015625 
z
" id="DejaVuSans-110"/>
     <path d="M 48.78125 52.59375 
L 48.78125 44.1875 
Q 44.96875 46.296875 41.140625 47.34375 
Q 37.3125 48.390625 33.40625 48.390625 
Q 24.65625 48.390625 19.8125 42.84375 
Q 14.984375 37.3125 14.984375 27.296875 
Q 14.984375 17.28125 19.8125 11.734375 
Q 24.65625 6.203125 33.40625 6.203125 
Q 37.3125 6.203125 41.140625 7.25 
Q 44.96875 8.296875 48.78125 10.40625 
L 48.78125 2.09375 
Q 45.015625 0.34375 40.984375 -0.53125 
Q 36.96875 -1.421875 32.421875 -1.421875 
Q 20.0625 -1.421875 12.78125 6.34375 
Q 5.515625 14.109375 5.515625 27.296875 
Q 5.515625 40.671875 12.859375 48.328125 
Q 20.21875 56 33.015625 56 
Q 37.15625 56 41.109375 55.140625 
Q 45.0625 54.296875 48.78125 52.59375 
z
" id="DejaVuSans-99"/>
     <path d="M 18.3125 70.21875 
L 18.3125 54.6875 
L 36.8125 54.6875 
L 36.8125 47.703125 
L 18.3125 47.703125 
L 18.3125 18.015625 
Q 18.3125 11.328125 20.140625 9.421875 
Q 21.96875 7.515625 27.59375 7.515625 
L 36.8125 7.515625 
L 36.8125 0 
L 27.59375 0 
Q 17.1875 0 13.234375 3.875 
Q 9.28125 7.765625 9.28125 18.015625 
L 9.28125 47.703125 
L 2.6875 47.703125 
L 2.6875 54.6875 
L 9.28125 54.6875 
L 9.28125 70.21875 
z
" id="DejaVuSans-116"/>
     <path d="M 9.421875 54.6875 
L 18.40625 54.6875 
L 18.40625 0 
L 9.421875 0 
z
M 9.421875 75.984375 
L 18.40625 75.984375 
L 18.40625 64.59375 
L 9.421875 64.59375 
z
" id="DejaVuSans-105"/>
     <path d="M 30.609375 48.390625 
Q 23.390625 48.390625 19.1875 42.75 
Q 14.984375 37.109375 14.984375 27.296875 
Q 14.984375 17.484375 19.15625 11.84375 
Q 23.34375 6.203125 30.609375 6.203125 
Q 37.796875 6.203125 41.984375 11.859375 
Q 46.1875 17.53125 46.1875 27.296875 
Q 46.1875 37.015625 41.984375 42.703125 
Q 37.796875 48.390625 30.609375 48.390625 
z
M 30.609375 56 
Q 42.328125 56 49.015625 48.375 
Q 55.71875 40.765625 55.71875 27.296875 
Q 55.71875 13.875 49.015625 6.21875 
Q 42.328125 -1.421875 30.609375 -1.421875 
Q 18.84375 -1.421875 12.171875 6.21875 
Q 5.515625 13.875 5.515625 27.296875 
Q 5.515625 40.765625 12.171875 48.375 
Q 18.84375 56 30.609375 56 
z
" id="DejaVuSans-111"/>
     <path d="M 45.40625 27.984375 
Q 45.40625 37.75 41.375 43.109375 
Q 37.359375 48.484375 30.078125 48.484375 
Q 22.859375 48.484375 18.828125 43.109375 
Q 14.796875 37.75 14.796875 27.984375 
Q 14.796875 18.265625 18.828125 12.890625 
Q 22.859375 7.515625 30.078125 7.515625 
Q 37.359375 7.515625 41.375 12.890625 
Q 45.40625 18.265625 45.40625 27.984375 
z
M 54.390625 6.78125 
Q 54.390625 -7.171875 48.1875 -13.984375 
Q 42 -20.796875 29.203125 -20.796875 
Q 24.46875 -20.796875 20.265625 -20.09375 
Q 16.0625 -19.390625 12.109375 -17.921875 
L 12.109375 -9.1875 
Q 16.0625 -11.328125 19.921875 -12.34375 
Q 23.78125 -13.375 27.78125 -13.375 
Q 36.625 -13.375 41.015625 -8.765625 
Q 45.40625 -4.15625 45.40625 5.171875 
L 45.40625 9.625 
Q 42.625 4.78125 38.28125 2.390625 
Q 33.9375 0 27.875 0 
Q 17.828125 0 11.671875 7.65625 
Q 5.515625 15.328125 5.515625 27.984375 
Q 5.515625 40.671875 11.671875 48.328125 
Q 17.828125 56 27.875 56 
Q 33.9375 56 38.28125 53.609375 
Q 42.625 51.21875 45.40625 46.390625 
L 45.40625 54.6875 
L 54.390625 54.6875 
z
" id="DejaVuSans-103"/>
    </defs>
    <g transform="translate(181.680937 35.472)scale(0.12 -0.12)">
     <use xlink:href="#DejaVuSans-70"/>
     <use x="57.441406" xlink:href="#DejaVuSans-117"/>
     <use x="120.820312" xlink:href="#DejaVuSans-110"/>
     <use x="184.199219" xlink:href="#DejaVuSans-99"/>
     <use x="239.179688" xlink:href="#DejaVuSans-116"/>
     <use x="278.388672" xlink:href="#DejaVuSans-105"/>
     <use x="306.171875" xlink:href="#DejaVuSans-111"/>
     <use x="367.353516" xlink:href="#DejaVuSans-110"/>
     <use x="430.732422" xlink:href="#DejaVuSans-70"/>
     <use x="488.142578" xlink:href="#DejaVuSans-105"/>
     <use x="515.925781" xlink:href="#DejaVuSans-116"/>
     <use x="555.134766" xlink:href="#DejaVuSans-116"/>
     <use x="594.34375" xlink:href="#DejaVuSans-105"/>
     <use x="622.126953" xlink:href="#DejaVuSans-110"/>
     <use x="685.505859" xlink:href="#DejaVuSans-103"/>
     <use x="748.982422" xlink:href="#DejaVuSans-32"/>
     <use x="780.769531" xlink:href="#DejaVuSans-50"/>
     <use x="844.392578" xlink:href="#DejaVuSans-48"/>
    </g>
   </g>
   <g id="legend_1">
    <g id="patch_7">
     <path d="M 299.83875 78.82825 
L 407.72 78.82825 
Q 409.72 78.82825 409.72 76.82825 
L 409.72 48.472 
Q 409.72 46.472 407.72 46.472 
L 299.83875 46.472 
Q 297.83875 46.472 297.83875 48.472 
L 297.83875 76.82825 
Q 297.83875 78.82825 299.83875 78.82825 
z
" style="fill:#ffffff;opacity:0.8;stroke:#cccccc;stroke-linejoin:miter;"/>
    </g>
    <g id="line2d_15"/>
    <g id="line2d_16">
     <g>
      <use style="fill:#ff0000;stroke:#ff0000;" x="311.83875" xlink:href="#m7993e5a915" y="54.570437"/>
     </g>
    </g>
    <g id="text_16">
     <!-- measured data -->
     <defs>
      <path d="M 52 44.1875 
Q 55.375 50.25 60.0625 53.125 
Q 64.75 56 71.09375 56 
Q 79.640625 56 84.28125 50.015625 
Q 88.921875 44.046875 88.921875 33.015625 
L 88.921875 0 
L 79.890625 0 
L 79.890625 32.71875 
Q 79.890625 40.578125 77.09375 44.375 
Q 74.3125 48.1875 68.609375 48.1875 
Q 61.625 48.1875 57.5625 43.546875 
Q 53.515625 38.921875 53.515625 30.90625 
L 53.515625 0 
L 44.484375 0 
L 44.484375 32.71875 
Q 44.484375 40.625 41.703125 44.40625 
Q 38.921875 48.1875 33.109375 48.1875 
Q 26.21875 48.1875 22.15625 43.53125 
Q 18.109375 38.875 18.109375 30.90625 
L 18.109375 0 
L 9.078125 0 
L 9.078125 54.6875 
L 18.109375 54.6875 
L 18.109375 46.1875 
Q 21.1875 51.21875 25.484375 53.609375 
Q 29.78125 56 35.6875 56 
Q 41.65625 56 45.828125 52.96875 
Q 50 49.953125 52 44.1875 
z
" id="DejaVuSans-109"/>
      <path d="M 41.109375 46.296875 
Q 39.59375 47.171875 37.8125 47.578125 
Q 36.03125 48 33.890625 48 
Q 26.265625 48 22.1875 43.046875 
Q 18.109375 38.09375 18.109375 28.8125 
L 18.109375 0 
L 9.078125 0 
L 9.078125 54.6875 
L 18.109375 54.6875 
L 18.109375 46.1875 
Q 20.953125 51.171875 25.484375 53.578125 
Q 30.03125 56 36.53125 56 
Q 37.453125 56 38.578125 55.875 
Q 39.703125 55.765625 41.0625 55.515625 
z
" id="DejaVuSans-114"/>
      <path d="M 45.40625 46.390625 
L 45.40625 75.984375 
L 54.390625 75.984375 
L 54.390625 0 
L 45.40625 0 
L 45.40625 8.203125 
Q 42.578125 3.328125 38.25 0.953125 
Q 33.9375 -1.421875 27.875 -1.421875 
Q 17.96875 -1.421875 11.734375 6.484375 
Q 5.515625 14.40625 5.515625 27.296875 
Q 5.515625 40.1875 11.734375 48.09375 
Q 17.96875 56 27.875 56 
Q 33.9375 56 38.25 53.625 
Q 42.578125 51.265625 45.40625 46.390625 
z
M 14.796875 27.296875 
Q 14.796875 17.390625 18.875 11.75 
Q 22.953125 6.109375 30.078125 6.109375 
Q 37.203125 6.109375 41.296875 11.75 
Q 45.40625 17.390625 45.40625 27.296875 
Q 45.40625 37.203125 41.296875 42.84375 
Q 37.203125 48.484375 30.078125 48.484375 
Q 22.953125 48.484375 18.875 42.84375 
Q 14.796875 37.203125 14.796875 27.296875 
z
" id="DejaVuSans-100"/>
     </defs>
     <g transform="translate(329.83875 58.070437)scale(0.1 -0.1)">
      <use xlink:href="#DejaVuSans-109"/>
      <use x="97.412109" xlink:href="#DejaVuSans-101"/>
      <use x="158.935547" xlink:href="#DejaVuSans-97"/>
      <use x="220.214844" xlink:href="#DejaVuSans-115"/>
      <use x="272.314453" xlink:href="#DejaVuSans-117"/>
      <use x="335.693359" xlink:href="#DejaVuSans-114"/>
      <use x="376.775391" xlink:href="#DejaVuSans-101"/>
      <use x="438.298828" xlink:href="#DejaVuSans-100"/>
      <use x="501.775391" xlink:href="#DejaVuSans-32"/>
      <use x="533.5625" xlink:href="#DejaVuSans-100"/>
      <use x="597.039062" xlink:href="#DejaVuSans-97"/>
      <use x="658.318359" xlink:href="#DejaVuSans-116"/>
      <use x="697.527344" xlink:href="#DejaVuSans-97"/>
     </g>
    </g>
    <g id="line2d_17">
     <path d="M 301.83875 69.248562 
L 321.83875 69.248562 
" style="fill:none;stroke:#008000;stroke-linecap:square;stroke-width:1.5;"/>
    </g>
    <g id="line2d_18"/>
    <g id="text_17">
     <!-- linear data -->
     <g transform="translate(329.83875 72.748562)scale(0.1 -0.1)">
      <use xlink:href="#DejaVuSans-108"/>
      <use x="27.783203" xlink:href="#DejaVuSans-105"/>
      <use x="55.566406" xlink:href="#DejaVuSans-110"/>
      <use x="118.945312" xlink:href="#DejaVuSans-101"/>
      <use x="180.46875" xlink:href="#DejaVuSans-97"/>
      <use x="241.748047" xlink:href="#DejaVuSans-114"/>
      <use x="282.861328" xlink:href="#DejaVuSans-32"/>
      <use x="314.648438" xlink:href="#DejaVuSans-100"/>
      <use x="378.125" xlink:href="#DejaVuSans-97"/>
      <use x="439.404297" xlink:href="#DejaVuSans-116"/>
      <use x="478.613281" xlink:href="#DejaVuSans-97"/>
     </g>
    </g>
   </g>
  </g>
 </g>
 <defs>
  <clipPath id="p5838493ccc">
   <rect height="266.112" width="357.12" x="57.6" y="41.472"/>
  </clipPath>
 </defs>
</svg>
