<?xml version="1.0" encoding="utf-8" standalone="no"?>
<!DOCTYPE svg PUBLIC "-//W3C//DTD SVG 1.1//EN"
  "http://www.w3.org/Graphics/SVG/1.1/DTD/svg11.dtd">
<!-- Created with matplotlib (https://matplotlib.org/) -->
<svg height="345.6pt" version="1.1" viewBox="0 0 460.8 345.6" width="460.8pt" xmlns="http://www.w3.org/2000/svg" xmlns:xlink="http://www.w3.org/1999/xlink">
 <defs>
  <style type="text/css">
*{stroke-linecap:butt;stroke-linejoin:round;}
  </style>
 </defs>
 <g id="figure_1">
  <g id="patch_1">
   <path d="M 0 345.6 
L 460.8 345.6 
L 460.8 0 
L 0 0 
z
" style="fill:#ffffff;"/>
  </g>
  <g id="axes_1">
   <g id="patch_2">
    <path d="M 57.6 307.584 
L 414.72 307.584 
L 414.72 41.472 
L 57.6 41.472 
z
" style="fill:#ffffff;"/>
   </g>
   <g id="matplotlib.axis_1">
    <g id="xtick_1">
     <g id="line2d_1">
      <defs>
       <path d="M 0 0 
L 0 3.5 
" id="me153680149" style="stroke:#000000;stroke-width:0.8;"/>
      </defs>
      <g>
       <use style="stroke:#000000;stroke-width:0.8;" x="58.301742" xlink:href="#me153680149" y="307.584"/>
      </g>
     </g>
     <g id="text_1">
      <!-- 0 -->
      <defs>
       <path d="M 31.78125 66.40625 
Q 24.171875 66.40625 20.328125 58.90625 
Q 16.5 51.421875 16.5 36.375 
Q 16.5 21.390625 20.328125 13.890625 
Q 24.171875 6.390625 31.78125 6.390625 
Q 39.453125 6.390625 43.28125 13.890625 
Q 47.125 21.390625 47.125 36.375 
Q 47.125 51.421875 43.28125 58.90625 
Q 39.453125 66.40625 31.78125 66.40625 
z
M 31.78125 74.21875 
Q 44.046875 74.21875 50.515625 64.515625 
Q 56.984375 54.828125 56.984375 36.375 
Q 56.984375 17.96875 50.515625 8.265625 
Q 44.046875 -1.421875 31.78125 -1.421875 
Q 19.53125 -1.421875 13.0625 8.265625 
Q 6.59375 17.96875 6.59375 36.375 
Q 6.59375 54.828125 13.0625 64.515625 
Q 19.53125 74.21875 31.78125 74.21875 
z
" id="DejaVuSans-48"/>
      </defs>
      <g transform="translate(55.120492 322.182437)scale(0.1 -0.1)">
       <use xlink:href="#DejaVuSans-48"/>
      </g>
     </g>
    </g>
    <g id="xtick_2">
     <g id="line2d_2">
      <g>
       <use style="stroke:#000000;stroke-width:0.8;" x="129.198648" xlink:href="#me153680149" y="307.584"/>
      </g>
     </g>
     <g id="text_2">
      <!-- 20 -->
      <defs>
       <path d="M 19.1875 8.296875 
L 53.609375 8.296875 
L 53.609375 0 
L 7.328125 0 
L 7.328125 8.296875 
Q 12.9375 14.109375 22.625 23.890625 
Q 32.328125 33.6875 34.8125 36.53125 
Q 39.546875 41.84375 41.421875 45.53125 
Q 43.3125 49.21875 43.3125 52.78125 
Q 43.3125 58.59375 39.234375 62.25 
Q 35.15625 65.921875 28.609375 65.921875 
Q 23.96875 65.921875 18.8125 64.3125 
Q 13.671875 62.703125 7.8125 59.421875 
L 7.8125 69.390625 
Q 13.765625 71.78125 18.9375 73 
Q 24.125 74.21875 28.421875 74.21875 
Q 39.75 74.21875 46.484375 68.546875 
Q 53.21875 62.890625 53.21875 53.421875 
Q 53.21875 48.921875 51.53125 44.890625 
Q 49.859375 40.875 45.40625 35.40625 
Q 44.1875 33.984375 37.640625 27.21875 
Q 31.109375 20.453125 19.1875 8.296875 
z
" id="DejaVuSans-50"/>
      </defs>
      <g transform="translate(122.836148 322.182437)scale(0.1 -0.1)">
       <use xlink:href="#DejaVuSans-50"/>
       <use x="63.623047" xlink:href="#DejaVuSans-48"/>
      </g>
     </g>
    </g>
    <g id="xtick_3">
     <g id="line2d_3">
      <g>
       <use style="stroke:#000000;stroke-width:0.8;" x="200.095554" xlink:href="#me153680149" y="307.584"/>
      </g>
     </g>
     <g id="text_3">
      <!-- 40 -->
      <defs>
       <path d="M 37.796875 64.3125 
L 12.890625 25.390625 
L 37.796875 25.390625 
z
M 35.203125 72.90625 
L 47.609375 72.90625 
L 47.609375 25.390625 
L 58.015625 25.390625 
L 58.015625 17.1875 
L 47.609375 17.1875 
L 47.609375 0 
L 37.796875 0 
L 37.796875 17.1875 
L 4.890625 17.1875 
L 4.890625 26.703125 
z
" id="DejaVuSans-52"/>
      </defs>
      <g transform="translate(193.733054 322.182437)scale(0.1 -0.1)">
       <use xlink:href="#DejaVuSans-52"/>
       <use x="63.623047" xlink:href="#DejaVuSans-48"/>
      </g>
     </g>
    </g>
    <g id="xtick_4">
     <g id="line2d_4">
      <g>
       <use style="stroke:#000000;stroke-width:0.8;" x="270.99246" xlink:href="#me153680149" y="307.584"/>
      </g>
     </g>
     <g id="text_4">
      <!-- 60 -->
      <defs>
       <path d="M 33.015625 40.375 
Q 26.375 40.375 22.484375 35.828125 
Q 18.609375 31.296875 18.609375 23.390625 
Q 18.609375 15.53125 22.484375 10.953125 
Q 26.375 6.390625 33.015625 6.390625 
Q 39.65625 6.390625 43.53125 10.953125 
Q 47.40625 15.53125 47.40625 23.390625 
Q 47.40625 31.296875 43.53125 35.828125 
Q 39.65625 40.375 33.015625 40.375 
z
M 52.59375 71.296875 
L 52.59375 62.3125 
Q 48.875 64.0625 45.09375 64.984375 
Q 41.3125 65.921875 37.59375 65.921875 
Q 27.828125 65.921875 22.671875 59.328125 
Q 17.53125 52.734375 16.796875 39.40625 
Q 19.671875 43.65625 24.015625 45.921875 
Q 28.375 48.1875 33.59375 48.1875 
Q 44.578125 48.1875 50.953125 41.515625 
Q 57.328125 34.859375 57.328125 23.390625 
Q 57.328125 12.15625 50.6875 5.359375 
Q 44.046875 -1.421875 33.015625 -1.421875 
Q 20.359375 -1.421875 13.671875 8.265625 
Q 6.984375 17.96875 6.984375 36.375 
Q 6.984375 53.65625 15.1875 63.9375 
Q 23.390625 74.21875 37.203125 74.21875 
Q 40.921875 74.21875 44.703125 73.484375 
Q 48.484375 72.75 52.59375 71.296875 
z
" id="DejaVuSans-54"/>
      </defs>
      <g transform="translate(264.62996 322.182437)scale(0.1 -0.1)">
       <use xlink:href="#DejaVuSans-54"/>
       <use x="63.623047" xlink:href="#DejaVuSans-48"/>
      </g>
     </g>
    </g>
    <g id="xtick_5">
     <g id="line2d_5">
      <g>
       <use style="stroke:#000000;stroke-width:0.8;" x="341.889367" xlink:href="#me153680149" y="307.584"/>
      </g>
     </g>
     <g id="text_5">
      <!-- 80 -->
      <defs>
       <path d="M 31.78125 34.625 
Q 24.75 34.625 20.71875 30.859375 
Q 16.703125 27.09375 16.703125 20.515625 
Q 16.703125 13.921875 20.71875 10.15625 
Q 24.75 6.390625 31.78125 6.390625 
Q 38.8125 6.390625 42.859375 10.171875 
Q 46.921875 13.96875 46.921875 20.515625 
Q 46.921875 27.09375 42.890625 30.859375 
Q 38.875 34.625 31.78125 34.625 
z
M 21.921875 38.8125 
Q 15.578125 40.375 12.03125 44.71875 
Q 8.5 49.078125 8.5 55.328125 
Q 8.5 64.0625 14.71875 69.140625 
Q 20.953125 74.21875 31.78125 74.21875 
Q 42.671875 74.21875 48.875 69.140625 
Q 55.078125 64.0625 55.078125 55.328125 
Q 55.078125 49.078125 51.53125 44.71875 
Q 48 40.375 41.703125 38.8125 
Q 48.828125 37.15625 52.796875 32.3125 
Q 56.78125 27.484375 56.78125 20.515625 
Q 56.78125 9.90625 50.3125 4.234375 
Q 43.84375 -1.421875 31.78125 -1.421875 
Q 19.734375 -1.421875 13.25 4.234375 
Q 6.78125 9.90625 6.78125 20.515625 
Q 6.78125 27.484375 10.78125 32.3125 
Q 14.796875 37.15625 21.921875 38.8125 
z
M 18.3125 54.390625 
Q 18.3125 48.734375 21.84375 45.5625 
Q 25.390625 42.390625 31.78125 42.390625 
Q 38.140625 42.390625 41.71875 45.5625 
Q 45.3125 48.734375 45.3125 54.390625 
Q 45.3125 60.0625 41.71875 63.234375 
Q 38.140625 66.40625 31.78125 66.40625 
Q 25.390625 66.40625 21.84375 63.234375 
Q 18.3125 60.0625 18.3125 54.390625 
z
" id="DejaVuSans-56"/>
      </defs>
      <g transform="translate(335.526867 322.182437)scale(0.1 -0.1)">
       <use xlink:href="#DejaVuSans-56"/>
       <use x="63.623047" xlink:href="#DejaVuSans-48"/>
      </g>
     </g>
    </g>
    <g id="xtick_6">
     <g id="line2d_6">
      <g>
       <use style="stroke:#000000;stroke-width:0.8;" x="412.786273" xlink:href="#me153680149" y="307.584"/>
      </g>
     </g>
     <g id="text_6">
      <!-- 100 -->
      <defs>
       <path d="M 12.40625 8.296875 
L 28.515625 8.296875 
L 28.515625 63.921875 
L 10.984375 60.40625 
L 10.984375 69.390625 
L 28.421875 72.90625 
L 38.28125 72.90625 
L 38.28125 8.296875 
L 54.390625 8.296875 
L 54.390625 0 
L 12.40625 0 
z
" id="DejaVuSans-49"/>
      </defs>
      <g transform="translate(403.242523 322.182437)scale(0.1 -0.1)">
       <use xlink:href="#DejaVuSans-49"/>
       <use x="63.623047" xlink:href="#DejaVuSans-48"/>
       <use x="127.246094" xlink:href="#DejaVuSans-48"/>
      </g>
     </g>
    </g>
    <g id="text_7">
     <!-- x values -->
     <defs>
      <path d="M 54.890625 54.6875 
L 35.109375 28.078125 
L 55.90625 0 
L 45.3125 0 
L 29.390625 21.484375 
L 13.484375 0 
L 2.875 0 
L 24.125 28.609375 
L 4.6875 54.6875 
L 15.28125 54.6875 
L 29.78125 35.203125 
L 44.28125 54.6875 
z
" id="DejaVuSans-120"/>
      <path id="DejaVuSans-32"/>
      <path d="M 2.984375 54.6875 
L 12.5 54.6875 
L 29.59375 8.796875 
L 46.6875 54.6875 
L 56.203125 54.6875 
L 35.6875 0 
L 23.484375 0 
z
" id="DejaVuSans-118"/>
      <path d="M 34.28125 27.484375 
Q 23.390625 27.484375 19.1875 25 
Q 14.984375 22.515625 14.984375 16.5 
Q 14.984375 11.71875 18.140625 8.90625 
Q 21.296875 6.109375 26.703125 6.109375 
Q 34.1875 6.109375 38.703125 11.40625 
Q 43.21875 16.703125 43.21875 25.484375 
L 43.21875 27.484375 
z
M 52.203125 31.203125 
L 52.203125 0 
L 43.21875 0 
L 43.21875 8.296875 
Q 40.140625 3.328125 35.546875 0.953125 
Q 30.953125 -1.421875 24.3125 -1.421875 
Q 15.921875 -1.421875 10.953125 3.296875 
Q 6 8.015625 6 15.921875 
Q 6 25.140625 12.171875 29.828125 
Q 18.359375 34.515625 30.609375 34.515625 
L 43.21875 34.515625 
L 43.21875 35.40625 
Q 43.21875 41.609375 39.140625 45 
Q 35.0625 48.390625 27.6875 48.390625 
Q 23 48.390625 18.546875 47.265625 
Q 14.109375 46.140625 10.015625 43.890625 
L 10.015625 52.203125 
Q 14.9375 54.109375 19.578125 55.046875 
Q 24.21875 56 28.609375 56 
Q 40.484375 56 46.34375 49.84375 
Q 52.203125 43.703125 52.203125 31.203125 
z
" id="DejaVuSans-97"/>
      <path d="M 9.421875 75.984375 
L 18.40625 75.984375 
L 18.40625 0 
L 9.421875 0 
z
" id="DejaVuSans-108"/>
      <path d="M 8.5 21.578125 
L 8.5 54.6875 
L 17.484375 54.6875 
L 17.484375 21.921875 
Q 17.484375 14.15625 20.5 10.265625 
Q 23.53125 6.390625 29.59375 6.390625 
Q 36.859375 6.390625 41.078125 11.03125 
Q 45.3125 15.671875 45.3125 23.6875 
L 45.3125 54.6875 
L 54.296875 54.6875 
L 54.296875 0 
L 45.3125 0 
L 45.3125 8.40625 
Q 42.046875 3.421875 37.71875 1 
Q 33.40625 -1.421875 27.6875 -1.421875 
Q 18.265625 -1.421875 13.375 4.4375 
Q 8.5 10.296875 8.5 21.578125 
z
M 31.109375 56 
z
" id="DejaVuSans-117"/>
      <path d="M 56.203125 29.59375 
L 56.203125 25.203125 
L 14.890625 25.203125 
Q 15.484375 15.921875 20.484375 11.0625 
Q 25.484375 6.203125 34.421875 6.203125 
Q 39.59375 6.203125 44.453125 7.46875 
Q 49.3125 8.734375 54.109375 11.28125 
L 54.109375 2.78125 
Q 49.265625 0.734375 44.1875 -0.34375 
Q 39.109375 -1.421875 33.890625 -1.421875 
Q 20.796875 -1.421875 13.15625 6.1875 
Q 5.515625 13.8125 5.515625 26.8125 
Q 5.515625 40.234375 12.765625 48.109375 
Q 20.015625 56 32.328125 56 
Q 43.359375 56 49.78125 48.890625 
Q 56.203125 41.796875 56.203125 29.59375 
z
M 47.21875 32.234375 
Q 47.125 39.59375 43.09375 43.984375 
Q 39.0625 48.390625 32.421875 48.390625 
Q 24.90625 48.390625 20.390625 44.140625 
Q 15.875 39.890625 15.1875 32.171875 
z
" id="DejaVuSans-101"/>
      <path d="M 44.28125 53.078125 
L 44.28125 44.578125 
Q 40.484375 46.53125 36.375 47.5 
Q 32.28125 48.484375 27.875 48.484375 
Q 21.1875 48.484375 17.84375 46.4375 
Q 14.5 44.390625 14.5 40.28125 
Q 14.5 37.15625 16.890625 35.375 
Q 19.28125 33.59375 26.515625 31.984375 
L 29.59375 31.296875 
Q 39.15625 29.25 43.1875 25.515625 
Q 47.21875 21.78125 47.21875 15.09375 
Q 47.21875 7.46875 41.1875 3.015625 
Q 35.15625 -1.421875 24.609375 -1.421875 
Q 20.21875 -1.421875 15.453125 -0.5625 
Q 10.6875 0.296875 5.421875 2 
L 5.421875 11.28125 
Q 10.40625 8.6875 15.234375 7.390625 
Q 20.0625 6.109375 24.8125 6.109375 
Q 31.15625 6.109375 34.5625 8.28125 
Q 37.984375 10.453125 37.984375 14.40625 
Q 37.984375 18.0625 35.515625 20.015625 
Q 33.0625 21.96875 24.703125 23.78125 
L 21.578125 24.515625 
Q 13.234375 26.265625 9.515625 29.90625 
Q 5.8125 33.546875 5.8125 39.890625 
Q 5.8125 47.609375 11.28125 51.796875 
Q 16.75 56 26.8125 56 
Q 31.78125 56 36.171875 55.265625 
Q 40.578125 54.546875 44.28125 53.078125 
z
" id="DejaVuSans-115"/>
     </defs>
     <g transform="translate(215.349063 335.860562)scale(0.1 -0.1)">
      <use xlink:href="#DejaVuSans-120"/>
      <use x="59.179688" xlink:href="#DejaVuSans-32"/>
      <use x="90.966797" xlink:href="#DejaVuSans-118"/>
      <use x="150.146484" xlink:href="#DejaVuSans-97"/>
      <use x="211.425781" xlink:href="#DejaVuSans-108"/>
      <use x="239.208984" xlink:href="#DejaVuSans-117"/>
      <use x="302.587891" xlink:href="#DejaVuSans-101"/>
      <use x="364.111328" xlink:href="#DejaVuSans-115"/>
     </g>
    </g>
   </g>
   <g id="matplotlib.axis_2">
    <g id="ytick_1">
     <g id="line2d_7">
      <defs>
       <path d="M 0 0 
L -3.5 0 
" id="m418b2fec1e" style="stroke:#000000;stroke-width:0.8;"/>
      </defs>
      <g>
       <use style="stroke:#000000;stroke-width:0.8;" x="57.6" xlink:href="#m418b2fec1e" y="290.414339"/>
      </g>
     </g>
     <g id="text_8">
      <!-- 0 -->
      <g transform="translate(44.2375 294.213558)scale(0.1 -0.1)">
       <use xlink:href="#DejaVuSans-48"/>
      </g>
     </g>
    </g>
    <g id="ytick_2">
     <g id="line2d_8">
      <g>
       <use style="stroke:#000000;stroke-width:0.8;" x="57.6" xlink:href="#m418b2fec1e" y="252.00563"/>
      </g>
     </g>
     <g id="text_9">
      <!-- 100 -->
      <g transform="translate(31.5125 255.804848)scale(0.1 -0.1)">
       <use xlink:href="#DejaVuSans-49"/>
       <use x="63.623047" xlink:href="#DejaVuSans-48"/>
       <use x="127.246094" xlink:href="#DejaVuSans-48"/>
      </g>
     </g>
    </g>
    <g id="ytick_3">
     <g id="line2d_9">
      <g>
       <use style="stroke:#000000;stroke-width:0.8;" x="57.6" xlink:href="#m418b2fec1e" y="213.59692"/>
      </g>
     </g>
     <g id="text_10">
      <!-- 200 -->
      <g transform="translate(31.5125 217.396139)scale(0.1 -0.1)">
       <use xlink:href="#DejaVuSans-50"/>
       <use x="63.623047" xlink:href="#DejaVuSans-48"/>
       <use x="127.246094" xlink:href="#DejaVuSans-48"/>
      </g>
     </g>
    </g>
    <g id="ytick_4">
     <g id="line2d_10">
      <g>
       <use style="stroke:#000000;stroke-width:0.8;" x="57.6" xlink:href="#m418b2fec1e" y="175.188211"/>
      </g>
     </g>
     <g id="text_11">
      <!-- 300 -->
      <defs>
       <path d="M 40.578125 39.3125 
Q 47.65625 37.796875 51.625 33 
Q 55.609375 28.21875 55.609375 21.1875 
Q 55.609375 10.40625 48.1875 4.484375 
Q 40.765625 -1.421875 27.09375 -1.421875 
Q 22.515625 -1.421875 17.65625 -0.515625 
Q 12.796875 0.390625 7.625 2.203125 
L 7.625 11.71875 
Q 11.71875 9.328125 16.59375 8.109375 
Q 21.484375 6.890625 26.8125 6.890625 
Q 36.078125 6.890625 40.9375 10.546875 
Q 45.796875 14.203125 45.796875 21.1875 
Q 45.796875 27.640625 41.28125 31.265625 
Q 36.765625 34.90625 28.71875 34.90625 
L 20.21875 34.90625 
L 20.21875 43.015625 
L 29.109375 43.015625 
Q 36.375 43.015625 40.234375 45.921875 
Q 44.09375 48.828125 44.09375 54.296875 
Q 44.09375 59.90625 40.109375 62.90625 
Q 36.140625 65.921875 28.71875 65.921875 
Q 24.65625 65.921875 20.015625 65.03125 
Q 15.375 64.15625 9.8125 62.3125 
L 9.8125 71.09375 
Q 15.4375 72.65625 20.34375 73.4375 
Q 25.25 74.21875 29.59375 74.21875 
Q 40.828125 74.21875 47.359375 69.109375 
Q 53.90625 64.015625 53.90625 55.328125 
Q 53.90625 49.265625 50.4375 45.09375 
Q 46.96875 40.921875 40.578125 39.3125 
z
" id="DejaVuSans-51"/>
      </defs>
      <g transform="translate(31.5125 178.987429)scale(0.1 -0.1)">
       <use xlink:href="#DejaVuSans-51"/>
       <use x="63.623047" xlink:href="#DejaVuSans-48"/>
       <use x="127.246094" xlink:href="#DejaVuSans-48"/>
      </g>
     </g>
    </g>
    <g id="ytick_5">
     <g id="line2d_11">
      <g>
       <use style="stroke:#000000;stroke-width:0.8;" x="57.6" xlink:href="#m418b2fec1e" y="136.779501"/>
      </g>
     </g>
     <g id="text_12">
      <!-- 400 -->
      <g transform="translate(31.5125 140.57872)scale(0.1 -0.1)">
       <use xlink:href="#DejaVuSans-52"/>
       <use x="63.623047" xlink:href="#DejaVuSans-48"/>
       <use x="127.246094" xlink:href="#DejaVuSans-48"/>
      </g>
     </g>
    </g>
    <g id="ytick_6">
     <g id="line2d_12">
      <g>
       <use style="stroke:#000000;stroke-width:0.8;" x="57.6" xlink:href="#m418b2fec1e" y="98.370791"/>
      </g>
     </g>
     <g id="text_13">
      <!-- 500 -->
      <defs>
       <path d="M 10.796875 72.90625 
L 49.515625 72.90625 
L 49.515625 64.59375 
L 19.828125 64.59375 
L 19.828125 46.734375 
Q 21.96875 47.46875 24.109375 47.828125 
Q 26.265625 48.1875 28.421875 48.1875 
Q 40.625 48.1875 47.75 41.5 
Q 54.890625 34.8125 54.890625 23.390625 
Q 54.890625 11.625 47.5625 5.09375 
Q 40.234375 -1.421875 26.90625 -1.421875 
Q 22.3125 -1.421875 17.546875 -0.640625 
Q 12.796875 0.140625 7.71875 1.703125 
L 7.71875 11.625 
Q 12.109375 9.234375 16.796875 8.0625 
Q 21.484375 6.890625 26.703125 6.890625 
Q 35.15625 6.890625 40.078125 11.328125 
Q 45.015625 15.765625 45.015625 23.390625 
Q 45.015625 31 40.078125 35.4375 
Q 35.15625 39.890625 26.703125 39.890625 
Q 22.75 39.890625 18.8125 39.015625 
Q 14.890625 38.140625 10.796875 36.28125 
z
" id="DejaVuSans-53"/>
      </defs>
      <g transform="translate(31.5125 102.17001)scale(0.1 -0.1)">
       <use xlink:href="#DejaVuSans-53"/>
       <use x="63.623047" xlink:href="#DejaVuSans-48"/>
       <use x="127.246094" xlink:href="#DejaVuSans-48"/>
      </g>
     </g>
    </g>
    <g id="ytick_7">
     <g id="line2d_13">
      <g>
       <use style="stroke:#000000;stroke-width:0.8;" x="57.6" xlink:href="#m418b2fec1e" y="59.962082"/>
      </g>
     </g>
     <g id="text_14">
      <!-- 600 -->
      <g transform="translate(31.5125 63.761301)scale(0.1 -0.1)">
       <use xlink:href="#DejaVuSans-54"/>
       <use x="63.623047" xlink:href="#DejaVuSans-48"/>
       <use x="127.246094" xlink:href="#DejaVuSans-48"/>
      </g>
     </g>
    </g>
    <g id="text_15">
     <!-- y values -->
     <defs>
      <path d="M 32.171875 -5.078125 
Q 28.375 -14.84375 24.75 -17.8125 
Q 21.140625 -20.796875 15.09375 -20.796875 
L 7.90625 -20.796875 
L 7.90625 -13.28125 
L 13.1875 -13.28125 
Q 16.890625 -13.28125 18.9375 -11.515625 
Q 21 -9.765625 23.484375 -3.21875 
L 25.09375 0.875 
L 2.984375 54.6875 
L 12.5 54.6875 
L 29.59375 11.921875 
L 46.6875 54.6875 
L 56.203125 54.6875 
z
" id="DejaVuSans-121"/>
     </defs>
     <g transform="translate(25.432812 195.338937)rotate(-90)scale(0.1 -0.1)">
      <use xlink:href="#DejaVuSans-121"/>
      <use x="59.179688" xlink:href="#DejaVuSans-32"/>
      <use x="90.966797" xlink:href="#DejaVuSans-118"/>
      <use x="150.146484" xlink:href="#DejaVuSans-97"/>
      <use x="211.425781" xlink:href="#DejaVuSans-108"/>
      <use x="239.208984" xlink:href="#DejaVuSans-117"/>
      <use x="302.587891" xlink:href="#DejaVuSans-101"/>
      <use x="364.111328" xlink:href="#DejaVuSans-115"/>
     </g>
    </g>
   </g>
   <g id="line2d_14">
    <defs>
     <path d="M 0 1 
C 0.265203 1 0.51958 0.894634 0.707107 0.707107 
C 0.894634 0.51958 1 0.265203 1 0 
C 1 -0.265203 0.894634 -0.51958 0.707107 -0.707107 
C 0.51958 -0.894634 0.265203 -1 0 -1 
C -0.265203 -1 -0.51958 -0.894634 -0.707107 -0.707107 
C -0.894634 -0.51958 -1 -0.265203 -1 0 
C -1 0.265203 -0.894634 0.51958 -0.707107 0.707107 
C -0.51958 0.894634 -0.265203 1 0 1 
z
" id="md7aa8a906e" style="stroke:#ff0000;"/>
    </defs>
    <g clip-path="url(#p07242b3d93)">
     <use style="fill:#ff0000;stroke:#ff0000;" x="73.832727" xlink:href="#md7aa8a906e" y="53.568"/>
     <use style="fill:#ff0000;stroke:#ff0000;" x="75.081399" xlink:href="#md7aa8a906e" y="98.649616"/>
     <use style="fill:#ff0000;stroke:#ff0000;" x="76.33007" xlink:href="#md7aa8a906e" y="121.903735"/>
     <use style="fill:#ff0000;stroke:#ff0000;" x="77.578741" xlink:href="#md7aa8a906e" y="121.939672"/>
     <use style="fill:#ff0000;stroke:#ff0000;" x="78.827413" xlink:href="#md7aa8a906e" y="125.67768"/>
     <use style="fill:#ff0000;stroke:#ff0000;" x="80.076084" xlink:href="#md7aa8a906e" y="113.69971"/>
     <use style="fill:#ff0000;stroke:#ff0000;" x="81.324755" xlink:href="#md7aa8a906e" y="143.839041"/>
     <use style="fill:#ff0000;stroke:#ff0000;" x="82.573427" xlink:href="#md7aa8a906e" y="116.383323"/>
     <use style="fill:#ff0000;stroke:#ff0000;" x="83.822098" xlink:href="#md7aa8a906e" y="114.862671"/>
     <use style="fill:#ff0000;stroke:#ff0000;" x="85.070769" xlink:href="#md7aa8a906e" y="118.113168"/>
     <use style="fill:#ff0000;stroke:#ff0000;" x="86.319441" xlink:href="#md7aa8a906e" y="103.583345"/>
     <use style="fill:#ff0000;stroke:#ff0000;" x="87.568112" xlink:href="#md7aa8a906e" y="118.119435"/>
     <use style="fill:#ff0000;stroke:#ff0000;" x="88.816783" xlink:href="#md7aa8a906e" y="122.574663"/>
     <use style="fill:#ff0000;stroke:#ff0000;" x="90.065455" xlink:href="#md7aa8a906e" y="98.857974"/>
     <use style="fill:#ff0000;stroke:#ff0000;" x="91.314126" xlink:href="#md7aa8a906e" y="101.744192"/>
     <use style="fill:#ff0000;stroke:#ff0000;" x="92.562797" xlink:href="#md7aa8a906e" y="113.841957"/>
     <use style="fill:#ff0000;stroke:#ff0000;" x="93.811469" xlink:href="#md7aa8a906e" y="107.752206"/>
     <use style="fill:#ff0000;stroke:#ff0000;" x="95.06014" xlink:href="#md7aa8a906e" y="125.956246"/>
     <use style="fill:#ff0000;stroke:#ff0000;" x="96.308811" xlink:href="#md7aa8a906e" y="136.989024"/>
     <use style="fill:#ff0000;stroke:#ff0000;" x="97.557483" xlink:href="#md7aa8a906e" y="95.907488"/>
     <use style="fill:#ff0000;stroke:#ff0000;" x="98.806154" xlink:href="#md7aa8a906e" y="122.363688"/>
     <use style="fill:#ff0000;stroke:#ff0000;" x="100.054825" xlink:href="#md7aa8a906e" y="146.618909"/>
     <use style="fill:#ff0000;stroke:#ff0000;" x="101.303497" xlink:href="#md7aa8a906e" y="146.264325"/>
     <use style="fill:#ff0000;stroke:#ff0000;" x="102.552168" xlink:href="#md7aa8a906e" y="162.637118"/>
     <use style="fill:#ff0000;stroke:#ff0000;" x="103.800839" xlink:href="#md7aa8a906e" y="157.280549"/>
     <use style="fill:#ff0000;stroke:#ff0000;" x="105.04951" xlink:href="#md7aa8a906e" y="156.566957"/>
     <use style="fill:#ff0000;stroke:#ff0000;" x="106.298182" xlink:href="#md7aa8a906e" y="165.988291"/>
     <use style="fill:#ff0000;stroke:#ff0000;" x="107.546853" xlink:href="#md7aa8a906e" y="165.584377"/>
     <use style="fill:#ff0000;stroke:#ff0000;" x="108.795524" xlink:href="#md7aa8a906e" y="163.403792"/>
     <use style="fill:#ff0000;stroke:#ff0000;" x="110.044196" xlink:href="#md7aa8a906e" y="166.178905"/>
     <use style="fill:#ff0000;stroke:#ff0000;" x="111.292867" xlink:href="#md7aa8a906e" y="162.08158"/>
     <use style="fill:#ff0000;stroke:#ff0000;" x="112.541538" xlink:href="#md7aa8a906e" y="179.328499"/>
     <use style="fill:#ff0000;stroke:#ff0000;" x="113.79021" xlink:href="#md7aa8a906e" y="174.798161"/>
     <use style="fill:#ff0000;stroke:#ff0000;" x="115.038881" xlink:href="#md7aa8a906e" y="159.076435"/>
     <use style="fill:#ff0000;stroke:#ff0000;" x="116.287552" xlink:href="#md7aa8a906e" y="155.853523"/>
     <use style="fill:#ff0000;stroke:#ff0000;" x="117.536224" xlink:href="#md7aa8a906e" y="159.641035"/>
     <use style="fill:#ff0000;stroke:#ff0000;" x="118.784895" xlink:href="#md7aa8a906e" y="137.393214"/>
     <use style="fill:#ff0000;stroke:#ff0000;" x="120.033566" xlink:href="#md7aa8a906e" y="180.921613"/>
     <use style="fill:#ff0000;stroke:#ff0000;" x="121.282238" xlink:href="#md7aa8a906e" y="146.944249"/>
     <use style="fill:#ff0000;stroke:#ff0000;" x="122.530909" xlink:href="#md7aa8a906e" y="148.400235"/>
     <use style="fill:#ff0000;stroke:#ff0000;" x="123.77958" xlink:href="#md7aa8a906e" y="173.510819"/>
     <use style="fill:#ff0000;stroke:#ff0000;" x="125.028252" xlink:href="#md7aa8a906e" y="196.170217"/>
     <use style="fill:#ff0000;stroke:#ff0000;" x="126.276923" xlink:href="#md7aa8a906e" y="180.350843"/>
     <use style="fill:#ff0000;stroke:#ff0000;" x="127.525594" xlink:href="#md7aa8a906e" y="169.021287"/>
     <use style="fill:#ff0000;stroke:#ff0000;" x="128.774266" xlink:href="#md7aa8a906e" y="187.266675"/>
     <use style="fill:#ff0000;stroke:#ff0000;" x="130.022937" xlink:href="#md7aa8a906e" y="198.717775"/>
     <use style="fill:#ff0000;stroke:#ff0000;" x="131.271608" xlink:href="#md7aa8a906e" y="162.606016"/>
     <use style="fill:#ff0000;stroke:#ff0000;" x="132.52028" xlink:href="#md7aa8a906e" y="162.740924"/>
     <use style="fill:#ff0000;stroke:#ff0000;" x="133.768951" xlink:href="#md7aa8a906e" y="205.446517"/>
     <use style="fill:#ff0000;stroke:#ff0000;" x="135.017622" xlink:href="#md7aa8a906e" y="199.46726"/>
     <use style="fill:#ff0000;stroke:#ff0000;" x="136.266294" xlink:href="#md7aa8a906e" y="210.794059"/>
     <use style="fill:#ff0000;stroke:#ff0000;" x="137.514965" xlink:href="#md7aa8a906e" y="203.208427"/>
     <use style="fill:#ff0000;stroke:#ff0000;" x="138.763636" xlink:href="#md7aa8a906e" y="198.373244"/>
     <use style="fill:#ff0000;stroke:#ff0000;" x="140.012308" xlink:href="#md7aa8a906e" y="210.520227"/>
     <use style="fill:#ff0000;stroke:#ff0000;" x="141.260979" xlink:href="#md7aa8a906e" y="200.106301"/>
     <use style="fill:#ff0000;stroke:#ff0000;" x="142.50965" xlink:href="#md7aa8a906e" y="187.792297"/>
     <use style="fill:#ff0000;stroke:#ff0000;" x="143.758322" xlink:href="#md7aa8a906e" y="201.186751"/>
     <use style="fill:#ff0000;stroke:#ff0000;" x="145.006993" xlink:href="#md7aa8a906e" y="203.866405"/>
     <use style="fill:#ff0000;stroke:#ff0000;" x="146.255664" xlink:href="#md7aa8a906e" y="182.280395"/>
     <use style="fill:#ff0000;stroke:#ff0000;" x="147.504336" xlink:href="#md7aa8a906e" y="184.42717"/>
     <use style="fill:#ff0000;stroke:#ff0000;" x="148.753007" xlink:href="#md7aa8a906e" y="214.272148"/>
     <use style="fill:#ff0000;stroke:#ff0000;" x="150.001678" xlink:href="#md7aa8a906e" y="186.800609"/>
     <use style="fill:#ff0000;stroke:#ff0000;" x="151.25035" xlink:href="#md7aa8a906e" y="197.7443"/>
     <use style="fill:#ff0000;stroke:#ff0000;" x="152.499021" xlink:href="#md7aa8a906e" y="198.268616"/>
     <use style="fill:#ff0000;stroke:#ff0000;" x="153.747692" xlink:href="#md7aa8a906e" y="195.051062"/>
     <use style="fill:#ff0000;stroke:#ff0000;" x="154.996364" xlink:href="#md7aa8a906e" y="199.121012"/>
     <use style="fill:#ff0000;stroke:#ff0000;" x="156.245035" xlink:href="#md7aa8a906e" y="199.523579"/>
     <use style="fill:#ff0000;stroke:#ff0000;" x="157.493706" xlink:href="#md7aa8a906e" y="220.244654"/>
     <use style="fill:#ff0000;stroke:#ff0000;" x="158.742378" xlink:href="#md7aa8a906e" y="200.41269"/>
     <use style="fill:#ff0000;stroke:#ff0000;" x="159.991049" xlink:href="#md7aa8a906e" y="200.819431"/>
     <use style="fill:#ff0000;stroke:#ff0000;" x="161.23972" xlink:href="#md7aa8a906e" y="202.343087"/>
     <use style="fill:#ff0000;stroke:#ff0000;" x="162.488392" xlink:href="#md7aa8a906e" y="205.154877"/>
     <use style="fill:#ff0000;stroke:#ff0000;" x="163.737063" xlink:href="#md7aa8a906e" y="223.193616"/>
     <use style="fill:#ff0000;stroke:#ff0000;" x="164.985734" xlink:href="#md7aa8a906e" y="221.529627"/>
     <use style="fill:#ff0000;stroke:#ff0000;" x="166.234406" xlink:href="#md7aa8a906e" y="230.02864"/>
     <use style="fill:#ff0000;stroke:#ff0000;" x="167.483077" xlink:href="#md7aa8a906e" y="228.485518"/>
     <use style="fill:#ff0000;stroke:#ff0000;" x="168.731748" xlink:href="#md7aa8a906e" y="217.631194"/>
     <use style="fill:#ff0000;stroke:#ff0000;" x="169.98042" xlink:href="#md7aa8a906e" y="229.262717"/>
     <use style="fill:#ff0000;stroke:#ff0000;" x="171.229091" xlink:href="#md7aa8a906e" y="205.431398"/>
     <use style="fill:#ff0000;stroke:#ff0000;" x="172.477762" xlink:href="#md7aa8a906e" y="230.081269"/>
     <use style="fill:#ff0000;stroke:#ff0000;" x="173.726434" xlink:href="#md7aa8a906e" y="227.375719"/>
     <use style="fill:#ff0000;stroke:#ff0000;" x="174.975105" xlink:href="#md7aa8a906e" y="230.574397"/>
     <use style="fill:#ff0000;stroke:#ff0000;" x="176.223776" xlink:href="#md7aa8a906e" y="216.085985"/>
     <use style="fill:#ff0000;stroke:#ff0000;" x="177.472448" xlink:href="#md7aa8a906e" y="239.658599"/>
     <use style="fill:#ff0000;stroke:#ff0000;" x="178.721119" xlink:href="#md7aa8a906e" y="226.177164"/>
     <use style="fill:#ff0000;stroke:#ff0000;" x="179.96979" xlink:href="#md7aa8a906e" y="241.844875"/>
     <use style="fill:#ff0000;stroke:#ff0000;" x="181.218462" xlink:href="#md7aa8a906e" y="238.491115"/>
     <use style="fill:#ff0000;stroke:#ff0000;" x="182.467133" xlink:href="#md7aa8a906e" y="226.430004"/>
     <use style="fill:#ff0000;stroke:#ff0000;" x="183.715804" xlink:href="#md7aa8a906e" y="225.789168"/>
     <use style="fill:#ff0000;stroke:#ff0000;" x="184.964476" xlink:href="#md7aa8a906e" y="241.077833"/>
     <use style="fill:#ff0000;stroke:#ff0000;" x="186.213147" xlink:href="#md7aa8a906e" y="239.8337"/>
     <use style="fill:#ff0000;stroke:#ff0000;" x="187.461818" xlink:href="#md7aa8a906e" y="240.871888"/>
     <use style="fill:#ff0000;stroke:#ff0000;" x="188.71049" xlink:href="#md7aa8a906e" y="235.671983"/>
     <use style="fill:#ff0000;stroke:#ff0000;" x="189.959161" xlink:href="#md7aa8a906e" y="256.657382"/>
     <use style="fill:#ff0000;stroke:#ff0000;" x="191.207832" xlink:href="#md7aa8a906e" y="238.53499"/>
     <use style="fill:#ff0000;stroke:#ff0000;" x="192.456503" xlink:href="#md7aa8a906e" y="250.675438"/>
     <use style="fill:#ff0000;stroke:#ff0000;" x="193.705175" xlink:href="#md7aa8a906e" y="238.728553"/>
     <use style="fill:#ff0000;stroke:#ff0000;" x="194.953846" xlink:href="#md7aa8a906e" y="238.156402"/>
     <use style="fill:#ff0000;stroke:#ff0000;" x="196.202517" xlink:href="#md7aa8a906e" y="249.319337"/>
     <use style="fill:#ff0000;stroke:#ff0000;" x="197.451189" xlink:href="#md7aa8a906e" y="238.821808"/>
     <use style="fill:#ff0000;stroke:#ff0000;" x="198.69986" xlink:href="#md7aa8a906e" y="237.415448"/>
     <use style="fill:#ff0000;stroke:#ff0000;" x="199.948531" xlink:href="#md7aa8a906e" y="254.354522"/>
     <use style="fill:#ff0000;stroke:#ff0000;" x="201.197203" xlink:href="#md7aa8a906e" y="258.783666"/>
     <use style="fill:#ff0000;stroke:#ff0000;" x="202.445874" xlink:href="#md7aa8a906e" y="247.118267"/>
     <use style="fill:#ff0000;stroke:#ff0000;" x="203.694545" xlink:href="#md7aa8a906e" y="260.0759"/>
     <use style="fill:#ff0000;stroke:#ff0000;" x="204.943217" xlink:href="#md7aa8a906e" y="249.930525"/>
     <use style="fill:#ff0000;stroke:#ff0000;" x="206.191888" xlink:href="#md7aa8a906e" y="253.578155"/>
     <use style="fill:#ff0000;stroke:#ff0000;" x="207.440559" xlink:href="#md7aa8a906e" y="250.148823"/>
     <use style="fill:#ff0000;stroke:#ff0000;" x="208.689231" xlink:href="#md7aa8a906e" y="254.315588"/>
     <use style="fill:#ff0000;stroke:#ff0000;" x="209.937902" xlink:href="#md7aa8a906e" y="259.2815"/>
     <use style="fill:#ff0000;stroke:#ff0000;" x="211.186573" xlink:href="#md7aa8a906e" y="254.243195"/>
     <use style="fill:#ff0000;stroke:#ff0000;" x="212.435245" xlink:href="#md7aa8a906e" y="247.729524"/>
     <use style="fill:#ff0000;stroke:#ff0000;" x="213.683916" xlink:href="#md7aa8a906e" y="246.870119"/>
     <use style="fill:#ff0000;stroke:#ff0000;" x="214.932587" xlink:href="#md7aa8a906e" y="269.182283"/>
     <use style="fill:#ff0000;stroke:#ff0000;" x="216.181259" xlink:href="#md7aa8a906e" y="257.415808"/>
     <use style="fill:#ff0000;stroke:#ff0000;" x="217.42993" xlink:href="#md7aa8a906e" y="258.976263"/>
     <use style="fill:#ff0000;stroke:#ff0000;" x="218.678601" xlink:href="#md7aa8a906e" y="256.365056"/>
     <use style="fill:#ff0000;stroke:#ff0000;" x="219.927273" xlink:href="#md7aa8a906e" y="264.02955"/>
     <use style="fill:#ff0000;stroke:#ff0000;" x="221.175944" xlink:href="#md7aa8a906e" y="263.604053"/>
     <use style="fill:#ff0000;stroke:#ff0000;" x="222.424615" xlink:href="#md7aa8a906e" y="270.034112"/>
     <use style="fill:#ff0000;stroke:#ff0000;" x="223.673287" xlink:href="#md7aa8a906e" y="265.966923"/>
     <use style="fill:#ff0000;stroke:#ff0000;" x="224.921958" xlink:href="#md7aa8a906e" y="270.492025"/>
     <use style="fill:#ff0000;stroke:#ff0000;" x="226.170629" xlink:href="#md7aa8a906e" y="261.918621"/>
     <use style="fill:#ff0000;stroke:#ff0000;" x="227.419301" xlink:href="#md7aa8a906e" y="273.837976"/>
     <use style="fill:#ff0000;stroke:#ff0000;" x="228.667972" xlink:href="#md7aa8a906e" y="267.347047"/>
     <use style="fill:#ff0000;stroke:#ff0000;" x="229.916643" xlink:href="#md7aa8a906e" y="259.576092"/>
     <use style="fill:#ff0000;stroke:#ff0000;" x="231.165315" xlink:href="#md7aa8a906e" y="268.088252"/>
     <use style="fill:#ff0000;stroke:#ff0000;" x="232.413986" xlink:href="#md7aa8a906e" y="268.704282"/>
     <use style="fill:#ff0000;stroke:#ff0000;" x="233.662657" xlink:href="#md7aa8a906e" y="267.273841"/>
     <use style="fill:#ff0000;stroke:#ff0000;" x="234.911329" xlink:href="#md7aa8a906e" y="268.148224"/>
     <use style="fill:#ff0000;stroke:#ff0000;" x="236.16" xlink:href="#md7aa8a906e" y="276.982029"/>
     <use style="fill:#ff0000;stroke:#ff0000;" x="237.408671" xlink:href="#md7aa8a906e" y="276.239213"/>
     <use style="fill:#ff0000;stroke:#ff0000;" x="238.657343" xlink:href="#md7aa8a906e" y="276.734062"/>
     <use style="fill:#ff0000;stroke:#ff0000;" x="239.906014" xlink:href="#md7aa8a906e" y="278.212387"/>
     <use style="fill:#ff0000;stroke:#ff0000;" x="241.154685" xlink:href="#md7aa8a906e" y="262.304328"/>
     <use style="fill:#ff0000;stroke:#ff0000;" x="242.403357" xlink:href="#md7aa8a906e" y="275.345544"/>
     <use style="fill:#ff0000;stroke:#ff0000;" x="243.652028" xlink:href="#md7aa8a906e" y="271.562156"/>
     <use style="fill:#ff0000;stroke:#ff0000;" x="244.900699" xlink:href="#md7aa8a906e" y="276.863753"/>
     <use style="fill:#ff0000;stroke:#ff0000;" x="246.149371" xlink:href="#md7aa8a906e" y="284.924547"/>
     <use style="fill:#ff0000;stroke:#ff0000;" x="247.398042" xlink:href="#md7aa8a906e" y="277.062989"/>
     <use style="fill:#ff0000;stroke:#ff0000;" x="248.646713" xlink:href="#md7aa8a906e" y="268.932116"/>
     <use style="fill:#ff0000;stroke:#ff0000;" x="249.895385" xlink:href="#md7aa8a906e" y="270.422209"/>
     <use style="fill:#ff0000;stroke:#ff0000;" x="251.144056" xlink:href="#md7aa8a906e" y="265.824092"/>
     <use style="fill:#ff0000;stroke:#ff0000;" x="252.392727" xlink:href="#md7aa8a906e" y="280.07441"/>
     <use style="fill:#ff0000;stroke:#ff0000;" x="253.641399" xlink:href="#md7aa8a906e" y="270.289268"/>
     <use style="fill:#ff0000;stroke:#ff0000;" x="254.89007" xlink:href="#md7aa8a906e" y="281.344528"/>
     <use style="fill:#ff0000;stroke:#ff0000;" x="256.138741" xlink:href="#md7aa8a906e" y="272.293996"/>
     <use style="fill:#ff0000;stroke:#ff0000;" x="257.387413" xlink:href="#md7aa8a906e" y="289.902866"/>
     <use style="fill:#ff0000;stroke:#ff0000;" x="258.636084" xlink:href="#md7aa8a906e" y="283.853226"/>
     <use style="fill:#ff0000;stroke:#ff0000;" x="259.884755" xlink:href="#md7aa8a906e" y="275.849039"/>
     <use style="fill:#ff0000;stroke:#ff0000;" x="261.133427" xlink:href="#md7aa8a906e" y="271.93328"/>
     <use style="fill:#ff0000;stroke:#ff0000;" x="262.382098" xlink:href="#md7aa8a906e" y="271.27785"/>
     <use style="fill:#ff0000;stroke:#ff0000;" x="263.630769" xlink:href="#md7aa8a906e" y="285.062479"/>
     <use style="fill:#ff0000;stroke:#ff0000;" x="264.879441" xlink:href="#md7aa8a906e" y="286.069746"/>
     <use style="fill:#ff0000;stroke:#ff0000;" x="266.128112" xlink:href="#md7aa8a906e" y="276.154859"/>
     <use style="fill:#ff0000;stroke:#ff0000;" x="267.376783" xlink:href="#md7aa8a906e" y="288.465886"/>
     <use style="fill:#ff0000;stroke:#ff0000;" x="268.625455" xlink:href="#md7aa8a906e" y="281.581591"/>
     <use style="fill:#ff0000;stroke:#ff0000;" x="269.874126" xlink:href="#md7aa8a906e" y="277.297621"/>
     <use style="fill:#ff0000;stroke:#ff0000;" x="271.122797" xlink:href="#md7aa8a906e" y="289.195666"/>
     <use style="fill:#ff0000;stroke:#ff0000;" x="272.371469" xlink:href="#md7aa8a906e" y="279.549396"/>
     <use style="fill:#ff0000;stroke:#ff0000;" x="273.62014" xlink:href="#md7aa8a906e" y="289.203678"/>
     <use style="fill:#ff0000;stroke:#ff0000;" x="274.868811" xlink:href="#md7aa8a906e" y="272.996561"/>
     <use style="fill:#ff0000;stroke:#ff0000;" x="276.117483" xlink:href="#md7aa8a906e" y="290.906783"/>
     <use style="fill:#ff0000;stroke:#ff0000;" x="277.366154" xlink:href="#md7aa8a906e" y="285.322099"/>
     <use style="fill:#ff0000;stroke:#ff0000;" x="278.614825" xlink:href="#md7aa8a906e" y="285.472532"/>
     <use style="fill:#ff0000;stroke:#ff0000;" x="279.863497" xlink:href="#md7aa8a906e" y="292.810144"/>
     <use style="fill:#ff0000;stroke:#ff0000;" x="281.112168" xlink:href="#md7aa8a906e" y="276.403977"/>
     <use style="fill:#ff0000;stroke:#ff0000;" x="282.360839" xlink:href="#md7aa8a906e" y="277.877054"/>
     <use style="fill:#ff0000;stroke:#ff0000;" x="283.60951" xlink:href="#md7aa8a906e" y="276.616696"/>
     <use style="fill:#ff0000;stroke:#ff0000;" x="284.858182" xlink:href="#md7aa8a906e" y="277.033506"/>
     <use style="fill:#ff0000;stroke:#ff0000;" x="286.106853" xlink:href="#md7aa8a906e" y="292.428827"/>
     <use style="fill:#ff0000;stroke:#ff0000;" x="287.355524" xlink:href="#md7aa8a906e" y="285.18023"/>
     <use style="fill:#ff0000;stroke:#ff0000;" x="288.604196" xlink:href="#md7aa8a906e" y="284.975334"/>
     <use style="fill:#ff0000;stroke:#ff0000;" x="289.852867" xlink:href="#md7aa8a906e" y="294.613015"/>
     <use style="fill:#ff0000;stroke:#ff0000;" x="291.101538" xlink:href="#md7aa8a906e" y="283.997215"/>
     <use style="fill:#ff0000;stroke:#ff0000;" x="292.35021" xlink:href="#md7aa8a906e" y="291.352306"/>
     <use style="fill:#ff0000;stroke:#ff0000;" x="293.598881" xlink:href="#md7aa8a906e" y="283.772113"/>
     <use style="fill:#ff0000;stroke:#ff0000;" x="294.847552" xlink:href="#md7aa8a906e" y="279.444722"/>
     <use style="fill:#ff0000;stroke:#ff0000;" x="296.096224" xlink:href="#md7aa8a906e" y="284.666726"/>
     <use style="fill:#ff0000;stroke:#ff0000;" x="297.344895" xlink:href="#md7aa8a906e" y="277.401811"/>
     <use style="fill:#ff0000;stroke:#ff0000;" x="298.593566" xlink:href="#md7aa8a906e" y="284.57266"/>
     <use style="fill:#ff0000;stroke:#ff0000;" x="299.842238" xlink:href="#md7aa8a906e" y="281.570795"/>
     <use style="fill:#ff0000;stroke:#ff0000;" x="301.090909" xlink:href="#md7aa8a906e" y="295.488"/>
     <use style="fill:#ff0000;stroke:#ff0000;" x="302.33958" xlink:href="#md7aa8a906e" y="284.908881"/>
     <use style="fill:#ff0000;stroke:#ff0000;" x="303.588252" xlink:href="#md7aa8a906e" y="286.940389"/>
     <use style="fill:#ff0000;stroke:#ff0000;" x="304.836923" xlink:href="#md7aa8a906e" y="276.731998"/>
     <use style="fill:#ff0000;stroke:#ff0000;" x="306.085594" xlink:href="#md7aa8a906e" y="291.37335"/>
     <use style="fill:#ff0000;stroke:#ff0000;" x="307.334266" xlink:href="#md7aa8a906e" y="285.901611"/>
     <use style="fill:#ff0000;stroke:#ff0000;" x="308.582937" xlink:href="#md7aa8a906e" y="281.162096"/>
     <use style="fill:#ff0000;stroke:#ff0000;" x="309.831608" xlink:href="#md7aa8a906e" y="285.882319"/>
     <use style="fill:#ff0000;stroke:#ff0000;" x="311.08028" xlink:href="#md7aa8a906e" y="286.67421"/>
     <use style="fill:#ff0000;stroke:#ff0000;" x="312.328951" xlink:href="#md7aa8a906e" y="281.74074"/>
     <use style="fill:#ff0000;stroke:#ff0000;" x="313.577622" xlink:href="#md7aa8a906e" y="289.679581"/>
     <use style="fill:#ff0000;stroke:#ff0000;" x="314.826294" xlink:href="#md7aa8a906e" y="291.995375"/>
     <use style="fill:#ff0000;stroke:#ff0000;" x="316.074965" xlink:href="#md7aa8a906e" y="281.140895"/>
     <use style="fill:#ff0000;stroke:#ff0000;" x="317.323636" xlink:href="#md7aa8a906e" y="277.241506"/>
     <use style="fill:#ff0000;stroke:#ff0000;" x="318.572308" xlink:href="#md7aa8a906e" y="285.988939"/>
     <use style="fill:#ff0000;stroke:#ff0000;" x="319.820979" xlink:href="#md7aa8a906e" y="284.2742"/>
     <use style="fill:#ff0000;stroke:#ff0000;" x="321.06965" xlink:href="#md7aa8a906e" y="279.130907"/>
     <use style="fill:#ff0000;stroke:#ff0000;" x="322.318322" xlink:href="#md7aa8a906e" y="278.77139"/>
     <use style="fill:#ff0000;stroke:#ff0000;" x="323.566993" xlink:href="#md7aa8a906e" y="293.438082"/>
     <use style="fill:#ff0000;stroke:#ff0000;" x="324.815664" xlink:href="#md7aa8a906e" y="285.479667"/>
     <use style="fill:#ff0000;stroke:#ff0000;" x="326.064336" xlink:href="#md7aa8a906e" y="286.500298"/>
     <use style="fill:#ff0000;stroke:#ff0000;" x="327.313007" xlink:href="#md7aa8a906e" y="291.122882"/>
     <use style="fill:#ff0000;stroke:#ff0000;" x="328.561678" xlink:href="#md7aa8a906e" y="292.413977"/>
     <use style="fill:#ff0000;stroke:#ff0000;" x="329.81035" xlink:href="#md7aa8a906e" y="290.991473"/>
     <use style="fill:#ff0000;stroke:#ff0000;" x="331.059021" xlink:href="#md7aa8a906e" y="275.852375"/>
     <use style="fill:#ff0000;stroke:#ff0000;" x="332.307692" xlink:href="#md7aa8a906e" y="276.560322"/>
     <use style="fill:#ff0000;stroke:#ff0000;" x="333.556364" xlink:href="#md7aa8a906e" y="287.789151"/>
     <use style="fill:#ff0000;stroke:#ff0000;" x="334.805035" xlink:href="#md7aa8a906e" y="288.692717"/>
     <use style="fill:#ff0000;stroke:#ff0000;" x="336.053706" xlink:href="#md7aa8a906e" y="294.453997"/>
     <use style="fill:#ff0000;stroke:#ff0000;" x="337.302378" xlink:href="#md7aa8a906e" y="275.781066"/>
     <use style="fill:#ff0000;stroke:#ff0000;" x="338.551049" xlink:href="#md7aa8a906e" y="288.614188"/>
     <use style="fill:#ff0000;stroke:#ff0000;" x="339.79972" xlink:href="#md7aa8a906e" y="284.292482"/>
     <use style="fill:#ff0000;stroke:#ff0000;" x="341.048392" xlink:href="#md7aa8a906e" y="285.067928"/>
     <use style="fill:#ff0000;stroke:#ff0000;" x="342.297063" xlink:href="#md7aa8a906e" y="274.735396"/>
     <use style="fill:#ff0000;stroke:#ff0000;" x="343.545734" xlink:href="#md7aa8a906e" y="281.501371"/>
     <use style="fill:#ff0000;stroke:#ff0000;" x="344.794406" xlink:href="#md7aa8a906e" y="284.833414"/>
     <use style="fill:#ff0000;stroke:#ff0000;" x="346.043077" xlink:href="#md7aa8a906e" y="279.219274"/>
     <use style="fill:#ff0000;stroke:#ff0000;" x="347.291748" xlink:href="#md7aa8a906e" y="273.788469"/>
     <use style="fill:#ff0000;stroke:#ff0000;" x="348.54042" xlink:href="#md7aa8a906e" y="286.493933"/>
     <use style="fill:#ff0000;stroke:#ff0000;" x="349.789091" xlink:href="#md7aa8a906e" y="274.157659"/>
     <use style="fill:#ff0000;stroke:#ff0000;" x="351.037762" xlink:href="#md7aa8a906e" y="271.189664"/>
     <use style="fill:#ff0000;stroke:#ff0000;" x="352.286434" xlink:href="#md7aa8a906e" y="283.270003"/>
     <use style="fill:#ff0000;stroke:#ff0000;" x="353.535105" xlink:href="#md7aa8a906e" y="282.784892"/>
     <use style="fill:#ff0000;stroke:#ff0000;" x="354.783776" xlink:href="#md7aa8a906e" y="275.26875"/>
     <use style="fill:#ff0000;stroke:#ff0000;" x="356.032448" xlink:href="#md7aa8a906e" y="273.573984"/>
     <use style="fill:#ff0000;stroke:#ff0000;" x="357.281119" xlink:href="#md7aa8a906e" y="287.167334"/>
     <use style="fill:#ff0000;stroke:#ff0000;" x="358.52979" xlink:href="#md7aa8a906e" y="270.630813"/>
     <use style="fill:#ff0000;stroke:#ff0000;" x="359.778462" xlink:href="#md7aa8a906e" y="287.633727"/>
     <use style="fill:#ff0000;stroke:#ff0000;" x="361.027133" xlink:href="#md7aa8a906e" y="272.963184"/>
     <use style="fill:#ff0000;stroke:#ff0000;" x="362.275804" xlink:href="#md7aa8a906e" y="275.200405"/>
     <use style="fill:#ff0000;stroke:#ff0000;" x="363.524476" xlink:href="#md7aa8a906e" y="275.421352"/>
     <use style="fill:#ff0000;stroke:#ff0000;" x="364.773147" xlink:href="#md7aa8a906e" y="279.456951"/>
     <use style="fill:#ff0000;stroke:#ff0000;" x="366.021818" xlink:href="#md7aa8a906e" y="270.155395"/>
     <use style="fill:#ff0000;stroke:#ff0000;" x="367.27049" xlink:href="#md7aa8a906e" y="268.938641"/>
     <use style="fill:#ff0000;stroke:#ff0000;" x="368.519161" xlink:href="#md7aa8a906e" y="278.761446"/>
     <use style="fill:#ff0000;stroke:#ff0000;" x="369.767832" xlink:href="#md7aa8a906e" y="266.945684"/>
     <use style="fill:#ff0000;stroke:#ff0000;" x="371.016503" xlink:href="#md7aa8a906e" y="279.016844"/>
     <use style="fill:#ff0000;stroke:#ff0000;" x="372.265175" xlink:href="#md7aa8a906e" y="281.63654"/>
     <use style="fill:#ff0000;stroke:#ff0000;" x="373.513846" xlink:href="#md7aa8a906e" y="271.207326"/>
     <use style="fill:#ff0000;stroke:#ff0000;" x="374.762517" xlink:href="#md7aa8a906e" y="264.588789"/>
     <use style="fill:#ff0000;stroke:#ff0000;" x="376.011189" xlink:href="#md7aa8a906e" y="275.669251"/>
     <use style="fill:#ff0000;stroke:#ff0000;" x="377.25986" xlink:href="#md7aa8a906e" y="267.984545"/>
     <use style="fill:#ff0000;stroke:#ff0000;" x="378.508531" xlink:href="#md7aa8a906e" y="274.038256"/>
     <use style="fill:#ff0000;stroke:#ff0000;" x="379.757203" xlink:href="#md7aa8a906e" y="267.206917"/>
     <use style="fill:#ff0000;stroke:#ff0000;" x="381.005874" xlink:href="#md7aa8a906e" y="260.103956"/>
     <use style="fill:#ff0000;stroke:#ff0000;" x="382.254545" xlink:href="#md7aa8a906e" y="255.87973"/>
     <use style="fill:#ff0000;stroke:#ff0000;" x="383.503217" xlink:href="#md7aa8a906e" y="260.024448"/>
     <use style="fill:#ff0000;stroke:#ff0000;" x="384.751888" xlink:href="#md7aa8a906e" y="268.994979"/>
     <use style="fill:#ff0000;stroke:#ff0000;" x="386.000559" xlink:href="#md7aa8a906e" y="270.479493"/>
     <use style="fill:#ff0000;stroke:#ff0000;" x="387.249231" xlink:href="#md7aa8a906e" y="261.148104"/>
     <use style="fill:#ff0000;stroke:#ff0000;" x="388.497902" xlink:href="#md7aa8a906e" y="248.511347"/>
     <use style="fill:#ff0000;stroke:#ff0000;" x="389.746573" xlink:href="#md7aa8a906e" y="257.476285"/>
     <use style="fill:#ff0000;stroke:#ff0000;" x="390.995245" xlink:href="#md7aa8a906e" y="274.58002"/>
     <use style="fill:#ff0000;stroke:#ff0000;" x="392.243916" xlink:href="#md7aa8a906e" y="269.788503"/>
     <use style="fill:#ff0000;stroke:#ff0000;" x="393.492587" xlink:href="#md7aa8a906e" y="264.484186"/>
     <use style="fill:#ff0000;stroke:#ff0000;" x="394.741259" xlink:href="#md7aa8a906e" y="266.375625"/>
     <use style="fill:#ff0000;stroke:#ff0000;" x="395.98993" xlink:href="#md7aa8a906e" y="249.751802"/>
     <use style="fill:#ff0000;stroke:#ff0000;" x="397.238601" xlink:href="#md7aa8a906e" y="253.39942"/>
     <use style="fill:#ff0000;stroke:#ff0000;" x="398.487273" xlink:href="#md7aa8a906e" y="263.963604"/>
    </g>
   </g>
   <g id="line2d_15">
    <path clip-path="url(#p07242b3d93)" d="M 73.832727 99.838116 
L 81.324755 111.73113 
L 88.816783 123.233322 
L 96.308811 134.344694 
L 103.800839 145.065244 
L 111.292867 155.394973 
L 118.784895 165.333881 
L 126.276923 174.881968 
L 133.768951 184.039235 
L 141.260979 192.805679 
L 148.753007 201.181303 
L 156.245035 209.166106 
L 162.488392 215.521565 
L 168.731748 221.605619 
L 174.975105 227.418271 
L 181.218462 232.959519 
L 187.461818 238.229363 
L 193.705175 243.227804 
L 199.948531 247.954841 
L 206.191888 252.410475 
L 212.435245 256.594705 
L 218.678601 260.507532 
L 224.921958 264.148955 
L 231.165315 267.518975 
L 237.408671 270.617591 
L 243.652028 273.444804 
L 249.895385 276.000613 
L 256.138741 278.285018 
L 262.382098 280.29802 
L 268.625455 282.039619 
L 274.868811 283.509814 
L 281.112168 284.708605 
L 287.355524 285.635993 
L 293.598881 286.291978 
L 299.842238 286.676558 
L 306.085594 286.789736 
L 312.328951 286.63151 
L 318.572308 286.20188 
L 324.815664 285.500847 
L 331.059021 284.52841 
L 337.302378 283.28457 
L 343.545734 281.769326 
L 349.789091 279.982679 
L 356.032448 277.924628 
L 362.275804 275.595173 
L 368.519161 272.994316 
L 374.762517 270.122054 
L 381.005874 266.978389 
L 387.249231 263.563321 
L 393.492587 259.876849 
L 398.487273 256.732261 
L 398.487273 256.732261 
" style="fill:none;stroke:#008000;stroke-linecap:square;stroke-width:1.5;"/>
   </g>
   <g id="patch_3">
    <path d="M 57.6 307.584 
L 57.6 41.472 
" style="fill:none;stroke:#000000;stroke-linecap:square;stroke-linejoin:miter;stroke-width:0.8;"/>
   </g>
   <g id="patch_4">
    <path d="M 414.72 307.584 
L 414.72 41.472 
" style="fill:none;stroke:#000000;stroke-linecap:square;stroke-linejoin:miter;stroke-width:0.8;"/>
   </g>
   <g id="patch_5">
    <path d="M 57.6 307.584 
L 414.72 307.584 
" style="fill:none;stroke:#000000;stroke-linecap:square;stroke-linejoin:miter;stroke-width:0.8;"/>
   </g>
   <g id="patch_6">
    <path d="M 57.6 41.472 
L 414.72 41.472 
" style="fill:none;stroke:#000000;stroke-linecap:square;stroke-linejoin:miter;stroke-width:0.8;"/>
   </g>
   <g id="text_16">
    <!-- FunctionFitting 25 -->
    <defs>
     <path d="M 9.8125 72.90625 
L 51.703125 72.90625 
L 51.703125 64.59375 
L 19.671875 64.59375 
L 19.671875 43.109375 
L 48.578125 43.109375 
L 48.578125 34.8125 
L 19.671875 34.8125 
L 19.671875 0 
L 9.8125 0 
z
" id="DejaVuSans-70"/>
     <path d="M 54.890625 33.015625 
L 54.890625 0 
L 45.90625 0 
L 45.90625 32.71875 
Q 45.90625 40.484375 42.875 44.328125 
Q 39.84375 48.1875 33.796875 48.1875 
Q 26.515625 48.1875 22.3125 43.546875 
Q 18.109375 38.921875 18.109375 30.90625 
L 18.109375 0 
L 9.078125 0 
L 9.078125 54.6875 
L 18.109375 54.6875 
L 18.109375 46.1875 
Q 21.34375 51.125 25.703125 53.5625 
Q 30.078125 56 35.796875 56 
Q 45.21875 56 50.046875 50.171875 
Q 54.890625 44.34375 54.890625 33.015625 
z
" id="DejaVuSans-110"/>
     <path d="M 48.78125 52.59375 
L 48.78125 44.1875 
Q 44.96875 46.296875 41.140625 47.34375 
Q 37.3125 48.390625 33.40625 48.390625 
Q 24.65625 48.390625 19.8125 42.84375 
Q 14.984375 37.3125 14.984375 27.296875 
Q 14.984375 17.28125 19.8125 11.734375 
Q 24.65625 6.203125 33.40625 6.203125 
Q 37.3125 6.203125 41.140625 7.25 
Q 44.96875 8.296875 48.78125 10.40625 
L 48.78125 2.09375 
Q 45.015625 0.34375 40.984375 -0.53125 
Q 36.96875 -1.421875 32.421875 -1.421875 
Q 20.0625 -1.421875 12.78125 6.34375 
Q 5.515625 14.109375 5.515625 27.296875 
Q 5.515625 40.671875 12.859375 48.328125 
Q 20.21875 56 33.015625 56 
Q 37.15625 56 41.109375 55.140625 
Q 45.0625 54.296875 48.78125 52.59375 
z
" id="DejaVuSans-99"/>
     <path d="M 18.3125 70.21875 
L 18.3125 54.6875 
L 36.8125 54.6875 
L 36.8125 47.703125 
L 18.3125 47.703125 
L 18.3125 18.015625 
Q 18.3125 11.328125 20.140625 9.421875 
Q 21.96875 7.515625 27.59375 7.515625 
L 36.8125 7.515625 
L 36.8125 0 
L 27.59375 0 
Q 17.1875 0 13.234375 3.875 
Q 9.28125 7.765625 9.28125 18.015625 
L 9.28125 47.703125 
L 2.6875 47.703125 
L 2.6875 54.6875 
L 9.28125 54.6875 
L 9.28125 70.21875 
z
" id="DejaVuSans-116"/>
     <path d="M 9.421875 54.6875 
L 18.40625 54.6875 
L 18.40625 0 
L 9.421875 0 
z
M 9.421875 75.984375 
L 18.40625 75.984375 
L 18.40625 64.59375 
L 9.421875 64.59375 
z
" id="DejaVuSans-105"/>
     <path d="M 30.609375 48.390625 
Q 23.390625 48.390625 19.1875 42.75 
Q 14.984375 37.109375 14.984375 27.296875 
Q 14.984375 17.484375 19.15625 11.84375 
Q 23.34375 6.203125 30.609375 6.203125 
Q 37.796875 6.203125 41.984375 11.859375 
Q 46.1875 17.53125 46.1875 27.296875 
Q 46.1875 37.015625 41.984375 42.703125 
Q 37.796875 48.390625 30.609375 48.390625 
z
M 30.609375 56 
Q 42.328125 56 49.015625 48.375 
Q 55.71875 40.765625 55.71875 27.296875 
Q 55.71875 13.875 49.015625 6.21875 
Q 42.328125 -1.421875 30.609375 -1.421875 
Q 18.84375 -1.421875 12.171875 6.21875 
Q 5.515625 13.875 5.515625 27.296875 
Q 5.515625 40.765625 12.171875 48.375 
Q 18.84375 56 30.609375 56 
z
" id="DejaVuSans-111"/>
     <path d="M 45.40625 27.984375 
Q 45.40625 37.75 41.375 43.109375 
Q 37.359375 48.484375 30.078125 48.484375 
Q 22.859375 48.484375 18.828125 43.109375 
Q 14.796875 37.75 14.796875 27.984375 
Q 14.796875 18.265625 18.828125 12.890625 
Q 22.859375 7.515625 30.078125 7.515625 
Q 37.359375 7.515625 41.375 12.890625 
Q 45.40625 18.265625 45.40625 27.984375 
z
M 54.390625 6.78125 
Q 54.390625 -7.171875 48.1875 -13.984375 
Q 42 -20.796875 29.203125 -20.796875 
Q 24.46875 -20.796875 20.265625 -20.09375 
Q 16.0625 -19.390625 12.109375 -17.921875 
L 12.109375 -9.1875 
Q 16.0625 -11.328125 19.921875 -12.34375 
Q 23.78125 -13.375 27.78125 -13.375 
Q 36.625 -13.375 41.015625 -8.765625 
Q 45.40625 -4.15625 45.40625 5.171875 
L 45.40625 9.625 
Q 42.625 4.78125 38.28125 2.390625 
Q 33.9375 0 27.875 0 
Q 17.828125 0 11.671875 7.65625 
Q 5.515625 15.328125 5.515625 27.984375 
Q 5.515625 40.671875 11.671875 48.328125 
Q 17.828125 56 27.875 56 
Q 33.9375 56 38.28125 53.609375 
Q 42.625 51.21875 45.40625 46.390625 
L 45.40625 54.6875 
L 54.390625 54.6875 
z
" id="DejaVuSans-103"/>
    </defs>
    <g transform="translate(181.680937 35.472)scale(0.12 -0.12)">
     <use xlink:href="#DejaVuSans-70"/>
     <use x="57.441406" xlink:href="#DejaVuSans-117"/>
     <use x="120.820312" xlink:href="#DejaVuSans-110"/>
     <use x="184.199219" xlink:href="#DejaVuSans-99"/>
     <use x="239.179688" xlink:href="#DejaVuSans-116"/>
     <use x="278.388672" xlink:href="#DejaVuSans-105"/>
     <use x="306.171875" xlink:href="#DejaVuSans-111"/>
     <use x="367.353516" xlink:href="#DejaVuSans-110"/>
     <use x="430.732422" xlink:href="#DejaVuSans-70"/>
     <use x="488.142578" xlink:href="#DejaVuSans-105"/>
     <use x="515.925781" xlink:href="#DejaVuSans-116"/>
     <use x="555.134766" xlink:href="#DejaVuSans-116"/>
     <use x="594.34375" xlink:href="#DejaVuSans-105"/>
     <use x="622.126953" xlink:href="#DejaVuSans-110"/>
     <use x="685.505859" xlink:href="#DejaVuSans-103"/>
     <use x="748.982422" xlink:href="#DejaVuSans-32"/>
     <use x="780.769531" xlink:href="#DejaVuSans-50"/>
     <use x="844.392578" xlink:href="#DejaVuSans-53"/>
    </g>
   </g>
   <g id="legend_1">
    <g id="patch_7">
     <path d="M 299.83875 78.82825 
L 407.72 78.82825 
Q 409.72 78.82825 409.72 76.82825 
L 409.72 48.472 
Q 409.72 46.472 407.72 46.472 
L 299.83875 46.472 
Q 297.83875 46.472 297.83875 48.472 
L 297.83875 76.82825 
Q 297.83875 78.82825 299.83875 78.82825 
z
" style="fill:#ffffff;opacity:0.8;stroke:#cccccc;stroke-linejoin:miter;"/>
    </g>
    <g id="line2d_16"/>
    <g id="line2d_17">
     <g>
      <use style="fill:#ff0000;stroke:#ff0000;" x="311.83875" xlink:href="#md7aa8a906e" y="54.570437"/>
     </g>
    </g>
    <g id="text_17">
     <!-- measured data -->
     <defs>
      <path d="M 52 44.1875 
Q 55.375 50.25 60.0625 53.125 
Q 64.75 56 71.09375 56 
Q 79.640625 56 84.28125 50.015625 
Q 88.921875 44.046875 88.921875 33.015625 
L 88.921875 0 
L 79.890625 0 
L 79.890625 32.71875 
Q 79.890625 40.578125 77.09375 44.375 
Q 74.3125 48.1875 68.609375 48.1875 
Q 61.625 48.1875 57.5625 43.546875 
Q 53.515625 38.921875 53.515625 30.90625 
L 53.515625 0 
L 44.484375 0 
L 44.484375 32.71875 
Q 44.484375 40.625 41.703125 44.40625 
Q 38.921875 48.1875 33.109375 48.1875 
Q 26.21875 48.1875 22.15625 43.53125 
Q 18.109375 38.875 18.109375 30.90625 
L 18.109375 0 
L 9.078125 0 
L 9.078125 54.6875 
L 18.109375 54.6875 
L 18.109375 46.1875 
Q 21.1875 51.21875 25.484375 53.609375 
Q 29.78125 56 35.6875 56 
Q 41.65625 56 45.828125 52.96875 
Q 50 49.953125 52 44.1875 
z
" id="DejaVuSans-109"/>
      <path d="M 41.109375 46.296875 
Q 39.59375 47.171875 37.8125 47.578125 
Q 36.03125 48 33.890625 48 
Q 26.265625 48 22.1875 43.046875 
Q 18.109375 38.09375 18.109375 28.8125 
L 18.109375 0 
L 9.078125 0 
L 9.078125 54.6875 
L 18.109375 54.6875 
L 18.109375 46.1875 
Q 20.953125 51.171875 25.484375 53.578125 
Q 30.03125 56 36.53125 56 
Q 37.453125 56 38.578125 55.875 
Q 39.703125 55.765625 41.0625 55.515625 
z
" id="DejaVuSans-114"/>
      <path d="M 45.40625 46.390625 
L 45.40625 75.984375 
L 54.390625 75.984375 
L 54.390625 0 
L 45.40625 0 
L 45.40625 8.203125 
Q 42.578125 3.328125 38.25 0.953125 
Q 33.9375 -1.421875 27.875 -1.421875 
Q 17.96875 -1.421875 11.734375 6.484375 
Q 5.515625 14.40625 5.515625 27.296875 
Q 5.515625 40.1875 11.734375 48.09375 
Q 17.96875 56 27.875 56 
Q 33.9375 56 38.25 53.625 
Q 42.578125 51.265625 45.40625 46.390625 
z
M 14.796875 27.296875 
Q 14.796875 17.390625 18.875 11.75 
Q 22.953125 6.109375 30.078125 6.109375 
Q 37.203125 6.109375 41.296875 11.75 
Q 45.40625 17.390625 45.40625 27.296875 
Q 45.40625 37.203125 41.296875 42.84375 
Q 37.203125 48.484375 30.078125 48.484375 
Q 22.953125 48.484375 18.875 42.84375 
Q 14.796875 37.203125 14.796875 27.296875 
z
" id="DejaVuSans-100"/>
     </defs>
     <g transform="translate(329.83875 58.070437)scale(0.1 -0.1)">
      <use xlink:href="#DejaVuSans-109"/>
      <use x="97.412109" xlink:href="#DejaVuSans-101"/>
      <use x="158.935547" xlink:href="#DejaVuSans-97"/>
      <use x="220.214844" xlink:href="#DejaVuSans-115"/>
      <use x="272.314453" xlink:href="#DejaVuSans-117"/>
      <use x="335.693359" xlink:href="#DejaVuSans-114"/>
      <use x="376.775391" xlink:href="#DejaVuSans-101"/>
      <use x="438.298828" xlink:href="#DejaVuSans-100"/>
      <use x="501.775391" xlink:href="#DejaVuSans-32"/>
      <use x="533.5625" xlink:href="#DejaVuSans-100"/>
      <use x="597.039062" xlink:href="#DejaVuSans-97"/>
      <use x="658.318359" xlink:href="#DejaVuSans-116"/>
      <use x="697.527344" xlink:href="#DejaVuSans-97"/>
     </g>
    </g>
    <g id="line2d_18">
     <path d="M 301.83875 69.248562 
L 321.83875 69.248562 
" style="fill:none;stroke:#008000;stroke-linecap:square;stroke-width:1.5;"/>
    </g>
    <g id="line2d_19"/>
    <g id="text_18">
     <!-- linear data -->
     <g transform="translate(329.83875 72.748562)scale(0.1 -0.1)">
      <use xlink:href="#DejaVuSans-108"/>
      <use x="27.783203" xlink:href="#DejaVuSans-105"/>
      <use x="55.566406" xlink:href="#DejaVuSans-110"/>
      <use x="118.945312" xlink:href="#DejaVuSans-101"/>
      <use x="180.46875" xlink:href="#DejaVuSans-97"/>
      <use x="241.748047" xlink:href="#DejaVuSans-114"/>
      <use x="282.861328" xlink:href="#DejaVuSans-32"/>
      <use x="314.648438" xlink:href="#DejaVuSans-100"/>
      <use x="378.125" xlink:href="#DejaVuSans-97"/>
      <use x="439.404297" xlink:href="#DejaVuSans-116"/>
      <use x="478.613281" xlink:href="#DejaVuSans-97"/>
     </g>
    </g>
   </g>
  </g>
 </g>
 <defs>
  <clipPath id="p07242b3d93">
   <rect height="266.112" width="357.12" x="57.6" y="41.472"/>
  </clipPath>
 </defs>
</svg>
