<?xml version="1.0" encoding="utf-8" standalone="no"?>
<!DOCTYPE svg PUBLIC "-//W3C//DTD SVG 1.1//EN"
  "http://www.w3.org/Graphics/SVG/1.1/DTD/svg11.dtd">
<!-- Created with matplotlib (https://matplotlib.org/) -->
<svg height="345.6pt" version="1.1" viewBox="0 0 460.8 345.6" width="460.8pt" xmlns="http://www.w3.org/2000/svg" xmlns:xlink="http://www.w3.org/1999/xlink">
 <defs>
  <style type="text/css">
*{stroke-linecap:butt;stroke-linejoin:round;}
  </style>
 </defs>
 <g id="figure_1">
  <g id="patch_1">
   <path d="M 0 345.6 
L 460.8 345.6 
L 460.8 0 
L 0 0 
z
" style="fill:#ffffff;"/>
  </g>
  <g id="axes_1">
   <g id="patch_2">
    <path d="M 57.6 307.584 
L 414.72 307.584 
L 414.72 41.472 
L 57.6 41.472 
z
" style="fill:#ffffff;"/>
   </g>
   <g id="matplotlib.axis_1">
    <g id="xtick_1">
     <g id="line2d_1">
      <defs>
       <path d="M 0 0 
L 0 3.5 
" id="mef7052940d" style="stroke:#000000;stroke-width:0.8;"/>
      </defs>
      <g>
       <use style="stroke:#000000;stroke-width:0.8;" x="68.567038" xlink:href="#mef7052940d" y="307.584"/>
      </g>
     </g>
     <g id="text_1">
      <!-- 0 -->
      <defs>
       <path d="M 31.78125 66.40625 
Q 24.171875 66.40625 20.328125 58.90625 
Q 16.5 51.421875 16.5 36.375 
Q 16.5 21.390625 20.328125 13.890625 
Q 24.171875 6.390625 31.78125 6.390625 
Q 39.453125 6.390625 43.28125 13.890625 
Q 47.125 21.390625 47.125 36.375 
Q 47.125 51.421875 43.28125 58.90625 
Q 39.453125 66.40625 31.78125 66.40625 
z
M 31.78125 74.21875 
Q 44.046875 74.21875 50.515625 64.515625 
Q 56.984375 54.828125 56.984375 36.375 
Q 56.984375 17.96875 50.515625 8.265625 
Q 44.046875 -1.421875 31.78125 -1.421875 
Q 19.53125 -1.421875 13.0625 8.265625 
Q 6.59375 17.96875 6.59375 36.375 
Q 6.59375 54.828125 13.0625 64.515625 
Q 19.53125 74.21875 31.78125 74.21875 
z
" id="DejaVuSans-48"/>
      </defs>
      <g transform="translate(65.385788 322.182437)scale(0.1 -0.1)">
       <use xlink:href="#DejaVuSans-48"/>
      </g>
     </g>
    </g>
    <g id="xtick_2">
     <g id="line2d_2">
      <g>
       <use style="stroke:#000000;stroke-width:0.8;" x="123.71483" xlink:href="#mef7052940d" y="307.584"/>
      </g>
     </g>
     <g id="text_2">
      <!-- 20 -->
      <defs>
       <path d="M 19.1875 8.296875 
L 53.609375 8.296875 
L 53.609375 0 
L 7.328125 0 
L 7.328125 8.296875 
Q 12.9375 14.109375 22.625 23.890625 
Q 32.328125 33.6875 34.8125 36.53125 
Q 39.546875 41.84375 41.421875 45.53125 
Q 43.3125 49.21875 43.3125 52.78125 
Q 43.3125 58.59375 39.234375 62.25 
Q 35.15625 65.921875 28.609375 65.921875 
Q 23.96875 65.921875 18.8125 64.3125 
Q 13.671875 62.703125 7.8125 59.421875 
L 7.8125 69.390625 
Q 13.765625 71.78125 18.9375 73 
Q 24.125 74.21875 28.421875 74.21875 
Q 39.75 74.21875 46.484375 68.546875 
Q 53.21875 62.890625 53.21875 53.421875 
Q 53.21875 48.921875 51.53125 44.890625 
Q 49.859375 40.875 45.40625 35.40625 
Q 44.1875 33.984375 37.640625 27.21875 
Q 31.109375 20.453125 19.1875 8.296875 
z
" id="DejaVuSans-50"/>
      </defs>
      <g transform="translate(117.35233 322.182437)scale(0.1 -0.1)">
       <use xlink:href="#DejaVuSans-50"/>
       <use x="63.623047" xlink:href="#DejaVuSans-48"/>
      </g>
     </g>
    </g>
    <g id="xtick_3">
     <g id="line2d_3">
      <g>
       <use style="stroke:#000000;stroke-width:0.8;" x="178.862621" xlink:href="#mef7052940d" y="307.584"/>
      </g>
     </g>
     <g id="text_3">
      <!-- 40 -->
      <defs>
       <path d="M 37.796875 64.3125 
L 12.890625 25.390625 
L 37.796875 25.390625 
z
M 35.203125 72.90625 
L 47.609375 72.90625 
L 47.609375 25.390625 
L 58.015625 25.390625 
L 58.015625 17.1875 
L 47.609375 17.1875 
L 47.609375 0 
L 37.796875 0 
L 37.796875 17.1875 
L 4.890625 17.1875 
L 4.890625 26.703125 
z
" id="DejaVuSans-52"/>
      </defs>
      <g transform="translate(172.500121 322.182437)scale(0.1 -0.1)">
       <use xlink:href="#DejaVuSans-52"/>
       <use x="63.623047" xlink:href="#DejaVuSans-48"/>
      </g>
     </g>
    </g>
    <g id="xtick_4">
     <g id="line2d_4">
      <g>
       <use style="stroke:#000000;stroke-width:0.8;" x="234.010413" xlink:href="#mef7052940d" y="307.584"/>
      </g>
     </g>
     <g id="text_4">
      <!-- 60 -->
      <defs>
       <path d="M 33.015625 40.375 
Q 26.375 40.375 22.484375 35.828125 
Q 18.609375 31.296875 18.609375 23.390625 
Q 18.609375 15.53125 22.484375 10.953125 
Q 26.375 6.390625 33.015625 6.390625 
Q 39.65625 6.390625 43.53125 10.953125 
Q 47.40625 15.53125 47.40625 23.390625 
Q 47.40625 31.296875 43.53125 35.828125 
Q 39.65625 40.375 33.015625 40.375 
z
M 52.59375 71.296875 
L 52.59375 62.3125 
Q 48.875 64.0625 45.09375 64.984375 
Q 41.3125 65.921875 37.59375 65.921875 
Q 27.828125 65.921875 22.671875 59.328125 
Q 17.53125 52.734375 16.796875 39.40625 
Q 19.671875 43.65625 24.015625 45.921875 
Q 28.375 48.1875 33.59375 48.1875 
Q 44.578125 48.1875 50.953125 41.515625 
Q 57.328125 34.859375 57.328125 23.390625 
Q 57.328125 12.15625 50.6875 5.359375 
Q 44.046875 -1.421875 33.015625 -1.421875 
Q 20.359375 -1.421875 13.671875 8.265625 
Q 6.984375 17.96875 6.984375 36.375 
Q 6.984375 53.65625 15.1875 63.9375 
Q 23.390625 74.21875 37.203125 74.21875 
Q 40.921875 74.21875 44.703125 73.484375 
Q 48.484375 72.75 52.59375 71.296875 
z
" id="DejaVuSans-54"/>
      </defs>
      <g transform="translate(227.647913 322.182437)scale(0.1 -0.1)">
       <use xlink:href="#DejaVuSans-54"/>
       <use x="63.623047" xlink:href="#DejaVuSans-48"/>
      </g>
     </g>
    </g>
    <g id="xtick_5">
     <g id="line2d_5">
      <g>
       <use style="stroke:#000000;stroke-width:0.8;" x="289.158204" xlink:href="#mef7052940d" y="307.584"/>
      </g>
     </g>
     <g id="text_5">
      <!-- 80 -->
      <defs>
       <path d="M 31.78125 34.625 
Q 24.75 34.625 20.71875 30.859375 
Q 16.703125 27.09375 16.703125 20.515625 
Q 16.703125 13.921875 20.71875 10.15625 
Q 24.75 6.390625 31.78125 6.390625 
Q 38.8125 6.390625 42.859375 10.171875 
Q 46.921875 13.96875 46.921875 20.515625 
Q 46.921875 27.09375 42.890625 30.859375 
Q 38.875 34.625 31.78125 34.625 
z
M 21.921875 38.8125 
Q 15.578125 40.375 12.03125 44.71875 
Q 8.5 49.078125 8.5 55.328125 
Q 8.5 64.0625 14.71875 69.140625 
Q 20.953125 74.21875 31.78125 74.21875 
Q 42.671875 74.21875 48.875 69.140625 
Q 55.078125 64.0625 55.078125 55.328125 
Q 55.078125 49.078125 51.53125 44.71875 
Q 48 40.375 41.703125 38.8125 
Q 48.828125 37.15625 52.796875 32.3125 
Q 56.78125 27.484375 56.78125 20.515625 
Q 56.78125 9.90625 50.3125 4.234375 
Q 43.84375 -1.421875 31.78125 -1.421875 
Q 19.734375 -1.421875 13.25 4.234375 
Q 6.78125 9.90625 6.78125 20.515625 
Q 6.78125 27.484375 10.78125 32.3125 
Q 14.796875 37.15625 21.921875 38.8125 
z
M 18.3125 54.390625 
Q 18.3125 48.734375 21.84375 45.5625 
Q 25.390625 42.390625 31.78125 42.390625 
Q 38.140625 42.390625 41.71875 45.5625 
Q 45.3125 48.734375 45.3125 54.390625 
Q 45.3125 60.0625 41.71875 63.234375 
Q 38.140625 66.40625 31.78125 66.40625 
Q 25.390625 66.40625 21.84375 63.234375 
Q 18.3125 60.0625 18.3125 54.390625 
z
" id="DejaVuSans-56"/>
      </defs>
      <g transform="translate(282.795704 322.182437)scale(0.1 -0.1)">
       <use xlink:href="#DejaVuSans-56"/>
       <use x="63.623047" xlink:href="#DejaVuSans-48"/>
      </g>
     </g>
    </g>
    <g id="xtick_6">
     <g id="line2d_6">
      <g>
       <use style="stroke:#000000;stroke-width:0.8;" x="344.305996" xlink:href="#mef7052940d" y="307.584"/>
      </g>
     </g>
     <g id="text_6">
      <!-- 100 -->
      <defs>
       <path d="M 12.40625 8.296875 
L 28.515625 8.296875 
L 28.515625 63.921875 
L 10.984375 60.40625 
L 10.984375 69.390625 
L 28.421875 72.90625 
L 38.28125 72.90625 
L 38.28125 8.296875 
L 54.390625 8.296875 
L 54.390625 0 
L 12.40625 0 
z
" id="DejaVuSans-49"/>
      </defs>
      <g transform="translate(334.762246 322.182437)scale(0.1 -0.1)">
       <use xlink:href="#DejaVuSans-49"/>
       <use x="63.623047" xlink:href="#DejaVuSans-48"/>
       <use x="127.246094" xlink:href="#DejaVuSans-48"/>
      </g>
     </g>
    </g>
    <g id="xtick_7">
     <g id="line2d_7">
      <g>
       <use style="stroke:#000000;stroke-width:0.8;" x="399.453788" xlink:href="#mef7052940d" y="307.584"/>
      </g>
     </g>
     <g id="text_7">
      <!-- 120 -->
      <g transform="translate(389.910038 322.182437)scale(0.1 -0.1)">
       <use xlink:href="#DejaVuSans-49"/>
       <use x="63.623047" xlink:href="#DejaVuSans-50"/>
       <use x="127.246094" xlink:href="#DejaVuSans-48"/>
      </g>
     </g>
    </g>
    <g id="text_8">
     <!-- x values -->
     <defs>
      <path d="M 54.890625 54.6875 
L 35.109375 28.078125 
L 55.90625 0 
L 45.3125 0 
L 29.390625 21.484375 
L 13.484375 0 
L 2.875 0 
L 24.125 28.609375 
L 4.6875 54.6875 
L 15.28125 54.6875 
L 29.78125 35.203125 
L 44.28125 54.6875 
z
" id="DejaVuSans-120"/>
      <path id="DejaVuSans-32"/>
      <path d="M 2.984375 54.6875 
L 12.5 54.6875 
L 29.59375 8.796875 
L 46.6875 54.6875 
L 56.203125 54.6875 
L 35.6875 0 
L 23.484375 0 
z
" id="DejaVuSans-118"/>
      <path d="M 34.28125 27.484375 
Q 23.390625 27.484375 19.1875 25 
Q 14.984375 22.515625 14.984375 16.5 
Q 14.984375 11.71875 18.140625 8.90625 
Q 21.296875 6.109375 26.703125 6.109375 
Q 34.1875 6.109375 38.703125 11.40625 
Q 43.21875 16.703125 43.21875 25.484375 
L 43.21875 27.484375 
z
M 52.203125 31.203125 
L 52.203125 0 
L 43.21875 0 
L 43.21875 8.296875 
Q 40.140625 3.328125 35.546875 0.953125 
Q 30.953125 -1.421875 24.3125 -1.421875 
Q 15.921875 -1.421875 10.953125 3.296875 
Q 6 8.015625 6 15.921875 
Q 6 25.140625 12.171875 29.828125 
Q 18.359375 34.515625 30.609375 34.515625 
L 43.21875 34.515625 
L 43.21875 35.40625 
Q 43.21875 41.609375 39.140625 45 
Q 35.0625 48.390625 27.6875 48.390625 
Q 23 48.390625 18.546875 47.265625 
Q 14.109375 46.140625 10.015625 43.890625 
L 10.015625 52.203125 
Q 14.9375 54.109375 19.578125 55.046875 
Q 24.21875 56 28.609375 56 
Q 40.484375 56 46.34375 49.84375 
Q 52.203125 43.703125 52.203125 31.203125 
z
" id="DejaVuSans-97"/>
      <path d="M 9.421875 75.984375 
L 18.40625 75.984375 
L 18.40625 0 
L 9.421875 0 
z
" id="DejaVuSans-108"/>
      <path d="M 8.5 21.578125 
L 8.5 54.6875 
L 17.484375 54.6875 
L 17.484375 21.921875 
Q 17.484375 14.15625 20.5 10.265625 
Q 23.53125 6.390625 29.59375 6.390625 
Q 36.859375 6.390625 41.078125 11.03125 
Q 45.3125 15.671875 45.3125 23.6875 
L 45.3125 54.6875 
L 54.296875 54.6875 
L 54.296875 0 
L 45.3125 0 
L 45.3125 8.40625 
Q 42.046875 3.421875 37.71875 1 
Q 33.40625 -1.421875 27.6875 -1.421875 
Q 18.265625 -1.421875 13.375 4.4375 
Q 8.5 10.296875 8.5 21.578125 
z
M 31.109375 56 
z
" id="DejaVuSans-117"/>
      <path d="M 56.203125 29.59375 
L 56.203125 25.203125 
L 14.890625 25.203125 
Q 15.484375 15.921875 20.484375 11.0625 
Q 25.484375 6.203125 34.421875 6.203125 
Q 39.59375 6.203125 44.453125 7.46875 
Q 49.3125 8.734375 54.109375 11.28125 
L 54.109375 2.78125 
Q 49.265625 0.734375 44.1875 -0.34375 
Q 39.109375 -1.421875 33.890625 -1.421875 
Q 20.796875 -1.421875 13.15625 6.1875 
Q 5.515625 13.8125 5.515625 26.8125 
Q 5.515625 40.234375 12.765625 48.109375 
Q 20.015625 56 32.328125 56 
Q 43.359375 56 49.78125 48.890625 
Q 56.203125 41.796875 56.203125 29.59375 
z
M 47.21875 32.234375 
Q 47.125 39.59375 43.09375 43.984375 
Q 39.0625 48.390625 32.421875 48.390625 
Q 24.90625 48.390625 20.390625 44.140625 
Q 15.875 39.890625 15.1875 32.171875 
z
" id="DejaVuSans-101"/>
      <path d="M 44.28125 53.078125 
L 44.28125 44.578125 
Q 40.484375 46.53125 36.375 47.5 
Q 32.28125 48.484375 27.875 48.484375 
Q 21.1875 48.484375 17.84375 46.4375 
Q 14.5 44.390625 14.5 40.28125 
Q 14.5 37.15625 16.890625 35.375 
Q 19.28125 33.59375 26.515625 31.984375 
L 29.59375 31.296875 
Q 39.15625 29.25 43.1875 25.515625 
Q 47.21875 21.78125 47.21875 15.09375 
Q 47.21875 7.46875 41.1875 3.015625 
Q 35.15625 -1.421875 24.609375 -1.421875 
Q 20.21875 -1.421875 15.453125 -0.5625 
Q 10.6875 0.296875 5.421875 2 
L 5.421875 11.28125 
Q 10.40625 8.6875 15.234375 7.390625 
Q 20.0625 6.109375 24.8125 6.109375 
Q 31.15625 6.109375 34.5625 8.28125 
Q 37.984375 10.453125 37.984375 14.40625 
Q 37.984375 18.0625 35.515625 20.015625 
Q 33.0625 21.96875 24.703125 23.78125 
L 21.578125 24.515625 
Q 13.234375 26.265625 9.515625 29.90625 
Q 5.8125 33.546875 5.8125 39.890625 
Q 5.8125 47.609375 11.28125 51.796875 
Q 16.75 56 26.8125 56 
Q 31.78125 56 36.171875 55.265625 
Q 40.578125 54.546875 44.28125 53.078125 
z
" id="DejaVuSans-115"/>
     </defs>
     <g transform="translate(215.349063 335.860562)scale(0.1 -0.1)">
      <use xlink:href="#DejaVuSans-120"/>
      <use x="59.179688" xlink:href="#DejaVuSans-32"/>
      <use x="90.966797" xlink:href="#DejaVuSans-118"/>
      <use x="150.146484" xlink:href="#DejaVuSans-97"/>
      <use x="211.425781" xlink:href="#DejaVuSans-108"/>
      <use x="239.208984" xlink:href="#DejaVuSans-117"/>
      <use x="302.587891" xlink:href="#DejaVuSans-101"/>
      <use x="364.111328" xlink:href="#DejaVuSans-115"/>
     </g>
    </g>
   </g>
   <g id="matplotlib.axis_2">
    <g id="ytick_1">
     <g id="line2d_8">
      <defs>
       <path d="M 0 0 
L -3.5 0 
" id="mda9fbe9fe0" style="stroke:#000000;stroke-width:0.8;"/>
      </defs>
      <g>
       <use style="stroke:#000000;stroke-width:0.8;" x="57.6" xlink:href="#mda9fbe9fe0" y="290.814094"/>
      </g>
     </g>
     <g id="text_9">
      <!-- 0 -->
      <g transform="translate(44.2375 294.613313)scale(0.1 -0.1)">
       <use xlink:href="#DejaVuSans-48"/>
      </g>
     </g>
    </g>
    <g id="ytick_2">
     <g id="line2d_9">
      <g>
       <use style="stroke:#000000;stroke-width:0.8;" x="57.6" xlink:href="#mda9fbe9fe0" y="253.152816"/>
      </g>
     </g>
     <g id="text_10">
      <!-- 100 -->
      <g transform="translate(31.5125 256.952034)scale(0.1 -0.1)">
       <use xlink:href="#DejaVuSans-49"/>
       <use x="63.623047" xlink:href="#DejaVuSans-48"/>
       <use x="127.246094" xlink:href="#DejaVuSans-48"/>
      </g>
     </g>
    </g>
    <g id="ytick_3">
     <g id="line2d_10">
      <g>
       <use style="stroke:#000000;stroke-width:0.8;" x="57.6" xlink:href="#mda9fbe9fe0" y="215.491537"/>
      </g>
     </g>
     <g id="text_11">
      <!-- 200 -->
      <g transform="translate(31.5125 219.290756)scale(0.1 -0.1)">
       <use xlink:href="#DejaVuSans-50"/>
       <use x="63.623047" xlink:href="#DejaVuSans-48"/>
       <use x="127.246094" xlink:href="#DejaVuSans-48"/>
      </g>
     </g>
    </g>
    <g id="ytick_4">
     <g id="line2d_11">
      <g>
       <use style="stroke:#000000;stroke-width:0.8;" x="57.6" xlink:href="#mda9fbe9fe0" y="177.830258"/>
      </g>
     </g>
     <g id="text_12">
      <!-- 300 -->
      <defs>
       <path d="M 40.578125 39.3125 
Q 47.65625 37.796875 51.625 33 
Q 55.609375 28.21875 55.609375 21.1875 
Q 55.609375 10.40625 48.1875 4.484375 
Q 40.765625 -1.421875 27.09375 -1.421875 
Q 22.515625 -1.421875 17.65625 -0.515625 
Q 12.796875 0.390625 7.625 2.203125 
L 7.625 11.71875 
Q 11.71875 9.328125 16.59375 8.109375 
Q 21.484375 6.890625 26.8125 6.890625 
Q 36.078125 6.890625 40.9375 10.546875 
Q 45.796875 14.203125 45.796875 21.1875 
Q 45.796875 27.640625 41.28125 31.265625 
Q 36.765625 34.90625 28.71875 34.90625 
L 20.21875 34.90625 
L 20.21875 43.015625 
L 29.109375 43.015625 
Q 36.375 43.015625 40.234375 45.921875 
Q 44.09375 48.828125 44.09375 54.296875 
Q 44.09375 59.90625 40.109375 62.90625 
Q 36.140625 65.921875 28.71875 65.921875 
Q 24.65625 65.921875 20.015625 65.03125 
Q 15.375 64.15625 9.8125 62.3125 
L 9.8125 71.09375 
Q 15.4375 72.65625 20.34375 73.4375 
Q 25.25 74.21875 29.59375 74.21875 
Q 40.828125 74.21875 47.359375 69.109375 
Q 53.90625 64.015625 53.90625 55.328125 
Q 53.90625 49.265625 50.4375 45.09375 
Q 46.96875 40.921875 40.578125 39.3125 
z
" id="DejaVuSans-51"/>
      </defs>
      <g transform="translate(31.5125 181.629477)scale(0.1 -0.1)">
       <use xlink:href="#DejaVuSans-51"/>
       <use x="63.623047" xlink:href="#DejaVuSans-48"/>
       <use x="127.246094" xlink:href="#DejaVuSans-48"/>
      </g>
     </g>
    </g>
    <g id="ytick_5">
     <g id="line2d_12">
      <g>
       <use style="stroke:#000000;stroke-width:0.8;" x="57.6" xlink:href="#mda9fbe9fe0" y="140.16898"/>
      </g>
     </g>
     <g id="text_13">
      <!-- 400 -->
      <g transform="translate(31.5125 143.968199)scale(0.1 -0.1)">
       <use xlink:href="#DejaVuSans-52"/>
       <use x="63.623047" xlink:href="#DejaVuSans-48"/>
       <use x="127.246094" xlink:href="#DejaVuSans-48"/>
      </g>
     </g>
    </g>
    <g id="ytick_6">
     <g id="line2d_13">
      <g>
       <use style="stroke:#000000;stroke-width:0.8;" x="57.6" xlink:href="#mda9fbe9fe0" y="102.507701"/>
      </g>
     </g>
     <g id="text_14">
      <!-- 500 -->
      <defs>
       <path d="M 10.796875 72.90625 
L 49.515625 72.90625 
L 49.515625 64.59375 
L 19.828125 64.59375 
L 19.828125 46.734375 
Q 21.96875 47.46875 24.109375 47.828125 
Q 26.265625 48.1875 28.421875 48.1875 
Q 40.625 48.1875 47.75 41.5 
Q 54.890625 34.8125 54.890625 23.390625 
Q 54.890625 11.625 47.5625 5.09375 
Q 40.234375 -1.421875 26.90625 -1.421875 
Q 22.3125 -1.421875 17.546875 -0.640625 
Q 12.796875 0.140625 7.71875 1.703125 
L 7.71875 11.625 
Q 12.109375 9.234375 16.796875 8.0625 
Q 21.484375 6.890625 26.703125 6.890625 
Q 35.15625 6.890625 40.078125 11.328125 
Q 45.015625 15.765625 45.015625 23.390625 
Q 45.015625 31 40.078125 35.4375 
Q 35.15625 39.890625 26.703125 39.890625 
Q 22.75 39.890625 18.8125 39.015625 
Q 14.890625 38.140625 10.796875 36.28125 
z
" id="DejaVuSans-53"/>
      </defs>
      <g transform="translate(31.5125 106.30692)scale(0.1 -0.1)">
       <use xlink:href="#DejaVuSans-53"/>
       <use x="63.623047" xlink:href="#DejaVuSans-48"/>
       <use x="127.246094" xlink:href="#DejaVuSans-48"/>
      </g>
     </g>
    </g>
    <g id="ytick_7">
     <g id="line2d_14">
      <g>
       <use style="stroke:#000000;stroke-width:0.8;" x="57.6" xlink:href="#mda9fbe9fe0" y="64.846423"/>
      </g>
     </g>
     <g id="text_15">
      <!-- 600 -->
      <g transform="translate(31.5125 68.645641)scale(0.1 -0.1)">
       <use xlink:href="#DejaVuSans-54"/>
       <use x="63.623047" xlink:href="#DejaVuSans-48"/>
       <use x="127.246094" xlink:href="#DejaVuSans-48"/>
      </g>
     </g>
    </g>
    <g id="text_16">
     <!-- y values -->
     <defs>
      <path d="M 32.171875 -5.078125 
Q 28.375 -14.84375 24.75 -17.8125 
Q 21.140625 -20.796875 15.09375 -20.796875 
L 7.90625 -20.796875 
L 7.90625 -13.28125 
L 13.1875 -13.28125 
Q 16.890625 -13.28125 18.9375 -11.515625 
Q 21 -9.765625 23.484375 -3.21875 
L 25.09375 0.875 
L 2.984375 54.6875 
L 12.5 54.6875 
L 29.59375 11.921875 
L 46.6875 54.6875 
L 56.203125 54.6875 
z
" id="DejaVuSans-121"/>
     </defs>
     <g transform="translate(25.432812 195.338937)rotate(-90)scale(0.1 -0.1)">
      <use xlink:href="#DejaVuSans-121"/>
      <use x="59.179688" xlink:href="#DejaVuSans-32"/>
      <use x="90.966797" xlink:href="#DejaVuSans-118"/>
      <use x="150.146484" xlink:href="#DejaVuSans-97"/>
      <use x="211.425781" xlink:href="#DejaVuSans-108"/>
      <use x="239.208984" xlink:href="#DejaVuSans-117"/>
      <use x="302.587891" xlink:href="#DejaVuSans-101"/>
      <use x="364.111328" xlink:href="#DejaVuSans-115"/>
     </g>
    </g>
   </g>
   <g id="line2d_15">
    <defs>
     <path d="M 0 1 
C 0.265203 1 0.51958 0.894634 0.707107 0.707107 
C 0.894634 0.51958 1 0.265203 1 0 
C 1 -0.265203 0.894634 -0.51958 0.707107 -0.707107 
C 0.51958 -0.894634 0.265203 -1 0 -1 
C -0.265203 -1 -0.51958 -0.894634 -0.707107 -0.707107 
C -0.894634 -0.51958 -1 -0.265203 -1 0 
C -1 0.265203 -0.894634 0.51958 -0.707107 0.707107 
C -0.51958 0.894634 -0.265203 1 0 1 
z
" id="mf99325bea4" style="stroke:#ff0000;"/>
    </defs>
    <g clip-path="url(#p5c776c0de2)">
     <use style="fill:#ff0000;stroke:#ff0000;" x="73.832727" xlink:href="#mf99325bea4" y="133.491217"/>
     <use style="fill:#ff0000;stroke:#ff0000;" x="74.92584" xlink:href="#mf99325bea4" y="53.568"/>
     <use style="fill:#ff0000;stroke:#ff0000;" x="76.018953" xlink:href="#mf99325bea4" y="53.937276"/>
     <use style="fill:#ff0000;stroke:#ff0000;" x="77.112066" xlink:href="#mf99325bea4" y="65.314563"/>
     <use style="fill:#ff0000;stroke:#ff0000;" x="78.205179" xlink:href="#mf99325bea4" y="135.79854"/>
     <use style="fill:#ff0000;stroke:#ff0000;" x="79.298292" xlink:href="#mf99325bea4" y="69.822407"/>
     <use style="fill:#ff0000;stroke:#ff0000;" x="80.391405" xlink:href="#mf99325bea4" y="83.449465"/>
     <use style="fill:#ff0000;stroke:#ff0000;" x="81.484518" xlink:href="#mf99325bea4" y="140.244066"/>
     <use style="fill:#ff0000;stroke:#ff0000;" x="82.577631" xlink:href="#mf99325bea4" y="125.774145"/>
     <use style="fill:#ff0000;stroke:#ff0000;" x="83.670744" xlink:href="#mf99325bea4" y="104.63028"/>
     <use style="fill:#ff0000;stroke:#ff0000;" x="84.763857" xlink:href="#mf99325bea4" y="81.25953"/>
     <use style="fill:#ff0000;stroke:#ff0000;" x="85.85697" xlink:href="#mf99325bea4" y="109.161725"/>
     <use style="fill:#ff0000;stroke:#ff0000;" x="86.950083" xlink:href="#mf99325bea4" y="123.424035"/>
     <use style="fill:#ff0000;stroke:#ff0000;" x="88.043196" xlink:href="#mf99325bea4" y="122.268653"/>
     <use style="fill:#ff0000;stroke:#ff0000;" x="89.136309" xlink:href="#mf99325bea4" y="138.785731"/>
     <use style="fill:#ff0000;stroke:#ff0000;" x="90.229421" xlink:href="#mf99325bea4" y="147.34343"/>
     <use style="fill:#ff0000;stroke:#ff0000;" x="91.322534" xlink:href="#mf99325bea4" y="142.076704"/>
     <use style="fill:#ff0000;stroke:#ff0000;" x="92.415647" xlink:href="#mf99325bea4" y="112.935663"/>
     <use style="fill:#ff0000;stroke:#ff0000;" x="93.50876" xlink:href="#mf99325bea4" y="99.587313"/>
     <use style="fill:#ff0000;stroke:#ff0000;" x="94.601873" xlink:href="#mf99325bea4" y="140.875319"/>
     <use style="fill:#ff0000;stroke:#ff0000;" x="95.694986" xlink:href="#mf99325bea4" y="129.801752"/>
     <use style="fill:#ff0000;stroke:#ff0000;" x="96.788099" xlink:href="#mf99325bea4" y="105.083781"/>
     <use style="fill:#ff0000;stroke:#ff0000;" x="97.881212" xlink:href="#mf99325bea4" y="110.670072"/>
     <use style="fill:#ff0000;stroke:#ff0000;" x="98.974325" xlink:href="#mf99325bea4" y="140.864083"/>
     <use style="fill:#ff0000;stroke:#ff0000;" x="100.067438" xlink:href="#mf99325bea4" y="149.796138"/>
     <use style="fill:#ff0000;stroke:#ff0000;" x="101.160551" xlink:href="#mf99325bea4" y="117.837187"/>
     <use style="fill:#ff0000;stroke:#ff0000;" x="102.253664" xlink:href="#mf99325bea4" y="176.276422"/>
     <use style="fill:#ff0000;stroke:#ff0000;" x="103.346777" xlink:href="#mf99325bea4" y="147.352839"/>
     <use style="fill:#ff0000;stroke:#ff0000;" x="104.43989" xlink:href="#mf99325bea4" y="148.337401"/>
     <use style="fill:#ff0000;stroke:#ff0000;" x="105.533003" xlink:href="#mf99325bea4" y="140.837398"/>
     <use style="fill:#ff0000;stroke:#ff0000;" x="106.626116" xlink:href="#mf99325bea4" y="147.328586"/>
     <use style="fill:#ff0000;stroke:#ff0000;" x="107.719229" xlink:href="#mf99325bea4" y="154.885693"/>
     <use style="fill:#ff0000;stroke:#ff0000;" x="108.812342" xlink:href="#mf99325bea4" y="148.490238"/>
     <use style="fill:#ff0000;stroke:#ff0000;" x="109.905455" xlink:href="#mf99325bea4" y="150.132752"/>
     <use style="fill:#ff0000;stroke:#ff0000;" x="110.998567" xlink:href="#mf99325bea4" y="187.1255"/>
     <use style="fill:#ff0000;stroke:#ff0000;" x="112.09168" xlink:href="#mf99325bea4" y="172.416298"/>
     <use style="fill:#ff0000;stroke:#ff0000;" x="113.184793" xlink:href="#mf99325bea4" y="134.598517"/>
     <use style="fill:#ff0000;stroke:#ff0000;" x="114.277906" xlink:href="#mf99325bea4" y="164.431577"/>
     <use style="fill:#ff0000;stroke:#ff0000;" x="115.371019" xlink:href="#mf99325bea4" y="153.624055"/>
     <use style="fill:#ff0000;stroke:#ff0000;" x="116.464132" xlink:href="#mf99325bea4" y="144.016431"/>
     <use style="fill:#ff0000;stroke:#ff0000;" x="117.557245" xlink:href="#mf99325bea4" y="164.421347"/>
     <use style="fill:#ff0000;stroke:#ff0000;" x="118.650358" xlink:href="#mf99325bea4" y="181.196946"/>
     <use style="fill:#ff0000;stroke:#ff0000;" x="119.743471" xlink:href="#mf99325bea4" y="185.125684"/>
     <use style="fill:#ff0000;stroke:#ff0000;" x="120.836584" xlink:href="#mf99325bea4" y="151.635333"/>
     <use style="fill:#ff0000;stroke:#ff0000;" x="121.929697" xlink:href="#mf99325bea4" y="177.265617"/>
     <use style="fill:#ff0000;stroke:#ff0000;" x="123.02281" xlink:href="#mf99325bea4" y="158.629224"/>
     <use style="fill:#ff0000;stroke:#ff0000;" x="124.115923" xlink:href="#mf99325bea4" y="182.626478"/>
     <use style="fill:#ff0000;stroke:#ff0000;" x="125.209036" xlink:href="#mf99325bea4" y="182.155557"/>
     <use style="fill:#ff0000;stroke:#ff0000;" x="126.302149" xlink:href="#mf99325bea4" y="186.820745"/>
     <use style="fill:#ff0000;stroke:#ff0000;" x="127.395262" xlink:href="#mf99325bea4" y="200.727811"/>
     <use style="fill:#ff0000;stroke:#ff0000;" x="128.488375" xlink:href="#mf99325bea4" y="196.407659"/>
     <use style="fill:#ff0000;stroke:#ff0000;" x="129.581488" xlink:href="#mf99325bea4" y="185.386026"/>
     <use style="fill:#ff0000;stroke:#ff0000;" x="130.674601" xlink:href="#mf99325bea4" y="204.5213"/>
     <use style="fill:#ff0000;stroke:#ff0000;" x="131.767713" xlink:href="#mf99325bea4" y="207.271587"/>
     <use style="fill:#ff0000;stroke:#ff0000;" x="132.860826" xlink:href="#mf99325bea4" y="194.998316"/>
     <use style="fill:#ff0000;stroke:#ff0000;" x="133.953939" xlink:href="#mf99325bea4" y="187.340408"/>
     <use style="fill:#ff0000;stroke:#ff0000;" x="135.047052" xlink:href="#mf99325bea4" y="197.899668"/>
     <use style="fill:#ff0000;stroke:#ff0000;" x="136.140165" xlink:href="#mf99325bea4" y="185.976287"/>
     <use style="fill:#ff0000;stroke:#ff0000;" x="137.233278" xlink:href="#mf99325bea4" y="204.404371"/>
     <use style="fill:#ff0000;stroke:#ff0000;" x="138.326391" xlink:href="#mf99325bea4" y="187.464264"/>
     <use style="fill:#ff0000;stroke:#ff0000;" x="139.419504" xlink:href="#mf99325bea4" y="206.850314"/>
     <use style="fill:#ff0000;stroke:#ff0000;" x="140.512617" xlink:href="#mf99325bea4" y="200.479936"/>
     <use style="fill:#ff0000;stroke:#ff0000;" x="141.60573" xlink:href="#mf99325bea4" y="212.536232"/>
     <use style="fill:#ff0000;stroke:#ff0000;" x="142.698843" xlink:href="#mf99325bea4" y="193.538097"/>
     <use style="fill:#ff0000;stroke:#ff0000;" x="143.791956" xlink:href="#mf99325bea4" y="206.071678"/>
     <use style="fill:#ff0000;stroke:#ff0000;" x="144.885069" xlink:href="#mf99325bea4" y="203.092828"/>
     <use style="fill:#ff0000;stroke:#ff0000;" x="145.978182" xlink:href="#mf99325bea4" y="203.578178"/>
     <use style="fill:#ff0000;stroke:#ff0000;" x="147.071295" xlink:href="#mf99325bea4" y="202.947328"/>
     <use style="fill:#ff0000;stroke:#ff0000;" x="148.164408" xlink:href="#mf99325bea4" y="203.238943"/>
     <use style="fill:#ff0000;stroke:#ff0000;" x="149.257521" xlink:href="#mf99325bea4" y="196.128966"/>
     <use style="fill:#ff0000;stroke:#ff0000;" x="150.350634" xlink:href="#mf99325bea4" y="211.005108"/>
     <use style="fill:#ff0000;stroke:#ff0000;" x="151.443747" xlink:href="#mf99325bea4" y="206.134345"/>
     <use style="fill:#ff0000;stroke:#ff0000;" x="152.53686" xlink:href="#mf99325bea4" y="204.628148"/>
     <use style="fill:#ff0000;stroke:#ff0000;" x="153.629972" xlink:href="#mf99325bea4" y="216.869353"/>
     <use style="fill:#ff0000;stroke:#ff0000;" x="154.723085" xlink:href="#mf99325bea4" y="229.493692"/>
     <use style="fill:#ff0000;stroke:#ff0000;" x="155.816198" xlink:href="#mf99325bea4" y="229.373895"/>
     <use style="fill:#ff0000;stroke:#ff0000;" x="156.909311" xlink:href="#mf99325bea4" y="220.438784"/>
     <use style="fill:#ff0000;stroke:#ff0000;" x="158.002424" xlink:href="#mf99325bea4" y="209.31973"/>
     <use style="fill:#ff0000;stroke:#ff0000;" x="159.095537" xlink:href="#mf99325bea4" y="232.837886"/>
     <use style="fill:#ff0000;stroke:#ff0000;" x="160.18865" xlink:href="#mf99325bea4" y="220.928707"/>
     <use style="fill:#ff0000;stroke:#ff0000;" x="161.281763" xlink:href="#mf99325bea4" y="222.329788"/>
     <use style="fill:#ff0000;stroke:#ff0000;" x="162.374876" xlink:href="#mf99325bea4" y="223.082769"/>
     <use style="fill:#ff0000;stroke:#ff0000;" x="163.467989" xlink:href="#mf99325bea4" y="235.742146"/>
     <use style="fill:#ff0000;stroke:#ff0000;" x="164.561102" xlink:href="#mf99325bea4" y="220.263138"/>
     <use style="fill:#ff0000;stroke:#ff0000;" x="165.654215" xlink:href="#mf99325bea4" y="226.753277"/>
     <use style="fill:#ff0000;stroke:#ff0000;" x="166.747328" xlink:href="#mf99325bea4" y="224.374477"/>
     <use style="fill:#ff0000;stroke:#ff0000;" x="167.840441" xlink:href="#mf99325bea4" y="236.545114"/>
     <use style="fill:#ff0000;stroke:#ff0000;" x="168.933554" xlink:href="#mf99325bea4" y="238.809938"/>
     <use style="fill:#ff0000;stroke:#ff0000;" x="170.026667" xlink:href="#mf99325bea4" y="226.05461"/>
     <use style="fill:#ff0000;stroke:#ff0000;" x="171.11978" xlink:href="#mf99325bea4" y="242.896025"/>
     <use style="fill:#ff0000;stroke:#ff0000;" x="172.212893" xlink:href="#mf99325bea4" y="244.985711"/>
     <use style="fill:#ff0000;stroke:#ff0000;" x="173.306006" xlink:href="#mf99325bea4" y="254.738542"/>
     <use style="fill:#ff0000;stroke:#ff0000;" x="174.399118" xlink:href="#mf99325bea4" y="255.841491"/>
     <use style="fill:#ff0000;stroke:#ff0000;" x="175.492231" xlink:href="#mf99325bea4" y="226.922536"/>
     <use style="fill:#ff0000;stroke:#ff0000;" x="176.585344" xlink:href="#mf99325bea4" y="244.621351"/>
     <use style="fill:#ff0000;stroke:#ff0000;" x="177.678457" xlink:href="#mf99325bea4" y="257.712256"/>
     <use style="fill:#ff0000;stroke:#ff0000;" x="178.77157" xlink:href="#mf99325bea4" y="241.216276"/>
     <use style="fill:#ff0000;stroke:#ff0000;" x="179.864683" xlink:href="#mf99325bea4" y="236.374387"/>
     <use style="fill:#ff0000;stroke:#ff0000;" x="180.957796" xlink:href="#mf99325bea4" y="256.839731"/>
     <use style="fill:#ff0000;stroke:#ff0000;" x="182.050909" xlink:href="#mf99325bea4" y="259.592239"/>
     <use style="fill:#ff0000;stroke:#ff0000;" x="183.144022" xlink:href="#mf99325bea4" y="254.134171"/>
     <use style="fill:#ff0000;stroke:#ff0000;" x="184.237135" xlink:href="#mf99325bea4" y="259.018794"/>
     <use style="fill:#ff0000;stroke:#ff0000;" x="185.330248" xlink:href="#mf99325bea4" y="253.740828"/>
     <use style="fill:#ff0000;stroke:#ff0000;" x="186.423361" xlink:href="#mf99325bea4" y="253.519721"/>
     <use style="fill:#ff0000;stroke:#ff0000;" x="187.516474" xlink:href="#mf99325bea4" y="250.342245"/>
     <use style="fill:#ff0000;stroke:#ff0000;" x="188.609587" xlink:href="#mf99325bea4" y="259.699204"/>
     <use style="fill:#ff0000;stroke:#ff0000;" x="189.7027" xlink:href="#mf99325bea4" y="255.155822"/>
     <use style="fill:#ff0000;stroke:#ff0000;" x="190.795813" xlink:href="#mf99325bea4" y="248.987934"/>
     <use style="fill:#ff0000;stroke:#ff0000;" x="191.888926" xlink:href="#mf99325bea4" y="246.605123"/>
     <use style="fill:#ff0000;stroke:#ff0000;" x="192.982039" xlink:href="#mf99325bea4" y="263.840058"/>
     <use style="fill:#ff0000;stroke:#ff0000;" x="194.075152" xlink:href="#mf99325bea4" y="251.577848"/>
     <use style="fill:#ff0000;stroke:#ff0000;" x="195.168264" xlink:href="#mf99325bea4" y="262.026419"/>
     <use style="fill:#ff0000;stroke:#ff0000;" x="196.261377" xlink:href="#mf99325bea4" y="258.817231"/>
     <use style="fill:#ff0000;stroke:#ff0000;" x="197.35449" xlink:href="#mf99325bea4" y="262.847925"/>
     <use style="fill:#ff0000;stroke:#ff0000;" x="198.447603" xlink:href="#mf99325bea4" y="257.307804"/>
     <use style="fill:#ff0000;stroke:#ff0000;" x="199.540716" xlink:href="#mf99325bea4" y="265.349242"/>
     <use style="fill:#ff0000;stroke:#ff0000;" x="200.633829" xlink:href="#mf99325bea4" y="266.197558"/>
     <use style="fill:#ff0000;stroke:#ff0000;" x="201.726942" xlink:href="#mf99325bea4" y="260.756994"/>
     <use style="fill:#ff0000;stroke:#ff0000;" x="202.820055" xlink:href="#mf99325bea4" y="254.182071"/>
     <use style="fill:#ff0000;stroke:#ff0000;" x="203.913168" xlink:href="#mf99325bea4" y="272.224187"/>
     <use style="fill:#ff0000;stroke:#ff0000;" x="205.006281" xlink:href="#mf99325bea4" y="271.143731"/>
     <use style="fill:#ff0000;stroke:#ff0000;" x="206.099394" xlink:href="#mf99325bea4" y="266.429137"/>
     <use style="fill:#ff0000;stroke:#ff0000;" x="207.192507" xlink:href="#mf99325bea4" y="263.699916"/>
     <use style="fill:#ff0000;stroke:#ff0000;" x="208.28562" xlink:href="#mf99325bea4" y="280.644995"/>
     <use style="fill:#ff0000;stroke:#ff0000;" x="209.378733" xlink:href="#mf99325bea4" y="272.130063"/>
     <use style="fill:#ff0000;stroke:#ff0000;" x="210.471846" xlink:href="#mf99325bea4" y="263.951863"/>
     <use style="fill:#ff0000;stroke:#ff0000;" x="211.564959" xlink:href="#mf99325bea4" y="273.001916"/>
     <use style="fill:#ff0000;stroke:#ff0000;" x="212.658072" xlink:href="#mf99325bea4" y="277.64892"/>
     <use style="fill:#ff0000;stroke:#ff0000;" x="213.751185" xlink:href="#mf99325bea4" y="276.522846"/>
     <use style="fill:#ff0000;stroke:#ff0000;" x="214.844298" xlink:href="#mf99325bea4" y="275.486404"/>
     <use style="fill:#ff0000;stroke:#ff0000;" x="215.93741" xlink:href="#mf99325bea4" y="265.479576"/>
     <use style="fill:#ff0000;stroke:#ff0000;" x="217.030523" xlink:href="#mf99325bea4" y="270.606814"/>
     <use style="fill:#ff0000;stroke:#ff0000;" x="218.123636" xlink:href="#mf99325bea4" y="273.436371"/>
     <use style="fill:#ff0000;stroke:#ff0000;" x="219.216749" xlink:href="#mf99325bea4" y="280.968473"/>
     <use style="fill:#ff0000;stroke:#ff0000;" x="220.309862" xlink:href="#mf99325bea4" y="271.768826"/>
     <use style="fill:#ff0000;stroke:#ff0000;" x="221.402975" xlink:href="#mf99325bea4" y="282.251137"/>
     <use style="fill:#ff0000;stroke:#ff0000;" x="222.496088" xlink:href="#mf99325bea4" y="284.891786"/>
     <use style="fill:#ff0000;stroke:#ff0000;" x="223.589201" xlink:href="#mf99325bea4" y="279.607946"/>
     <use style="fill:#ff0000;stroke:#ff0000;" x="224.682314" xlink:href="#mf99325bea4" y="278.60655"/>
     <use style="fill:#ff0000;stroke:#ff0000;" x="225.775427" xlink:href="#mf99325bea4" y="270.544274"/>
     <use style="fill:#ff0000;stroke:#ff0000;" x="226.86854" xlink:href="#mf99325bea4" y="282.572128"/>
     <use style="fill:#ff0000;stroke:#ff0000;" x="227.961653" xlink:href="#mf99325bea4" y="283.769699"/>
     <use style="fill:#ff0000;stroke:#ff0000;" x="229.054766" xlink:href="#mf99325bea4" y="282.521415"/>
     <use style="fill:#ff0000;stroke:#ff0000;" x="230.147879" xlink:href="#mf99325bea4" y="288.828164"/>
     <use style="fill:#ff0000;stroke:#ff0000;" x="231.240992" xlink:href="#mf99325bea4" y="285.319303"/>
     <use style="fill:#ff0000;stroke:#ff0000;" x="232.334105" xlink:href="#mf99325bea4" y="272.603397"/>
     <use style="fill:#ff0000;stroke:#ff0000;" x="233.427218" xlink:href="#mf99325bea4" y="292.05074"/>
     <use style="fill:#ff0000;stroke:#ff0000;" x="234.520331" xlink:href="#mf99325bea4" y="283.771239"/>
     <use style="fill:#ff0000;stroke:#ff0000;" x="235.613444" xlink:href="#mf99325bea4" y="290.854092"/>
     <use style="fill:#ff0000;stroke:#ff0000;" x="236.706556" xlink:href="#mf99325bea4" y="286.182408"/>
     <use style="fill:#ff0000;stroke:#ff0000;" x="237.799669" xlink:href="#mf99325bea4" y="277.060058"/>
     <use style="fill:#ff0000;stroke:#ff0000;" x="238.892782" xlink:href="#mf99325bea4" y="288.058639"/>
     <use style="fill:#ff0000;stroke:#ff0000;" x="239.985895" xlink:href="#mf99325bea4" y="291.01427"/>
     <use style="fill:#ff0000;stroke:#ff0000;" x="241.079008" xlink:href="#mf99325bea4" y="288.041286"/>
     <use style="fill:#ff0000;stroke:#ff0000;" x="242.172121" xlink:href="#mf99325bea4" y="283.682982"/>
     <use style="fill:#ff0000;stroke:#ff0000;" x="243.265234" xlink:href="#mf99325bea4" y="287.230223"/>
     <use style="fill:#ff0000;stroke:#ff0000;" x="244.358347" xlink:href="#mf99325bea4" y="279.167459"/>
     <use style="fill:#ff0000;stroke:#ff0000;" x="245.45146" xlink:href="#mf99325bea4" y="281.936228"/>
     <use style="fill:#ff0000;stroke:#ff0000;" x="246.544573" xlink:href="#mf99325bea4" y="289.83493"/>
     <use style="fill:#ff0000;stroke:#ff0000;" x="247.637686" xlink:href="#mf99325bea4" y="282.298699"/>
     <use style="fill:#ff0000;stroke:#ff0000;" x="248.730799" xlink:href="#mf99325bea4" y="284.629235"/>
     <use style="fill:#ff0000;stroke:#ff0000;" x="249.823912" xlink:href="#mf99325bea4" y="288.848077"/>
     <use style="fill:#ff0000;stroke:#ff0000;" x="250.917025" xlink:href="#mf99325bea4" y="280.530514"/>
     <use style="fill:#ff0000;stroke:#ff0000;" x="252.010138" xlink:href="#mf99325bea4" y="276.451144"/>
     <use style="fill:#ff0000;stroke:#ff0000;" x="253.103251" xlink:href="#mf99325bea4" y="281.018299"/>
     <use style="fill:#ff0000;stroke:#ff0000;" x="254.196364" xlink:href="#mf99325bea4" y="279.955484"/>
     <use style="fill:#ff0000;stroke:#ff0000;" x="255.289477" xlink:href="#mf99325bea4" y="282.472734"/>
     <use style="fill:#ff0000;stroke:#ff0000;" x="256.38259" xlink:href="#mf99325bea4" y="282.281859"/>
     <use style="fill:#ff0000;stroke:#ff0000;" x="257.475702" xlink:href="#mf99325bea4" y="290.51649"/>
     <use style="fill:#ff0000;stroke:#ff0000;" x="258.568815" xlink:href="#mf99325bea4" y="280.740872"/>
     <use style="fill:#ff0000;stroke:#ff0000;" x="259.661928" xlink:href="#mf99325bea4" y="290.30665"/>
     <use style="fill:#ff0000;stroke:#ff0000;" x="260.755041" xlink:href="#mf99325bea4" y="289.870516"/>
     <use style="fill:#ff0000;stroke:#ff0000;" x="261.848154" xlink:href="#mf99325bea4" y="293.06878"/>
     <use style="fill:#ff0000;stroke:#ff0000;" x="262.941267" xlink:href="#mf99325bea4" y="284.860678"/>
     <use style="fill:#ff0000;stroke:#ff0000;" x="264.03438" xlink:href="#mf99325bea4" y="289.149927"/>
     <use style="fill:#ff0000;stroke:#ff0000;" x="265.127493" xlink:href="#mf99325bea4" y="293.283653"/>
     <use style="fill:#ff0000;stroke:#ff0000;" x="266.220606" xlink:href="#mf99325bea4" y="290.107259"/>
     <use style="fill:#ff0000;stroke:#ff0000;" x="267.313719" xlink:href="#mf99325bea4" y="286.778228"/>
     <use style="fill:#ff0000;stroke:#ff0000;" x="268.406832" xlink:href="#mf99325bea4" y="291.318282"/>
     <use style="fill:#ff0000;stroke:#ff0000;" x="269.499945" xlink:href="#mf99325bea4" y="293.883544"/>
     <use style="fill:#ff0000;stroke:#ff0000;" x="270.593058" xlink:href="#mf99325bea4" y="279.882404"/>
     <use style="fill:#ff0000;stroke:#ff0000;" x="271.686171" xlink:href="#mf99325bea4" y="284.409503"/>
     <use style="fill:#ff0000;stroke:#ff0000;" x="272.779284" xlink:href="#mf99325bea4" y="284.874531"/>
     <use style="fill:#ff0000;stroke:#ff0000;" x="273.872397" xlink:href="#mf99325bea4" y="279.082517"/>
     <use style="fill:#ff0000;stroke:#ff0000;" x="274.96551" xlink:href="#mf99325bea4" y="286.197676"/>
     <use style="fill:#ff0000;stroke:#ff0000;" x="276.058623" xlink:href="#mf99325bea4" y="285.88198"/>
     <use style="fill:#ff0000;stroke:#ff0000;" x="277.151736" xlink:href="#mf99325bea4" y="282.062047"/>
     <use style="fill:#ff0000;stroke:#ff0000;" x="278.244848" xlink:href="#mf99325bea4" y="281.563792"/>
     <use style="fill:#ff0000;stroke:#ff0000;" x="279.337961" xlink:href="#mf99325bea4" y="290.306789"/>
     <use style="fill:#ff0000;stroke:#ff0000;" x="280.431074" xlink:href="#mf99325bea4" y="295.488"/>
     <use style="fill:#ff0000;stroke:#ff0000;" x="281.524187" xlink:href="#mf99325bea4" y="292.888145"/>
     <use style="fill:#ff0000;stroke:#ff0000;" x="282.6173" xlink:href="#mf99325bea4" y="287.458919"/>
     <use style="fill:#ff0000;stroke:#ff0000;" x="283.710413" xlink:href="#mf99325bea4" y="276.436304"/>
     <use style="fill:#ff0000;stroke:#ff0000;" x="284.803526" xlink:href="#mf99325bea4" y="283.193176"/>
     <use style="fill:#ff0000;stroke:#ff0000;" x="285.896639" xlink:href="#mf99325bea4" y="286.067298"/>
     <use style="fill:#ff0000;stroke:#ff0000;" x="286.989752" xlink:href="#mf99325bea4" y="292.597093"/>
     <use style="fill:#ff0000;stroke:#ff0000;" x="288.082865" xlink:href="#mf99325bea4" y="280.582384"/>
     <use style="fill:#ff0000;stroke:#ff0000;" x="289.175978" xlink:href="#mf99325bea4" y="280.950178"/>
     <use style="fill:#ff0000;stroke:#ff0000;" x="290.269091" xlink:href="#mf99325bea4" y="281.399681"/>
     <use style="fill:#ff0000;stroke:#ff0000;" x="291.362204" xlink:href="#mf99325bea4" y="274.989485"/>
     <use style="fill:#ff0000;stroke:#ff0000;" x="292.455317" xlink:href="#mf99325bea4" y="289.043902"/>
     <use style="fill:#ff0000;stroke:#ff0000;" x="293.54843" xlink:href="#mf99325bea4" y="278.289101"/>
     <use style="fill:#ff0000;stroke:#ff0000;" x="294.641543" xlink:href="#mf99325bea4" y="277.451028"/>
     <use style="fill:#ff0000;stroke:#ff0000;" x="295.734656" xlink:href="#mf99325bea4" y="280.621267"/>
     <use style="fill:#ff0000;stroke:#ff0000;" x="296.827769" xlink:href="#mf99325bea4" y="284.566347"/>
     <use style="fill:#ff0000;stroke:#ff0000;" x="297.920882" xlink:href="#mf99325bea4" y="290.844433"/>
     <use style="fill:#ff0000;stroke:#ff0000;" x="299.013994" xlink:href="#mf99325bea4" y="273.265305"/>
     <use style="fill:#ff0000;stroke:#ff0000;" x="300.107107" xlink:href="#mf99325bea4" y="286.208545"/>
     <use style="fill:#ff0000;stroke:#ff0000;" x="301.20022" xlink:href="#mf99325bea4" y="278.21124"/>
     <use style="fill:#ff0000;stroke:#ff0000;" x="302.293333" xlink:href="#mf99325bea4" y="275.000582"/>
     <use style="fill:#ff0000;stroke:#ff0000;" x="303.386446" xlink:href="#mf99325bea4" y="278.445871"/>
     <use style="fill:#ff0000;stroke:#ff0000;" x="304.479559" xlink:href="#mf99325bea4" y="278.579376"/>
     <use style="fill:#ff0000;stroke:#ff0000;" x="305.572672" xlink:href="#mf99325bea4" y="277.484824"/>
     <use style="fill:#ff0000;stroke:#ff0000;" x="306.665785" xlink:href="#mf99325bea4" y="276.958869"/>
     <use style="fill:#ff0000;stroke:#ff0000;" x="307.758898" xlink:href="#mf99325bea4" y="270.434181"/>
     <use style="fill:#ff0000;stroke:#ff0000;" x="308.852011" xlink:href="#mf99325bea4" y="281.018382"/>
     <use style="fill:#ff0000;stroke:#ff0000;" x="309.945124" xlink:href="#mf99325bea4" y="270.174997"/>
     <use style="fill:#ff0000;stroke:#ff0000;" x="311.038237" xlink:href="#mf99325bea4" y="280.313838"/>
     <use style="fill:#ff0000;stroke:#ff0000;" x="312.13135" xlink:href="#mf99325bea4" y="281.17095"/>
     <use style="fill:#ff0000;stroke:#ff0000;" x="313.224463" xlink:href="#mf99325bea4" y="282.257888"/>
     <use style="fill:#ff0000;stroke:#ff0000;" x="314.317576" xlink:href="#mf99325bea4" y="275.596016"/>
     <use style="fill:#ff0000;stroke:#ff0000;" x="315.410689" xlink:href="#mf99325bea4" y="282.011176"/>
     <use style="fill:#ff0000;stroke:#ff0000;" x="316.503802" xlink:href="#mf99325bea4" y="272.234714"/>
     <use style="fill:#ff0000;stroke:#ff0000;" x="317.596915" xlink:href="#mf99325bea4" y="277.170069"/>
     <use style="fill:#ff0000;stroke:#ff0000;" x="318.690028" xlink:href="#mf99325bea4" y="273.602821"/>
     <use style="fill:#ff0000;stroke:#ff0000;" x="319.78314" xlink:href="#mf99325bea4" y="263.09365"/>
     <use style="fill:#ff0000;stroke:#ff0000;" x="320.876253" xlink:href="#mf99325bea4" y="261.305"/>
     <use style="fill:#ff0000;stroke:#ff0000;" x="321.969366" xlink:href="#mf99325bea4" y="274.596191"/>
     <use style="fill:#ff0000;stroke:#ff0000;" x="323.062479" xlink:href="#mf99325bea4" y="271.909704"/>
     <use style="fill:#ff0000;stroke:#ff0000;" x="324.155592" xlink:href="#mf99325bea4" y="262.916957"/>
     <use style="fill:#ff0000;stroke:#ff0000;" x="325.248705" xlink:href="#mf99325bea4" y="270.183421"/>
     <use style="fill:#ff0000;stroke:#ff0000;" x="326.341818" xlink:href="#mf99325bea4" y="268.826475"/>
     <use style="fill:#ff0000;stroke:#ff0000;" x="327.434931" xlink:href="#mf99325bea4" y="265.424979"/>
     <use style="fill:#ff0000;stroke:#ff0000;" x="328.528044" xlink:href="#mf99325bea4" y="273.534147"/>
     <use style="fill:#ff0000;stroke:#ff0000;" x="329.621157" xlink:href="#mf99325bea4" y="271.443009"/>
     <use style="fill:#ff0000;stroke:#ff0000;" x="330.71427" xlink:href="#mf99325bea4" y="257.311154"/>
     <use style="fill:#ff0000;stroke:#ff0000;" x="331.807383" xlink:href="#mf99325bea4" y="266.913988"/>
     <use style="fill:#ff0000;stroke:#ff0000;" x="332.900496" xlink:href="#mf99325bea4" y="267.43222"/>
     <use style="fill:#ff0000;stroke:#ff0000;" x="333.993609" xlink:href="#mf99325bea4" y="257.135363"/>
     <use style="fill:#ff0000;stroke:#ff0000;" x="335.086722" xlink:href="#mf99325bea4" y="264.305484"/>
     <use style="fill:#ff0000;stroke:#ff0000;" x="336.179835" xlink:href="#mf99325bea4" y="265.515663"/>
     <use style="fill:#ff0000;stroke:#ff0000;" x="337.272948" xlink:href="#mf99325bea4" y="256.064119"/>
     <use style="fill:#ff0000;stroke:#ff0000;" x="338.366061" xlink:href="#mf99325bea4" y="256.743742"/>
     <use style="fill:#ff0000;stroke:#ff0000;" x="339.459174" xlink:href="#mf99325bea4" y="258.657479"/>
     <use style="fill:#ff0000;stroke:#ff0000;" x="340.552287" xlink:href="#mf99325bea4" y="250.66762"/>
     <use style="fill:#ff0000;stroke:#ff0000;" x="341.645399" xlink:href="#mf99325bea4" y="260.718892"/>
     <use style="fill:#ff0000;stroke:#ff0000;" x="342.738512" xlink:href="#mf99325bea4" y="267.226156"/>
     <use style="fill:#ff0000;stroke:#ff0000;" x="343.831625" xlink:href="#mf99325bea4" y="254.929358"/>
     <use style="fill:#ff0000;stroke:#ff0000;" x="344.924738" xlink:href="#mf99325bea4" y="252.688022"/>
     <use style="fill:#ff0000;stroke:#ff0000;" x="346.017851" xlink:href="#mf99325bea4" y="254.993756"/>
     <use style="fill:#ff0000;stroke:#ff0000;" x="347.110964" xlink:href="#mf99325bea4" y="248.80442"/>
     <use style="fill:#ff0000;stroke:#ff0000;" x="348.204077" xlink:href="#mf99325bea4" y="253.096045"/>
     <use style="fill:#ff0000;stroke:#ff0000;" x="349.29719" xlink:href="#mf99325bea4" y="250.286593"/>
     <use style="fill:#ff0000;stroke:#ff0000;" x="350.390303" xlink:href="#mf99325bea4" y="244.272669"/>
     <use style="fill:#ff0000;stroke:#ff0000;" x="351.483416" xlink:href="#mf99325bea4" y="251.599716"/>
     <use style="fill:#ff0000;stroke:#ff0000;" x="352.576529" xlink:href="#mf99325bea4" y="230.475215"/>
     <use style="fill:#ff0000;stroke:#ff0000;" x="353.669642" xlink:href="#mf99325bea4" y="246.111087"/>
     <use style="fill:#ff0000;stroke:#ff0000;" x="354.762755" xlink:href="#mf99325bea4" y="259.42457"/>
     <use style="fill:#ff0000;stroke:#ff0000;" x="355.855868" xlink:href="#mf99325bea4" y="246.042706"/>
     <use style="fill:#ff0000;stroke:#ff0000;" x="356.948981" xlink:href="#mf99325bea4" y="239.827407"/>
     <use style="fill:#ff0000;stroke:#ff0000;" x="358.042094" xlink:href="#mf99325bea4" y="230.667333"/>
     <use style="fill:#ff0000;stroke:#ff0000;" x="359.135207" xlink:href="#mf99325bea4" y="252.874464"/>
     <use style="fill:#ff0000;stroke:#ff0000;" x="360.22832" xlink:href="#mf99325bea4" y="241.465599"/>
     <use style="fill:#ff0000;stroke:#ff0000;" x="361.321433" xlink:href="#mf99325bea4" y="253.327194"/>
     <use style="fill:#ff0000;stroke:#ff0000;" x="362.414545" xlink:href="#mf99325bea4" y="238.403246"/>
     <use style="fill:#ff0000;stroke:#ff0000;" x="363.507658" xlink:href="#mf99325bea4" y="249.989583"/>
     <use style="fill:#ff0000;stroke:#ff0000;" x="364.600771" xlink:href="#mf99325bea4" y="226.322937"/>
     <use style="fill:#ff0000;stroke:#ff0000;" x="365.693884" xlink:href="#mf99325bea4" y="235.21394"/>
     <use style="fill:#ff0000;stroke:#ff0000;" x="366.786997" xlink:href="#mf99325bea4" y="246.795917"/>
     <use style="fill:#ff0000;stroke:#ff0000;" x="367.88011" xlink:href="#mf99325bea4" y="214.862106"/>
     <use style="fill:#ff0000;stroke:#ff0000;" x="368.973223" xlink:href="#mf99325bea4" y="245.221618"/>
     <use style="fill:#ff0000;stroke:#ff0000;" x="370.066336" xlink:href="#mf99325bea4" y="247.01584"/>
     <use style="fill:#ff0000;stroke:#ff0000;" x="371.159449" xlink:href="#mf99325bea4" y="229.115066"/>
     <use style="fill:#ff0000;stroke:#ff0000;" x="372.252562" xlink:href="#mf99325bea4" y="228.783205"/>
     <use style="fill:#ff0000;stroke:#ff0000;" x="373.345675" xlink:href="#mf99325bea4" y="210.849014"/>
     <use style="fill:#ff0000;stroke:#ff0000;" x="374.438788" xlink:href="#mf99325bea4" y="242.737998"/>
     <use style="fill:#ff0000;stroke:#ff0000;" x="375.531901" xlink:href="#mf99325bea4" y="228.158742"/>
     <use style="fill:#ff0000;stroke:#ff0000;" x="376.625014" xlink:href="#mf99325bea4" y="226.080157"/>
     <use style="fill:#ff0000;stroke:#ff0000;" x="377.718127" xlink:href="#mf99325bea4" y="212.947317"/>
     <use style="fill:#ff0000;stroke:#ff0000;" x="378.81124" xlink:href="#mf99325bea4" y="226.801514"/>
     <use style="fill:#ff0000;stroke:#ff0000;" x="379.904353" xlink:href="#mf99325bea4" y="216.896396"/>
     <use style="fill:#ff0000;stroke:#ff0000;" x="380.997466" xlink:href="#mf99325bea4" y="226.610393"/>
     <use style="fill:#ff0000;stroke:#ff0000;" x="382.090579" xlink:href="#mf99325bea4" y="224.664435"/>
     <use style="fill:#ff0000;stroke:#ff0000;" x="383.183691" xlink:href="#mf99325bea4" y="212.628286"/>
     <use style="fill:#ff0000;stroke:#ff0000;" x="384.276804" xlink:href="#mf99325bea4" y="215.799725"/>
     <use style="fill:#ff0000;stroke:#ff0000;" x="385.369917" xlink:href="#mf99325bea4" y="214.531561"/>
     <use style="fill:#ff0000;stroke:#ff0000;" x="386.46303" xlink:href="#mf99325bea4" y="228.012962"/>
     <use style="fill:#ff0000;stroke:#ff0000;" x="387.556143" xlink:href="#mf99325bea4" y="215.23493"/>
     <use style="fill:#ff0000;stroke:#ff0000;" x="388.649256" xlink:href="#mf99325bea4" y="204.378301"/>
     <use style="fill:#ff0000;stroke:#ff0000;" x="389.742369" xlink:href="#mf99325bea4" y="185.870659"/>
     <use style="fill:#ff0000;stroke:#ff0000;" x="390.835482" xlink:href="#mf99325bea4" y="223.675113"/>
     <use style="fill:#ff0000;stroke:#ff0000;" x="391.928595" xlink:href="#mf99325bea4" y="217.247099"/>
     <use style="fill:#ff0000;stroke:#ff0000;" x="393.021708" xlink:href="#mf99325bea4" y="187.130427"/>
     <use style="fill:#ff0000;stroke:#ff0000;" x="394.114821" xlink:href="#mf99325bea4" y="214.175956"/>
     <use style="fill:#ff0000;stroke:#ff0000;" x="395.207934" xlink:href="#mf99325bea4" y="192.306939"/>
     <use style="fill:#ff0000;stroke:#ff0000;" x="396.301047" xlink:href="#mf99325bea4" y="178.09773"/>
     <use style="fill:#ff0000;stroke:#ff0000;" x="397.39416" xlink:href="#mf99325bea4" y="218.932726"/>
     <use style="fill:#ff0000;stroke:#ff0000;" x="398.487273" xlink:href="#mf99325bea4" y="204.92459"/>
    </g>
   </g>
   <g id="line2d_16">
    <path clip-path="url(#p5c776c0de2)" d="M 73.832727 87.772965 
L 80.391405 101.043761 
L 86.950083 113.85786 
L 93.50876 126.215261 
L 100.067438 138.115966 
L 106.626116 149.559974 
L 113.184793 160.547285 
L 119.743471 171.077899 
L 126.302149 181.151815 
L 132.860826 190.769035 
L 139.419504 199.929558 
L 144.885069 207.214462 
L 150.350634 214.182214 
L 155.816198 220.832816 
L 161.281763 227.166268 
L 166.747328 233.182568 
L 172.212893 238.881718 
L 177.678457 244.263718 
L 183.144022 249.328566 
L 188.609587 254.076264 
L 194.075152 258.506811 
L 199.540716 262.620208 
L 205.006281 266.416454 
L 210.471846 269.895549 
L 215.93741 273.057494 
L 220.309862 275.358701 
L 224.682314 277.456932 
L 229.054766 279.352186 
L 233.427218 281.044464 
L 237.799669 282.533766 
L 242.172121 283.820091 
L 246.544573 284.903439 
L 250.917025 285.783812 
L 255.289477 286.461207 
L 259.661928 286.935627 
L 264.03438 287.20707 
L 268.406832 287.275536 
L 272.779284 287.141026 
L 277.151736 286.80354 
L 281.524187 286.263077 
L 285.896639 285.519638 
L 290.269091 284.573222 
L 294.641543 283.42383 
L 299.013994 282.071461 
L 303.386446 280.516117 
L 307.758898 278.757795 
L 312.13135 276.796497 
L 316.503802 274.632223 
L 320.876253 272.264972 
L 326.341818 269.020473 
L 331.807383 265.458824 
L 337.272948 261.580024 
L 342.738512 257.384073 
L 348.204077 252.870971 
L 353.669642 248.040719 
L 359.135207 242.893316 
L 364.600771 237.428762 
L 370.066336 231.647058 
L 375.531901 225.548203 
L 380.997466 219.132197 
L 386.46303 212.399041 
L 391.928595 205.348734 
L 397.39416 197.981276 
L 398.487273 196.469726 
L 398.487273 196.469726 
" style="fill:none;stroke:#008000;stroke-linecap:square;stroke-width:1.5;"/>
   </g>
   <g id="patch_3">
    <path d="M 57.6 307.584 
L 57.6 41.472 
" style="fill:none;stroke:#000000;stroke-linecap:square;stroke-linejoin:miter;stroke-width:0.8;"/>
   </g>
   <g id="patch_4">
    <path d="M 414.72 307.584 
L 414.72 41.472 
" style="fill:none;stroke:#000000;stroke-linecap:square;stroke-linejoin:miter;stroke-width:0.8;"/>
   </g>
   <g id="patch_5">
    <path d="M 57.6 307.584 
L 414.72 307.584 
" style="fill:none;stroke:#000000;stroke-linecap:square;stroke-linejoin:miter;stroke-width:0.8;"/>
   </g>
   <g id="patch_6">
    <path d="M 57.6 41.472 
L 414.72 41.472 
" style="fill:none;stroke:#000000;stroke-linecap:square;stroke-linejoin:miter;stroke-width:0.8;"/>
   </g>
   <g id="text_17">
    <!-- FunctionFitting 27 -->
    <defs>
     <path d="M 9.8125 72.90625 
L 51.703125 72.90625 
L 51.703125 64.59375 
L 19.671875 64.59375 
L 19.671875 43.109375 
L 48.578125 43.109375 
L 48.578125 34.8125 
L 19.671875 34.8125 
L 19.671875 0 
L 9.8125 0 
z
" id="DejaVuSans-70"/>
     <path d="M 54.890625 33.015625 
L 54.890625 0 
L 45.90625 0 
L 45.90625 32.71875 
Q 45.90625 40.484375 42.875 44.328125 
Q 39.84375 48.1875 33.796875 48.1875 
Q 26.515625 48.1875 22.3125 43.546875 
Q 18.109375 38.921875 18.109375 30.90625 
L 18.109375 0 
L 9.078125 0 
L 9.078125 54.6875 
L 18.109375 54.6875 
L 18.109375 46.1875 
Q 21.34375 51.125 25.703125 53.5625 
Q 30.078125 56 35.796875 56 
Q 45.21875 56 50.046875 50.171875 
Q 54.890625 44.34375 54.890625 33.015625 
z
" id="DejaVuSans-110"/>
     <path d="M 48.78125 52.59375 
L 48.78125 44.1875 
Q 44.96875 46.296875 41.140625 47.34375 
Q 37.3125 48.390625 33.40625 48.390625 
Q 24.65625 48.390625 19.8125 42.84375 
Q 14.984375 37.3125 14.984375 27.296875 
Q 14.984375 17.28125 19.8125 11.734375 
Q 24.65625 6.203125 33.40625 6.203125 
Q 37.3125 6.203125 41.140625 7.25 
Q 44.96875 8.296875 48.78125 10.40625 
L 48.78125 2.09375 
Q 45.015625 0.34375 40.984375 -0.53125 
Q 36.96875 -1.421875 32.421875 -1.421875 
Q 20.0625 -1.421875 12.78125 6.34375 
Q 5.515625 14.109375 5.515625 27.296875 
Q 5.515625 40.671875 12.859375 48.328125 
Q 20.21875 56 33.015625 56 
Q 37.15625 56 41.109375 55.140625 
Q 45.0625 54.296875 48.78125 52.59375 
z
" id="DejaVuSans-99"/>
     <path d="M 18.3125 70.21875 
L 18.3125 54.6875 
L 36.8125 54.6875 
L 36.8125 47.703125 
L 18.3125 47.703125 
L 18.3125 18.015625 
Q 18.3125 11.328125 20.140625 9.421875 
Q 21.96875 7.515625 27.59375 7.515625 
L 36.8125 7.515625 
L 36.8125 0 
L 27.59375 0 
Q 17.1875 0 13.234375 3.875 
Q 9.28125 7.765625 9.28125 18.015625 
L 9.28125 47.703125 
L 2.6875 47.703125 
L 2.6875 54.6875 
L 9.28125 54.6875 
L 9.28125 70.21875 
z
" id="DejaVuSans-116"/>
     <path d="M 9.421875 54.6875 
L 18.40625 54.6875 
L 18.40625 0 
L 9.421875 0 
z
M 9.421875 75.984375 
L 18.40625 75.984375 
L 18.40625 64.59375 
L 9.421875 64.59375 
z
" id="DejaVuSans-105"/>
     <path d="M 30.609375 48.390625 
Q 23.390625 48.390625 19.1875 42.75 
Q 14.984375 37.109375 14.984375 27.296875 
Q 14.984375 17.484375 19.15625 11.84375 
Q 23.34375 6.203125 30.609375 6.203125 
Q 37.796875 6.203125 41.984375 11.859375 
Q 46.1875 17.53125 46.1875 27.296875 
Q 46.1875 37.015625 41.984375 42.703125 
Q 37.796875 48.390625 30.609375 48.390625 
z
M 30.609375 56 
Q 42.328125 56 49.015625 48.375 
Q 55.71875 40.765625 55.71875 27.296875 
Q 55.71875 13.875 49.015625 6.21875 
Q 42.328125 -1.421875 30.609375 -1.421875 
Q 18.84375 -1.421875 12.171875 6.21875 
Q 5.515625 13.875 5.515625 27.296875 
Q 5.515625 40.765625 12.171875 48.375 
Q 18.84375 56 30.609375 56 
z
" id="DejaVuSans-111"/>
     <path d="M 45.40625 27.984375 
Q 45.40625 37.75 41.375 43.109375 
Q 37.359375 48.484375 30.078125 48.484375 
Q 22.859375 48.484375 18.828125 43.109375 
Q 14.796875 37.75 14.796875 27.984375 
Q 14.796875 18.265625 18.828125 12.890625 
Q 22.859375 7.515625 30.078125 7.515625 
Q 37.359375 7.515625 41.375 12.890625 
Q 45.40625 18.265625 45.40625 27.984375 
z
M 54.390625 6.78125 
Q 54.390625 -7.171875 48.1875 -13.984375 
Q 42 -20.796875 29.203125 -20.796875 
Q 24.46875 -20.796875 20.265625 -20.09375 
Q 16.0625 -19.390625 12.109375 -17.921875 
L 12.109375 -9.1875 
Q 16.0625 -11.328125 19.921875 -12.34375 
Q 23.78125 -13.375 27.78125 -13.375 
Q 36.625 -13.375 41.015625 -8.765625 
Q 45.40625 -4.15625 45.40625 5.171875 
L 45.40625 9.625 
Q 42.625 4.78125 38.28125 2.390625 
Q 33.9375 0 27.875 0 
Q 17.828125 0 11.671875 7.65625 
Q 5.515625 15.328125 5.515625 27.984375 
Q 5.515625 40.671875 11.671875 48.328125 
Q 17.828125 56 27.875 56 
Q 33.9375 56 38.28125 53.609375 
Q 42.625 51.21875 45.40625 46.390625 
L 45.40625 54.6875 
L 54.390625 54.6875 
z
" id="DejaVuSans-103"/>
     <path d="M 8.203125 72.90625 
L 55.078125 72.90625 
L 55.078125 68.703125 
L 28.609375 0 
L 18.3125 0 
L 43.21875 64.59375 
L 8.203125 64.59375 
z
" id="DejaVuSans-55"/>
    </defs>
    <g transform="translate(181.680937 35.472)scale(0.12 -0.12)">
     <use xlink:href="#DejaVuSans-70"/>
     <use x="57.441406" xlink:href="#DejaVuSans-117"/>
     <use x="120.820312" xlink:href="#DejaVuSans-110"/>
     <use x="184.199219" xlink:href="#DejaVuSans-99"/>
     <use x="239.179688" xlink:href="#DejaVuSans-116"/>
     <use x="278.388672" xlink:href="#DejaVuSans-105"/>
     <use x="306.171875" xlink:href="#DejaVuSans-111"/>
     <use x="367.353516" xlink:href="#DejaVuSans-110"/>
     <use x="430.732422" xlink:href="#DejaVuSans-70"/>
     <use x="488.142578" xlink:href="#DejaVuSans-105"/>
     <use x="515.925781" xlink:href="#DejaVuSans-116"/>
     <use x="555.134766" xlink:href="#DejaVuSans-116"/>
     <use x="594.34375" xlink:href="#DejaVuSans-105"/>
     <use x="622.126953" xlink:href="#DejaVuSans-110"/>
     <use x="685.505859" xlink:href="#DejaVuSans-103"/>
     <use x="748.982422" xlink:href="#DejaVuSans-32"/>
     <use x="780.769531" xlink:href="#DejaVuSans-50"/>
     <use x="844.392578" xlink:href="#DejaVuSans-55"/>
    </g>
   </g>
   <g id="legend_1">
    <g id="patch_7">
     <path d="M 299.83875 78.82825 
L 407.72 78.82825 
Q 409.72 78.82825 409.72 76.82825 
L 409.72 48.472 
Q 409.72 46.472 407.72 46.472 
L 299.83875 46.472 
Q 297.83875 46.472 297.83875 48.472 
L 297.83875 76.82825 
Q 297.83875 78.82825 299.83875 78.82825 
z
" style="fill:#ffffff;opacity:0.8;stroke:#cccccc;stroke-linejoin:miter;"/>
    </g>
    <g id="line2d_17"/>
    <g id="line2d_18">
     <g>
      <use style="fill:#ff0000;stroke:#ff0000;" x="311.83875" xlink:href="#mf99325bea4" y="54.570437"/>
     </g>
    </g>
    <g id="text_18">
     <!-- measured data -->
     <defs>
      <path d="M 52 44.1875 
Q 55.375 50.25 60.0625 53.125 
Q 64.75 56 71.09375 56 
Q 79.640625 56 84.28125 50.015625 
Q 88.921875 44.046875 88.921875 33.015625 
L 88.921875 0 
L 79.890625 0 
L 79.890625 32.71875 
Q 79.890625 40.578125 77.09375 44.375 
Q 74.3125 48.1875 68.609375 48.1875 
Q 61.625 48.1875 57.5625 43.546875 
Q 53.515625 38.921875 53.515625 30.90625 
L 53.515625 0 
L 44.484375 0 
L 44.484375 32.71875 
Q 44.484375 40.625 41.703125 44.40625 
Q 38.921875 48.1875 33.109375 48.1875 
Q 26.21875 48.1875 22.15625 43.53125 
Q 18.109375 38.875 18.109375 30.90625 
L 18.109375 0 
L 9.078125 0 
L 9.078125 54.6875 
L 18.109375 54.6875 
L 18.109375 46.1875 
Q 21.1875 51.21875 25.484375 53.609375 
Q 29.78125 56 35.6875 56 
Q 41.65625 56 45.828125 52.96875 
Q 50 49.953125 52 44.1875 
z
" id="DejaVuSans-109"/>
      <path d="M 41.109375 46.296875 
Q 39.59375 47.171875 37.8125 47.578125 
Q 36.03125 48 33.890625 48 
Q 26.265625 48 22.1875 43.046875 
Q 18.109375 38.09375 18.109375 28.8125 
L 18.109375 0 
L 9.078125 0 
L 9.078125 54.6875 
L 18.109375 54.6875 
L 18.109375 46.1875 
Q 20.953125 51.171875 25.484375 53.578125 
Q 30.03125 56 36.53125 56 
Q 37.453125 56 38.578125 55.875 
Q 39.703125 55.765625 41.0625 55.515625 
z
" id="DejaVuSans-114"/>
      <path d="M 45.40625 46.390625 
L 45.40625 75.984375 
L 54.390625 75.984375 
L 54.390625 0 
L 45.40625 0 
L 45.40625 8.203125 
Q 42.578125 3.328125 38.25 0.953125 
Q 33.9375 -1.421875 27.875 -1.421875 
Q 17.96875 -1.421875 11.734375 6.484375 
Q 5.515625 14.40625 5.515625 27.296875 
Q 5.515625 40.1875 11.734375 48.09375 
Q 17.96875 56 27.875 56 
Q 33.9375 56 38.25 53.625 
Q 42.578125 51.265625 45.40625 46.390625 
z
M 14.796875 27.296875 
Q 14.796875 17.390625 18.875 11.75 
Q 22.953125 6.109375 30.078125 6.109375 
Q 37.203125 6.109375 41.296875 11.75 
Q 45.40625 17.390625 45.40625 27.296875 
Q 45.40625 37.203125 41.296875 42.84375 
Q 37.203125 48.484375 30.078125 48.484375 
Q 22.953125 48.484375 18.875 42.84375 
Q 14.796875 37.203125 14.796875 27.296875 
z
" id="DejaVuSans-100"/>
     </defs>
     <g transform="translate(329.83875 58.070437)scale(0.1 -0.1)">
      <use xlink:href="#DejaVuSans-109"/>
      <use x="97.412109" xlink:href="#DejaVuSans-101"/>
      <use x="158.935547" xlink:href="#DejaVuSans-97"/>
      <use x="220.214844" xlink:href="#DejaVuSans-115"/>
      <use x="272.314453" xlink:href="#DejaVuSans-117"/>
      <use x="335.693359" xlink:href="#DejaVuSans-114"/>
      <use x="376.775391" xlink:href="#DejaVuSans-101"/>
      <use x="438.298828" xlink:href="#DejaVuSans-100"/>
      <use x="501.775391" xlink:href="#DejaVuSans-32"/>
      <use x="533.5625" xlink:href="#DejaVuSans-100"/>
      <use x="597.039062" xlink:href="#DejaVuSans-97"/>
      <use x="658.318359" xlink:href="#DejaVuSans-116"/>
      <use x="697.527344" xlink:href="#DejaVuSans-97"/>
     </g>
    </g>
    <g id="line2d_19">
     <path d="M 301.83875 69.248562 
L 321.83875 69.248562 
" style="fill:none;stroke:#008000;stroke-linecap:square;stroke-width:1.5;"/>
    </g>
    <g id="line2d_20"/>
    <g id="text_19">
     <!-- linear data -->
     <g transform="translate(329.83875 72.748562)scale(0.1 -0.1)">
      <use xlink:href="#DejaVuSans-108"/>
      <use x="27.783203" xlink:href="#DejaVuSans-105"/>
      <use x="55.566406" xlink:href="#DejaVuSans-110"/>
      <use x="118.945312" xlink:href="#DejaVuSans-101"/>
      <use x="180.46875" xlink:href="#DejaVuSans-97"/>
      <use x="241.748047" xlink:href="#DejaVuSans-114"/>
      <use x="282.861328" xlink:href="#DejaVuSans-32"/>
      <use x="314.648438" xlink:href="#DejaVuSans-100"/>
      <use x="378.125" xlink:href="#DejaVuSans-97"/>
      <use x="439.404297" xlink:href="#DejaVuSans-116"/>
      <use x="478.613281" xlink:href="#DejaVuSans-97"/>
     </g>
    </g>
   </g>
  </g>
 </g>
 <defs>
  <clipPath id="p5c776c0de2">
   <rect height="266.112" width="357.12" x="57.6" y="41.472"/>
  </clipPath>
 </defs>
</svg>
