<?xml version="1.0" encoding="utf-8" standalone="no"?>
<!DOCTYPE svg PUBLIC "-//W3C//DTD SVG 1.1//EN"
  "http://www.w3.org/Graphics/SVG/1.1/DTD/svg11.dtd">
<!-- Created with matplotlib (https://matplotlib.org/) -->
<svg height="345.6pt" version="1.1" viewBox="0 0 460.8 345.6" width="460.8pt" xmlns="http://www.w3.org/2000/svg" xmlns:xlink="http://www.w3.org/1999/xlink">
 <defs>
  <style type="text/css">
*{stroke-linecap:butt;stroke-linejoin:round;}
  </style>
 </defs>
 <g id="figure_1">
  <g id="patch_1">
   <path d="M 0 345.6 
L 460.8 345.6 
L 460.8 0 
L 0 0 
z
" style="fill:#ffffff;"/>
  </g>
  <g id="axes_1">
   <g id="patch_2">
    <path d="M 57.6 307.584 
L 414.72 307.584 
L 414.72 41.472 
L 57.6 41.472 
z
" style="fill:#ffffff;"/>
   </g>
   <g id="matplotlib.axis_1">
    <g id="xtick_1">
     <g id="line2d_1">
      <defs>
       <path d="M 0 0 
L 0 3.5 
" id="m531ce279ef" style="stroke:#000000;stroke-width:0.8;"/>
      </defs>
      <g>
       <use style="stroke:#000000;stroke-width:0.8;" x="69.556597" xlink:href="#m531ce279ef" y="307.584"/>
      </g>
     </g>
     <g id="text_1">
      <!-- 0 -->
      <defs>
       <path d="M 31.78125 66.40625 
Q 24.171875 66.40625 20.328125 58.90625 
Q 16.5 51.421875 16.5 36.375 
Q 16.5 21.390625 20.328125 13.890625 
Q 24.171875 6.390625 31.78125 6.390625 
Q 39.453125 6.390625 43.28125 13.890625 
Q 47.125 21.390625 47.125 36.375 
Q 47.125 51.421875 43.28125 58.90625 
Q 39.453125 66.40625 31.78125 66.40625 
z
M 31.78125 74.21875 
Q 44.046875 74.21875 50.515625 64.515625 
Q 56.984375 54.828125 56.984375 36.375 
Q 56.984375 17.96875 50.515625 8.265625 
Q 44.046875 -1.421875 31.78125 -1.421875 
Q 19.53125 -1.421875 13.0625 8.265625 
Q 6.59375 17.96875 6.59375 36.375 
Q 6.59375 54.828125 13.0625 64.515625 
Q 19.53125 74.21875 31.78125 74.21875 
z
" id="DejaVuSans-48"/>
      </defs>
      <g transform="translate(66.375347 322.182437)scale(0.1 -0.1)">
       <use xlink:href="#DejaVuSans-48"/>
      </g>
     </g>
    </g>
    <g id="xtick_2">
     <g id="line2d_2">
      <g>
       <use style="stroke:#000000;stroke-width:0.8;" x="139.580512" xlink:href="#m531ce279ef" y="307.584"/>
      </g>
     </g>
     <g id="text_2">
      <!-- 20 -->
      <defs>
       <path d="M 19.1875 8.296875 
L 53.609375 8.296875 
L 53.609375 0 
L 7.328125 0 
L 7.328125 8.296875 
Q 12.9375 14.109375 22.625 23.890625 
Q 32.328125 33.6875 34.8125 36.53125 
Q 39.546875 41.84375 41.421875 45.53125 
Q 43.3125 49.21875 43.3125 52.78125 
Q 43.3125 58.59375 39.234375 62.25 
Q 35.15625 65.921875 28.609375 65.921875 
Q 23.96875 65.921875 18.8125 64.3125 
Q 13.671875 62.703125 7.8125 59.421875 
L 7.8125 69.390625 
Q 13.765625 71.78125 18.9375 73 
Q 24.125 74.21875 28.421875 74.21875 
Q 39.75 74.21875 46.484375 68.546875 
Q 53.21875 62.890625 53.21875 53.421875 
Q 53.21875 48.921875 51.53125 44.890625 
Q 49.859375 40.875 45.40625 35.40625 
Q 44.1875 33.984375 37.640625 27.21875 
Q 31.109375 20.453125 19.1875 8.296875 
z
" id="DejaVuSans-50"/>
      </defs>
      <g transform="translate(133.218012 322.182437)scale(0.1 -0.1)">
       <use xlink:href="#DejaVuSans-50"/>
       <use x="63.623047" xlink:href="#DejaVuSans-48"/>
      </g>
     </g>
    </g>
    <g id="xtick_3">
     <g id="line2d_3">
      <g>
       <use style="stroke:#000000;stroke-width:0.8;" x="209.604428" xlink:href="#m531ce279ef" y="307.584"/>
      </g>
     </g>
     <g id="text_3">
      <!-- 40 -->
      <defs>
       <path d="M 37.796875 64.3125 
L 12.890625 25.390625 
L 37.796875 25.390625 
z
M 35.203125 72.90625 
L 47.609375 72.90625 
L 47.609375 25.390625 
L 58.015625 25.390625 
L 58.015625 17.1875 
L 47.609375 17.1875 
L 47.609375 0 
L 37.796875 0 
L 37.796875 17.1875 
L 4.890625 17.1875 
L 4.890625 26.703125 
z
" id="DejaVuSans-52"/>
      </defs>
      <g transform="translate(203.241928 322.182437)scale(0.1 -0.1)">
       <use xlink:href="#DejaVuSans-52"/>
       <use x="63.623047" xlink:href="#DejaVuSans-48"/>
      </g>
     </g>
    </g>
    <g id="xtick_4">
     <g id="line2d_4">
      <g>
       <use style="stroke:#000000;stroke-width:0.8;" x="279.628343" xlink:href="#m531ce279ef" y="307.584"/>
      </g>
     </g>
     <g id="text_4">
      <!-- 60 -->
      <defs>
       <path d="M 33.015625 40.375 
Q 26.375 40.375 22.484375 35.828125 
Q 18.609375 31.296875 18.609375 23.390625 
Q 18.609375 15.53125 22.484375 10.953125 
Q 26.375 6.390625 33.015625 6.390625 
Q 39.65625 6.390625 43.53125 10.953125 
Q 47.40625 15.53125 47.40625 23.390625 
Q 47.40625 31.296875 43.53125 35.828125 
Q 39.65625 40.375 33.015625 40.375 
z
M 52.59375 71.296875 
L 52.59375 62.3125 
Q 48.875 64.0625 45.09375 64.984375 
Q 41.3125 65.921875 37.59375 65.921875 
Q 27.828125 65.921875 22.671875 59.328125 
Q 17.53125 52.734375 16.796875 39.40625 
Q 19.671875 43.65625 24.015625 45.921875 
Q 28.375 48.1875 33.59375 48.1875 
Q 44.578125 48.1875 50.953125 41.515625 
Q 57.328125 34.859375 57.328125 23.390625 
Q 57.328125 12.15625 50.6875 5.359375 
Q 44.046875 -1.421875 33.015625 -1.421875 
Q 20.359375 -1.421875 13.671875 8.265625 
Q 6.984375 17.96875 6.984375 36.375 
Q 6.984375 53.65625 15.1875 63.9375 
Q 23.390625 74.21875 37.203125 74.21875 
Q 40.921875 74.21875 44.703125 73.484375 
Q 48.484375 72.75 52.59375 71.296875 
z
" id="DejaVuSans-54"/>
      </defs>
      <g transform="translate(273.265843 322.182437)scale(0.1 -0.1)">
       <use xlink:href="#DejaVuSans-54"/>
       <use x="63.623047" xlink:href="#DejaVuSans-48"/>
      </g>
     </g>
    </g>
    <g id="xtick_5">
     <g id="line2d_5">
      <g>
       <use style="stroke:#000000;stroke-width:0.8;" x="349.652259" xlink:href="#m531ce279ef" y="307.584"/>
      </g>
     </g>
     <g id="text_5">
      <!-- 80 -->
      <defs>
       <path d="M 31.78125 34.625 
Q 24.75 34.625 20.71875 30.859375 
Q 16.703125 27.09375 16.703125 20.515625 
Q 16.703125 13.921875 20.71875 10.15625 
Q 24.75 6.390625 31.78125 6.390625 
Q 38.8125 6.390625 42.859375 10.171875 
Q 46.921875 13.96875 46.921875 20.515625 
Q 46.921875 27.09375 42.890625 30.859375 
Q 38.875 34.625 31.78125 34.625 
z
M 21.921875 38.8125 
Q 15.578125 40.375 12.03125 44.71875 
Q 8.5 49.078125 8.5 55.328125 
Q 8.5 64.0625 14.71875 69.140625 
Q 20.953125 74.21875 31.78125 74.21875 
Q 42.671875 74.21875 48.875 69.140625 
Q 55.078125 64.0625 55.078125 55.328125 
Q 55.078125 49.078125 51.53125 44.71875 
Q 48 40.375 41.703125 38.8125 
Q 48.828125 37.15625 52.796875 32.3125 
Q 56.78125 27.484375 56.78125 20.515625 
Q 56.78125 9.90625 50.3125 4.234375 
Q 43.84375 -1.421875 31.78125 -1.421875 
Q 19.734375 -1.421875 13.25 4.234375 
Q 6.78125 9.90625 6.78125 20.515625 
Q 6.78125 27.484375 10.78125 32.3125 
Q 14.796875 37.15625 21.921875 38.8125 
z
M 18.3125 54.390625 
Q 18.3125 48.734375 21.84375 45.5625 
Q 25.390625 42.390625 31.78125 42.390625 
Q 38.140625 42.390625 41.71875 45.5625 
Q 45.3125 48.734375 45.3125 54.390625 
Q 45.3125 60.0625 41.71875 63.234375 
Q 38.140625 66.40625 31.78125 66.40625 
Q 25.390625 66.40625 21.84375 63.234375 
Q 18.3125 60.0625 18.3125 54.390625 
z
" id="DejaVuSans-56"/>
      </defs>
      <g transform="translate(343.289759 322.182437)scale(0.1 -0.1)">
       <use xlink:href="#DejaVuSans-56"/>
       <use x="63.623047" xlink:href="#DejaVuSans-48"/>
      </g>
     </g>
    </g>
    <g id="text_6">
     <!-- x values -->
     <defs>
      <path d="M 54.890625 54.6875 
L 35.109375 28.078125 
L 55.90625 0 
L 45.3125 0 
L 29.390625 21.484375 
L 13.484375 0 
L 2.875 0 
L 24.125 28.609375 
L 4.6875 54.6875 
L 15.28125 54.6875 
L 29.78125 35.203125 
L 44.28125 54.6875 
z
" id="DejaVuSans-120"/>
      <path id="DejaVuSans-32"/>
      <path d="M 2.984375 54.6875 
L 12.5 54.6875 
L 29.59375 8.796875 
L 46.6875 54.6875 
L 56.203125 54.6875 
L 35.6875 0 
L 23.484375 0 
z
" id="DejaVuSans-118"/>
      <path d="M 34.28125 27.484375 
Q 23.390625 27.484375 19.1875 25 
Q 14.984375 22.515625 14.984375 16.5 
Q 14.984375 11.71875 18.140625 8.90625 
Q 21.296875 6.109375 26.703125 6.109375 
Q 34.1875 6.109375 38.703125 11.40625 
Q 43.21875 16.703125 43.21875 25.484375 
L 43.21875 27.484375 
z
M 52.203125 31.203125 
L 52.203125 0 
L 43.21875 0 
L 43.21875 8.296875 
Q 40.140625 3.328125 35.546875 0.953125 
Q 30.953125 -1.421875 24.3125 -1.421875 
Q 15.921875 -1.421875 10.953125 3.296875 
Q 6 8.015625 6 15.921875 
Q 6 25.140625 12.171875 29.828125 
Q 18.359375 34.515625 30.609375 34.515625 
L 43.21875 34.515625 
L 43.21875 35.40625 
Q 43.21875 41.609375 39.140625 45 
Q 35.0625 48.390625 27.6875 48.390625 
Q 23 48.390625 18.546875 47.265625 
Q 14.109375 46.140625 10.015625 43.890625 
L 10.015625 52.203125 
Q 14.9375 54.109375 19.578125 55.046875 
Q 24.21875 56 28.609375 56 
Q 40.484375 56 46.34375 49.84375 
Q 52.203125 43.703125 52.203125 31.203125 
z
" id="DejaVuSans-97"/>
      <path d="M 9.421875 75.984375 
L 18.40625 75.984375 
L 18.40625 0 
L 9.421875 0 
z
" id="DejaVuSans-108"/>
      <path d="M 8.5 21.578125 
L 8.5 54.6875 
L 17.484375 54.6875 
L 17.484375 21.921875 
Q 17.484375 14.15625 20.5 10.265625 
Q 23.53125 6.390625 29.59375 6.390625 
Q 36.859375 6.390625 41.078125 11.03125 
Q 45.3125 15.671875 45.3125 23.6875 
L 45.3125 54.6875 
L 54.296875 54.6875 
L 54.296875 0 
L 45.3125 0 
L 45.3125 8.40625 
Q 42.046875 3.421875 37.71875 1 
Q 33.40625 -1.421875 27.6875 -1.421875 
Q 18.265625 -1.421875 13.375 4.4375 
Q 8.5 10.296875 8.5 21.578125 
z
M 31.109375 56 
z
" id="DejaVuSans-117"/>
      <path d="M 56.203125 29.59375 
L 56.203125 25.203125 
L 14.890625 25.203125 
Q 15.484375 15.921875 20.484375 11.0625 
Q 25.484375 6.203125 34.421875 6.203125 
Q 39.59375 6.203125 44.453125 7.46875 
Q 49.3125 8.734375 54.109375 11.28125 
L 54.109375 2.78125 
Q 49.265625 0.734375 44.1875 -0.34375 
Q 39.109375 -1.421875 33.890625 -1.421875 
Q 20.796875 -1.421875 13.15625 6.1875 
Q 5.515625 13.8125 5.515625 26.8125 
Q 5.515625 40.234375 12.765625 48.109375 
Q 20.015625 56 32.328125 56 
Q 43.359375 56 49.78125 48.890625 
Q 56.203125 41.796875 56.203125 29.59375 
z
M 47.21875 32.234375 
Q 47.125 39.59375 43.09375 43.984375 
Q 39.0625 48.390625 32.421875 48.390625 
Q 24.90625 48.390625 20.390625 44.140625 
Q 15.875 39.890625 15.1875 32.171875 
z
" id="DejaVuSans-101"/>
      <path d="M 44.28125 53.078125 
L 44.28125 44.578125 
Q 40.484375 46.53125 36.375 47.5 
Q 32.28125 48.484375 27.875 48.484375 
Q 21.1875 48.484375 17.84375 46.4375 
Q 14.5 44.390625 14.5 40.28125 
Q 14.5 37.15625 16.890625 35.375 
Q 19.28125 33.59375 26.515625 31.984375 
L 29.59375 31.296875 
Q 39.15625 29.25 43.1875 25.515625 
Q 47.21875 21.78125 47.21875 15.09375 
Q 47.21875 7.46875 41.1875 3.015625 
Q 35.15625 -1.421875 24.609375 -1.421875 
Q 20.21875 -1.421875 15.453125 -0.5625 
Q 10.6875 0.296875 5.421875 2 
L 5.421875 11.28125 
Q 10.40625 8.6875 15.234375 7.390625 
Q 20.0625 6.109375 24.8125 6.109375 
Q 31.15625 6.109375 34.5625 8.28125 
Q 37.984375 10.453125 37.984375 14.40625 
Q 37.984375 18.0625 35.515625 20.015625 
Q 33.0625 21.96875 24.703125 23.78125 
L 21.578125 24.515625 
Q 13.234375 26.265625 9.515625 29.90625 
Q 5.8125 33.546875 5.8125 39.890625 
Q 5.8125 47.609375 11.28125 51.796875 
Q 16.75 56 26.8125 56 
Q 31.78125 56 36.171875 55.265625 
Q 40.578125 54.546875 44.28125 53.078125 
z
" id="DejaVuSans-115"/>
     </defs>
     <g transform="translate(215.349063 335.860562)scale(0.1 -0.1)">
      <use xlink:href="#DejaVuSans-120"/>
      <use x="59.179688" xlink:href="#DejaVuSans-32"/>
      <use x="90.966797" xlink:href="#DejaVuSans-118"/>
      <use x="150.146484" xlink:href="#DejaVuSans-97"/>
      <use x="211.425781" xlink:href="#DejaVuSans-108"/>
      <use x="239.208984" xlink:href="#DejaVuSans-117"/>
      <use x="302.587891" xlink:href="#DejaVuSans-101"/>
      <use x="364.111328" xlink:href="#DejaVuSans-115"/>
     </g>
    </g>
   </g>
   <g id="matplotlib.axis_2">
    <g id="ytick_1">
     <g id="line2d_6">
      <defs>
       <path d="M 0 0 
L -3.5 0 
" id="m1dfea80ed7" style="stroke:#000000;stroke-width:0.8;"/>
      </defs>
      <g>
       <use style="stroke:#000000;stroke-width:0.8;" x="57.6" xlink:href="#m1dfea80ed7" y="291.475537"/>
      </g>
     </g>
     <g id="text_7">
      <!-- 0 -->
      <g transform="translate(44.2375 295.274756)scale(0.1 -0.1)">
       <use xlink:href="#DejaVuSans-48"/>
      </g>
     </g>
    </g>
    <g id="ytick_2">
     <g id="line2d_7">
      <g>
       <use style="stroke:#000000;stroke-width:0.8;" x="57.6" xlink:href="#m1dfea80ed7" y="252.555234"/>
      </g>
     </g>
     <g id="text_8">
      <!-- 100 -->
      <defs>
       <path d="M 12.40625 8.296875 
L 28.515625 8.296875 
L 28.515625 63.921875 
L 10.984375 60.40625 
L 10.984375 69.390625 
L 28.421875 72.90625 
L 38.28125 72.90625 
L 38.28125 8.296875 
L 54.390625 8.296875 
L 54.390625 0 
L 12.40625 0 
z
" id="DejaVuSans-49"/>
      </defs>
      <g transform="translate(31.5125 256.354453)scale(0.1 -0.1)">
       <use xlink:href="#DejaVuSans-49"/>
       <use x="63.623047" xlink:href="#DejaVuSans-48"/>
       <use x="127.246094" xlink:href="#DejaVuSans-48"/>
      </g>
     </g>
    </g>
    <g id="ytick_3">
     <g id="line2d_8">
      <g>
       <use style="stroke:#000000;stroke-width:0.8;" x="57.6" xlink:href="#m1dfea80ed7" y="213.634931"/>
      </g>
     </g>
     <g id="text_9">
      <!-- 200 -->
      <g transform="translate(31.5125 217.43415)scale(0.1 -0.1)">
       <use xlink:href="#DejaVuSans-50"/>
       <use x="63.623047" xlink:href="#DejaVuSans-48"/>
       <use x="127.246094" xlink:href="#DejaVuSans-48"/>
      </g>
     </g>
    </g>
    <g id="ytick_4">
     <g id="line2d_9">
      <g>
       <use style="stroke:#000000;stroke-width:0.8;" x="57.6" xlink:href="#m1dfea80ed7" y="174.714628"/>
      </g>
     </g>
     <g id="text_10">
      <!-- 300 -->
      <defs>
       <path d="M 40.578125 39.3125 
Q 47.65625 37.796875 51.625 33 
Q 55.609375 28.21875 55.609375 21.1875 
Q 55.609375 10.40625 48.1875 4.484375 
Q 40.765625 -1.421875 27.09375 -1.421875 
Q 22.515625 -1.421875 17.65625 -0.515625 
Q 12.796875 0.390625 7.625 2.203125 
L 7.625 11.71875 
Q 11.71875 9.328125 16.59375 8.109375 
Q 21.484375 6.890625 26.8125 6.890625 
Q 36.078125 6.890625 40.9375 10.546875 
Q 45.796875 14.203125 45.796875 21.1875 
Q 45.796875 27.640625 41.28125 31.265625 
Q 36.765625 34.90625 28.71875 34.90625 
L 20.21875 34.90625 
L 20.21875 43.015625 
L 29.109375 43.015625 
Q 36.375 43.015625 40.234375 45.921875 
Q 44.09375 48.828125 44.09375 54.296875 
Q 44.09375 59.90625 40.109375 62.90625 
Q 36.140625 65.921875 28.71875 65.921875 
Q 24.65625 65.921875 20.015625 65.03125 
Q 15.375 64.15625 9.8125 62.3125 
L 9.8125 71.09375 
Q 15.4375 72.65625 20.34375 73.4375 
Q 25.25 74.21875 29.59375 74.21875 
Q 40.828125 74.21875 47.359375 69.109375 
Q 53.90625 64.015625 53.90625 55.328125 
Q 53.90625 49.265625 50.4375 45.09375 
Q 46.96875 40.921875 40.578125 39.3125 
z
" id="DejaVuSans-51"/>
      </defs>
      <g transform="translate(31.5125 178.513847)scale(0.1 -0.1)">
       <use xlink:href="#DejaVuSans-51"/>
       <use x="63.623047" xlink:href="#DejaVuSans-48"/>
       <use x="127.246094" xlink:href="#DejaVuSans-48"/>
      </g>
     </g>
    </g>
    <g id="ytick_5">
     <g id="line2d_10">
      <g>
       <use style="stroke:#000000;stroke-width:0.8;" x="57.6" xlink:href="#m1dfea80ed7" y="135.794325"/>
      </g>
     </g>
     <g id="text_11">
      <!-- 400 -->
      <g transform="translate(31.5125 139.593544)scale(0.1 -0.1)">
       <use xlink:href="#DejaVuSans-52"/>
       <use x="63.623047" xlink:href="#DejaVuSans-48"/>
       <use x="127.246094" xlink:href="#DejaVuSans-48"/>
      </g>
     </g>
    </g>
    <g id="ytick_6">
     <g id="line2d_11">
      <g>
       <use style="stroke:#000000;stroke-width:0.8;" x="57.6" xlink:href="#m1dfea80ed7" y="96.874022"/>
      </g>
     </g>
     <g id="text_12">
      <!-- 500 -->
      <defs>
       <path d="M 10.796875 72.90625 
L 49.515625 72.90625 
L 49.515625 64.59375 
L 19.828125 64.59375 
L 19.828125 46.734375 
Q 21.96875 47.46875 24.109375 47.828125 
Q 26.265625 48.1875 28.421875 48.1875 
Q 40.625 48.1875 47.75 41.5 
Q 54.890625 34.8125 54.890625 23.390625 
Q 54.890625 11.625 47.5625 5.09375 
Q 40.234375 -1.421875 26.90625 -1.421875 
Q 22.3125 -1.421875 17.546875 -0.640625 
Q 12.796875 0.140625 7.71875 1.703125 
L 7.71875 11.625 
Q 12.109375 9.234375 16.796875 8.0625 
Q 21.484375 6.890625 26.703125 6.890625 
Q 35.15625 6.890625 40.078125 11.328125 
Q 45.015625 15.765625 45.015625 23.390625 
Q 45.015625 31 40.078125 35.4375 
Q 35.15625 39.890625 26.703125 39.890625 
Q 22.75 39.890625 18.8125 39.015625 
Q 14.890625 38.140625 10.796875 36.28125 
z
" id="DejaVuSans-53"/>
      </defs>
      <g transform="translate(31.5125 100.673241)scale(0.1 -0.1)">
       <use xlink:href="#DejaVuSans-53"/>
       <use x="63.623047" xlink:href="#DejaVuSans-48"/>
       <use x="127.246094" xlink:href="#DejaVuSans-48"/>
      </g>
     </g>
    </g>
    <g id="ytick_7">
     <g id="line2d_12">
      <g>
       <use style="stroke:#000000;stroke-width:0.8;" x="57.6" xlink:href="#m1dfea80ed7" y="57.953719"/>
      </g>
     </g>
     <g id="text_13">
      <!-- 600 -->
      <g transform="translate(31.5125 61.752938)scale(0.1 -0.1)">
       <use xlink:href="#DejaVuSans-54"/>
       <use x="63.623047" xlink:href="#DejaVuSans-48"/>
       <use x="127.246094" xlink:href="#DejaVuSans-48"/>
      </g>
     </g>
    </g>
    <g id="text_14">
     <!-- y values -->
     <defs>
      <path d="M 32.171875 -5.078125 
Q 28.375 -14.84375 24.75 -17.8125 
Q 21.140625 -20.796875 15.09375 -20.796875 
L 7.90625 -20.796875 
L 7.90625 -13.28125 
L 13.1875 -13.28125 
Q 16.890625 -13.28125 18.9375 -11.515625 
Q 21 -9.765625 23.484375 -3.21875 
L 25.09375 0.875 
L 2.984375 54.6875 
L 12.5 54.6875 
L 29.59375 11.921875 
L 46.6875 54.6875 
L 56.203125 54.6875 
z
" id="DejaVuSans-121"/>
     </defs>
     <g transform="translate(25.432812 195.338937)rotate(-90)scale(0.1 -0.1)">
      <use xlink:href="#DejaVuSans-121"/>
      <use x="59.179688" xlink:href="#DejaVuSans-32"/>
      <use x="90.966797" xlink:href="#DejaVuSans-118"/>
      <use x="150.146484" xlink:href="#DejaVuSans-97"/>
      <use x="211.425781" xlink:href="#DejaVuSans-108"/>
      <use x="239.208984" xlink:href="#DejaVuSans-117"/>
      <use x="302.587891" xlink:href="#DejaVuSans-101"/>
      <use x="364.111328" xlink:href="#DejaVuSans-115"/>
     </g>
    </g>
   </g>
   <g id="line2d_13">
    <defs>
     <path d="M 0 1 
C 0.265203 1 0.51958 0.894634 0.707107 0.707107 
C 0.894634 0.51958 1 0.265203 1 0 
C 1 -0.265203 0.894634 -0.51958 0.707107 -0.707107 
C 0.51958 -0.894634 0.265203 -1 0 -1 
C -0.265203 -1 -0.51958 -0.894634 -0.707107 -0.707107 
C -0.894634 -0.51958 -1 -0.265203 -1 0 
C -1 0.265203 -0.894634 0.51958 -0.707107 0.707107 
C -0.51958 0.894634 -0.265203 1 0 1 
z
" id="m4815922e58" style="stroke:#ff0000;"/>
    </defs>
    <g clip-path="url(#p5c4f83d702)">
     <use style="fill:#ff0000;stroke:#ff0000;" x="73.832727" xlink:href="#m4815922e58" y="53.568"/>
     <use style="fill:#ff0000;stroke:#ff0000;" x="75.105882" xlink:href="#m4815922e58" y="62.924222"/>
     <use style="fill:#ff0000;stroke:#ff0000;" x="76.379037" xlink:href="#m4815922e58" y="84.656346"/>
     <use style="fill:#ff0000;stroke:#ff0000;" x="77.652193" xlink:href="#m4815922e58" y="67.884401"/>
     <use style="fill:#ff0000;stroke:#ff0000;" x="78.925348" xlink:href="#m4815922e58" y="107.859905"/>
     <use style="fill:#ff0000;stroke:#ff0000;" x="80.198503" xlink:href="#m4815922e58" y="87.617017"/>
     <use style="fill:#ff0000;stroke:#ff0000;" x="81.471658" xlink:href="#m4815922e58" y="105.445243"/>
     <use style="fill:#ff0000;stroke:#ff0000;" x="82.744813" xlink:href="#m4815922e58" y="133.395392"/>
     <use style="fill:#ff0000;stroke:#ff0000;" x="84.017968" xlink:href="#m4815922e58" y="94.043315"/>
     <use style="fill:#ff0000;stroke:#ff0000;" x="85.291123" xlink:href="#m4815922e58" y="81.967634"/>
     <use style="fill:#ff0000;stroke:#ff0000;" x="86.564278" xlink:href="#m4815922e58" y="78.748251"/>
     <use style="fill:#ff0000;stroke:#ff0000;" x="87.837433" xlink:href="#m4815922e58" y="114.129791"/>
     <use style="fill:#ff0000;stroke:#ff0000;" x="89.110588" xlink:href="#m4815922e58" y="115.662754"/>
     <use style="fill:#ff0000;stroke:#ff0000;" x="90.383743" xlink:href="#m4815922e58" y="101.367869"/>
     <use style="fill:#ff0000;stroke:#ff0000;" x="91.656898" xlink:href="#m4815922e58" y="83.003363"/>
     <use style="fill:#ff0000;stroke:#ff0000;" x="92.930053" xlink:href="#m4815922e58" y="76.316573"/>
     <use style="fill:#ff0000;stroke:#ff0000;" x="94.203209" xlink:href="#m4815922e58" y="78.459824"/>
     <use style="fill:#ff0000;stroke:#ff0000;" x="95.476364" xlink:href="#m4815922e58" y="76.008647"/>
     <use style="fill:#ff0000;stroke:#ff0000;" x="96.749519" xlink:href="#m4815922e58" y="141.623155"/>
     <use style="fill:#ff0000;stroke:#ff0000;" x="98.022674" xlink:href="#m4815922e58" y="123.773011"/>
     <use style="fill:#ff0000;stroke:#ff0000;" x="99.295829" xlink:href="#m4815922e58" y="87.701506"/>
     <use style="fill:#ff0000;stroke:#ff0000;" x="100.568984" xlink:href="#m4815922e58" y="126.769609"/>
     <use style="fill:#ff0000;stroke:#ff0000;" x="101.842139" xlink:href="#m4815922e58" y="132.649542"/>
     <use style="fill:#ff0000;stroke:#ff0000;" x="103.115294" xlink:href="#m4815922e58" y="104.29364"/>
     <use style="fill:#ff0000;stroke:#ff0000;" x="104.388449" xlink:href="#m4815922e58" y="95.40555"/>
     <use style="fill:#ff0000;stroke:#ff0000;" x="105.661604" xlink:href="#m4815922e58" y="135.867856"/>
     <use style="fill:#ff0000;stroke:#ff0000;" x="106.934759" xlink:href="#m4815922e58" y="103.70616"/>
     <use style="fill:#ff0000;stroke:#ff0000;" x="108.207914" xlink:href="#m4815922e58" y="151.984316"/>
     <use style="fill:#ff0000;stroke:#ff0000;" x="109.48107" xlink:href="#m4815922e58" y="131.639161"/>
     <use style="fill:#ff0000;stroke:#ff0000;" x="110.754225" xlink:href="#m4815922e58" y="138.31107"/>
     <use style="fill:#ff0000;stroke:#ff0000;" x="112.02738" xlink:href="#m4815922e58" y="147.656392"/>
     <use style="fill:#ff0000;stroke:#ff0000;" x="113.300535" xlink:href="#m4815922e58" y="120.097922"/>
     <use style="fill:#ff0000;stroke:#ff0000;" x="114.57369" xlink:href="#m4815922e58" y="136.606635"/>
     <use style="fill:#ff0000;stroke:#ff0000;" x="115.846845" xlink:href="#m4815922e58" y="155.050951"/>
     <use style="fill:#ff0000;stroke:#ff0000;" x="117.12" xlink:href="#m4815922e58" y="128.831068"/>
     <use style="fill:#ff0000;stroke:#ff0000;" x="118.393155" xlink:href="#m4815922e58" y="152.278541"/>
     <use style="fill:#ff0000;stroke:#ff0000;" x="119.66631" xlink:href="#m4815922e58" y="180.148793"/>
     <use style="fill:#ff0000;stroke:#ff0000;" x="120.939465" xlink:href="#m4815922e58" y="170.691321"/>
     <use style="fill:#ff0000;stroke:#ff0000;" x="122.21262" xlink:href="#m4815922e58" y="166.132753"/>
     <use style="fill:#ff0000;stroke:#ff0000;" x="123.485775" xlink:href="#m4815922e58" y="153.296726"/>
     <use style="fill:#ff0000;stroke:#ff0000;" x="124.75893" xlink:href="#m4815922e58" y="179.94906"/>
     <use style="fill:#ff0000;stroke:#ff0000;" x="126.032086" xlink:href="#m4815922e58" y="167.619242"/>
     <use style="fill:#ff0000;stroke:#ff0000;" x="127.305241" xlink:href="#m4815922e58" y="165.59537"/>
     <use style="fill:#ff0000;stroke:#ff0000;" x="128.578396" xlink:href="#m4815922e58" y="142.576612"/>
     <use style="fill:#ff0000;stroke:#ff0000;" x="129.851551" xlink:href="#m4815922e58" y="172.687065"/>
     <use style="fill:#ff0000;stroke:#ff0000;" x="131.124706" xlink:href="#m4815922e58" y="136.721873"/>
     <use style="fill:#ff0000;stroke:#ff0000;" x="132.397861" xlink:href="#m4815922e58" y="155.408787"/>
     <use style="fill:#ff0000;stroke:#ff0000;" x="133.671016" xlink:href="#m4815922e58" y="151.836214"/>
     <use style="fill:#ff0000;stroke:#ff0000;" x="134.944171" xlink:href="#m4815922e58" y="171.928353"/>
     <use style="fill:#ff0000;stroke:#ff0000;" x="136.217326" xlink:href="#m4815922e58" y="157.699216"/>
     <use style="fill:#ff0000;stroke:#ff0000;" x="137.490481" xlink:href="#m4815922e58" y="186.537821"/>
     <use style="fill:#ff0000;stroke:#ff0000;" x="138.763636" xlink:href="#m4815922e58" y="168.914643"/>
     <use style="fill:#ff0000;stroke:#ff0000;" x="140.036791" xlink:href="#m4815922e58" y="186.465215"/>
     <use style="fill:#ff0000;stroke:#ff0000;" x="141.309947" xlink:href="#m4815922e58" y="159.647179"/>
     <use style="fill:#ff0000;stroke:#ff0000;" x="142.583102" xlink:href="#m4815922e58" y="203.901826"/>
     <use style="fill:#ff0000;stroke:#ff0000;" x="143.856257" xlink:href="#m4815922e58" y="180.208491"/>
     <use style="fill:#ff0000;stroke:#ff0000;" x="145.129412" xlink:href="#m4815922e58" y="154.834179"/>
     <use style="fill:#ff0000;stroke:#ff0000;" x="146.402567" xlink:href="#m4815922e58" y="193.771494"/>
     <use style="fill:#ff0000;stroke:#ff0000;" x="147.675722" xlink:href="#m4815922e58" y="168.188519"/>
     <use style="fill:#ff0000;stroke:#ff0000;" x="148.948877" xlink:href="#m4815922e58" y="196.450932"/>
     <use style="fill:#ff0000;stroke:#ff0000;" x="150.222032" xlink:href="#m4815922e58" y="168.453733"/>
     <use style="fill:#ff0000;stroke:#ff0000;" x="151.495187" xlink:href="#m4815922e58" y="175.161514"/>
     <use style="fill:#ff0000;stroke:#ff0000;" x="152.768342" xlink:href="#m4815922e58" y="171.872402"/>
     <use style="fill:#ff0000;stroke:#ff0000;" x="154.041497" xlink:href="#m4815922e58" y="179.080233"/>
     <use style="fill:#ff0000;stroke:#ff0000;" x="155.314652" xlink:href="#m4815922e58" y="187.327465"/>
     <use style="fill:#ff0000;stroke:#ff0000;" x="156.587807" xlink:href="#m4815922e58" y="182.030104"/>
     <use style="fill:#ff0000;stroke:#ff0000;" x="157.860963" xlink:href="#m4815922e58" y="198.177628"/>
     <use style="fill:#ff0000;stroke:#ff0000;" x="159.134118" xlink:href="#m4815922e58" y="195.386356"/>
     <use style="fill:#ff0000;stroke:#ff0000;" x="160.407273" xlink:href="#m4815922e58" y="181.170491"/>
     <use style="fill:#ff0000;stroke:#ff0000;" x="161.680428" xlink:href="#m4815922e58" y="204.569527"/>
     <use style="fill:#ff0000;stroke:#ff0000;" x="162.953583" xlink:href="#m4815922e58" y="208.664177"/>
     <use style="fill:#ff0000;stroke:#ff0000;" x="164.226738" xlink:href="#m4815922e58" y="198.336479"/>
     <use style="fill:#ff0000;stroke:#ff0000;" x="165.499893" xlink:href="#m4815922e58" y="210.434781"/>
     <use style="fill:#ff0000;stroke:#ff0000;" x="166.773048" xlink:href="#m4815922e58" y="216.000867"/>
     <use style="fill:#ff0000;stroke:#ff0000;" x="168.046203" xlink:href="#m4815922e58" y="206.555773"/>
     <use style="fill:#ff0000;stroke:#ff0000;" x="169.319358" xlink:href="#m4815922e58" y="190.388285"/>
     <use style="fill:#ff0000;stroke:#ff0000;" x="170.592513" xlink:href="#m4815922e58" y="221.881647"/>
     <use style="fill:#ff0000;stroke:#ff0000;" x="171.865668" xlink:href="#m4815922e58" y="225.486761"/>
     <use style="fill:#ff0000;stroke:#ff0000;" x="173.138824" xlink:href="#m4815922e58" y="202.173626"/>
     <use style="fill:#ff0000;stroke:#ff0000;" x="174.411979" xlink:href="#m4815922e58" y="196.084048"/>
     <use style="fill:#ff0000;stroke:#ff0000;" x="175.685134" xlink:href="#m4815922e58" y="230.591418"/>
     <use style="fill:#ff0000;stroke:#ff0000;" x="176.958289" xlink:href="#m4815922e58" y="212.103747"/>
     <use style="fill:#ff0000;stroke:#ff0000;" x="178.231444" xlink:href="#m4815922e58" y="221.551657"/>
     <use style="fill:#ff0000;stroke:#ff0000;" x="179.504599" xlink:href="#m4815922e58" y="221.050335"/>
     <use style="fill:#ff0000;stroke:#ff0000;" x="180.777754" xlink:href="#m4815922e58" y="224.873658"/>
     <use style="fill:#ff0000;stroke:#ff0000;" x="182.050909" xlink:href="#m4815922e58" y="214.277283"/>
     <use style="fill:#ff0000;stroke:#ff0000;" x="183.324064" xlink:href="#m4815922e58" y="227.815941"/>
     <use style="fill:#ff0000;stroke:#ff0000;" x="184.597219" xlink:href="#m4815922e58" y="230.432127"/>
     <use style="fill:#ff0000;stroke:#ff0000;" x="185.870374" xlink:href="#m4815922e58" y="223.610504"/>
     <use style="fill:#ff0000;stroke:#ff0000;" x="187.143529" xlink:href="#m4815922e58" y="236.374675"/>
     <use style="fill:#ff0000;stroke:#ff0000;" x="188.416684" xlink:href="#m4815922e58" y="216.81269"/>
     <use style="fill:#ff0000;stroke:#ff0000;" x="189.68984" xlink:href="#m4815922e58" y="230.421783"/>
     <use style="fill:#ff0000;stroke:#ff0000;" x="190.962995" xlink:href="#m4815922e58" y="245.802064"/>
     <use style="fill:#ff0000;stroke:#ff0000;" x="192.23615" xlink:href="#m4815922e58" y="226.549074"/>
     <use style="fill:#ff0000;stroke:#ff0000;" x="193.509305" xlink:href="#m4815922e58" y="234.769542"/>
     <use style="fill:#ff0000;stroke:#ff0000;" x="194.78246" xlink:href="#m4815922e58" y="231.753809"/>
     <use style="fill:#ff0000;stroke:#ff0000;" x="196.055615" xlink:href="#m4815922e58" y="222.491999"/>
     <use style="fill:#ff0000;stroke:#ff0000;" x="197.32877" xlink:href="#m4815922e58" y="238.224946"/>
     <use style="fill:#ff0000;stroke:#ff0000;" x="198.601925" xlink:href="#m4815922e58" y="224.193899"/>
     <use style="fill:#ff0000;stroke:#ff0000;" x="199.87508" xlink:href="#m4815922e58" y="231.178925"/>
     <use style="fill:#ff0000;stroke:#ff0000;" x="201.148235" xlink:href="#m4815922e58" y="225.252705"/>
     <use style="fill:#ff0000;stroke:#ff0000;" x="202.42139" xlink:href="#m4815922e58" y="245.027772"/>
     <use style="fill:#ff0000;stroke:#ff0000;" x="203.694545" xlink:href="#m4815922e58" y="234.17909"/>
     <use style="fill:#ff0000;stroke:#ff0000;" x="204.967701" xlink:href="#m4815922e58" y="249.045894"/>
     <use style="fill:#ff0000;stroke:#ff0000;" x="206.240856" xlink:href="#m4815922e58" y="247.853157"/>
     <use style="fill:#ff0000;stroke:#ff0000;" x="207.514011" xlink:href="#m4815922e58" y="235.52745"/>
     <use style="fill:#ff0000;stroke:#ff0000;" x="208.787166" xlink:href="#m4815922e58" y="242.920012"/>
     <use style="fill:#ff0000;stroke:#ff0000;" x="210.060321" xlink:href="#m4815922e58" y="244.545929"/>
     <use style="fill:#ff0000;stroke:#ff0000;" x="211.333476" xlink:href="#m4815922e58" y="235.459343"/>
     <use style="fill:#ff0000;stroke:#ff0000;" x="212.606631" xlink:href="#m4815922e58" y="241.763015"/>
     <use style="fill:#ff0000;stroke:#ff0000;" x="213.879786" xlink:href="#m4815922e58" y="240.458212"/>
     <use style="fill:#ff0000;stroke:#ff0000;" x="215.152941" xlink:href="#m4815922e58" y="240.698717"/>
     <use style="fill:#ff0000;stroke:#ff0000;" x="216.426096" xlink:href="#m4815922e58" y="249.35137"/>
     <use style="fill:#ff0000;stroke:#ff0000;" x="217.699251" xlink:href="#m4815922e58" y="242.057399"/>
     <use style="fill:#ff0000;stroke:#ff0000;" x="218.972406" xlink:href="#m4815922e58" y="244.287381"/>
     <use style="fill:#ff0000;stroke:#ff0000;" x="220.245561" xlink:href="#m4815922e58" y="248.436548"/>
     <use style="fill:#ff0000;stroke:#ff0000;" x="221.518717" xlink:href="#m4815922e58" y="259.449559"/>
     <use style="fill:#ff0000;stroke:#ff0000;" x="222.791872" xlink:href="#m4815922e58" y="263.167255"/>
     <use style="fill:#ff0000;stroke:#ff0000;" x="224.065027" xlink:href="#m4815922e58" y="245.810408"/>
     <use style="fill:#ff0000;stroke:#ff0000;" x="225.338182" xlink:href="#m4815922e58" y="238.34818"/>
     <use style="fill:#ff0000;stroke:#ff0000;" x="226.611337" xlink:href="#m4815922e58" y="254.152609"/>
     <use style="fill:#ff0000;stroke:#ff0000;" x="227.884492" xlink:href="#m4815922e58" y="245.192046"/>
     <use style="fill:#ff0000;stroke:#ff0000;" x="229.157647" xlink:href="#m4815922e58" y="257.041879"/>
     <use style="fill:#ff0000;stroke:#ff0000;" x="230.430802" xlink:href="#m4815922e58" y="266.35205"/>
     <use style="fill:#ff0000;stroke:#ff0000;" x="231.703957" xlink:href="#m4815922e58" y="250.191584"/>
     <use style="fill:#ff0000;stroke:#ff0000;" x="232.977112" xlink:href="#m4815922e58" y="248.049279"/>
     <use style="fill:#ff0000;stroke:#ff0000;" x="234.250267" xlink:href="#m4815922e58" y="255.700251"/>
     <use style="fill:#ff0000;stroke:#ff0000;" x="235.523422" xlink:href="#m4815922e58" y="257.316153"/>
     <use style="fill:#ff0000;stroke:#ff0000;" x="236.796578" xlink:href="#m4815922e58" y="250.378116"/>
     <use style="fill:#ff0000;stroke:#ff0000;" x="238.069733" xlink:href="#m4815922e58" y="275.156915"/>
     <use style="fill:#ff0000;stroke:#ff0000;" x="239.342888" xlink:href="#m4815922e58" y="265.849302"/>
     <use style="fill:#ff0000;stroke:#ff0000;" x="240.616043" xlink:href="#m4815922e58" y="261.933079"/>
     <use style="fill:#ff0000;stroke:#ff0000;" x="241.889198" xlink:href="#m4815922e58" y="268.371239"/>
     <use style="fill:#ff0000;stroke:#ff0000;" x="243.162353" xlink:href="#m4815922e58" y="274.587702"/>
     <use style="fill:#ff0000;stroke:#ff0000;" x="244.435508" xlink:href="#m4815922e58" y="259.140611"/>
     <use style="fill:#ff0000;stroke:#ff0000;" x="245.708663" xlink:href="#m4815922e58" y="262.714955"/>
     <use style="fill:#ff0000;stroke:#ff0000;" x="246.981818" xlink:href="#m4815922e58" y="271.965582"/>
     <use style="fill:#ff0000;stroke:#ff0000;" x="248.254973" xlink:href="#m4815922e58" y="272.918737"/>
     <use style="fill:#ff0000;stroke:#ff0000;" x="249.528128" xlink:href="#m4815922e58" y="266.236655"/>
     <use style="fill:#ff0000;stroke:#ff0000;" x="250.801283" xlink:href="#m4815922e58" y="261.392431"/>
     <use style="fill:#ff0000;stroke:#ff0000;" x="252.074439" xlink:href="#m4815922e58" y="271.82309"/>
     <use style="fill:#ff0000;stroke:#ff0000;" x="253.347594" xlink:href="#m4815922e58" y="279.30366"/>
     <use style="fill:#ff0000;stroke:#ff0000;" x="254.620749" xlink:href="#m4815922e58" y="277.551243"/>
     <use style="fill:#ff0000;stroke:#ff0000;" x="255.893904" xlink:href="#m4815922e58" y="277.790624"/>
     <use style="fill:#ff0000;stroke:#ff0000;" x="257.167059" xlink:href="#m4815922e58" y="259.177234"/>
     <use style="fill:#ff0000;stroke:#ff0000;" x="258.440214" xlink:href="#m4815922e58" y="272.517718"/>
     <use style="fill:#ff0000;stroke:#ff0000;" x="259.713369" xlink:href="#m4815922e58" y="270.003769"/>
     <use style="fill:#ff0000;stroke:#ff0000;" x="260.986524" xlink:href="#m4815922e58" y="268.165301"/>
     <use style="fill:#ff0000;stroke:#ff0000;" x="262.259679" xlink:href="#m4815922e58" y="273.733866"/>
     <use style="fill:#ff0000;stroke:#ff0000;" x="263.532834" xlink:href="#m4815922e58" y="279.233447"/>
     <use style="fill:#ff0000;stroke:#ff0000;" x="264.805989" xlink:href="#m4815922e58" y="275.934728"/>
     <use style="fill:#ff0000;stroke:#ff0000;" x="266.079144" xlink:href="#m4815922e58" y="270.154418"/>
     <use style="fill:#ff0000;stroke:#ff0000;" x="267.352299" xlink:href="#m4815922e58" y="278.148406"/>
     <use style="fill:#ff0000;stroke:#ff0000;" x="268.625455" xlink:href="#m4815922e58" y="268.02841"/>
     <use style="fill:#ff0000;stroke:#ff0000;" x="269.89861" xlink:href="#m4815922e58" y="284.759031"/>
     <use style="fill:#ff0000;stroke:#ff0000;" x="271.171765" xlink:href="#m4815922e58" y="278.494119"/>
     <use style="fill:#ff0000;stroke:#ff0000;" x="272.44492" xlink:href="#m4815922e58" y="272.528914"/>
     <use style="fill:#ff0000;stroke:#ff0000;" x="273.718075" xlink:href="#m4815922e58" y="271.592237"/>
     <use style="fill:#ff0000;stroke:#ff0000;" x="274.99123" xlink:href="#m4815922e58" y="271.206275"/>
     <use style="fill:#ff0000;stroke:#ff0000;" x="276.264385" xlink:href="#m4815922e58" y="283.760194"/>
     <use style="fill:#ff0000;stroke:#ff0000;" x="277.53754" xlink:href="#m4815922e58" y="276.949942"/>
     <use style="fill:#ff0000;stroke:#ff0000;" x="278.810695" xlink:href="#m4815922e58" y="270.367706"/>
     <use style="fill:#ff0000;stroke:#ff0000;" x="280.08385" xlink:href="#m4815922e58" y="283.776244"/>
     <use style="fill:#ff0000;stroke:#ff0000;" x="281.357005" xlink:href="#m4815922e58" y="273.343268"/>
     <use style="fill:#ff0000;stroke:#ff0000;" x="282.63016" xlink:href="#m4815922e58" y="275.860246"/>
     <use style="fill:#ff0000;stroke:#ff0000;" x="283.903316" xlink:href="#m4815922e58" y="288.134801"/>
     <use style="fill:#ff0000;stroke:#ff0000;" x="285.176471" xlink:href="#m4815922e58" y="287.931723"/>
     <use style="fill:#ff0000;stroke:#ff0000;" x="286.449626" xlink:href="#m4815922e58" y="283.03386"/>
     <use style="fill:#ff0000;stroke:#ff0000;" x="287.722781" xlink:href="#m4815922e58" y="275.773283"/>
     <use style="fill:#ff0000;stroke:#ff0000;" x="288.995936" xlink:href="#m4815922e58" y="280.242207"/>
     <use style="fill:#ff0000;stroke:#ff0000;" x="290.269091" xlink:href="#m4815922e58" y="288.333883"/>
     <use style="fill:#ff0000;stroke:#ff0000;" x="291.542246" xlink:href="#m4815922e58" y="286.75574"/>
     <use style="fill:#ff0000;stroke:#ff0000;" x="292.815401" xlink:href="#m4815922e58" y="285.493825"/>
     <use style="fill:#ff0000;stroke:#ff0000;" x="294.088556" xlink:href="#m4815922e58" y="281.379678"/>
     <use style="fill:#ff0000;stroke:#ff0000;" x="295.361711" xlink:href="#m4815922e58" y="288.527662"/>
     <use style="fill:#ff0000;stroke:#ff0000;" x="296.634866" xlink:href="#m4815922e58" y="292.73778"/>
     <use style="fill:#ff0000;stroke:#ff0000;" x="297.908021" xlink:href="#m4815922e58" y="280.081129"/>
     <use style="fill:#ff0000;stroke:#ff0000;" x="299.181176" xlink:href="#m4815922e58" y="284.768242"/>
     <use style="fill:#ff0000;stroke:#ff0000;" x="300.454332" xlink:href="#m4815922e58" y="279.661371"/>
     <use style="fill:#ff0000;stroke:#ff0000;" x="301.727487" xlink:href="#m4815922e58" y="279.766564"/>
     <use style="fill:#ff0000;stroke:#ff0000;" x="303.000642" xlink:href="#m4815922e58" y="278.187014"/>
     <use style="fill:#ff0000;stroke:#ff0000;" x="304.273797" xlink:href="#m4815922e58" y="279.637374"/>
     <use style="fill:#ff0000;stroke:#ff0000;" x="305.546952" xlink:href="#m4815922e58" y="289.388303"/>
     <use style="fill:#ff0000;stroke:#ff0000;" x="306.820107" xlink:href="#m4815922e58" y="279.651882"/>
     <use style="fill:#ff0000;stroke:#ff0000;" x="308.093262" xlink:href="#m4815922e58" y="288.455382"/>
     <use style="fill:#ff0000;stroke:#ff0000;" x="309.366417" xlink:href="#m4815922e58" y="280.676203"/>
     <use style="fill:#ff0000;stroke:#ff0000;" x="310.639572" xlink:href="#m4815922e58" y="291.187747"/>
     <use style="fill:#ff0000;stroke:#ff0000;" x="311.912727" xlink:href="#m4815922e58" y="283.917929"/>
     <use style="fill:#ff0000;stroke:#ff0000;" x="313.185882" xlink:href="#m4815922e58" y="286.807851"/>
     <use style="fill:#ff0000;stroke:#ff0000;" x="314.459037" xlink:href="#m4815922e58" y="281.090623"/>
     <use style="fill:#ff0000;stroke:#ff0000;" x="315.732193" xlink:href="#m4815922e58" y="279.810245"/>
     <use style="fill:#ff0000;stroke:#ff0000;" x="317.005348" xlink:href="#m4815922e58" y="278.910902"/>
     <use style="fill:#ff0000;stroke:#ff0000;" x="318.278503" xlink:href="#m4815922e58" y="280.738356"/>
     <use style="fill:#ff0000;stroke:#ff0000;" x="319.551658" xlink:href="#m4815922e58" y="286.692233"/>
     <use style="fill:#ff0000;stroke:#ff0000;" x="320.824813" xlink:href="#m4815922e58" y="278.232708"/>
     <use style="fill:#ff0000;stroke:#ff0000;" x="322.097968" xlink:href="#m4815922e58" y="291.826329"/>
     <use style="fill:#ff0000;stroke:#ff0000;" x="323.371123" xlink:href="#m4815922e58" y="280.555958"/>
     <use style="fill:#ff0000;stroke:#ff0000;" x="324.644278" xlink:href="#m4815922e58" y="295.034522"/>
     <use style="fill:#ff0000;stroke:#ff0000;" x="325.917433" xlink:href="#m4815922e58" y="281.355966"/>
     <use style="fill:#ff0000;stroke:#ff0000;" x="327.190588" xlink:href="#m4815922e58" y="288.233516"/>
     <use style="fill:#ff0000;stroke:#ff0000;" x="328.463743" xlink:href="#m4815922e58" y="281.961875"/>
     <use style="fill:#ff0000;stroke:#ff0000;" x="329.736898" xlink:href="#m4815922e58" y="281.627133"/>
     <use style="fill:#ff0000;stroke:#ff0000;" x="331.010053" xlink:href="#m4815922e58" y="289.171586"/>
     <use style="fill:#ff0000;stroke:#ff0000;" x="332.283209" xlink:href="#m4815922e58" y="287.208843"/>
     <use style="fill:#ff0000;stroke:#ff0000;" x="333.556364" xlink:href="#m4815922e58" y="286.330241"/>
     <use style="fill:#ff0000;stroke:#ff0000;" x="334.829519" xlink:href="#m4815922e58" y="293.305023"/>
     <use style="fill:#ff0000;stroke:#ff0000;" x="336.102674" xlink:href="#m4815922e58" y="292.377675"/>
     <use style="fill:#ff0000;stroke:#ff0000;" x="337.375829" xlink:href="#m4815922e58" y="295.488"/>
     <use style="fill:#ff0000;stroke:#ff0000;" x="338.648984" xlink:href="#m4815922e58" y="295.142227"/>
     <use style="fill:#ff0000;stroke:#ff0000;" x="339.922139" xlink:href="#m4815922e58" y="283.262958"/>
     <use style="fill:#ff0000;stroke:#ff0000;" x="341.195294" xlink:href="#m4815922e58" y="284.071734"/>
     <use style="fill:#ff0000;stroke:#ff0000;" x="342.468449" xlink:href="#m4815922e58" y="277.410344"/>
     <use style="fill:#ff0000;stroke:#ff0000;" x="343.741604" xlink:href="#m4815922e58" y="291.2107"/>
     <use style="fill:#ff0000;stroke:#ff0000;" x="345.014759" xlink:href="#m4815922e58" y="279.878987"/>
     <use style="fill:#ff0000;stroke:#ff0000;" x="346.287914" xlink:href="#m4815922e58" y="288.600554"/>
     <use style="fill:#ff0000;stroke:#ff0000;" x="347.56107" xlink:href="#m4815922e58" y="287.560625"/>
     <use style="fill:#ff0000;stroke:#ff0000;" x="348.834225" xlink:href="#m4815922e58" y="290.558533"/>
     <use style="fill:#ff0000;stroke:#ff0000;" x="350.10738" xlink:href="#m4815922e58" y="278.660147"/>
     <use style="fill:#ff0000;stroke:#ff0000;" x="351.380535" xlink:href="#m4815922e58" y="285.071893"/>
     <use style="fill:#ff0000;stroke:#ff0000;" x="352.65369" xlink:href="#m4815922e58" y="285.886669"/>
     <use style="fill:#ff0000;stroke:#ff0000;" x="353.926845" xlink:href="#m4815922e58" y="286.581676"/>
     <use style="fill:#ff0000;stroke:#ff0000;" x="355.2" xlink:href="#m4815922e58" y="279.449739"/>
     <use style="fill:#ff0000;stroke:#ff0000;" x="356.473155" xlink:href="#m4815922e58" y="286.448913"/>
     <use style="fill:#ff0000;stroke:#ff0000;" x="357.74631" xlink:href="#m4815922e58" y="287.906038"/>
     <use style="fill:#ff0000;stroke:#ff0000;" x="359.019465" xlink:href="#m4815922e58" y="284.954046"/>
     <use style="fill:#ff0000;stroke:#ff0000;" x="360.29262" xlink:href="#m4815922e58" y="287.468718"/>
     <use style="fill:#ff0000;stroke:#ff0000;" x="361.565775" xlink:href="#m4815922e58" y="285.982174"/>
     <use style="fill:#ff0000;stroke:#ff0000;" x="362.83893" xlink:href="#m4815922e58" y="291.919211"/>
     <use style="fill:#ff0000;stroke:#ff0000;" x="364.112086" xlink:href="#m4815922e58" y="278.991314"/>
     <use style="fill:#ff0000;stroke:#ff0000;" x="365.385241" xlink:href="#m4815922e58" y="280.161618"/>
     <use style="fill:#ff0000;stroke:#ff0000;" x="366.658396" xlink:href="#m4815922e58" y="277.360198"/>
     <use style="fill:#ff0000;stroke:#ff0000;" x="367.931551" xlink:href="#m4815922e58" y="279.861706"/>
     <use style="fill:#ff0000;stroke:#ff0000;" x="369.204706" xlink:href="#m4815922e58" y="279.742671"/>
     <use style="fill:#ff0000;stroke:#ff0000;" x="370.477861" xlink:href="#m4815922e58" y="274.072008"/>
     <use style="fill:#ff0000;stroke:#ff0000;" x="371.751016" xlink:href="#m4815922e58" y="274.158124"/>
     <use style="fill:#ff0000;stroke:#ff0000;" x="373.024171" xlink:href="#m4815922e58" y="288.674902"/>
     <use style="fill:#ff0000;stroke:#ff0000;" x="374.297326" xlink:href="#m4815922e58" y="291.371605"/>
     <use style="fill:#ff0000;stroke:#ff0000;" x="375.570481" xlink:href="#m4815922e58" y="271.023425"/>
     <use style="fill:#ff0000;stroke:#ff0000;" x="376.843636" xlink:href="#m4815922e58" y="271.867781"/>
     <use style="fill:#ff0000;stroke:#ff0000;" x="378.116791" xlink:href="#m4815922e58" y="281.30542"/>
     <use style="fill:#ff0000;stroke:#ff0000;" x="379.389947" xlink:href="#m4815922e58" y="275.3332"/>
     <use style="fill:#ff0000;stroke:#ff0000;" x="380.663102" xlink:href="#m4815922e58" y="275.361829"/>
     <use style="fill:#ff0000;stroke:#ff0000;" x="381.936257" xlink:href="#m4815922e58" y="276.760869"/>
     <use style="fill:#ff0000;stroke:#ff0000;" x="383.209412" xlink:href="#m4815922e58" y="276.134088"/>
     <use style="fill:#ff0000;stroke:#ff0000;" x="384.482567" xlink:href="#m4815922e58" y="277.477772"/>
     <use style="fill:#ff0000;stroke:#ff0000;" x="385.755722" xlink:href="#m4815922e58" y="277.569012"/>
     <use style="fill:#ff0000;stroke:#ff0000;" x="387.028877" xlink:href="#m4815922e58" y="286.290789"/>
     <use style="fill:#ff0000;stroke:#ff0000;" x="388.302032" xlink:href="#m4815922e58" y="270.210699"/>
     <use style="fill:#ff0000;stroke:#ff0000;" x="389.575187" xlink:href="#m4815922e58" y="271.994509"/>
     <use style="fill:#ff0000;stroke:#ff0000;" x="390.848342" xlink:href="#m4815922e58" y="278.866837"/>
     <use style="fill:#ff0000;stroke:#ff0000;" x="392.121497" xlink:href="#m4815922e58" y="276.174638"/>
     <use style="fill:#ff0000;stroke:#ff0000;" x="393.394652" xlink:href="#m4815922e58" y="275.140688"/>
     <use style="fill:#ff0000;stroke:#ff0000;" x="394.667807" xlink:href="#m4815922e58" y="268.119857"/>
     <use style="fill:#ff0000;stroke:#ff0000;" x="395.940963" xlink:href="#m4815922e58" y="274.544803"/>
     <use style="fill:#ff0000;stroke:#ff0000;" x="397.214118" xlink:href="#m4815922e58" y="279.187823"/>
     <use style="fill:#ff0000;stroke:#ff0000;" x="398.487273" xlink:href="#m4815922e58" y="279.166947"/>
    </g>
   </g>
   <g id="line2d_14">
    <path clip-path="url(#p5c4f83d702)" d="M 73.832727 76.242018 
L 81.471658 88.811952 
L 89.110588 100.995997 
L 96.749519 112.794154 
L 104.388449 124.206422 
L 112.02738 135.232802 
L 119.66631 145.873292 
L 127.305241 156.127895 
L 134.944171 165.996608 
L 142.583102 175.479433 
L 150.222032 184.576369 
L 157.860963 193.287417 
L 165.499893 201.612576 
L 173.138824 209.551846 
L 179.504599 215.873129 
L 185.870374 221.926433 
L 192.23615 227.711759 
L 198.601925 233.229107 
L 204.967701 238.478477 
L 211.333476 243.459868 
L 217.699251 248.173281 
L 224.065027 252.618716 
L 230.430802 256.796173 
L 236.796578 260.705651 
L 243.162353 264.347151 
L 249.528128 267.720674 
L 255.893904 270.826217 
L 262.259679 273.663783 
L 268.625455 276.23337 
L 274.99123 278.534979 
L 281.357005 280.56861 
L 287.722781 282.334263 
L 294.088556 283.831937 
L 300.454332 285.061633 
L 306.820107 286.023351 
L 313.185882 286.717091 
L 319.551658 287.142853 
L 325.917433 287.300636 
L 332.283209 287.190441 
L 338.648984 286.812268 
L 345.014759 286.166116 
L 351.380535 285.251987 
L 357.74631 284.069879 
L 364.112086 282.619793 
L 370.477861 280.901728 
L 376.843636 278.915686 
L 383.209412 276.661665 
L 389.575187 274.139666 
L 395.940963 271.349689 
L 398.487273 270.158664 
L 398.487273 270.158664 
" style="fill:none;stroke:#008000;stroke-linecap:square;stroke-width:1.5;"/>
   </g>
   <g id="patch_3">
    <path d="M 57.6 307.584 
L 57.6 41.472 
" style="fill:none;stroke:#000000;stroke-linecap:square;stroke-linejoin:miter;stroke-width:0.8;"/>
   </g>
   <g id="patch_4">
    <path d="M 414.72 307.584 
L 414.72 41.472 
" style="fill:none;stroke:#000000;stroke-linecap:square;stroke-linejoin:miter;stroke-width:0.8;"/>
   </g>
   <g id="patch_5">
    <path d="M 57.6 307.584 
L 414.72 307.584 
" style="fill:none;stroke:#000000;stroke-linecap:square;stroke-linejoin:miter;stroke-width:0.8;"/>
   </g>
   <g id="patch_6">
    <path d="M 57.6 41.472 
L 414.72 41.472 
" style="fill:none;stroke:#000000;stroke-linecap:square;stroke-linejoin:miter;stroke-width:0.8;"/>
   </g>
   <g id="text_15">
    <!-- FunctionFitting 29 -->
    <defs>
     <path d="M 9.8125 72.90625 
L 51.703125 72.90625 
L 51.703125 64.59375 
L 19.671875 64.59375 
L 19.671875 43.109375 
L 48.578125 43.109375 
L 48.578125 34.8125 
L 19.671875 34.8125 
L 19.671875 0 
L 9.8125 0 
z
" id="DejaVuSans-70"/>
     <path d="M 54.890625 33.015625 
L 54.890625 0 
L 45.90625 0 
L 45.90625 32.71875 
Q 45.90625 40.484375 42.875 44.328125 
Q 39.84375 48.1875 33.796875 48.1875 
Q 26.515625 48.1875 22.3125 43.546875 
Q 18.109375 38.921875 18.109375 30.90625 
L 18.109375 0 
L 9.078125 0 
L 9.078125 54.6875 
L 18.109375 54.6875 
L 18.109375 46.1875 
Q 21.34375 51.125 25.703125 53.5625 
Q 30.078125 56 35.796875 56 
Q 45.21875 56 50.046875 50.171875 
Q 54.890625 44.34375 54.890625 33.015625 
z
" id="DejaVuSans-110"/>
     <path d="M 48.78125 52.59375 
L 48.78125 44.1875 
Q 44.96875 46.296875 41.140625 47.34375 
Q 37.3125 48.390625 33.40625 48.390625 
Q 24.65625 48.390625 19.8125 42.84375 
Q 14.984375 37.3125 14.984375 27.296875 
Q 14.984375 17.28125 19.8125 11.734375 
Q 24.65625 6.203125 33.40625 6.203125 
Q 37.3125 6.203125 41.140625 7.25 
Q 44.96875 8.296875 48.78125 10.40625 
L 48.78125 2.09375 
Q 45.015625 0.34375 40.984375 -0.53125 
Q 36.96875 -1.421875 32.421875 -1.421875 
Q 20.0625 -1.421875 12.78125 6.34375 
Q 5.515625 14.109375 5.515625 27.296875 
Q 5.515625 40.671875 12.859375 48.328125 
Q 20.21875 56 33.015625 56 
Q 37.15625 56 41.109375 55.140625 
Q 45.0625 54.296875 48.78125 52.59375 
z
" id="DejaVuSans-99"/>
     <path d="M 18.3125 70.21875 
L 18.3125 54.6875 
L 36.8125 54.6875 
L 36.8125 47.703125 
L 18.3125 47.703125 
L 18.3125 18.015625 
Q 18.3125 11.328125 20.140625 9.421875 
Q 21.96875 7.515625 27.59375 7.515625 
L 36.8125 7.515625 
L 36.8125 0 
L 27.59375 0 
Q 17.1875 0 13.234375 3.875 
Q 9.28125 7.765625 9.28125 18.015625 
L 9.28125 47.703125 
L 2.6875 47.703125 
L 2.6875 54.6875 
L 9.28125 54.6875 
L 9.28125 70.21875 
z
" id="DejaVuSans-116"/>
     <path d="M 9.421875 54.6875 
L 18.40625 54.6875 
L 18.40625 0 
L 9.421875 0 
z
M 9.421875 75.984375 
L 18.40625 75.984375 
L 18.40625 64.59375 
L 9.421875 64.59375 
z
" id="DejaVuSans-105"/>
     <path d="M 30.609375 48.390625 
Q 23.390625 48.390625 19.1875 42.75 
Q 14.984375 37.109375 14.984375 27.296875 
Q 14.984375 17.484375 19.15625 11.84375 
Q 23.34375 6.203125 30.609375 6.203125 
Q 37.796875 6.203125 41.984375 11.859375 
Q 46.1875 17.53125 46.1875 27.296875 
Q 46.1875 37.015625 41.984375 42.703125 
Q 37.796875 48.390625 30.609375 48.390625 
z
M 30.609375 56 
Q 42.328125 56 49.015625 48.375 
Q 55.71875 40.765625 55.71875 27.296875 
Q 55.71875 13.875 49.015625 6.21875 
Q 42.328125 -1.421875 30.609375 -1.421875 
Q 18.84375 -1.421875 12.171875 6.21875 
Q 5.515625 13.875 5.515625 27.296875 
Q 5.515625 40.765625 12.171875 48.375 
Q 18.84375 56 30.609375 56 
z
" id="DejaVuSans-111"/>
     <path d="M 45.40625 27.984375 
Q 45.40625 37.75 41.375 43.109375 
Q 37.359375 48.484375 30.078125 48.484375 
Q 22.859375 48.484375 18.828125 43.109375 
Q 14.796875 37.75 14.796875 27.984375 
Q 14.796875 18.265625 18.828125 12.890625 
Q 22.859375 7.515625 30.078125 7.515625 
Q 37.359375 7.515625 41.375 12.890625 
Q 45.40625 18.265625 45.40625 27.984375 
z
M 54.390625 6.78125 
Q 54.390625 -7.171875 48.1875 -13.984375 
Q 42 -20.796875 29.203125 -20.796875 
Q 24.46875 -20.796875 20.265625 -20.09375 
Q 16.0625 -19.390625 12.109375 -17.921875 
L 12.109375 -9.1875 
Q 16.0625 -11.328125 19.921875 -12.34375 
Q 23.78125 -13.375 27.78125 -13.375 
Q 36.625 -13.375 41.015625 -8.765625 
Q 45.40625 -4.15625 45.40625 5.171875 
L 45.40625 9.625 
Q 42.625 4.78125 38.28125 2.390625 
Q 33.9375 0 27.875 0 
Q 17.828125 0 11.671875 7.65625 
Q 5.515625 15.328125 5.515625 27.984375 
Q 5.515625 40.671875 11.671875 48.328125 
Q 17.828125 56 27.875 56 
Q 33.9375 56 38.28125 53.609375 
Q 42.625 51.21875 45.40625 46.390625 
L 45.40625 54.6875 
L 54.390625 54.6875 
z
" id="DejaVuSans-103"/>
     <path d="M 10.984375 1.515625 
L 10.984375 10.5 
Q 14.703125 8.734375 18.5 7.8125 
Q 22.3125 6.890625 25.984375 6.890625 
Q 35.75 6.890625 40.890625 13.453125 
Q 46.046875 20.015625 46.78125 33.40625 
Q 43.953125 29.203125 39.59375 26.953125 
Q 35.25 24.703125 29.984375 24.703125 
Q 19.046875 24.703125 12.671875 31.3125 
Q 6.296875 37.9375 6.296875 49.421875 
Q 6.296875 60.640625 12.9375 67.421875 
Q 19.578125 74.21875 30.609375 74.21875 
Q 43.265625 74.21875 49.921875 64.515625 
Q 56.59375 54.828125 56.59375 36.375 
Q 56.59375 19.140625 48.40625 8.859375 
Q 40.234375 -1.421875 26.421875 -1.421875 
Q 22.703125 -1.421875 18.890625 -0.6875 
Q 15.09375 0.046875 10.984375 1.515625 
z
M 30.609375 32.421875 
Q 37.25 32.421875 41.125 36.953125 
Q 45.015625 41.5 45.015625 49.421875 
Q 45.015625 57.28125 41.125 61.84375 
Q 37.25 66.40625 30.609375 66.40625 
Q 23.96875 66.40625 20.09375 61.84375 
Q 16.21875 57.28125 16.21875 49.421875 
Q 16.21875 41.5 20.09375 36.953125 
Q 23.96875 32.421875 30.609375 32.421875 
z
" id="DejaVuSans-57"/>
    </defs>
    <g transform="translate(181.680937 35.472)scale(0.12 -0.12)">
     <use xlink:href="#DejaVuSans-70"/>
     <use x="57.441406" xlink:href="#DejaVuSans-117"/>
     <use x="120.820312" xlink:href="#DejaVuSans-110"/>
     <use x="184.199219" xlink:href="#DejaVuSans-99"/>
     <use x="239.179688" xlink:href="#DejaVuSans-116"/>
     <use x="278.388672" xlink:href="#DejaVuSans-105"/>
     <use x="306.171875" xlink:href="#DejaVuSans-111"/>
     <use x="367.353516" xlink:href="#DejaVuSans-110"/>
     <use x="430.732422" xlink:href="#DejaVuSans-70"/>
     <use x="488.142578" xlink:href="#DejaVuSans-105"/>
     <use x="515.925781" xlink:href="#DejaVuSans-116"/>
     <use x="555.134766" xlink:href="#DejaVuSans-116"/>
     <use x="594.34375" xlink:href="#DejaVuSans-105"/>
     <use x="622.126953" xlink:href="#DejaVuSans-110"/>
     <use x="685.505859" xlink:href="#DejaVuSans-103"/>
     <use x="748.982422" xlink:href="#DejaVuSans-32"/>
     <use x="780.769531" xlink:href="#DejaVuSans-50"/>
     <use x="844.392578" xlink:href="#DejaVuSans-57"/>
    </g>
   </g>
   <g id="legend_1">
    <g id="patch_7">
     <path d="M 299.83875 78.82825 
L 407.72 78.82825 
Q 409.72 78.82825 409.72 76.82825 
L 409.72 48.472 
Q 409.72 46.472 407.72 46.472 
L 299.83875 46.472 
Q 297.83875 46.472 297.83875 48.472 
L 297.83875 76.82825 
Q 297.83875 78.82825 299.83875 78.82825 
z
" style="fill:#ffffff;opacity:0.8;stroke:#cccccc;stroke-linejoin:miter;"/>
    </g>
    <g id="line2d_15"/>
    <g id="line2d_16">
     <g>
      <use style="fill:#ff0000;stroke:#ff0000;" x="311.83875" xlink:href="#m4815922e58" y="54.570437"/>
     </g>
    </g>
    <g id="text_16">
     <!-- measured data -->
     <defs>
      <path d="M 52 44.1875 
Q 55.375 50.25 60.0625 53.125 
Q 64.75 56 71.09375 56 
Q 79.640625 56 84.28125 50.015625 
Q 88.921875 44.046875 88.921875 33.015625 
L 88.921875 0 
L 79.890625 0 
L 79.890625 32.71875 
Q 79.890625 40.578125 77.09375 44.375 
Q 74.3125 48.1875 68.609375 48.1875 
Q 61.625 48.1875 57.5625 43.546875 
Q 53.515625 38.921875 53.515625 30.90625 
L 53.515625 0 
L 44.484375 0 
L 44.484375 32.71875 
Q 44.484375 40.625 41.703125 44.40625 
Q 38.921875 48.1875 33.109375 48.1875 
Q 26.21875 48.1875 22.15625 43.53125 
Q 18.109375 38.875 18.109375 30.90625 
L 18.109375 0 
L 9.078125 0 
L 9.078125 54.6875 
L 18.109375 54.6875 
L 18.109375 46.1875 
Q 21.1875 51.21875 25.484375 53.609375 
Q 29.78125 56 35.6875 56 
Q 41.65625 56 45.828125 52.96875 
Q 50 49.953125 52 44.1875 
z
" id="DejaVuSans-109"/>
      <path d="M 41.109375 46.296875 
Q 39.59375 47.171875 37.8125 47.578125 
Q 36.03125 48 33.890625 48 
Q 26.265625 48 22.1875 43.046875 
Q 18.109375 38.09375 18.109375 28.8125 
L 18.109375 0 
L 9.078125 0 
L 9.078125 54.6875 
L 18.109375 54.6875 
L 18.109375 46.1875 
Q 20.953125 51.171875 25.484375 53.578125 
Q 30.03125 56 36.53125 56 
Q 37.453125 56 38.578125 55.875 
Q 39.703125 55.765625 41.0625 55.515625 
z
" id="DejaVuSans-114"/>
      <path d="M 45.40625 46.390625 
L 45.40625 75.984375 
L 54.390625 75.984375 
L 54.390625 0 
L 45.40625 0 
L 45.40625 8.203125 
Q 42.578125 3.328125 38.25 0.953125 
Q 33.9375 -1.421875 27.875 -1.421875 
Q 17.96875 -1.421875 11.734375 6.484375 
Q 5.515625 14.40625 5.515625 27.296875 
Q 5.515625 40.1875 11.734375 48.09375 
Q 17.96875 56 27.875 56 
Q 33.9375 56 38.25 53.625 
Q 42.578125 51.265625 45.40625 46.390625 
z
M 14.796875 27.296875 
Q 14.796875 17.390625 18.875 11.75 
Q 22.953125 6.109375 30.078125 6.109375 
Q 37.203125 6.109375 41.296875 11.75 
Q 45.40625 17.390625 45.40625 27.296875 
Q 45.40625 37.203125 41.296875 42.84375 
Q 37.203125 48.484375 30.078125 48.484375 
Q 22.953125 48.484375 18.875 42.84375 
Q 14.796875 37.203125 14.796875 27.296875 
z
" id="DejaVuSans-100"/>
     </defs>
     <g transform="translate(329.83875 58.070437)scale(0.1 -0.1)">
      <use xlink:href="#DejaVuSans-109"/>
      <use x="97.412109" xlink:href="#DejaVuSans-101"/>
      <use x="158.935547" xlink:href="#DejaVuSans-97"/>
      <use x="220.214844" xlink:href="#DejaVuSans-115"/>
      <use x="272.314453" xlink:href="#DejaVuSans-117"/>
      <use x="335.693359" xlink:href="#DejaVuSans-114"/>
      <use x="376.775391" xlink:href="#DejaVuSans-101"/>
      <use x="438.298828" xlink:href="#DejaVuSans-100"/>
      <use x="501.775391" xlink:href="#DejaVuSans-32"/>
      <use x="533.5625" xlink:href="#DejaVuSans-100"/>
      <use x="597.039062" xlink:href="#DejaVuSans-97"/>
      <use x="658.318359" xlink:href="#DejaVuSans-116"/>
      <use x="697.527344" xlink:href="#DejaVuSans-97"/>
     </g>
    </g>
    <g id="line2d_17">
     <path d="M 301.83875 69.248562 
L 321.83875 69.248562 
" style="fill:none;stroke:#008000;stroke-linecap:square;stroke-width:1.5;"/>
    </g>
    <g id="line2d_18"/>
    <g id="text_17">
     <!-- linear data -->
     <g transform="translate(329.83875 72.748562)scale(0.1 -0.1)">
      <use xlink:href="#DejaVuSans-108"/>
      <use x="27.783203" xlink:href="#DejaVuSans-105"/>
      <use x="55.566406" xlink:href="#DejaVuSans-110"/>
      <use x="118.945312" xlink:href="#DejaVuSans-101"/>
      <use x="180.46875" xlink:href="#DejaVuSans-97"/>
      <use x="241.748047" xlink:href="#DejaVuSans-114"/>
      <use x="282.861328" xlink:href="#DejaVuSans-32"/>
      <use x="314.648438" xlink:href="#DejaVuSans-100"/>
      <use x="378.125" xlink:href="#DejaVuSans-97"/>
      <use x="439.404297" xlink:href="#DejaVuSans-116"/>
      <use x="478.613281" xlink:href="#DejaVuSans-97"/>
     </g>
    </g>
   </g>
  </g>
 </g>
 <defs>
  <clipPath id="p5c4f83d702">
   <rect height="266.112" width="357.12" x="57.6" y="41.472"/>
  </clipPath>
 </defs>
</svg>
