<?xml version="1.0" encoding="utf-8" standalone="no"?>
<!DOCTYPE svg PUBLIC "-//W3C//DTD SVG 1.1//EN"
  "http://www.w3.org/Graphics/SVG/1.1/DTD/svg11.dtd">
<!-- Created with matplotlib (https://matplotlib.org/) -->
<svg height="345.6pt" version="1.1" viewBox="0 0 460.8 345.6" width="460.8pt" xmlns="http://www.w3.org/2000/svg" xmlns:xlink="http://www.w3.org/1999/xlink">
 <defs>
  <style type="text/css">
*{stroke-linecap:butt;stroke-linejoin:round;}
  </style>
 </defs>
 <g id="figure_1">
  <g id="patch_1">
   <path d="M 0 345.6 
L 460.8 345.6 
L 460.8 0 
L 0 0 
z
" style="fill:#ffffff;"/>
  </g>
  <g id="axes_1">
   <g id="patch_2">
    <path d="M 57.6 307.584 
L 414.72 307.584 
L 414.72 41.472 
L 57.6 41.472 
z
" style="fill:#ffffff;"/>
   </g>
   <g id="matplotlib.axis_1">
    <g id="xtick_1">
     <g id="line2d_1">
      <defs>
       <path d="M 0 0 
L 0 3.5 
" id="m4e2abd96de" style="stroke:#000000;stroke-width:0.8;"/>
      </defs>
      <g>
       <use style="stroke:#000000;stroke-width:0.8;" x="93.635884" xlink:href="#m4e2abd96de" y="307.584"/>
      </g>
     </g>
     <g id="text_1">
      <!-- 10 -->
      <defs>
       <path d="M 12.40625 8.296875 
L 28.515625 8.296875 
L 28.515625 63.921875 
L 10.984375 60.40625 
L 10.984375 69.390625 
L 28.421875 72.90625 
L 38.28125 72.90625 
L 38.28125 8.296875 
L 54.390625 8.296875 
L 54.390625 0 
L 12.40625 0 
z
" id="DejaVuSans-49"/>
       <path d="M 31.78125 66.40625 
Q 24.171875 66.40625 20.328125 58.90625 
Q 16.5 51.421875 16.5 36.375 
Q 16.5 21.390625 20.328125 13.890625 
Q 24.171875 6.390625 31.78125 6.390625 
Q 39.453125 6.390625 43.28125 13.890625 
Q 47.125 21.390625 47.125 36.375 
Q 47.125 51.421875 43.28125 58.90625 
Q 39.453125 66.40625 31.78125 66.40625 
z
M 31.78125 74.21875 
Q 44.046875 74.21875 50.515625 64.515625 
Q 56.984375 54.828125 56.984375 36.375 
Q 56.984375 17.96875 50.515625 8.265625 
Q 44.046875 -1.421875 31.78125 -1.421875 
Q 19.53125 -1.421875 13.0625 8.265625 
Q 6.59375 17.96875 6.59375 36.375 
Q 6.59375 54.828125 13.0625 64.515625 
Q 19.53125 74.21875 31.78125 74.21875 
z
" id="DejaVuSans-48"/>
      </defs>
      <g transform="translate(87.273384 322.182437)scale(0.1 -0.1)">
       <use xlink:href="#DejaVuSans-49"/>
       <use x="63.623047" xlink:href="#DejaVuSans-48"/>
      </g>
     </g>
    </g>
    <g id="xtick_2">
     <g id="line2d_2">
      <g>
       <use style="stroke:#000000;stroke-width:0.8;" x="133.765479" xlink:href="#m4e2abd96de" y="307.584"/>
      </g>
     </g>
     <g id="text_2">
      <!-- 20 -->
      <defs>
       <path d="M 19.1875 8.296875 
L 53.609375 8.296875 
L 53.609375 0 
L 7.328125 0 
L 7.328125 8.296875 
Q 12.9375 14.109375 22.625 23.890625 
Q 32.328125 33.6875 34.8125 36.53125 
Q 39.546875 41.84375 41.421875 45.53125 
Q 43.3125 49.21875 43.3125 52.78125 
Q 43.3125 58.59375 39.234375 62.25 
Q 35.15625 65.921875 28.609375 65.921875 
Q 23.96875 65.921875 18.8125 64.3125 
Q 13.671875 62.703125 7.8125 59.421875 
L 7.8125 69.390625 
Q 13.765625 71.78125 18.9375 73 
Q 24.125 74.21875 28.421875 74.21875 
Q 39.75 74.21875 46.484375 68.546875 
Q 53.21875 62.890625 53.21875 53.421875 
Q 53.21875 48.921875 51.53125 44.890625 
Q 49.859375 40.875 45.40625 35.40625 
Q 44.1875 33.984375 37.640625 27.21875 
Q 31.109375 20.453125 19.1875 8.296875 
z
" id="DejaVuSans-50"/>
      </defs>
      <g transform="translate(127.402979 322.182437)scale(0.1 -0.1)">
       <use xlink:href="#DejaVuSans-50"/>
       <use x="63.623047" xlink:href="#DejaVuSans-48"/>
      </g>
     </g>
    </g>
    <g id="xtick_3">
     <g id="line2d_3">
      <g>
       <use style="stroke:#000000;stroke-width:0.8;" x="173.895074" xlink:href="#m4e2abd96de" y="307.584"/>
      </g>
     </g>
     <g id="text_3">
      <!-- 30 -->
      <defs>
       <path d="M 40.578125 39.3125 
Q 47.65625 37.796875 51.625 33 
Q 55.609375 28.21875 55.609375 21.1875 
Q 55.609375 10.40625 48.1875 4.484375 
Q 40.765625 -1.421875 27.09375 -1.421875 
Q 22.515625 -1.421875 17.65625 -0.515625 
Q 12.796875 0.390625 7.625 2.203125 
L 7.625 11.71875 
Q 11.71875 9.328125 16.59375 8.109375 
Q 21.484375 6.890625 26.8125 6.890625 
Q 36.078125 6.890625 40.9375 10.546875 
Q 45.796875 14.203125 45.796875 21.1875 
Q 45.796875 27.640625 41.28125 31.265625 
Q 36.765625 34.90625 28.71875 34.90625 
L 20.21875 34.90625 
L 20.21875 43.015625 
L 29.109375 43.015625 
Q 36.375 43.015625 40.234375 45.921875 
Q 44.09375 48.828125 44.09375 54.296875 
Q 44.09375 59.90625 40.109375 62.90625 
Q 36.140625 65.921875 28.71875 65.921875 
Q 24.65625 65.921875 20.015625 65.03125 
Q 15.375 64.15625 9.8125 62.3125 
L 9.8125 71.09375 
Q 15.4375 72.65625 20.34375 73.4375 
Q 25.25 74.21875 29.59375 74.21875 
Q 40.828125 74.21875 47.359375 69.109375 
Q 53.90625 64.015625 53.90625 55.328125 
Q 53.90625 49.265625 50.4375 45.09375 
Q 46.96875 40.921875 40.578125 39.3125 
z
" id="DejaVuSans-51"/>
      </defs>
      <g transform="translate(167.532574 322.182437)scale(0.1 -0.1)">
       <use xlink:href="#DejaVuSans-51"/>
       <use x="63.623047" xlink:href="#DejaVuSans-48"/>
      </g>
     </g>
    </g>
    <g id="xtick_4">
     <g id="line2d_4">
      <g>
       <use style="stroke:#000000;stroke-width:0.8;" x="214.02467" xlink:href="#m4e2abd96de" y="307.584"/>
      </g>
     </g>
     <g id="text_4">
      <!-- 40 -->
      <defs>
       <path d="M 37.796875 64.3125 
L 12.890625 25.390625 
L 37.796875 25.390625 
z
M 35.203125 72.90625 
L 47.609375 72.90625 
L 47.609375 25.390625 
L 58.015625 25.390625 
L 58.015625 17.1875 
L 47.609375 17.1875 
L 47.609375 0 
L 37.796875 0 
L 37.796875 17.1875 
L 4.890625 17.1875 
L 4.890625 26.703125 
z
" id="DejaVuSans-52"/>
      </defs>
      <g transform="translate(207.66217 322.182437)scale(0.1 -0.1)">
       <use xlink:href="#DejaVuSans-52"/>
       <use x="63.623047" xlink:href="#DejaVuSans-48"/>
      </g>
     </g>
    </g>
    <g id="xtick_5">
     <g id="line2d_5">
      <g>
       <use style="stroke:#000000;stroke-width:0.8;" x="254.154265" xlink:href="#m4e2abd96de" y="307.584"/>
      </g>
     </g>
     <g id="text_5">
      <!-- 50 -->
      <defs>
       <path d="M 10.796875 72.90625 
L 49.515625 72.90625 
L 49.515625 64.59375 
L 19.828125 64.59375 
L 19.828125 46.734375 
Q 21.96875 47.46875 24.109375 47.828125 
Q 26.265625 48.1875 28.421875 48.1875 
Q 40.625 48.1875 47.75 41.5 
Q 54.890625 34.8125 54.890625 23.390625 
Q 54.890625 11.625 47.5625 5.09375 
Q 40.234375 -1.421875 26.90625 -1.421875 
Q 22.3125 -1.421875 17.546875 -0.640625 
Q 12.796875 0.140625 7.71875 1.703125 
L 7.71875 11.625 
Q 12.109375 9.234375 16.796875 8.0625 
Q 21.484375 6.890625 26.703125 6.890625 
Q 35.15625 6.890625 40.078125 11.328125 
Q 45.015625 15.765625 45.015625 23.390625 
Q 45.015625 31 40.078125 35.4375 
Q 35.15625 39.890625 26.703125 39.890625 
Q 22.75 39.890625 18.8125 39.015625 
Q 14.890625 38.140625 10.796875 36.28125 
z
" id="DejaVuSans-53"/>
      </defs>
      <g transform="translate(247.791765 322.182437)scale(0.1 -0.1)">
       <use xlink:href="#DejaVuSans-53"/>
       <use x="63.623047" xlink:href="#DejaVuSans-48"/>
      </g>
     </g>
    </g>
    <g id="xtick_6">
     <g id="line2d_6">
      <g>
       <use style="stroke:#000000;stroke-width:0.8;" x="294.28386" xlink:href="#m4e2abd96de" y="307.584"/>
      </g>
     </g>
     <g id="text_6">
      <!-- 60 -->
      <defs>
       <path d="M 33.015625 40.375 
Q 26.375 40.375 22.484375 35.828125 
Q 18.609375 31.296875 18.609375 23.390625 
Q 18.609375 15.53125 22.484375 10.953125 
Q 26.375 6.390625 33.015625 6.390625 
Q 39.65625 6.390625 43.53125 10.953125 
Q 47.40625 15.53125 47.40625 23.390625 
Q 47.40625 31.296875 43.53125 35.828125 
Q 39.65625 40.375 33.015625 40.375 
z
M 52.59375 71.296875 
L 52.59375 62.3125 
Q 48.875 64.0625 45.09375 64.984375 
Q 41.3125 65.921875 37.59375 65.921875 
Q 27.828125 65.921875 22.671875 59.328125 
Q 17.53125 52.734375 16.796875 39.40625 
Q 19.671875 43.65625 24.015625 45.921875 
Q 28.375 48.1875 33.59375 48.1875 
Q 44.578125 48.1875 50.953125 41.515625 
Q 57.328125 34.859375 57.328125 23.390625 
Q 57.328125 12.15625 50.6875 5.359375 
Q 44.046875 -1.421875 33.015625 -1.421875 
Q 20.359375 -1.421875 13.671875 8.265625 
Q 6.984375 17.96875 6.984375 36.375 
Q 6.984375 53.65625 15.1875 63.9375 
Q 23.390625 74.21875 37.203125 74.21875 
Q 40.921875 74.21875 44.703125 73.484375 
Q 48.484375 72.75 52.59375 71.296875 
z
" id="DejaVuSans-54"/>
      </defs>
      <g transform="translate(287.92136 322.182437)scale(0.1 -0.1)">
       <use xlink:href="#DejaVuSans-54"/>
       <use x="63.623047" xlink:href="#DejaVuSans-48"/>
      </g>
     </g>
    </g>
    <g id="xtick_7">
     <g id="line2d_7">
      <g>
       <use style="stroke:#000000;stroke-width:0.8;" x="334.413455" xlink:href="#m4e2abd96de" y="307.584"/>
      </g>
     </g>
     <g id="text_7">
      <!-- 70 -->
      <defs>
       <path d="M 8.203125 72.90625 
L 55.078125 72.90625 
L 55.078125 68.703125 
L 28.609375 0 
L 18.3125 0 
L 43.21875 64.59375 
L 8.203125 64.59375 
z
" id="DejaVuSans-55"/>
      </defs>
      <g transform="translate(328.050955 322.182437)scale(0.1 -0.1)">
       <use xlink:href="#DejaVuSans-55"/>
       <use x="63.623047" xlink:href="#DejaVuSans-48"/>
      </g>
     </g>
    </g>
    <g id="xtick_8">
     <g id="line2d_8">
      <g>
       <use style="stroke:#000000;stroke-width:0.8;" x="374.543051" xlink:href="#m4e2abd96de" y="307.584"/>
      </g>
     </g>
     <g id="text_8">
      <!-- 80 -->
      <defs>
       <path d="M 31.78125 34.625 
Q 24.75 34.625 20.71875 30.859375 
Q 16.703125 27.09375 16.703125 20.515625 
Q 16.703125 13.921875 20.71875 10.15625 
Q 24.75 6.390625 31.78125 6.390625 
Q 38.8125 6.390625 42.859375 10.171875 
Q 46.921875 13.96875 46.921875 20.515625 
Q 46.921875 27.09375 42.890625 30.859375 
Q 38.875 34.625 31.78125 34.625 
z
M 21.921875 38.8125 
Q 15.578125 40.375 12.03125 44.71875 
Q 8.5 49.078125 8.5 55.328125 
Q 8.5 64.0625 14.71875 69.140625 
Q 20.953125 74.21875 31.78125 74.21875 
Q 42.671875 74.21875 48.875 69.140625 
Q 55.078125 64.0625 55.078125 55.328125 
Q 55.078125 49.078125 51.53125 44.71875 
Q 48 40.375 41.703125 38.8125 
Q 48.828125 37.15625 52.796875 32.3125 
Q 56.78125 27.484375 56.78125 20.515625 
Q 56.78125 9.90625 50.3125 4.234375 
Q 43.84375 -1.421875 31.78125 -1.421875 
Q 19.734375 -1.421875 13.25 4.234375 
Q 6.78125 9.90625 6.78125 20.515625 
Q 6.78125 27.484375 10.78125 32.3125 
Q 14.796875 37.15625 21.921875 38.8125 
z
M 18.3125 54.390625 
Q 18.3125 48.734375 21.84375 45.5625 
Q 25.390625 42.390625 31.78125 42.390625 
Q 38.140625 42.390625 41.71875 45.5625 
Q 45.3125 48.734375 45.3125 54.390625 
Q 45.3125 60.0625 41.71875 63.234375 
Q 38.140625 66.40625 31.78125 66.40625 
Q 25.390625 66.40625 21.84375 63.234375 
Q 18.3125 60.0625 18.3125 54.390625 
z
" id="DejaVuSans-56"/>
      </defs>
      <g transform="translate(368.180551 322.182437)scale(0.1 -0.1)">
       <use xlink:href="#DejaVuSans-56"/>
       <use x="63.623047" xlink:href="#DejaVuSans-48"/>
      </g>
     </g>
    </g>
    <g id="xtick_9">
     <g id="line2d_9">
      <g>
       <use style="stroke:#000000;stroke-width:0.8;" x="414.672646" xlink:href="#m4e2abd96de" y="307.584"/>
      </g>
     </g>
     <g id="text_9">
      <!-- 90 -->
      <defs>
       <path d="M 10.984375 1.515625 
L 10.984375 10.5 
Q 14.703125 8.734375 18.5 7.8125 
Q 22.3125 6.890625 25.984375 6.890625 
Q 35.75 6.890625 40.890625 13.453125 
Q 46.046875 20.015625 46.78125 33.40625 
Q 43.953125 29.203125 39.59375 26.953125 
Q 35.25 24.703125 29.984375 24.703125 
Q 19.046875 24.703125 12.671875 31.3125 
Q 6.296875 37.9375 6.296875 49.421875 
Q 6.296875 60.640625 12.9375 67.421875 
Q 19.578125 74.21875 30.609375 74.21875 
Q 43.265625 74.21875 49.921875 64.515625 
Q 56.59375 54.828125 56.59375 36.375 
Q 56.59375 19.140625 48.40625 8.859375 
Q 40.234375 -1.421875 26.421875 -1.421875 
Q 22.703125 -1.421875 18.890625 -0.6875 
Q 15.09375 0.046875 10.984375 1.515625 
z
M 30.609375 32.421875 
Q 37.25 32.421875 41.125 36.953125 
Q 45.015625 41.5 45.015625 49.421875 
Q 45.015625 57.28125 41.125 61.84375 
Q 37.25 66.40625 30.609375 66.40625 
Q 23.96875 66.40625 20.09375 61.84375 
Q 16.21875 57.28125 16.21875 49.421875 
Q 16.21875 41.5 20.09375 36.953125 
Q 23.96875 32.421875 30.609375 32.421875 
z
" id="DejaVuSans-57"/>
      </defs>
      <g transform="translate(408.310146 322.182437)scale(0.1 -0.1)">
       <use xlink:href="#DejaVuSans-57"/>
       <use x="63.623047" xlink:href="#DejaVuSans-48"/>
      </g>
     </g>
    </g>
    <g id="text_10">
     <!-- x values -->
     <defs>
      <path d="M 54.890625 54.6875 
L 35.109375 28.078125 
L 55.90625 0 
L 45.3125 0 
L 29.390625 21.484375 
L 13.484375 0 
L 2.875 0 
L 24.125 28.609375 
L 4.6875 54.6875 
L 15.28125 54.6875 
L 29.78125 35.203125 
L 44.28125 54.6875 
z
" id="DejaVuSans-120"/>
      <path id="DejaVuSans-32"/>
      <path d="M 2.984375 54.6875 
L 12.5 54.6875 
L 29.59375 8.796875 
L 46.6875 54.6875 
L 56.203125 54.6875 
L 35.6875 0 
L 23.484375 0 
z
" id="DejaVuSans-118"/>
      <path d="M 34.28125 27.484375 
Q 23.390625 27.484375 19.1875 25 
Q 14.984375 22.515625 14.984375 16.5 
Q 14.984375 11.71875 18.140625 8.90625 
Q 21.296875 6.109375 26.703125 6.109375 
Q 34.1875 6.109375 38.703125 11.40625 
Q 43.21875 16.703125 43.21875 25.484375 
L 43.21875 27.484375 
z
M 52.203125 31.203125 
L 52.203125 0 
L 43.21875 0 
L 43.21875 8.296875 
Q 40.140625 3.328125 35.546875 0.953125 
Q 30.953125 -1.421875 24.3125 -1.421875 
Q 15.921875 -1.421875 10.953125 3.296875 
Q 6 8.015625 6 15.921875 
Q 6 25.140625 12.171875 29.828125 
Q 18.359375 34.515625 30.609375 34.515625 
L 43.21875 34.515625 
L 43.21875 35.40625 
Q 43.21875 41.609375 39.140625 45 
Q 35.0625 48.390625 27.6875 48.390625 
Q 23 48.390625 18.546875 47.265625 
Q 14.109375 46.140625 10.015625 43.890625 
L 10.015625 52.203125 
Q 14.9375 54.109375 19.578125 55.046875 
Q 24.21875 56 28.609375 56 
Q 40.484375 56 46.34375 49.84375 
Q 52.203125 43.703125 52.203125 31.203125 
z
" id="DejaVuSans-97"/>
      <path d="M 9.421875 75.984375 
L 18.40625 75.984375 
L 18.40625 0 
L 9.421875 0 
z
" id="DejaVuSans-108"/>
      <path d="M 8.5 21.578125 
L 8.5 54.6875 
L 17.484375 54.6875 
L 17.484375 21.921875 
Q 17.484375 14.15625 20.5 10.265625 
Q 23.53125 6.390625 29.59375 6.390625 
Q 36.859375 6.390625 41.078125 11.03125 
Q 45.3125 15.671875 45.3125 23.6875 
L 45.3125 54.6875 
L 54.296875 54.6875 
L 54.296875 0 
L 45.3125 0 
L 45.3125 8.40625 
Q 42.046875 3.421875 37.71875 1 
Q 33.40625 -1.421875 27.6875 -1.421875 
Q 18.265625 -1.421875 13.375 4.4375 
Q 8.5 10.296875 8.5 21.578125 
z
M 31.109375 56 
z
" id="DejaVuSans-117"/>
      <path d="M 56.203125 29.59375 
L 56.203125 25.203125 
L 14.890625 25.203125 
Q 15.484375 15.921875 20.484375 11.0625 
Q 25.484375 6.203125 34.421875 6.203125 
Q 39.59375 6.203125 44.453125 7.46875 
Q 49.3125 8.734375 54.109375 11.28125 
L 54.109375 2.78125 
Q 49.265625 0.734375 44.1875 -0.34375 
Q 39.109375 -1.421875 33.890625 -1.421875 
Q 20.796875 -1.421875 13.15625 6.1875 
Q 5.515625 13.8125 5.515625 26.8125 
Q 5.515625 40.234375 12.765625 48.109375 
Q 20.015625 56 32.328125 56 
Q 43.359375 56 49.78125 48.890625 
Q 56.203125 41.796875 56.203125 29.59375 
z
M 47.21875 32.234375 
Q 47.125 39.59375 43.09375 43.984375 
Q 39.0625 48.390625 32.421875 48.390625 
Q 24.90625 48.390625 20.390625 44.140625 
Q 15.875 39.890625 15.1875 32.171875 
z
" id="DejaVuSans-101"/>
      <path d="M 44.28125 53.078125 
L 44.28125 44.578125 
Q 40.484375 46.53125 36.375 47.5 
Q 32.28125 48.484375 27.875 48.484375 
Q 21.1875 48.484375 17.84375 46.4375 
Q 14.5 44.390625 14.5 40.28125 
Q 14.5 37.15625 16.890625 35.375 
Q 19.28125 33.59375 26.515625 31.984375 
L 29.59375 31.296875 
Q 39.15625 29.25 43.1875 25.515625 
Q 47.21875 21.78125 47.21875 15.09375 
Q 47.21875 7.46875 41.1875 3.015625 
Q 35.15625 -1.421875 24.609375 -1.421875 
Q 20.21875 -1.421875 15.453125 -0.5625 
Q 10.6875 0.296875 5.421875 2 
L 5.421875 11.28125 
Q 10.40625 8.6875 15.234375 7.390625 
Q 20.0625 6.109375 24.8125 6.109375 
Q 31.15625 6.109375 34.5625 8.28125 
Q 37.984375 10.453125 37.984375 14.40625 
Q 37.984375 18.0625 35.515625 20.015625 
Q 33.0625 21.96875 24.703125 23.78125 
L 21.578125 24.515625 
Q 13.234375 26.265625 9.515625 29.90625 
Q 5.8125 33.546875 5.8125 39.890625 
Q 5.8125 47.609375 11.28125 51.796875 
Q 16.75 56 26.8125 56 
Q 31.78125 56 36.171875 55.265625 
Q 40.578125 54.546875 44.28125 53.078125 
z
" id="DejaVuSans-115"/>
     </defs>
     <g transform="translate(215.349063 335.860562)scale(0.1 -0.1)">
      <use xlink:href="#DejaVuSans-120"/>
      <use x="59.179688" xlink:href="#DejaVuSans-32"/>
      <use x="90.966797" xlink:href="#DejaVuSans-118"/>
      <use x="150.146484" xlink:href="#DejaVuSans-97"/>
      <use x="211.425781" xlink:href="#DejaVuSans-108"/>
      <use x="239.208984" xlink:href="#DejaVuSans-117"/>
      <use x="302.587891" xlink:href="#DejaVuSans-101"/>
      <use x="364.111328" xlink:href="#DejaVuSans-115"/>
     </g>
    </g>
   </g>
   <g id="matplotlib.axis_2">
    <g id="ytick_1">
     <g id="line2d_10">
      <defs>
       <path d="M 0 0 
L -3.5 0 
" id="m6a460edc7c" style="stroke:#000000;stroke-width:0.8;"/>
      </defs>
      <g>
       <use style="stroke:#000000;stroke-width:0.8;" x="57.6" xlink:href="#m6a460edc7c" y="289.045092"/>
      </g>
     </g>
     <g id="text_11">
      <!-- 0 -->
      <g transform="translate(44.2375 292.844311)scale(0.1 -0.1)">
       <use xlink:href="#DejaVuSans-48"/>
      </g>
     </g>
    </g>
    <g id="ytick_2">
     <g id="line2d_11">
      <g>
       <use style="stroke:#000000;stroke-width:0.8;" x="57.6" xlink:href="#m6a460edc7c" y="247.62303"/>
      </g>
     </g>
     <g id="text_12">
      <!-- 100 -->
      <g transform="translate(31.5125 251.422249)scale(0.1 -0.1)">
       <use xlink:href="#DejaVuSans-49"/>
       <use x="63.623047" xlink:href="#DejaVuSans-48"/>
       <use x="127.246094" xlink:href="#DejaVuSans-48"/>
      </g>
     </g>
    </g>
    <g id="ytick_3">
     <g id="line2d_12">
      <g>
       <use style="stroke:#000000;stroke-width:0.8;" x="57.6" xlink:href="#m6a460edc7c" y="206.200969"/>
      </g>
     </g>
     <g id="text_13">
      <!-- 200 -->
      <g transform="translate(31.5125 210.000188)scale(0.1 -0.1)">
       <use xlink:href="#DejaVuSans-50"/>
       <use x="63.623047" xlink:href="#DejaVuSans-48"/>
       <use x="127.246094" xlink:href="#DejaVuSans-48"/>
      </g>
     </g>
    </g>
    <g id="ytick_4">
     <g id="line2d_13">
      <g>
       <use style="stroke:#000000;stroke-width:0.8;" x="57.6" xlink:href="#m6a460edc7c" y="164.778908"/>
      </g>
     </g>
     <g id="text_14">
      <!-- 300 -->
      <g transform="translate(31.5125 168.578126)scale(0.1 -0.1)">
       <use xlink:href="#DejaVuSans-51"/>
       <use x="63.623047" xlink:href="#DejaVuSans-48"/>
       <use x="127.246094" xlink:href="#DejaVuSans-48"/>
      </g>
     </g>
    </g>
    <g id="ytick_5">
     <g id="line2d_14">
      <g>
       <use style="stroke:#000000;stroke-width:0.8;" x="57.6" xlink:href="#m6a460edc7c" y="123.356846"/>
      </g>
     </g>
     <g id="text_15">
      <!-- 400 -->
      <g transform="translate(31.5125 127.156065)scale(0.1 -0.1)">
       <use xlink:href="#DejaVuSans-52"/>
       <use x="63.623047" xlink:href="#DejaVuSans-48"/>
       <use x="127.246094" xlink:href="#DejaVuSans-48"/>
      </g>
     </g>
    </g>
    <g id="ytick_6">
     <g id="line2d_15">
      <g>
       <use style="stroke:#000000;stroke-width:0.8;" x="57.6" xlink:href="#m6a460edc7c" y="81.934785"/>
      </g>
     </g>
     <g id="text_16">
      <!-- 500 -->
      <g transform="translate(31.5125 85.734003)scale(0.1 -0.1)">
       <use xlink:href="#DejaVuSans-53"/>
       <use x="63.623047" xlink:href="#DejaVuSans-48"/>
       <use x="127.246094" xlink:href="#DejaVuSans-48"/>
      </g>
     </g>
    </g>
    <g id="text_17">
     <!-- y values -->
     <defs>
      <path d="M 32.171875 -5.078125 
Q 28.375 -14.84375 24.75 -17.8125 
Q 21.140625 -20.796875 15.09375 -20.796875 
L 7.90625 -20.796875 
L 7.90625 -13.28125 
L 13.1875 -13.28125 
Q 16.890625 -13.28125 18.9375 -11.515625 
Q 21 -9.765625 23.484375 -3.21875 
L 25.09375 0.875 
L 2.984375 54.6875 
L 12.5 54.6875 
L 29.59375 11.921875 
L 46.6875 54.6875 
L 56.203125 54.6875 
z
" id="DejaVuSans-121"/>
     </defs>
     <g transform="translate(25.432812 195.338937)rotate(-90)scale(0.1 -0.1)">
      <use xlink:href="#DejaVuSans-121"/>
      <use x="59.179688" xlink:href="#DejaVuSans-32"/>
      <use x="90.966797" xlink:href="#DejaVuSans-118"/>
      <use x="150.146484" xlink:href="#DejaVuSans-97"/>
      <use x="211.425781" xlink:href="#DejaVuSans-108"/>
      <use x="239.208984" xlink:href="#DejaVuSans-117"/>
      <use x="302.587891" xlink:href="#DejaVuSans-101"/>
      <use x="364.111328" xlink:href="#DejaVuSans-115"/>
     </g>
    </g>
   </g>
   <g id="line2d_16">
    <defs>
     <path d="M 0 1 
C 0.265203 1 0.51958 0.894634 0.707107 0.707107 
C 0.894634 0.51958 1 0.265203 1 0 
C 1 -0.265203 0.894634 -0.51958 0.707107 -0.707107 
C 0.51958 -0.894634 0.265203 -1 0 -1 
C -0.265203 -1 -0.51958 -0.894634 -0.707107 -0.707107 
C -0.894634 -0.51958 -1 -0.265203 -1 0 
C -1 0.265203 -0.894634 0.51958 -0.707107 0.707107 
C -0.51958 0.894634 -0.265203 1 0 1 
z
" id="m288127fdc6" style="stroke:#ff0000;"/>
    </defs>
    <g clip-path="url(#pfc87f0b1f9)">
     <use style="fill:#ff0000;stroke:#ff0000;" x="73.832727" xlink:href="#m288127fdc6" y="69.113894"/>
     <use style="fill:#ff0000;stroke:#ff0000;" x="75.004765" xlink:href="#m288127fdc6" y="97.237154"/>
     <use style="fill:#ff0000;stroke:#ff0000;" x="76.176803" xlink:href="#m288127fdc6" y="96.856214"/>
     <use style="fill:#ff0000;stroke:#ff0000;" x="77.348841" xlink:href="#m288127fdc6" y="53.568"/>
     <use style="fill:#ff0000;stroke:#ff0000;" x="78.52088" xlink:href="#m288127fdc6" y="111.829251"/>
     <use style="fill:#ff0000;stroke:#ff0000;" x="79.692918" xlink:href="#m288127fdc6" y="109.084015"/>
     <use style="fill:#ff0000;stroke:#ff0000;" x="80.864956" xlink:href="#m288127fdc6" y="70.475808"/>
     <use style="fill:#ff0000;stroke:#ff0000;" x="82.036994" xlink:href="#m288127fdc6" y="117.397289"/>
     <use style="fill:#ff0000;stroke:#ff0000;" x="83.209032" xlink:href="#m288127fdc6" y="123.632711"/>
     <use style="fill:#ff0000;stroke:#ff0000;" x="84.38107" xlink:href="#m288127fdc6" y="110.438437"/>
     <use style="fill:#ff0000;stroke:#ff0000;" x="85.553108" xlink:href="#m288127fdc6" y="92.022475"/>
     <use style="fill:#ff0000;stroke:#ff0000;" x="86.725146" xlink:href="#m288127fdc6" y="93.218852"/>
     <use style="fill:#ff0000;stroke:#ff0000;" x="87.897184" xlink:href="#m288127fdc6" y="150.724075"/>
     <use style="fill:#ff0000;stroke:#ff0000;" x="89.069222" xlink:href="#m288127fdc6" y="144.122196"/>
     <use style="fill:#ff0000;stroke:#ff0000;" x="90.24126" xlink:href="#m288127fdc6" y="146.730022"/>
     <use style="fill:#ff0000;stroke:#ff0000;" x="91.413298" xlink:href="#m288127fdc6" y="90.607762"/>
     <use style="fill:#ff0000;stroke:#ff0000;" x="92.585336" xlink:href="#m288127fdc6" y="103.850051"/>
     <use style="fill:#ff0000;stroke:#ff0000;" x="93.757374" xlink:href="#m288127fdc6" y="123.399786"/>
     <use style="fill:#ff0000;stroke:#ff0000;" x="94.929413" xlink:href="#m288127fdc6" y="129.533446"/>
     <use style="fill:#ff0000;stroke:#ff0000;" x="96.101451" xlink:href="#m288127fdc6" y="133.047587"/>
     <use style="fill:#ff0000;stroke:#ff0000;" x="97.273489" xlink:href="#m288127fdc6" y="108.187537"/>
     <use style="fill:#ff0000;stroke:#ff0000;" x="98.445527" xlink:href="#m288127fdc6" y="86.262047"/>
     <use style="fill:#ff0000;stroke:#ff0000;" x="99.617565" xlink:href="#m288127fdc6" y="155.352707"/>
     <use style="fill:#ff0000;stroke:#ff0000;" x="100.789603" xlink:href="#m288127fdc6" y="131.828601"/>
     <use style="fill:#ff0000;stroke:#ff0000;" x="101.961641" xlink:href="#m288127fdc6" y="106.447737"/>
     <use style="fill:#ff0000;stroke:#ff0000;" x="103.133679" xlink:href="#m288127fdc6" y="146.334897"/>
     <use style="fill:#ff0000;stroke:#ff0000;" x="104.305717" xlink:href="#m288127fdc6" y="106.812463"/>
     <use style="fill:#ff0000;stroke:#ff0000;" x="105.477755" xlink:href="#m288127fdc6" y="116.597134"/>
     <use style="fill:#ff0000;stroke:#ff0000;" x="106.649793" xlink:href="#m288127fdc6" y="138.790121"/>
     <use style="fill:#ff0000;stroke:#ff0000;" x="107.821831" xlink:href="#m288127fdc6" y="127.718856"/>
     <use style="fill:#ff0000;stroke:#ff0000;" x="108.993869" xlink:href="#m288127fdc6" y="153.699633"/>
     <use style="fill:#ff0000;stroke:#ff0000;" x="110.165907" xlink:href="#m288127fdc6" y="132.053976"/>
     <use style="fill:#ff0000;stroke:#ff0000;" x="111.337946" xlink:href="#m288127fdc6" y="167.003886"/>
     <use style="fill:#ff0000;stroke:#ff0000;" x="112.509984" xlink:href="#m288127fdc6" y="157.304078"/>
     <use style="fill:#ff0000;stroke:#ff0000;" x="113.682022" xlink:href="#m288127fdc6" y="126.002263"/>
     <use style="fill:#ff0000;stroke:#ff0000;" x="114.85406" xlink:href="#m288127fdc6" y="160.519311"/>
     <use style="fill:#ff0000;stroke:#ff0000;" x="116.026098" xlink:href="#m288127fdc6" y="111.549788"/>
     <use style="fill:#ff0000;stroke:#ff0000;" x="117.198136" xlink:href="#m288127fdc6" y="173.824184"/>
     <use style="fill:#ff0000;stroke:#ff0000;" x="118.370174" xlink:href="#m288127fdc6" y="139.396509"/>
     <use style="fill:#ff0000;stroke:#ff0000;" x="119.542212" xlink:href="#m288127fdc6" y="132.49055"/>
     <use style="fill:#ff0000;stroke:#ff0000;" x="120.71425" xlink:href="#m288127fdc6" y="146.621845"/>
     <use style="fill:#ff0000;stroke:#ff0000;" x="121.886288" xlink:href="#m288127fdc6" y="120.4015"/>
     <use style="fill:#ff0000;stroke:#ff0000;" x="123.058326" xlink:href="#m288127fdc6" y="144.678647"/>
     <use style="fill:#ff0000;stroke:#ff0000;" x="124.230364" xlink:href="#m288127fdc6" y="164.434385"/>
     <use style="fill:#ff0000;stroke:#ff0000;" x="125.402402" xlink:href="#m288127fdc6" y="146.597213"/>
     <use style="fill:#ff0000;stroke:#ff0000;" x="126.57444" xlink:href="#m288127fdc6" y="150.346714"/>
     <use style="fill:#ff0000;stroke:#ff0000;" x="127.746479" xlink:href="#m288127fdc6" y="185.520912"/>
     <use style="fill:#ff0000;stroke:#ff0000;" x="128.918517" xlink:href="#m288127fdc6" y="160.525364"/>
     <use style="fill:#ff0000;stroke:#ff0000;" x="130.090555" xlink:href="#m288127fdc6" y="164.153668"/>
     <use style="fill:#ff0000;stroke:#ff0000;" x="131.262593" xlink:href="#m288127fdc6" y="152.402914"/>
     <use style="fill:#ff0000;stroke:#ff0000;" x="132.434631" xlink:href="#m288127fdc6" y="147.543272"/>
     <use style="fill:#ff0000;stroke:#ff0000;" x="133.606669" xlink:href="#m288127fdc6" y="186.068901"/>
     <use style="fill:#ff0000;stroke:#ff0000;" x="134.778707" xlink:href="#m288127fdc6" y="154.392777"/>
     <use style="fill:#ff0000;stroke:#ff0000;" x="135.950745" xlink:href="#m288127fdc6" y="145.977691"/>
     <use style="fill:#ff0000;stroke:#ff0000;" x="137.122783" xlink:href="#m288127fdc6" y="178.927292"/>
     <use style="fill:#ff0000;stroke:#ff0000;" x="138.294821" xlink:href="#m288127fdc6" y="154.292042"/>
     <use style="fill:#ff0000;stroke:#ff0000;" x="139.466859" xlink:href="#m288127fdc6" y="156.603505"/>
     <use style="fill:#ff0000;stroke:#ff0000;" x="140.638897" xlink:href="#m288127fdc6" y="166.980932"/>
     <use style="fill:#ff0000;stroke:#ff0000;" x="141.810935" xlink:href="#m288127fdc6" y="151.311831"/>
     <use style="fill:#ff0000;stroke:#ff0000;" x="142.982973" xlink:href="#m288127fdc6" y="167.030506"/>
     <use style="fill:#ff0000;stroke:#ff0000;" x="144.155011" xlink:href="#m288127fdc6" y="175.571854"/>
     <use style="fill:#ff0000;stroke:#ff0000;" x="145.32705" xlink:href="#m288127fdc6" y="162.020757"/>
     <use style="fill:#ff0000;stroke:#ff0000;" x="146.499088" xlink:href="#m288127fdc6" y="166.314034"/>
     <use style="fill:#ff0000;stroke:#ff0000;" x="147.671126" xlink:href="#m288127fdc6" y="169.135055"/>
     <use style="fill:#ff0000;stroke:#ff0000;" x="148.843164" xlink:href="#m288127fdc6" y="187.016311"/>
     <use style="fill:#ff0000;stroke:#ff0000;" x="150.015202" xlink:href="#m288127fdc6" y="182.550171"/>
     <use style="fill:#ff0000;stroke:#ff0000;" x="151.18724" xlink:href="#m288127fdc6" y="194.53684"/>
     <use style="fill:#ff0000;stroke:#ff0000;" x="152.359278" xlink:href="#m288127fdc6" y="179.155543"/>
     <use style="fill:#ff0000;stroke:#ff0000;" x="153.531316" xlink:href="#m288127fdc6" y="204.289156"/>
     <use style="fill:#ff0000;stroke:#ff0000;" x="154.703354" xlink:href="#m288127fdc6" y="173.017351"/>
     <use style="fill:#ff0000;stroke:#ff0000;" x="155.875392" xlink:href="#m288127fdc6" y="177.809332"/>
     <use style="fill:#ff0000;stroke:#ff0000;" x="157.04743" xlink:href="#m288127fdc6" y="189.423903"/>
     <use style="fill:#ff0000;stroke:#ff0000;" x="158.219468" xlink:href="#m288127fdc6" y="197.161948"/>
     <use style="fill:#ff0000;stroke:#ff0000;" x="159.391506" xlink:href="#m288127fdc6" y="190.830061"/>
     <use style="fill:#ff0000;stroke:#ff0000;" x="160.563544" xlink:href="#m288127fdc6" y="197.734934"/>
     <use style="fill:#ff0000;stroke:#ff0000;" x="161.735583" xlink:href="#m288127fdc6" y="181.444526"/>
     <use style="fill:#ff0000;stroke:#ff0000;" x="162.907621" xlink:href="#m288127fdc6" y="211.718313"/>
     <use style="fill:#ff0000;stroke:#ff0000;" x="164.079659" xlink:href="#m288127fdc6" y="171.175858"/>
     <use style="fill:#ff0000;stroke:#ff0000;" x="165.251697" xlink:href="#m288127fdc6" y="206.210578"/>
     <use style="fill:#ff0000;stroke:#ff0000;" x="166.423735" xlink:href="#m288127fdc6" y="214.123774"/>
     <use style="fill:#ff0000;stroke:#ff0000;" x="167.595773" xlink:href="#m288127fdc6" y="201.293094"/>
     <use style="fill:#ff0000;stroke:#ff0000;" x="168.767811" xlink:href="#m288127fdc6" y="199.409736"/>
     <use style="fill:#ff0000;stroke:#ff0000;" x="169.939849" xlink:href="#m288127fdc6" y="219.220394"/>
     <use style="fill:#ff0000;stroke:#ff0000;" x="171.111887" xlink:href="#m288127fdc6" y="195.958045"/>
     <use style="fill:#ff0000;stroke:#ff0000;" x="172.283925" xlink:href="#m288127fdc6" y="195.678635"/>
     <use style="fill:#ff0000;stroke:#ff0000;" x="173.455963" xlink:href="#m288127fdc6" y="215.886272"/>
     <use style="fill:#ff0000;stroke:#ff0000;" x="174.628001" xlink:href="#m288127fdc6" y="205.36986"/>
     <use style="fill:#ff0000;stroke:#ff0000;" x="175.800039" xlink:href="#m288127fdc6" y="210.033877"/>
     <use style="fill:#ff0000;stroke:#ff0000;" x="176.972077" xlink:href="#m288127fdc6" y="210.018721"/>
     <use style="fill:#ff0000;stroke:#ff0000;" x="178.144116" xlink:href="#m288127fdc6" y="214.653323"/>
     <use style="fill:#ff0000;stroke:#ff0000;" x="179.316154" xlink:href="#m288127fdc6" y="205.143684"/>
     <use style="fill:#ff0000;stroke:#ff0000;" x="180.488192" xlink:href="#m288127fdc6" y="218.284587"/>
     <use style="fill:#ff0000;stroke:#ff0000;" x="181.66023" xlink:href="#m288127fdc6" y="213.375118"/>
     <use style="fill:#ff0000;stroke:#ff0000;" x="182.832268" xlink:href="#m288127fdc6" y="195.524765"/>
     <use style="fill:#ff0000;stroke:#ff0000;" x="184.004306" xlink:href="#m288127fdc6" y="196.865948"/>
     <use style="fill:#ff0000;stroke:#ff0000;" x="185.176344" xlink:href="#m288127fdc6" y="202.212571"/>
     <use style="fill:#ff0000;stroke:#ff0000;" x="186.348382" xlink:href="#m288127fdc6" y="212.673689"/>
     <use style="fill:#ff0000;stroke:#ff0000;" x="187.52042" xlink:href="#m288127fdc6" y="212.781391"/>
     <use style="fill:#ff0000;stroke:#ff0000;" x="188.692458" xlink:href="#m288127fdc6" y="228.646716"/>
     <use style="fill:#ff0000;stroke:#ff0000;" x="189.864496" xlink:href="#m288127fdc6" y="211.925624"/>
     <use style="fill:#ff0000;stroke:#ff0000;" x="191.036534" xlink:href="#m288127fdc6" y="221.503345"/>
     <use style="fill:#ff0000;stroke:#ff0000;" x="192.208572" xlink:href="#m288127fdc6" y="220.384538"/>
     <use style="fill:#ff0000;stroke:#ff0000;" x="193.38061" xlink:href="#m288127fdc6" y="206.612425"/>
     <use style="fill:#ff0000;stroke:#ff0000;" x="194.552649" xlink:href="#m288127fdc6" y="227.859238"/>
     <use style="fill:#ff0000;stroke:#ff0000;" x="195.724687" xlink:href="#m288127fdc6" y="202.534187"/>
     <use style="fill:#ff0000;stroke:#ff0000;" x="196.896725" xlink:href="#m288127fdc6" y="222.215277"/>
     <use style="fill:#ff0000;stroke:#ff0000;" x="198.068763" xlink:href="#m288127fdc6" y="228.41239"/>
     <use style="fill:#ff0000;stroke:#ff0000;" x="199.240801" xlink:href="#m288127fdc6" y="209.637477"/>
     <use style="fill:#ff0000;stroke:#ff0000;" x="200.412839" xlink:href="#m288127fdc6" y="232.801703"/>
     <use style="fill:#ff0000;stroke:#ff0000;" x="201.584877" xlink:href="#m288127fdc6" y="219.1465"/>
     <use style="fill:#ff0000;stroke:#ff0000;" x="202.756915" xlink:href="#m288127fdc6" y="205.622675"/>
     <use style="fill:#ff0000;stroke:#ff0000;" x="203.928953" xlink:href="#m288127fdc6" y="225.979345"/>
     <use style="fill:#ff0000;stroke:#ff0000;" x="205.100991" xlink:href="#m288127fdc6" y="222.340212"/>
     <use style="fill:#ff0000;stroke:#ff0000;" x="206.273029" xlink:href="#m288127fdc6" y="229.795205"/>
     <use style="fill:#ff0000;stroke:#ff0000;" x="207.445067" xlink:href="#m288127fdc6" y="219.930097"/>
     <use style="fill:#ff0000;stroke:#ff0000;" x="208.617105" xlink:href="#m288127fdc6" y="231.995928"/>
     <use style="fill:#ff0000;stroke:#ff0000;" x="209.789143" xlink:href="#m288127fdc6" y="231.426201"/>
     <use style="fill:#ff0000;stroke:#ff0000;" x="210.961181" xlink:href="#m288127fdc6" y="229.902669"/>
     <use style="fill:#ff0000;stroke:#ff0000;" x="212.13322" xlink:href="#m288127fdc6" y="222.038569"/>
     <use style="fill:#ff0000;stroke:#ff0000;" x="213.305258" xlink:href="#m288127fdc6" y="223.588494"/>
     <use style="fill:#ff0000;stroke:#ff0000;" x="214.477296" xlink:href="#m288127fdc6" y="241.965677"/>
     <use style="fill:#ff0000;stroke:#ff0000;" x="215.649334" xlink:href="#m288127fdc6" y="241.962947"/>
     <use style="fill:#ff0000;stroke:#ff0000;" x="216.821372" xlink:href="#m288127fdc6" y="238.201789"/>
     <use style="fill:#ff0000;stroke:#ff0000;" x="217.99341" xlink:href="#m288127fdc6" y="256.207276"/>
     <use style="fill:#ff0000;stroke:#ff0000;" x="219.165448" xlink:href="#m288127fdc6" y="257.616561"/>
     <use style="fill:#ff0000;stroke:#ff0000;" x="220.337486" xlink:href="#m288127fdc6" y="252.42957"/>
     <use style="fill:#ff0000;stroke:#ff0000;" x="221.509524" xlink:href="#m288127fdc6" y="242.5239"/>
     <use style="fill:#ff0000;stroke:#ff0000;" x="222.681562" xlink:href="#m288127fdc6" y="256.134451"/>
     <use style="fill:#ff0000;stroke:#ff0000;" x="223.8536" xlink:href="#m288127fdc6" y="247.820806"/>
     <use style="fill:#ff0000;stroke:#ff0000;" x="225.025638" xlink:href="#m288127fdc6" y="249.367022"/>
     <use style="fill:#ff0000;stroke:#ff0000;" x="226.197676" xlink:href="#m288127fdc6" y="231.744121"/>
     <use style="fill:#ff0000;stroke:#ff0000;" x="227.369714" xlink:href="#m288127fdc6" y="227.003765"/>
     <use style="fill:#ff0000;stroke:#ff0000;" x="228.541753" xlink:href="#m288127fdc6" y="245.195452"/>
     <use style="fill:#ff0000;stroke:#ff0000;" x="229.713791" xlink:href="#m288127fdc6" y="238.940751"/>
     <use style="fill:#ff0000;stroke:#ff0000;" x="230.885829" xlink:href="#m288127fdc6" y="253.295709"/>
     <use style="fill:#ff0000;stroke:#ff0000;" x="232.057867" xlink:href="#m288127fdc6" y="249.063627"/>
     <use style="fill:#ff0000;stroke:#ff0000;" x="233.229905" xlink:href="#m288127fdc6" y="250.172979"/>
     <use style="fill:#ff0000;stroke:#ff0000;" x="234.401943" xlink:href="#m288127fdc6" y="236.845783"/>
     <use style="fill:#ff0000;stroke:#ff0000;" x="235.573981" xlink:href="#m288127fdc6" y="242.376571"/>
     <use style="fill:#ff0000;stroke:#ff0000;" x="236.746019" xlink:href="#m288127fdc6" y="258.062648"/>
     <use style="fill:#ff0000;stroke:#ff0000;" x="237.918057" xlink:href="#m288127fdc6" y="265.779521"/>
     <use style="fill:#ff0000;stroke:#ff0000;" x="239.090095" xlink:href="#m288127fdc6" y="243.421006"/>
     <use style="fill:#ff0000;stroke:#ff0000;" x="240.262133" xlink:href="#m288127fdc6" y="255.178189"/>
     <use style="fill:#ff0000;stroke:#ff0000;" x="241.434171" xlink:href="#m288127fdc6" y="258.154577"/>
     <use style="fill:#ff0000;stroke:#ff0000;" x="242.606209" xlink:href="#m288127fdc6" y="245.519108"/>
     <use style="fill:#ff0000;stroke:#ff0000;" x="243.778247" xlink:href="#m288127fdc6" y="249.221143"/>
     <use style="fill:#ff0000;stroke:#ff0000;" x="244.950286" xlink:href="#m288127fdc6" y="254.92183"/>
     <use style="fill:#ff0000;stroke:#ff0000;" x="246.122324" xlink:href="#m288127fdc6" y="262.344426"/>
     <use style="fill:#ff0000;stroke:#ff0000;" x="247.294362" xlink:href="#m288127fdc6" y="245.248095"/>
     <use style="fill:#ff0000;stroke:#ff0000;" x="248.4664" xlink:href="#m288127fdc6" y="242.806475"/>
     <use style="fill:#ff0000;stroke:#ff0000;" x="249.638438" xlink:href="#m288127fdc6" y="257.687558"/>
     <use style="fill:#ff0000;stroke:#ff0000;" x="250.810476" xlink:href="#m288127fdc6" y="255.896933"/>
     <use style="fill:#ff0000;stroke:#ff0000;" x="251.982514" xlink:href="#m288127fdc6" y="251.569449"/>
     <use style="fill:#ff0000;stroke:#ff0000;" x="253.154552" xlink:href="#m288127fdc6" y="263.318398"/>
     <use style="fill:#ff0000;stroke:#ff0000;" x="254.32659" xlink:href="#m288127fdc6" y="254.020853"/>
     <use style="fill:#ff0000;stroke:#ff0000;" x="255.498628" xlink:href="#m288127fdc6" y="260.968819"/>
     <use style="fill:#ff0000;stroke:#ff0000;" x="256.670666" xlink:href="#m288127fdc6" y="247.530162"/>
     <use style="fill:#ff0000;stroke:#ff0000;" x="257.842704" xlink:href="#m288127fdc6" y="258.331137"/>
     <use style="fill:#ff0000;stroke:#ff0000;" x="259.014742" xlink:href="#m288127fdc6" y="262.840323"/>
     <use style="fill:#ff0000;stroke:#ff0000;" x="260.18678" xlink:href="#m288127fdc6" y="254.274333"/>
     <use style="fill:#ff0000;stroke:#ff0000;" x="261.358819" xlink:href="#m288127fdc6" y="258.217736"/>
     <use style="fill:#ff0000;stroke:#ff0000;" x="262.530857" xlink:href="#m288127fdc6" y="256.392227"/>
     <use style="fill:#ff0000;stroke:#ff0000;" x="263.702895" xlink:href="#m288127fdc6" y="272.375372"/>
     <use style="fill:#ff0000;stroke:#ff0000;" x="264.874933" xlink:href="#m288127fdc6" y="271.754305"/>
     <use style="fill:#ff0000;stroke:#ff0000;" x="266.046971" xlink:href="#m288127fdc6" y="263.352884"/>
     <use style="fill:#ff0000;stroke:#ff0000;" x="267.219009" xlink:href="#m288127fdc6" y="264.498565"/>
     <use style="fill:#ff0000;stroke:#ff0000;" x="268.391047" xlink:href="#m288127fdc6" y="261.236396"/>
     <use style="fill:#ff0000;stroke:#ff0000;" x="269.563085" xlink:href="#m288127fdc6" y="268.387039"/>
     <use style="fill:#ff0000;stroke:#ff0000;" x="270.735123" xlink:href="#m288127fdc6" y="260.104437"/>
     <use style="fill:#ff0000;stroke:#ff0000;" x="271.907161" xlink:href="#m288127fdc6" y="270.836975"/>
     <use style="fill:#ff0000;stroke:#ff0000;" x="273.079199" xlink:href="#m288127fdc6" y="258.704181"/>
     <use style="fill:#ff0000;stroke:#ff0000;" x="274.251237" xlink:href="#m288127fdc6" y="263.150208"/>
     <use style="fill:#ff0000;stroke:#ff0000;" x="275.423275" xlink:href="#m288127fdc6" y="268.891138"/>
     <use style="fill:#ff0000;stroke:#ff0000;" x="276.595313" xlink:href="#m288127fdc6" y="255.288429"/>
     <use style="fill:#ff0000;stroke:#ff0000;" x="277.767351" xlink:href="#m288127fdc6" y="270.731767"/>
     <use style="fill:#ff0000;stroke:#ff0000;" x="278.93939" xlink:href="#m288127fdc6" y="268.435802"/>
     <use style="fill:#ff0000;stroke:#ff0000;" x="280.111428" xlink:href="#m288127fdc6" y="278.96377"/>
     <use style="fill:#ff0000;stroke:#ff0000;" x="281.283466" xlink:href="#m288127fdc6" y="266.827167"/>
     <use style="fill:#ff0000;stroke:#ff0000;" x="282.455504" xlink:href="#m288127fdc6" y="266.193041"/>
     <use style="fill:#ff0000;stroke:#ff0000;" x="283.627542" xlink:href="#m288127fdc6" y="267.152868"/>
     <use style="fill:#ff0000;stroke:#ff0000;" x="284.79958" xlink:href="#m288127fdc6" y="279.122032"/>
     <use style="fill:#ff0000;stroke:#ff0000;" x="285.971618" xlink:href="#m288127fdc6" y="261.631726"/>
     <use style="fill:#ff0000;stroke:#ff0000;" x="287.143656" xlink:href="#m288127fdc6" y="278.611527"/>
     <use style="fill:#ff0000;stroke:#ff0000;" x="288.315694" xlink:href="#m288127fdc6" y="281.300617"/>
     <use style="fill:#ff0000;stroke:#ff0000;" x="289.487732" xlink:href="#m288127fdc6" y="264.883198"/>
     <use style="fill:#ff0000;stroke:#ff0000;" x="290.65977" xlink:href="#m288127fdc6" y="265.515003"/>
     <use style="fill:#ff0000;stroke:#ff0000;" x="291.831808" xlink:href="#m288127fdc6" y="265.940398"/>
     <use style="fill:#ff0000;stroke:#ff0000;" x="293.003846" xlink:href="#m288127fdc6" y="267.650431"/>
     <use style="fill:#ff0000;stroke:#ff0000;" x="294.175884" xlink:href="#m288127fdc6" y="279.807992"/>
     <use style="fill:#ff0000;stroke:#ff0000;" x="295.347923" xlink:href="#m288127fdc6" y="283.607112"/>
     <use style="fill:#ff0000;stroke:#ff0000;" x="296.519961" xlink:href="#m288127fdc6" y="277.765494"/>
     <use style="fill:#ff0000;stroke:#ff0000;" x="297.691999" xlink:href="#m288127fdc6" y="268.36852"/>
     <use style="fill:#ff0000;stroke:#ff0000;" x="298.864037" xlink:href="#m288127fdc6" y="269.205025"/>
     <use style="fill:#ff0000;stroke:#ff0000;" x="300.036075" xlink:href="#m288127fdc6" y="270.52839"/>
     <use style="fill:#ff0000;stroke:#ff0000;" x="301.208113" xlink:href="#m288127fdc6" y="280.546563"/>
     <use style="fill:#ff0000;stroke:#ff0000;" x="302.380151" xlink:href="#m288127fdc6" y="287.816051"/>
     <use style="fill:#ff0000;stroke:#ff0000;" x="303.552189" xlink:href="#m288127fdc6" y="269.237323"/>
     <use style="fill:#ff0000;stroke:#ff0000;" x="304.724227" xlink:href="#m288127fdc6" y="283.135342"/>
     <use style="fill:#ff0000;stroke:#ff0000;" x="305.896265" xlink:href="#m288127fdc6" y="272.512093"/>
     <use style="fill:#ff0000;stroke:#ff0000;" x="307.068303" xlink:href="#m288127fdc6" y="278.641907"/>
     <use style="fill:#ff0000;stroke:#ff0000;" x="308.240341" xlink:href="#m288127fdc6" y="281.868527"/>
     <use style="fill:#ff0000;stroke:#ff0000;" x="309.412379" xlink:href="#m288127fdc6" y="272.359349"/>
     <use style="fill:#ff0000;stroke:#ff0000;" x="310.584417" xlink:href="#m288127fdc6" y="272.432534"/>
     <use style="fill:#ff0000;stroke:#ff0000;" x="311.756456" xlink:href="#m288127fdc6" y="276.725412"/>
     <use style="fill:#ff0000;stroke:#ff0000;" x="312.928494" xlink:href="#m288127fdc6" y="282.966192"/>
     <use style="fill:#ff0000;stroke:#ff0000;" x="314.100532" xlink:href="#m288127fdc6" y="287.89755"/>
     <use style="fill:#ff0000;stroke:#ff0000;" x="315.27257" xlink:href="#m288127fdc6" y="288.680937"/>
     <use style="fill:#ff0000;stroke:#ff0000;" x="316.444608" xlink:href="#m288127fdc6" y="283.851591"/>
     <use style="fill:#ff0000;stroke:#ff0000;" x="317.616646" xlink:href="#m288127fdc6" y="279.212309"/>
     <use style="fill:#ff0000;stroke:#ff0000;" x="318.788684" xlink:href="#m288127fdc6" y="276.192623"/>
     <use style="fill:#ff0000;stroke:#ff0000;" x="319.960722" xlink:href="#m288127fdc6" y="269.963272"/>
     <use style="fill:#ff0000;stroke:#ff0000;" x="321.13276" xlink:href="#m288127fdc6" y="288.071258"/>
     <use style="fill:#ff0000;stroke:#ff0000;" x="322.304798" xlink:href="#m288127fdc6" y="277.192213"/>
     <use style="fill:#ff0000;stroke:#ff0000;" x="323.476836" xlink:href="#m288127fdc6" y="279.856562"/>
     <use style="fill:#ff0000;stroke:#ff0000;" x="324.648874" xlink:href="#m288127fdc6" y="273.346239"/>
     <use style="fill:#ff0000;stroke:#ff0000;" x="325.820912" xlink:href="#m288127fdc6" y="284.308136"/>
     <use style="fill:#ff0000;stroke:#ff0000;" x="326.99295" xlink:href="#m288127fdc6" y="279.415521"/>
     <use style="fill:#ff0000;stroke:#ff0000;" x="328.164989" xlink:href="#m288127fdc6" y="281.243486"/>
     <use style="fill:#ff0000;stroke:#ff0000;" x="329.337027" xlink:href="#m288127fdc6" y="282.308513"/>
     <use style="fill:#ff0000;stroke:#ff0000;" x="330.509065" xlink:href="#m288127fdc6" y="285.370365"/>
     <use style="fill:#ff0000;stroke:#ff0000;" x="331.681103" xlink:href="#m288127fdc6" y="280.41586"/>
     <use style="fill:#ff0000;stroke:#ff0000;" x="332.853141" xlink:href="#m288127fdc6" y="289.892301"/>
     <use style="fill:#ff0000;stroke:#ff0000;" x="334.025179" xlink:href="#m288127fdc6" y="273.681394"/>
     <use style="fill:#ff0000;stroke:#ff0000;" x="335.197217" xlink:href="#m288127fdc6" y="282.325804"/>
     <use style="fill:#ff0000;stroke:#ff0000;" x="336.369255" xlink:href="#m288127fdc6" y="278.355692"/>
     <use style="fill:#ff0000;stroke:#ff0000;" x="337.541293" xlink:href="#m288127fdc6" y="281.934118"/>
     <use style="fill:#ff0000;stroke:#ff0000;" x="338.713331" xlink:href="#m288127fdc6" y="293.599933"/>
     <use style="fill:#ff0000;stroke:#ff0000;" x="339.885369" xlink:href="#m288127fdc6" y="293.369076"/>
     <use style="fill:#ff0000;stroke:#ff0000;" x="341.057407" xlink:href="#m288127fdc6" y="283.18659"/>
     <use style="fill:#ff0000;stroke:#ff0000;" x="342.229445" xlink:href="#m288127fdc6" y="289.844916"/>
     <use style="fill:#ff0000;stroke:#ff0000;" x="343.401483" xlink:href="#m288127fdc6" y="286.300016"/>
     <use style="fill:#ff0000;stroke:#ff0000;" x="344.573521" xlink:href="#m288127fdc6" y="282.026665"/>
     <use style="fill:#ff0000;stroke:#ff0000;" x="345.74556" xlink:href="#m288127fdc6" y="284.254582"/>
     <use style="fill:#ff0000;stroke:#ff0000;" x="346.917598" xlink:href="#m288127fdc6" y="281.244788"/>
     <use style="fill:#ff0000;stroke:#ff0000;" x="348.089636" xlink:href="#m288127fdc6" y="276.926763"/>
     <use style="fill:#ff0000;stroke:#ff0000;" x="349.261674" xlink:href="#m288127fdc6" y="282.252944"/>
     <use style="fill:#ff0000;stroke:#ff0000;" x="350.433712" xlink:href="#m288127fdc6" y="274.27415"/>
     <use style="fill:#ff0000;stroke:#ff0000;" x="351.60575" xlink:href="#m288127fdc6" y="291.826849"/>
     <use style="fill:#ff0000;stroke:#ff0000;" x="352.777788" xlink:href="#m288127fdc6" y="293.714878"/>
     <use style="fill:#ff0000;stroke:#ff0000;" x="353.949826" xlink:href="#m288127fdc6" y="283.757874"/>
     <use style="fill:#ff0000;stroke:#ff0000;" x="355.121864" xlink:href="#m288127fdc6" y="275.315895"/>
     <use style="fill:#ff0000;stroke:#ff0000;" x="356.293902" xlink:href="#m288127fdc6" y="276.25771"/>
     <use style="fill:#ff0000;stroke:#ff0000;" x="357.46594" xlink:href="#m288127fdc6" y="287.600565"/>
     <use style="fill:#ff0000;stroke:#ff0000;" x="358.637978" xlink:href="#m288127fdc6" y="283.393164"/>
     <use style="fill:#ff0000;stroke:#ff0000;" x="359.810016" xlink:href="#m288127fdc6" y="274.330092"/>
     <use style="fill:#ff0000;stroke:#ff0000;" x="360.982054" xlink:href="#m288127fdc6" y="284.867278"/>
     <use style="fill:#ff0000;stroke:#ff0000;" x="362.154093" xlink:href="#m288127fdc6" y="288.423507"/>
     <use style="fill:#ff0000;stroke:#ff0000;" x="363.326131" xlink:href="#m288127fdc6" y="295.488"/>
     <use style="fill:#ff0000;stroke:#ff0000;" x="364.498169" xlink:href="#m288127fdc6" y="282.341713"/>
     <use style="fill:#ff0000;stroke:#ff0000;" x="365.670207" xlink:href="#m288127fdc6" y="284.306677"/>
     <use style="fill:#ff0000;stroke:#ff0000;" x="366.842245" xlink:href="#m288127fdc6" y="287.068939"/>
     <use style="fill:#ff0000;stroke:#ff0000;" x="368.014283" xlink:href="#m288127fdc6" y="286.289196"/>
     <use style="fill:#ff0000;stroke:#ff0000;" x="369.186321" xlink:href="#m288127fdc6" y="294.268031"/>
     <use style="fill:#ff0000;stroke:#ff0000;" x="370.358359" xlink:href="#m288127fdc6" y="276.434557"/>
     <use style="fill:#ff0000;stroke:#ff0000;" x="371.530397" xlink:href="#m288127fdc6" y="288.688551"/>
     <use style="fill:#ff0000;stroke:#ff0000;" x="372.702435" xlink:href="#m288127fdc6" y="292.472929"/>
     <use style="fill:#ff0000;stroke:#ff0000;" x="373.874473" xlink:href="#m288127fdc6" y="282.410285"/>
     <use style="fill:#ff0000;stroke:#ff0000;" x="375.046511" xlink:href="#m288127fdc6" y="287.144156"/>
     <use style="fill:#ff0000;stroke:#ff0000;" x="376.218549" xlink:href="#m288127fdc6" y="276.907955"/>
     <use style="fill:#ff0000;stroke:#ff0000;" x="377.390587" xlink:href="#m288127fdc6" y="279.657688"/>
     <use style="fill:#ff0000;stroke:#ff0000;" x="378.562626" xlink:href="#m288127fdc6" y="274.32459"/>
     <use style="fill:#ff0000;stroke:#ff0000;" x="379.734664" xlink:href="#m288127fdc6" y="292.932745"/>
     <use style="fill:#ff0000;stroke:#ff0000;" x="380.906702" xlink:href="#m288127fdc6" y="292.907591"/>
     <use style="fill:#ff0000;stroke:#ff0000;" x="382.07874" xlink:href="#m288127fdc6" y="293.331876"/>
     <use style="fill:#ff0000;stroke:#ff0000;" x="383.250778" xlink:href="#m288127fdc6" y="291.658685"/>
     <use style="fill:#ff0000;stroke:#ff0000;" x="384.422816" xlink:href="#m288127fdc6" y="289.854627"/>
     <use style="fill:#ff0000;stroke:#ff0000;" x="385.594854" xlink:href="#m288127fdc6" y="291.424799"/>
     <use style="fill:#ff0000;stroke:#ff0000;" x="386.766892" xlink:href="#m288127fdc6" y="287.180163"/>
     <use style="fill:#ff0000;stroke:#ff0000;" x="387.93893" xlink:href="#m288127fdc6" y="287.998023"/>
     <use style="fill:#ff0000;stroke:#ff0000;" x="389.110968" xlink:href="#m288127fdc6" y="276.805059"/>
     <use style="fill:#ff0000;stroke:#ff0000;" x="390.283006" xlink:href="#m288127fdc6" y="273.007414"/>
     <use style="fill:#ff0000;stroke:#ff0000;" x="391.455044" xlink:href="#m288127fdc6" y="287.745997"/>
     <use style="fill:#ff0000;stroke:#ff0000;" x="392.627082" xlink:href="#m288127fdc6" y="278.290197"/>
     <use style="fill:#ff0000;stroke:#ff0000;" x="393.79912" xlink:href="#m288127fdc6" y="287.803608"/>
     <use style="fill:#ff0000;stroke:#ff0000;" x="394.971159" xlink:href="#m288127fdc6" y="277.986048"/>
     <use style="fill:#ff0000;stroke:#ff0000;" x="396.143197" xlink:href="#m288127fdc6" y="282.56715"/>
     <use style="fill:#ff0000;stroke:#ff0000;" x="397.315235" xlink:href="#m288127fdc6" y="274.940221"/>
     <use style="fill:#ff0000;stroke:#ff0000;" x="398.487273" xlink:href="#m288127fdc6" y="277.503919"/>
    </g>
   </g>
   <g id="line2d_17">
    <path clip-path="url(#pfc87f0b1f9)" d="M 73.832727 91.247249 
L 83.209032 103.648419 
L 92.585336 115.639379 
L 100.789603 125.794969 
L 108.993869 135.636492 
L 117.198136 145.163949 
L 125.402402 154.377339 
L 133.606669 163.276662 
L 141.810935 171.861919 
L 150.015202 180.133109 
L 158.219468 188.090232 
L 166.423735 195.733289 
L 174.628001 203.062279 
L 182.832268 210.077202 
L 191.036534 216.778059 
L 199.240801 223.164849 
L 207.445067 229.237572 
L 215.649334 234.996229 
L 222.681562 239.682249 
L 229.713791 244.137526 
L 236.746019 248.36206 
L 243.778247 252.355852 
L 250.810476 256.1189 
L 257.842704 259.651206 
L 264.874933 262.952769 
L 271.907161 266.023588 
L 278.93939 268.863666 
L 285.971618 271.473 
L 293.003846 273.851591 
L 300.036075 275.99944 
L 307.068303 277.916545 
L 314.100532 279.602908 
L 321.13276 281.058528 
L 328.164989 282.283405 
L 335.197217 283.277539 
L 342.229445 284.04093 
L 349.261674 284.573579 
L 356.293902 284.875484 
L 363.326131 284.946647 
L 370.358359 284.787067 
L 377.390587 284.396744 
L 384.422816 283.775678 
L 391.455044 282.923869 
L 398.487273 281.841318 
L 398.487273 281.841318 
" style="fill:none;stroke:#008000;stroke-linecap:square;stroke-width:1.5;"/>
   </g>
   <g id="patch_3">
    <path d="M 57.6 307.584 
L 57.6 41.472 
" style="fill:none;stroke:#000000;stroke-linecap:square;stroke-linejoin:miter;stroke-width:0.8;"/>
   </g>
   <g id="patch_4">
    <path d="M 414.72 307.584 
L 414.72 41.472 
" style="fill:none;stroke:#000000;stroke-linecap:square;stroke-linejoin:miter;stroke-width:0.8;"/>
   </g>
   <g id="patch_5">
    <path d="M 57.6 307.584 
L 414.72 307.584 
" style="fill:none;stroke:#000000;stroke-linecap:square;stroke-linejoin:miter;stroke-width:0.8;"/>
   </g>
   <g id="patch_6">
    <path d="M 57.6 41.472 
L 414.72 41.472 
" style="fill:none;stroke:#000000;stroke-linecap:square;stroke-linejoin:miter;stroke-width:0.8;"/>
   </g>
   <g id="text_18">
    <!-- FunctionFitting 31 -->
    <defs>
     <path d="M 9.8125 72.90625 
L 51.703125 72.90625 
L 51.703125 64.59375 
L 19.671875 64.59375 
L 19.671875 43.109375 
L 48.578125 43.109375 
L 48.578125 34.8125 
L 19.671875 34.8125 
L 19.671875 0 
L 9.8125 0 
z
" id="DejaVuSans-70"/>
     <path d="M 54.890625 33.015625 
L 54.890625 0 
L 45.90625 0 
L 45.90625 32.71875 
Q 45.90625 40.484375 42.875 44.328125 
Q 39.84375 48.1875 33.796875 48.1875 
Q 26.515625 48.1875 22.3125 43.546875 
Q 18.109375 38.921875 18.109375 30.90625 
L 18.109375 0 
L 9.078125 0 
L 9.078125 54.6875 
L 18.109375 54.6875 
L 18.109375 46.1875 
Q 21.34375 51.125 25.703125 53.5625 
Q 30.078125 56 35.796875 56 
Q 45.21875 56 50.046875 50.171875 
Q 54.890625 44.34375 54.890625 33.015625 
z
" id="DejaVuSans-110"/>
     <path d="M 48.78125 52.59375 
L 48.78125 44.1875 
Q 44.96875 46.296875 41.140625 47.34375 
Q 37.3125 48.390625 33.40625 48.390625 
Q 24.65625 48.390625 19.8125 42.84375 
Q 14.984375 37.3125 14.984375 27.296875 
Q 14.984375 17.28125 19.8125 11.734375 
Q 24.65625 6.203125 33.40625 6.203125 
Q 37.3125 6.203125 41.140625 7.25 
Q 44.96875 8.296875 48.78125 10.40625 
L 48.78125 2.09375 
Q 45.015625 0.34375 40.984375 -0.53125 
Q 36.96875 -1.421875 32.421875 -1.421875 
Q 20.0625 -1.421875 12.78125 6.34375 
Q 5.515625 14.109375 5.515625 27.296875 
Q 5.515625 40.671875 12.859375 48.328125 
Q 20.21875 56 33.015625 56 
Q 37.15625 56 41.109375 55.140625 
Q 45.0625 54.296875 48.78125 52.59375 
z
" id="DejaVuSans-99"/>
     <path d="M 18.3125 70.21875 
L 18.3125 54.6875 
L 36.8125 54.6875 
L 36.8125 47.703125 
L 18.3125 47.703125 
L 18.3125 18.015625 
Q 18.3125 11.328125 20.140625 9.421875 
Q 21.96875 7.515625 27.59375 7.515625 
L 36.8125 7.515625 
L 36.8125 0 
L 27.59375 0 
Q 17.1875 0 13.234375 3.875 
Q 9.28125 7.765625 9.28125 18.015625 
L 9.28125 47.703125 
L 2.6875 47.703125 
L 2.6875 54.6875 
L 9.28125 54.6875 
L 9.28125 70.21875 
z
" id="DejaVuSans-116"/>
     <path d="M 9.421875 54.6875 
L 18.40625 54.6875 
L 18.40625 0 
L 9.421875 0 
z
M 9.421875 75.984375 
L 18.40625 75.984375 
L 18.40625 64.59375 
L 9.421875 64.59375 
z
" id="DejaVuSans-105"/>
     <path d="M 30.609375 48.390625 
Q 23.390625 48.390625 19.1875 42.75 
Q 14.984375 37.109375 14.984375 27.296875 
Q 14.984375 17.484375 19.15625 11.84375 
Q 23.34375 6.203125 30.609375 6.203125 
Q 37.796875 6.203125 41.984375 11.859375 
Q 46.1875 17.53125 46.1875 27.296875 
Q 46.1875 37.015625 41.984375 42.703125 
Q 37.796875 48.390625 30.609375 48.390625 
z
M 30.609375 56 
Q 42.328125 56 49.015625 48.375 
Q 55.71875 40.765625 55.71875 27.296875 
Q 55.71875 13.875 49.015625 6.21875 
Q 42.328125 -1.421875 30.609375 -1.421875 
Q 18.84375 -1.421875 12.171875 6.21875 
Q 5.515625 13.875 5.515625 27.296875 
Q 5.515625 40.765625 12.171875 48.375 
Q 18.84375 56 30.609375 56 
z
" id="DejaVuSans-111"/>
     <path d="M 45.40625 27.984375 
Q 45.40625 37.75 41.375 43.109375 
Q 37.359375 48.484375 30.078125 48.484375 
Q 22.859375 48.484375 18.828125 43.109375 
Q 14.796875 37.75 14.796875 27.984375 
Q 14.796875 18.265625 18.828125 12.890625 
Q 22.859375 7.515625 30.078125 7.515625 
Q 37.359375 7.515625 41.375 12.890625 
Q 45.40625 18.265625 45.40625 27.984375 
z
M 54.390625 6.78125 
Q 54.390625 -7.171875 48.1875 -13.984375 
Q 42 -20.796875 29.203125 -20.796875 
Q 24.46875 -20.796875 20.265625 -20.09375 
Q 16.0625 -19.390625 12.109375 -17.921875 
L 12.109375 -9.1875 
Q 16.0625 -11.328125 19.921875 -12.34375 
Q 23.78125 -13.375 27.78125 -13.375 
Q 36.625 -13.375 41.015625 -8.765625 
Q 45.40625 -4.15625 45.40625 5.171875 
L 45.40625 9.625 
Q 42.625 4.78125 38.28125 2.390625 
Q 33.9375 0 27.875 0 
Q 17.828125 0 11.671875 7.65625 
Q 5.515625 15.328125 5.515625 27.984375 
Q 5.515625 40.671875 11.671875 48.328125 
Q 17.828125 56 27.875 56 
Q 33.9375 56 38.28125 53.609375 
Q 42.625 51.21875 45.40625 46.390625 
L 45.40625 54.6875 
L 54.390625 54.6875 
z
" id="DejaVuSans-103"/>
    </defs>
    <g transform="translate(181.680937 35.472)scale(0.12 -0.12)">
     <use xlink:href="#DejaVuSans-70"/>
     <use x="57.441406" xlink:href="#DejaVuSans-117"/>
     <use x="120.820312" xlink:href="#DejaVuSans-110"/>
     <use x="184.199219" xlink:href="#DejaVuSans-99"/>
     <use x="239.179688" xlink:href="#DejaVuSans-116"/>
     <use x="278.388672" xlink:href="#DejaVuSans-105"/>
     <use x="306.171875" xlink:href="#DejaVuSans-111"/>
     <use x="367.353516" xlink:href="#DejaVuSans-110"/>
     <use x="430.732422" xlink:href="#DejaVuSans-70"/>
     <use x="488.142578" xlink:href="#DejaVuSans-105"/>
     <use x="515.925781" xlink:href="#DejaVuSans-116"/>
     <use x="555.134766" xlink:href="#DejaVuSans-116"/>
     <use x="594.34375" xlink:href="#DejaVuSans-105"/>
     <use x="622.126953" xlink:href="#DejaVuSans-110"/>
     <use x="685.505859" xlink:href="#DejaVuSans-103"/>
     <use x="748.982422" xlink:href="#DejaVuSans-32"/>
     <use x="780.769531" xlink:href="#DejaVuSans-51"/>
     <use x="844.392578" xlink:href="#DejaVuSans-49"/>
    </g>
   </g>
   <g id="legend_1">
    <g id="patch_7">
     <path d="M 299.83875 78.82825 
L 407.72 78.82825 
Q 409.72 78.82825 409.72 76.82825 
L 409.72 48.472 
Q 409.72 46.472 407.72 46.472 
L 299.83875 46.472 
Q 297.83875 46.472 297.83875 48.472 
L 297.83875 76.82825 
Q 297.83875 78.82825 299.83875 78.82825 
z
" style="fill:#ffffff;opacity:0.8;stroke:#cccccc;stroke-linejoin:miter;"/>
    </g>
    <g id="line2d_18"/>
    <g id="line2d_19">
     <g>
      <use style="fill:#ff0000;stroke:#ff0000;" x="311.83875" xlink:href="#m288127fdc6" y="54.570437"/>
     </g>
    </g>
    <g id="text_19">
     <!-- measured data -->
     <defs>
      <path d="M 52 44.1875 
Q 55.375 50.25 60.0625 53.125 
Q 64.75 56 71.09375 56 
Q 79.640625 56 84.28125 50.015625 
Q 88.921875 44.046875 88.921875 33.015625 
L 88.921875 0 
L 79.890625 0 
L 79.890625 32.71875 
Q 79.890625 40.578125 77.09375 44.375 
Q 74.3125 48.1875 68.609375 48.1875 
Q 61.625 48.1875 57.5625 43.546875 
Q 53.515625 38.921875 53.515625 30.90625 
L 53.515625 0 
L 44.484375 0 
L 44.484375 32.71875 
Q 44.484375 40.625 41.703125 44.40625 
Q 38.921875 48.1875 33.109375 48.1875 
Q 26.21875 48.1875 22.15625 43.53125 
Q 18.109375 38.875 18.109375 30.90625 
L 18.109375 0 
L 9.078125 0 
L 9.078125 54.6875 
L 18.109375 54.6875 
L 18.109375 46.1875 
Q 21.1875 51.21875 25.484375 53.609375 
Q 29.78125 56 35.6875 56 
Q 41.65625 56 45.828125 52.96875 
Q 50 49.953125 52 44.1875 
z
" id="DejaVuSans-109"/>
      <path d="M 41.109375 46.296875 
Q 39.59375 47.171875 37.8125 47.578125 
Q 36.03125 48 33.890625 48 
Q 26.265625 48 22.1875 43.046875 
Q 18.109375 38.09375 18.109375 28.8125 
L 18.109375 0 
L 9.078125 0 
L 9.078125 54.6875 
L 18.109375 54.6875 
L 18.109375 46.1875 
Q 20.953125 51.171875 25.484375 53.578125 
Q 30.03125 56 36.53125 56 
Q 37.453125 56 38.578125 55.875 
Q 39.703125 55.765625 41.0625 55.515625 
z
" id="DejaVuSans-114"/>
      <path d="M 45.40625 46.390625 
L 45.40625 75.984375 
L 54.390625 75.984375 
L 54.390625 0 
L 45.40625 0 
L 45.40625 8.203125 
Q 42.578125 3.328125 38.25 0.953125 
Q 33.9375 -1.421875 27.875 -1.421875 
Q 17.96875 -1.421875 11.734375 6.484375 
Q 5.515625 14.40625 5.515625 27.296875 
Q 5.515625 40.1875 11.734375 48.09375 
Q 17.96875 56 27.875 56 
Q 33.9375 56 38.25 53.625 
Q 42.578125 51.265625 45.40625 46.390625 
z
M 14.796875 27.296875 
Q 14.796875 17.390625 18.875 11.75 
Q 22.953125 6.109375 30.078125 6.109375 
Q 37.203125 6.109375 41.296875 11.75 
Q 45.40625 17.390625 45.40625 27.296875 
Q 45.40625 37.203125 41.296875 42.84375 
Q 37.203125 48.484375 30.078125 48.484375 
Q 22.953125 48.484375 18.875 42.84375 
Q 14.796875 37.203125 14.796875 27.296875 
z
" id="DejaVuSans-100"/>
     </defs>
     <g transform="translate(329.83875 58.070437)scale(0.1 -0.1)">
      <use xlink:href="#DejaVuSans-109"/>
      <use x="97.412109" xlink:href="#DejaVuSans-101"/>
      <use x="158.935547" xlink:href="#DejaVuSans-97"/>
      <use x="220.214844" xlink:href="#DejaVuSans-115"/>
      <use x="272.314453" xlink:href="#DejaVuSans-117"/>
      <use x="335.693359" xlink:href="#DejaVuSans-114"/>
      <use x="376.775391" xlink:href="#DejaVuSans-101"/>
      <use x="438.298828" xlink:href="#DejaVuSans-100"/>
      <use x="501.775391" xlink:href="#DejaVuSans-32"/>
      <use x="533.5625" xlink:href="#DejaVuSans-100"/>
      <use x="597.039062" xlink:href="#DejaVuSans-97"/>
      <use x="658.318359" xlink:href="#DejaVuSans-116"/>
      <use x="697.527344" xlink:href="#DejaVuSans-97"/>
     </g>
    </g>
    <g id="line2d_20">
     <path d="M 301.83875 69.248562 
L 321.83875 69.248562 
" style="fill:none;stroke:#008000;stroke-linecap:square;stroke-width:1.5;"/>
    </g>
    <g id="line2d_21"/>
    <g id="text_20">
     <!-- linear data -->
     <g transform="translate(329.83875 72.748562)scale(0.1 -0.1)">
      <use xlink:href="#DejaVuSans-108"/>
      <use x="27.783203" xlink:href="#DejaVuSans-105"/>
      <use x="55.566406" xlink:href="#DejaVuSans-110"/>
      <use x="118.945312" xlink:href="#DejaVuSans-101"/>
      <use x="180.46875" xlink:href="#DejaVuSans-97"/>
      <use x="241.748047" xlink:href="#DejaVuSans-114"/>
      <use x="282.861328" xlink:href="#DejaVuSans-32"/>
      <use x="314.648438" xlink:href="#DejaVuSans-100"/>
      <use x="378.125" xlink:href="#DejaVuSans-97"/>
      <use x="439.404297" xlink:href="#DejaVuSans-116"/>
      <use x="478.613281" xlink:href="#DejaVuSans-97"/>
     </g>
    </g>
   </g>
  </g>
 </g>
 <defs>
  <clipPath id="pfc87f0b1f9">
   <rect height="266.112" width="357.12" x="57.6" y="41.472"/>
  </clipPath>
 </defs>
</svg>
