<?xml version="1.0" encoding="utf-8" standalone="no"?>
<!DOCTYPE svg PUBLIC "-//W3C//DTD SVG 1.1//EN"
  "http://www.w3.org/Graphics/SVG/1.1/DTD/svg11.dtd">
<!-- Created with matplotlib (https://matplotlib.org/) -->
<svg height="345.6pt" version="1.1" viewBox="0 0 460.8 345.6" width="460.8pt" xmlns="http://www.w3.org/2000/svg" xmlns:xlink="http://www.w3.org/1999/xlink">
 <defs>
  <style type="text/css">
*{stroke-linecap:butt;stroke-linejoin:round;}
  </style>
 </defs>
 <g id="figure_1">
  <g id="patch_1">
   <path d="M 0 345.6 
L 460.8 345.6 
L 460.8 0 
L 0 0 
z
" style="fill:#ffffff;"/>
  </g>
  <g id="axes_1">
   <g id="patch_2">
    <path d="M 57.6 307.584 
L 414.72 307.584 
L 414.72 41.472 
L 57.6 41.472 
z
" style="fill:#ffffff;"/>
   </g>
   <g id="matplotlib.axis_1">
    <g id="xtick_1">
     <g id="line2d_1">
      <defs>
       <path d="M 0 0 
L 0 3.5 
" id="md443090b35" style="stroke:#000000;stroke-width:0.8;"/>
      </defs>
      <g>
       <use style="stroke:#000000;stroke-width:0.8;" x="69.492691" xlink:href="#md443090b35" y="307.584"/>
      </g>
     </g>
     <g id="text_1">
      <!-- 0 -->
      <defs>
       <path d="M 31.78125 66.40625 
Q 24.171875 66.40625 20.328125 58.90625 
Q 16.5 51.421875 16.5 36.375 
Q 16.5 21.390625 20.328125 13.890625 
Q 24.171875 6.390625 31.78125 6.390625 
Q 39.453125 6.390625 43.28125 13.890625 
Q 47.125 21.390625 47.125 36.375 
Q 47.125 51.421875 43.28125 58.90625 
Q 39.453125 66.40625 31.78125 66.40625 
z
M 31.78125 74.21875 
Q 44.046875 74.21875 50.515625 64.515625 
Q 56.984375 54.828125 56.984375 36.375 
Q 56.984375 17.96875 50.515625 8.265625 
Q 44.046875 -1.421875 31.78125 -1.421875 
Q 19.53125 -1.421875 13.0625 8.265625 
Q 6.59375 17.96875 6.59375 36.375 
Q 6.59375 54.828125 13.0625 64.515625 
Q 19.53125 74.21875 31.78125 74.21875 
z
" id="DejaVuSans-48"/>
      </defs>
      <g transform="translate(66.311441 322.182437)scale(0.1 -0.1)">
       <use xlink:href="#DejaVuSans-48"/>
      </g>
     </g>
    </g>
    <g id="xtick_2">
     <g id="line2d_2">
      <g>
       <use style="stroke:#000000;stroke-width:0.8;" x="130.654603" xlink:href="#md443090b35" y="307.584"/>
      </g>
     </g>
     <g id="text_2">
      <!-- 20 -->
      <defs>
       <path d="M 19.1875 8.296875 
L 53.609375 8.296875 
L 53.609375 0 
L 7.328125 0 
L 7.328125 8.296875 
Q 12.9375 14.109375 22.625 23.890625 
Q 32.328125 33.6875 34.8125 36.53125 
Q 39.546875 41.84375 41.421875 45.53125 
Q 43.3125 49.21875 43.3125 52.78125 
Q 43.3125 58.59375 39.234375 62.25 
Q 35.15625 65.921875 28.609375 65.921875 
Q 23.96875 65.921875 18.8125 64.3125 
Q 13.671875 62.703125 7.8125 59.421875 
L 7.8125 69.390625 
Q 13.765625 71.78125 18.9375 73 
Q 24.125 74.21875 28.421875 74.21875 
Q 39.75 74.21875 46.484375 68.546875 
Q 53.21875 62.890625 53.21875 53.421875 
Q 53.21875 48.921875 51.53125 44.890625 
Q 49.859375 40.875 45.40625 35.40625 
Q 44.1875 33.984375 37.640625 27.21875 
Q 31.109375 20.453125 19.1875 8.296875 
z
" id="DejaVuSans-50"/>
      </defs>
      <g transform="translate(124.292103 322.182437)scale(0.1 -0.1)">
       <use xlink:href="#DejaVuSans-50"/>
       <use x="63.623047" xlink:href="#DejaVuSans-48"/>
      </g>
     </g>
    </g>
    <g id="xtick_3">
     <g id="line2d_3">
      <g>
       <use style="stroke:#000000;stroke-width:0.8;" x="191.816514" xlink:href="#md443090b35" y="307.584"/>
      </g>
     </g>
     <g id="text_3">
      <!-- 40 -->
      <defs>
       <path d="M 37.796875 64.3125 
L 12.890625 25.390625 
L 37.796875 25.390625 
z
M 35.203125 72.90625 
L 47.609375 72.90625 
L 47.609375 25.390625 
L 58.015625 25.390625 
L 58.015625 17.1875 
L 47.609375 17.1875 
L 47.609375 0 
L 37.796875 0 
L 37.796875 17.1875 
L 4.890625 17.1875 
L 4.890625 26.703125 
z
" id="DejaVuSans-52"/>
      </defs>
      <g transform="translate(185.454014 322.182437)scale(0.1 -0.1)">
       <use xlink:href="#DejaVuSans-52"/>
       <use x="63.623047" xlink:href="#DejaVuSans-48"/>
      </g>
     </g>
    </g>
    <g id="xtick_4">
     <g id="line2d_4">
      <g>
       <use style="stroke:#000000;stroke-width:0.8;" x="252.978425" xlink:href="#md443090b35" y="307.584"/>
      </g>
     </g>
     <g id="text_4">
      <!-- 60 -->
      <defs>
       <path d="M 33.015625 40.375 
Q 26.375 40.375 22.484375 35.828125 
Q 18.609375 31.296875 18.609375 23.390625 
Q 18.609375 15.53125 22.484375 10.953125 
Q 26.375 6.390625 33.015625 6.390625 
Q 39.65625 6.390625 43.53125 10.953125 
Q 47.40625 15.53125 47.40625 23.390625 
Q 47.40625 31.296875 43.53125 35.828125 
Q 39.65625 40.375 33.015625 40.375 
z
M 52.59375 71.296875 
L 52.59375 62.3125 
Q 48.875 64.0625 45.09375 64.984375 
Q 41.3125 65.921875 37.59375 65.921875 
Q 27.828125 65.921875 22.671875 59.328125 
Q 17.53125 52.734375 16.796875 39.40625 
Q 19.671875 43.65625 24.015625 45.921875 
Q 28.375 48.1875 33.59375 48.1875 
Q 44.578125 48.1875 50.953125 41.515625 
Q 57.328125 34.859375 57.328125 23.390625 
Q 57.328125 12.15625 50.6875 5.359375 
Q 44.046875 -1.421875 33.015625 -1.421875 
Q 20.359375 -1.421875 13.671875 8.265625 
Q 6.984375 17.96875 6.984375 36.375 
Q 6.984375 53.65625 15.1875 63.9375 
Q 23.390625 74.21875 37.203125 74.21875 
Q 40.921875 74.21875 44.703125 73.484375 
Q 48.484375 72.75 52.59375 71.296875 
z
" id="DejaVuSans-54"/>
      </defs>
      <g transform="translate(246.615925 322.182437)scale(0.1 -0.1)">
       <use xlink:href="#DejaVuSans-54"/>
       <use x="63.623047" xlink:href="#DejaVuSans-48"/>
      </g>
     </g>
    </g>
    <g id="xtick_5">
     <g id="line2d_5">
      <g>
       <use style="stroke:#000000;stroke-width:0.8;" x="314.140336" xlink:href="#md443090b35" y="307.584"/>
      </g>
     </g>
     <g id="text_5">
      <!-- 80 -->
      <defs>
       <path d="M 31.78125 34.625 
Q 24.75 34.625 20.71875 30.859375 
Q 16.703125 27.09375 16.703125 20.515625 
Q 16.703125 13.921875 20.71875 10.15625 
Q 24.75 6.390625 31.78125 6.390625 
Q 38.8125 6.390625 42.859375 10.171875 
Q 46.921875 13.96875 46.921875 20.515625 
Q 46.921875 27.09375 42.890625 30.859375 
Q 38.875 34.625 31.78125 34.625 
z
M 21.921875 38.8125 
Q 15.578125 40.375 12.03125 44.71875 
Q 8.5 49.078125 8.5 55.328125 
Q 8.5 64.0625 14.71875 69.140625 
Q 20.953125 74.21875 31.78125 74.21875 
Q 42.671875 74.21875 48.875 69.140625 
Q 55.078125 64.0625 55.078125 55.328125 
Q 55.078125 49.078125 51.53125 44.71875 
Q 48 40.375 41.703125 38.8125 
Q 48.828125 37.15625 52.796875 32.3125 
Q 56.78125 27.484375 56.78125 20.515625 
Q 56.78125 9.90625 50.3125 4.234375 
Q 43.84375 -1.421875 31.78125 -1.421875 
Q 19.734375 -1.421875 13.25 4.234375 
Q 6.78125 9.90625 6.78125 20.515625 
Q 6.78125 27.484375 10.78125 32.3125 
Q 14.796875 37.15625 21.921875 38.8125 
z
M 18.3125 54.390625 
Q 18.3125 48.734375 21.84375 45.5625 
Q 25.390625 42.390625 31.78125 42.390625 
Q 38.140625 42.390625 41.71875 45.5625 
Q 45.3125 48.734375 45.3125 54.390625 
Q 45.3125 60.0625 41.71875 63.234375 
Q 38.140625 66.40625 31.78125 66.40625 
Q 25.390625 66.40625 21.84375 63.234375 
Q 18.3125 60.0625 18.3125 54.390625 
z
" id="DejaVuSans-56"/>
      </defs>
      <g transform="translate(307.777836 322.182437)scale(0.1 -0.1)">
       <use xlink:href="#DejaVuSans-56"/>
       <use x="63.623047" xlink:href="#DejaVuSans-48"/>
      </g>
     </g>
    </g>
    <g id="xtick_6">
     <g id="line2d_6">
      <g>
       <use style="stroke:#000000;stroke-width:0.8;" x="375.302247" xlink:href="#md443090b35" y="307.584"/>
      </g>
     </g>
     <g id="text_6">
      <!-- 100 -->
      <defs>
       <path d="M 12.40625 8.296875 
L 28.515625 8.296875 
L 28.515625 63.921875 
L 10.984375 60.40625 
L 10.984375 69.390625 
L 28.421875 72.90625 
L 38.28125 72.90625 
L 38.28125 8.296875 
L 54.390625 8.296875 
L 54.390625 0 
L 12.40625 0 
z
" id="DejaVuSans-49"/>
      </defs>
      <g transform="translate(365.758497 322.182437)scale(0.1 -0.1)">
       <use xlink:href="#DejaVuSans-49"/>
       <use x="63.623047" xlink:href="#DejaVuSans-48"/>
       <use x="127.246094" xlink:href="#DejaVuSans-48"/>
      </g>
     </g>
    </g>
    <g id="text_7">
     <!-- x values -->
     <defs>
      <path d="M 54.890625 54.6875 
L 35.109375 28.078125 
L 55.90625 0 
L 45.3125 0 
L 29.390625 21.484375 
L 13.484375 0 
L 2.875 0 
L 24.125 28.609375 
L 4.6875 54.6875 
L 15.28125 54.6875 
L 29.78125 35.203125 
L 44.28125 54.6875 
z
" id="DejaVuSans-120"/>
      <path id="DejaVuSans-32"/>
      <path d="M 2.984375 54.6875 
L 12.5 54.6875 
L 29.59375 8.796875 
L 46.6875 54.6875 
L 56.203125 54.6875 
L 35.6875 0 
L 23.484375 0 
z
" id="DejaVuSans-118"/>
      <path d="M 34.28125 27.484375 
Q 23.390625 27.484375 19.1875 25 
Q 14.984375 22.515625 14.984375 16.5 
Q 14.984375 11.71875 18.140625 8.90625 
Q 21.296875 6.109375 26.703125 6.109375 
Q 34.1875 6.109375 38.703125 11.40625 
Q 43.21875 16.703125 43.21875 25.484375 
L 43.21875 27.484375 
z
M 52.203125 31.203125 
L 52.203125 0 
L 43.21875 0 
L 43.21875 8.296875 
Q 40.140625 3.328125 35.546875 0.953125 
Q 30.953125 -1.421875 24.3125 -1.421875 
Q 15.921875 -1.421875 10.953125 3.296875 
Q 6 8.015625 6 15.921875 
Q 6 25.140625 12.171875 29.828125 
Q 18.359375 34.515625 30.609375 34.515625 
L 43.21875 34.515625 
L 43.21875 35.40625 
Q 43.21875 41.609375 39.140625 45 
Q 35.0625 48.390625 27.6875 48.390625 
Q 23 48.390625 18.546875 47.265625 
Q 14.109375 46.140625 10.015625 43.890625 
L 10.015625 52.203125 
Q 14.9375 54.109375 19.578125 55.046875 
Q 24.21875 56 28.609375 56 
Q 40.484375 56 46.34375 49.84375 
Q 52.203125 43.703125 52.203125 31.203125 
z
" id="DejaVuSans-97"/>
      <path d="M 9.421875 75.984375 
L 18.40625 75.984375 
L 18.40625 0 
L 9.421875 0 
z
" id="DejaVuSans-108"/>
      <path d="M 8.5 21.578125 
L 8.5 54.6875 
L 17.484375 54.6875 
L 17.484375 21.921875 
Q 17.484375 14.15625 20.5 10.265625 
Q 23.53125 6.390625 29.59375 6.390625 
Q 36.859375 6.390625 41.078125 11.03125 
Q 45.3125 15.671875 45.3125 23.6875 
L 45.3125 54.6875 
L 54.296875 54.6875 
L 54.296875 0 
L 45.3125 0 
L 45.3125 8.40625 
Q 42.046875 3.421875 37.71875 1 
Q 33.40625 -1.421875 27.6875 -1.421875 
Q 18.265625 -1.421875 13.375 4.4375 
Q 8.5 10.296875 8.5 21.578125 
z
M 31.109375 56 
z
" id="DejaVuSans-117"/>
      <path d="M 56.203125 29.59375 
L 56.203125 25.203125 
L 14.890625 25.203125 
Q 15.484375 15.921875 20.484375 11.0625 
Q 25.484375 6.203125 34.421875 6.203125 
Q 39.59375 6.203125 44.453125 7.46875 
Q 49.3125 8.734375 54.109375 11.28125 
L 54.109375 2.78125 
Q 49.265625 0.734375 44.1875 -0.34375 
Q 39.109375 -1.421875 33.890625 -1.421875 
Q 20.796875 -1.421875 13.15625 6.1875 
Q 5.515625 13.8125 5.515625 26.8125 
Q 5.515625 40.234375 12.765625 48.109375 
Q 20.015625 56 32.328125 56 
Q 43.359375 56 49.78125 48.890625 
Q 56.203125 41.796875 56.203125 29.59375 
z
M 47.21875 32.234375 
Q 47.125 39.59375 43.09375 43.984375 
Q 39.0625 48.390625 32.421875 48.390625 
Q 24.90625 48.390625 20.390625 44.140625 
Q 15.875 39.890625 15.1875 32.171875 
z
" id="DejaVuSans-101"/>
      <path d="M 44.28125 53.078125 
L 44.28125 44.578125 
Q 40.484375 46.53125 36.375 47.5 
Q 32.28125 48.484375 27.875 48.484375 
Q 21.1875 48.484375 17.84375 46.4375 
Q 14.5 44.390625 14.5 40.28125 
Q 14.5 37.15625 16.890625 35.375 
Q 19.28125 33.59375 26.515625 31.984375 
L 29.59375 31.296875 
Q 39.15625 29.25 43.1875 25.515625 
Q 47.21875 21.78125 47.21875 15.09375 
Q 47.21875 7.46875 41.1875 3.015625 
Q 35.15625 -1.421875 24.609375 -1.421875 
Q 20.21875 -1.421875 15.453125 -0.5625 
Q 10.6875 0.296875 5.421875 2 
L 5.421875 11.28125 
Q 10.40625 8.6875 15.234375 7.390625 
Q 20.0625 6.109375 24.8125 6.109375 
Q 31.15625 6.109375 34.5625 8.28125 
Q 37.984375 10.453125 37.984375 14.40625 
Q 37.984375 18.0625 35.515625 20.015625 
Q 33.0625 21.96875 24.703125 23.78125 
L 21.578125 24.515625 
Q 13.234375 26.265625 9.515625 29.90625 
Q 5.8125 33.546875 5.8125 39.890625 
Q 5.8125 47.609375 11.28125 51.796875 
Q 16.75 56 26.8125 56 
Q 31.78125 56 36.171875 55.265625 
Q 40.578125 54.546875 44.28125 53.078125 
z
" id="DejaVuSans-115"/>
     </defs>
     <g transform="translate(215.349063 335.860562)scale(0.1 -0.1)">
      <use xlink:href="#DejaVuSans-120"/>
      <use x="59.179688" xlink:href="#DejaVuSans-32"/>
      <use x="90.966797" xlink:href="#DejaVuSans-118"/>
      <use x="150.146484" xlink:href="#DejaVuSans-97"/>
      <use x="211.425781" xlink:href="#DejaVuSans-108"/>
      <use x="239.208984" xlink:href="#DejaVuSans-117"/>
      <use x="302.587891" xlink:href="#DejaVuSans-101"/>
      <use x="364.111328" xlink:href="#DejaVuSans-115"/>
     </g>
    </g>
   </g>
   <g id="matplotlib.axis_2">
    <g id="ytick_1">
     <g id="line2d_7">
      <defs>
       <path d="M 0 0 
L -3.5 0 
" id="m3b1a513ae9" style="stroke:#000000;stroke-width:0.8;"/>
      </defs>
      <g>
       <use style="stroke:#000000;stroke-width:0.8;" x="57.6" xlink:href="#m3b1a513ae9" y="290.379045"/>
      </g>
     </g>
     <g id="text_8">
      <!-- 0 -->
      <g transform="translate(44.2375 294.178264)scale(0.1 -0.1)">
       <use xlink:href="#DejaVuSans-48"/>
      </g>
     </g>
    </g>
    <g id="ytick_2">
     <g id="line2d_8">
      <g>
       <use style="stroke:#000000;stroke-width:0.8;" x="57.6" xlink:href="#m3b1a513ae9" y="252.74275"/>
      </g>
     </g>
     <g id="text_9">
      <!-- 100 -->
      <g transform="translate(31.5125 256.541969)scale(0.1 -0.1)">
       <use xlink:href="#DejaVuSans-49"/>
       <use x="63.623047" xlink:href="#DejaVuSans-48"/>
       <use x="127.246094" xlink:href="#DejaVuSans-48"/>
      </g>
     </g>
    </g>
    <g id="ytick_3">
     <g id="line2d_9">
      <g>
       <use style="stroke:#000000;stroke-width:0.8;" x="57.6" xlink:href="#m3b1a513ae9" y="215.106455"/>
      </g>
     </g>
     <g id="text_10">
      <!-- 200 -->
      <g transform="translate(31.5125 218.905673)scale(0.1 -0.1)">
       <use xlink:href="#DejaVuSans-50"/>
       <use x="63.623047" xlink:href="#DejaVuSans-48"/>
       <use x="127.246094" xlink:href="#DejaVuSans-48"/>
      </g>
     </g>
    </g>
    <g id="ytick_4">
     <g id="line2d_10">
      <g>
       <use style="stroke:#000000;stroke-width:0.8;" x="57.6" xlink:href="#m3b1a513ae9" y="177.47016"/>
      </g>
     </g>
     <g id="text_11">
      <!-- 300 -->
      <defs>
       <path d="M 40.578125 39.3125 
Q 47.65625 37.796875 51.625 33 
Q 55.609375 28.21875 55.609375 21.1875 
Q 55.609375 10.40625 48.1875 4.484375 
Q 40.765625 -1.421875 27.09375 -1.421875 
Q 22.515625 -1.421875 17.65625 -0.515625 
Q 12.796875 0.390625 7.625 2.203125 
L 7.625 11.71875 
Q 11.71875 9.328125 16.59375 8.109375 
Q 21.484375 6.890625 26.8125 6.890625 
Q 36.078125 6.890625 40.9375 10.546875 
Q 45.796875 14.203125 45.796875 21.1875 
Q 45.796875 27.640625 41.28125 31.265625 
Q 36.765625 34.90625 28.71875 34.90625 
L 20.21875 34.90625 
L 20.21875 43.015625 
L 29.109375 43.015625 
Q 36.375 43.015625 40.234375 45.921875 
Q 44.09375 48.828125 44.09375 54.296875 
Q 44.09375 59.90625 40.109375 62.90625 
Q 36.140625 65.921875 28.71875 65.921875 
Q 24.65625 65.921875 20.015625 65.03125 
Q 15.375 64.15625 9.8125 62.3125 
L 9.8125 71.09375 
Q 15.4375 72.65625 20.34375 73.4375 
Q 25.25 74.21875 29.59375 74.21875 
Q 40.828125 74.21875 47.359375 69.109375 
Q 53.90625 64.015625 53.90625 55.328125 
Q 53.90625 49.265625 50.4375 45.09375 
Q 46.96875 40.921875 40.578125 39.3125 
z
" id="DejaVuSans-51"/>
      </defs>
      <g transform="translate(31.5125 181.269378)scale(0.1 -0.1)">
       <use xlink:href="#DejaVuSans-51"/>
       <use x="63.623047" xlink:href="#DejaVuSans-48"/>
       <use x="127.246094" xlink:href="#DejaVuSans-48"/>
      </g>
     </g>
    </g>
    <g id="ytick_5">
     <g id="line2d_11">
      <g>
       <use style="stroke:#000000;stroke-width:0.8;" x="57.6" xlink:href="#m3b1a513ae9" y="139.833864"/>
      </g>
     </g>
     <g id="text_12">
      <!-- 400 -->
      <g transform="translate(31.5125 143.633083)scale(0.1 -0.1)">
       <use xlink:href="#DejaVuSans-52"/>
       <use x="63.623047" xlink:href="#DejaVuSans-48"/>
       <use x="127.246094" xlink:href="#DejaVuSans-48"/>
      </g>
     </g>
    </g>
    <g id="ytick_6">
     <g id="line2d_12">
      <g>
       <use style="stroke:#000000;stroke-width:0.8;" x="57.6" xlink:href="#m3b1a513ae9" y="102.197569"/>
      </g>
     </g>
     <g id="text_13">
      <!-- 500 -->
      <defs>
       <path d="M 10.796875 72.90625 
L 49.515625 72.90625 
L 49.515625 64.59375 
L 19.828125 64.59375 
L 19.828125 46.734375 
Q 21.96875 47.46875 24.109375 47.828125 
Q 26.265625 48.1875 28.421875 48.1875 
Q 40.625 48.1875 47.75 41.5 
Q 54.890625 34.8125 54.890625 23.390625 
Q 54.890625 11.625 47.5625 5.09375 
Q 40.234375 -1.421875 26.90625 -1.421875 
Q 22.3125 -1.421875 17.546875 -0.640625 
Q 12.796875 0.140625 7.71875 1.703125 
L 7.71875 11.625 
Q 12.109375 9.234375 16.796875 8.0625 
Q 21.484375 6.890625 26.703125 6.890625 
Q 35.15625 6.890625 40.078125 11.328125 
Q 45.015625 15.765625 45.015625 23.390625 
Q 45.015625 31 40.078125 35.4375 
Q 35.15625 39.890625 26.703125 39.890625 
Q 22.75 39.890625 18.8125 39.015625 
Q 14.890625 38.140625 10.796875 36.28125 
z
" id="DejaVuSans-53"/>
      </defs>
      <g transform="translate(31.5125 105.996788)scale(0.1 -0.1)">
       <use xlink:href="#DejaVuSans-53"/>
       <use x="63.623047" xlink:href="#DejaVuSans-48"/>
       <use x="127.246094" xlink:href="#DejaVuSans-48"/>
      </g>
     </g>
    </g>
    <g id="ytick_7">
     <g id="line2d_13">
      <g>
       <use style="stroke:#000000;stroke-width:0.8;" x="57.6" xlink:href="#m3b1a513ae9" y="64.561274"/>
      </g>
     </g>
     <g id="text_14">
      <!-- 600 -->
      <g transform="translate(31.5125 68.360493)scale(0.1 -0.1)">
       <use xlink:href="#DejaVuSans-54"/>
       <use x="63.623047" xlink:href="#DejaVuSans-48"/>
       <use x="127.246094" xlink:href="#DejaVuSans-48"/>
      </g>
     </g>
    </g>
    <g id="text_15">
     <!-- y values -->
     <defs>
      <path d="M 32.171875 -5.078125 
Q 28.375 -14.84375 24.75 -17.8125 
Q 21.140625 -20.796875 15.09375 -20.796875 
L 7.90625 -20.796875 
L 7.90625 -13.28125 
L 13.1875 -13.28125 
Q 16.890625 -13.28125 18.9375 -11.515625 
Q 21 -9.765625 23.484375 -3.21875 
L 25.09375 0.875 
L 2.984375 54.6875 
L 12.5 54.6875 
L 29.59375 11.921875 
L 46.6875 54.6875 
L 56.203125 54.6875 
z
" id="DejaVuSans-121"/>
     </defs>
     <g transform="translate(25.432812 195.338937)rotate(-90)scale(0.1 -0.1)">
      <use xlink:href="#DejaVuSans-121"/>
      <use x="59.179688" xlink:href="#DejaVuSans-32"/>
      <use x="90.966797" xlink:href="#DejaVuSans-118"/>
      <use x="150.146484" xlink:href="#DejaVuSans-97"/>
      <use x="211.425781" xlink:href="#DejaVuSans-108"/>
      <use x="239.208984" xlink:href="#DejaVuSans-117"/>
      <use x="302.587891" xlink:href="#DejaVuSans-101"/>
      <use x="364.111328" xlink:href="#DejaVuSans-115"/>
     </g>
    </g>
   </g>
   <g id="line2d_14">
    <defs>
     <path d="M 0 1 
C 0.265203 1 0.51958 0.894634 0.707107 0.707107 
C 0.894634 0.51958 1 0.265203 1 0 
C 1 -0.265203 0.894634 -0.51958 0.707107 -0.707107 
C 0.51958 -0.894634 0.265203 -1 0 -1 
C -0.265203 -1 -0.51958 -0.894634 -0.707107 -0.707107 
C -0.894634 -0.51958 -1 -0.265203 -1 0 
C -1 0.265203 -0.894634 0.51958 -0.707107 0.707107 
C -0.51958 0.894634 -0.265203 1 0 1 
z
" id="m11d6a57b75" style="stroke:#ff0000;"/>
    </defs>
    <g clip-path="url(#p58823f7099)">
     <use style="fill:#ff0000;stroke:#ff0000;" x="73.832727" xlink:href="#m11d6a57b75" y="53.568"/>
     <use style="fill:#ff0000;stroke:#ff0000;" x="75.076614" xlink:href="#m11d6a57b75" y="117.758425"/>
     <use style="fill:#ff0000;stroke:#ff0000;" x="76.320502" xlink:href="#m11d6a57b75" y="80.970698"/>
     <use style="fill:#ff0000;stroke:#ff0000;" x="77.564389" xlink:href="#m11d6a57b75" y="106.940182"/>
     <use style="fill:#ff0000;stroke:#ff0000;" x="78.808276" xlink:href="#m11d6a57b75" y="95.730995"/>
     <use style="fill:#ff0000;stroke:#ff0000;" x="80.052163" xlink:href="#m11d6a57b75" y="104.473082"/>
     <use style="fill:#ff0000;stroke:#ff0000;" x="81.29605" xlink:href="#m11d6a57b75" y="90.497313"/>
     <use style="fill:#ff0000;stroke:#ff0000;" x="82.539937" xlink:href="#m11d6a57b75" y="80.724014"/>
     <use style="fill:#ff0000;stroke:#ff0000;" x="83.783824" xlink:href="#m11d6a57b75" y="125.98198"/>
     <use style="fill:#ff0000;stroke:#ff0000;" x="85.027712" xlink:href="#m11d6a57b75" y="83.386999"/>
     <use style="fill:#ff0000;stroke:#ff0000;" x="86.271599" xlink:href="#m11d6a57b75" y="82.708004"/>
     <use style="fill:#ff0000;stroke:#ff0000;" x="87.515486" xlink:href="#m11d6a57b75" y="94.464825"/>
     <use style="fill:#ff0000;stroke:#ff0000;" x="88.759373" xlink:href="#m11d6a57b75" y="86.221437"/>
     <use style="fill:#ff0000;stroke:#ff0000;" x="90.00326" xlink:href="#m11d6a57b75" y="100.366659"/>
     <use style="fill:#ff0000;stroke:#ff0000;" x="91.247147" xlink:href="#m11d6a57b75" y="99.39013"/>
     <use style="fill:#ff0000;stroke:#ff0000;" x="92.491034" xlink:href="#m11d6a57b75" y="92.77887"/>
     <use style="fill:#ff0000;stroke:#ff0000;" x="93.734922" xlink:href="#m11d6a57b75" y="142.800206"/>
     <use style="fill:#ff0000;stroke:#ff0000;" x="94.978809" xlink:href="#m11d6a57b75" y="95.376095"/>
     <use style="fill:#ff0000;stroke:#ff0000;" x="96.222696" xlink:href="#m11d6a57b75" y="103.306825"/>
     <use style="fill:#ff0000;stroke:#ff0000;" x="97.466583" xlink:href="#m11d6a57b75" y="134.319895"/>
     <use style="fill:#ff0000;stroke:#ff0000;" x="98.71047" xlink:href="#m11d6a57b75" y="127.307427"/>
     <use style="fill:#ff0000;stroke:#ff0000;" x="99.954357" xlink:href="#m11d6a57b75" y="102.422071"/>
     <use style="fill:#ff0000;stroke:#ff0000;" x="101.198245" xlink:href="#m11d6a57b75" y="134.185111"/>
     <use style="fill:#ff0000;stroke:#ff0000;" x="102.442132" xlink:href="#m11d6a57b75" y="147.600195"/>
     <use style="fill:#ff0000;stroke:#ff0000;" x="103.686019" xlink:href="#m11d6a57b75" y="110.951378"/>
     <use style="fill:#ff0000;stroke:#ff0000;" x="104.929906" xlink:href="#m11d6a57b75" y="150.510552"/>
     <use style="fill:#ff0000;stroke:#ff0000;" x="106.173793" xlink:href="#m11d6a57b75" y="142.829309"/>
     <use style="fill:#ff0000;stroke:#ff0000;" x="107.41768" xlink:href="#m11d6a57b75" y="135.284322"/>
     <use style="fill:#ff0000;stroke:#ff0000;" x="108.661567" xlink:href="#m11d6a57b75" y="130.941926"/>
     <use style="fill:#ff0000;stroke:#ff0000;" x="109.905455" xlink:href="#m11d6a57b75" y="143.223423"/>
     <use style="fill:#ff0000;stroke:#ff0000;" x="111.149342" xlink:href="#m11d6a57b75" y="161.881751"/>
     <use style="fill:#ff0000;stroke:#ff0000;" x="112.393229" xlink:href="#m11d6a57b75" y="128.493762"/>
     <use style="fill:#ff0000;stroke:#ff0000;" x="113.637116" xlink:href="#m11d6a57b75" y="132.046635"/>
     <use style="fill:#ff0000;stroke:#ff0000;" x="114.881003" xlink:href="#m11d6a57b75" y="152.178922"/>
     <use style="fill:#ff0000;stroke:#ff0000;" x="116.12489" xlink:href="#m11d6a57b75" y="170.970615"/>
     <use style="fill:#ff0000;stroke:#ff0000;" x="117.368777" xlink:href="#m11d6a57b75" y="157.312224"/>
     <use style="fill:#ff0000;stroke:#ff0000;" x="118.612665" xlink:href="#m11d6a57b75" y="140.855906"/>
     <use style="fill:#ff0000;stroke:#ff0000;" x="119.856552" xlink:href="#m11d6a57b75" y="145.467819"/>
     <use style="fill:#ff0000;stroke:#ff0000;" x="121.100439" xlink:href="#m11d6a57b75" y="159.60363"/>
     <use style="fill:#ff0000;stroke:#ff0000;" x="122.344326" xlink:href="#m11d6a57b75" y="170.690749"/>
     <use style="fill:#ff0000;stroke:#ff0000;" x="123.588213" xlink:href="#m11d6a57b75" y="169.306611"/>
     <use style="fill:#ff0000;stroke:#ff0000;" x="124.8321" xlink:href="#m11d6a57b75" y="165.062858"/>
     <use style="fill:#ff0000;stroke:#ff0000;" x="126.075987" xlink:href="#m11d6a57b75" y="158.162899"/>
     <use style="fill:#ff0000;stroke:#ff0000;" x="127.319875" xlink:href="#m11d6a57b75" y="166.207442"/>
     <use style="fill:#ff0000;stroke:#ff0000;" x="128.563762" xlink:href="#m11d6a57b75" y="158.528639"/>
     <use style="fill:#ff0000;stroke:#ff0000;" x="129.807649" xlink:href="#m11d6a57b75" y="179.870378"/>
     <use style="fill:#ff0000;stroke:#ff0000;" x="131.051536" xlink:href="#m11d6a57b75" y="150.743995"/>
     <use style="fill:#ff0000;stroke:#ff0000;" x="132.295423" xlink:href="#m11d6a57b75" y="167.500159"/>
     <use style="fill:#ff0000;stroke:#ff0000;" x="133.53931" xlink:href="#m11d6a57b75" y="176.104821"/>
     <use style="fill:#ff0000;stroke:#ff0000;" x="134.783197" xlink:href="#m11d6a57b75" y="192.152709"/>
     <use style="fill:#ff0000;stroke:#ff0000;" x="136.027085" xlink:href="#m11d6a57b75" y="165.782482"/>
     <use style="fill:#ff0000;stroke:#ff0000;" x="137.270972" xlink:href="#m11d6a57b75" y="190.882705"/>
     <use style="fill:#ff0000;stroke:#ff0000;" x="138.514859" xlink:href="#m11d6a57b75" y="190.514253"/>
     <use style="fill:#ff0000;stroke:#ff0000;" x="139.758746" xlink:href="#m11d6a57b75" y="175.807794"/>
     <use style="fill:#ff0000;stroke:#ff0000;" x="141.002633" xlink:href="#m11d6a57b75" y="145.496225"/>
     <use style="fill:#ff0000;stroke:#ff0000;" x="142.24652" xlink:href="#m11d6a57b75" y="165.090459"/>
     <use style="fill:#ff0000;stroke:#ff0000;" x="143.490408" xlink:href="#m11d6a57b75" y="187.583994"/>
     <use style="fill:#ff0000;stroke:#ff0000;" x="144.734295" xlink:href="#m11d6a57b75" y="159.366306"/>
     <use style="fill:#ff0000;stroke:#ff0000;" x="145.978182" xlink:href="#m11d6a57b75" y="183.570339"/>
     <use style="fill:#ff0000;stroke:#ff0000;" x="147.222069" xlink:href="#m11d6a57b75" y="202.635807"/>
     <use style="fill:#ff0000;stroke:#ff0000;" x="148.465956" xlink:href="#m11d6a57b75" y="190.231446"/>
     <use style="fill:#ff0000;stroke:#ff0000;" x="149.709843" xlink:href="#m11d6a57b75" y="176.632155"/>
     <use style="fill:#ff0000;stroke:#ff0000;" x="150.95373" xlink:href="#m11d6a57b75" y="208.766435"/>
     <use style="fill:#ff0000;stroke:#ff0000;" x="152.197618" xlink:href="#m11d6a57b75" y="178.045828"/>
     <use style="fill:#ff0000;stroke:#ff0000;" x="153.441505" xlink:href="#m11d6a57b75" y="206.208603"/>
     <use style="fill:#ff0000;stroke:#ff0000;" x="154.685392" xlink:href="#m11d6a57b75" y="176.969888"/>
     <use style="fill:#ff0000;stroke:#ff0000;" x="155.929279" xlink:href="#m11d6a57b75" y="182.523209"/>
     <use style="fill:#ff0000;stroke:#ff0000;" x="157.173166" xlink:href="#m11d6a57b75" y="183.71217"/>
     <use style="fill:#ff0000;stroke:#ff0000;" x="158.417053" xlink:href="#m11d6a57b75" y="185.69298"/>
     <use style="fill:#ff0000;stroke:#ff0000;" x="159.66094" xlink:href="#m11d6a57b75" y="185.569987"/>
     <use style="fill:#ff0000;stroke:#ff0000;" x="160.904828" xlink:href="#m11d6a57b75" y="203.35365"/>
     <use style="fill:#ff0000;stroke:#ff0000;" x="162.148715" xlink:href="#m11d6a57b75" y="198.393194"/>
     <use style="fill:#ff0000;stroke:#ff0000;" x="163.392602" xlink:href="#m11d6a57b75" y="201.02731"/>
     <use style="fill:#ff0000;stroke:#ff0000;" x="164.636489" xlink:href="#m11d6a57b75" y="213.247445"/>
     <use style="fill:#ff0000;stroke:#ff0000;" x="165.880376" xlink:href="#m11d6a57b75" y="209.054339"/>
     <use style="fill:#ff0000;stroke:#ff0000;" x="167.124263" xlink:href="#m11d6a57b75" y="210.431695"/>
     <use style="fill:#ff0000;stroke:#ff0000;" x="168.36815" xlink:href="#m11d6a57b75" y="200.793447"/>
     <use style="fill:#ff0000;stroke:#ff0000;" x="169.612038" xlink:href="#m11d6a57b75" y="218.624008"/>
     <use style="fill:#ff0000;stroke:#ff0000;" x="170.855925" xlink:href="#m11d6a57b75" y="204.707362"/>
     <use style="fill:#ff0000;stroke:#ff0000;" x="172.099812" xlink:href="#m11d6a57b75" y="219.652226"/>
     <use style="fill:#ff0000;stroke:#ff0000;" x="173.343699" xlink:href="#m11d6a57b75" y="192.448806"/>
     <use style="fill:#ff0000;stroke:#ff0000;" x="174.587586" xlink:href="#m11d6a57b75" y="202.685044"/>
     <use style="fill:#ff0000;stroke:#ff0000;" x="175.831473" xlink:href="#m11d6a57b75" y="193.65164"/>
     <use style="fill:#ff0000;stroke:#ff0000;" x="177.075361" xlink:href="#m11d6a57b75" y="214.384988"/>
     <use style="fill:#ff0000;stroke:#ff0000;" x="178.319248" xlink:href="#m11d6a57b75" y="216.211689"/>
     <use style="fill:#ff0000;stroke:#ff0000;" x="179.563135" xlink:href="#m11d6a57b75" y="197.029691"/>
     <use style="fill:#ff0000;stroke:#ff0000;" x="180.807022" xlink:href="#m11d6a57b75" y="194.694074"/>
     <use style="fill:#ff0000;stroke:#ff0000;" x="182.050909" xlink:href="#m11d6a57b75" y="228.201995"/>
     <use style="fill:#ff0000;stroke:#ff0000;" x="183.294796" xlink:href="#m11d6a57b75" y="195.655253"/>
     <use style="fill:#ff0000;stroke:#ff0000;" x="184.538683" xlink:href="#m11d6a57b75" y="215.5174"/>
     <use style="fill:#ff0000;stroke:#ff0000;" x="185.782571" xlink:href="#m11d6a57b75" y="230.502903"/>
     <use style="fill:#ff0000;stroke:#ff0000;" x="187.026458" xlink:href="#m11d6a57b75" y="227.646287"/>
     <use style="fill:#ff0000;stroke:#ff0000;" x="188.270345" xlink:href="#m11d6a57b75" y="217.080819"/>
     <use style="fill:#ff0000;stroke:#ff0000;" x="189.514232" xlink:href="#m11d6a57b75" y="214.046092"/>
     <use style="fill:#ff0000;stroke:#ff0000;" x="190.758119" xlink:href="#m11d6a57b75" y="236.052079"/>
     <use style="fill:#ff0000;stroke:#ff0000;" x="192.002006" xlink:href="#m11d6a57b75" y="212.067864"/>
     <use style="fill:#ff0000;stroke:#ff0000;" x="193.245893" xlink:href="#m11d6a57b75" y="219.233793"/>
     <use style="fill:#ff0000;stroke:#ff0000;" x="194.489781" xlink:href="#m11d6a57b75" y="234.236357"/>
     <use style="fill:#ff0000;stroke:#ff0000;" x="195.733668" xlink:href="#m11d6a57b75" y="242.24135"/>
     <use style="fill:#ff0000;stroke:#ff0000;" x="196.977555" xlink:href="#m11d6a57b75" y="247.122803"/>
     <use style="fill:#ff0000;stroke:#ff0000;" x="198.221442" xlink:href="#m11d6a57b75" y="215.184918"/>
     <use style="fill:#ff0000;stroke:#ff0000;" x="199.465329" xlink:href="#m11d6a57b75" y="229.306389"/>
     <use style="fill:#ff0000;stroke:#ff0000;" x="200.709216" xlink:href="#m11d6a57b75" y="244.825938"/>
     <use style="fill:#ff0000;stroke:#ff0000;" x="201.953103" xlink:href="#m11d6a57b75" y="225.412277"/>
     <use style="fill:#ff0000;stroke:#ff0000;" x="203.196991" xlink:href="#m11d6a57b75" y="222.602106"/>
     <use style="fill:#ff0000;stroke:#ff0000;" x="204.440878" xlink:href="#m11d6a57b75" y="238.085266"/>
     <use style="fill:#ff0000;stroke:#ff0000;" x="205.684765" xlink:href="#m11d6a57b75" y="251.370328"/>
     <use style="fill:#ff0000;stroke:#ff0000;" x="206.928652" xlink:href="#m11d6a57b75" y="238.458609"/>
     <use style="fill:#ff0000;stroke:#ff0000;" x="208.172539" xlink:href="#m11d6a57b75" y="237.746396"/>
     <use style="fill:#ff0000;stroke:#ff0000;" x="209.416426" xlink:href="#m11d6a57b75" y="236.85827"/>
     <use style="fill:#ff0000;stroke:#ff0000;" x="210.660313" xlink:href="#m11d6a57b75" y="232.163496"/>
     <use style="fill:#ff0000;stroke:#ff0000;" x="211.904201" xlink:href="#m11d6a57b75" y="235.705049"/>
     <use style="fill:#ff0000;stroke:#ff0000;" x="213.148088" xlink:href="#m11d6a57b75" y="243.945487"/>
     <use style="fill:#ff0000;stroke:#ff0000;" x="214.391975" xlink:href="#m11d6a57b75" y="251.419111"/>
     <use style="fill:#ff0000;stroke:#ff0000;" x="215.635862" xlink:href="#m11d6a57b75" y="241.608936"/>
     <use style="fill:#ff0000;stroke:#ff0000;" x="216.879749" xlink:href="#m11d6a57b75" y="246.138032"/>
     <use style="fill:#ff0000;stroke:#ff0000;" x="218.123636" xlink:href="#m11d6a57b75" y="251.676945"/>
     <use style="fill:#ff0000;stroke:#ff0000;" x="219.367524" xlink:href="#m11d6a57b75" y="236.299446"/>
     <use style="fill:#ff0000;stroke:#ff0000;" x="220.611411" xlink:href="#m11d6a57b75" y="234.407193"/>
     <use style="fill:#ff0000;stroke:#ff0000;" x="221.855298" xlink:href="#m11d6a57b75" y="237.405548"/>
     <use style="fill:#ff0000;stroke:#ff0000;" x="223.099185" xlink:href="#m11d6a57b75" y="244.700853"/>
     <use style="fill:#ff0000;stroke:#ff0000;" x="224.343072" xlink:href="#m11d6a57b75" y="253.07391"/>
     <use style="fill:#ff0000;stroke:#ff0000;" x="225.586959" xlink:href="#m11d6a57b75" y="247.041923"/>
     <use style="fill:#ff0000;stroke:#ff0000;" x="226.830846" xlink:href="#m11d6a57b75" y="241.544791"/>
     <use style="fill:#ff0000;stroke:#ff0000;" x="228.074734" xlink:href="#m11d6a57b75" y="254.885819"/>
     <use style="fill:#ff0000;stroke:#ff0000;" x="229.318621" xlink:href="#m11d6a57b75" y="241.212918"/>
     <use style="fill:#ff0000;stroke:#ff0000;" x="230.562508" xlink:href="#m11d6a57b75" y="254.207117"/>
     <use style="fill:#ff0000;stroke:#ff0000;" x="231.806395" xlink:href="#m11d6a57b75" y="251.30082"/>
     <use style="fill:#ff0000;stroke:#ff0000;" x="233.050282" xlink:href="#m11d6a57b75" y="249.752101"/>
     <use style="fill:#ff0000;stroke:#ff0000;" x="234.294169" xlink:href="#m11d6a57b75" y="256.394801"/>
     <use style="fill:#ff0000;stroke:#ff0000;" x="235.538056" xlink:href="#m11d6a57b75" y="256.601801"/>
     <use style="fill:#ff0000;stroke:#ff0000;" x="236.781944" xlink:href="#m11d6a57b75" y="242.03604"/>
     <use style="fill:#ff0000;stroke:#ff0000;" x="238.025831" xlink:href="#m11d6a57b75" y="266.949371"/>
     <use style="fill:#ff0000;stroke:#ff0000;" x="239.269718" xlink:href="#m11d6a57b75" y="256.129979"/>
     <use style="fill:#ff0000;stroke:#ff0000;" x="240.513605" xlink:href="#m11d6a57b75" y="248.089193"/>
     <use style="fill:#ff0000;stroke:#ff0000;" x="241.757492" xlink:href="#m11d6a57b75" y="252.914978"/>
     <use style="fill:#ff0000;stroke:#ff0000;" x="243.001379" xlink:href="#m11d6a57b75" y="254.066759"/>
     <use style="fill:#ff0000;stroke:#ff0000;" x="244.245266" xlink:href="#m11d6a57b75" y="265.35011"/>
     <use style="fill:#ff0000;stroke:#ff0000;" x="245.489154" xlink:href="#m11d6a57b75" y="251.481467"/>
     <use style="fill:#ff0000;stroke:#ff0000;" x="246.733041" xlink:href="#m11d6a57b75" y="258.384195"/>
     <use style="fill:#ff0000;stroke:#ff0000;" x="247.976928" xlink:href="#m11d6a57b75" y="255.491212"/>
     <use style="fill:#ff0000;stroke:#ff0000;" x="249.220815" xlink:href="#m11d6a57b75" y="267.918195"/>
     <use style="fill:#ff0000;stroke:#ff0000;" x="250.464702" xlink:href="#m11d6a57b75" y="267.256501"/>
     <use style="fill:#ff0000;stroke:#ff0000;" x="251.708589" xlink:href="#m11d6a57b75" y="271.56475"/>
     <use style="fill:#ff0000;stroke:#ff0000;" x="252.952476" xlink:href="#m11d6a57b75" y="253.233572"/>
     <use style="fill:#ff0000;stroke:#ff0000;" x="254.196364" xlink:href="#m11d6a57b75" y="273.530389"/>
     <use style="fill:#ff0000;stroke:#ff0000;" x="255.440251" xlink:href="#m11d6a57b75" y="271.701426"/>
     <use style="fill:#ff0000;stroke:#ff0000;" x="256.684138" xlink:href="#m11d6a57b75" y="258.319192"/>
     <use style="fill:#ff0000;stroke:#ff0000;" x="257.928025" xlink:href="#m11d6a57b75" y="260.943948"/>
     <use style="fill:#ff0000;stroke:#ff0000;" x="259.171912" xlink:href="#m11d6a57b75" y="264.996486"/>
     <use style="fill:#ff0000;stroke:#ff0000;" x="260.415799" xlink:href="#m11d6a57b75" y="266.14534"/>
     <use style="fill:#ff0000;stroke:#ff0000;" x="261.659687" xlink:href="#m11d6a57b75" y="260.649735"/>
     <use style="fill:#ff0000;stroke:#ff0000;" x="262.903574" xlink:href="#m11d6a57b75" y="265.745106"/>
     <use style="fill:#ff0000;stroke:#ff0000;" x="264.147461" xlink:href="#m11d6a57b75" y="269.292625"/>
     <use style="fill:#ff0000;stroke:#ff0000;" x="265.391348" xlink:href="#m11d6a57b75" y="263.768686"/>
     <use style="fill:#ff0000;stroke:#ff0000;" x="266.635235" xlink:href="#m11d6a57b75" y="270.016856"/>
     <use style="fill:#ff0000;stroke:#ff0000;" x="267.879122" xlink:href="#m11d6a57b75" y="278.738186"/>
     <use style="fill:#ff0000;stroke:#ff0000;" x="269.123009" xlink:href="#m11d6a57b75" y="270.212415"/>
     <use style="fill:#ff0000;stroke:#ff0000;" x="270.366897" xlink:href="#m11d6a57b75" y="275.091925"/>
     <use style="fill:#ff0000;stroke:#ff0000;" x="271.610784" xlink:href="#m11d6a57b75" y="279.009265"/>
     <use style="fill:#ff0000;stroke:#ff0000;" x="272.854671" xlink:href="#m11d6a57b75" y="275.85542"/>
     <use style="fill:#ff0000;stroke:#ff0000;" x="274.098558" xlink:href="#m11d6a57b75" y="268.242175"/>
     <use style="fill:#ff0000;stroke:#ff0000;" x="275.342445" xlink:href="#m11d6a57b75" y="275.2553"/>
     <use style="fill:#ff0000;stroke:#ff0000;" x="276.586332" xlink:href="#m11d6a57b75" y="272.899803"/>
     <use style="fill:#ff0000;stroke:#ff0000;" x="277.830219" xlink:href="#m11d6a57b75" y="272.455583"/>
     <use style="fill:#ff0000;stroke:#ff0000;" x="279.074107" xlink:href="#m11d6a57b75" y="265.720489"/>
     <use style="fill:#ff0000;stroke:#ff0000;" x="280.317994" xlink:href="#m11d6a57b75" y="268.159755"/>
     <use style="fill:#ff0000;stroke:#ff0000;" x="281.561881" xlink:href="#m11d6a57b75" y="282.634406"/>
     <use style="fill:#ff0000;stroke:#ff0000;" x="282.805768" xlink:href="#m11d6a57b75" y="276.881119"/>
     <use style="fill:#ff0000;stroke:#ff0000;" x="284.049655" xlink:href="#m11d6a57b75" y="274.088915"/>
     <use style="fill:#ff0000;stroke:#ff0000;" x="285.293542" xlink:href="#m11d6a57b75" y="276.645916"/>
     <use style="fill:#ff0000;stroke:#ff0000;" x="286.537429" xlink:href="#m11d6a57b75" y="284.656614"/>
     <use style="fill:#ff0000;stroke:#ff0000;" x="287.781317" xlink:href="#m11d6a57b75" y="276.755453"/>
     <use style="fill:#ff0000;stroke:#ff0000;" x="289.025204" xlink:href="#m11d6a57b75" y="283.407717"/>
     <use style="fill:#ff0000;stroke:#ff0000;" x="290.269091" xlink:href="#m11d6a57b75" y="277.992805"/>
     <use style="fill:#ff0000;stroke:#ff0000;" x="291.512978" xlink:href="#m11d6a57b75" y="274.575483"/>
     <use style="fill:#ff0000;stroke:#ff0000;" x="292.756865" xlink:href="#m11d6a57b75" y="281.654285"/>
     <use style="fill:#ff0000;stroke:#ff0000;" x="294.000752" xlink:href="#m11d6a57b75" y="278.79157"/>
     <use style="fill:#ff0000;stroke:#ff0000;" x="295.244639" xlink:href="#m11d6a57b75" y="277.457984"/>
     <use style="fill:#ff0000;stroke:#ff0000;" x="296.488527" xlink:href="#m11d6a57b75" y="289.491268"/>
     <use style="fill:#ff0000;stroke:#ff0000;" x="297.732414" xlink:href="#m11d6a57b75" y="278.975733"/>
     <use style="fill:#ff0000;stroke:#ff0000;" x="298.976301" xlink:href="#m11d6a57b75" y="276.550894"/>
     <use style="fill:#ff0000;stroke:#ff0000;" x="300.220188" xlink:href="#m11d6a57b75" y="284.28135"/>
     <use style="fill:#ff0000;stroke:#ff0000;" x="301.464075" xlink:href="#m11d6a57b75" y="284.136713"/>
     <use style="fill:#ff0000;stroke:#ff0000;" x="302.707962" xlink:href="#m11d6a57b75" y="271.211961"/>
     <use style="fill:#ff0000;stroke:#ff0000;" x="303.95185" xlink:href="#m11d6a57b75" y="282.445568"/>
     <use style="fill:#ff0000;stroke:#ff0000;" x="305.195737" xlink:href="#m11d6a57b75" y="287.141039"/>
     <use style="fill:#ff0000;stroke:#ff0000;" x="306.439624" xlink:href="#m11d6a57b75" y="275.450524"/>
     <use style="fill:#ff0000;stroke:#ff0000;" x="307.683511" xlink:href="#m11d6a57b75" y="279.42266"/>
     <use style="fill:#ff0000;stroke:#ff0000;" x="308.927398" xlink:href="#m11d6a57b75" y="273.702591"/>
     <use style="fill:#ff0000;stroke:#ff0000;" x="310.171285" xlink:href="#m11d6a57b75" y="286.64844"/>
     <use style="fill:#ff0000;stroke:#ff0000;" x="311.415172" xlink:href="#m11d6a57b75" y="291.33798"/>
     <use style="fill:#ff0000;stroke:#ff0000;" x="312.65906" xlink:href="#m11d6a57b75" y="274.778589"/>
     <use style="fill:#ff0000;stroke:#ff0000;" x="313.902947" xlink:href="#m11d6a57b75" y="280.773933"/>
     <use style="fill:#ff0000;stroke:#ff0000;" x="315.146834" xlink:href="#m11d6a57b75" y="282.666635"/>
     <use style="fill:#ff0000;stroke:#ff0000;" x="316.390721" xlink:href="#m11d6a57b75" y="276.588929"/>
     <use style="fill:#ff0000;stroke:#ff0000;" x="317.634608" xlink:href="#m11d6a57b75" y="280.6798"/>
     <use style="fill:#ff0000;stroke:#ff0000;" x="318.878495" xlink:href="#m11d6a57b75" y="279.434094"/>
     <use style="fill:#ff0000;stroke:#ff0000;" x="320.122382" xlink:href="#m11d6a57b75" y="275.021795"/>
     <use style="fill:#ff0000;stroke:#ff0000;" x="321.36627" xlink:href="#m11d6a57b75" y="289.574845"/>
     <use style="fill:#ff0000;stroke:#ff0000;" x="322.610157" xlink:href="#m11d6a57b75" y="294.066559"/>
     <use style="fill:#ff0000;stroke:#ff0000;" x="323.854044" xlink:href="#m11d6a57b75" y="280.953727"/>
     <use style="fill:#ff0000;stroke:#ff0000;" x="325.097931" xlink:href="#m11d6a57b75" y="285.645515"/>
     <use style="fill:#ff0000;stroke:#ff0000;" x="326.341818" xlink:href="#m11d6a57b75" y="275.04303"/>
     <use style="fill:#ff0000;stroke:#ff0000;" x="327.585705" xlink:href="#m11d6a57b75" y="294.867342"/>
     <use style="fill:#ff0000;stroke:#ff0000;" x="328.829592" xlink:href="#m11d6a57b75" y="276.534226"/>
     <use style="fill:#ff0000;stroke:#ff0000;" x="330.07348" xlink:href="#m11d6a57b75" y="284.754279"/>
     <use style="fill:#ff0000;stroke:#ff0000;" x="331.317367" xlink:href="#m11d6a57b75" y="285.543337"/>
     <use style="fill:#ff0000;stroke:#ff0000;" x="332.561254" xlink:href="#m11d6a57b75" y="280.894477"/>
     <use style="fill:#ff0000;stroke:#ff0000;" x="333.805141" xlink:href="#m11d6a57b75" y="287.131376"/>
     <use style="fill:#ff0000;stroke:#ff0000;" x="335.049028" xlink:href="#m11d6a57b75" y="277.228411"/>
     <use style="fill:#ff0000;stroke:#ff0000;" x="336.292915" xlink:href="#m11d6a57b75" y="288.862774"/>
     <use style="fill:#ff0000;stroke:#ff0000;" x="337.536803" xlink:href="#m11d6a57b75" y="277.694971"/>
     <use style="fill:#ff0000;stroke:#ff0000;" x="338.78069" xlink:href="#m11d6a57b75" y="293.140757"/>
     <use style="fill:#ff0000;stroke:#ff0000;" x="340.024577" xlink:href="#m11d6a57b75" y="292.140708"/>
     <use style="fill:#ff0000;stroke:#ff0000;" x="341.268464" xlink:href="#m11d6a57b75" y="278.054158"/>
     <use style="fill:#ff0000;stroke:#ff0000;" x="342.512351" xlink:href="#m11d6a57b75" y="281.340464"/>
     <use style="fill:#ff0000;stroke:#ff0000;" x="343.756238" xlink:href="#m11d6a57b75" y="282.886006"/>
     <use style="fill:#ff0000;stroke:#ff0000;" x="345.000125" xlink:href="#m11d6a57b75" y="287.443213"/>
     <use style="fill:#ff0000;stroke:#ff0000;" x="346.244013" xlink:href="#m11d6a57b75" y="290.858803"/>
     <use style="fill:#ff0000;stroke:#ff0000;" x="347.4879" xlink:href="#m11d6a57b75" y="289.953241"/>
     <use style="fill:#ff0000;stroke:#ff0000;" x="348.731787" xlink:href="#m11d6a57b75" y="293.233397"/>
     <use style="fill:#ff0000;stroke:#ff0000;" x="349.975674" xlink:href="#m11d6a57b75" y="287.742909"/>
     <use style="fill:#ff0000;stroke:#ff0000;" x="351.219561" xlink:href="#m11d6a57b75" y="291.332293"/>
     <use style="fill:#ff0000;stroke:#ff0000;" x="352.463448" xlink:href="#m11d6a57b75" y="281.599655"/>
     <use style="fill:#ff0000;stroke:#ff0000;" x="353.707335" xlink:href="#m11d6a57b75" y="279.241076"/>
     <use style="fill:#ff0000;stroke:#ff0000;" x="354.951223" xlink:href="#m11d6a57b75" y="295.488"/>
     <use style="fill:#ff0000;stroke:#ff0000;" x="356.19511" xlink:href="#m11d6a57b75" y="294.535174"/>
     <use style="fill:#ff0000;stroke:#ff0000;" x="357.438997" xlink:href="#m11d6a57b75" y="279.615432"/>
     <use style="fill:#ff0000;stroke:#ff0000;" x="358.682884" xlink:href="#m11d6a57b75" y="288.13645"/>
     <use style="fill:#ff0000;stroke:#ff0000;" x="359.926771" xlink:href="#m11d6a57b75" y="288.962871"/>
     <use style="fill:#ff0000;stroke:#ff0000;" x="361.170658" xlink:href="#m11d6a57b75" y="292.948007"/>
     <use style="fill:#ff0000;stroke:#ff0000;" x="362.414545" xlink:href="#m11d6a57b75" y="293.48779"/>
     <use style="fill:#ff0000;stroke:#ff0000;" x="363.658433" xlink:href="#m11d6a57b75" y="283.150547"/>
     <use style="fill:#ff0000;stroke:#ff0000;" x="364.90232" xlink:href="#m11d6a57b75" y="285.675025"/>
     <use style="fill:#ff0000;stroke:#ff0000;" x="366.146207" xlink:href="#m11d6a57b75" y="289.351864"/>
     <use style="fill:#ff0000;stroke:#ff0000;" x="367.390094" xlink:href="#m11d6a57b75" y="290.945332"/>
     <use style="fill:#ff0000;stroke:#ff0000;" x="368.633981" xlink:href="#m11d6a57b75" y="282.62173"/>
     <use style="fill:#ff0000;stroke:#ff0000;" x="369.877868" xlink:href="#m11d6a57b75" y="286.805641"/>
     <use style="fill:#ff0000;stroke:#ff0000;" x="371.121755" xlink:href="#m11d6a57b75" y="295.146613"/>
     <use style="fill:#ff0000;stroke:#ff0000;" x="372.365643" xlink:href="#m11d6a57b75" y="294.188707"/>
     <use style="fill:#ff0000;stroke:#ff0000;" x="373.60953" xlink:href="#m11d6a57b75" y="276.490915"/>
     <use style="fill:#ff0000;stroke:#ff0000;" x="374.853417" xlink:href="#m11d6a57b75" y="285.308372"/>
     <use style="fill:#ff0000;stroke:#ff0000;" x="376.097304" xlink:href="#m11d6a57b75" y="284.836844"/>
     <use style="fill:#ff0000;stroke:#ff0000;" x="377.341191" xlink:href="#m11d6a57b75" y="283.408687"/>
     <use style="fill:#ff0000;stroke:#ff0000;" x="378.585078" xlink:href="#m11d6a57b75" y="281.794527"/>
     <use style="fill:#ff0000;stroke:#ff0000;" x="379.828966" xlink:href="#m11d6a57b75" y="290.750419"/>
     <use style="fill:#ff0000;stroke:#ff0000;" x="381.072853" xlink:href="#m11d6a57b75" y="291.422466"/>
     <use style="fill:#ff0000;stroke:#ff0000;" x="382.31674" xlink:href="#m11d6a57b75" y="283.43807"/>
     <use style="fill:#ff0000;stroke:#ff0000;" x="383.560627" xlink:href="#m11d6a57b75" y="280.546193"/>
     <use style="fill:#ff0000;stroke:#ff0000;" x="384.804514" xlink:href="#m11d6a57b75" y="286.626321"/>
     <use style="fill:#ff0000;stroke:#ff0000;" x="386.048401" xlink:href="#m11d6a57b75" y="278.34048"/>
     <use style="fill:#ff0000;stroke:#ff0000;" x="387.292288" xlink:href="#m11d6a57b75" y="287.77556"/>
     <use style="fill:#ff0000;stroke:#ff0000;" x="388.536176" xlink:href="#m11d6a57b75" y="279.552174"/>
     <use style="fill:#ff0000;stroke:#ff0000;" x="389.780063" xlink:href="#m11d6a57b75" y="284.577748"/>
     <use style="fill:#ff0000;stroke:#ff0000;" x="391.02395" xlink:href="#m11d6a57b75" y="277.051436"/>
     <use style="fill:#ff0000;stroke:#ff0000;" x="392.267837" xlink:href="#m11d6a57b75" y="274.281331"/>
     <use style="fill:#ff0000;stroke:#ff0000;" x="393.511724" xlink:href="#m11d6a57b75" y="274.022966"/>
     <use style="fill:#ff0000;stroke:#ff0000;" x="394.755611" xlink:href="#m11d6a57b75" y="290.938656"/>
     <use style="fill:#ff0000;stroke:#ff0000;" x="395.999498" xlink:href="#m11d6a57b75" y="276.14653"/>
     <use style="fill:#ff0000;stroke:#ff0000;" x="397.243386" xlink:href="#m11d6a57b75" y="277.299733"/>
     <use style="fill:#ff0000;stroke:#ff0000;" x="398.487273" xlink:href="#m11d6a57b75" y="283.577774"/>
    </g>
   </g>
   <g id="line2d_15">
    <path clip-path="url(#p58823f7099)" d="M 73.832727 88.148227 
L 82.539937 100.738519 
L 91.247147 112.916555 
L 99.954357 124.682335 
L 108.661567 136.035859 
L 117.368777 146.977127 
L 124.8321 156.027235 
L 132.295423 164.77446 
L 139.758746 173.218804 
L 147.222069 181.360266 
L 154.685392 189.198845 
L 162.148715 196.734543 
L 169.612038 203.967359 
L 177.075361 210.897293 
L 184.538683 217.524345 
L 192.002006 223.848515 
L 199.465329 229.869803 
L 206.928652 235.588209 
L 214.391975 241.003733 
L 221.855298 246.116375 
L 229.318621 250.926135 
L 236.781944 255.433014 
L 244.245266 259.63701 
L 251.708589 263.538124 
L 257.928025 266.557685 
L 264.147461 269.366911 
L 270.366897 271.965802 
L 276.586332 274.354358 
L 282.805768 276.53258 
L 289.025204 278.500467 
L 295.244639 280.25802 
L 301.464075 281.805237 
L 307.683511 283.14212 
L 313.902947 284.268668 
L 320.122382 285.184882 
L 326.341818 285.890761 
L 332.561254 286.386305 
L 338.78069 286.671515 
L 345.000125 286.74639 
L 351.219561 286.61093 
L 357.438997 286.265135 
L 363.658433 285.709006 
L 369.877868 284.942542 
L 376.097304 283.965744 
L 382.31674 282.77861 
L 388.536176 281.381142 
L 394.755611 279.77334 
L 398.487273 278.707697 
L 398.487273 278.707697 
" style="fill:none;stroke:#008000;stroke-linecap:square;stroke-width:1.5;"/>
   </g>
   <g id="patch_3">
    <path d="M 57.6 307.584 
L 57.6 41.472 
" style="fill:none;stroke:#000000;stroke-linecap:square;stroke-linejoin:miter;stroke-width:0.8;"/>
   </g>
   <g id="patch_4">
    <path d="M 414.72 307.584 
L 414.72 41.472 
" style="fill:none;stroke:#000000;stroke-linecap:square;stroke-linejoin:miter;stroke-width:0.8;"/>
   </g>
   <g id="patch_5">
    <path d="M 57.6 307.584 
L 414.72 307.584 
" style="fill:none;stroke:#000000;stroke-linecap:square;stroke-linejoin:miter;stroke-width:0.8;"/>
   </g>
   <g id="patch_6">
    <path d="M 57.6 41.472 
L 414.72 41.472 
" style="fill:none;stroke:#000000;stroke-linecap:square;stroke-linejoin:miter;stroke-width:0.8;"/>
   </g>
   <g id="text_16">
    <!-- FunctionFitting 47 -->
    <defs>
     <path d="M 9.8125 72.90625 
L 51.703125 72.90625 
L 51.703125 64.59375 
L 19.671875 64.59375 
L 19.671875 43.109375 
L 48.578125 43.109375 
L 48.578125 34.8125 
L 19.671875 34.8125 
L 19.671875 0 
L 9.8125 0 
z
" id="DejaVuSans-70"/>
     <path d="M 54.890625 33.015625 
L 54.890625 0 
L 45.90625 0 
L 45.90625 32.71875 
Q 45.90625 40.484375 42.875 44.328125 
Q 39.84375 48.1875 33.796875 48.1875 
Q 26.515625 48.1875 22.3125 43.546875 
Q 18.109375 38.921875 18.109375 30.90625 
L 18.109375 0 
L 9.078125 0 
L 9.078125 54.6875 
L 18.109375 54.6875 
L 18.109375 46.1875 
Q 21.34375 51.125 25.703125 53.5625 
Q 30.078125 56 35.796875 56 
Q 45.21875 56 50.046875 50.171875 
Q 54.890625 44.34375 54.890625 33.015625 
z
" id="DejaVuSans-110"/>
     <path d="M 48.78125 52.59375 
L 48.78125 44.1875 
Q 44.96875 46.296875 41.140625 47.34375 
Q 37.3125 48.390625 33.40625 48.390625 
Q 24.65625 48.390625 19.8125 42.84375 
Q 14.984375 37.3125 14.984375 27.296875 
Q 14.984375 17.28125 19.8125 11.734375 
Q 24.65625 6.203125 33.40625 6.203125 
Q 37.3125 6.203125 41.140625 7.25 
Q 44.96875 8.296875 48.78125 10.40625 
L 48.78125 2.09375 
Q 45.015625 0.34375 40.984375 -0.53125 
Q 36.96875 -1.421875 32.421875 -1.421875 
Q 20.0625 -1.421875 12.78125 6.34375 
Q 5.515625 14.109375 5.515625 27.296875 
Q 5.515625 40.671875 12.859375 48.328125 
Q 20.21875 56 33.015625 56 
Q 37.15625 56 41.109375 55.140625 
Q 45.0625 54.296875 48.78125 52.59375 
z
" id="DejaVuSans-99"/>
     <path d="M 18.3125 70.21875 
L 18.3125 54.6875 
L 36.8125 54.6875 
L 36.8125 47.703125 
L 18.3125 47.703125 
L 18.3125 18.015625 
Q 18.3125 11.328125 20.140625 9.421875 
Q 21.96875 7.515625 27.59375 7.515625 
L 36.8125 7.515625 
L 36.8125 0 
L 27.59375 0 
Q 17.1875 0 13.234375 3.875 
Q 9.28125 7.765625 9.28125 18.015625 
L 9.28125 47.703125 
L 2.6875 47.703125 
L 2.6875 54.6875 
L 9.28125 54.6875 
L 9.28125 70.21875 
z
" id="DejaVuSans-116"/>
     <path d="M 9.421875 54.6875 
L 18.40625 54.6875 
L 18.40625 0 
L 9.421875 0 
z
M 9.421875 75.984375 
L 18.40625 75.984375 
L 18.40625 64.59375 
L 9.421875 64.59375 
z
" id="DejaVuSans-105"/>
     <path d="M 30.609375 48.390625 
Q 23.390625 48.390625 19.1875 42.75 
Q 14.984375 37.109375 14.984375 27.296875 
Q 14.984375 17.484375 19.15625 11.84375 
Q 23.34375 6.203125 30.609375 6.203125 
Q 37.796875 6.203125 41.984375 11.859375 
Q 46.1875 17.53125 46.1875 27.296875 
Q 46.1875 37.015625 41.984375 42.703125 
Q 37.796875 48.390625 30.609375 48.390625 
z
M 30.609375 56 
Q 42.328125 56 49.015625 48.375 
Q 55.71875 40.765625 55.71875 27.296875 
Q 55.71875 13.875 49.015625 6.21875 
Q 42.328125 -1.421875 30.609375 -1.421875 
Q 18.84375 -1.421875 12.171875 6.21875 
Q 5.515625 13.875 5.515625 27.296875 
Q 5.515625 40.765625 12.171875 48.375 
Q 18.84375 56 30.609375 56 
z
" id="DejaVuSans-111"/>
     <path d="M 45.40625 27.984375 
Q 45.40625 37.75 41.375 43.109375 
Q 37.359375 48.484375 30.078125 48.484375 
Q 22.859375 48.484375 18.828125 43.109375 
Q 14.796875 37.75 14.796875 27.984375 
Q 14.796875 18.265625 18.828125 12.890625 
Q 22.859375 7.515625 30.078125 7.515625 
Q 37.359375 7.515625 41.375 12.890625 
Q 45.40625 18.265625 45.40625 27.984375 
z
M 54.390625 6.78125 
Q 54.390625 -7.171875 48.1875 -13.984375 
Q 42 -20.796875 29.203125 -20.796875 
Q 24.46875 -20.796875 20.265625 -20.09375 
Q 16.0625 -19.390625 12.109375 -17.921875 
L 12.109375 -9.1875 
Q 16.0625 -11.328125 19.921875 -12.34375 
Q 23.78125 -13.375 27.78125 -13.375 
Q 36.625 -13.375 41.015625 -8.765625 
Q 45.40625 -4.15625 45.40625 5.171875 
L 45.40625 9.625 
Q 42.625 4.78125 38.28125 2.390625 
Q 33.9375 0 27.875 0 
Q 17.828125 0 11.671875 7.65625 
Q 5.515625 15.328125 5.515625 27.984375 
Q 5.515625 40.671875 11.671875 48.328125 
Q 17.828125 56 27.875 56 
Q 33.9375 56 38.28125 53.609375 
Q 42.625 51.21875 45.40625 46.390625 
L 45.40625 54.6875 
L 54.390625 54.6875 
z
" id="DejaVuSans-103"/>
     <path d="M 8.203125 72.90625 
L 55.078125 72.90625 
L 55.078125 68.703125 
L 28.609375 0 
L 18.3125 0 
L 43.21875 64.59375 
L 8.203125 64.59375 
z
" id="DejaVuSans-55"/>
    </defs>
    <g transform="translate(181.680937 35.472)scale(0.12 -0.12)">
     <use xlink:href="#DejaVuSans-70"/>
     <use x="57.441406" xlink:href="#DejaVuSans-117"/>
     <use x="120.820312" xlink:href="#DejaVuSans-110"/>
     <use x="184.199219" xlink:href="#DejaVuSans-99"/>
     <use x="239.179688" xlink:href="#DejaVuSans-116"/>
     <use x="278.388672" xlink:href="#DejaVuSans-105"/>
     <use x="306.171875" xlink:href="#DejaVuSans-111"/>
     <use x="367.353516" xlink:href="#DejaVuSans-110"/>
     <use x="430.732422" xlink:href="#DejaVuSans-70"/>
     <use x="488.142578" xlink:href="#DejaVuSans-105"/>
     <use x="515.925781" xlink:href="#DejaVuSans-116"/>
     <use x="555.134766" xlink:href="#DejaVuSans-116"/>
     <use x="594.34375" xlink:href="#DejaVuSans-105"/>
     <use x="622.126953" xlink:href="#DejaVuSans-110"/>
     <use x="685.505859" xlink:href="#DejaVuSans-103"/>
     <use x="748.982422" xlink:href="#DejaVuSans-32"/>
     <use x="780.769531" xlink:href="#DejaVuSans-52"/>
     <use x="844.392578" xlink:href="#DejaVuSans-55"/>
    </g>
   </g>
   <g id="legend_1">
    <g id="patch_7">
     <path d="M 299.83875 78.82825 
L 407.72 78.82825 
Q 409.72 78.82825 409.72 76.82825 
L 409.72 48.472 
Q 409.72 46.472 407.72 46.472 
L 299.83875 46.472 
Q 297.83875 46.472 297.83875 48.472 
L 297.83875 76.82825 
Q 297.83875 78.82825 299.83875 78.82825 
z
" style="fill:#ffffff;opacity:0.8;stroke:#cccccc;stroke-linejoin:miter;"/>
    </g>
    <g id="line2d_16"/>
    <g id="line2d_17">
     <g>
      <use style="fill:#ff0000;stroke:#ff0000;" x="311.83875" xlink:href="#m11d6a57b75" y="54.570437"/>
     </g>
    </g>
    <g id="text_17">
     <!-- measured data -->
     <defs>
      <path d="M 52 44.1875 
Q 55.375 50.25 60.0625 53.125 
Q 64.75 56 71.09375 56 
Q 79.640625 56 84.28125 50.015625 
Q 88.921875 44.046875 88.921875 33.015625 
L 88.921875 0 
L 79.890625 0 
L 79.890625 32.71875 
Q 79.890625 40.578125 77.09375 44.375 
Q 74.3125 48.1875 68.609375 48.1875 
Q 61.625 48.1875 57.5625 43.546875 
Q 53.515625 38.921875 53.515625 30.90625 
L 53.515625 0 
L 44.484375 0 
L 44.484375 32.71875 
Q 44.484375 40.625 41.703125 44.40625 
Q 38.921875 48.1875 33.109375 48.1875 
Q 26.21875 48.1875 22.15625 43.53125 
Q 18.109375 38.875 18.109375 30.90625 
L 18.109375 0 
L 9.078125 0 
L 9.078125 54.6875 
L 18.109375 54.6875 
L 18.109375 46.1875 
Q 21.1875 51.21875 25.484375 53.609375 
Q 29.78125 56 35.6875 56 
Q 41.65625 56 45.828125 52.96875 
Q 50 49.953125 52 44.1875 
z
" id="DejaVuSans-109"/>
      <path d="M 41.109375 46.296875 
Q 39.59375 47.171875 37.8125 47.578125 
Q 36.03125 48 33.890625 48 
Q 26.265625 48 22.1875 43.046875 
Q 18.109375 38.09375 18.109375 28.8125 
L 18.109375 0 
L 9.078125 0 
L 9.078125 54.6875 
L 18.109375 54.6875 
L 18.109375 46.1875 
Q 20.953125 51.171875 25.484375 53.578125 
Q 30.03125 56 36.53125 56 
Q 37.453125 56 38.578125 55.875 
Q 39.703125 55.765625 41.0625 55.515625 
z
" id="DejaVuSans-114"/>
      <path d="M 45.40625 46.390625 
L 45.40625 75.984375 
L 54.390625 75.984375 
L 54.390625 0 
L 45.40625 0 
L 45.40625 8.203125 
Q 42.578125 3.328125 38.25 0.953125 
Q 33.9375 -1.421875 27.875 -1.421875 
Q 17.96875 -1.421875 11.734375 6.484375 
Q 5.515625 14.40625 5.515625 27.296875 
Q 5.515625 40.1875 11.734375 48.09375 
Q 17.96875 56 27.875 56 
Q 33.9375 56 38.25 53.625 
Q 42.578125 51.265625 45.40625 46.390625 
z
M 14.796875 27.296875 
Q 14.796875 17.390625 18.875 11.75 
Q 22.953125 6.109375 30.078125 6.109375 
Q 37.203125 6.109375 41.296875 11.75 
Q 45.40625 17.390625 45.40625 27.296875 
Q 45.40625 37.203125 41.296875 42.84375 
Q 37.203125 48.484375 30.078125 48.484375 
Q 22.953125 48.484375 18.875 42.84375 
Q 14.796875 37.203125 14.796875 27.296875 
z
" id="DejaVuSans-100"/>
     </defs>
     <g transform="translate(329.83875 58.070437)scale(0.1 -0.1)">
      <use xlink:href="#DejaVuSans-109"/>
      <use x="97.412109" xlink:href="#DejaVuSans-101"/>
      <use x="158.935547" xlink:href="#DejaVuSans-97"/>
      <use x="220.214844" xlink:href="#DejaVuSans-115"/>
      <use x="272.314453" xlink:href="#DejaVuSans-117"/>
      <use x="335.693359" xlink:href="#DejaVuSans-114"/>
      <use x="376.775391" xlink:href="#DejaVuSans-101"/>
      <use x="438.298828" xlink:href="#DejaVuSans-100"/>
      <use x="501.775391" xlink:href="#DejaVuSans-32"/>
      <use x="533.5625" xlink:href="#DejaVuSans-100"/>
      <use x="597.039062" xlink:href="#DejaVuSans-97"/>
      <use x="658.318359" xlink:href="#DejaVuSans-116"/>
      <use x="697.527344" xlink:href="#DejaVuSans-97"/>
     </g>
    </g>
    <g id="line2d_18">
     <path d="M 301.83875 69.248562 
L 321.83875 69.248562 
" style="fill:none;stroke:#008000;stroke-linecap:square;stroke-width:1.5;"/>
    </g>
    <g id="line2d_19"/>
    <g id="text_18">
     <!-- linear data -->
     <g transform="translate(329.83875 72.748562)scale(0.1 -0.1)">
      <use xlink:href="#DejaVuSans-108"/>
      <use x="27.783203" xlink:href="#DejaVuSans-105"/>
      <use x="55.566406" xlink:href="#DejaVuSans-110"/>
      <use x="118.945312" xlink:href="#DejaVuSans-101"/>
      <use x="180.46875" xlink:href="#DejaVuSans-97"/>
      <use x="241.748047" xlink:href="#DejaVuSans-114"/>
      <use x="282.861328" xlink:href="#DejaVuSans-32"/>
      <use x="314.648438" xlink:href="#DejaVuSans-100"/>
      <use x="378.125" xlink:href="#DejaVuSans-97"/>
      <use x="439.404297" xlink:href="#DejaVuSans-116"/>
      <use x="478.613281" xlink:href="#DejaVuSans-97"/>
     </g>
    </g>
   </g>
  </g>
 </g>
 <defs>
  <clipPath id="p58823f7099">
   <rect height="266.112" width="357.12" x="57.6" y="41.472"/>
  </clipPath>
 </defs>
</svg>
