<?xml version="1.0" encoding="utf-8" standalone="no"?>
<!DOCTYPE svg PUBLIC "-//W3C//DTD SVG 1.1//EN"
  "http://www.w3.org/Graphics/SVG/1.1/DTD/svg11.dtd">
<!-- Created with matplotlib (https://matplotlib.org/) -->
<svg height="345.6pt" version="1.1" viewBox="0 0 460.8 345.6" width="460.8pt" xmlns="http://www.w3.org/2000/svg" xmlns:xlink="http://www.w3.org/1999/xlink">
 <defs>
  <style type="text/css">
*{stroke-linecap:butt;stroke-linejoin:round;}
  </style>
 </defs>
 <g id="figure_1">
  <g id="patch_1">
   <path d="M 0 345.6 
L 460.8 345.6 
L 460.8 0 
L 0 0 
z
" style="fill:#ffffff;"/>
  </g>
  <g id="axes_1">
   <g id="patch_2">
    <path d="M 57.6 307.584 
L 414.72 307.584 
L 414.72 41.472 
L 57.6 41.472 
z
" style="fill:#ffffff;"/>
   </g>
   <g id="matplotlib.axis_1">
    <g id="xtick_1">
     <g id="line2d_1">
      <defs>
       <path d="M 0 0 
L 0 3.5 
" id="m5ba04a1c09" style="stroke:#000000;stroke-width:0.8;"/>
      </defs>
      <g>
       <use style="stroke:#000000;stroke-width:0.8;" x="123.644025" xlink:href="#m5ba04a1c09" y="307.584"/>
      </g>
     </g>
     <g id="text_1">
      <!-- 20 -->
      <defs>
       <path d="M 19.1875 8.296875 
L 53.609375 8.296875 
L 53.609375 0 
L 7.328125 0 
L 7.328125 8.296875 
Q 12.9375 14.109375 22.625 23.890625 
Q 32.328125 33.6875 34.8125 36.53125 
Q 39.546875 41.84375 41.421875 45.53125 
Q 43.3125 49.21875 43.3125 52.78125 
Q 43.3125 58.59375 39.234375 62.25 
Q 35.15625 65.921875 28.609375 65.921875 
Q 23.96875 65.921875 18.8125 64.3125 
Q 13.671875 62.703125 7.8125 59.421875 
L 7.8125 69.390625 
Q 13.765625 71.78125 18.9375 73 
Q 24.125 74.21875 28.421875 74.21875 
Q 39.75 74.21875 46.484375 68.546875 
Q 53.21875 62.890625 53.21875 53.421875 
Q 53.21875 48.921875 51.53125 44.890625 
Q 49.859375 40.875 45.40625 35.40625 
Q 44.1875 33.984375 37.640625 27.21875 
Q 31.109375 20.453125 19.1875 8.296875 
z
" id="DejaVuSans-50"/>
       <path d="M 31.78125 66.40625 
Q 24.171875 66.40625 20.328125 58.90625 
Q 16.5 51.421875 16.5 36.375 
Q 16.5 21.390625 20.328125 13.890625 
Q 24.171875 6.390625 31.78125 6.390625 
Q 39.453125 6.390625 43.28125 13.890625 
Q 47.125 21.390625 47.125 36.375 
Q 47.125 51.421875 43.28125 58.90625 
Q 39.453125 66.40625 31.78125 66.40625 
z
M 31.78125 74.21875 
Q 44.046875 74.21875 50.515625 64.515625 
Q 56.984375 54.828125 56.984375 36.375 
Q 56.984375 17.96875 50.515625 8.265625 
Q 44.046875 -1.421875 31.78125 -1.421875 
Q 19.53125 -1.421875 13.0625 8.265625 
Q 6.59375 17.96875 6.59375 36.375 
Q 6.59375 54.828125 13.0625 64.515625 
Q 19.53125 74.21875 31.78125 74.21875 
z
" id="DejaVuSans-48"/>
      </defs>
      <g transform="translate(117.281525 322.182437)scale(0.1 -0.1)">
       <use xlink:href="#DejaVuSans-50"/>
       <use x="63.623047" xlink:href="#DejaVuSans-48"/>
      </g>
     </g>
    </g>
    <g id="xtick_2">
     <g id="line2d_2">
      <g>
       <use style="stroke:#000000;stroke-width:0.8;" x="201.99365" xlink:href="#m5ba04a1c09" y="307.584"/>
      </g>
     </g>
     <g id="text_2">
      <!-- 40 -->
      <defs>
       <path d="M 37.796875 64.3125 
L 12.890625 25.390625 
L 37.796875 25.390625 
z
M 35.203125 72.90625 
L 47.609375 72.90625 
L 47.609375 25.390625 
L 58.015625 25.390625 
L 58.015625 17.1875 
L 47.609375 17.1875 
L 47.609375 0 
L 37.796875 0 
L 37.796875 17.1875 
L 4.890625 17.1875 
L 4.890625 26.703125 
z
" id="DejaVuSans-52"/>
      </defs>
      <g transform="translate(195.63115 322.182437)scale(0.1 -0.1)">
       <use xlink:href="#DejaVuSans-52"/>
       <use x="63.623047" xlink:href="#DejaVuSans-48"/>
      </g>
     </g>
    </g>
    <g id="xtick_3">
     <g id="line2d_3">
      <g>
       <use style="stroke:#000000;stroke-width:0.8;" x="280.343276" xlink:href="#m5ba04a1c09" y="307.584"/>
      </g>
     </g>
     <g id="text_3">
      <!-- 60 -->
      <defs>
       <path d="M 33.015625 40.375 
Q 26.375 40.375 22.484375 35.828125 
Q 18.609375 31.296875 18.609375 23.390625 
Q 18.609375 15.53125 22.484375 10.953125 
Q 26.375 6.390625 33.015625 6.390625 
Q 39.65625 6.390625 43.53125 10.953125 
Q 47.40625 15.53125 47.40625 23.390625 
Q 47.40625 31.296875 43.53125 35.828125 
Q 39.65625 40.375 33.015625 40.375 
z
M 52.59375 71.296875 
L 52.59375 62.3125 
Q 48.875 64.0625 45.09375 64.984375 
Q 41.3125 65.921875 37.59375 65.921875 
Q 27.828125 65.921875 22.671875 59.328125 
Q 17.53125 52.734375 16.796875 39.40625 
Q 19.671875 43.65625 24.015625 45.921875 
Q 28.375 48.1875 33.59375 48.1875 
Q 44.578125 48.1875 50.953125 41.515625 
Q 57.328125 34.859375 57.328125 23.390625 
Q 57.328125 12.15625 50.6875 5.359375 
Q 44.046875 -1.421875 33.015625 -1.421875 
Q 20.359375 -1.421875 13.671875 8.265625 
Q 6.984375 17.96875 6.984375 36.375 
Q 6.984375 53.65625 15.1875 63.9375 
Q 23.390625 74.21875 37.203125 74.21875 
Q 40.921875 74.21875 44.703125 73.484375 
Q 48.484375 72.75 52.59375 71.296875 
z
" id="DejaVuSans-54"/>
      </defs>
      <g transform="translate(273.980776 322.182437)scale(0.1 -0.1)">
       <use xlink:href="#DejaVuSans-54"/>
       <use x="63.623047" xlink:href="#DejaVuSans-48"/>
      </g>
     </g>
    </g>
    <g id="xtick_4">
     <g id="line2d_4">
      <g>
       <use style="stroke:#000000;stroke-width:0.8;" x="358.692901" xlink:href="#m5ba04a1c09" y="307.584"/>
      </g>
     </g>
     <g id="text_4">
      <!-- 80 -->
      <defs>
       <path d="M 31.78125 34.625 
Q 24.75 34.625 20.71875 30.859375 
Q 16.703125 27.09375 16.703125 20.515625 
Q 16.703125 13.921875 20.71875 10.15625 
Q 24.75 6.390625 31.78125 6.390625 
Q 38.8125 6.390625 42.859375 10.171875 
Q 46.921875 13.96875 46.921875 20.515625 
Q 46.921875 27.09375 42.890625 30.859375 
Q 38.875 34.625 31.78125 34.625 
z
M 21.921875 38.8125 
Q 15.578125 40.375 12.03125 44.71875 
Q 8.5 49.078125 8.5 55.328125 
Q 8.5 64.0625 14.71875 69.140625 
Q 20.953125 74.21875 31.78125 74.21875 
Q 42.671875 74.21875 48.875 69.140625 
Q 55.078125 64.0625 55.078125 55.328125 
Q 55.078125 49.078125 51.53125 44.71875 
Q 48 40.375 41.703125 38.8125 
Q 48.828125 37.15625 52.796875 32.3125 
Q 56.78125 27.484375 56.78125 20.515625 
Q 56.78125 9.90625 50.3125 4.234375 
Q 43.84375 -1.421875 31.78125 -1.421875 
Q 19.734375 -1.421875 13.25 4.234375 
Q 6.78125 9.90625 6.78125 20.515625 
Q 6.78125 27.484375 10.78125 32.3125 
Q 14.796875 37.15625 21.921875 38.8125 
z
M 18.3125 54.390625 
Q 18.3125 48.734375 21.84375 45.5625 
Q 25.390625 42.390625 31.78125 42.390625 
Q 38.140625 42.390625 41.71875 45.5625 
Q 45.3125 48.734375 45.3125 54.390625 
Q 45.3125 60.0625 41.71875 63.234375 
Q 38.140625 66.40625 31.78125 66.40625 
Q 25.390625 66.40625 21.84375 63.234375 
Q 18.3125 60.0625 18.3125 54.390625 
z
" id="DejaVuSans-56"/>
      </defs>
      <g transform="translate(352.330401 322.182437)scale(0.1 -0.1)">
       <use xlink:href="#DejaVuSans-56"/>
       <use x="63.623047" xlink:href="#DejaVuSans-48"/>
      </g>
     </g>
    </g>
    <g id="text_5">
     <!-- x values -->
     <defs>
      <path d="M 54.890625 54.6875 
L 35.109375 28.078125 
L 55.90625 0 
L 45.3125 0 
L 29.390625 21.484375 
L 13.484375 0 
L 2.875 0 
L 24.125 28.609375 
L 4.6875 54.6875 
L 15.28125 54.6875 
L 29.78125 35.203125 
L 44.28125 54.6875 
z
" id="DejaVuSans-120"/>
      <path id="DejaVuSans-32"/>
      <path d="M 2.984375 54.6875 
L 12.5 54.6875 
L 29.59375 8.796875 
L 46.6875 54.6875 
L 56.203125 54.6875 
L 35.6875 0 
L 23.484375 0 
z
" id="DejaVuSans-118"/>
      <path d="M 34.28125 27.484375 
Q 23.390625 27.484375 19.1875 25 
Q 14.984375 22.515625 14.984375 16.5 
Q 14.984375 11.71875 18.140625 8.90625 
Q 21.296875 6.109375 26.703125 6.109375 
Q 34.1875 6.109375 38.703125 11.40625 
Q 43.21875 16.703125 43.21875 25.484375 
L 43.21875 27.484375 
z
M 52.203125 31.203125 
L 52.203125 0 
L 43.21875 0 
L 43.21875 8.296875 
Q 40.140625 3.328125 35.546875 0.953125 
Q 30.953125 -1.421875 24.3125 -1.421875 
Q 15.921875 -1.421875 10.953125 3.296875 
Q 6 8.015625 6 15.921875 
Q 6 25.140625 12.171875 29.828125 
Q 18.359375 34.515625 30.609375 34.515625 
L 43.21875 34.515625 
L 43.21875 35.40625 
Q 43.21875 41.609375 39.140625 45 
Q 35.0625 48.390625 27.6875 48.390625 
Q 23 48.390625 18.546875 47.265625 
Q 14.109375 46.140625 10.015625 43.890625 
L 10.015625 52.203125 
Q 14.9375 54.109375 19.578125 55.046875 
Q 24.21875 56 28.609375 56 
Q 40.484375 56 46.34375 49.84375 
Q 52.203125 43.703125 52.203125 31.203125 
z
" id="DejaVuSans-97"/>
      <path d="M 9.421875 75.984375 
L 18.40625 75.984375 
L 18.40625 0 
L 9.421875 0 
z
" id="DejaVuSans-108"/>
      <path d="M 8.5 21.578125 
L 8.5 54.6875 
L 17.484375 54.6875 
L 17.484375 21.921875 
Q 17.484375 14.15625 20.5 10.265625 
Q 23.53125 6.390625 29.59375 6.390625 
Q 36.859375 6.390625 41.078125 11.03125 
Q 45.3125 15.671875 45.3125 23.6875 
L 45.3125 54.6875 
L 54.296875 54.6875 
L 54.296875 0 
L 45.3125 0 
L 45.3125 8.40625 
Q 42.046875 3.421875 37.71875 1 
Q 33.40625 -1.421875 27.6875 -1.421875 
Q 18.265625 -1.421875 13.375 4.4375 
Q 8.5 10.296875 8.5 21.578125 
z
M 31.109375 56 
z
" id="DejaVuSans-117"/>
      <path d="M 56.203125 29.59375 
L 56.203125 25.203125 
L 14.890625 25.203125 
Q 15.484375 15.921875 20.484375 11.0625 
Q 25.484375 6.203125 34.421875 6.203125 
Q 39.59375 6.203125 44.453125 7.46875 
Q 49.3125 8.734375 54.109375 11.28125 
L 54.109375 2.78125 
Q 49.265625 0.734375 44.1875 -0.34375 
Q 39.109375 -1.421875 33.890625 -1.421875 
Q 20.796875 -1.421875 13.15625 6.1875 
Q 5.515625 13.8125 5.515625 26.8125 
Q 5.515625 40.234375 12.765625 48.109375 
Q 20.015625 56 32.328125 56 
Q 43.359375 56 49.78125 48.890625 
Q 56.203125 41.796875 56.203125 29.59375 
z
M 47.21875 32.234375 
Q 47.125 39.59375 43.09375 43.984375 
Q 39.0625 48.390625 32.421875 48.390625 
Q 24.90625 48.390625 20.390625 44.140625 
Q 15.875 39.890625 15.1875 32.171875 
z
" id="DejaVuSans-101"/>
      <path d="M 44.28125 53.078125 
L 44.28125 44.578125 
Q 40.484375 46.53125 36.375 47.5 
Q 32.28125 48.484375 27.875 48.484375 
Q 21.1875 48.484375 17.84375 46.4375 
Q 14.5 44.390625 14.5 40.28125 
Q 14.5 37.15625 16.890625 35.375 
Q 19.28125 33.59375 26.515625 31.984375 
L 29.59375 31.296875 
Q 39.15625 29.25 43.1875 25.515625 
Q 47.21875 21.78125 47.21875 15.09375 
Q 47.21875 7.46875 41.1875 3.015625 
Q 35.15625 -1.421875 24.609375 -1.421875 
Q 20.21875 -1.421875 15.453125 -0.5625 
Q 10.6875 0.296875 5.421875 2 
L 5.421875 11.28125 
Q 10.40625 8.6875 15.234375 7.390625 
Q 20.0625 6.109375 24.8125 6.109375 
Q 31.15625 6.109375 34.5625 8.28125 
Q 37.984375 10.453125 37.984375 14.40625 
Q 37.984375 18.0625 35.515625 20.015625 
Q 33.0625 21.96875 24.703125 23.78125 
L 21.578125 24.515625 
Q 13.234375 26.265625 9.515625 29.90625 
Q 5.8125 33.546875 5.8125 39.890625 
Q 5.8125 47.609375 11.28125 51.796875 
Q 16.75 56 26.8125 56 
Q 31.78125 56 36.171875 55.265625 
Q 40.578125 54.546875 44.28125 53.078125 
z
" id="DejaVuSans-115"/>
     </defs>
     <g transform="translate(215.349063 335.860562)scale(0.1 -0.1)">
      <use xlink:href="#DejaVuSans-120"/>
      <use x="59.179688" xlink:href="#DejaVuSans-32"/>
      <use x="90.966797" xlink:href="#DejaVuSans-118"/>
      <use x="150.146484" xlink:href="#DejaVuSans-97"/>
      <use x="211.425781" xlink:href="#DejaVuSans-108"/>
      <use x="239.208984" xlink:href="#DejaVuSans-117"/>
      <use x="302.587891" xlink:href="#DejaVuSans-101"/>
      <use x="364.111328" xlink:href="#DejaVuSans-115"/>
     </g>
    </g>
   </g>
   <g id="matplotlib.axis_2">
    <g id="ytick_1">
     <g id="line2d_5">
      <defs>
       <path d="M 0 0 
L -3.5 0 
" id="mfc091a33f0" style="stroke:#000000;stroke-width:0.8;"/>
      </defs>
      <g>
       <use style="stroke:#000000;stroke-width:0.8;" x="57.6" xlink:href="#mfc091a33f0" y="288.879331"/>
      </g>
     </g>
     <g id="text_6">
      <!-- 0 -->
      <g transform="translate(44.2375 292.67855)scale(0.1 -0.1)">
       <use xlink:href="#DejaVuSans-48"/>
      </g>
     </g>
    </g>
    <g id="ytick_2">
     <g id="line2d_6">
      <g>
       <use style="stroke:#000000;stroke-width:0.8;" x="57.6" xlink:href="#mfc091a33f0" y="243.881661"/>
      </g>
     </g>
     <g id="text_7">
      <!-- 100 -->
      <defs>
       <path d="M 12.40625 8.296875 
L 28.515625 8.296875 
L 28.515625 63.921875 
L 10.984375 60.40625 
L 10.984375 69.390625 
L 28.421875 72.90625 
L 38.28125 72.90625 
L 38.28125 8.296875 
L 54.390625 8.296875 
L 54.390625 0 
L 12.40625 0 
z
" id="DejaVuSans-49"/>
      </defs>
      <g transform="translate(31.5125 247.68088)scale(0.1 -0.1)">
       <use xlink:href="#DejaVuSans-49"/>
       <use x="63.623047" xlink:href="#DejaVuSans-48"/>
       <use x="127.246094" xlink:href="#DejaVuSans-48"/>
      </g>
     </g>
    </g>
    <g id="ytick_3">
     <g id="line2d_7">
      <g>
       <use style="stroke:#000000;stroke-width:0.8;" x="57.6" xlink:href="#mfc091a33f0" y="198.883991"/>
      </g>
     </g>
     <g id="text_8">
      <!-- 200 -->
      <g transform="translate(31.5125 202.68321)scale(0.1 -0.1)">
       <use xlink:href="#DejaVuSans-50"/>
       <use x="63.623047" xlink:href="#DejaVuSans-48"/>
       <use x="127.246094" xlink:href="#DejaVuSans-48"/>
      </g>
     </g>
    </g>
    <g id="ytick_4">
     <g id="line2d_8">
      <g>
       <use style="stroke:#000000;stroke-width:0.8;" x="57.6" xlink:href="#mfc091a33f0" y="153.886322"/>
      </g>
     </g>
     <g id="text_9">
      <!-- 300 -->
      <defs>
       <path d="M 40.578125 39.3125 
Q 47.65625 37.796875 51.625 33 
Q 55.609375 28.21875 55.609375 21.1875 
Q 55.609375 10.40625 48.1875 4.484375 
Q 40.765625 -1.421875 27.09375 -1.421875 
Q 22.515625 -1.421875 17.65625 -0.515625 
Q 12.796875 0.390625 7.625 2.203125 
L 7.625 11.71875 
Q 11.71875 9.328125 16.59375 8.109375 
Q 21.484375 6.890625 26.8125 6.890625 
Q 36.078125 6.890625 40.9375 10.546875 
Q 45.796875 14.203125 45.796875 21.1875 
Q 45.796875 27.640625 41.28125 31.265625 
Q 36.765625 34.90625 28.71875 34.90625 
L 20.21875 34.90625 
L 20.21875 43.015625 
L 29.109375 43.015625 
Q 36.375 43.015625 40.234375 45.921875 
Q 44.09375 48.828125 44.09375 54.296875 
Q 44.09375 59.90625 40.109375 62.90625 
Q 36.140625 65.921875 28.71875 65.921875 
Q 24.65625 65.921875 20.015625 65.03125 
Q 15.375 64.15625 9.8125 62.3125 
L 9.8125 71.09375 
Q 15.4375 72.65625 20.34375 73.4375 
Q 25.25 74.21875 29.59375 74.21875 
Q 40.828125 74.21875 47.359375 69.109375 
Q 53.90625 64.015625 53.90625 55.328125 
Q 53.90625 49.265625 50.4375 45.09375 
Q 46.96875 40.921875 40.578125 39.3125 
z
" id="DejaVuSans-51"/>
      </defs>
      <g transform="translate(31.5125 157.685541)scale(0.1 -0.1)">
       <use xlink:href="#DejaVuSans-51"/>
       <use x="63.623047" xlink:href="#DejaVuSans-48"/>
       <use x="127.246094" xlink:href="#DejaVuSans-48"/>
      </g>
     </g>
    </g>
    <g id="ytick_5">
     <g id="line2d_9">
      <g>
       <use style="stroke:#000000;stroke-width:0.8;" x="57.6" xlink:href="#mfc091a33f0" y="108.888652"/>
      </g>
     </g>
     <g id="text_10">
      <!-- 400 -->
      <g transform="translate(31.5125 112.687871)scale(0.1 -0.1)">
       <use xlink:href="#DejaVuSans-52"/>
       <use x="63.623047" xlink:href="#DejaVuSans-48"/>
       <use x="127.246094" xlink:href="#DejaVuSans-48"/>
      </g>
     </g>
    </g>
    <g id="ytick_6">
     <g id="line2d_10">
      <g>
       <use style="stroke:#000000;stroke-width:0.8;" x="57.6" xlink:href="#mfc091a33f0" y="63.890982"/>
      </g>
     </g>
     <g id="text_11">
      <!-- 500 -->
      <defs>
       <path d="M 10.796875 72.90625 
L 49.515625 72.90625 
L 49.515625 64.59375 
L 19.828125 64.59375 
L 19.828125 46.734375 
Q 21.96875 47.46875 24.109375 47.828125 
Q 26.265625 48.1875 28.421875 48.1875 
Q 40.625 48.1875 47.75 41.5 
Q 54.890625 34.8125 54.890625 23.390625 
Q 54.890625 11.625 47.5625 5.09375 
Q 40.234375 -1.421875 26.90625 -1.421875 
Q 22.3125 -1.421875 17.546875 -0.640625 
Q 12.796875 0.140625 7.71875 1.703125 
L 7.71875 11.625 
Q 12.109375 9.234375 16.796875 8.0625 
Q 21.484375 6.890625 26.703125 6.890625 
Q 35.15625 6.890625 40.078125 11.328125 
Q 45.015625 15.765625 45.015625 23.390625 
Q 45.015625 31 40.078125 35.4375 
Q 35.15625 39.890625 26.703125 39.890625 
Q 22.75 39.890625 18.8125 39.015625 
Q 14.890625 38.140625 10.796875 36.28125 
z
" id="DejaVuSans-53"/>
      </defs>
      <g transform="translate(31.5125 67.690201)scale(0.1 -0.1)">
       <use xlink:href="#DejaVuSans-53"/>
       <use x="63.623047" xlink:href="#DejaVuSans-48"/>
       <use x="127.246094" xlink:href="#DejaVuSans-48"/>
      </g>
     </g>
    </g>
    <g id="text_12">
     <!-- y values -->
     <defs>
      <path d="M 32.171875 -5.078125 
Q 28.375 -14.84375 24.75 -17.8125 
Q 21.140625 -20.796875 15.09375 -20.796875 
L 7.90625 -20.796875 
L 7.90625 -13.28125 
L 13.1875 -13.28125 
Q 16.890625 -13.28125 18.9375 -11.515625 
Q 21 -9.765625 23.484375 -3.21875 
L 25.09375 0.875 
L 2.984375 54.6875 
L 12.5 54.6875 
L 29.59375 11.921875 
L 46.6875 54.6875 
L 56.203125 54.6875 
z
" id="DejaVuSans-121"/>
     </defs>
     <g transform="translate(25.432812 195.338937)rotate(-90)scale(0.1 -0.1)">
      <use xlink:href="#DejaVuSans-121"/>
      <use x="59.179688" xlink:href="#DejaVuSans-32"/>
      <use x="90.966797" xlink:href="#DejaVuSans-118"/>
      <use x="150.146484" xlink:href="#DejaVuSans-97"/>
      <use x="211.425781" xlink:href="#DejaVuSans-108"/>
      <use x="239.208984" xlink:href="#DejaVuSans-117"/>
      <use x="302.587891" xlink:href="#DejaVuSans-101"/>
      <use x="364.111328" xlink:href="#DejaVuSans-115"/>
     </g>
    </g>
   </g>
   <g id="line2d_11">
    <defs>
     <path d="M 0 1 
C 0.265203 1 0.51958 0.894634 0.707107 0.707107 
C 0.894634 0.51958 1 0.265203 1 0 
C 1 -0.265203 0.894634 -0.51958 0.707107 -0.707107 
C 0.51958 -0.894634 0.265203 -1 0 -1 
C -0.265203 -1 -0.51958 -0.894634 -0.707107 -0.707107 
C -0.894634 -0.51958 -1 -0.265203 -1 0 
C -1 0.265203 -0.894634 0.51958 -0.707107 0.707107 
C -0.51958 0.894634 -0.265203 1 0 1 
z
" id="m9b3e18a306" style="stroke:#ff0000;"/>
    </defs>
    <g clip-path="url(#p77c0cab48e)">
     <use style="fill:#ff0000;stroke:#ff0000;" x="73.832727" xlink:href="#m9b3e18a306" y="63.062733"/>
     <use style="fill:#ff0000;stroke:#ff0000;" x="75.328831" xlink:href="#m9b3e18a306" y="80.378837"/>
     <use style="fill:#ff0000;stroke:#ff0000;" x="76.824935" xlink:href="#m9b3e18a306" y="109.512146"/>
     <use style="fill:#ff0000;stroke:#ff0000;" x="78.321039" xlink:href="#m9b3e18a306" y="53.568"/>
     <use style="fill:#ff0000;stroke:#ff0000;" x="79.817143" xlink:href="#m9b3e18a306" y="89.632749"/>
     <use style="fill:#ff0000;stroke:#ff0000;" x="81.313247" xlink:href="#m9b3e18a306" y="119.717975"/>
     <use style="fill:#ff0000;stroke:#ff0000;" x="82.809351" xlink:href="#m9b3e18a306" y="120.30422"/>
     <use style="fill:#ff0000;stroke:#ff0000;" x="84.305455" xlink:href="#m9b3e18a306" y="101.405602"/>
     <use style="fill:#ff0000;stroke:#ff0000;" x="85.801558" xlink:href="#m9b3e18a306" y="66.767499"/>
     <use style="fill:#ff0000;stroke:#ff0000;" x="87.297662" xlink:href="#m9b3e18a306" y="111.625598"/>
     <use style="fill:#ff0000;stroke:#ff0000;" x="88.793766" xlink:href="#m9b3e18a306" y="120.70683"/>
     <use style="fill:#ff0000;stroke:#ff0000;" x="90.28987" xlink:href="#m9b3e18a306" y="95.237517"/>
     <use style="fill:#ff0000;stroke:#ff0000;" x="91.785974" xlink:href="#m9b3e18a306" y="106.923493"/>
     <use style="fill:#ff0000;stroke:#ff0000;" x="93.282078" xlink:href="#m9b3e18a306" y="118.633417"/>
     <use style="fill:#ff0000;stroke:#ff0000;" x="94.778182" xlink:href="#m9b3e18a306" y="121.868007"/>
     <use style="fill:#ff0000;stroke:#ff0000;" x="96.274286" xlink:href="#m9b3e18a306" y="141.455668"/>
     <use style="fill:#ff0000;stroke:#ff0000;" x="97.77039" xlink:href="#m9b3e18a306" y="97.196972"/>
     <use style="fill:#ff0000;stroke:#ff0000;" x="99.266494" xlink:href="#m9b3e18a306" y="138.391827"/>
     <use style="fill:#ff0000;stroke:#ff0000;" x="100.762597" xlink:href="#m9b3e18a306" y="84.448788"/>
     <use style="fill:#ff0000;stroke:#ff0000;" x="102.258701" xlink:href="#m9b3e18a306" y="78.752716"/>
     <use style="fill:#ff0000;stroke:#ff0000;" x="103.754805" xlink:href="#m9b3e18a306" y="129.744866"/>
     <use style="fill:#ff0000;stroke:#ff0000;" x="105.250909" xlink:href="#m9b3e18a306" y="145.493508"/>
     <use style="fill:#ff0000;stroke:#ff0000;" x="106.747013" xlink:href="#m9b3e18a306" y="115.488786"/>
     <use style="fill:#ff0000;stroke:#ff0000;" x="108.243117" xlink:href="#m9b3e18a306" y="135.423414"/>
     <use style="fill:#ff0000;stroke:#ff0000;" x="109.739221" xlink:href="#m9b3e18a306" y="118.245218"/>
     <use style="fill:#ff0000;stroke:#ff0000;" x="111.235325" xlink:href="#m9b3e18a306" y="123.893004"/>
     <use style="fill:#ff0000;stroke:#ff0000;" x="112.731429" xlink:href="#m9b3e18a306" y="110.620591"/>
     <use style="fill:#ff0000;stroke:#ff0000;" x="114.227532" xlink:href="#m9b3e18a306" y="130.736781"/>
     <use style="fill:#ff0000;stroke:#ff0000;" x="115.723636" xlink:href="#m9b3e18a306" y="133.843501"/>
     <use style="fill:#ff0000;stroke:#ff0000;" x="117.21974" xlink:href="#m9b3e18a306" y="166.620043"/>
     <use style="fill:#ff0000;stroke:#ff0000;" x="118.715844" xlink:href="#m9b3e18a306" y="150.865639"/>
     <use style="fill:#ff0000;stroke:#ff0000;" x="120.211948" xlink:href="#m9b3e18a306" y="141.40318"/>
     <use style="fill:#ff0000;stroke:#ff0000;" x="121.708052" xlink:href="#m9b3e18a306" y="137.432152"/>
     <use style="fill:#ff0000;stroke:#ff0000;" x="123.204156" xlink:href="#m9b3e18a306" y="128.504412"/>
     <use style="fill:#ff0000;stroke:#ff0000;" x="124.70026" xlink:href="#m9b3e18a306" y="132.322493"/>
     <use style="fill:#ff0000;stroke:#ff0000;" x="126.196364" xlink:href="#m9b3e18a306" y="159.336417"/>
     <use style="fill:#ff0000;stroke:#ff0000;" x="127.692468" xlink:href="#m9b3e18a306" y="107.233095"/>
     <use style="fill:#ff0000;stroke:#ff0000;" x="129.188571" xlink:href="#m9b3e18a306" y="122.347526"/>
     <use style="fill:#ff0000;stroke:#ff0000;" x="130.684675" xlink:href="#m9b3e18a306" y="124.811223"/>
     <use style="fill:#ff0000;stroke:#ff0000;" x="132.180779" xlink:href="#m9b3e18a306" y="136.441929"/>
     <use style="fill:#ff0000;stroke:#ff0000;" x="133.676883" xlink:href="#m9b3e18a306" y="138.631597"/>
     <use style="fill:#ff0000;stroke:#ff0000;" x="135.172987" xlink:href="#m9b3e18a306" y="142.059294"/>
     <use style="fill:#ff0000;stroke:#ff0000;" x="136.669091" xlink:href="#m9b3e18a306" y="178.245079"/>
     <use style="fill:#ff0000;stroke:#ff0000;" x="138.165195" xlink:href="#m9b3e18a306" y="142.246884"/>
     <use style="fill:#ff0000;stroke:#ff0000;" x="139.661299" xlink:href="#m9b3e18a306" y="157.809539"/>
     <use style="fill:#ff0000;stroke:#ff0000;" x="141.157403" xlink:href="#m9b3e18a306" y="168.42708"/>
     <use style="fill:#ff0000;stroke:#ff0000;" x="142.653506" xlink:href="#m9b3e18a306" y="125.431815"/>
     <use style="fill:#ff0000;stroke:#ff0000;" x="144.14961" xlink:href="#m9b3e18a306" y="153.006559"/>
     <use style="fill:#ff0000;stroke:#ff0000;" x="145.645714" xlink:href="#m9b3e18a306" y="144.260636"/>
     <use style="fill:#ff0000;stroke:#ff0000;" x="147.141818" xlink:href="#m9b3e18a306" y="174.685372"/>
     <use style="fill:#ff0000;stroke:#ff0000;" x="148.637922" xlink:href="#m9b3e18a306" y="193.089077"/>
     <use style="fill:#ff0000;stroke:#ff0000;" x="150.134026" xlink:href="#m9b3e18a306" y="141.372709"/>
     <use style="fill:#ff0000;stroke:#ff0000;" x="151.63013" xlink:href="#m9b3e18a306" y="172.41351"/>
     <use style="fill:#ff0000;stroke:#ff0000;" x="153.126234" xlink:href="#m9b3e18a306" y="172.660789"/>
     <use style="fill:#ff0000;stroke:#ff0000;" x="154.622338" xlink:href="#m9b3e18a306" y="175.953779"/>
     <use style="fill:#ff0000;stroke:#ff0000;" x="156.118442" xlink:href="#m9b3e18a306" y="150.053962"/>
     <use style="fill:#ff0000;stroke:#ff0000;" x="157.614545" xlink:href="#m9b3e18a306" y="157.729973"/>
     <use style="fill:#ff0000;stroke:#ff0000;" x="159.110649" xlink:href="#m9b3e18a306" y="180.455861"/>
     <use style="fill:#ff0000;stroke:#ff0000;" x="160.606753" xlink:href="#m9b3e18a306" y="156.523367"/>
     <use style="fill:#ff0000;stroke:#ff0000;" x="162.102857" xlink:href="#m9b3e18a306" y="146.433253"/>
     <use style="fill:#ff0000;stroke:#ff0000;" x="163.598961" xlink:href="#m9b3e18a306" y="167.747146"/>
     <use style="fill:#ff0000;stroke:#ff0000;" x="165.095065" xlink:href="#m9b3e18a306" y="181.38802"/>
     <use style="fill:#ff0000;stroke:#ff0000;" x="166.591169" xlink:href="#m9b3e18a306" y="188.098449"/>
     <use style="fill:#ff0000;stroke:#ff0000;" x="168.087273" xlink:href="#m9b3e18a306" y="178.73973"/>
     <use style="fill:#ff0000;stroke:#ff0000;" x="169.583377" xlink:href="#m9b3e18a306" y="179.004032"/>
     <use style="fill:#ff0000;stroke:#ff0000;" x="171.079481" xlink:href="#m9b3e18a306" y="164.17237"/>
     <use style="fill:#ff0000;stroke:#ff0000;" x="172.575584" xlink:href="#m9b3e18a306" y="159.757594"/>
     <use style="fill:#ff0000;stroke:#ff0000;" x="174.071688" xlink:href="#m9b3e18a306" y="207.599629"/>
     <use style="fill:#ff0000;stroke:#ff0000;" x="175.567792" xlink:href="#m9b3e18a306" y="184.632481"/>
     <use style="fill:#ff0000;stroke:#ff0000;" x="177.063896" xlink:href="#m9b3e18a306" y="189.391787"/>
     <use style="fill:#ff0000;stroke:#ff0000;" x="178.56" xlink:href="#m9b3e18a306" y="176.131809"/>
     <use style="fill:#ff0000;stroke:#ff0000;" x="180.056104" xlink:href="#m9b3e18a306" y="188.058902"/>
     <use style="fill:#ff0000;stroke:#ff0000;" x="181.552208" xlink:href="#m9b3e18a306" y="171.184582"/>
     <use style="fill:#ff0000;stroke:#ff0000;" x="183.048312" xlink:href="#m9b3e18a306" y="195.562176"/>
     <use style="fill:#ff0000;stroke:#ff0000;" x="184.544416" xlink:href="#m9b3e18a306" y="200.947715"/>
     <use style="fill:#ff0000;stroke:#ff0000;" x="186.040519" xlink:href="#m9b3e18a306" y="216.505665"/>
     <use style="fill:#ff0000;stroke:#ff0000;" x="187.536623" xlink:href="#m9b3e18a306" y="209.691051"/>
     <use style="fill:#ff0000;stroke:#ff0000;" x="189.032727" xlink:href="#m9b3e18a306" y="212.872365"/>
     <use style="fill:#ff0000;stroke:#ff0000;" x="190.528831" xlink:href="#m9b3e18a306" y="204.85911"/>
     <use style="fill:#ff0000;stroke:#ff0000;" x="192.024935" xlink:href="#m9b3e18a306" y="201.05076"/>
     <use style="fill:#ff0000;stroke:#ff0000;" x="193.521039" xlink:href="#m9b3e18a306" y="190.033004"/>
     <use style="fill:#ff0000;stroke:#ff0000;" x="195.017143" xlink:href="#m9b3e18a306" y="185.326563"/>
     <use style="fill:#ff0000;stroke:#ff0000;" x="196.513247" xlink:href="#m9b3e18a306" y="192.450717"/>
     <use style="fill:#ff0000;stroke:#ff0000;" x="198.009351" xlink:href="#m9b3e18a306" y="185.791491"/>
     <use style="fill:#ff0000;stroke:#ff0000;" x="199.505455" xlink:href="#m9b3e18a306" y="221.735026"/>
     <use style="fill:#ff0000;stroke:#ff0000;" x="201.001558" xlink:href="#m9b3e18a306" y="202.263291"/>
     <use style="fill:#ff0000;stroke:#ff0000;" x="202.497662" xlink:href="#m9b3e18a306" y="214.147075"/>
     <use style="fill:#ff0000;stroke:#ff0000;" x="203.993766" xlink:href="#m9b3e18a306" y="192.902295"/>
     <use style="fill:#ff0000;stroke:#ff0000;" x="205.48987" xlink:href="#m9b3e18a306" y="202.071157"/>
     <use style="fill:#ff0000;stroke:#ff0000;" x="206.985974" xlink:href="#m9b3e18a306" y="200.864642"/>
     <use style="fill:#ff0000;stroke:#ff0000;" x="208.482078" xlink:href="#m9b3e18a306" y="230.597383"/>
     <use style="fill:#ff0000;stroke:#ff0000;" x="209.978182" xlink:href="#m9b3e18a306" y="217.422684"/>
     <use style="fill:#ff0000;stroke:#ff0000;" x="211.474286" xlink:href="#m9b3e18a306" y="225.256891"/>
     <use style="fill:#ff0000;stroke:#ff0000;" x="212.97039" xlink:href="#m9b3e18a306" y="216.64402"/>
     <use style="fill:#ff0000;stroke:#ff0000;" x="214.466494" xlink:href="#m9b3e18a306" y="222.422515"/>
     <use style="fill:#ff0000;stroke:#ff0000;" x="215.962597" xlink:href="#m9b3e18a306" y="222.114282"/>
     <use style="fill:#ff0000;stroke:#ff0000;" x="217.458701" xlink:href="#m9b3e18a306" y="224.839148"/>
     <use style="fill:#ff0000;stroke:#ff0000;" x="218.954805" xlink:href="#m9b3e18a306" y="224.649127"/>
     <use style="fill:#ff0000;stroke:#ff0000;" x="220.450909" xlink:href="#m9b3e18a306" y="213.930952"/>
     <use style="fill:#ff0000;stroke:#ff0000;" x="221.947013" xlink:href="#m9b3e18a306" y="225.880459"/>
     <use style="fill:#ff0000;stroke:#ff0000;" x="223.443117" xlink:href="#m9b3e18a306" y="237.207399"/>
     <use style="fill:#ff0000;stroke:#ff0000;" x="224.939221" xlink:href="#m9b3e18a306" y="220.642183"/>
     <use style="fill:#ff0000;stroke:#ff0000;" x="226.435325" xlink:href="#m9b3e18a306" y="234.489585"/>
     <use style="fill:#ff0000;stroke:#ff0000;" x="227.931429" xlink:href="#m9b3e18a306" y="226.21739"/>
     <use style="fill:#ff0000;stroke:#ff0000;" x="229.427532" xlink:href="#m9b3e18a306" y="215.717955"/>
     <use style="fill:#ff0000;stroke:#ff0000;" x="230.923636" xlink:href="#m9b3e18a306" y="224.48217"/>
     <use style="fill:#ff0000;stroke:#ff0000;" x="232.41974" xlink:href="#m9b3e18a306" y="207.561091"/>
     <use style="fill:#ff0000;stroke:#ff0000;" x="233.915844" xlink:href="#m9b3e18a306" y="218.683992"/>
     <use style="fill:#ff0000;stroke:#ff0000;" x="235.411948" xlink:href="#m9b3e18a306" y="231.466408"/>
     <use style="fill:#ff0000;stroke:#ff0000;" x="236.908052" xlink:href="#m9b3e18a306" y="237.235576"/>
     <use style="fill:#ff0000;stroke:#ff0000;" x="238.404156" xlink:href="#m9b3e18a306" y="217.399788"/>
     <use style="fill:#ff0000;stroke:#ff0000;" x="239.90026" xlink:href="#m9b3e18a306" y="240.010084"/>
     <use style="fill:#ff0000;stroke:#ff0000;" x="241.396364" xlink:href="#m9b3e18a306" y="242.936292"/>
     <use style="fill:#ff0000;stroke:#ff0000;" x="242.892468" xlink:href="#m9b3e18a306" y="225.010557"/>
     <use style="fill:#ff0000;stroke:#ff0000;" x="244.388571" xlink:href="#m9b3e18a306" y="233.266831"/>
     <use style="fill:#ff0000;stroke:#ff0000;" x="245.884675" xlink:href="#m9b3e18a306" y="236.249427"/>
     <use style="fill:#ff0000;stroke:#ff0000;" x="247.380779" xlink:href="#m9b3e18a306" y="236.577241"/>
     <use style="fill:#ff0000;stroke:#ff0000;" x="248.876883" xlink:href="#m9b3e18a306" y="229.570578"/>
     <use style="fill:#ff0000;stroke:#ff0000;" x="250.372987" xlink:href="#m9b3e18a306" y="238.023198"/>
     <use style="fill:#ff0000;stroke:#ff0000;" x="251.869091" xlink:href="#m9b3e18a306" y="250.581802"/>
     <use style="fill:#ff0000;stroke:#ff0000;" x="253.365195" xlink:href="#m9b3e18a306" y="244.44351"/>
     <use style="fill:#ff0000;stroke:#ff0000;" x="254.861299" xlink:href="#m9b3e18a306" y="240.572524"/>
     <use style="fill:#ff0000;stroke:#ff0000;" x="256.357403" xlink:href="#m9b3e18a306" y="247.461107"/>
     <use style="fill:#ff0000;stroke:#ff0000;" x="257.853506" xlink:href="#m9b3e18a306" y="243.789073"/>
     <use style="fill:#ff0000;stroke:#ff0000;" x="259.34961" xlink:href="#m9b3e18a306" y="239.920713"/>
     <use style="fill:#ff0000;stroke:#ff0000;" x="260.845714" xlink:href="#m9b3e18a306" y="242.95995"/>
     <use style="fill:#ff0000;stroke:#ff0000;" x="262.341818" xlink:href="#m9b3e18a306" y="234.194478"/>
     <use style="fill:#ff0000;stroke:#ff0000;" x="263.837922" xlink:href="#m9b3e18a306" y="232.013443"/>
     <use style="fill:#ff0000;stroke:#ff0000;" x="265.334026" xlink:href="#m9b3e18a306" y="250.86277"/>
     <use style="fill:#ff0000;stroke:#ff0000;" x="266.83013" xlink:href="#m9b3e18a306" y="241.000784"/>
     <use style="fill:#ff0000;stroke:#ff0000;" x="268.326234" xlink:href="#m9b3e18a306" y="246.782764"/>
     <use style="fill:#ff0000;stroke:#ff0000;" x="269.822338" xlink:href="#m9b3e18a306" y="247.785339"/>
     <use style="fill:#ff0000;stroke:#ff0000;" x="271.318442" xlink:href="#m9b3e18a306" y="249.470075"/>
     <use style="fill:#ff0000;stroke:#ff0000;" x="272.814545" xlink:href="#m9b3e18a306" y="246.565031"/>
     <use style="fill:#ff0000;stroke:#ff0000;" x="274.310649" xlink:href="#m9b3e18a306" y="254.658168"/>
     <use style="fill:#ff0000;stroke:#ff0000;" x="275.806753" xlink:href="#m9b3e18a306" y="251.871912"/>
     <use style="fill:#ff0000;stroke:#ff0000;" x="277.302857" xlink:href="#m9b3e18a306" y="256.493497"/>
     <use style="fill:#ff0000;stroke:#ff0000;" x="278.798961" xlink:href="#m9b3e18a306" y="262.597809"/>
     <use style="fill:#ff0000;stroke:#ff0000;" x="280.295065" xlink:href="#m9b3e18a306" y="257.792064"/>
     <use style="fill:#ff0000;stroke:#ff0000;" x="281.791169" xlink:href="#m9b3e18a306" y="246.407122"/>
     <use style="fill:#ff0000;stroke:#ff0000;" x="283.287273" xlink:href="#m9b3e18a306" y="265.187277"/>
     <use style="fill:#ff0000;stroke:#ff0000;" x="284.783377" xlink:href="#m9b3e18a306" y="262.132239"/>
     <use style="fill:#ff0000;stroke:#ff0000;" x="286.279481" xlink:href="#m9b3e18a306" y="257.547467"/>
     <use style="fill:#ff0000;stroke:#ff0000;" x="287.775584" xlink:href="#m9b3e18a306" y="246.711053"/>
     <use style="fill:#ff0000;stroke:#ff0000;" x="289.271688" xlink:href="#m9b3e18a306" y="256.389914"/>
     <use style="fill:#ff0000;stroke:#ff0000;" x="290.767792" xlink:href="#m9b3e18a306" y="264.993442"/>
     <use style="fill:#ff0000;stroke:#ff0000;" x="292.263896" xlink:href="#m9b3e18a306" y="256.335268"/>
     <use style="fill:#ff0000;stroke:#ff0000;" x="293.76" xlink:href="#m9b3e18a306" y="253.490073"/>
     <use style="fill:#ff0000;stroke:#ff0000;" x="295.256104" xlink:href="#m9b3e18a306" y="272.73888"/>
     <use style="fill:#ff0000;stroke:#ff0000;" x="296.752208" xlink:href="#m9b3e18a306" y="264.609176"/>
     <use style="fill:#ff0000;stroke:#ff0000;" x="298.248312" xlink:href="#m9b3e18a306" y="251.344158"/>
     <use style="fill:#ff0000;stroke:#ff0000;" x="299.744416" xlink:href="#m9b3e18a306" y="252.754327"/>
     <use style="fill:#ff0000;stroke:#ff0000;" x="301.240519" xlink:href="#m9b3e18a306" y="254.289002"/>
     <use style="fill:#ff0000;stroke:#ff0000;" x="302.736623" xlink:href="#m9b3e18a306" y="277.723327"/>
     <use style="fill:#ff0000;stroke:#ff0000;" x="304.232727" xlink:href="#m9b3e18a306" y="260.736055"/>
     <use style="fill:#ff0000;stroke:#ff0000;" x="305.728831" xlink:href="#m9b3e18a306" y="271.182534"/>
     <use style="fill:#ff0000;stroke:#ff0000;" x="307.224935" xlink:href="#m9b3e18a306" y="267.718985"/>
     <use style="fill:#ff0000;stroke:#ff0000;" x="308.721039" xlink:href="#m9b3e18a306" y="266.324415"/>
     <use style="fill:#ff0000;stroke:#ff0000;" x="310.217143" xlink:href="#m9b3e18a306" y="274.097775"/>
     <use style="fill:#ff0000;stroke:#ff0000;" x="311.713247" xlink:href="#m9b3e18a306" y="259.763907"/>
     <use style="fill:#ff0000;stroke:#ff0000;" x="313.209351" xlink:href="#m9b3e18a306" y="274.291686"/>
     <use style="fill:#ff0000;stroke:#ff0000;" x="314.705455" xlink:href="#m9b3e18a306" y="269.399847"/>
     <use style="fill:#ff0000;stroke:#ff0000;" x="316.201558" xlink:href="#m9b3e18a306" y="263.585163"/>
     <use style="fill:#ff0000;stroke:#ff0000;" x="317.697662" xlink:href="#m9b3e18a306" y="263.183477"/>
     <use style="fill:#ff0000;stroke:#ff0000;" x="319.193766" xlink:href="#m9b3e18a306" y="264.732709"/>
     <use style="fill:#ff0000;stroke:#ff0000;" x="320.68987" xlink:href="#m9b3e18a306" y="275.98553"/>
     <use style="fill:#ff0000;stroke:#ff0000;" x="322.185974" xlink:href="#m9b3e18a306" y="274.227166"/>
     <use style="fill:#ff0000;stroke:#ff0000;" x="323.682078" xlink:href="#m9b3e18a306" y="274.166425"/>
     <use style="fill:#ff0000;stroke:#ff0000;" x="325.178182" xlink:href="#m9b3e18a306" y="278.607524"/>
     <use style="fill:#ff0000;stroke:#ff0000;" x="326.674286" xlink:href="#m9b3e18a306" y="263.191469"/>
     <use style="fill:#ff0000;stroke:#ff0000;" x="328.17039" xlink:href="#m9b3e18a306" y="265.679628"/>
     <use style="fill:#ff0000;stroke:#ff0000;" x="329.666494" xlink:href="#m9b3e18a306" y="274.509044"/>
     <use style="fill:#ff0000;stroke:#ff0000;" x="331.162597" xlink:href="#m9b3e18a306" y="262.215036"/>
     <use style="fill:#ff0000;stroke:#ff0000;" x="332.658701" xlink:href="#m9b3e18a306" y="276.738597"/>
     <use style="fill:#ff0000;stroke:#ff0000;" x="334.154805" xlink:href="#m9b3e18a306" y="261.764202"/>
     <use style="fill:#ff0000;stroke:#ff0000;" x="335.650909" xlink:href="#m9b3e18a306" y="269.513654"/>
     <use style="fill:#ff0000;stroke:#ff0000;" x="337.147013" xlink:href="#m9b3e18a306" y="262.269376"/>
     <use style="fill:#ff0000;stroke:#ff0000;" x="338.643117" xlink:href="#m9b3e18a306" y="281.288815"/>
     <use style="fill:#ff0000;stroke:#ff0000;" x="340.139221" xlink:href="#m9b3e18a306" y="272.280691"/>
     <use style="fill:#ff0000;stroke:#ff0000;" x="341.635325" xlink:href="#m9b3e18a306" y="272.781458"/>
     <use style="fill:#ff0000;stroke:#ff0000;" x="343.131429" xlink:href="#m9b3e18a306" y="280.376225"/>
     <use style="fill:#ff0000;stroke:#ff0000;" x="344.627532" xlink:href="#m9b3e18a306" y="267.210291"/>
     <use style="fill:#ff0000;stroke:#ff0000;" x="346.123636" xlink:href="#m9b3e18a306" y="267.90861"/>
     <use style="fill:#ff0000;stroke:#ff0000;" x="347.61974" xlink:href="#m9b3e18a306" y="277.780737"/>
     <use style="fill:#ff0000;stroke:#ff0000;" x="349.115844" xlink:href="#m9b3e18a306" y="271.797689"/>
     <use style="fill:#ff0000;stroke:#ff0000;" x="350.611948" xlink:href="#m9b3e18a306" y="268.332341"/>
     <use style="fill:#ff0000;stroke:#ff0000;" x="352.108052" xlink:href="#m9b3e18a306" y="276.679653"/>
     <use style="fill:#ff0000;stroke:#ff0000;" x="353.604156" xlink:href="#m9b3e18a306" y="280.992755"/>
     <use style="fill:#ff0000;stroke:#ff0000;" x="355.10026" xlink:href="#m9b3e18a306" y="280.127435"/>
     <use style="fill:#ff0000;stroke:#ff0000;" x="356.596364" xlink:href="#m9b3e18a306" y="274.52482"/>
     <use style="fill:#ff0000;stroke:#ff0000;" x="358.092468" xlink:href="#m9b3e18a306" y="272.109295"/>
     <use style="fill:#ff0000;stroke:#ff0000;" x="359.588571" xlink:href="#m9b3e18a306" y="272.785834"/>
     <use style="fill:#ff0000;stroke:#ff0000;" x="361.084675" xlink:href="#m9b3e18a306" y="273.3905"/>
     <use style="fill:#ff0000;stroke:#ff0000;" x="362.580779" xlink:href="#m9b3e18a306" y="268.936457"/>
     <use style="fill:#ff0000;stroke:#ff0000;" x="364.076883" xlink:href="#m9b3e18a306" y="275.925724"/>
     <use style="fill:#ff0000;stroke:#ff0000;" x="365.572987" xlink:href="#m9b3e18a306" y="279.642669"/>
     <use style="fill:#ff0000;stroke:#ff0000;" x="367.069091" xlink:href="#m9b3e18a306" y="275.239662"/>
     <use style="fill:#ff0000;stroke:#ff0000;" x="368.565195" xlink:href="#m9b3e18a306" y="279.449919"/>
     <use style="fill:#ff0000;stroke:#ff0000;" x="370.061299" xlink:href="#m9b3e18a306" y="285.424147"/>
     <use style="fill:#ff0000;stroke:#ff0000;" x="371.557403" xlink:href="#m9b3e18a306" y="278.185645"/>
     <use style="fill:#ff0000;stroke:#ff0000;" x="373.053506" xlink:href="#m9b3e18a306" y="284.990235"/>
     <use style="fill:#ff0000;stroke:#ff0000;" x="374.54961" xlink:href="#m9b3e18a306" y="287.148009"/>
     <use style="fill:#ff0000;stroke:#ff0000;" x="376.045714" xlink:href="#m9b3e18a306" y="291.137061"/>
     <use style="fill:#ff0000;stroke:#ff0000;" x="377.541818" xlink:href="#m9b3e18a306" y="285.920343"/>
     <use style="fill:#ff0000;stroke:#ff0000;" x="379.037922" xlink:href="#m9b3e18a306" y="286.777108"/>
     <use style="fill:#ff0000;stroke:#ff0000;" x="380.534026" xlink:href="#m9b3e18a306" y="290.446377"/>
     <use style="fill:#ff0000;stroke:#ff0000;" x="382.03013" xlink:href="#m9b3e18a306" y="286.788556"/>
     <use style="fill:#ff0000;stroke:#ff0000;" x="383.526234" xlink:href="#m9b3e18a306" y="291.682592"/>
     <use style="fill:#ff0000;stroke:#ff0000;" x="385.022338" xlink:href="#m9b3e18a306" y="283.056717"/>
     <use style="fill:#ff0000;stroke:#ff0000;" x="386.518442" xlink:href="#m9b3e18a306" y="276.53683"/>
     <use style="fill:#ff0000;stroke:#ff0000;" x="388.014545" xlink:href="#m9b3e18a306" y="292.53994"/>
     <use style="fill:#ff0000;stroke:#ff0000;" x="389.510649" xlink:href="#m9b3e18a306" y="274.872512"/>
     <use style="fill:#ff0000;stroke:#ff0000;" x="391.006753" xlink:href="#m9b3e18a306" y="274.167168"/>
     <use style="fill:#ff0000;stroke:#ff0000;" x="392.502857" xlink:href="#m9b3e18a306" y="281.01336"/>
     <use style="fill:#ff0000;stroke:#ff0000;" x="393.998961" xlink:href="#m9b3e18a306" y="286.672848"/>
     <use style="fill:#ff0000;stroke:#ff0000;" x="395.495065" xlink:href="#m9b3e18a306" y="286.034213"/>
     <use style="fill:#ff0000;stroke:#ff0000;" x="396.991169" xlink:href="#m9b3e18a306" y="294.26277"/>
     <use style="fill:#ff0000;stroke:#ff0000;" x="398.487273" xlink:href="#m9b3e18a306" y="295.488"/>
    </g>
   </g>
   <g id="line2d_12">
    <path clip-path="url(#p77c0cab48e)" d="M 73.832727 84.711255 
L 84.305455 96.685497 
L 94.778182 108.291543 
L 105.250909 119.529394 
L 115.723636 130.399049 
L 126.196364 140.90051 
L 135.172987 149.608709 
L 144.14961 158.046397 
L 153.126234 166.213574 
L 162.102857 174.110241 
L 171.079481 181.736396 
L 180.056104 189.092042 
L 189.032727 196.177176 
L 198.009351 202.9918 
L 206.985974 209.535913 
L 215.962597 215.809515 
L 224.939221 221.812607 
L 233.915844 227.545188 
L 242.892468 233.007258 
L 251.869091 238.198817 
L 260.845714 243.119866 
L 269.822338 247.770404 
L 278.798961 252.150431 
L 287.775584 256.259948 
L 296.752208 260.098954 
L 305.728831 263.667449 
L 314.705455 266.965434 
L 323.682078 269.992907 
L 332.658701 272.74987 
L 341.635325 275.236323 
L 350.611948 277.452264 
L 359.588571 279.397695 
L 368.565195 281.072616 
L 376.045714 282.261742 
L 383.526234 283.263014 
L 391.006753 284.076432 
L 398.487273 284.701995 
L 398.487273 284.701995 
" style="fill:none;stroke:#008000;stroke-linecap:square;stroke-width:1.5;"/>
   </g>
   <g id="patch_3">
    <path d="M 57.6 307.584 
L 57.6 41.472 
" style="fill:none;stroke:#000000;stroke-linecap:square;stroke-linejoin:miter;stroke-width:0.8;"/>
   </g>
   <g id="patch_4">
    <path d="M 414.72 307.584 
L 414.72 41.472 
" style="fill:none;stroke:#000000;stroke-linecap:square;stroke-linejoin:miter;stroke-width:0.8;"/>
   </g>
   <g id="patch_5">
    <path d="M 57.6 307.584 
L 414.72 307.584 
" style="fill:none;stroke:#000000;stroke-linecap:square;stroke-linejoin:miter;stroke-width:0.8;"/>
   </g>
   <g id="patch_6">
    <path d="M 57.6 41.472 
L 414.72 41.472 
" style="fill:none;stroke:#000000;stroke-linecap:square;stroke-linejoin:miter;stroke-width:0.8;"/>
   </g>
   <g id="text_13">
    <!-- FunctionFitting 48 -->
    <defs>
     <path d="M 9.8125 72.90625 
L 51.703125 72.90625 
L 51.703125 64.59375 
L 19.671875 64.59375 
L 19.671875 43.109375 
L 48.578125 43.109375 
L 48.578125 34.8125 
L 19.671875 34.8125 
L 19.671875 0 
L 9.8125 0 
z
" id="DejaVuSans-70"/>
     <path d="M 54.890625 33.015625 
L 54.890625 0 
L 45.90625 0 
L 45.90625 32.71875 
Q 45.90625 40.484375 42.875 44.328125 
Q 39.84375 48.1875 33.796875 48.1875 
Q 26.515625 48.1875 22.3125 43.546875 
Q 18.109375 38.921875 18.109375 30.90625 
L 18.109375 0 
L 9.078125 0 
L 9.078125 54.6875 
L 18.109375 54.6875 
L 18.109375 46.1875 
Q 21.34375 51.125 25.703125 53.5625 
Q 30.078125 56 35.796875 56 
Q 45.21875 56 50.046875 50.171875 
Q 54.890625 44.34375 54.890625 33.015625 
z
" id="DejaVuSans-110"/>
     <path d="M 48.78125 52.59375 
L 48.78125 44.1875 
Q 44.96875 46.296875 41.140625 47.34375 
Q 37.3125 48.390625 33.40625 48.390625 
Q 24.65625 48.390625 19.8125 42.84375 
Q 14.984375 37.3125 14.984375 27.296875 
Q 14.984375 17.28125 19.8125 11.734375 
Q 24.65625 6.203125 33.40625 6.203125 
Q 37.3125 6.203125 41.140625 7.25 
Q 44.96875 8.296875 48.78125 10.40625 
L 48.78125 2.09375 
Q 45.015625 0.34375 40.984375 -0.53125 
Q 36.96875 -1.421875 32.421875 -1.421875 
Q 20.0625 -1.421875 12.78125 6.34375 
Q 5.515625 14.109375 5.515625 27.296875 
Q 5.515625 40.671875 12.859375 48.328125 
Q 20.21875 56 33.015625 56 
Q 37.15625 56 41.109375 55.140625 
Q 45.0625 54.296875 48.78125 52.59375 
z
" id="DejaVuSans-99"/>
     <path d="M 18.3125 70.21875 
L 18.3125 54.6875 
L 36.8125 54.6875 
L 36.8125 47.703125 
L 18.3125 47.703125 
L 18.3125 18.015625 
Q 18.3125 11.328125 20.140625 9.421875 
Q 21.96875 7.515625 27.59375 7.515625 
L 36.8125 7.515625 
L 36.8125 0 
L 27.59375 0 
Q 17.1875 0 13.234375 3.875 
Q 9.28125 7.765625 9.28125 18.015625 
L 9.28125 47.703125 
L 2.6875 47.703125 
L 2.6875 54.6875 
L 9.28125 54.6875 
L 9.28125 70.21875 
z
" id="DejaVuSans-116"/>
     <path d="M 9.421875 54.6875 
L 18.40625 54.6875 
L 18.40625 0 
L 9.421875 0 
z
M 9.421875 75.984375 
L 18.40625 75.984375 
L 18.40625 64.59375 
L 9.421875 64.59375 
z
" id="DejaVuSans-105"/>
     <path d="M 30.609375 48.390625 
Q 23.390625 48.390625 19.1875 42.75 
Q 14.984375 37.109375 14.984375 27.296875 
Q 14.984375 17.484375 19.15625 11.84375 
Q 23.34375 6.203125 30.609375 6.203125 
Q 37.796875 6.203125 41.984375 11.859375 
Q 46.1875 17.53125 46.1875 27.296875 
Q 46.1875 37.015625 41.984375 42.703125 
Q 37.796875 48.390625 30.609375 48.390625 
z
M 30.609375 56 
Q 42.328125 56 49.015625 48.375 
Q 55.71875 40.765625 55.71875 27.296875 
Q 55.71875 13.875 49.015625 6.21875 
Q 42.328125 -1.421875 30.609375 -1.421875 
Q 18.84375 -1.421875 12.171875 6.21875 
Q 5.515625 13.875 5.515625 27.296875 
Q 5.515625 40.765625 12.171875 48.375 
Q 18.84375 56 30.609375 56 
z
" id="DejaVuSans-111"/>
     <path d="M 45.40625 27.984375 
Q 45.40625 37.75 41.375 43.109375 
Q 37.359375 48.484375 30.078125 48.484375 
Q 22.859375 48.484375 18.828125 43.109375 
Q 14.796875 37.75 14.796875 27.984375 
Q 14.796875 18.265625 18.828125 12.890625 
Q 22.859375 7.515625 30.078125 7.515625 
Q 37.359375 7.515625 41.375 12.890625 
Q 45.40625 18.265625 45.40625 27.984375 
z
M 54.390625 6.78125 
Q 54.390625 -7.171875 48.1875 -13.984375 
Q 42 -20.796875 29.203125 -20.796875 
Q 24.46875 -20.796875 20.265625 -20.09375 
Q 16.0625 -19.390625 12.109375 -17.921875 
L 12.109375 -9.1875 
Q 16.0625 -11.328125 19.921875 -12.34375 
Q 23.78125 -13.375 27.78125 -13.375 
Q 36.625 -13.375 41.015625 -8.765625 
Q 45.40625 -4.15625 45.40625 5.171875 
L 45.40625 9.625 
Q 42.625 4.78125 38.28125 2.390625 
Q 33.9375 0 27.875 0 
Q 17.828125 0 11.671875 7.65625 
Q 5.515625 15.328125 5.515625 27.984375 
Q 5.515625 40.671875 11.671875 48.328125 
Q 17.828125 56 27.875 56 
Q 33.9375 56 38.28125 53.609375 
Q 42.625 51.21875 45.40625 46.390625 
L 45.40625 54.6875 
L 54.390625 54.6875 
z
" id="DejaVuSans-103"/>
    </defs>
    <g transform="translate(181.680937 35.472)scale(0.12 -0.12)">
     <use xlink:href="#DejaVuSans-70"/>
     <use x="57.441406" xlink:href="#DejaVuSans-117"/>
     <use x="120.820312" xlink:href="#DejaVuSans-110"/>
     <use x="184.199219" xlink:href="#DejaVuSans-99"/>
     <use x="239.179688" xlink:href="#DejaVuSans-116"/>
     <use x="278.388672" xlink:href="#DejaVuSans-105"/>
     <use x="306.171875" xlink:href="#DejaVuSans-111"/>
     <use x="367.353516" xlink:href="#DejaVuSans-110"/>
     <use x="430.732422" xlink:href="#DejaVuSans-70"/>
     <use x="488.142578" xlink:href="#DejaVuSans-105"/>
     <use x="515.925781" xlink:href="#DejaVuSans-116"/>
     <use x="555.134766" xlink:href="#DejaVuSans-116"/>
     <use x="594.34375" xlink:href="#DejaVuSans-105"/>
     <use x="622.126953" xlink:href="#DejaVuSans-110"/>
     <use x="685.505859" xlink:href="#DejaVuSans-103"/>
     <use x="748.982422" xlink:href="#DejaVuSans-32"/>
     <use x="780.769531" xlink:href="#DejaVuSans-52"/>
     <use x="844.392578" xlink:href="#DejaVuSans-56"/>
    </g>
   </g>
   <g id="legend_1">
    <g id="patch_7">
     <path d="M 299.83875 78.82825 
L 407.72 78.82825 
Q 409.72 78.82825 409.72 76.82825 
L 409.72 48.472 
Q 409.72 46.472 407.72 46.472 
L 299.83875 46.472 
Q 297.83875 46.472 297.83875 48.472 
L 297.83875 76.82825 
Q 297.83875 78.82825 299.83875 78.82825 
z
" style="fill:#ffffff;opacity:0.8;stroke:#cccccc;stroke-linejoin:miter;"/>
    </g>
    <g id="line2d_13"/>
    <g id="line2d_14">
     <g>
      <use style="fill:#ff0000;stroke:#ff0000;" x="311.83875" xlink:href="#m9b3e18a306" y="54.570437"/>
     </g>
    </g>
    <g id="text_14">
     <!-- measured data -->
     <defs>
      <path d="M 52 44.1875 
Q 55.375 50.25 60.0625 53.125 
Q 64.75 56 71.09375 56 
Q 79.640625 56 84.28125 50.015625 
Q 88.921875 44.046875 88.921875 33.015625 
L 88.921875 0 
L 79.890625 0 
L 79.890625 32.71875 
Q 79.890625 40.578125 77.09375 44.375 
Q 74.3125 48.1875 68.609375 48.1875 
Q 61.625 48.1875 57.5625 43.546875 
Q 53.515625 38.921875 53.515625 30.90625 
L 53.515625 0 
L 44.484375 0 
L 44.484375 32.71875 
Q 44.484375 40.625 41.703125 44.40625 
Q 38.921875 48.1875 33.109375 48.1875 
Q 26.21875 48.1875 22.15625 43.53125 
Q 18.109375 38.875 18.109375 30.90625 
L 18.109375 0 
L 9.078125 0 
L 9.078125 54.6875 
L 18.109375 54.6875 
L 18.109375 46.1875 
Q 21.1875 51.21875 25.484375 53.609375 
Q 29.78125 56 35.6875 56 
Q 41.65625 56 45.828125 52.96875 
Q 50 49.953125 52 44.1875 
z
" id="DejaVuSans-109"/>
      <path d="M 41.109375 46.296875 
Q 39.59375 47.171875 37.8125 47.578125 
Q 36.03125 48 33.890625 48 
Q 26.265625 48 22.1875 43.046875 
Q 18.109375 38.09375 18.109375 28.8125 
L 18.109375 0 
L 9.078125 0 
L 9.078125 54.6875 
L 18.109375 54.6875 
L 18.109375 46.1875 
Q 20.953125 51.171875 25.484375 53.578125 
Q 30.03125 56 36.53125 56 
Q 37.453125 56 38.578125 55.875 
Q 39.703125 55.765625 41.0625 55.515625 
z
" id="DejaVuSans-114"/>
      <path d="M 45.40625 46.390625 
L 45.40625 75.984375 
L 54.390625 75.984375 
L 54.390625 0 
L 45.40625 0 
L 45.40625 8.203125 
Q 42.578125 3.328125 38.25 0.953125 
Q 33.9375 -1.421875 27.875 -1.421875 
Q 17.96875 -1.421875 11.734375 6.484375 
Q 5.515625 14.40625 5.515625 27.296875 
Q 5.515625 40.1875 11.734375 48.09375 
Q 17.96875 56 27.875 56 
Q 33.9375 56 38.25 53.625 
Q 42.578125 51.265625 45.40625 46.390625 
z
M 14.796875 27.296875 
Q 14.796875 17.390625 18.875 11.75 
Q 22.953125 6.109375 30.078125 6.109375 
Q 37.203125 6.109375 41.296875 11.75 
Q 45.40625 17.390625 45.40625 27.296875 
Q 45.40625 37.203125 41.296875 42.84375 
Q 37.203125 48.484375 30.078125 48.484375 
Q 22.953125 48.484375 18.875 42.84375 
Q 14.796875 37.203125 14.796875 27.296875 
z
" id="DejaVuSans-100"/>
     </defs>
     <g transform="translate(329.83875 58.070437)scale(0.1 -0.1)">
      <use xlink:href="#DejaVuSans-109"/>
      <use x="97.412109" xlink:href="#DejaVuSans-101"/>
      <use x="158.935547" xlink:href="#DejaVuSans-97"/>
      <use x="220.214844" xlink:href="#DejaVuSans-115"/>
      <use x="272.314453" xlink:href="#DejaVuSans-117"/>
      <use x="335.693359" xlink:href="#DejaVuSans-114"/>
      <use x="376.775391" xlink:href="#DejaVuSans-101"/>
      <use x="438.298828" xlink:href="#DejaVuSans-100"/>
      <use x="501.775391" xlink:href="#DejaVuSans-32"/>
      <use x="533.5625" xlink:href="#DejaVuSans-100"/>
      <use x="597.039062" xlink:href="#DejaVuSans-97"/>
      <use x="658.318359" xlink:href="#DejaVuSans-116"/>
      <use x="697.527344" xlink:href="#DejaVuSans-97"/>
     </g>
    </g>
    <g id="line2d_15">
     <path d="M 301.83875 69.248562 
L 321.83875 69.248562 
" style="fill:none;stroke:#008000;stroke-linecap:square;stroke-width:1.5;"/>
    </g>
    <g id="line2d_16"/>
    <g id="text_15">
     <!-- linear data -->
     <g transform="translate(329.83875 72.748562)scale(0.1 -0.1)">
      <use xlink:href="#DejaVuSans-108"/>
      <use x="27.783203" xlink:href="#DejaVuSans-105"/>
      <use x="55.566406" xlink:href="#DejaVuSans-110"/>
      <use x="118.945312" xlink:href="#DejaVuSans-101"/>
      <use x="180.46875" xlink:href="#DejaVuSans-97"/>
      <use x="241.748047" xlink:href="#DejaVuSans-114"/>
      <use x="282.861328" xlink:href="#DejaVuSans-32"/>
      <use x="314.648438" xlink:href="#DejaVuSans-100"/>
      <use x="378.125" xlink:href="#DejaVuSans-97"/>
      <use x="439.404297" xlink:href="#DejaVuSans-116"/>
      <use x="478.613281" xlink:href="#DejaVuSans-97"/>
     </g>
    </g>
   </g>
  </g>
 </g>
 <defs>
  <clipPath id="p77c0cab48e">
   <rect height="266.112" width="357.12" x="57.6" y="41.472"/>
  </clipPath>
 </defs>
</svg>
