<?xml version="1.0" encoding="utf-8" standalone="no"?>
<!DOCTYPE svg PUBLIC "-//W3C//DTD SVG 1.1//EN"
  "http://www.w3.org/Graphics/SVG/1.1/DTD/svg11.dtd">
<!-- Created with matplotlib (https://matplotlib.org/) -->
<svg height="345.6pt" version="1.1" viewBox="0 0 460.8 345.6" width="460.8pt" xmlns="http://www.w3.org/2000/svg" xmlns:xlink="http://www.w3.org/1999/xlink">
 <defs>
  <style type="text/css">
*{stroke-linecap:butt;stroke-linejoin:round;}
  </style>
 </defs>
 <g id="figure_1">
  <g id="patch_1">
   <path d="M 0 345.6 
L 460.8 345.6 
L 460.8 0 
L 0 0 
z
" style="fill:#ffffff;"/>
  </g>
  <g id="axes_1">
   <g id="patch_2">
    <path d="M 57.6 307.584 
L 414.72 307.584 
L 414.72 41.472 
L 57.6 41.472 
z
" style="fill:#ffffff;"/>
   </g>
   <g id="matplotlib.axis_1">
    <g id="xtick_1">
     <g id="line2d_1">
      <defs>
       <path d="M 0 0 
L 0 3.5 
" id="m5c24eeabcd" style="stroke:#000000;stroke-width:0.8;"/>
      </defs>
      <g>
       <use style="stroke:#000000;stroke-width:0.8;" x="83.997011" xlink:href="#m5c24eeabcd" y="307.584"/>
      </g>
     </g>
     <g id="text_1">
      <!-- 10 -->
      <defs>
       <path d="M 12.40625 8.296875 
L 28.515625 8.296875 
L 28.515625 63.921875 
L 10.984375 60.40625 
L 10.984375 69.390625 
L 28.421875 72.90625 
L 38.28125 72.90625 
L 38.28125 8.296875 
L 54.390625 8.296875 
L 54.390625 0 
L 12.40625 0 
z
" id="DejaVuSans-49"/>
       <path d="M 31.78125 66.40625 
Q 24.171875 66.40625 20.328125 58.90625 
Q 16.5 51.421875 16.5 36.375 
Q 16.5 21.390625 20.328125 13.890625 
Q 24.171875 6.390625 31.78125 6.390625 
Q 39.453125 6.390625 43.28125 13.890625 
Q 47.125 21.390625 47.125 36.375 
Q 47.125 51.421875 43.28125 58.90625 
Q 39.453125 66.40625 31.78125 66.40625 
z
M 31.78125 74.21875 
Q 44.046875 74.21875 50.515625 64.515625 
Q 56.984375 54.828125 56.984375 36.375 
Q 56.984375 17.96875 50.515625 8.265625 
Q 44.046875 -1.421875 31.78125 -1.421875 
Q 19.53125 -1.421875 13.0625 8.265625 
Q 6.59375 17.96875 6.59375 36.375 
Q 6.59375 54.828125 13.0625 64.515625 
Q 19.53125 74.21875 31.78125 74.21875 
z
" id="DejaVuSans-48"/>
      </defs>
      <g transform="translate(77.634511 322.182437)scale(0.1 -0.1)">
       <use xlink:href="#DejaVuSans-49"/>
       <use x="63.623047" xlink:href="#DejaVuSans-48"/>
      </g>
     </g>
    </g>
    <g id="xtick_2">
     <g id="line2d_2">
      <g>
       <use style="stroke:#000000;stroke-width:0.8;" x="124.932346" xlink:href="#m5c24eeabcd" y="307.584"/>
      </g>
     </g>
     <g id="text_2">
      <!-- 20 -->
      <defs>
       <path d="M 19.1875 8.296875 
L 53.609375 8.296875 
L 53.609375 0 
L 7.328125 0 
L 7.328125 8.296875 
Q 12.9375 14.109375 22.625 23.890625 
Q 32.328125 33.6875 34.8125 36.53125 
Q 39.546875 41.84375 41.421875 45.53125 
Q 43.3125 49.21875 43.3125 52.78125 
Q 43.3125 58.59375 39.234375 62.25 
Q 35.15625 65.921875 28.609375 65.921875 
Q 23.96875 65.921875 18.8125 64.3125 
Q 13.671875 62.703125 7.8125 59.421875 
L 7.8125 69.390625 
Q 13.765625 71.78125 18.9375 73 
Q 24.125 74.21875 28.421875 74.21875 
Q 39.75 74.21875 46.484375 68.546875 
Q 53.21875 62.890625 53.21875 53.421875 
Q 53.21875 48.921875 51.53125 44.890625 
Q 49.859375 40.875 45.40625 35.40625 
Q 44.1875 33.984375 37.640625 27.21875 
Q 31.109375 20.453125 19.1875 8.296875 
z
" id="DejaVuSans-50"/>
      </defs>
      <g transform="translate(118.569846 322.182437)scale(0.1 -0.1)">
       <use xlink:href="#DejaVuSans-50"/>
       <use x="63.623047" xlink:href="#DejaVuSans-48"/>
      </g>
     </g>
    </g>
    <g id="xtick_3">
     <g id="line2d_3">
      <g>
       <use style="stroke:#000000;stroke-width:0.8;" x="165.867682" xlink:href="#m5c24eeabcd" y="307.584"/>
      </g>
     </g>
     <g id="text_3">
      <!-- 30 -->
      <defs>
       <path d="M 40.578125 39.3125 
Q 47.65625 37.796875 51.625 33 
Q 55.609375 28.21875 55.609375 21.1875 
Q 55.609375 10.40625 48.1875 4.484375 
Q 40.765625 -1.421875 27.09375 -1.421875 
Q 22.515625 -1.421875 17.65625 -0.515625 
Q 12.796875 0.390625 7.625 2.203125 
L 7.625 11.71875 
Q 11.71875 9.328125 16.59375 8.109375 
Q 21.484375 6.890625 26.8125 6.890625 
Q 36.078125 6.890625 40.9375 10.546875 
Q 45.796875 14.203125 45.796875 21.1875 
Q 45.796875 27.640625 41.28125 31.265625 
Q 36.765625 34.90625 28.71875 34.90625 
L 20.21875 34.90625 
L 20.21875 43.015625 
L 29.109375 43.015625 
Q 36.375 43.015625 40.234375 45.921875 
Q 44.09375 48.828125 44.09375 54.296875 
Q 44.09375 59.90625 40.109375 62.90625 
Q 36.140625 65.921875 28.71875 65.921875 
Q 24.65625 65.921875 20.015625 65.03125 
Q 15.375 64.15625 9.8125 62.3125 
L 9.8125 71.09375 
Q 15.4375 72.65625 20.34375 73.4375 
Q 25.25 74.21875 29.59375 74.21875 
Q 40.828125 74.21875 47.359375 69.109375 
Q 53.90625 64.015625 53.90625 55.328125 
Q 53.90625 49.265625 50.4375 45.09375 
Q 46.96875 40.921875 40.578125 39.3125 
z
" id="DejaVuSans-51"/>
      </defs>
      <g transform="translate(159.505182 322.182437)scale(0.1 -0.1)">
       <use xlink:href="#DejaVuSans-51"/>
       <use x="63.623047" xlink:href="#DejaVuSans-48"/>
      </g>
     </g>
    </g>
    <g id="xtick_4">
     <g id="line2d_4">
      <g>
       <use style="stroke:#000000;stroke-width:0.8;" x="206.803017" xlink:href="#m5c24eeabcd" y="307.584"/>
      </g>
     </g>
     <g id="text_4">
      <!-- 40 -->
      <defs>
       <path d="M 37.796875 64.3125 
L 12.890625 25.390625 
L 37.796875 25.390625 
z
M 35.203125 72.90625 
L 47.609375 72.90625 
L 47.609375 25.390625 
L 58.015625 25.390625 
L 58.015625 17.1875 
L 47.609375 17.1875 
L 47.609375 0 
L 37.796875 0 
L 37.796875 17.1875 
L 4.890625 17.1875 
L 4.890625 26.703125 
z
" id="DejaVuSans-52"/>
      </defs>
      <g transform="translate(200.440517 322.182437)scale(0.1 -0.1)">
       <use xlink:href="#DejaVuSans-52"/>
       <use x="63.623047" xlink:href="#DejaVuSans-48"/>
      </g>
     </g>
    </g>
    <g id="xtick_5">
     <g id="line2d_5">
      <g>
       <use style="stroke:#000000;stroke-width:0.8;" x="247.738352" xlink:href="#m5c24eeabcd" y="307.584"/>
      </g>
     </g>
     <g id="text_5">
      <!-- 50 -->
      <defs>
       <path d="M 10.796875 72.90625 
L 49.515625 72.90625 
L 49.515625 64.59375 
L 19.828125 64.59375 
L 19.828125 46.734375 
Q 21.96875 47.46875 24.109375 47.828125 
Q 26.265625 48.1875 28.421875 48.1875 
Q 40.625 48.1875 47.75 41.5 
Q 54.890625 34.8125 54.890625 23.390625 
Q 54.890625 11.625 47.5625 5.09375 
Q 40.234375 -1.421875 26.90625 -1.421875 
Q 22.3125 -1.421875 17.546875 -0.640625 
Q 12.796875 0.140625 7.71875 1.703125 
L 7.71875 11.625 
Q 12.109375 9.234375 16.796875 8.0625 
Q 21.484375 6.890625 26.703125 6.890625 
Q 35.15625 6.890625 40.078125 11.328125 
Q 45.015625 15.765625 45.015625 23.390625 
Q 45.015625 31 40.078125 35.4375 
Q 35.15625 39.890625 26.703125 39.890625 
Q 22.75 39.890625 18.8125 39.015625 
Q 14.890625 38.140625 10.796875 36.28125 
z
" id="DejaVuSans-53"/>
      </defs>
      <g transform="translate(241.375852 322.182437)scale(0.1 -0.1)">
       <use xlink:href="#DejaVuSans-53"/>
       <use x="63.623047" xlink:href="#DejaVuSans-48"/>
      </g>
     </g>
    </g>
    <g id="xtick_6">
     <g id="line2d_6">
      <g>
       <use style="stroke:#000000;stroke-width:0.8;" x="288.673688" xlink:href="#m5c24eeabcd" y="307.584"/>
      </g>
     </g>
     <g id="text_6">
      <!-- 60 -->
      <defs>
       <path d="M 33.015625 40.375 
Q 26.375 40.375 22.484375 35.828125 
Q 18.609375 31.296875 18.609375 23.390625 
Q 18.609375 15.53125 22.484375 10.953125 
Q 26.375 6.390625 33.015625 6.390625 
Q 39.65625 6.390625 43.53125 10.953125 
Q 47.40625 15.53125 47.40625 23.390625 
Q 47.40625 31.296875 43.53125 35.828125 
Q 39.65625 40.375 33.015625 40.375 
z
M 52.59375 71.296875 
L 52.59375 62.3125 
Q 48.875 64.0625 45.09375 64.984375 
Q 41.3125 65.921875 37.59375 65.921875 
Q 27.828125 65.921875 22.671875 59.328125 
Q 17.53125 52.734375 16.796875 39.40625 
Q 19.671875 43.65625 24.015625 45.921875 
Q 28.375 48.1875 33.59375 48.1875 
Q 44.578125 48.1875 50.953125 41.515625 
Q 57.328125 34.859375 57.328125 23.390625 
Q 57.328125 12.15625 50.6875 5.359375 
Q 44.046875 -1.421875 33.015625 -1.421875 
Q 20.359375 -1.421875 13.671875 8.265625 
Q 6.984375 17.96875 6.984375 36.375 
Q 6.984375 53.65625 15.1875 63.9375 
Q 23.390625 74.21875 37.203125 74.21875 
Q 40.921875 74.21875 44.703125 73.484375 
Q 48.484375 72.75 52.59375 71.296875 
z
" id="DejaVuSans-54"/>
      </defs>
      <g transform="translate(282.311188 322.182437)scale(0.1 -0.1)">
       <use xlink:href="#DejaVuSans-54"/>
       <use x="63.623047" xlink:href="#DejaVuSans-48"/>
      </g>
     </g>
    </g>
    <g id="xtick_7">
     <g id="line2d_7">
      <g>
       <use style="stroke:#000000;stroke-width:0.8;" x="329.609023" xlink:href="#m5c24eeabcd" y="307.584"/>
      </g>
     </g>
     <g id="text_7">
      <!-- 70 -->
      <defs>
       <path d="M 8.203125 72.90625 
L 55.078125 72.90625 
L 55.078125 68.703125 
L 28.609375 0 
L 18.3125 0 
L 43.21875 64.59375 
L 8.203125 64.59375 
z
" id="DejaVuSans-55"/>
      </defs>
      <g transform="translate(323.246523 322.182437)scale(0.1 -0.1)">
       <use xlink:href="#DejaVuSans-55"/>
       <use x="63.623047" xlink:href="#DejaVuSans-48"/>
      </g>
     </g>
    </g>
    <g id="xtick_8">
     <g id="line2d_8">
      <g>
       <use style="stroke:#000000;stroke-width:0.8;" x="370.544358" xlink:href="#m5c24eeabcd" y="307.584"/>
      </g>
     </g>
     <g id="text_8">
      <!-- 80 -->
      <defs>
       <path d="M 31.78125 34.625 
Q 24.75 34.625 20.71875 30.859375 
Q 16.703125 27.09375 16.703125 20.515625 
Q 16.703125 13.921875 20.71875 10.15625 
Q 24.75 6.390625 31.78125 6.390625 
Q 38.8125 6.390625 42.859375 10.171875 
Q 46.921875 13.96875 46.921875 20.515625 
Q 46.921875 27.09375 42.890625 30.859375 
Q 38.875 34.625 31.78125 34.625 
z
M 21.921875 38.8125 
Q 15.578125 40.375 12.03125 44.71875 
Q 8.5 49.078125 8.5 55.328125 
Q 8.5 64.0625 14.71875 69.140625 
Q 20.953125 74.21875 31.78125 74.21875 
Q 42.671875 74.21875 48.875 69.140625 
Q 55.078125 64.0625 55.078125 55.328125 
Q 55.078125 49.078125 51.53125 44.71875 
Q 48 40.375 41.703125 38.8125 
Q 48.828125 37.15625 52.796875 32.3125 
Q 56.78125 27.484375 56.78125 20.515625 
Q 56.78125 9.90625 50.3125 4.234375 
Q 43.84375 -1.421875 31.78125 -1.421875 
Q 19.734375 -1.421875 13.25 4.234375 
Q 6.78125 9.90625 6.78125 20.515625 
Q 6.78125 27.484375 10.78125 32.3125 
Q 14.796875 37.15625 21.921875 38.8125 
z
M 18.3125 54.390625 
Q 18.3125 48.734375 21.84375 45.5625 
Q 25.390625 42.390625 31.78125 42.390625 
Q 38.140625 42.390625 41.71875 45.5625 
Q 45.3125 48.734375 45.3125 54.390625 
Q 45.3125 60.0625 41.71875 63.234375 
Q 38.140625 66.40625 31.78125 66.40625 
Q 25.390625 66.40625 21.84375 63.234375 
Q 18.3125 60.0625 18.3125 54.390625 
z
" id="DejaVuSans-56"/>
      </defs>
      <g transform="translate(364.181858 322.182437)scale(0.1 -0.1)">
       <use xlink:href="#DejaVuSans-56"/>
       <use x="63.623047" xlink:href="#DejaVuSans-48"/>
      </g>
     </g>
    </g>
    <g id="xtick_9">
     <g id="line2d_9">
      <g>
       <use style="stroke:#000000;stroke-width:0.8;" x="411.479693" xlink:href="#m5c24eeabcd" y="307.584"/>
      </g>
     </g>
     <g id="text_9">
      <!-- 90 -->
      <defs>
       <path d="M 10.984375 1.515625 
L 10.984375 10.5 
Q 14.703125 8.734375 18.5 7.8125 
Q 22.3125 6.890625 25.984375 6.890625 
Q 35.75 6.890625 40.890625 13.453125 
Q 46.046875 20.015625 46.78125 33.40625 
Q 43.953125 29.203125 39.59375 26.953125 
Q 35.25 24.703125 29.984375 24.703125 
Q 19.046875 24.703125 12.671875 31.3125 
Q 6.296875 37.9375 6.296875 49.421875 
Q 6.296875 60.640625 12.9375 67.421875 
Q 19.578125 74.21875 30.609375 74.21875 
Q 43.265625 74.21875 49.921875 64.515625 
Q 56.59375 54.828125 56.59375 36.375 
Q 56.59375 19.140625 48.40625 8.859375 
Q 40.234375 -1.421875 26.421875 -1.421875 
Q 22.703125 -1.421875 18.890625 -0.6875 
Q 15.09375 0.046875 10.984375 1.515625 
z
M 30.609375 32.421875 
Q 37.25 32.421875 41.125 36.953125 
Q 45.015625 41.5 45.015625 49.421875 
Q 45.015625 57.28125 41.125 61.84375 
Q 37.25 66.40625 30.609375 66.40625 
Q 23.96875 66.40625 20.09375 61.84375 
Q 16.21875 57.28125 16.21875 49.421875 
Q 16.21875 41.5 20.09375 36.953125 
Q 23.96875 32.421875 30.609375 32.421875 
z
" id="DejaVuSans-57"/>
      </defs>
      <g transform="translate(405.117193 322.182437)scale(0.1 -0.1)">
       <use xlink:href="#DejaVuSans-57"/>
       <use x="63.623047" xlink:href="#DejaVuSans-48"/>
      </g>
     </g>
    </g>
    <g id="text_10">
     <!-- x values -->
     <defs>
      <path d="M 54.890625 54.6875 
L 35.109375 28.078125 
L 55.90625 0 
L 45.3125 0 
L 29.390625 21.484375 
L 13.484375 0 
L 2.875 0 
L 24.125 28.609375 
L 4.6875 54.6875 
L 15.28125 54.6875 
L 29.78125 35.203125 
L 44.28125 54.6875 
z
" id="DejaVuSans-120"/>
      <path id="DejaVuSans-32"/>
      <path d="M 2.984375 54.6875 
L 12.5 54.6875 
L 29.59375 8.796875 
L 46.6875 54.6875 
L 56.203125 54.6875 
L 35.6875 0 
L 23.484375 0 
z
" id="DejaVuSans-118"/>
      <path d="M 34.28125 27.484375 
Q 23.390625 27.484375 19.1875 25 
Q 14.984375 22.515625 14.984375 16.5 
Q 14.984375 11.71875 18.140625 8.90625 
Q 21.296875 6.109375 26.703125 6.109375 
Q 34.1875 6.109375 38.703125 11.40625 
Q 43.21875 16.703125 43.21875 25.484375 
L 43.21875 27.484375 
z
M 52.203125 31.203125 
L 52.203125 0 
L 43.21875 0 
L 43.21875 8.296875 
Q 40.140625 3.328125 35.546875 0.953125 
Q 30.953125 -1.421875 24.3125 -1.421875 
Q 15.921875 -1.421875 10.953125 3.296875 
Q 6 8.015625 6 15.921875 
Q 6 25.140625 12.171875 29.828125 
Q 18.359375 34.515625 30.609375 34.515625 
L 43.21875 34.515625 
L 43.21875 35.40625 
Q 43.21875 41.609375 39.140625 45 
Q 35.0625 48.390625 27.6875 48.390625 
Q 23 48.390625 18.546875 47.265625 
Q 14.109375 46.140625 10.015625 43.890625 
L 10.015625 52.203125 
Q 14.9375 54.109375 19.578125 55.046875 
Q 24.21875 56 28.609375 56 
Q 40.484375 56 46.34375 49.84375 
Q 52.203125 43.703125 52.203125 31.203125 
z
" id="DejaVuSans-97"/>
      <path d="M 9.421875 75.984375 
L 18.40625 75.984375 
L 18.40625 0 
L 9.421875 0 
z
" id="DejaVuSans-108"/>
      <path d="M 8.5 21.578125 
L 8.5 54.6875 
L 17.484375 54.6875 
L 17.484375 21.921875 
Q 17.484375 14.15625 20.5 10.265625 
Q 23.53125 6.390625 29.59375 6.390625 
Q 36.859375 6.390625 41.078125 11.03125 
Q 45.3125 15.671875 45.3125 23.6875 
L 45.3125 54.6875 
L 54.296875 54.6875 
L 54.296875 0 
L 45.3125 0 
L 45.3125 8.40625 
Q 42.046875 3.421875 37.71875 1 
Q 33.40625 -1.421875 27.6875 -1.421875 
Q 18.265625 -1.421875 13.375 4.4375 
Q 8.5 10.296875 8.5 21.578125 
z
M 31.109375 56 
z
" id="DejaVuSans-117"/>
      <path d="M 56.203125 29.59375 
L 56.203125 25.203125 
L 14.890625 25.203125 
Q 15.484375 15.921875 20.484375 11.0625 
Q 25.484375 6.203125 34.421875 6.203125 
Q 39.59375 6.203125 44.453125 7.46875 
Q 49.3125 8.734375 54.109375 11.28125 
L 54.109375 2.78125 
Q 49.265625 0.734375 44.1875 -0.34375 
Q 39.109375 -1.421875 33.890625 -1.421875 
Q 20.796875 -1.421875 13.15625 6.1875 
Q 5.515625 13.8125 5.515625 26.8125 
Q 5.515625 40.234375 12.765625 48.109375 
Q 20.015625 56 32.328125 56 
Q 43.359375 56 49.78125 48.890625 
Q 56.203125 41.796875 56.203125 29.59375 
z
M 47.21875 32.234375 
Q 47.125 39.59375 43.09375 43.984375 
Q 39.0625 48.390625 32.421875 48.390625 
Q 24.90625 48.390625 20.390625 44.140625 
Q 15.875 39.890625 15.1875 32.171875 
z
" id="DejaVuSans-101"/>
      <path d="M 44.28125 53.078125 
L 44.28125 44.578125 
Q 40.484375 46.53125 36.375 47.5 
Q 32.28125 48.484375 27.875 48.484375 
Q 21.1875 48.484375 17.84375 46.4375 
Q 14.5 44.390625 14.5 40.28125 
Q 14.5 37.15625 16.890625 35.375 
Q 19.28125 33.59375 26.515625 31.984375 
L 29.59375 31.296875 
Q 39.15625 29.25 43.1875 25.515625 
Q 47.21875 21.78125 47.21875 15.09375 
Q 47.21875 7.46875 41.1875 3.015625 
Q 35.15625 -1.421875 24.609375 -1.421875 
Q 20.21875 -1.421875 15.453125 -0.5625 
Q 10.6875 0.296875 5.421875 2 
L 5.421875 11.28125 
Q 10.40625 8.6875 15.234375 7.390625 
Q 20.0625 6.109375 24.8125 6.109375 
Q 31.15625 6.109375 34.5625 8.28125 
Q 37.984375 10.453125 37.984375 14.40625 
Q 37.984375 18.0625 35.515625 20.015625 
Q 33.0625 21.96875 24.703125 23.78125 
L 21.578125 24.515625 
Q 13.234375 26.265625 9.515625 29.90625 
Q 5.8125 33.546875 5.8125 39.890625 
Q 5.8125 47.609375 11.28125 51.796875 
Q 16.75 56 26.8125 56 
Q 31.78125 56 36.171875 55.265625 
Q 40.578125 54.546875 44.28125 53.078125 
z
" id="DejaVuSans-115"/>
     </defs>
     <g transform="translate(215.349063 335.860562)scale(0.1 -0.1)">
      <use xlink:href="#DejaVuSans-120"/>
      <use x="59.179688" xlink:href="#DejaVuSans-32"/>
      <use x="90.966797" xlink:href="#DejaVuSans-118"/>
      <use x="150.146484" xlink:href="#DejaVuSans-97"/>
      <use x="211.425781" xlink:href="#DejaVuSans-108"/>
      <use x="239.208984" xlink:href="#DejaVuSans-117"/>
      <use x="302.587891" xlink:href="#DejaVuSans-101"/>
      <use x="364.111328" xlink:href="#DejaVuSans-115"/>
     </g>
    </g>
   </g>
   <g id="matplotlib.axis_2">
    <g id="ytick_1">
     <g id="line2d_10">
      <defs>
       <path d="M 0 0 
L -3.5 0 
" id="mbb614dfef9" style="stroke:#000000;stroke-width:0.8;"/>
      </defs>
      <g>
       <use style="stroke:#000000;stroke-width:0.8;" x="57.6" xlink:href="#mbb614dfef9" y="291.823376"/>
      </g>
     </g>
     <g id="text_11">
      <!-- 0 -->
      <g transform="translate(44.2375 295.622595)scale(0.1 -0.1)">
       <use xlink:href="#DejaVuSans-48"/>
      </g>
     </g>
    </g>
    <g id="ytick_2">
     <g id="line2d_11">
      <g>
       <use style="stroke:#000000;stroke-width:0.8;" x="57.6" xlink:href="#mbb614dfef9" y="246.667049"/>
      </g>
     </g>
     <g id="text_12">
      <!-- 100 -->
      <g transform="translate(31.5125 250.466268)scale(0.1 -0.1)">
       <use xlink:href="#DejaVuSans-49"/>
       <use x="63.623047" xlink:href="#DejaVuSans-48"/>
       <use x="127.246094" xlink:href="#DejaVuSans-48"/>
      </g>
     </g>
    </g>
    <g id="ytick_3">
     <g id="line2d_12">
      <g>
       <use style="stroke:#000000;stroke-width:0.8;" x="57.6" xlink:href="#mbb614dfef9" y="201.510722"/>
      </g>
     </g>
     <g id="text_13">
      <!-- 200 -->
      <g transform="translate(31.5125 205.309941)scale(0.1 -0.1)">
       <use xlink:href="#DejaVuSans-50"/>
       <use x="63.623047" xlink:href="#DejaVuSans-48"/>
       <use x="127.246094" xlink:href="#DejaVuSans-48"/>
      </g>
     </g>
    </g>
    <g id="ytick_4">
     <g id="line2d_13">
      <g>
       <use style="stroke:#000000;stroke-width:0.8;" x="57.6" xlink:href="#mbb614dfef9" y="156.354395"/>
      </g>
     </g>
     <g id="text_14">
      <!-- 300 -->
      <g transform="translate(31.5125 160.153614)scale(0.1 -0.1)">
       <use xlink:href="#DejaVuSans-51"/>
       <use x="63.623047" xlink:href="#DejaVuSans-48"/>
       <use x="127.246094" xlink:href="#DejaVuSans-48"/>
      </g>
     </g>
    </g>
    <g id="ytick_5">
     <g id="line2d_14">
      <g>
       <use style="stroke:#000000;stroke-width:0.8;" x="57.6" xlink:href="#mbb614dfef9" y="111.198068"/>
      </g>
     </g>
     <g id="text_15">
      <!-- 400 -->
      <g transform="translate(31.5125 114.997287)scale(0.1 -0.1)">
       <use xlink:href="#DejaVuSans-52"/>
       <use x="63.623047" xlink:href="#DejaVuSans-48"/>
       <use x="127.246094" xlink:href="#DejaVuSans-48"/>
      </g>
     </g>
    </g>
    <g id="ytick_6">
     <g id="line2d_15">
      <g>
       <use style="stroke:#000000;stroke-width:0.8;" x="57.6" xlink:href="#mbb614dfef9" y="66.041741"/>
      </g>
     </g>
     <g id="text_16">
      <!-- 500 -->
      <g transform="translate(31.5125 69.840959)scale(0.1 -0.1)">
       <use xlink:href="#DejaVuSans-53"/>
       <use x="63.623047" xlink:href="#DejaVuSans-48"/>
       <use x="127.246094" xlink:href="#DejaVuSans-48"/>
      </g>
     </g>
    </g>
    <g id="text_17">
     <!-- y values -->
     <defs>
      <path d="M 32.171875 -5.078125 
Q 28.375 -14.84375 24.75 -17.8125 
Q 21.140625 -20.796875 15.09375 -20.796875 
L 7.90625 -20.796875 
L 7.90625 -13.28125 
L 13.1875 -13.28125 
Q 16.890625 -13.28125 18.9375 -11.515625 
Q 21 -9.765625 23.484375 -3.21875 
L 25.09375 0.875 
L 2.984375 54.6875 
L 12.5 54.6875 
L 29.59375 11.921875 
L 46.6875 54.6875 
L 56.203125 54.6875 
z
" id="DejaVuSans-121"/>
     </defs>
     <g transform="translate(25.432812 195.338937)rotate(-90)scale(0.1 -0.1)">
      <use xlink:href="#DejaVuSans-121"/>
      <use x="59.179688" xlink:href="#DejaVuSans-32"/>
      <use x="90.966797" xlink:href="#DejaVuSans-118"/>
      <use x="150.146484" xlink:href="#DejaVuSans-97"/>
      <use x="211.425781" xlink:href="#DejaVuSans-108"/>
      <use x="239.208984" xlink:href="#DejaVuSans-117"/>
      <use x="302.587891" xlink:href="#DejaVuSans-101"/>
      <use x="364.111328" xlink:href="#DejaVuSans-115"/>
     </g>
    </g>
   </g>
   <g id="line2d_16">
    <defs>
     <path d="M 0 1 
C 0.265203 1 0.51958 0.894634 0.707107 0.707107 
C 0.894634 0.51958 1 0.265203 1 0 
C 1 -0.265203 0.894634 -0.51958 0.707107 -0.707107 
C 0.51958 -0.894634 0.265203 -1 0 -1 
C -0.265203 -1 -0.51958 -0.894634 -0.707107 -0.707107 
C -0.894634 -0.51958 -1 -0.265203 -1 0 
C -1 0.265203 -0.894634 0.51958 -0.707107 0.707107 
C -0.51958 0.894634 -0.265203 1 0 1 
z
" id="m32f1ca14db" style="stroke:#ff0000;"/>
    </defs>
    <g clip-path="url(#p567ad29d06)">
     <use style="fill:#ff0000;stroke:#ff0000;" x="73.832727" xlink:href="#m32f1ca14db" y="53.568"/>
     <use style="fill:#ff0000;stroke:#ff0000;" x="75.416408" xlink:href="#m32f1ca14db" y="106.188274"/>
     <use style="fill:#ff0000;stroke:#ff0000;" x="77.000089" xlink:href="#m32f1ca14db" y="70.954621"/>
     <use style="fill:#ff0000;stroke:#ff0000;" x="78.583769" xlink:href="#m32f1ca14db" y="75.592331"/>
     <use style="fill:#ff0000;stroke:#ff0000;" x="80.16745" xlink:href="#m32f1ca14db" y="54.15762"/>
     <use style="fill:#ff0000;stroke:#ff0000;" x="81.751131" xlink:href="#m32f1ca14db" y="120.383678"/>
     <use style="fill:#ff0000;stroke:#ff0000;" x="83.334812" xlink:href="#m32f1ca14db" y="73.276595"/>
     <use style="fill:#ff0000;stroke:#ff0000;" x="84.918492" xlink:href="#m32f1ca14db" y="79.645782"/>
     <use style="fill:#ff0000;stroke:#ff0000;" x="86.502173" xlink:href="#m32f1ca14db" y="80.538602"/>
     <use style="fill:#ff0000;stroke:#ff0000;" x="88.085854" xlink:href="#m32f1ca14db" y="118.584101"/>
     <use style="fill:#ff0000;stroke:#ff0000;" x="89.669534" xlink:href="#m32f1ca14db" y="99.439018"/>
     <use style="fill:#ff0000;stroke:#ff0000;" x="91.253215" xlink:href="#m32f1ca14db" y="67.07177"/>
     <use style="fill:#ff0000;stroke:#ff0000;" x="92.836896" xlink:href="#m32f1ca14db" y="68.706802"/>
     <use style="fill:#ff0000;stroke:#ff0000;" x="94.420576" xlink:href="#m32f1ca14db" y="145.409325"/>
     <use style="fill:#ff0000;stroke:#ff0000;" x="96.004257" xlink:href="#m32f1ca14db" y="126.996527"/>
     <use style="fill:#ff0000;stroke:#ff0000;" x="97.587938" xlink:href="#m32f1ca14db" y="139.528888"/>
     <use style="fill:#ff0000;stroke:#ff0000;" x="99.171619" xlink:href="#m32f1ca14db" y="106.2696"/>
     <use style="fill:#ff0000;stroke:#ff0000;" x="100.755299" xlink:href="#m32f1ca14db" y="90.173479"/>
     <use style="fill:#ff0000;stroke:#ff0000;" x="102.33898" xlink:href="#m32f1ca14db" y="101.339038"/>
     <use style="fill:#ff0000;stroke:#ff0000;" x="103.922661" xlink:href="#m32f1ca14db" y="139.797639"/>
     <use style="fill:#ff0000;stroke:#ff0000;" x="105.506341" xlink:href="#m32f1ca14db" y="133.079715"/>
     <use style="fill:#ff0000;stroke:#ff0000;" x="107.090022" xlink:href="#m32f1ca14db" y="101.117782"/>
     <use style="fill:#ff0000;stroke:#ff0000;" x="108.673703" xlink:href="#m32f1ca14db" y="140.388925"/>
     <use style="fill:#ff0000;stroke:#ff0000;" x="110.257384" xlink:href="#m32f1ca14db" y="94.54517"/>
     <use style="fill:#ff0000;stroke:#ff0000;" x="111.841064" xlink:href="#m32f1ca14db" y="132.186163"/>
     <use style="fill:#ff0000;stroke:#ff0000;" x="113.424745" xlink:href="#m32f1ca14db" y="154.903547"/>
     <use style="fill:#ff0000;stroke:#ff0000;" x="115.008426" xlink:href="#m32f1ca14db" y="139.927947"/>
     <use style="fill:#ff0000;stroke:#ff0000;" x="116.592106" xlink:href="#m32f1ca14db" y="142.003826"/>
     <use style="fill:#ff0000;stroke:#ff0000;" x="118.175787" xlink:href="#m32f1ca14db" y="113.471245"/>
     <use style="fill:#ff0000;stroke:#ff0000;" x="119.759468" xlink:href="#m32f1ca14db" y="117.782896"/>
     <use style="fill:#ff0000;stroke:#ff0000;" x="121.343149" xlink:href="#m32f1ca14db" y="133.726217"/>
     <use style="fill:#ff0000;stroke:#ff0000;" x="122.926829" xlink:href="#m32f1ca14db" y="154.650159"/>
     <use style="fill:#ff0000;stroke:#ff0000;" x="124.51051" xlink:href="#m32f1ca14db" y="140.693908"/>
     <use style="fill:#ff0000;stroke:#ff0000;" x="126.094191" xlink:href="#m32f1ca14db" y="139.060953"/>
     <use style="fill:#ff0000;stroke:#ff0000;" x="127.677871" xlink:href="#m32f1ca14db" y="156.203915"/>
     <use style="fill:#ff0000;stroke:#ff0000;" x="129.261552" xlink:href="#m32f1ca14db" y="158.939383"/>
     <use style="fill:#ff0000;stroke:#ff0000;" x="130.845233" xlink:href="#m32f1ca14db" y="143.496371"/>
     <use style="fill:#ff0000;stroke:#ff0000;" x="132.428914" xlink:href="#m32f1ca14db" y="136.415994"/>
     <use style="fill:#ff0000;stroke:#ff0000;" x="134.012594" xlink:href="#m32f1ca14db" y="175.70398"/>
     <use style="fill:#ff0000;stroke:#ff0000;" x="135.596275" xlink:href="#m32f1ca14db" y="154.195476"/>
     <use style="fill:#ff0000;stroke:#ff0000;" x="137.179956" xlink:href="#m32f1ca14db" y="138.736121"/>
     <use style="fill:#ff0000;stroke:#ff0000;" x="138.763636" xlink:href="#m32f1ca14db" y="185.30701"/>
     <use style="fill:#ff0000;stroke:#ff0000;" x="140.347317" xlink:href="#m32f1ca14db" y="125.136304"/>
     <use style="fill:#ff0000;stroke:#ff0000;" x="141.930998" xlink:href="#m32f1ca14db" y="141.038293"/>
     <use style="fill:#ff0000;stroke:#ff0000;" x="143.514678" xlink:href="#m32f1ca14db" y="160.215239"/>
     <use style="fill:#ff0000;stroke:#ff0000;" x="145.098359" xlink:href="#m32f1ca14db" y="170.380627"/>
     <use style="fill:#ff0000;stroke:#ff0000;" x="146.68204" xlink:href="#m32f1ca14db" y="149.828384"/>
     <use style="fill:#ff0000;stroke:#ff0000;" x="148.265721" xlink:href="#m32f1ca14db" y="144.302522"/>
     <use style="fill:#ff0000;stroke:#ff0000;" x="149.849401" xlink:href="#m32f1ca14db" y="153.009011"/>
     <use style="fill:#ff0000;stroke:#ff0000;" x="151.433082" xlink:href="#m32f1ca14db" y="170.795771"/>
     <use style="fill:#ff0000;stroke:#ff0000;" x="153.016763" xlink:href="#m32f1ca14db" y="190.411617"/>
     <use style="fill:#ff0000;stroke:#ff0000;" x="154.600443" xlink:href="#m32f1ca14db" y="169.915559"/>
     <use style="fill:#ff0000;stroke:#ff0000;" x="156.184124" xlink:href="#m32f1ca14db" y="161.062723"/>
     <use style="fill:#ff0000;stroke:#ff0000;" x="157.767805" xlink:href="#m32f1ca14db" y="191.716055"/>
     <use style="fill:#ff0000;stroke:#ff0000;" x="159.351486" xlink:href="#m32f1ca14db" y="163.335743"/>
     <use style="fill:#ff0000;stroke:#ff0000;" x="160.935166" xlink:href="#m32f1ca14db" y="177.803095"/>
     <use style="fill:#ff0000;stroke:#ff0000;" x="162.518847" xlink:href="#m32f1ca14db" y="172.552278"/>
     <use style="fill:#ff0000;stroke:#ff0000;" x="164.102528" xlink:href="#m32f1ca14db" y="156.121816"/>
     <use style="fill:#ff0000;stroke:#ff0000;" x="165.686208" xlink:href="#m32f1ca14db" y="173.04218"/>
     <use style="fill:#ff0000;stroke:#ff0000;" x="167.269889" xlink:href="#m32f1ca14db" y="171.16515"/>
     <use style="fill:#ff0000;stroke:#ff0000;" x="168.85357" xlink:href="#m32f1ca14db" y="185.226345"/>
     <use style="fill:#ff0000;stroke:#ff0000;" x="170.437251" xlink:href="#m32f1ca14db" y="164.725332"/>
     <use style="fill:#ff0000;stroke:#ff0000;" x="172.020931" xlink:href="#m32f1ca14db" y="165.411038"/>
     <use style="fill:#ff0000;stroke:#ff0000;" x="173.604612" xlink:href="#m32f1ca14db" y="196.70395"/>
     <use style="fill:#ff0000;stroke:#ff0000;" x="175.188293" xlink:href="#m32f1ca14db" y="179.152416"/>
     <use style="fill:#ff0000;stroke:#ff0000;" x="176.771973" xlink:href="#m32f1ca14db" y="203.629914"/>
     <use style="fill:#ff0000;stroke:#ff0000;" x="178.355654" xlink:href="#m32f1ca14db" y="217.569476"/>
     <use style="fill:#ff0000;stroke:#ff0000;" x="179.939335" xlink:href="#m32f1ca14db" y="202.131631"/>
     <use style="fill:#ff0000;stroke:#ff0000;" x="181.523016" xlink:href="#m32f1ca14db" y="204.615469"/>
     <use style="fill:#ff0000;stroke:#ff0000;" x="183.106696" xlink:href="#m32f1ca14db" y="199.726902"/>
     <use style="fill:#ff0000;stroke:#ff0000;" x="184.690377" xlink:href="#m32f1ca14db" y="168.734572"/>
     <use style="fill:#ff0000;stroke:#ff0000;" x="186.274058" xlink:href="#m32f1ca14db" y="201.38281"/>
     <use style="fill:#ff0000;stroke:#ff0000;" x="187.857738" xlink:href="#m32f1ca14db" y="197.597735"/>
     <use style="fill:#ff0000;stroke:#ff0000;" x="189.441419" xlink:href="#m32f1ca14db" y="207.644775"/>
     <use style="fill:#ff0000;stroke:#ff0000;" x="191.0251" xlink:href="#m32f1ca14db" y="180.590873"/>
     <use style="fill:#ff0000;stroke:#ff0000;" x="192.60878" xlink:href="#m32f1ca14db" y="186.694767"/>
     <use style="fill:#ff0000;stroke:#ff0000;" x="194.192461" xlink:href="#m32f1ca14db" y="192.143241"/>
     <use style="fill:#ff0000;stroke:#ff0000;" x="195.776142" xlink:href="#m32f1ca14db" y="214.575026"/>
     <use style="fill:#ff0000;stroke:#ff0000;" x="197.359823" xlink:href="#m32f1ca14db" y="216.318298"/>
     <use style="fill:#ff0000;stroke:#ff0000;" x="198.943503" xlink:href="#m32f1ca14db" y="188.512148"/>
     <use style="fill:#ff0000;stroke:#ff0000;" x="200.527184" xlink:href="#m32f1ca14db" y="208.734436"/>
     <use style="fill:#ff0000;stroke:#ff0000;" x="202.110865" xlink:href="#m32f1ca14db" y="216.010958"/>
     <use style="fill:#ff0000;stroke:#ff0000;" x="203.694545" xlink:href="#m32f1ca14db" y="215.848628"/>
     <use style="fill:#ff0000;stroke:#ff0000;" x="205.278226" xlink:href="#m32f1ca14db" y="182.414765"/>
     <use style="fill:#ff0000;stroke:#ff0000;" x="206.861907" xlink:href="#m32f1ca14db" y="199.7501"/>
     <use style="fill:#ff0000;stroke:#ff0000;" x="208.445588" xlink:href="#m32f1ca14db" y="196.107035"/>
     <use style="fill:#ff0000;stroke:#ff0000;" x="210.029268" xlink:href="#m32f1ca14db" y="210.542653"/>
     <use style="fill:#ff0000;stroke:#ff0000;" x="211.612949" xlink:href="#m32f1ca14db" y="215.794192"/>
     <use style="fill:#ff0000;stroke:#ff0000;" x="213.19663" xlink:href="#m32f1ca14db" y="213.515318"/>
     <use style="fill:#ff0000;stroke:#ff0000;" x="214.78031" xlink:href="#m32f1ca14db" y="233.322271"/>
     <use style="fill:#ff0000;stroke:#ff0000;" x="216.363991" xlink:href="#m32f1ca14db" y="232.523495"/>
     <use style="fill:#ff0000;stroke:#ff0000;" x="217.947672" xlink:href="#m32f1ca14db" y="218.080795"/>
     <use style="fill:#ff0000;stroke:#ff0000;" x="219.531353" xlink:href="#m32f1ca14db" y="220.354851"/>
     <use style="fill:#ff0000;stroke:#ff0000;" x="221.115033" xlink:href="#m32f1ca14db" y="213.63813"/>
     <use style="fill:#ff0000;stroke:#ff0000;" x="222.698714" xlink:href="#m32f1ca14db" y="197.174903"/>
     <use style="fill:#ff0000;stroke:#ff0000;" x="224.282395" xlink:href="#m32f1ca14db" y="233.411753"/>
     <use style="fill:#ff0000;stroke:#ff0000;" x="225.866075" xlink:href="#m32f1ca14db" y="217.828766"/>
     <use style="fill:#ff0000;stroke:#ff0000;" x="227.449756" xlink:href="#m32f1ca14db" y="238.606808"/>
     <use style="fill:#ff0000;stroke:#ff0000;" x="229.033437" xlink:href="#m32f1ca14db" y="221.311767"/>
     <use style="fill:#ff0000;stroke:#ff0000;" x="230.617118" xlink:href="#m32f1ca14db" y="214.106869"/>
     <use style="fill:#ff0000;stroke:#ff0000;" x="232.200798" xlink:href="#m32f1ca14db" y="231.447991"/>
     <use style="fill:#ff0000;stroke:#ff0000;" x="233.784479" xlink:href="#m32f1ca14db" y="228.058549"/>
     <use style="fill:#ff0000;stroke:#ff0000;" x="235.36816" xlink:href="#m32f1ca14db" y="211.13816"/>
     <use style="fill:#ff0000;stroke:#ff0000;" x="236.95184" xlink:href="#m32f1ca14db" y="233.410414"/>
     <use style="fill:#ff0000;stroke:#ff0000;" x="238.535521" xlink:href="#m32f1ca14db" y="230.076934"/>
     <use style="fill:#ff0000;stroke:#ff0000;" x="240.119202" xlink:href="#m32f1ca14db" y="238.970692"/>
     <use style="fill:#ff0000;stroke:#ff0000;" x="241.702882" xlink:href="#m32f1ca14db" y="224.263771"/>
     <use style="fill:#ff0000;stroke:#ff0000;" x="243.286563" xlink:href="#m32f1ca14db" y="253.767899"/>
     <use style="fill:#ff0000;stroke:#ff0000;" x="244.870244" xlink:href="#m32f1ca14db" y="249.877287"/>
     <use style="fill:#ff0000;stroke:#ff0000;" x="246.453925" xlink:href="#m32f1ca14db" y="223.620441"/>
     <use style="fill:#ff0000;stroke:#ff0000;" x="248.037605" xlink:href="#m32f1ca14db" y="243.171518"/>
     <use style="fill:#ff0000;stroke:#ff0000;" x="249.621286" xlink:href="#m32f1ca14db" y="226.157664"/>
     <use style="fill:#ff0000;stroke:#ff0000;" x="251.204967" xlink:href="#m32f1ca14db" y="236.810261"/>
     <use style="fill:#ff0000;stroke:#ff0000;" x="252.788647" xlink:href="#m32f1ca14db" y="229.497372"/>
     <use style="fill:#ff0000;stroke:#ff0000;" x="254.372328" xlink:href="#m32f1ca14db" y="250.092798"/>
     <use style="fill:#ff0000;stroke:#ff0000;" x="255.956009" xlink:href="#m32f1ca14db" y="229.790305"/>
     <use style="fill:#ff0000;stroke:#ff0000;" x="257.53969" xlink:href="#m32f1ca14db" y="248.299143"/>
     <use style="fill:#ff0000;stroke:#ff0000;" x="259.12337" xlink:href="#m32f1ca14db" y="254.759313"/>
     <use style="fill:#ff0000;stroke:#ff0000;" x="260.707051" xlink:href="#m32f1ca14db" y="229.971614"/>
     <use style="fill:#ff0000;stroke:#ff0000;" x="262.290732" xlink:href="#m32f1ca14db" y="245.876001"/>
     <use style="fill:#ff0000;stroke:#ff0000;" x="263.874412" xlink:href="#m32f1ca14db" y="241.891688"/>
     <use style="fill:#ff0000;stroke:#ff0000;" x="265.458093" xlink:href="#m32f1ca14db" y="250.898403"/>
     <use style="fill:#ff0000;stroke:#ff0000;" x="267.041774" xlink:href="#m32f1ca14db" y="264.617761"/>
     <use style="fill:#ff0000;stroke:#ff0000;" x="268.625455" xlink:href="#m32f1ca14db" y="253.706527"/>
     <use style="fill:#ff0000;stroke:#ff0000;" x="270.209135" xlink:href="#m32f1ca14db" y="237.581677"/>
     <use style="fill:#ff0000;stroke:#ff0000;" x="271.792816" xlink:href="#m32f1ca14db" y="248.871532"/>
     <use style="fill:#ff0000;stroke:#ff0000;" x="273.376497" xlink:href="#m32f1ca14db" y="249.515717"/>
     <use style="fill:#ff0000;stroke:#ff0000;" x="274.960177" xlink:href="#m32f1ca14db" y="237.019919"/>
     <use style="fill:#ff0000;stroke:#ff0000;" x="276.543858" xlink:href="#m32f1ca14db" y="240.021642"/>
     <use style="fill:#ff0000;stroke:#ff0000;" x="278.127539" xlink:href="#m32f1ca14db" y="253.835406"/>
     <use style="fill:#ff0000;stroke:#ff0000;" x="279.71122" xlink:href="#m32f1ca14db" y="240.293643"/>
     <use style="fill:#ff0000;stroke:#ff0000;" x="281.2949" xlink:href="#m32f1ca14db" y="265.732692"/>
     <use style="fill:#ff0000;stroke:#ff0000;" x="282.878581" xlink:href="#m32f1ca14db" y="238.3809"/>
     <use style="fill:#ff0000;stroke:#ff0000;" x="284.462262" xlink:href="#m32f1ca14db" y="248.741514"/>
     <use style="fill:#ff0000;stroke:#ff0000;" x="286.045942" xlink:href="#m32f1ca14db" y="269.613922"/>
     <use style="fill:#ff0000;stroke:#ff0000;" x="287.629623" xlink:href="#m32f1ca14db" y="241.6375"/>
     <use style="fill:#ff0000;stroke:#ff0000;" x="289.213304" xlink:href="#m32f1ca14db" y="253.647006"/>
     <use style="fill:#ff0000;stroke:#ff0000;" x="290.796984" xlink:href="#m32f1ca14db" y="251.206184"/>
     <use style="fill:#ff0000;stroke:#ff0000;" x="292.380665" xlink:href="#m32f1ca14db" y="251.987519"/>
     <use style="fill:#ff0000;stroke:#ff0000;" x="293.964346" xlink:href="#m32f1ca14db" y="258.559"/>
     <use style="fill:#ff0000;stroke:#ff0000;" x="295.548027" xlink:href="#m32f1ca14db" y="249.335845"/>
     <use style="fill:#ff0000;stroke:#ff0000;" x="297.131707" xlink:href="#m32f1ca14db" y="266.671009"/>
     <use style="fill:#ff0000;stroke:#ff0000;" x="298.715388" xlink:href="#m32f1ca14db" y="265.183573"/>
     <use style="fill:#ff0000;stroke:#ff0000;" x="300.299069" xlink:href="#m32f1ca14db" y="264.972191"/>
     <use style="fill:#ff0000;stroke:#ff0000;" x="301.882749" xlink:href="#m32f1ca14db" y="260.864322"/>
     <use style="fill:#ff0000;stroke:#ff0000;" x="303.46643" xlink:href="#m32f1ca14db" y="261.044891"/>
     <use style="fill:#ff0000;stroke:#ff0000;" x="305.050111" xlink:href="#m32f1ca14db" y="261.531338"/>
     <use style="fill:#ff0000;stroke:#ff0000;" x="306.633792" xlink:href="#m32f1ca14db" y="276.563998"/>
     <use style="fill:#ff0000;stroke:#ff0000;" x="308.217472" xlink:href="#m32f1ca14db" y="264.548642"/>
     <use style="fill:#ff0000;stroke:#ff0000;" x="309.801153" xlink:href="#m32f1ca14db" y="259.575253"/>
     <use style="fill:#ff0000;stroke:#ff0000;" x="311.384834" xlink:href="#m32f1ca14db" y="272.851526"/>
     <use style="fill:#ff0000;stroke:#ff0000;" x="312.968514" xlink:href="#m32f1ca14db" y="276.745449"/>
     <use style="fill:#ff0000;stroke:#ff0000;" x="314.552195" xlink:href="#m32f1ca14db" y="270.893296"/>
     <use style="fill:#ff0000;stroke:#ff0000;" x="316.135876" xlink:href="#m32f1ca14db" y="260.994606"/>
     <use style="fill:#ff0000;stroke:#ff0000;" x="317.719557" xlink:href="#m32f1ca14db" y="255.59906"/>
     <use style="fill:#ff0000;stroke:#ff0000;" x="319.303237" xlink:href="#m32f1ca14db" y="275.245286"/>
     <use style="fill:#ff0000;stroke:#ff0000;" x="320.886918" xlink:href="#m32f1ca14db" y="266.26695"/>
     <use style="fill:#ff0000;stroke:#ff0000;" x="322.470599" xlink:href="#m32f1ca14db" y="269.763111"/>
     <use style="fill:#ff0000;stroke:#ff0000;" x="324.054279" xlink:href="#m32f1ca14db" y="268.547704"/>
     <use style="fill:#ff0000;stroke:#ff0000;" x="325.63796" xlink:href="#m32f1ca14db" y="267.981545"/>
     <use style="fill:#ff0000;stroke:#ff0000;" x="327.221641" xlink:href="#m32f1ca14db" y="270.454719"/>
     <use style="fill:#ff0000;stroke:#ff0000;" x="328.805322" xlink:href="#m32f1ca14db" y="268.175107"/>
     <use style="fill:#ff0000;stroke:#ff0000;" x="330.389002" xlink:href="#m32f1ca14db" y="274.451744"/>
     <use style="fill:#ff0000;stroke:#ff0000;" x="331.972683" xlink:href="#m32f1ca14db" y="272.045266"/>
     <use style="fill:#ff0000;stroke:#ff0000;" x="333.556364" xlink:href="#m32f1ca14db" y="267.672643"/>
     <use style="fill:#ff0000;stroke:#ff0000;" x="335.140044" xlink:href="#m32f1ca14db" y="285.751101"/>
     <use style="fill:#ff0000;stroke:#ff0000;" x="336.723725" xlink:href="#m32f1ca14db" y="268.89462"/>
     <use style="fill:#ff0000;stroke:#ff0000;" x="338.307406" xlink:href="#m32f1ca14db" y="273.622127"/>
     <use style="fill:#ff0000;stroke:#ff0000;" x="339.891086" xlink:href="#m32f1ca14db" y="277.279124"/>
     <use style="fill:#ff0000;stroke:#ff0000;" x="341.474767" xlink:href="#m32f1ca14db" y="289.480534"/>
     <use style="fill:#ff0000;stroke:#ff0000;" x="343.058448" xlink:href="#m32f1ca14db" y="285.405676"/>
     <use style="fill:#ff0000;stroke:#ff0000;" x="344.642129" xlink:href="#m32f1ca14db" y="267.965318"/>
     <use style="fill:#ff0000;stroke:#ff0000;" x="346.225809" xlink:href="#m32f1ca14db" y="273.154077"/>
     <use style="fill:#ff0000;stroke:#ff0000;" x="347.80949" xlink:href="#m32f1ca14db" y="267.813902"/>
     <use style="fill:#ff0000;stroke:#ff0000;" x="349.393171" xlink:href="#m32f1ca14db" y="285.758798"/>
     <use style="fill:#ff0000;stroke:#ff0000;" x="350.976851" xlink:href="#m32f1ca14db" y="282.106318"/>
     <use style="fill:#ff0000;stroke:#ff0000;" x="352.560532" xlink:href="#m32f1ca14db" y="265.442859"/>
     <use style="fill:#ff0000;stroke:#ff0000;" x="354.144213" xlink:href="#m32f1ca14db" y="284.990435"/>
     <use style="fill:#ff0000;stroke:#ff0000;" x="355.727894" xlink:href="#m32f1ca14db" y="278.580549"/>
     <use style="fill:#ff0000;stroke:#ff0000;" x="357.311574" xlink:href="#m32f1ca14db" y="284.890317"/>
     <use style="fill:#ff0000;stroke:#ff0000;" x="358.895255" xlink:href="#m32f1ca14db" y="283.358732"/>
     <use style="fill:#ff0000;stroke:#ff0000;" x="360.478936" xlink:href="#m32f1ca14db" y="288.778189"/>
     <use style="fill:#ff0000;stroke:#ff0000;" x="362.062616" xlink:href="#m32f1ca14db" y="273.989519"/>
     <use style="fill:#ff0000;stroke:#ff0000;" x="363.646297" xlink:href="#m32f1ca14db" y="273.692097"/>
     <use style="fill:#ff0000;stroke:#ff0000;" x="365.229978" xlink:href="#m32f1ca14db" y="278.706134"/>
     <use style="fill:#ff0000;stroke:#ff0000;" x="366.813659" xlink:href="#m32f1ca14db" y="274.254331"/>
     <use style="fill:#ff0000;stroke:#ff0000;" x="368.397339" xlink:href="#m32f1ca14db" y="286.553463"/>
     <use style="fill:#ff0000;stroke:#ff0000;" x="369.98102" xlink:href="#m32f1ca14db" y="272.733107"/>
     <use style="fill:#ff0000;stroke:#ff0000;" x="371.564701" xlink:href="#m32f1ca14db" y="269.603031"/>
     <use style="fill:#ff0000;stroke:#ff0000;" x="373.148381" xlink:href="#m32f1ca14db" y="271.900103"/>
     <use style="fill:#ff0000;stroke:#ff0000;" x="374.732062" xlink:href="#m32f1ca14db" y="278.476279"/>
     <use style="fill:#ff0000;stroke:#ff0000;" x="376.315743" xlink:href="#m32f1ca14db" y="286.493457"/>
     <use style="fill:#ff0000;stroke:#ff0000;" x="377.899424" xlink:href="#m32f1ca14db" y="275.714287"/>
     <use style="fill:#ff0000;stroke:#ff0000;" x="379.483104" xlink:href="#m32f1ca14db" y="288.982158"/>
     <use style="fill:#ff0000;stroke:#ff0000;" x="381.066785" xlink:href="#m32f1ca14db" y="274.939784"/>
     <use style="fill:#ff0000;stroke:#ff0000;" x="382.650466" xlink:href="#m32f1ca14db" y="278.500794"/>
     <use style="fill:#ff0000;stroke:#ff0000;" x="384.234146" xlink:href="#m32f1ca14db" y="281.633356"/>
     <use style="fill:#ff0000;stroke:#ff0000;" x="385.817827" xlink:href="#m32f1ca14db" y="280.643282"/>
     <use style="fill:#ff0000;stroke:#ff0000;" x="387.401508" xlink:href="#m32f1ca14db" y="275.103372"/>
     <use style="fill:#ff0000;stroke:#ff0000;" x="388.985188" xlink:href="#m32f1ca14db" y="295.488"/>
     <use style="fill:#ff0000;stroke:#ff0000;" x="390.568869" xlink:href="#m32f1ca14db" y="288.318855"/>
     <use style="fill:#ff0000;stroke:#ff0000;" x="392.15255" xlink:href="#m32f1ca14db" y="286.100105"/>
     <use style="fill:#ff0000;stroke:#ff0000;" x="393.736231" xlink:href="#m32f1ca14db" y="283.541637"/>
     <use style="fill:#ff0000;stroke:#ff0000;" x="395.319911" xlink:href="#m32f1ca14db" y="275.914378"/>
     <use style="fill:#ff0000;stroke:#ff0000;" x="396.903592" xlink:href="#m32f1ca14db" y="293.374195"/>
     <use style="fill:#ff0000;stroke:#ff0000;" x="398.487273" xlink:href="#m32f1ca14db" y="285.754204"/>
    </g>
   </g>
   <g id="line2d_17">
    <path clip-path="url(#p567ad29d06)" d="M 73.832727 80.947774 
L 83.334812 92.294409 
L 92.836896 103.312306 
L 102.33898 114.001466 
L 111.841064 124.361888 
L 121.343149 134.393572 
L 130.845233 144.096518 
L 140.347317 153.470727 
L 149.849401 162.516198 
L 159.351486 171.232931 
L 168.85357 179.620927 
L 178.355654 187.680184 
L 187.857738 195.410704 
L 197.359823 202.812486 
L 206.861907 209.88553 
L 216.363991 216.629837 
L 224.282395 221.998973 
L 232.200798 227.139819 
L 240.119202 232.052375 
L 248.037605 236.736641 
L 255.956009 241.192617 
L 263.874412 245.420303 
L 271.792816 249.419699 
L 279.71122 253.190804 
L 287.629623 256.73362 
L 295.548027 260.048145 
L 303.46643 263.13438 
L 311.384834 265.992325 
L 319.303237 268.62198 
L 327.221641 271.023345 
L 335.140044 273.19642 
L 343.058448 275.141204 
L 350.976851 276.857699 
L 358.895255 278.345903 
L 366.813659 279.605817 
L 374.732062 280.637441 
L 382.650466 281.440775 
L 390.568869 282.015819 
L 398.487273 282.362573 
L 398.487273 282.362573 
" style="fill:none;stroke:#008000;stroke-linecap:square;stroke-width:1.5;"/>
   </g>
   <g id="patch_3">
    <path d="M 57.6 307.584 
L 57.6 41.472 
" style="fill:none;stroke:#000000;stroke-linecap:square;stroke-linejoin:miter;stroke-width:0.8;"/>
   </g>
   <g id="patch_4">
    <path d="M 414.72 307.584 
L 414.72 41.472 
" style="fill:none;stroke:#000000;stroke-linecap:square;stroke-linejoin:miter;stroke-width:0.8;"/>
   </g>
   <g id="patch_5">
    <path d="M 57.6 307.584 
L 414.72 307.584 
" style="fill:none;stroke:#000000;stroke-linecap:square;stroke-linejoin:miter;stroke-width:0.8;"/>
   </g>
   <g id="patch_6">
    <path d="M 57.6 41.472 
L 414.72 41.472 
" style="fill:none;stroke:#000000;stroke-linecap:square;stroke-linejoin:miter;stroke-width:0.8;"/>
   </g>
   <g id="text_18">
    <!-- FunctionFitting 49 -->
    <defs>
     <path d="M 9.8125 72.90625 
L 51.703125 72.90625 
L 51.703125 64.59375 
L 19.671875 64.59375 
L 19.671875 43.109375 
L 48.578125 43.109375 
L 48.578125 34.8125 
L 19.671875 34.8125 
L 19.671875 0 
L 9.8125 0 
z
" id="DejaVuSans-70"/>
     <path d="M 54.890625 33.015625 
L 54.890625 0 
L 45.90625 0 
L 45.90625 32.71875 
Q 45.90625 40.484375 42.875 44.328125 
Q 39.84375 48.1875 33.796875 48.1875 
Q 26.515625 48.1875 22.3125 43.546875 
Q 18.109375 38.921875 18.109375 30.90625 
L 18.109375 0 
L 9.078125 0 
L 9.078125 54.6875 
L 18.109375 54.6875 
L 18.109375 46.1875 
Q 21.34375 51.125 25.703125 53.5625 
Q 30.078125 56 35.796875 56 
Q 45.21875 56 50.046875 50.171875 
Q 54.890625 44.34375 54.890625 33.015625 
z
" id="DejaVuSans-110"/>
     <path d="M 48.78125 52.59375 
L 48.78125 44.1875 
Q 44.96875 46.296875 41.140625 47.34375 
Q 37.3125 48.390625 33.40625 48.390625 
Q 24.65625 48.390625 19.8125 42.84375 
Q 14.984375 37.3125 14.984375 27.296875 
Q 14.984375 17.28125 19.8125 11.734375 
Q 24.65625 6.203125 33.40625 6.203125 
Q 37.3125 6.203125 41.140625 7.25 
Q 44.96875 8.296875 48.78125 10.40625 
L 48.78125 2.09375 
Q 45.015625 0.34375 40.984375 -0.53125 
Q 36.96875 -1.421875 32.421875 -1.421875 
Q 20.0625 -1.421875 12.78125 6.34375 
Q 5.515625 14.109375 5.515625 27.296875 
Q 5.515625 40.671875 12.859375 48.328125 
Q 20.21875 56 33.015625 56 
Q 37.15625 56 41.109375 55.140625 
Q 45.0625 54.296875 48.78125 52.59375 
z
" id="DejaVuSans-99"/>
     <path d="M 18.3125 70.21875 
L 18.3125 54.6875 
L 36.8125 54.6875 
L 36.8125 47.703125 
L 18.3125 47.703125 
L 18.3125 18.015625 
Q 18.3125 11.328125 20.140625 9.421875 
Q 21.96875 7.515625 27.59375 7.515625 
L 36.8125 7.515625 
L 36.8125 0 
L 27.59375 0 
Q 17.1875 0 13.234375 3.875 
Q 9.28125 7.765625 9.28125 18.015625 
L 9.28125 47.703125 
L 2.6875 47.703125 
L 2.6875 54.6875 
L 9.28125 54.6875 
L 9.28125 70.21875 
z
" id="DejaVuSans-116"/>
     <path d="M 9.421875 54.6875 
L 18.40625 54.6875 
L 18.40625 0 
L 9.421875 0 
z
M 9.421875 75.984375 
L 18.40625 75.984375 
L 18.40625 64.59375 
L 9.421875 64.59375 
z
" id="DejaVuSans-105"/>
     <path d="M 30.609375 48.390625 
Q 23.390625 48.390625 19.1875 42.75 
Q 14.984375 37.109375 14.984375 27.296875 
Q 14.984375 17.484375 19.15625 11.84375 
Q 23.34375 6.203125 30.609375 6.203125 
Q 37.796875 6.203125 41.984375 11.859375 
Q 46.1875 17.53125 46.1875 27.296875 
Q 46.1875 37.015625 41.984375 42.703125 
Q 37.796875 48.390625 30.609375 48.390625 
z
M 30.609375 56 
Q 42.328125 56 49.015625 48.375 
Q 55.71875 40.765625 55.71875 27.296875 
Q 55.71875 13.875 49.015625 6.21875 
Q 42.328125 -1.421875 30.609375 -1.421875 
Q 18.84375 -1.421875 12.171875 6.21875 
Q 5.515625 13.875 5.515625 27.296875 
Q 5.515625 40.765625 12.171875 48.375 
Q 18.84375 56 30.609375 56 
z
" id="DejaVuSans-111"/>
     <path d="M 45.40625 27.984375 
Q 45.40625 37.75 41.375 43.109375 
Q 37.359375 48.484375 30.078125 48.484375 
Q 22.859375 48.484375 18.828125 43.109375 
Q 14.796875 37.75 14.796875 27.984375 
Q 14.796875 18.265625 18.828125 12.890625 
Q 22.859375 7.515625 30.078125 7.515625 
Q 37.359375 7.515625 41.375 12.890625 
Q 45.40625 18.265625 45.40625 27.984375 
z
M 54.390625 6.78125 
Q 54.390625 -7.171875 48.1875 -13.984375 
Q 42 -20.796875 29.203125 -20.796875 
Q 24.46875 -20.796875 20.265625 -20.09375 
Q 16.0625 -19.390625 12.109375 -17.921875 
L 12.109375 -9.1875 
Q 16.0625 -11.328125 19.921875 -12.34375 
Q 23.78125 -13.375 27.78125 -13.375 
Q 36.625 -13.375 41.015625 -8.765625 
Q 45.40625 -4.15625 45.40625 5.171875 
L 45.40625 9.625 
Q 42.625 4.78125 38.28125 2.390625 
Q 33.9375 0 27.875 0 
Q 17.828125 0 11.671875 7.65625 
Q 5.515625 15.328125 5.515625 27.984375 
Q 5.515625 40.671875 11.671875 48.328125 
Q 17.828125 56 27.875 56 
Q 33.9375 56 38.28125 53.609375 
Q 42.625 51.21875 45.40625 46.390625 
L 45.40625 54.6875 
L 54.390625 54.6875 
z
" id="DejaVuSans-103"/>
    </defs>
    <g transform="translate(181.680937 35.472)scale(0.12 -0.12)">
     <use xlink:href="#DejaVuSans-70"/>
     <use x="57.441406" xlink:href="#DejaVuSans-117"/>
     <use x="120.820312" xlink:href="#DejaVuSans-110"/>
     <use x="184.199219" xlink:href="#DejaVuSans-99"/>
     <use x="239.179688" xlink:href="#DejaVuSans-116"/>
     <use x="278.388672" xlink:href="#DejaVuSans-105"/>
     <use x="306.171875" xlink:href="#DejaVuSans-111"/>
     <use x="367.353516" xlink:href="#DejaVuSans-110"/>
     <use x="430.732422" xlink:href="#DejaVuSans-70"/>
     <use x="488.142578" xlink:href="#DejaVuSans-105"/>
     <use x="515.925781" xlink:href="#DejaVuSans-116"/>
     <use x="555.134766" xlink:href="#DejaVuSans-116"/>
     <use x="594.34375" xlink:href="#DejaVuSans-105"/>
     <use x="622.126953" xlink:href="#DejaVuSans-110"/>
     <use x="685.505859" xlink:href="#DejaVuSans-103"/>
     <use x="748.982422" xlink:href="#DejaVuSans-32"/>
     <use x="780.769531" xlink:href="#DejaVuSans-52"/>
     <use x="844.392578" xlink:href="#DejaVuSans-57"/>
    </g>
   </g>
   <g id="legend_1">
    <g id="patch_7">
     <path d="M 299.83875 78.82825 
L 407.72 78.82825 
Q 409.72 78.82825 409.72 76.82825 
L 409.72 48.472 
Q 409.72 46.472 407.72 46.472 
L 299.83875 46.472 
Q 297.83875 46.472 297.83875 48.472 
L 297.83875 76.82825 
Q 297.83875 78.82825 299.83875 78.82825 
z
" style="fill:#ffffff;opacity:0.8;stroke:#cccccc;stroke-linejoin:miter;"/>
    </g>
    <g id="line2d_18"/>
    <g id="line2d_19">
     <g>
      <use style="fill:#ff0000;stroke:#ff0000;" x="311.83875" xlink:href="#m32f1ca14db" y="54.570437"/>
     </g>
    </g>
    <g id="text_19">
     <!-- measured data -->
     <defs>
      <path d="M 52 44.1875 
Q 55.375 50.25 60.0625 53.125 
Q 64.75 56 71.09375 56 
Q 79.640625 56 84.28125 50.015625 
Q 88.921875 44.046875 88.921875 33.015625 
L 88.921875 0 
L 79.890625 0 
L 79.890625 32.71875 
Q 79.890625 40.578125 77.09375 44.375 
Q 74.3125 48.1875 68.609375 48.1875 
Q 61.625 48.1875 57.5625 43.546875 
Q 53.515625 38.921875 53.515625 30.90625 
L 53.515625 0 
L 44.484375 0 
L 44.484375 32.71875 
Q 44.484375 40.625 41.703125 44.40625 
Q 38.921875 48.1875 33.109375 48.1875 
Q 26.21875 48.1875 22.15625 43.53125 
Q 18.109375 38.875 18.109375 30.90625 
L 18.109375 0 
L 9.078125 0 
L 9.078125 54.6875 
L 18.109375 54.6875 
L 18.109375 46.1875 
Q 21.1875 51.21875 25.484375 53.609375 
Q 29.78125 56 35.6875 56 
Q 41.65625 56 45.828125 52.96875 
Q 50 49.953125 52 44.1875 
z
" id="DejaVuSans-109"/>
      <path d="M 41.109375 46.296875 
Q 39.59375 47.171875 37.8125 47.578125 
Q 36.03125 48 33.890625 48 
Q 26.265625 48 22.1875 43.046875 
Q 18.109375 38.09375 18.109375 28.8125 
L 18.109375 0 
L 9.078125 0 
L 9.078125 54.6875 
L 18.109375 54.6875 
L 18.109375 46.1875 
Q 20.953125 51.171875 25.484375 53.578125 
Q 30.03125 56 36.53125 56 
Q 37.453125 56 38.578125 55.875 
Q 39.703125 55.765625 41.0625 55.515625 
z
" id="DejaVuSans-114"/>
      <path d="M 45.40625 46.390625 
L 45.40625 75.984375 
L 54.390625 75.984375 
L 54.390625 0 
L 45.40625 0 
L 45.40625 8.203125 
Q 42.578125 3.328125 38.25 0.953125 
Q 33.9375 -1.421875 27.875 -1.421875 
Q 17.96875 -1.421875 11.734375 6.484375 
Q 5.515625 14.40625 5.515625 27.296875 
Q 5.515625 40.1875 11.734375 48.09375 
Q 17.96875 56 27.875 56 
Q 33.9375 56 38.25 53.625 
Q 42.578125 51.265625 45.40625 46.390625 
z
M 14.796875 27.296875 
Q 14.796875 17.390625 18.875 11.75 
Q 22.953125 6.109375 30.078125 6.109375 
Q 37.203125 6.109375 41.296875 11.75 
Q 45.40625 17.390625 45.40625 27.296875 
Q 45.40625 37.203125 41.296875 42.84375 
Q 37.203125 48.484375 30.078125 48.484375 
Q 22.953125 48.484375 18.875 42.84375 
Q 14.796875 37.203125 14.796875 27.296875 
z
" id="DejaVuSans-100"/>
     </defs>
     <g transform="translate(329.83875 58.070437)scale(0.1 -0.1)">
      <use xlink:href="#DejaVuSans-109"/>
      <use x="97.412109" xlink:href="#DejaVuSans-101"/>
      <use x="158.935547" xlink:href="#DejaVuSans-97"/>
      <use x="220.214844" xlink:href="#DejaVuSans-115"/>
      <use x="272.314453" xlink:href="#DejaVuSans-117"/>
      <use x="335.693359" xlink:href="#DejaVuSans-114"/>
      <use x="376.775391" xlink:href="#DejaVuSans-101"/>
      <use x="438.298828" xlink:href="#DejaVuSans-100"/>
      <use x="501.775391" xlink:href="#DejaVuSans-32"/>
      <use x="533.5625" xlink:href="#DejaVuSans-100"/>
      <use x="597.039062" xlink:href="#DejaVuSans-97"/>
      <use x="658.318359" xlink:href="#DejaVuSans-116"/>
      <use x="697.527344" xlink:href="#DejaVuSans-97"/>
     </g>
    </g>
    <g id="line2d_20">
     <path d="M 301.83875 69.248562 
L 321.83875 69.248562 
" style="fill:none;stroke:#008000;stroke-linecap:square;stroke-width:1.5;"/>
    </g>
    <g id="line2d_21"/>
    <g id="text_20">
     <!-- linear data -->
     <g transform="translate(329.83875 72.748562)scale(0.1 -0.1)">
      <use xlink:href="#DejaVuSans-108"/>
      <use x="27.783203" xlink:href="#DejaVuSans-105"/>
      <use x="55.566406" xlink:href="#DejaVuSans-110"/>
      <use x="118.945312" xlink:href="#DejaVuSans-101"/>
      <use x="180.46875" xlink:href="#DejaVuSans-97"/>
      <use x="241.748047" xlink:href="#DejaVuSans-114"/>
      <use x="282.861328" xlink:href="#DejaVuSans-32"/>
      <use x="314.648438" xlink:href="#DejaVuSans-100"/>
      <use x="378.125" xlink:href="#DejaVuSans-97"/>
      <use x="439.404297" xlink:href="#DejaVuSans-116"/>
      <use x="478.613281" xlink:href="#DejaVuSans-97"/>
     </g>
    </g>
   </g>
  </g>
 </g>
 <defs>
  <clipPath id="p567ad29d06">
   <rect height="266.112" width="357.12" x="57.6" y="41.472"/>
  </clipPath>
 </defs>
</svg>
