<?xml version="1.0" encoding="utf-8" standalone="no"?>
<!DOCTYPE svg PUBLIC "-//W3C//DTD SVG 1.1//EN"
  "http://www.w3.org/Graphics/SVG/1.1/DTD/svg11.dtd">
<!-- Created with matplotlib (https://matplotlib.org/) -->
<svg height="345.6pt" version="1.1" viewBox="0 0 460.8 345.6" width="460.8pt" xmlns="http://www.w3.org/2000/svg" xmlns:xlink="http://www.w3.org/1999/xlink">
 <defs>
  <style type="text/css">
*{stroke-linecap:butt;stroke-linejoin:round;}
  </style>
 </defs>
 <g id="figure_1">
  <g id="patch_1">
   <path d="M 0 345.6 
L 460.8 345.6 
L 460.8 0 
L 0 0 
z
" style="fill:#ffffff;"/>
  </g>
  <g id="axes_1">
   <g id="patch_2">
    <path d="M 57.6 307.584 
L 414.72 307.584 
L 414.72 41.472 
L 57.6 41.472 
z
" style="fill:#ffffff;"/>
   </g>
   <g id="matplotlib.axis_1">
    <g id="xtick_1">
     <g id="line2d_1">
      <defs>
       <path d="M 0 0 
L 0 3.5 
" id="mafad6ddff1" style="stroke:#000000;stroke-width:0.8;"/>
      </defs>
      <g>
       <use style="stroke:#000000;stroke-width:0.8;" x="125.093971" xlink:href="#mafad6ddff1" y="307.584"/>
      </g>
     </g>
     <g id="text_1">
      <!-- 20 -->
      <defs>
       <path d="M 19.1875 8.296875 
L 53.609375 8.296875 
L 53.609375 0 
L 7.328125 0 
L 7.328125 8.296875 
Q 12.9375 14.109375 22.625 23.890625 
Q 32.328125 33.6875 34.8125 36.53125 
Q 39.546875 41.84375 41.421875 45.53125 
Q 43.3125 49.21875 43.3125 52.78125 
Q 43.3125 58.59375 39.234375 62.25 
Q 35.15625 65.921875 28.609375 65.921875 
Q 23.96875 65.921875 18.8125 64.3125 
Q 13.671875 62.703125 7.8125 59.421875 
L 7.8125 69.390625 
Q 13.765625 71.78125 18.9375 73 
Q 24.125 74.21875 28.421875 74.21875 
Q 39.75 74.21875 46.484375 68.546875 
Q 53.21875 62.890625 53.21875 53.421875 
Q 53.21875 48.921875 51.53125 44.890625 
Q 49.859375 40.875 45.40625 35.40625 
Q 44.1875 33.984375 37.640625 27.21875 
Q 31.109375 20.453125 19.1875 8.296875 
z
" id="DejaVuSans-50"/>
       <path d="M 31.78125 66.40625 
Q 24.171875 66.40625 20.328125 58.90625 
Q 16.5 51.421875 16.5 36.375 
Q 16.5 21.390625 20.328125 13.890625 
Q 24.171875 6.390625 31.78125 6.390625 
Q 39.453125 6.390625 43.28125 13.890625 
Q 47.125 21.390625 47.125 36.375 
Q 47.125 51.421875 43.28125 58.90625 
Q 39.453125 66.40625 31.78125 66.40625 
z
M 31.78125 74.21875 
Q 44.046875 74.21875 50.515625 64.515625 
Q 56.984375 54.828125 56.984375 36.375 
Q 56.984375 17.96875 50.515625 8.265625 
Q 44.046875 -1.421875 31.78125 -1.421875 
Q 19.53125 -1.421875 13.0625 8.265625 
Q 6.59375 17.96875 6.59375 36.375 
Q 6.59375 54.828125 13.0625 64.515625 
Q 19.53125 74.21875 31.78125 74.21875 
z
" id="DejaVuSans-48"/>
      </defs>
      <g transform="translate(118.731471 322.182437)scale(0.1 -0.1)">
       <use xlink:href="#DejaVuSans-50"/>
       <use x="63.623047" xlink:href="#DejaVuSans-48"/>
      </g>
     </g>
    </g>
    <g id="xtick_2">
     <g id="line2d_2">
      <g>
       <use style="stroke:#000000;stroke-width:0.8;" x="193.442297" xlink:href="#mafad6ddff1" y="307.584"/>
      </g>
     </g>
     <g id="text_2">
      <!-- 40 -->
      <defs>
       <path d="M 37.796875 64.3125 
L 12.890625 25.390625 
L 37.796875 25.390625 
z
M 35.203125 72.90625 
L 47.609375 72.90625 
L 47.609375 25.390625 
L 58.015625 25.390625 
L 58.015625 17.1875 
L 47.609375 17.1875 
L 47.609375 0 
L 37.796875 0 
L 37.796875 17.1875 
L 4.890625 17.1875 
L 4.890625 26.703125 
z
" id="DejaVuSans-52"/>
      </defs>
      <g transform="translate(187.079797 322.182437)scale(0.1 -0.1)">
       <use xlink:href="#DejaVuSans-52"/>
       <use x="63.623047" xlink:href="#DejaVuSans-48"/>
      </g>
     </g>
    </g>
    <g id="xtick_3">
     <g id="line2d_3">
      <g>
       <use style="stroke:#000000;stroke-width:0.8;" x="261.790622" xlink:href="#mafad6ddff1" y="307.584"/>
      </g>
     </g>
     <g id="text_3">
      <!-- 60 -->
      <defs>
       <path d="M 33.015625 40.375 
Q 26.375 40.375 22.484375 35.828125 
Q 18.609375 31.296875 18.609375 23.390625 
Q 18.609375 15.53125 22.484375 10.953125 
Q 26.375 6.390625 33.015625 6.390625 
Q 39.65625 6.390625 43.53125 10.953125 
Q 47.40625 15.53125 47.40625 23.390625 
Q 47.40625 31.296875 43.53125 35.828125 
Q 39.65625 40.375 33.015625 40.375 
z
M 52.59375 71.296875 
L 52.59375 62.3125 
Q 48.875 64.0625 45.09375 64.984375 
Q 41.3125 65.921875 37.59375 65.921875 
Q 27.828125 65.921875 22.671875 59.328125 
Q 17.53125 52.734375 16.796875 39.40625 
Q 19.671875 43.65625 24.015625 45.921875 
Q 28.375 48.1875 33.59375 48.1875 
Q 44.578125 48.1875 50.953125 41.515625 
Q 57.328125 34.859375 57.328125 23.390625 
Q 57.328125 12.15625 50.6875 5.359375 
Q 44.046875 -1.421875 33.015625 -1.421875 
Q 20.359375 -1.421875 13.671875 8.265625 
Q 6.984375 17.96875 6.984375 36.375 
Q 6.984375 53.65625 15.1875 63.9375 
Q 23.390625 74.21875 37.203125 74.21875 
Q 40.921875 74.21875 44.703125 73.484375 
Q 48.484375 72.75 52.59375 71.296875 
z
" id="DejaVuSans-54"/>
      </defs>
      <g transform="translate(255.428122 322.182437)scale(0.1 -0.1)">
       <use xlink:href="#DejaVuSans-54"/>
       <use x="63.623047" xlink:href="#DejaVuSans-48"/>
      </g>
     </g>
    </g>
    <g id="xtick_4">
     <g id="line2d_4">
      <g>
       <use style="stroke:#000000;stroke-width:0.8;" x="330.138947" xlink:href="#mafad6ddff1" y="307.584"/>
      </g>
     </g>
     <g id="text_4">
      <!-- 80 -->
      <defs>
       <path d="M 31.78125 34.625 
Q 24.75 34.625 20.71875 30.859375 
Q 16.703125 27.09375 16.703125 20.515625 
Q 16.703125 13.921875 20.71875 10.15625 
Q 24.75 6.390625 31.78125 6.390625 
Q 38.8125 6.390625 42.859375 10.171875 
Q 46.921875 13.96875 46.921875 20.515625 
Q 46.921875 27.09375 42.890625 30.859375 
Q 38.875 34.625 31.78125 34.625 
z
M 21.921875 38.8125 
Q 15.578125 40.375 12.03125 44.71875 
Q 8.5 49.078125 8.5 55.328125 
Q 8.5 64.0625 14.71875 69.140625 
Q 20.953125 74.21875 31.78125 74.21875 
Q 42.671875 74.21875 48.875 69.140625 
Q 55.078125 64.0625 55.078125 55.328125 
Q 55.078125 49.078125 51.53125 44.71875 
Q 48 40.375 41.703125 38.8125 
Q 48.828125 37.15625 52.796875 32.3125 
Q 56.78125 27.484375 56.78125 20.515625 
Q 56.78125 9.90625 50.3125 4.234375 
Q 43.84375 -1.421875 31.78125 -1.421875 
Q 19.734375 -1.421875 13.25 4.234375 
Q 6.78125 9.90625 6.78125 20.515625 
Q 6.78125 27.484375 10.78125 32.3125 
Q 14.796875 37.15625 21.921875 38.8125 
z
M 18.3125 54.390625 
Q 18.3125 48.734375 21.84375 45.5625 
Q 25.390625 42.390625 31.78125 42.390625 
Q 38.140625 42.390625 41.71875 45.5625 
Q 45.3125 48.734375 45.3125 54.390625 
Q 45.3125 60.0625 41.71875 63.234375 
Q 38.140625 66.40625 31.78125 66.40625 
Q 25.390625 66.40625 21.84375 63.234375 
Q 18.3125 60.0625 18.3125 54.390625 
z
" id="DejaVuSans-56"/>
      </defs>
      <g transform="translate(323.776447 322.182437)scale(0.1 -0.1)">
       <use xlink:href="#DejaVuSans-56"/>
       <use x="63.623047" xlink:href="#DejaVuSans-48"/>
      </g>
     </g>
    </g>
    <g id="xtick_5">
     <g id="line2d_5">
      <g>
       <use style="stroke:#000000;stroke-width:0.8;" x="398.487273" xlink:href="#mafad6ddff1" y="307.584"/>
      </g>
     </g>
     <g id="text_5">
      <!-- 100 -->
      <defs>
       <path d="M 12.40625 8.296875 
L 28.515625 8.296875 
L 28.515625 63.921875 
L 10.984375 60.40625 
L 10.984375 69.390625 
L 28.421875 72.90625 
L 38.28125 72.90625 
L 38.28125 8.296875 
L 54.390625 8.296875 
L 54.390625 0 
L 12.40625 0 
z
" id="DejaVuSans-49"/>
      </defs>
      <g transform="translate(388.943523 322.182437)scale(0.1 -0.1)">
       <use xlink:href="#DejaVuSans-49"/>
       <use x="63.623047" xlink:href="#DejaVuSans-48"/>
       <use x="127.246094" xlink:href="#DejaVuSans-48"/>
      </g>
     </g>
    </g>
    <g id="text_6">
     <!-- x values -->
     <defs>
      <path d="M 54.890625 54.6875 
L 35.109375 28.078125 
L 55.90625 0 
L 45.3125 0 
L 29.390625 21.484375 
L 13.484375 0 
L 2.875 0 
L 24.125 28.609375 
L 4.6875 54.6875 
L 15.28125 54.6875 
L 29.78125 35.203125 
L 44.28125 54.6875 
z
" id="DejaVuSans-120"/>
      <path id="DejaVuSans-32"/>
      <path d="M 2.984375 54.6875 
L 12.5 54.6875 
L 29.59375 8.796875 
L 46.6875 54.6875 
L 56.203125 54.6875 
L 35.6875 0 
L 23.484375 0 
z
" id="DejaVuSans-118"/>
      <path d="M 34.28125 27.484375 
Q 23.390625 27.484375 19.1875 25 
Q 14.984375 22.515625 14.984375 16.5 
Q 14.984375 11.71875 18.140625 8.90625 
Q 21.296875 6.109375 26.703125 6.109375 
Q 34.1875 6.109375 38.703125 11.40625 
Q 43.21875 16.703125 43.21875 25.484375 
L 43.21875 27.484375 
z
M 52.203125 31.203125 
L 52.203125 0 
L 43.21875 0 
L 43.21875 8.296875 
Q 40.140625 3.328125 35.546875 0.953125 
Q 30.953125 -1.421875 24.3125 -1.421875 
Q 15.921875 -1.421875 10.953125 3.296875 
Q 6 8.015625 6 15.921875 
Q 6 25.140625 12.171875 29.828125 
Q 18.359375 34.515625 30.609375 34.515625 
L 43.21875 34.515625 
L 43.21875 35.40625 
Q 43.21875 41.609375 39.140625 45 
Q 35.0625 48.390625 27.6875 48.390625 
Q 23 48.390625 18.546875 47.265625 
Q 14.109375 46.140625 10.015625 43.890625 
L 10.015625 52.203125 
Q 14.9375 54.109375 19.578125 55.046875 
Q 24.21875 56 28.609375 56 
Q 40.484375 56 46.34375 49.84375 
Q 52.203125 43.703125 52.203125 31.203125 
z
" id="DejaVuSans-97"/>
      <path d="M 9.421875 75.984375 
L 18.40625 75.984375 
L 18.40625 0 
L 9.421875 0 
z
" id="DejaVuSans-108"/>
      <path d="M 8.5 21.578125 
L 8.5 54.6875 
L 17.484375 54.6875 
L 17.484375 21.921875 
Q 17.484375 14.15625 20.5 10.265625 
Q 23.53125 6.390625 29.59375 6.390625 
Q 36.859375 6.390625 41.078125 11.03125 
Q 45.3125 15.671875 45.3125 23.6875 
L 45.3125 54.6875 
L 54.296875 54.6875 
L 54.296875 0 
L 45.3125 0 
L 45.3125 8.40625 
Q 42.046875 3.421875 37.71875 1 
Q 33.40625 -1.421875 27.6875 -1.421875 
Q 18.265625 -1.421875 13.375 4.4375 
Q 8.5 10.296875 8.5 21.578125 
z
M 31.109375 56 
z
" id="DejaVuSans-117"/>
      <path d="M 56.203125 29.59375 
L 56.203125 25.203125 
L 14.890625 25.203125 
Q 15.484375 15.921875 20.484375 11.0625 
Q 25.484375 6.203125 34.421875 6.203125 
Q 39.59375 6.203125 44.453125 7.46875 
Q 49.3125 8.734375 54.109375 11.28125 
L 54.109375 2.78125 
Q 49.265625 0.734375 44.1875 -0.34375 
Q 39.109375 -1.421875 33.890625 -1.421875 
Q 20.796875 -1.421875 13.15625 6.1875 
Q 5.515625 13.8125 5.515625 26.8125 
Q 5.515625 40.234375 12.765625 48.109375 
Q 20.015625 56 32.328125 56 
Q 43.359375 56 49.78125 48.890625 
Q 56.203125 41.796875 56.203125 29.59375 
z
M 47.21875 32.234375 
Q 47.125 39.59375 43.09375 43.984375 
Q 39.0625 48.390625 32.421875 48.390625 
Q 24.90625 48.390625 20.390625 44.140625 
Q 15.875 39.890625 15.1875 32.171875 
z
" id="DejaVuSans-101"/>
      <path d="M 44.28125 53.078125 
L 44.28125 44.578125 
Q 40.484375 46.53125 36.375 47.5 
Q 32.28125 48.484375 27.875 48.484375 
Q 21.1875 48.484375 17.84375 46.4375 
Q 14.5 44.390625 14.5 40.28125 
Q 14.5 37.15625 16.890625 35.375 
Q 19.28125 33.59375 26.515625 31.984375 
L 29.59375 31.296875 
Q 39.15625 29.25 43.1875 25.515625 
Q 47.21875 21.78125 47.21875 15.09375 
Q 47.21875 7.46875 41.1875 3.015625 
Q 35.15625 -1.421875 24.609375 -1.421875 
Q 20.21875 -1.421875 15.453125 -0.5625 
Q 10.6875 0.296875 5.421875 2 
L 5.421875 11.28125 
Q 10.40625 8.6875 15.234375 7.390625 
Q 20.0625 6.109375 24.8125 6.109375 
Q 31.15625 6.109375 34.5625 8.28125 
Q 37.984375 10.453125 37.984375 14.40625 
Q 37.984375 18.0625 35.515625 20.015625 
Q 33.0625 21.96875 24.703125 23.78125 
L 21.578125 24.515625 
Q 13.234375 26.265625 9.515625 29.90625 
Q 5.8125 33.546875 5.8125 39.890625 
Q 5.8125 47.609375 11.28125 51.796875 
Q 16.75 56 26.8125 56 
Q 31.78125 56 36.171875 55.265625 
Q 40.578125 54.546875 44.28125 53.078125 
z
" id="DejaVuSans-115"/>
     </defs>
     <g transform="translate(215.349063 335.860562)scale(0.1 -0.1)">
      <use xlink:href="#DejaVuSans-120"/>
      <use x="59.179688" xlink:href="#DejaVuSans-32"/>
      <use x="90.966797" xlink:href="#DejaVuSans-118"/>
      <use x="150.146484" xlink:href="#DejaVuSans-97"/>
      <use x="211.425781" xlink:href="#DejaVuSans-108"/>
      <use x="239.208984" xlink:href="#DejaVuSans-117"/>
      <use x="302.587891" xlink:href="#DejaVuSans-101"/>
      <use x="364.111328" xlink:href="#DejaVuSans-115"/>
     </g>
    </g>
   </g>
   <g id="matplotlib.axis_2">
    <g id="ytick_1">
     <g id="line2d_6">
      <defs>
       <path d="M 0 0 
L -3.5 0 
" id="m8c9801b1c9" style="stroke:#000000;stroke-width:0.8;"/>
      </defs>
      <g>
       <use style="stroke:#000000;stroke-width:0.8;" x="57.6" xlink:href="#m8c9801b1c9" y="305.384473"/>
      </g>
     </g>
     <g id="text_7">
      <!-- 0 -->
      <g transform="translate(44.2375 309.183692)scale(0.1 -0.1)">
       <use xlink:href="#DejaVuSans-48"/>
      </g>
     </g>
    </g>
    <g id="ytick_2">
     <g id="line2d_7">
      <g>
       <use style="stroke:#000000;stroke-width:0.8;" x="57.6" xlink:href="#m8c9801b1c9" y="270.274505"/>
      </g>
     </g>
     <g id="text_8">
      <!-- 50 -->
      <defs>
       <path d="M 10.796875 72.90625 
L 49.515625 72.90625 
L 49.515625 64.59375 
L 19.828125 64.59375 
L 19.828125 46.734375 
Q 21.96875 47.46875 24.109375 47.828125 
Q 26.265625 48.1875 28.421875 48.1875 
Q 40.625 48.1875 47.75 41.5 
Q 54.890625 34.8125 54.890625 23.390625 
Q 54.890625 11.625 47.5625 5.09375 
Q 40.234375 -1.421875 26.90625 -1.421875 
Q 22.3125 -1.421875 17.546875 -0.640625 
Q 12.796875 0.140625 7.71875 1.703125 
L 7.71875 11.625 
Q 12.109375 9.234375 16.796875 8.0625 
Q 21.484375 6.890625 26.703125 6.890625 
Q 35.15625 6.890625 40.078125 11.328125 
Q 45.015625 15.765625 45.015625 23.390625 
Q 45.015625 31 40.078125 35.4375 
Q 35.15625 39.890625 26.703125 39.890625 
Q 22.75 39.890625 18.8125 39.015625 
Q 14.890625 38.140625 10.796875 36.28125 
z
" id="DejaVuSans-53"/>
      </defs>
      <g transform="translate(37.875 274.073724)scale(0.1 -0.1)">
       <use xlink:href="#DejaVuSans-53"/>
       <use x="63.623047" xlink:href="#DejaVuSans-48"/>
      </g>
     </g>
    </g>
    <g id="ytick_3">
     <g id="line2d_8">
      <g>
       <use style="stroke:#000000;stroke-width:0.8;" x="57.6" xlink:href="#m8c9801b1c9" y="235.164537"/>
      </g>
     </g>
     <g id="text_9">
      <!-- 100 -->
      <g transform="translate(31.5125 238.963756)scale(0.1 -0.1)">
       <use xlink:href="#DejaVuSans-49"/>
       <use x="63.623047" xlink:href="#DejaVuSans-48"/>
       <use x="127.246094" xlink:href="#DejaVuSans-48"/>
      </g>
     </g>
    </g>
    <g id="ytick_4">
     <g id="line2d_9">
      <g>
       <use style="stroke:#000000;stroke-width:0.8;" x="57.6" xlink:href="#m8c9801b1c9" y="200.054569"/>
      </g>
     </g>
     <g id="text_10">
      <!-- 150 -->
      <g transform="translate(31.5125 203.853788)scale(0.1 -0.1)">
       <use xlink:href="#DejaVuSans-49"/>
       <use x="63.623047" xlink:href="#DejaVuSans-53"/>
       <use x="127.246094" xlink:href="#DejaVuSans-48"/>
      </g>
     </g>
    </g>
    <g id="ytick_5">
     <g id="line2d_10">
      <g>
       <use style="stroke:#000000;stroke-width:0.8;" x="57.6" xlink:href="#m8c9801b1c9" y="164.944601"/>
      </g>
     </g>
     <g id="text_11">
      <!-- 200 -->
      <g transform="translate(31.5125 168.74382)scale(0.1 -0.1)">
       <use xlink:href="#DejaVuSans-50"/>
       <use x="63.623047" xlink:href="#DejaVuSans-48"/>
       <use x="127.246094" xlink:href="#DejaVuSans-48"/>
      </g>
     </g>
    </g>
    <g id="ytick_6">
     <g id="line2d_11">
      <g>
       <use style="stroke:#000000;stroke-width:0.8;" x="57.6" xlink:href="#m8c9801b1c9" y="129.834633"/>
      </g>
     </g>
     <g id="text_12">
      <!-- 250 -->
      <g transform="translate(31.5125 133.633852)scale(0.1 -0.1)">
       <use xlink:href="#DejaVuSans-50"/>
       <use x="63.623047" xlink:href="#DejaVuSans-53"/>
       <use x="127.246094" xlink:href="#DejaVuSans-48"/>
      </g>
     </g>
    </g>
    <g id="ytick_7">
     <g id="line2d_12">
      <g>
       <use style="stroke:#000000;stroke-width:0.8;" x="57.6" xlink:href="#m8c9801b1c9" y="94.724665"/>
      </g>
     </g>
     <g id="text_13">
      <!-- 300 -->
      <defs>
       <path d="M 40.578125 39.3125 
Q 47.65625 37.796875 51.625 33 
Q 55.609375 28.21875 55.609375 21.1875 
Q 55.609375 10.40625 48.1875 4.484375 
Q 40.765625 -1.421875 27.09375 -1.421875 
Q 22.515625 -1.421875 17.65625 -0.515625 
Q 12.796875 0.390625 7.625 2.203125 
L 7.625 11.71875 
Q 11.71875 9.328125 16.59375 8.109375 
Q 21.484375 6.890625 26.8125 6.890625 
Q 36.078125 6.890625 40.9375 10.546875 
Q 45.796875 14.203125 45.796875 21.1875 
Q 45.796875 27.640625 41.28125 31.265625 
Q 36.765625 34.90625 28.71875 34.90625 
L 20.21875 34.90625 
L 20.21875 43.015625 
L 29.109375 43.015625 
Q 36.375 43.015625 40.234375 45.921875 
Q 44.09375 48.828125 44.09375 54.296875 
Q 44.09375 59.90625 40.109375 62.90625 
Q 36.140625 65.921875 28.71875 65.921875 
Q 24.65625 65.921875 20.015625 65.03125 
Q 15.375 64.15625 9.8125 62.3125 
L 9.8125 71.09375 
Q 15.4375 72.65625 20.34375 73.4375 
Q 25.25 74.21875 29.59375 74.21875 
Q 40.828125 74.21875 47.359375 69.109375 
Q 53.90625 64.015625 53.90625 55.328125 
Q 53.90625 49.265625 50.4375 45.09375 
Q 46.96875 40.921875 40.578125 39.3125 
z
" id="DejaVuSans-51"/>
      </defs>
      <g transform="translate(31.5125 98.523884)scale(0.1 -0.1)">
       <use xlink:href="#DejaVuSans-51"/>
       <use x="63.623047" xlink:href="#DejaVuSans-48"/>
       <use x="127.246094" xlink:href="#DejaVuSans-48"/>
      </g>
     </g>
    </g>
    <g id="ytick_8">
     <g id="line2d_13">
      <g>
       <use style="stroke:#000000;stroke-width:0.8;" x="57.6" xlink:href="#m8c9801b1c9" y="59.614697"/>
      </g>
     </g>
     <g id="text_14">
      <!-- 350 -->
      <g transform="translate(31.5125 63.413916)scale(0.1 -0.1)">
       <use xlink:href="#DejaVuSans-51"/>
       <use x="63.623047" xlink:href="#DejaVuSans-53"/>
       <use x="127.246094" xlink:href="#DejaVuSans-48"/>
      </g>
     </g>
    </g>
    <g id="text_15">
     <!-- y values -->
     <defs>
      <path d="M 32.171875 -5.078125 
Q 28.375 -14.84375 24.75 -17.8125 
Q 21.140625 -20.796875 15.09375 -20.796875 
L 7.90625 -20.796875 
L 7.90625 -13.28125 
L 13.1875 -13.28125 
Q 16.890625 -13.28125 18.9375 -11.515625 
Q 21 -9.765625 23.484375 -3.21875 
L 25.09375 0.875 
L 2.984375 54.6875 
L 12.5 54.6875 
L 29.59375 11.921875 
L 46.6875 54.6875 
L 56.203125 54.6875 
z
" id="DejaVuSans-121"/>
     </defs>
     <g transform="translate(25.432812 195.338937)rotate(-90)scale(0.1 -0.1)">
      <use xlink:href="#DejaVuSans-121"/>
      <use x="59.179688" xlink:href="#DejaVuSans-32"/>
      <use x="90.966797" xlink:href="#DejaVuSans-118"/>
      <use x="150.146484" xlink:href="#DejaVuSans-97"/>
      <use x="211.425781" xlink:href="#DejaVuSans-108"/>
      <use x="239.208984" xlink:href="#DejaVuSans-117"/>
      <use x="302.587891" xlink:href="#DejaVuSans-101"/>
      <use x="364.111328" xlink:href="#DejaVuSans-115"/>
     </g>
    </g>
   </g>
   <g id="line2d_14">
    <defs>
     <path d="M 0 1 
C 0.265203 1 0.51958 0.894634 0.707107 0.707107 
C 0.894634 0.51958 1 0.265203 1 0 
C 1 -0.265203 0.894634 -0.51958 0.707107 -0.707107 
C 0.51958 -0.894634 0.265203 -1 0 -1 
C -0.265203 -1 -0.51958 -0.894634 -0.707107 -0.707107 
C -0.894634 -0.51958 -1 -0.265203 -1 0 
C -1 0.265203 -0.894634 0.51958 -0.707107 0.707107 
C -0.51958 0.894634 -0.265203 1 0 1 
z
" id="m4b1cae5f40" style="stroke:#ff0000;"/>
    </defs>
    <g clip-path="url(#p3636d9c95a)">
     <use style="fill:#ff0000;stroke:#ff0000;" x="73.832727" xlink:href="#m4b1cae5f40" y="282.823295"/>
     <use style="fill:#ff0000;stroke:#ff0000;" x="75.136561" xlink:href="#m4b1cae5f40" y="288.582233"/>
     <use style="fill:#ff0000;stroke:#ff0000;" x="76.440394" xlink:href="#m4b1cae5f40" y="290.639387"/>
     <use style="fill:#ff0000;stroke:#ff0000;" x="77.744228" xlink:href="#m4b1cae5f40" y="274.156809"/>
     <use style="fill:#ff0000;stroke:#ff0000;" x="79.048061" xlink:href="#m4b1cae5f40" y="295.488"/>
     <use style="fill:#ff0000;stroke:#ff0000;" x="80.351895" xlink:href="#m4b1cae5f40" y="277.429428"/>
     <use style="fill:#ff0000;stroke:#ff0000;" x="81.655728" xlink:href="#m4b1cae5f40" y="291.139431"/>
     <use style="fill:#ff0000;stroke:#ff0000;" x="82.959562" xlink:href="#m4b1cae5f40" y="293.042144"/>
     <use style="fill:#ff0000;stroke:#ff0000;" x="84.263395" xlink:href="#m4b1cae5f40" y="277.945972"/>
     <use style="fill:#ff0000;stroke:#ff0000;" x="85.567229" xlink:href="#m4b1cae5f40" y="295.269244"/>
     <use style="fill:#ff0000;stroke:#ff0000;" x="86.871062" xlink:href="#m4b1cae5f40" y="293.949261"/>
     <use style="fill:#ff0000;stroke:#ff0000;" x="88.174896" xlink:href="#m4b1cae5f40" y="280.582858"/>
     <use style="fill:#ff0000;stroke:#ff0000;" x="89.478729" xlink:href="#m4b1cae5f40" y="283.856976"/>
     <use style="fill:#ff0000;stroke:#ff0000;" x="90.782563" xlink:href="#m4b1cae5f40" y="286.362108"/>
     <use style="fill:#ff0000;stroke:#ff0000;" x="92.086396" xlink:href="#m4b1cae5f40" y="292.930247"/>
     <use style="fill:#ff0000;stroke:#ff0000;" x="93.39023" xlink:href="#m4b1cae5f40" y="267.382147"/>
     <use style="fill:#ff0000;stroke:#ff0000;" x="94.694064" xlink:href="#m4b1cae5f40" y="281.278143"/>
     <use style="fill:#ff0000;stroke:#ff0000;" x="95.997897" xlink:href="#m4b1cae5f40" y="268.576304"/>
     <use style="fill:#ff0000;stroke:#ff0000;" x="97.301731" xlink:href="#m4b1cae5f40" y="266.076163"/>
     <use style="fill:#ff0000;stroke:#ff0000;" x="98.605564" xlink:href="#m4b1cae5f40" y="264.144016"/>
     <use style="fill:#ff0000;stroke:#ff0000;" x="99.909398" xlink:href="#m4b1cae5f40" y="270.646435"/>
     <use style="fill:#ff0000;stroke:#ff0000;" x="101.213231" xlink:href="#m4b1cae5f40" y="282.319708"/>
     <use style="fill:#ff0000;stroke:#ff0000;" x="102.517065" xlink:href="#m4b1cae5f40" y="279.68797"/>
     <use style="fill:#ff0000;stroke:#ff0000;" x="103.820898" xlink:href="#m4b1cae5f40" y="285.873217"/>
     <use style="fill:#ff0000;stroke:#ff0000;" x="105.124732" xlink:href="#m4b1cae5f40" y="280.886241"/>
     <use style="fill:#ff0000;stroke:#ff0000;" x="106.428565" xlink:href="#m4b1cae5f40" y="253.180499"/>
     <use style="fill:#ff0000;stroke:#ff0000;" x="107.732399" xlink:href="#m4b1cae5f40" y="271.077402"/>
     <use style="fill:#ff0000;stroke:#ff0000;" x="109.036232" xlink:href="#m4b1cae5f40" y="278.250771"/>
     <use style="fill:#ff0000;stroke:#ff0000;" x="110.340066" xlink:href="#m4b1cae5f40" y="280.603141"/>
     <use style="fill:#ff0000;stroke:#ff0000;" x="111.643899" xlink:href="#m4b1cae5f40" y="277.834726"/>
     <use style="fill:#ff0000;stroke:#ff0000;" x="112.947733" xlink:href="#m4b1cae5f40" y="250.877444"/>
     <use style="fill:#ff0000;stroke:#ff0000;" x="114.251566" xlink:href="#m4b1cae5f40" y="249.413603"/>
     <use style="fill:#ff0000;stroke:#ff0000;" x="115.5554" xlink:href="#m4b1cae5f40" y="252.196634"/>
     <use style="fill:#ff0000;stroke:#ff0000;" x="116.859233" xlink:href="#m4b1cae5f40" y="264.81878"/>
     <use style="fill:#ff0000;stroke:#ff0000;" x="118.163067" xlink:href="#m4b1cae5f40" y="253.174308"/>
     <use style="fill:#ff0000;stroke:#ff0000;" x="119.4669" xlink:href="#m4b1cae5f40" y="268.282323"/>
     <use style="fill:#ff0000;stroke:#ff0000;" x="120.770734" xlink:href="#m4b1cae5f40" y="259.820196"/>
     <use style="fill:#ff0000;stroke:#ff0000;" x="122.074567" xlink:href="#m4b1cae5f40" y="260.271069"/>
     <use style="fill:#ff0000;stroke:#ff0000;" x="123.378401" xlink:href="#m4b1cae5f40" y="267.835355"/>
     <use style="fill:#ff0000;stroke:#ff0000;" x="124.682234" xlink:href="#m4b1cae5f40" y="255.662585"/>
     <use style="fill:#ff0000;stroke:#ff0000;" x="125.986068" xlink:href="#m4b1cae5f40" y="258.125593"/>
     <use style="fill:#ff0000;stroke:#ff0000;" x="127.289901" xlink:href="#m4b1cae5f40" y="255.63885"/>
     <use style="fill:#ff0000;stroke:#ff0000;" x="128.593735" xlink:href="#m4b1cae5f40" y="272.889542"/>
     <use style="fill:#ff0000;stroke:#ff0000;" x="129.897568" xlink:href="#m4b1cae5f40" y="262.550964"/>
     <use style="fill:#ff0000;stroke:#ff0000;" x="131.201402" xlink:href="#m4b1cae5f40" y="267.339968"/>
     <use style="fill:#ff0000;stroke:#ff0000;" x="132.505235" xlink:href="#m4b1cae5f40" y="265.64509"/>
     <use style="fill:#ff0000;stroke:#ff0000;" x="133.809069" xlink:href="#m4b1cae5f40" y="257.618284"/>
     <use style="fill:#ff0000;stroke:#ff0000;" x="135.112903" xlink:href="#m4b1cae5f40" y="258.708448"/>
     <use style="fill:#ff0000;stroke:#ff0000;" x="136.416736" xlink:href="#m4b1cae5f40" y="279.854892"/>
     <use style="fill:#ff0000;stroke:#ff0000;" x="137.72057" xlink:href="#m4b1cae5f40" y="258.829203"/>
     <use style="fill:#ff0000;stroke:#ff0000;" x="139.024403" xlink:href="#m4b1cae5f40" y="267.980842"/>
     <use style="fill:#ff0000;stroke:#ff0000;" x="140.328237" xlink:href="#m4b1cae5f40" y="228.302381"/>
     <use style="fill:#ff0000;stroke:#ff0000;" x="141.63207" xlink:href="#m4b1cae5f40" y="268.870095"/>
     <use style="fill:#ff0000;stroke:#ff0000;" x="142.935904" xlink:href="#m4b1cae5f40" y="248.003162"/>
     <use style="fill:#ff0000;stroke:#ff0000;" x="144.239737" xlink:href="#m4b1cae5f40" y="274.534781"/>
     <use style="fill:#ff0000;stroke:#ff0000;" x="145.543571" xlink:href="#m4b1cae5f40" y="240.113046"/>
     <use style="fill:#ff0000;stroke:#ff0000;" x="146.847404" xlink:href="#m4b1cae5f40" y="249.566446"/>
     <use style="fill:#ff0000;stroke:#ff0000;" x="148.151238" xlink:href="#m4b1cae5f40" y="238.348622"/>
     <use style="fill:#ff0000;stroke:#ff0000;" x="149.455071" xlink:href="#m4b1cae5f40" y="231.045814"/>
     <use style="fill:#ff0000;stroke:#ff0000;" x="150.758905" xlink:href="#m4b1cae5f40" y="255.511381"/>
     <use style="fill:#ff0000;stroke:#ff0000;" x="152.062738" xlink:href="#m4b1cae5f40" y="239.358215"/>
     <use style="fill:#ff0000;stroke:#ff0000;" x="153.366572" xlink:href="#m4b1cae5f40" y="225.026013"/>
     <use style="fill:#ff0000;stroke:#ff0000;" x="154.670405" xlink:href="#m4b1cae5f40" y="266.366885"/>
     <use style="fill:#ff0000;stroke:#ff0000;" x="155.974239" xlink:href="#m4b1cae5f40" y="234.662514"/>
     <use style="fill:#ff0000;stroke:#ff0000;" x="157.278072" xlink:href="#m4b1cae5f40" y="234.529467"/>
     <use style="fill:#ff0000;stroke:#ff0000;" x="158.581906" xlink:href="#m4b1cae5f40" y="243.984676"/>
     <use style="fill:#ff0000;stroke:#ff0000;" x="159.885739" xlink:href="#m4b1cae5f40" y="238.115267"/>
     <use style="fill:#ff0000;stroke:#ff0000;" x="161.189573" xlink:href="#m4b1cae5f40" y="225.612567"/>
     <use style="fill:#ff0000;stroke:#ff0000;" x="162.493406" xlink:href="#m4b1cae5f40" y="244.720509"/>
     <use style="fill:#ff0000;stroke:#ff0000;" x="163.79724" xlink:href="#m4b1cae5f40" y="263.770421"/>
     <use style="fill:#ff0000;stroke:#ff0000;" x="165.101073" xlink:href="#m4b1cae5f40" y="238.820223"/>
     <use style="fill:#ff0000;stroke:#ff0000;" x="166.404907" xlink:href="#m4b1cae5f40" y="231.235034"/>
     <use style="fill:#ff0000;stroke:#ff0000;" x="167.70874" xlink:href="#m4b1cae5f40" y="232.054896"/>
     <use style="fill:#ff0000;stroke:#ff0000;" x="169.012574" xlink:href="#m4b1cae5f40" y="225.115548"/>
     <use style="fill:#ff0000;stroke:#ff0000;" x="170.316407" xlink:href="#m4b1cae5f40" y="259.839868"/>
     <use style="fill:#ff0000;stroke:#ff0000;" x="171.620241" xlink:href="#m4b1cae5f40" y="219.477152"/>
     <use style="fill:#ff0000;stroke:#ff0000;" x="172.924074" xlink:href="#m4b1cae5f40" y="257.781698"/>
     <use style="fill:#ff0000;stroke:#ff0000;" x="174.227908" xlink:href="#m4b1cae5f40" y="226.950153"/>
     <use style="fill:#ff0000;stroke:#ff0000;" x="175.531742" xlink:href="#m4b1cae5f40" y="251.947069"/>
     <use style="fill:#ff0000;stroke:#ff0000;" x="176.835575" xlink:href="#m4b1cae5f40" y="223.783075"/>
     <use style="fill:#ff0000;stroke:#ff0000;" x="178.139409" xlink:href="#m4b1cae5f40" y="195.75289"/>
     <use style="fill:#ff0000;stroke:#ff0000;" x="179.443242" xlink:href="#m4b1cae5f40" y="219.559691"/>
     <use style="fill:#ff0000;stroke:#ff0000;" x="180.747076" xlink:href="#m4b1cae5f40" y="217.341995"/>
     <use style="fill:#ff0000;stroke:#ff0000;" x="182.050909" xlink:href="#m4b1cae5f40" y="226.648175"/>
     <use style="fill:#ff0000;stroke:#ff0000;" x="183.354743" xlink:href="#m4b1cae5f40" y="204.864003"/>
     <use style="fill:#ff0000;stroke:#ff0000;" x="184.658576" xlink:href="#m4b1cae5f40" y="234.312995"/>
     <use style="fill:#ff0000;stroke:#ff0000;" x="185.96241" xlink:href="#m4b1cae5f40" y="196.159866"/>
     <use style="fill:#ff0000;stroke:#ff0000;" x="187.266243" xlink:href="#m4b1cae5f40" y="228.706177"/>
     <use style="fill:#ff0000;stroke:#ff0000;" x="188.570077" xlink:href="#m4b1cae5f40" y="220.131095"/>
     <use style="fill:#ff0000;stroke:#ff0000;" x="189.87391" xlink:href="#m4b1cae5f40" y="216.369415"/>
     <use style="fill:#ff0000;stroke:#ff0000;" x="191.177744" xlink:href="#m4b1cae5f40" y="207.74714"/>
     <use style="fill:#ff0000;stroke:#ff0000;" x="192.481577" xlink:href="#m4b1cae5f40" y="224.859635"/>
     <use style="fill:#ff0000;stroke:#ff0000;" x="193.785411" xlink:href="#m4b1cae5f40" y="187.974977"/>
     <use style="fill:#ff0000;stroke:#ff0000;" x="195.089244" xlink:href="#m4b1cae5f40" y="230.626992"/>
     <use style="fill:#ff0000;stroke:#ff0000;" x="196.393078" xlink:href="#m4b1cae5f40" y="223.730844"/>
     <use style="fill:#ff0000;stroke:#ff0000;" x="197.696911" xlink:href="#m4b1cae5f40" y="229.029157"/>
     <use style="fill:#ff0000;stroke:#ff0000;" x="199.000745" xlink:href="#m4b1cae5f40" y="213.949136"/>
     <use style="fill:#ff0000;stroke:#ff0000;" x="200.304578" xlink:href="#m4b1cae5f40" y="186.837487"/>
     <use style="fill:#ff0000;stroke:#ff0000;" x="201.608412" xlink:href="#m4b1cae5f40" y="212.329476"/>
     <use style="fill:#ff0000;stroke:#ff0000;" x="202.912245" xlink:href="#m4b1cae5f40" y="197.379082"/>
     <use style="fill:#ff0000;stroke:#ff0000;" x="204.216079" xlink:href="#m4b1cae5f40" y="210.79266"/>
     <use style="fill:#ff0000;stroke:#ff0000;" x="205.519912" xlink:href="#m4b1cae5f40" y="206.387212"/>
     <use style="fill:#ff0000;stroke:#ff0000;" x="206.823746" xlink:href="#m4b1cae5f40" y="185.902358"/>
     <use style="fill:#ff0000;stroke:#ff0000;" x="208.127579" xlink:href="#m4b1cae5f40" y="210.882978"/>
     <use style="fill:#ff0000;stroke:#ff0000;" x="209.431413" xlink:href="#m4b1cae5f40" y="183.420606"/>
     <use style="fill:#ff0000;stroke:#ff0000;" x="210.735246" xlink:href="#m4b1cae5f40" y="187.09311"/>
     <use style="fill:#ff0000;stroke:#ff0000;" x="212.03908" xlink:href="#m4b1cae5f40" y="181.834778"/>
     <use style="fill:#ff0000;stroke:#ff0000;" x="213.342913" xlink:href="#m4b1cae5f40" y="228.008043"/>
     <use style="fill:#ff0000;stroke:#ff0000;" x="214.646747" xlink:href="#m4b1cae5f40" y="210.749435"/>
     <use style="fill:#ff0000;stroke:#ff0000;" x="215.950581" xlink:href="#m4b1cae5f40" y="201.650939"/>
     <use style="fill:#ff0000;stroke:#ff0000;" x="217.254414" xlink:href="#m4b1cae5f40" y="191.63792"/>
     <use style="fill:#ff0000;stroke:#ff0000;" x="218.558248" xlink:href="#m4b1cae5f40" y="182.663624"/>
     <use style="fill:#ff0000;stroke:#ff0000;" x="219.862081" xlink:href="#m4b1cae5f40" y="189.183651"/>
     <use style="fill:#ff0000;stroke:#ff0000;" x="221.165915" xlink:href="#m4b1cae5f40" y="200.154822"/>
     <use style="fill:#ff0000;stroke:#ff0000;" x="222.469748" xlink:href="#m4b1cae5f40" y="209.937243"/>
     <use style="fill:#ff0000;stroke:#ff0000;" x="223.773582" xlink:href="#m4b1cae5f40" y="199.523535"/>
     <use style="fill:#ff0000;stroke:#ff0000;" x="225.077415" xlink:href="#m4b1cae5f40" y="217.828595"/>
     <use style="fill:#ff0000;stroke:#ff0000;" x="226.381249" xlink:href="#m4b1cae5f40" y="221.726398"/>
     <use style="fill:#ff0000;stroke:#ff0000;" x="227.685082" xlink:href="#m4b1cae5f40" y="193.238404"/>
     <use style="fill:#ff0000;stroke:#ff0000;" x="228.988916" xlink:href="#m4b1cae5f40" y="162.326787"/>
     <use style="fill:#ff0000;stroke:#ff0000;" x="230.292749" xlink:href="#m4b1cae5f40" y="189.041419"/>
     <use style="fill:#ff0000;stroke:#ff0000;" x="231.596583" xlink:href="#m4b1cae5f40" y="206.486714"/>
     <use style="fill:#ff0000;stroke:#ff0000;" x="232.900416" xlink:href="#m4b1cae5f40" y="203.148088"/>
     <use style="fill:#ff0000;stroke:#ff0000;" x="234.20425" xlink:href="#m4b1cae5f40" y="218.072278"/>
     <use style="fill:#ff0000;stroke:#ff0000;" x="235.508083" xlink:href="#m4b1cae5f40" y="204.21434"/>
     <use style="fill:#ff0000;stroke:#ff0000;" x="236.811917" xlink:href="#m4b1cae5f40" y="175.763953"/>
     <use style="fill:#ff0000;stroke:#ff0000;" x="238.11575" xlink:href="#m4b1cae5f40" y="186.799326"/>
     <use style="fill:#ff0000;stroke:#ff0000;" x="239.419584" xlink:href="#m4b1cae5f40" y="211.998503"/>
     <use style="fill:#ff0000;stroke:#ff0000;" x="240.723417" xlink:href="#m4b1cae5f40" y="194.311723"/>
     <use style="fill:#ff0000;stroke:#ff0000;" x="242.027251" xlink:href="#m4b1cae5f40" y="208.675382"/>
     <use style="fill:#ff0000;stroke:#ff0000;" x="243.331084" xlink:href="#m4b1cae5f40" y="186.969251"/>
     <use style="fill:#ff0000;stroke:#ff0000;" x="244.634918" xlink:href="#m4b1cae5f40" y="199.626023"/>
     <use style="fill:#ff0000;stroke:#ff0000;" x="245.938751" xlink:href="#m4b1cae5f40" y="153.777854"/>
     <use style="fill:#ff0000;stroke:#ff0000;" x="247.242585" xlink:href="#m4b1cae5f40" y="194.245256"/>
     <use style="fill:#ff0000;stroke:#ff0000;" x="248.546418" xlink:href="#m4b1cae5f40" y="205.461685"/>
     <use style="fill:#ff0000;stroke:#ff0000;" x="249.850252" xlink:href="#m4b1cae5f40" y="169.238005"/>
     <use style="fill:#ff0000;stroke:#ff0000;" x="251.154085" xlink:href="#m4b1cae5f40" y="216.443622"/>
     <use style="fill:#ff0000;stroke:#ff0000;" x="252.457919" xlink:href="#m4b1cae5f40" y="168.449061"/>
     <use style="fill:#ff0000;stroke:#ff0000;" x="253.761752" xlink:href="#m4b1cae5f40" y="155.071573"/>
     <use style="fill:#ff0000;stroke:#ff0000;" x="255.065586" xlink:href="#m4b1cae5f40" y="166.445081"/>
     <use style="fill:#ff0000;stroke:#ff0000;" x="256.369419" xlink:href="#m4b1cae5f40" y="178.878747"/>
     <use style="fill:#ff0000;stroke:#ff0000;" x="257.673253" xlink:href="#m4b1cae5f40" y="177.726553"/>
     <use style="fill:#ff0000;stroke:#ff0000;" x="258.977087" xlink:href="#m4b1cae5f40" y="172.180079"/>
     <use style="fill:#ff0000;stroke:#ff0000;" x="260.28092" xlink:href="#m4b1cae5f40" y="185.470268"/>
     <use style="fill:#ff0000;stroke:#ff0000;" x="261.584754" xlink:href="#m4b1cae5f40" y="179.585081"/>
     <use style="fill:#ff0000;stroke:#ff0000;" x="262.888587" xlink:href="#m4b1cae5f40" y="178.478576"/>
     <use style="fill:#ff0000;stroke:#ff0000;" x="264.192421" xlink:href="#m4b1cae5f40" y="189.123439"/>
     <use style="fill:#ff0000;stroke:#ff0000;" x="265.496254" xlink:href="#m4b1cae5f40" y="157.749508"/>
     <use style="fill:#ff0000;stroke:#ff0000;" x="266.800088" xlink:href="#m4b1cae5f40" y="158.958461"/>
     <use style="fill:#ff0000;stroke:#ff0000;" x="268.103921" xlink:href="#m4b1cae5f40" y="181.701338"/>
     <use style="fill:#ff0000;stroke:#ff0000;" x="269.407755" xlink:href="#m4b1cae5f40" y="178.241661"/>
     <use style="fill:#ff0000;stroke:#ff0000;" x="270.711588" xlink:href="#m4b1cae5f40" y="177.431895"/>
     <use style="fill:#ff0000;stroke:#ff0000;" x="272.015422" xlink:href="#m4b1cae5f40" y="138.070039"/>
     <use style="fill:#ff0000;stroke:#ff0000;" x="273.319255" xlink:href="#m4b1cae5f40" y="165.680677"/>
     <use style="fill:#ff0000;stroke:#ff0000;" x="274.623089" xlink:href="#m4b1cae5f40" y="131.803909"/>
     <use style="fill:#ff0000;stroke:#ff0000;" x="275.926922" xlink:href="#m4b1cae5f40" y="163.258271"/>
     <use style="fill:#ff0000;stroke:#ff0000;" x="277.230756" xlink:href="#m4b1cae5f40" y="192.115902"/>
     <use style="fill:#ff0000;stroke:#ff0000;" x="278.534589" xlink:href="#m4b1cae5f40" y="182.782482"/>
     <use style="fill:#ff0000;stroke:#ff0000;" x="279.838423" xlink:href="#m4b1cae5f40" y="194.600662"/>
     <use style="fill:#ff0000;stroke:#ff0000;" x="281.142256" xlink:href="#m4b1cae5f40" y="144.010397"/>
     <use style="fill:#ff0000;stroke:#ff0000;" x="282.44609" xlink:href="#m4b1cae5f40" y="135.149211"/>
     <use style="fill:#ff0000;stroke:#ff0000;" x="283.749923" xlink:href="#m4b1cae5f40" y="151.15569"/>
     <use style="fill:#ff0000;stroke:#ff0000;" x="285.053757" xlink:href="#m4b1cae5f40" y="184.776097"/>
     <use style="fill:#ff0000;stroke:#ff0000;" x="286.35759" xlink:href="#m4b1cae5f40" y="161.664027"/>
     <use style="fill:#ff0000;stroke:#ff0000;" x="287.661424" xlink:href="#m4b1cae5f40" y="169.285545"/>
     <use style="fill:#ff0000;stroke:#ff0000;" x="288.965257" xlink:href="#m4b1cae5f40" y="144.803751"/>
     <use style="fill:#ff0000;stroke:#ff0000;" x="290.269091" xlink:href="#m4b1cae5f40" y="153.176888"/>
     <use style="fill:#ff0000;stroke:#ff0000;" x="291.572924" xlink:href="#m4b1cae5f40" y="191.084756"/>
     <use style="fill:#ff0000;stroke:#ff0000;" x="292.876758" xlink:href="#m4b1cae5f40" y="137.014501"/>
     <use style="fill:#ff0000;stroke:#ff0000;" x="294.180591" xlink:href="#m4b1cae5f40" y="164.189558"/>
     <use style="fill:#ff0000;stroke:#ff0000;" x="295.484425" xlink:href="#m4b1cae5f40" y="177.129502"/>
     <use style="fill:#ff0000;stroke:#ff0000;" x="296.788258" xlink:href="#m4b1cae5f40" y="128.537767"/>
     <use style="fill:#ff0000;stroke:#ff0000;" x="298.092092" xlink:href="#m4b1cae5f40" y="139.774057"/>
     <use style="fill:#ff0000;stroke:#ff0000;" x="299.395926" xlink:href="#m4b1cae5f40" y="120.913076"/>
     <use style="fill:#ff0000;stroke:#ff0000;" x="300.699759" xlink:href="#m4b1cae5f40" y="128.727522"/>
     <use style="fill:#ff0000;stroke:#ff0000;" x="302.003593" xlink:href="#m4b1cae5f40" y="161.285058"/>
     <use style="fill:#ff0000;stroke:#ff0000;" x="303.307426" xlink:href="#m4b1cae5f40" y="143.52656"/>
     <use style="fill:#ff0000;stroke:#ff0000;" x="304.61126" xlink:href="#m4b1cae5f40" y="154.455038"/>
     <use style="fill:#ff0000;stroke:#ff0000;" x="305.915093" xlink:href="#m4b1cae5f40" y="145.527624"/>
     <use style="fill:#ff0000;stroke:#ff0000;" x="307.218927" xlink:href="#m4b1cae5f40" y="128.872012"/>
     <use style="fill:#ff0000;stroke:#ff0000;" x="308.52276" xlink:href="#m4b1cae5f40" y="165.128329"/>
     <use style="fill:#ff0000;stroke:#ff0000;" x="309.826594" xlink:href="#m4b1cae5f40" y="161.633032"/>
     <use style="fill:#ff0000;stroke:#ff0000;" x="311.130427" xlink:href="#m4b1cae5f40" y="142.902522"/>
     <use style="fill:#ff0000;stroke:#ff0000;" x="312.434261" xlink:href="#m4b1cae5f40" y="119.119998"/>
     <use style="fill:#ff0000;stroke:#ff0000;" x="313.738094" xlink:href="#m4b1cae5f40" y="174.991317"/>
     <use style="fill:#ff0000;stroke:#ff0000;" x="315.041928" xlink:href="#m4b1cae5f40" y="123.809316"/>
     <use style="fill:#ff0000;stroke:#ff0000;" x="316.345761" xlink:href="#m4b1cae5f40" y="129.222575"/>
     <use style="fill:#ff0000;stroke:#ff0000;" x="317.649595" xlink:href="#m4b1cae5f40" y="131.275887"/>
     <use style="fill:#ff0000;stroke:#ff0000;" x="318.953428" xlink:href="#m4b1cae5f40" y="127.443345"/>
     <use style="fill:#ff0000;stroke:#ff0000;" x="320.257262" xlink:href="#m4b1cae5f40" y="123.594395"/>
     <use style="fill:#ff0000;stroke:#ff0000;" x="321.561095" xlink:href="#m4b1cae5f40" y="131.649665"/>
     <use style="fill:#ff0000;stroke:#ff0000;" x="322.864929" xlink:href="#m4b1cae5f40" y="181.155489"/>
     <use style="fill:#ff0000;stroke:#ff0000;" x="324.168762" xlink:href="#m4b1cae5f40" y="154.227221"/>
     <use style="fill:#ff0000;stroke:#ff0000;" x="325.472596" xlink:href="#m4b1cae5f40" y="110.110829"/>
     <use style="fill:#ff0000;stroke:#ff0000;" x="326.776429" xlink:href="#m4b1cae5f40" y="116.498869"/>
     <use style="fill:#ff0000;stroke:#ff0000;" x="328.080263" xlink:href="#m4b1cae5f40" y="111.029091"/>
     <use style="fill:#ff0000;stroke:#ff0000;" x="329.384096" xlink:href="#m4b1cae5f40" y="122.187752"/>
     <use style="fill:#ff0000;stroke:#ff0000;" x="330.68793" xlink:href="#m4b1cae5f40" y="149.244617"/>
     <use style="fill:#ff0000;stroke:#ff0000;" x="331.991763" xlink:href="#m4b1cae5f40" y="144.016597"/>
     <use style="fill:#ff0000;stroke:#ff0000;" x="333.295597" xlink:href="#m4b1cae5f40" y="124.572244"/>
     <use style="fill:#ff0000;stroke:#ff0000;" x="334.59943" xlink:href="#m4b1cae5f40" y="117.672402"/>
     <use style="fill:#ff0000;stroke:#ff0000;" x="335.903264" xlink:href="#m4b1cae5f40" y="139.12614"/>
     <use style="fill:#ff0000;stroke:#ff0000;" x="337.207097" xlink:href="#m4b1cae5f40" y="133.130385"/>
     <use style="fill:#ff0000;stroke:#ff0000;" x="338.510931" xlink:href="#m4b1cae5f40" y="101.135566"/>
     <use style="fill:#ff0000;stroke:#ff0000;" x="339.814765" xlink:href="#m4b1cae5f40" y="85.101105"/>
     <use style="fill:#ff0000;stroke:#ff0000;" x="341.118598" xlink:href="#m4b1cae5f40" y="112.138311"/>
     <use style="fill:#ff0000;stroke:#ff0000;" x="342.422432" xlink:href="#m4b1cae5f40" y="115.837699"/>
     <use style="fill:#ff0000;stroke:#ff0000;" x="343.726265" xlink:href="#m4b1cae5f40" y="109.147048"/>
     <use style="fill:#ff0000;stroke:#ff0000;" x="345.030099" xlink:href="#m4b1cae5f40" y="96.221801"/>
     <use style="fill:#ff0000;stroke:#ff0000;" x="346.333932" xlink:href="#m4b1cae5f40" y="113.783067"/>
     <use style="fill:#ff0000;stroke:#ff0000;" x="347.637766" xlink:href="#m4b1cae5f40" y="153.451347"/>
     <use style="fill:#ff0000;stroke:#ff0000;" x="348.941599" xlink:href="#m4b1cae5f40" y="142.749098"/>
     <use style="fill:#ff0000;stroke:#ff0000;" x="350.245433" xlink:href="#m4b1cae5f40" y="80.910146"/>
     <use style="fill:#ff0000;stroke:#ff0000;" x="351.549266" xlink:href="#m4b1cae5f40" y="92.656646"/>
     <use style="fill:#ff0000;stroke:#ff0000;" x="352.8531" xlink:href="#m4b1cae5f40" y="111.820219"/>
     <use style="fill:#ff0000;stroke:#ff0000;" x="354.156933" xlink:href="#m4b1cae5f40" y="95.16101"/>
     <use style="fill:#ff0000;stroke:#ff0000;" x="355.460767" xlink:href="#m4b1cae5f40" y="90.926349"/>
     <use style="fill:#ff0000;stroke:#ff0000;" x="356.7646" xlink:href="#m4b1cae5f40" y="87.522119"/>
     <use style="fill:#ff0000;stroke:#ff0000;" x="358.068434" xlink:href="#m4b1cae5f40" y="85.531597"/>
     <use style="fill:#ff0000;stroke:#ff0000;" x="359.372267" xlink:href="#m4b1cae5f40" y="80.80779"/>
     <use style="fill:#ff0000;stroke:#ff0000;" x="360.676101" xlink:href="#m4b1cae5f40" y="104.978839"/>
     <use style="fill:#ff0000;stroke:#ff0000;" x="361.979934" xlink:href="#m4b1cae5f40" y="129.308703"/>
     <use style="fill:#ff0000;stroke:#ff0000;" x="363.283768" xlink:href="#m4b1cae5f40" y="109.164109"/>
     <use style="fill:#ff0000;stroke:#ff0000;" x="364.587601" xlink:href="#m4b1cae5f40" y="117.480291"/>
     <use style="fill:#ff0000;stroke:#ff0000;" x="365.891435" xlink:href="#m4b1cae5f40" y="72.766663"/>
     <use style="fill:#ff0000;stroke:#ff0000;" x="367.195268" xlink:href="#m4b1cae5f40" y="138.749069"/>
     <use style="fill:#ff0000;stroke:#ff0000;" x="368.499102" xlink:href="#m4b1cae5f40" y="109.886191"/>
     <use style="fill:#ff0000;stroke:#ff0000;" x="369.802935" xlink:href="#m4b1cae5f40" y="123.581062"/>
     <use style="fill:#ff0000;stroke:#ff0000;" x="371.106769" xlink:href="#m4b1cae5f40" y="112.671434"/>
     <use style="fill:#ff0000;stroke:#ff0000;" x="372.410602" xlink:href="#m4b1cae5f40" y="103.234728"/>
     <use style="fill:#ff0000;stroke:#ff0000;" x="373.714436" xlink:href="#m4b1cae5f40" y="123.842025"/>
     <use style="fill:#ff0000;stroke:#ff0000;" x="375.018269" xlink:href="#m4b1cae5f40" y="146.685759"/>
     <use style="fill:#ff0000;stroke:#ff0000;" x="376.322103" xlink:href="#m4b1cae5f40" y="117.829043"/>
     <use style="fill:#ff0000;stroke:#ff0000;" x="377.625936" xlink:href="#m4b1cae5f40" y="89.579617"/>
     <use style="fill:#ff0000;stroke:#ff0000;" x="378.92977" xlink:href="#m4b1cae5f40" y="78.572718"/>
     <use style="fill:#ff0000;stroke:#ff0000;" x="380.233604" xlink:href="#m4b1cae5f40" y="79.913326"/>
     <use style="fill:#ff0000;stroke:#ff0000;" x="381.537437" xlink:href="#m4b1cae5f40" y="93.994638"/>
     <use style="fill:#ff0000;stroke:#ff0000;" x="382.841271" xlink:href="#m4b1cae5f40" y="133.765879"/>
     <use style="fill:#ff0000;stroke:#ff0000;" x="384.145104" xlink:href="#m4b1cae5f40" y="99.540446"/>
     <use style="fill:#ff0000;stroke:#ff0000;" x="385.448938" xlink:href="#m4b1cae5f40" y="53.568"/>
     <use style="fill:#ff0000;stroke:#ff0000;" x="386.752771" xlink:href="#m4b1cae5f40" y="70.975703"/>
     <use style="fill:#ff0000;stroke:#ff0000;" x="388.056605" xlink:href="#m4b1cae5f40" y="102.721237"/>
     <use style="fill:#ff0000;stroke:#ff0000;" x="389.360438" xlink:href="#m4b1cae5f40" y="137.570968"/>
     <use style="fill:#ff0000;stroke:#ff0000;" x="390.664272" xlink:href="#m4b1cae5f40" y="72.426896"/>
     <use style="fill:#ff0000;stroke:#ff0000;" x="391.968105" xlink:href="#m4b1cae5f40" y="95.686302"/>
     <use style="fill:#ff0000;stroke:#ff0000;" x="393.271939" xlink:href="#m4b1cae5f40" y="88.136161"/>
     <use style="fill:#ff0000;stroke:#ff0000;" x="394.575772" xlink:href="#m4b1cae5f40" y="78.787784"/>
     <use style="fill:#ff0000;stroke:#ff0000;" x="395.879606" xlink:href="#m4b1cae5f40" y="129.082633"/>
     <use style="fill:#ff0000;stroke:#ff0000;" x="397.183439" xlink:href="#m4b1cae5f40" y="68.676096"/>
     <use style="fill:#ff0000;stroke:#ff0000;" x="398.487273" xlink:href="#m4b1cae5f40" y="69.95261"/>
    </g>
   </g>
   <g id="line2d_15">
    <path clip-path="url(#p3636d9c95a)" d="M 73.832727 292.10627 
L 114.251566 267.120946 
L 154.670405 241.875843 
L 195.089244 216.370962 
L 235.508083 190.606303 
L 275.926922 164.581864 
L 316.345761 138.297648 
L 356.7646 111.753653 
L 397.183439 84.949879 
L 398.487273 84.080916 
L 398.487273 84.080916 
" style="fill:none;stroke:#008000;stroke-linecap:square;stroke-width:1.5;"/>
   </g>
   <g id="patch_3">
    <path d="M 57.6 307.584 
L 57.6 41.472 
" style="fill:none;stroke:#000000;stroke-linecap:square;stroke-linejoin:miter;stroke-width:0.8;"/>
   </g>
   <g id="patch_4">
    <path d="M 414.72 307.584 
L 414.72 41.472 
" style="fill:none;stroke:#000000;stroke-linecap:square;stroke-linejoin:miter;stroke-width:0.8;"/>
   </g>
   <g id="patch_5">
    <path d="M 57.6 307.584 
L 414.72 307.584 
" style="fill:none;stroke:#000000;stroke-linecap:square;stroke-linejoin:miter;stroke-width:0.8;"/>
   </g>
   <g id="patch_6">
    <path d="M 57.6 41.472 
L 414.72 41.472 
" style="fill:none;stroke:#000000;stroke-linecap:square;stroke-linejoin:miter;stroke-width:0.8;"/>
   </g>
   <g id="text_16">
    <!-- FunctionFitting linear -->
    <defs>
     <path d="M 9.8125 72.90625 
L 51.703125 72.90625 
L 51.703125 64.59375 
L 19.671875 64.59375 
L 19.671875 43.109375 
L 48.578125 43.109375 
L 48.578125 34.8125 
L 19.671875 34.8125 
L 19.671875 0 
L 9.8125 0 
z
" id="DejaVuSans-70"/>
     <path d="M 54.890625 33.015625 
L 54.890625 0 
L 45.90625 0 
L 45.90625 32.71875 
Q 45.90625 40.484375 42.875 44.328125 
Q 39.84375 48.1875 33.796875 48.1875 
Q 26.515625 48.1875 22.3125 43.546875 
Q 18.109375 38.921875 18.109375 30.90625 
L 18.109375 0 
L 9.078125 0 
L 9.078125 54.6875 
L 18.109375 54.6875 
L 18.109375 46.1875 
Q 21.34375 51.125 25.703125 53.5625 
Q 30.078125 56 35.796875 56 
Q 45.21875 56 50.046875 50.171875 
Q 54.890625 44.34375 54.890625 33.015625 
z
" id="DejaVuSans-110"/>
     <path d="M 48.78125 52.59375 
L 48.78125 44.1875 
Q 44.96875 46.296875 41.140625 47.34375 
Q 37.3125 48.390625 33.40625 48.390625 
Q 24.65625 48.390625 19.8125 42.84375 
Q 14.984375 37.3125 14.984375 27.296875 
Q 14.984375 17.28125 19.8125 11.734375 
Q 24.65625 6.203125 33.40625 6.203125 
Q 37.3125 6.203125 41.140625 7.25 
Q 44.96875 8.296875 48.78125 10.40625 
L 48.78125 2.09375 
Q 45.015625 0.34375 40.984375 -0.53125 
Q 36.96875 -1.421875 32.421875 -1.421875 
Q 20.0625 -1.421875 12.78125 6.34375 
Q 5.515625 14.109375 5.515625 27.296875 
Q 5.515625 40.671875 12.859375 48.328125 
Q 20.21875 56 33.015625 56 
Q 37.15625 56 41.109375 55.140625 
Q 45.0625 54.296875 48.78125 52.59375 
z
" id="DejaVuSans-99"/>
     <path d="M 18.3125 70.21875 
L 18.3125 54.6875 
L 36.8125 54.6875 
L 36.8125 47.703125 
L 18.3125 47.703125 
L 18.3125 18.015625 
Q 18.3125 11.328125 20.140625 9.421875 
Q 21.96875 7.515625 27.59375 7.515625 
L 36.8125 7.515625 
L 36.8125 0 
L 27.59375 0 
Q 17.1875 0 13.234375 3.875 
Q 9.28125 7.765625 9.28125 18.015625 
L 9.28125 47.703125 
L 2.6875 47.703125 
L 2.6875 54.6875 
L 9.28125 54.6875 
L 9.28125 70.21875 
z
" id="DejaVuSans-116"/>
     <path d="M 9.421875 54.6875 
L 18.40625 54.6875 
L 18.40625 0 
L 9.421875 0 
z
M 9.421875 75.984375 
L 18.40625 75.984375 
L 18.40625 64.59375 
L 9.421875 64.59375 
z
" id="DejaVuSans-105"/>
     <path d="M 30.609375 48.390625 
Q 23.390625 48.390625 19.1875 42.75 
Q 14.984375 37.109375 14.984375 27.296875 
Q 14.984375 17.484375 19.15625 11.84375 
Q 23.34375 6.203125 30.609375 6.203125 
Q 37.796875 6.203125 41.984375 11.859375 
Q 46.1875 17.53125 46.1875 27.296875 
Q 46.1875 37.015625 41.984375 42.703125 
Q 37.796875 48.390625 30.609375 48.390625 
z
M 30.609375 56 
Q 42.328125 56 49.015625 48.375 
Q 55.71875 40.765625 55.71875 27.296875 
Q 55.71875 13.875 49.015625 6.21875 
Q 42.328125 -1.421875 30.609375 -1.421875 
Q 18.84375 -1.421875 12.171875 6.21875 
Q 5.515625 13.875 5.515625 27.296875 
Q 5.515625 40.765625 12.171875 48.375 
Q 18.84375 56 30.609375 56 
z
" id="DejaVuSans-111"/>
     <path d="M 45.40625 27.984375 
Q 45.40625 37.75 41.375 43.109375 
Q 37.359375 48.484375 30.078125 48.484375 
Q 22.859375 48.484375 18.828125 43.109375 
Q 14.796875 37.75 14.796875 27.984375 
Q 14.796875 18.265625 18.828125 12.890625 
Q 22.859375 7.515625 30.078125 7.515625 
Q 37.359375 7.515625 41.375 12.890625 
Q 45.40625 18.265625 45.40625 27.984375 
z
M 54.390625 6.78125 
Q 54.390625 -7.171875 48.1875 -13.984375 
Q 42 -20.796875 29.203125 -20.796875 
Q 24.46875 -20.796875 20.265625 -20.09375 
Q 16.0625 -19.390625 12.109375 -17.921875 
L 12.109375 -9.1875 
Q 16.0625 -11.328125 19.921875 -12.34375 
Q 23.78125 -13.375 27.78125 -13.375 
Q 36.625 -13.375 41.015625 -8.765625 
Q 45.40625 -4.15625 45.40625 5.171875 
L 45.40625 9.625 
Q 42.625 4.78125 38.28125 2.390625 
Q 33.9375 0 27.875 0 
Q 17.828125 0 11.671875 7.65625 
Q 5.515625 15.328125 5.515625 27.984375 
Q 5.515625 40.671875 11.671875 48.328125 
Q 17.828125 56 27.875 56 
Q 33.9375 56 38.28125 53.609375 
Q 42.625 51.21875 45.40625 46.390625 
L 45.40625 54.6875 
L 54.390625 54.6875 
z
" id="DejaVuSans-103"/>
     <path d="M 41.109375 46.296875 
Q 39.59375 47.171875 37.8125 47.578125 
Q 36.03125 48 33.890625 48 
Q 26.265625 48 22.1875 43.046875 
Q 18.109375 38.09375 18.109375 28.8125 
L 18.109375 0 
L 9.078125 0 
L 9.078125 54.6875 
L 18.109375 54.6875 
L 18.109375 46.1875 
Q 20.953125 51.171875 25.484375 53.578125 
Q 30.03125 56 36.53125 56 
Q 37.453125 56 38.578125 55.875 
Q 39.703125 55.765625 41.0625 55.515625 
z
" id="DejaVuSans-114"/>
    </defs>
    <g transform="translate(172.344375 35.472)scale(0.12 -0.12)">
     <use xlink:href="#DejaVuSans-70"/>
     <use x="57.441406" xlink:href="#DejaVuSans-117"/>
     <use x="120.820312" xlink:href="#DejaVuSans-110"/>
     <use x="184.199219" xlink:href="#DejaVuSans-99"/>
     <use x="239.179688" xlink:href="#DejaVuSans-116"/>
     <use x="278.388672" xlink:href="#DejaVuSans-105"/>
     <use x="306.171875" xlink:href="#DejaVuSans-111"/>
     <use x="367.353516" xlink:href="#DejaVuSans-110"/>
     <use x="430.732422" xlink:href="#DejaVuSans-70"/>
     <use x="488.142578" xlink:href="#DejaVuSans-105"/>
     <use x="515.925781" xlink:href="#DejaVuSans-116"/>
     <use x="555.134766" xlink:href="#DejaVuSans-116"/>
     <use x="594.34375" xlink:href="#DejaVuSans-105"/>
     <use x="622.126953" xlink:href="#DejaVuSans-110"/>
     <use x="685.505859" xlink:href="#DejaVuSans-103"/>
     <use x="748.982422" xlink:href="#DejaVuSans-32"/>
     <use x="780.769531" xlink:href="#DejaVuSans-108"/>
     <use x="808.552734" xlink:href="#DejaVuSans-105"/>
     <use x="836.335938" xlink:href="#DejaVuSans-110"/>
     <use x="899.714844" xlink:href="#DejaVuSans-101"/>
     <use x="961.238281" xlink:href="#DejaVuSans-97"/>
     <use x="1022.517578" xlink:href="#DejaVuSans-114"/>
    </g>
   </g>
   <g id="legend_1">
    <g id="patch_7">
     <path d="M 64.6 78.82825 
L 172.48125 78.82825 
Q 174.48125 78.82825 174.48125 76.82825 
L 174.48125 48.472 
Q 174.48125 46.472 172.48125 46.472 
L 64.6 46.472 
Q 62.6 46.472 62.6 48.472 
L 62.6 76.82825 
Q 62.6 78.82825 64.6 78.82825 
z
" style="fill:#ffffff;opacity:0.8;stroke:#cccccc;stroke-linejoin:miter;"/>
    </g>
    <g id="line2d_16"/>
    <g id="line2d_17">
     <g>
      <use style="fill:#ff0000;stroke:#ff0000;" x="76.6" xlink:href="#m4b1cae5f40" y="54.570437"/>
     </g>
    </g>
    <g id="text_17">
     <!-- measured data -->
     <defs>
      <path d="M 52 44.1875 
Q 55.375 50.25 60.0625 53.125 
Q 64.75 56 71.09375 56 
Q 79.640625 56 84.28125 50.015625 
Q 88.921875 44.046875 88.921875 33.015625 
L 88.921875 0 
L 79.890625 0 
L 79.890625 32.71875 
Q 79.890625 40.578125 77.09375 44.375 
Q 74.3125 48.1875 68.609375 48.1875 
Q 61.625 48.1875 57.5625 43.546875 
Q 53.515625 38.921875 53.515625 30.90625 
L 53.515625 0 
L 44.484375 0 
L 44.484375 32.71875 
Q 44.484375 40.625 41.703125 44.40625 
Q 38.921875 48.1875 33.109375 48.1875 
Q 26.21875 48.1875 22.15625 43.53125 
Q 18.109375 38.875 18.109375 30.90625 
L 18.109375 0 
L 9.078125 0 
L 9.078125 54.6875 
L 18.109375 54.6875 
L 18.109375 46.1875 
Q 21.1875 51.21875 25.484375 53.609375 
Q 29.78125 56 35.6875 56 
Q 41.65625 56 45.828125 52.96875 
Q 50 49.953125 52 44.1875 
z
" id="DejaVuSans-109"/>
      <path d="M 45.40625 46.390625 
L 45.40625 75.984375 
L 54.390625 75.984375 
L 54.390625 0 
L 45.40625 0 
L 45.40625 8.203125 
Q 42.578125 3.328125 38.25 0.953125 
Q 33.9375 -1.421875 27.875 -1.421875 
Q 17.96875 -1.421875 11.734375 6.484375 
Q 5.515625 14.40625 5.515625 27.296875 
Q 5.515625 40.1875 11.734375 48.09375 
Q 17.96875 56 27.875 56 
Q 33.9375 56 38.25 53.625 
Q 42.578125 51.265625 45.40625 46.390625 
z
M 14.796875 27.296875 
Q 14.796875 17.390625 18.875 11.75 
Q 22.953125 6.109375 30.078125 6.109375 
Q 37.203125 6.109375 41.296875 11.75 
Q 45.40625 17.390625 45.40625 27.296875 
Q 45.40625 37.203125 41.296875 42.84375 
Q 37.203125 48.484375 30.078125 48.484375 
Q 22.953125 48.484375 18.875 42.84375 
Q 14.796875 37.203125 14.796875 27.296875 
z
" id="DejaVuSans-100"/>
     </defs>
     <g transform="translate(94.6 58.070437)scale(0.1 -0.1)">
      <use xlink:href="#DejaVuSans-109"/>
      <use x="97.412109" xlink:href="#DejaVuSans-101"/>
      <use x="158.935547" xlink:href="#DejaVuSans-97"/>
      <use x="220.214844" xlink:href="#DejaVuSans-115"/>
      <use x="272.314453" xlink:href="#DejaVuSans-117"/>
      <use x="335.693359" xlink:href="#DejaVuSans-114"/>
      <use x="376.775391" xlink:href="#DejaVuSans-101"/>
      <use x="438.298828" xlink:href="#DejaVuSans-100"/>
      <use x="501.775391" xlink:href="#DejaVuSans-32"/>
      <use x="533.5625" xlink:href="#DejaVuSans-100"/>
      <use x="597.039062" xlink:href="#DejaVuSans-97"/>
      <use x="658.318359" xlink:href="#DejaVuSans-116"/>
      <use x="697.527344" xlink:href="#DejaVuSans-97"/>
     </g>
    </g>
    <g id="line2d_18">
     <path d="M 66.6 69.248562 
L 86.6 69.248562 
" style="fill:none;stroke:#008000;stroke-linecap:square;stroke-width:1.5;"/>
    </g>
    <g id="line2d_19"/>
    <g id="text_18">
     <!-- linear data -->
     <g transform="translate(94.6 72.748562)scale(0.1 -0.1)">
      <use xlink:href="#DejaVuSans-108"/>
      <use x="27.783203" xlink:href="#DejaVuSans-105"/>
      <use x="55.566406" xlink:href="#DejaVuSans-110"/>
      <use x="118.945312" xlink:href="#DejaVuSans-101"/>
      <use x="180.46875" xlink:href="#DejaVuSans-97"/>
      <use x="241.748047" xlink:href="#DejaVuSans-114"/>
      <use x="282.861328" xlink:href="#DejaVuSans-32"/>
      <use x="314.648438" xlink:href="#DejaVuSans-100"/>
      <use x="378.125" xlink:href="#DejaVuSans-97"/>
      <use x="439.404297" xlink:href="#DejaVuSans-116"/>
      <use x="478.613281" xlink:href="#DejaVuSans-97"/>
     </g>
    </g>
   </g>
  </g>
 </g>
 <defs>
  <clipPath id="p3636d9c95a">
   <rect height="266.112" width="357.12" x="57.6" y="41.472"/>
  </clipPath>
 </defs>
</svg>
